<svg xmlns="http://www.w3.org/2000/svg" xmlns:xlink="http://www.w3.org/1999/xlink" width="1920" zoomAndPan="magnify" viewBox="0 0 1440 809.999993" height="1080" preserveAspectRatio="xMidYMid meet" version="1.0"><defs><g/><clipPath id="4347471389"><path d="M 934 0.921875 L 1017 0.921875 L 1017 31 L 934 31 Z M 934 0.921875 " clip-rule="nonzero"/></clipPath><clipPath id="f6663af5a4"><path d="M 0.398438 3 L 6 3 L 6 29 L 0.398438 29 Z M 0.398438 3 " clip-rule="nonzero"/></clipPath><clipPath id="74ee8e436a"><path d="M 0.566406 0.289062 L 5.460938 0.289062 L 5.460938 24.933594 L 0.566406 24.933594 Z M 0.566406 0.289062 " clip-rule="nonzero"/></clipPath><clipPath id="bf7d2c4141"><path d="M 0.566406 0.289062 L 5.460938 0.289062 L 5.460938 24.933594 L 0.566406 24.933594 Z M 0.566406 0.289062 " clip-rule="nonzero"/></clipPath><clipPath id="5bdbdab019"><rect x="0" width="6" y="0" height="25"/></clipPath><clipPath id="3f7401a2e5"><rect x="0" width="6" y="0" height="26"/></clipPath><clipPath id="55a3ae2b1b"><path d="M 77 3 L 82.71875 3 L 82.71875 29 L 77 29 Z M 77 3 " clip-rule="nonzero"/></clipPath><clipPath id="ad95ad1d0c"><path d="M 0.660156 0.289062 L 5.558594 0.289062 L 5.558594 24.933594 L 0.660156 24.933594 Z M 0.660156 0.289062 " clip-rule="nonzero"/></clipPath><clipPath id="887e94c3d6"><path d="M 0.660156 0.289062 L 5.558594 0.289062 L 5.558594 24.933594 L 0.660156 24.933594 Z M 0.660156 0.289062 " clip-rule="nonzero"/></clipPath><clipPath id="42db06d0e0"><rect x="0" width="6" y="0" height="25"/></clipPath><clipPath id="4839f1d10f"><rect x="0" width="6" y="0" height="26"/></clipPath><clipPath id="51a073847b"><path d="M 0.605469 0.160156 L 65.316406 0.160156 L 65.316406 4.574219 L 0.605469 4.574219 Z M 0.605469 0.160156 " clip-rule="nonzero"/></clipPath><clipPath id="91a574cae8"><path d="M 0.605469 0.160156 L 65.316406 0.160156 L 65.316406 4.574219 L 0.605469 4.574219 Z M 0.605469 0.160156 " clip-rule="nonzero"/></clipPath><clipPath id="04bf84fd9c"><rect x="0" width="66" y="0" height="5"/></clipPath><clipPath id="df6c235cef"><rect x="0" width="66" y="0" height="5"/></clipPath><clipPath id="a761ee1804"><path d="M 26 0.921875 L 57 0.921875 L 57 30.679688 L 26 30.679688 Z M 26 0.921875 " clip-rule="nonzero"/></clipPath><clipPath id="f1062aa26c"><path d="M 26 3 L 30.800781 3 L 30.800781 9 L 26 9 Z M 26 3 " clip-rule="nonzero"/></clipPath><clipPath id="bfd364c3ec"><rect x="0" width="31" y="0" height="31"/></clipPath><clipPath id="494d017f8a"><rect x="0" width="83" y="0" height="31"/></clipPath><clipPath id="05e2fb4455"><path d="M 0.570312 0.664062 L 28.25 0.664062 L 28.25 16.191406 L 0.570312 16.191406 Z M 0.570312 0.664062 " clip-rule="nonzero"/></clipPath><clipPath id="081036a5ba"><path d="M 0.570312 0.664062 L 28.25 0.664062 L 28.25 16.191406 L 0.570312 16.191406 Z M 0.570312 0.664062 " clip-rule="nonzero"/></clipPath><clipPath id="973649edde"><rect x="0" width="29" y="0" height="17"/></clipPath><clipPath id="837de55677"><rect x="0" width="29" y="0" height="17"/></clipPath><clipPath id="1ef413eefb"><path d="M 0.558594 0.664062 L 28.238281 0.664062 L 28.238281 16.191406 L 0.558594 16.191406 Z M 0.558594 0.664062 " clip-rule="nonzero"/></clipPath><clipPath id="7e7a250862"><path d="M 0.558594 0.664062 L 28.238281 0.664062 L 28.238281 16.191406 L 0.558594 16.191406 Z M 0.558594 0.664062 " clip-rule="nonzero"/></clipPath><clipPath id="ceae838a5e"><rect x="0" width="29" y="0" height="17"/></clipPath><clipPath id="5e5246fb00"><rect x="0" width="29" y="0" height="17"/></clipPath><clipPath id="bd7e2eeeb6"><path d="M 0.792969 0.976562 L 16.324219 0.976562 L 16.324219 28.65625 L 0.792969 28.65625 Z M 0.792969 0.976562 " clip-rule="nonzero"/></clipPath><clipPath id="db75b554f1"><path d="M 0.792969 0.976562 L 16.324219 0.976562 L 16.324219 28.65625 L 0.792969 28.65625 Z M 0.792969 0.976562 " clip-rule="nonzero"/></clipPath><clipPath id="45c1356e93"><rect x="0" width="17" y="0" height="29"/></clipPath><clipPath id="9ac6301d03"><rect x="0" width="17" y="0" height="29"/></clipPath><clipPath id="6b70128352"><path d="M 0.566406 0.425781 L 82.558594 0.425781 L 82.558594 44.292969 L 0.566406 44.292969 Z M 0.566406 0.425781 " clip-rule="nonzero"/></clipPath><clipPath id="e9804464cc"><path d="M 0.566406 0.425781 L 82.558594 0.425781 L 82.558594 44.292969 L 0.566406 44.292969 Z M 0.566406 0.425781 " clip-rule="nonzero"/></clipPath><clipPath id="0dfa274fad"><rect x="0" width="83" y="0" height="45"/></clipPath><clipPath id="7dd0c1941c"><rect x="0" width="83" y="0" height="45"/></clipPath><clipPath id="304e7ad224"><path d="M 0.410156 0.933594 L 102.710938 0.933594 L 102.710938 55.660156 L 0.410156 55.660156 Z M 0.410156 0.933594 " clip-rule="nonzero"/></clipPath><clipPath id="eb66d8e5b5"><path d="M 0.410156 0.933594 L 102.710938 0.933594 L 102.710938 55.660156 L 0.410156 55.660156 Z M 0.410156 0.933594 " clip-rule="nonzero"/></clipPath><clipPath id="70221351d9"><rect x="0" width="103" y="0" height="56"/></clipPath><clipPath id="8558706ade"><rect x="0" width="104" y="0" height="56"/></clipPath><clipPath id="5491f688a4"><path d="M 0.96875 1.089844 L 103.269531 1.089844 L 103.269531 55.820312 L 0.96875 55.820312 Z M 0.96875 1.089844 " clip-rule="nonzero"/></clipPath><clipPath id="a0f72499ae"><path d="M 0.96875 0.0898438 L 103.269531 0.0898438 L 103.269531 54.820312 L 0.96875 54.820312 Z M 0.96875 0.0898438 " clip-rule="nonzero"/></clipPath><clipPath id="f0f4121a57"><rect x="0" width="104" y="0" height="55"/></clipPath><clipPath id="9eff938e71"><rect x="0" width="104" y="0" height="56"/></clipPath><clipPath id="1d094d7930"><path d="M 0.96875 0.554688 L 103.269531 0.554688 L 103.269531 55.28125 L 0.96875 55.28125 Z M 0.96875 0.554688 " clip-rule="nonzero"/></clipPath><clipPath id="01c5713b3c"><path d="M 0.96875 0.554688 L 103.269531 0.554688 L 103.269531 55.28125 L 0.96875 55.28125 Z M 0.96875 0.554688 " clip-rule="nonzero"/></clipPath><clipPath id="e6c81ffb8e"><rect x="0" width="104" y="0" height="56"/></clipPath><clipPath id="637454c974"><rect x="0" width="104" y="0" height="56"/></clipPath><clipPath id="8d1d4262f7"><path d="M 0.40625 0.566406 L 133.0625 0.566406 L 133.0625 38.292969 L 0.40625 38.292969 Z M 0.40625 0.566406 " clip-rule="nonzero"/></clipPath><clipPath id="e671b4a760"><path d="M 0.40625 0.566406 L 133.0625 0.566406 L 133.0625 38.292969 L 0.40625 38.292969 Z M 0.40625 0.566406 " clip-rule="nonzero"/></clipPath><clipPath id="ee22c5b7c4"><rect x="0" width="134" y="0" height="39"/></clipPath><clipPath id="e145184b19"><rect x="0" width="134" y="0" height="39"/></clipPath><clipPath id="a877883077"><path d="M 0.0859375 0.566406 L 132.742188 0.566406 L 132.742188 38.292969 L 0.0859375 38.292969 Z M 0.0859375 0.566406 " clip-rule="nonzero"/></clipPath><clipPath id="64592557bf"><path d="M 0.0859375 0.566406 L 132.742188 0.566406 L 132.742188 38.292969 L 0.0859375 38.292969 Z M 0.0859375 0.566406 " clip-rule="nonzero"/></clipPath><clipPath id="8d851e2d4a"><rect x="0" width="133" y="0" height="39"/></clipPath><clipPath id="b13ede271b"><rect x="0" width="133" y="0" height="39"/></clipPath><clipPath id="96b2bd9f65"><path d="M 1233 55 L 1406.960938 55 L 1406.960938 129 L 1233 129 Z M 1233 55 " clip-rule="nonzero"/></clipPath><clipPath id="e0fd9e019a"><path d="M 0.609375 1.089844 L 173.699219 1.089844 L 173.699219 73.765625 L 0.609375 73.765625 Z M 0.609375 1.089844 " clip-rule="nonzero"/></clipPath><clipPath id="11e2a25ed1"><path d="M 0.609375 0.0898438 L 173.699219 0.0898438 L 173.699219 72.765625 L 0.609375 72.765625 Z M 0.609375 0.0898438 " clip-rule="nonzero"/></clipPath><clipPath id="705db69e3f"><rect x="0" width="174" y="0" height="73"/></clipPath><clipPath id="66139e76ba"><rect x="0" width="174" y="0" height="74"/></clipPath><clipPath id="c9619b2126"><path d="M 0.546875 0.816406 L 94.5625 0.816406 L 94.5625 194.125 L 0.546875 194.125 Z M 0.546875 0.816406 " clip-rule="nonzero"/></clipPath><clipPath id="3f1688bd59"><path d="M 0.546875 0.816406 L 94.5625 0.816406 L 94.5625 194.125 L 0.546875 194.125 Z M 0.546875 0.816406 " clip-rule="nonzero"/></clipPath><clipPath id="18b0bb1e7c"><rect x="0" width="95" y="0" height="195"/></clipPath><clipPath id="caf00e7086"><rect x="0" width="95" y="0" height="195"/></clipPath><clipPath id="0a6f583a62"><path d="M 0.59375 0.652344 L 94.613281 0.652344 L 94.613281 193.960938 L 0.59375 193.960938 Z M 0.59375 0.652344 " clip-rule="nonzero"/></clipPath><clipPath id="6f712dc5db"><path d="M 0.59375 0.652344 L 94.613281 0.652344 L 94.613281 193.960938 L 0.59375 193.960938 Z M 0.59375 0.652344 " clip-rule="nonzero"/></clipPath><clipPath id="f4811d1f5e"><rect x="0" width="95" y="0" height="194"/></clipPath><clipPath id="0cc9d3c90d"><rect x="0" width="95" y="0" height="195"/></clipPath><clipPath id="a9c9d8ba67"><path d="M 231 55 L 300 55 L 300 517.640625 L 231 517.640625 Z M 231 55 " clip-rule="nonzero"/></clipPath><clipPath id="d01e9a0b84"><path d="M 1.074219 1.085938 L 68.289062 1.085938 L 68.289062 462.625 L 1.074219 462.625 Z M 1.074219 1.085938 " clip-rule="nonzero"/></clipPath><clipPath id="92e2ee963f"><path d="M 0.0742188 0.0859375 L 67.289062 0.0859375 L 67.289062 461.625 L 0.0742188 461.625 Z M 0.0742188 0.0859375 " clip-rule="nonzero"/></clipPath><clipPath id="b9f99324e5"><rect x="0" width="68" y="0" height="462"/></clipPath><clipPath id="9bd71cdda0"><rect x="0" width="69" y="0" height="463"/></clipPath><clipPath id="ea8a4612eb"><path d="M 0.078125 82 L 280 82 L 280 491 L 0.078125 491 Z M 0.078125 82 " clip-rule="nonzero"/></clipPath><clipPath id="0fab06dd05"><path d="M 0.09375 0.367188 L 279.082031 0.367188 L 279.082031 407 L 0.09375 407 Z M 0.09375 0.367188 " clip-rule="nonzero"/></clipPath><clipPath id="4a3266ff6f"><path d="M 139.589844 0.367188 C 62.546875 0.367188 0.09375 91.367188 0.09375 203.625 C 0.09375 315.878906 62.546875 406.882812 139.589844 406.882812 C 216.628906 406.882812 279.082031 315.878906 279.082031 203.625 C 279.082031 91.367188 216.628906 0.367188 139.589844 0.367188 Z M 139.589844 0.367188 " clip-rule="nonzero"/></clipPath><clipPath id="b6c7fc5e64"><path d="M 0.09375 0.367188 L 279.082031 0.367188 L 279.082031 407 L 0.09375 407 Z M 0.09375 0.367188 " clip-rule="nonzero"/></clipPath><clipPath id="68e116b279"><path d="M 139.589844 0.367188 C 62.546875 0.367188 0.09375 91.367188 0.09375 203.625 C 0.09375 315.878906 62.546875 406.882812 139.589844 406.882812 C 216.628906 406.882812 279.082031 315.878906 279.082031 203.625 C 279.082031 91.367188 216.628906 0.367188 139.589844 0.367188 Z M 139.589844 0.367188 " clip-rule="nonzero"/></clipPath><clipPath id="60b05da250"><rect x="0" width="280" y="0" height="407"/></clipPath><clipPath id="f20225e725"><rect x="0" width="280" y="0" height="409"/></clipPath><clipPath id="42eb8d7086"><path d="M 0.316406 0.316406 L 154.863281 0.316406 L 154.863281 284.929688 L 0.316406 284.929688 Z M 0.316406 0.316406 " clip-rule="nonzero"/></clipPath><clipPath id="229f05cd3c"><path d="M 0.316406 0.316406 L 154.863281 0.316406 L 154.863281 284.929688 L 0.316406 284.929688 Z M 0.316406 0.316406 " clip-rule="nonzero"/></clipPath><clipPath id="39c552e13f"><rect x="0" width="155" y="0" height="285"/></clipPath><clipPath id="7a9aa1fc68"><rect x="0" width="156" y="0" height="286"/></clipPath><clipPath id="1bc36fe4a3"><path d="M 0.925781 0.164062 L 109.3125 0.164062 L 109.3125 40.429688 L 0.925781 40.429688 Z M 0.925781 0.164062 " clip-rule="nonzero"/></clipPath><clipPath id="36eda6ebf5"><path d="M 0.925781 0.164062 L 109.3125 0.164062 L 109.3125 40.429688 L 0.925781 40.429688 Z M 0.925781 0.164062 " clip-rule="nonzero"/></clipPath><clipPath id="85435e77d0"><rect x="0" width="110" y="0" height="41"/></clipPath><clipPath id="aecf81a3f4"><rect x="0" width="110" y="0" height="41"/></clipPath><clipPath id="5fa1d75bba"><path d="M 0.925781 0.320312 L 109.3125 0.320312 L 109.3125 40.585938 L 0.925781 40.585938 Z M 0.925781 0.320312 " clip-rule="nonzero"/></clipPath><clipPath id="26222bf75c"><path d="M 0.925781 0.320312 L 109.3125 0.320312 L 109.3125 40.585938 L 0.925781 40.585938 Z M 0.925781 0.320312 " clip-rule="nonzero"/></clipPath><clipPath id="daf81eef51"><rect x="0" width="110" y="0" height="41"/></clipPath><clipPath id="87ec20c7a8"><rect x="0" width="110" y="0" height="41"/></clipPath><clipPath id="fb259e67db"><path d="M 0.761719 1 L 3.640625 1 L 3.640625 400.398438 L 0.761719 400.398438 Z M 0.761719 1 " clip-rule="nonzero"/></clipPath><clipPath id="7c6c180b62"><rect x="0" width="4" y="0" height="401"/></clipPath><clipPath id="9a3acc3db8"><path d="M 0.078125 1 L 2.960938 1 L 2.960938 400.398438 L 0.078125 400.398438 Z M 0.078125 1 " clip-rule="nonzero"/></clipPath><clipPath id="2822be0d9d"><rect x="0" width="3" y="0" height="401"/></clipPath><clipPath id="80408d185f"><path d="M 0.640625 1 L 3.519531 1 L 3.519531 400.398438 L 0.640625 400.398438 Z M 0.640625 1 " clip-rule="nonzero"/></clipPath><clipPath id="71e14dd950"><rect x="0" width="4" y="0" height="401"/></clipPath><clipPath id="d17b454cce"><path d="M 0.28125 1 L 3.398438 1 L 3.398438 400.398438 L 0.28125 400.398438 Z M 0.28125 1 " clip-rule="nonzero"/></clipPath><clipPath id="60475031df"><rect x="0" width="4" y="0" height="401"/></clipPath><clipPath id="acb0f536ad"><path d="M 1 1 L 4 1 L 4 400.398438 L 1 400.398438 Z M 1 1 " clip-rule="nonzero"/></clipPath><clipPath id="39ce21ad8a"><rect x="0" width="5" y="0" height="401"/></clipPath><clipPath id="01ead39051"><path d="M 0.640625 1 L 3.761719 1 L 3.761719 400.398438 L 0.640625 400.398438 Z M 0.640625 1 " clip-rule="nonzero"/></clipPath><clipPath id="4310f00910"><rect x="0" width="4" y="0" height="401"/></clipPath><clipPath id="419187cf8f"><path d="M 0.320312 1 L 3.441406 1 L 3.441406 400.398438 L 0.320312 400.398438 Z M 0.320312 1 " clip-rule="nonzero"/></clipPath><clipPath id="386bb1947c"><rect x="0" width="4" y="0" height="401"/></clipPath><clipPath id="38c995361a"><rect x="0" width="1407" y="0" height="518"/></clipPath></defs><g transform="matrix(1, 0, 0, 1, 16, 145)"><g clip-path="url(#38c995361a)"><g clip-path="url(#4347471389)"><g transform="matrix(1, 0, 0, 1, 934, 0.000000000000028422)"><g clip-path="url(#494d017f8a)"><g clip-path="url(#f6663af5a4)"><g transform="matrix(1, 0, 0, 1, 0, 3)"><g clip-path="url(#3f7401a2e5)"><g clip-path="url(#74ee8e436a)"><g transform="matrix(1, 0, 0, 1, 0, 0.000000000000028422)"><g clip-path="url(#5bdbdab019)"><g clip-path="url(#bf7d2c4141)"><path fill="#545454" d="M 0.566406 0.289062 L 5.460938 0.289062 L 5.460938 24.929688 L 0.566406 24.929688 Z M 0.566406 0.289062 " fill-opacity="1" fill-rule="nonzero"/></g></g></g></g></g></g></g><g clip-path="url(#55a3ae2b1b)"><g transform="matrix(1, 0, 0, 1, 77, 3)"><g clip-path="url(#4839f1d10f)"><g clip-path="url(#ad95ad1d0c)"><g transform="matrix(1, 0, 0, 1, -0.000000000000227374, 0.000000000000028422)"><g clip-path="url(#42db06d0e0)"><g clip-path="url(#887e94c3d6)"><path fill="#545454" d="M 0.660156 0.289062 L 5.558594 0.289062 L 5.558594 24.929688 L 0.660156 24.929688 Z M 0.660156 0.289062 " fill-opacity="1" fill-rule="nonzero"/></g></g></g></g></g></g></g><g transform="matrix(1, 0, 0, 1, 9, 13)"><g clip-path="url(#df6c235cef)"><g clip-path="url(#51a073847b)"><g transform="matrix(1, 0, 0, 1, 0, 0.000000000000056843)"><g clip-path="url(#04bf84fd9c)"><g clip-path="url(#91a574cae8)"><path fill="#545454" d="M 0.605469 4.574219 L 0.605469 0.160156 L 65.324219 0.160156 L 65.324219 4.574219 Z M 0.605469 4.574219 " fill-opacity="1" fill-rule="nonzero"/></g></g></g></g></g></g><g clip-path="url(#a761ee1804)"><g transform="matrix(1, 0, 0, 1, 26, 0.000000000000028422)"><g clip-path="url(#bfd364c3ec)"><g fill="#5c8374" fill-opacity="1"><g transform="translate(0.646021, 8.051643)"><g><path d="M 3.515625 0 L 0.734375 0 L 0.734375 -5.359375 L 3.515625 -5.359375 L 3.515625 -4.765625 L 1.40625 -4.765625 L 1.40625 -3.109375 L 3.375 -3.109375 L 3.375 -2.515625 L 1.40625 -2.515625 L 1.40625 -0.609375 L 3.515625 -0.609375 Z M 3.515625 0 "/></g></g></g><g fill="#5c8374" fill-opacity="1"><g transform="translate(4.609312, 8.051643)"><g><path d="M 3.15625 0 L 3.15625 -2.59375 C 3.15625 -2.914062 3.085938 -3.15625 2.953125 -3.3125 C 2.828125 -3.46875 2.628906 -3.546875 2.359375 -3.546875 C 2.160156 -3.546875 1.992188 -3.515625 1.859375 -3.453125 C 1.722656 -3.390625 1.613281 -3.296875 1.53125 -3.171875 C 1.445312 -3.046875 1.390625 -2.890625 1.359375 -2.703125 C 1.328125 -2.523438 1.3125 -2.320312 1.3125 -2.09375 L 1.3125 0 L 0.640625 0 L 0.640625 -4.03125 L 1.1875 -4.03125 L 1.28125 -3.484375 L 1.3125 -3.484375 C 1.375 -3.585938 1.445312 -3.675781 1.53125 -3.75 C 1.613281 -3.832031 1.703125 -3.898438 1.796875 -3.953125 C 1.898438 -4.003906 2.007812 -4.039062 2.125 -4.0625 C 2.238281 -4.09375 2.351562 -4.109375 2.46875 -4.109375 C 2.914062 -4.109375 3.253906 -3.988281 3.484375 -3.75 C 3.710938 -3.519531 3.828125 -3.144531 3.828125 -2.625 L 3.828125 0 Z M 3.15625 0 "/></g></g></g><g fill="#5c8374" fill-opacity="1"><g transform="translate(9.030894, 8.051643)"><g><path d="M 1.859375 -0.46875 C 1.898438 -0.46875 1.945312 -0.46875 2 -0.46875 C 2.0625 -0.476562 2.117188 -0.488281 2.171875 -0.5 C 2.222656 -0.507812 2.269531 -0.519531 2.3125 -0.53125 C 2.351562 -0.539062 2.382812 -0.546875 2.40625 -0.546875 L 2.40625 -0.046875 C 2.375 -0.0234375 2.332031 -0.0078125 2.28125 0 C 2.226562 0.0078125 2.171875 0.0195312 2.109375 0.03125 C 2.054688 0.0507812 2 0.0625 1.9375 0.0625 C 1.875 0.0703125 1.8125 0.078125 1.75 0.078125 C 1.59375 0.078125 1.453125 0.0546875 1.328125 0.015625 C 1.203125 -0.0234375 1.085938 -0.09375 0.984375 -0.1875 C 0.890625 -0.28125 0.816406 -0.40625 0.765625 -0.5625 C 0.710938 -0.726562 0.6875 -0.9375 0.6875 -1.1875 L 0.6875 -3.53125 L 0.125 -3.53125 L 0.125 -3.828125 L 0.6875 -4.109375 L 0.96875 -4.953125 L 1.359375 -4.953125 L 1.359375 -4.03125 L 2.375 -4.03125 L 2.375 -3.53125 L 1.359375 -3.53125 L 1.359375 -1.1875 C 1.359375 -0.945312 1.394531 -0.765625 1.46875 -0.640625 C 1.550781 -0.523438 1.679688 -0.46875 1.859375 -0.46875 Z M 1.859375 -0.46875 "/></g></g></g><g fill="#5c8374" fill-opacity="1"><g transform="translate(11.575319, 8.051643)"><g><path d="M 2.375 -4.109375 C 2.445312 -4.109375 2.523438 -4.101562 2.609375 -4.09375 C 2.703125 -4.082031 2.78125 -4.070312 2.84375 -4.0625 L 2.765625 -3.453125 C 2.691406 -3.460938 2.617188 -3.472656 2.546875 -3.484375 C 2.472656 -3.492188 2.40625 -3.5 2.34375 -3.5 C 2.1875 -3.5 2.046875 -3.46875 1.921875 -3.40625 C 1.796875 -3.34375 1.6875 -3.25 1.59375 -3.125 C 1.5 -3.007812 1.425781 -2.867188 1.375 -2.703125 C 1.332031 -2.546875 1.3125 -2.367188 1.3125 -2.171875 L 1.3125 0 L 0.640625 0 L 0.640625 -4.03125 L 1.1875 -4.03125 L 1.265625 -3.296875 L 1.296875 -3.296875 C 1.359375 -3.398438 1.421875 -3.5 1.484375 -3.59375 C 1.554688 -3.695312 1.632812 -3.785156 1.71875 -3.859375 C 1.8125 -3.929688 1.910156 -3.988281 2.015625 -4.03125 C 2.117188 -4.082031 2.238281 -4.109375 2.375 -4.109375 Z M 2.375 -4.109375 "/></g></g></g><g fill="#5c8374" fill-opacity="1"><g transform="translate(14.570702, 8.051643)"><g><path d="M 2.90625 0 L 2.78125 -0.5625 L 2.75 -0.5625 C 2.664062 -0.445312 2.582031 -0.347656 2.5 -0.265625 C 2.414062 -0.191406 2.328125 -0.128906 2.234375 -0.078125 C 2.140625 -0.0234375 2.035156 0.0078125 1.921875 0.03125 C 1.804688 0.0625 1.671875 0.078125 1.515625 0.078125 C 1.347656 0.078125 1.191406 0.0507812 1.046875 0 C 0.898438 -0.0390625 0.773438 -0.109375 0.671875 -0.203125 C 0.566406 -0.304688 0.484375 -0.429688 0.421875 -0.578125 C 0.367188 -0.734375 0.34375 -0.914062 0.34375 -1.125 C 0.34375 -1.53125 0.484375 -1.835938 0.765625 -2.046875 C 1.046875 -2.265625 1.476562 -2.382812 2.0625 -2.40625 L 2.734375 -2.421875 L 2.734375 -2.6875 C 2.734375 -2.84375 2.710938 -2.976562 2.671875 -3.09375 C 2.640625 -3.207031 2.585938 -3.296875 2.515625 -3.359375 C 2.453125 -3.421875 2.367188 -3.46875 2.265625 -3.5 C 2.171875 -3.53125 2.0625 -3.546875 1.9375 -3.546875 C 1.738281 -3.546875 1.550781 -3.515625 1.375 -3.453125 C 1.195312 -3.398438 1.023438 -3.332031 0.859375 -3.25 L 0.625 -3.75 C 0.8125 -3.84375 1.015625 -3.925781 1.234375 -4 C 1.460938 -4.070312 1.695312 -4.109375 1.9375 -4.109375 C 2.1875 -4.109375 2.398438 -4.082031 2.578125 -4.03125 C 2.765625 -3.976562 2.914062 -3.894531 3.03125 -3.78125 C 3.15625 -3.675781 3.242188 -3.539062 3.296875 -3.375 C 3.359375 -3.207031 3.390625 -3.003906 3.390625 -2.765625 L 3.390625 0 Z M 1.6875 -0.46875 C 1.832031 -0.46875 1.96875 -0.488281 2.09375 -0.53125 C 2.226562 -0.582031 2.335938 -0.65625 2.421875 -0.75 C 2.515625 -0.84375 2.585938 -0.957031 2.640625 -1.09375 C 2.703125 -1.238281 2.734375 -1.410156 2.734375 -1.609375 L 2.734375 -1.96875 L 2.203125 -1.9375 C 1.984375 -1.9375 1.796875 -1.914062 1.640625 -1.875 C 1.492188 -1.832031 1.375 -1.773438 1.28125 -1.703125 C 1.195312 -1.640625 1.132812 -1.554688 1.09375 -1.453125 C 1.050781 -1.359375 1.03125 -1.25 1.03125 -1.125 C 1.03125 -0.894531 1.085938 -0.726562 1.203125 -0.625 C 1.328125 -0.519531 1.488281 -0.46875 1.6875 -0.46875 Z M 1.6875 -0.46875 "/></g></g></g><g fill="#5c8374" fill-opacity="1"><g transform="translate(18.555992, 8.051643)"><g><path d="M 3.15625 0 L 3.15625 -2.59375 C 3.15625 -2.914062 3.085938 -3.15625 2.953125 -3.3125 C 2.828125 -3.46875 2.628906 -3.546875 2.359375 -3.546875 C 2.160156 -3.546875 1.992188 -3.515625 1.859375 -3.453125 C 1.722656 -3.390625 1.613281 -3.296875 1.53125 -3.171875 C 1.445312 -3.046875 1.390625 -2.890625 1.359375 -2.703125 C 1.328125 -2.523438 1.3125 -2.320312 1.3125 -2.09375 L 1.3125 0 L 0.640625 0 L 0.640625 -4.03125 L 1.1875 -4.03125 L 1.28125 -3.484375 L 1.3125 -3.484375 C 1.375 -3.585938 1.445312 -3.675781 1.53125 -3.75 C 1.613281 -3.832031 1.703125 -3.898438 1.796875 -3.953125 C 1.898438 -4.003906 2.007812 -4.039062 2.125 -4.0625 C 2.238281 -4.09375 2.351562 -4.109375 2.46875 -4.109375 C 2.914062 -4.109375 3.253906 -3.988281 3.484375 -3.75 C 3.710938 -3.519531 3.828125 -3.144531 3.828125 -2.625 L 3.828125 0 Z M 3.15625 0 "/></g></g></g><g fill="#5c8374" fill-opacity="1"><g transform="translate(22.977573, 8.051643)"><g><path d="M 2.1875 0.078125 C 1.9375 0.078125 1.703125 0.0390625 1.484375 -0.03125 C 1.265625 -0.113281 1.078125 -0.238281 0.921875 -0.40625 C 0.765625 -0.570312 0.640625 -0.785156 0.546875 -1.046875 C 0.460938 -1.304688 0.421875 -1.625 0.421875 -2 C 0.421875 -2.375 0.460938 -2.695312 0.546875 -2.96875 C 0.640625 -3.238281 0.769531 -3.457031 0.9375 -3.625 C 1.101562 -3.789062 1.289062 -3.910156 1.5 -3.984375 C 1.71875 -4.066406 1.953125 -4.109375 2.203125 -4.109375 C 2.398438 -4.109375 2.585938 -4.085938 2.765625 -4.046875 C 2.953125 -4.003906 3.101562 -3.953125 3.21875 -3.890625 L 3.03125 -3.328125 C 2.96875 -3.347656 2.898438 -3.367188 2.828125 -3.390625 C 2.765625 -3.410156 2.695312 -3.429688 2.625 -3.453125 C 2.550781 -3.472656 2.476562 -3.488281 2.40625 -3.5 C 2.332031 -3.507812 2.265625 -3.515625 2.203125 -3.515625 C 1.828125 -3.515625 1.550781 -3.390625 1.375 -3.140625 C 1.195312 -2.898438 1.109375 -2.519531 1.109375 -2 C 1.109375 -1.476562 1.195312 -1.097656 1.375 -0.859375 C 1.550781 -0.628906 1.820312 -0.515625 2.1875 -0.515625 C 2.382812 -0.515625 2.5625 -0.535156 2.71875 -0.578125 C 2.875 -0.617188 3.019531 -0.671875 3.15625 -0.734375 L 3.15625 -0.140625 C 3.019531 -0.0664062 2.875 -0.015625 2.71875 0.015625 C 2.570312 0.0546875 2.394531 0.078125 2.1875 0.078125 Z M 2.1875 0.078125 "/></g></g></g><g clip-path="url(#f1062aa26c)"><g fill="#5c8374" fill-opacity="1"><g transform="translate(26.453244, 8.051643)"><g><path d="M 2.234375 0.078125 C 1.960938 0.078125 1.710938 0.03125 1.484375 -0.0625 C 1.265625 -0.15625 1.070312 -0.285156 0.90625 -0.453125 C 0.75 -0.628906 0.628906 -0.84375 0.546875 -1.09375 C 0.460938 -1.351562 0.421875 -1.648438 0.421875 -1.984375 C 0.421875 -2.316406 0.457031 -2.613281 0.53125 -2.875 C 0.613281 -3.132812 0.726562 -3.351562 0.875 -3.53125 C 1.019531 -3.71875 1.191406 -3.859375 1.390625 -3.953125 C 1.597656 -4.054688 1.828125 -4.109375 2.078125 -4.109375 C 2.316406 -4.109375 2.535156 -4.0625 2.734375 -3.96875 C 2.929688 -3.882812 3.09375 -3.765625 3.21875 -3.609375 C 3.351562 -3.453125 3.457031 -3.257812 3.53125 -3.03125 C 3.601562 -2.8125 3.640625 -2.566406 3.640625 -2.296875 L 3.640625 -1.890625 L 1.109375 -1.890625 C 1.117188 -1.410156 1.21875 -1.0625 1.40625 -0.84375 C 1.59375 -0.625 1.867188 -0.515625 2.234375 -0.515625 C 2.359375 -0.515625 2.472656 -0.519531 2.578125 -0.53125 C 2.691406 -0.539062 2.796875 -0.554688 2.890625 -0.578125 C 2.992188 -0.597656 3.09375 -0.625 3.1875 -0.65625 C 3.28125 -0.695312 3.375 -0.738281 3.46875 -0.78125 L 3.46875 -0.1875 C 3.363281 -0.144531 3.265625 -0.101562 3.171875 -0.0625 C 3.078125 -0.03125 2.976562 -0.00390625 2.875 0.015625 C 2.78125 0.0351562 2.679688 0.0507812 2.578125 0.0625 C 2.472656 0.0703125 2.359375 0.078125 2.234375 0.078125 Z M 2.0625 -3.546875 C 1.78125 -3.546875 1.554688 -3.445312 1.390625 -3.25 C 1.234375 -3.0625 1.144531 -2.785156 1.125 -2.421875 L 2.921875 -2.421875 C 2.921875 -2.585938 2.90625 -2.738281 2.875 -2.875 C 2.84375 -3.019531 2.789062 -3.140625 2.71875 -3.234375 C 2.644531 -3.335938 2.554688 -3.414062 2.453125 -3.46875 C 2.347656 -3.519531 2.21875 -3.546875 2.0625 -3.546875 Z M 2.0625 -3.546875 "/></g></g></g></g><g fill="#5c8374" fill-opacity="1"><g transform="translate(8.050284, 28.756447)"><g><path d="M 0.640625 -4.34375 L 3.375 -4.34375 L 3.375 -6.046875 L 4.015625 -6.046875 L 4.015625 -4.34375 L 6.90625 -4.34375 L 6.90625 -3.765625 L 4.140625 -3.765625 C 4.671875 -1.898438 5.695312 -0.632812 7.21875 0.03125 L 6.90625 0.671875 C 5.507812 0.0234375 4.488281 -1.144531 3.84375 -2.84375 C 3.414062 -1.414062 2.347656 -0.242188 0.640625 0.671875 L 0.328125 0.125 C 2.222656 -0.957031 3.226562 -2.253906 3.34375 -3.765625 L 0.640625 -3.765625 Z M 0.640625 -4.34375 "/></g></g></g><g fill="#5c8374" fill-opacity="1"><g transform="translate(15.558907, 28.756447)"><g><path d="M 1.875 -6.171875 C 2.15625 -5.859375 2.378906 -5.515625 2.546875 -5.140625 L 2.03125 -4.8125 C 1.875 -5.1875 1.65625 -5.53125 1.375 -5.84375 Z M 3.140625 -5.8125 L 6.75 -5.8125 L 6.75 -0.125 C 6.75 0.15625 6.691406 0.363281 6.578125 0.5 C 6.460938 0.632812 6.296875 0.703125 6.078125 0.703125 C 5.921875 0.703125 5.734375 0.691406 5.515625 0.671875 L 5.375 0.0625 C 5.601562 0.101562 5.796875 0.125 5.953125 0.125 C 6.097656 0.125 6.171875 -0.015625 6.171875 -0.296875 L 6.171875 -5.28125 L 3.140625 -5.28125 Z M 0.765625 -4.75 L 1.34375 -4.75 L 1.34375 0.671875 L 0.765625 0.671875 Z M 0.765625 -4.75 "/></g></g></g></g></g></g></g></g></g><g transform="matrix(1, 0, 0, 1, 910, 84)"><g clip-path="url(#837de55677)"><g clip-path="url(#05e2fb4455)"><g transform="matrix(1, 0, 0, 1, -0.000000000000113687, 0.000000000000056843)"><g clip-path="url(#973649edde)"><g clip-path="url(#081036a5ba)"><path fill="#e5e5e5" d="M 0.570312 0.664062 L 28.234375 0.664062 L 28.234375 16.191406 L 0.570312 16.191406 Z M 0.570312 0.664062 " fill-opacity="1" fill-rule="nonzero"/></g></g></g></g></g></g><g transform="matrix(1, 0, 0, 1, 1016, 84)"><g clip-path="url(#5e5246fb00)"><g clip-path="url(#1ef413eefb)"><g transform="matrix(1, 0, 0, 1, 0, 0.000000000000056843)"><g clip-path="url(#ceae838a5e)"><g clip-path="url(#7e7a250862)"><path fill="#e5e5e5" d="M 0.558594 0.664062 L 28.21875 0.664062 L 28.21875 16.191406 L 0.558594 16.191406 Z M 0.558594 0.664062 " fill-opacity="1" fill-rule="nonzero"/></g></g></g></g></g></g><g transform="matrix(1, 0, 0, 1, 967, 105)"><g clip-path="url(#9ac6301d03)"><g clip-path="url(#bd7e2eeeb6)"><g transform="matrix(1, 0, 0, 1, 0.000000000000113687, 0.000000000000056843)"><g clip-path="url(#45c1356e93)"><g clip-path="url(#db75b554f1)"><path fill="#e5e5e5" d="M 0.792969 28.65625 L 0.792969 0.996094 L 16.324219 0.996094 L 16.324219 28.65625 Z M 0.792969 28.65625 " fill-opacity="1" fill-rule="nonzero"/></g></g></g></g></g></g><g transform="matrix(1, 0, 0, 1, 934, 67)"><g clip-path="url(#7dd0c1941c)"><g clip-path="url(#6b70128352)"><g transform="matrix(1, 0, 0, 1, 0, 0.000000000000028422)"><g clip-path="url(#0dfa274fad)"><g clip-path="url(#e9804464cc)"><path fill="#dc8a78" d="M 0.566406 0.425781 L 82.640625 0.425781 L 82.640625 44.292969 L 0.566406 44.292969 Z M 0.566406 0.425781 " fill-opacity="1" fill-rule="nonzero"/></g></g></g></g><g fill="#000000" fill-opacity="1"><g transform="translate(32.485908, 18.959635)"><g><path d="M 6.53125 -6.546875 L 6.53125 0 L 5.84375 0 L 5.84375 -3.015625 L 1.75 -3.015625 L 1.75 0 L 1.0625 0 L 1.0625 -6.546875 L 1.75 -6.546875 L 1.75 -3.625 L 5.84375 -3.625 L 5.84375 -6.546875 Z M 6.53125 -6.546875 "/></g></g><g transform="translate(40.08791, 18.959635)"><g><path d="M 2.640625 -4.953125 C 3.285156 -4.953125 3.78125 -4.789062 4.125 -4.46875 C 4.46875 -4.144531 4.640625 -3.671875 4.640625 -3.046875 L 4.640625 0 L 4 0 L 4 -0.765625 C 3.851562 -0.515625 3.632812 -0.316406 3.34375 -0.171875 C 3.050781 -0.0234375 2.707031 0.046875 2.3125 0.046875 C 1.757812 0.046875 1.320312 -0.0820312 1 -0.34375 C 0.675781 -0.601562 0.515625 -0.953125 0.515625 -1.390625 C 0.515625 -1.804688 0.664062 -2.140625 0.96875 -2.390625 C 1.269531 -2.648438 1.75 -2.78125 2.40625 -2.78125 L 3.96875 -2.78125 L 3.96875 -3.078125 C 3.96875 -3.492188 3.847656 -3.8125 3.609375 -4.03125 C 3.378906 -4.257812 3.035156 -4.375 2.578125 -4.375 C 2.265625 -4.375 1.960938 -4.320312 1.671875 -4.21875 C 1.390625 -4.113281 1.144531 -3.972656 0.9375 -3.796875 L 0.640625 -4.28125 C 0.890625 -4.5 1.1875 -4.664062 1.53125 -4.78125 C 1.882812 -4.894531 2.253906 -4.953125 2.640625 -4.953125 Z M 2.40625 -0.46875 C 2.78125 -0.46875 3.101562 -0.550781 3.375 -0.71875 C 3.644531 -0.894531 3.84375 -1.144531 3.96875 -1.46875 L 3.96875 -2.28125 L 2.421875 -2.28125 C 1.585938 -2.28125 1.171875 -1.988281 1.171875 -1.40625 C 1.171875 -1.113281 1.28125 -0.882812 1.5 -0.71875 C 1.71875 -0.550781 2.019531 -0.46875 2.40625 -0.46875 Z M 2.40625 -0.46875 "/></g></g></g><g fill="#000000" fill-opacity="1"><g transform="translate(45.604737, 18.959635)"><g><path d="M 0.921875 -6.9375 L 1.59375 -6.9375 L 1.59375 0 L 0.921875 0 Z M 0.921875 -6.9375 "/></g></g></g><g fill="#000000" fill-opacity="1"><g transform="translate(48.120036, 18.959635)"><g><path d="M 0.921875 -6.9375 L 1.59375 -6.9375 L 1.59375 0 L 0.921875 0 Z M 0.921875 -6.9375 "/></g></g></g><g fill="#000000" fill-opacity="1"><g transform="translate(32.209357, 31.983624)"><g><path d="M 3.777344 -6.246094 L 3.648438 -6.21875 L 2.722656 -6.21875 L 3.246094 -6.554688 C 3.066406 -6.910156 2.65625 -7.441406 2.28125 -7.835938 L 1.738281 -7.519531 C 2.09375 -7.132812 2.488281 -6.582031 2.664062 -6.21875 L 0.710938 -6.21875 L 0.710938 -5.582031 L 3.28125 -5.582031 C 2.628906 -4.367188 1.476562 -3.234375 0.363281 -2.597656 C 0.46875 -2.460938 0.609375 -2.121094 0.664062 -1.9375 C 1.167969 -2.253906 1.691406 -2.664062 2.1875 -3.160156 L 2.1875 0.703125 L 2.859375 0.703125 L 2.859375 -3.292969 C 3.273438 -2.832031 3.796875 -2.226562 4.03125 -1.90625 L 4.460938 -2.476562 C 4.226562 -2.722656 3.375 -3.628906 2.964844 -4.011719 C 3.449219 -4.609375 3.863281 -5.28125 4.152344 -5.976562 Z M 6.378906 -0.167969 C 5.964844 -0.167969 5.890625 -0.253906 5.890625 -0.738281 L 5.890625 -7.734375 L 5.207031 -7.734375 L 5.207031 -0.757812 C 5.207031 0.195312 5.441406 0.46875 6.3125 0.46875 L 7.808594 0.46875 C 8.660156 0.46875 8.84375 -0.0546875 8.929688 -1.582031 C 8.734375 -1.628906 8.472656 -1.75 8.292969 -1.890625 C 8.238281 -0.503906 8.171875 -0.167969 7.769531 -0.167969 Z M 6.378906 -0.167969 "/></g></g></g><g fill="#000000" fill-opacity="1"><g transform="translate(41.559914, 31.983624)"><g><path d="M 1.347656 -5.714844 L 8.003906 -5.714844 L 8.003906 -4.292969 L 8.675781 -4.292969 L 8.675781 -6.332031 L 6.9375 -6.332031 C 7.238281 -6.640625 7.582031 -7.078125 7.882812 -7.5 L 7.171875 -7.75 C 6.964844 -7.378906 6.601562 -6.835938 6.320312 -6.488281 L 6.722656 -6.332031 L 5.003906 -6.332031 L 5.003906 -7.828125 L 4.320312 -7.828125 L 4.320312 -6.332031 L 2.683594 -6.332031 L 3.03125 -6.488281 C 2.871094 -6.835938 2.507812 -7.339844 2.167969 -7.714844 L 1.5625 -7.472656 C 1.84375 -7.125 2.140625 -6.667969 2.320312 -6.332031 L 0.710938 -6.332031 L 0.710938 -4.292969 L 1.347656 -4.292969 Z M 2.769531 -4.414062 L 6.59375 -4.414062 L 6.59375 -3.375 L 2.769531 -3.375 Z M 5.003906 -0.160156 L 5.003906 -1.28125 L 8.03125 -1.28125 L 8.03125 -1.890625 L 5.003906 -1.890625 L 5.003906 -2.816406 L 7.273438 -2.816406 L 7.273438 -4.972656 L 2.113281 -4.972656 L 2.113281 -2.816406 L 4.320312 -2.816406 L 4.320312 -1.890625 L 1.449219 -1.890625 L 1.449219 -1.28125 L 4.320312 -1.28125 L 4.320312 -0.160156 L 0.636719 -0.160156 L 0.636719 0.457031 L 8.742188 0.457031 L 8.742188 -0.160156 Z M 5.003906 -0.160156 "/></g></g></g></g></g><g transform="matrix(1, 0, 0, 1, 924, 126)"><g clip-path="url(#8558706ade)"><g clip-path="url(#304e7ad224)"><g transform="matrix(1, 0, 0, 1, -0.000000000000113687, 0)"><g clip-path="url(#70221351d9)"><g clip-path="url(#eb66d8e5b5)"><path fill="#dc8a78" d="M 0.410156 0.933594 L 102.8125 0.933594 L 102.8125 55.660156 L 0.410156 55.660156 Z M 0.410156 0.933594 " fill-opacity="1" fill-rule="nonzero"/></g></g></g></g></g></g><g transform="matrix(1, 0, 0, 1, 482, 55)"><g clip-path="url(#9eff938e71)"><g clip-path="url(#5491f688a4)"><g transform="matrix(1, 0, 0, 1, -0.000000000000056843, 1)"><g clip-path="url(#f0f4121a57)"><g clip-path="url(#a0f72499ae)"><path fill="#dc8a78" d="M 0.96875 0.0898438 L 103.371094 0.0898438 L 103.371094 54.820312 L 0.96875 54.820312 Z M 0.96875 0.0898438 " fill-opacity="1" fill-rule="nonzero"/></g></g></g></g></g></g><g transform="matrix(1, 0, 0, 1, 482, 316)"><g clip-path="url(#637454c974)"><g clip-path="url(#1d094d7930)"><g transform="matrix(1, 0, 0, 1, -0.000000000000056843, 0)"><g clip-path="url(#e6c81ffb8e)"><g clip-path="url(#01c5713b3c)"><path fill="#c3fdff" d="M 0.96875 0.554688 L 103.371094 0.554688 L 103.371094 55.28125 L 0.96875 55.28125 Z M 0.96875 0.554688 " fill-opacity="1" fill-rule="nonzero"/></g></g></g></g><g fill="#000000" fill-opacity="1"><g transform="translate(22.742958, 20.089642)"><g><path d="M 2.25 0.046875 C 1.875 0.046875 1.507812 -0.015625 1.15625 -0.140625 C 0.800781 -0.265625 0.53125 -0.425781 0.34375 -0.625 L 0.5625 -1.046875 C 0.75 -0.859375 0.992188 -0.707031 1.296875 -0.59375 C 1.609375 -0.476562 1.925781 -0.421875 2.25 -0.421875 C 2.707031 -0.421875 3.050781 -0.503906 3.28125 -0.671875 C 3.519531 -0.835938 3.640625 -1.054688 3.640625 -1.328125 C 3.640625 -1.535156 3.578125 -1.695312 3.453125 -1.8125 C 3.328125 -1.9375 3.171875 -2.03125 2.984375 -2.09375 C 2.804688 -2.164062 2.554688 -2.242188 2.234375 -2.328125 C 1.847656 -2.421875 1.539062 -2.507812 1.3125 -2.59375 C 1.082031 -2.6875 0.882812 -2.828125 0.71875 -3.015625 C 0.550781 -3.203125 0.46875 -3.457031 0.46875 -3.78125 C 0.46875 -4.03125 0.535156 -4.257812 0.671875 -4.46875 C 0.804688 -4.6875 1.015625 -4.859375 1.296875 -4.984375 C 1.585938 -5.117188 1.941406 -5.1875 2.359375 -5.1875 C 2.660156 -5.1875 2.953125 -5.144531 3.234375 -5.0625 C 3.515625 -4.976562 3.753906 -4.867188 3.953125 -4.734375 L 3.78125 -4.296875 C 3.5625 -4.441406 3.328125 -4.546875 3.078125 -4.609375 C 2.835938 -4.679688 2.597656 -4.71875 2.359375 -4.71875 C 1.910156 -4.71875 1.570312 -4.628906 1.34375 -4.453125 C 1.113281 -4.285156 1 -4.066406 1 -3.796875 C 1 -3.585938 1.0625 -3.421875 1.1875 -3.296875 C 1.3125 -3.171875 1.46875 -3.070312 1.65625 -3 C 1.851562 -2.9375 2.109375 -2.867188 2.421875 -2.796875 C 2.796875 -2.703125 3.097656 -2.609375 3.328125 -2.515625 C 3.566406 -2.421875 3.765625 -2.28125 3.921875 -2.09375 C 4.085938 -1.914062 4.171875 -1.671875 4.171875 -1.359375 C 4.171875 -1.097656 4.097656 -0.859375 3.953125 -0.640625 C 3.816406 -0.429688 3.601562 -0.265625 3.3125 -0.140625 C 3.03125 -0.015625 2.675781 0.046875 2.25 0.046875 Z M 2.25 0.046875 "/></g></g></g><g fill="#000000" fill-opacity="1"><g transform="translate(27.186229, 20.089642)"><g><path d="M 6.390625 -3.859375 L 4.9375 0 L 4.4375 0 L 3.21875 -3.171875 L 2 0 L 1.515625 0 L 0.0625 -3.859375 L 0.5625 -3.859375 L 1.765625 -0.578125 L 3.015625 -3.859375 L 3.453125 -3.859375 L 4.6875 -0.578125 L 5.921875 -3.859375 Z M 6.390625 -3.859375 "/></g></g></g><g fill="#000000" fill-opacity="1"><g transform="translate(33.641834, 20.089642)"><g><path d="M 0.734375 -3.859375 L 1.25 -3.859375 L 1.25 0 L 0.734375 0 Z M 0.984375 -4.703125 C 0.878906 -4.703125 0.789062 -4.738281 0.71875 -4.8125 C 0.644531 -4.882812 0.609375 -4.972656 0.609375 -5.078125 C 0.609375 -5.179688 0.644531 -5.269531 0.71875 -5.34375 C 0.789062 -5.414062 0.878906 -5.453125 0.984375 -5.453125 C 1.085938 -5.453125 1.175781 -5.414062 1.25 -5.34375 C 1.320312 -5.269531 1.359375 -5.1875 1.359375 -5.09375 C 1.359375 -4.976562 1.320312 -4.882812 1.25 -4.8125 C 1.175781 -4.738281 1.085938 -4.703125 0.984375 -4.703125 Z M 0.984375 -4.703125 "/></g></g></g><g fill="#000000" fill-opacity="1"><g transform="translate(35.61744, 20.089642)"><g><path d="M 5.546875 -3.890625 C 6.023438 -3.890625 6.398438 -3.75 6.671875 -3.46875 C 6.953125 -3.195312 7.09375 -2.785156 7.09375 -2.234375 L 7.09375 0 L 6.578125 0 L 6.578125 -2.1875 C 6.578125 -2.59375 6.476562 -2.898438 6.28125 -3.109375 C 6.09375 -3.316406 5.820312 -3.421875 5.46875 -3.421875 C 5.070312 -3.421875 4.753906 -3.296875 4.515625 -3.046875 C 4.285156 -2.804688 4.171875 -2.46875 4.171875 -2.03125 L 4.171875 0 L 3.65625 0 L 3.65625 -2.1875 C 3.65625 -2.59375 3.554688 -2.898438 3.359375 -3.109375 C 3.171875 -3.316406 2.898438 -3.421875 2.546875 -3.421875 C 2.148438 -3.421875 1.832031 -3.296875 1.59375 -3.046875 C 1.363281 -2.804688 1.25 -2.46875 1.25 -2.03125 L 1.25 0 L 0.734375 0 L 0.734375 -3.859375 L 1.21875 -3.859375 L 1.21875 -3.15625 C 1.363281 -3.394531 1.554688 -3.578125 1.796875 -3.703125 C 2.046875 -3.828125 2.328125 -3.890625 2.640625 -3.890625 C 2.960938 -3.890625 3.242188 -3.820312 3.484375 -3.6875 C 3.722656 -3.550781 3.898438 -3.347656 4.015625 -3.078125 C 4.160156 -3.328125 4.363281 -3.523438 4.625 -3.671875 C 4.894531 -3.816406 5.203125 -3.890625 5.546875 -3.890625 Z M 5.546875 -3.890625 "/></g></g></g><g fill="#000000" fill-opacity="1"><g transform="translate(43.409703, 20.089642)"><g><path d="M 5.546875 -3.890625 C 6.023438 -3.890625 6.398438 -3.75 6.671875 -3.46875 C 6.953125 -3.195312 7.09375 -2.785156 7.09375 -2.234375 L 7.09375 0 L 6.578125 0 L 6.578125 -2.1875 C 6.578125 -2.59375 6.476562 -2.898438 6.28125 -3.109375 C 6.09375 -3.316406 5.820312 -3.421875 5.46875 -3.421875 C 5.070312 -3.421875 4.753906 -3.296875 4.515625 -3.046875 C 4.285156 -2.804688 4.171875 -2.46875 4.171875 -2.03125 L 4.171875 0 L 3.65625 0 L 3.65625 -2.1875 C 3.65625 -2.59375 3.554688 -2.898438 3.359375 -3.109375 C 3.171875 -3.316406 2.898438 -3.421875 2.546875 -3.421875 C 2.148438 -3.421875 1.832031 -3.296875 1.59375 -3.046875 C 1.363281 -2.804688 1.25 -2.46875 1.25 -2.03125 L 1.25 0 L 0.734375 0 L 0.734375 -3.859375 L 1.21875 -3.859375 L 1.21875 -3.15625 C 1.363281 -3.394531 1.554688 -3.578125 1.796875 -3.703125 C 2.046875 -3.828125 2.328125 -3.890625 2.640625 -3.890625 C 2.960938 -3.890625 3.242188 -3.820312 3.484375 -3.6875 C 3.722656 -3.550781 3.898438 -3.347656 4.015625 -3.078125 C 4.160156 -3.328125 4.363281 -3.523438 4.625 -3.671875 C 4.894531 -3.816406 5.203125 -3.890625 5.546875 -3.890625 Z M 5.546875 -3.890625 "/></g></g></g><g fill="#000000" fill-opacity="1"><g transform="translate(51.201967, 20.089642)"><g><path d="M 0.734375 -3.859375 L 1.25 -3.859375 L 1.25 0 L 0.734375 0 Z M 0.984375 -4.703125 C 0.878906 -4.703125 0.789062 -4.738281 0.71875 -4.8125 C 0.644531 -4.882812 0.609375 -4.972656 0.609375 -5.078125 C 0.609375 -5.179688 0.644531 -5.269531 0.71875 -5.34375 C 0.789062 -5.414062 0.878906 -5.453125 0.984375 -5.453125 C 1.085938 -5.453125 1.175781 -5.414062 1.25 -5.34375 C 1.320312 -5.269531 1.359375 -5.1875 1.359375 -5.09375 C 1.359375 -4.976562 1.320312 -4.882812 1.25 -4.8125 C 1.175781 -4.738281 1.085938 -4.703125 0.984375 -4.703125 Z M 0.984375 -4.703125 "/></g></g></g><g fill="#000000" fill-opacity="1"><g transform="translate(53.177573, 20.089642)"><g><path d="M 2.6875 -3.890625 C 3.175781 -3.890625 3.5625 -3.75 3.84375 -3.46875 C 4.132812 -3.1875 4.28125 -2.773438 4.28125 -2.234375 L 4.28125 0 L 3.765625 0 L 3.765625 -2.1875 C 3.765625 -2.59375 3.660156 -2.898438 3.453125 -3.109375 C 3.253906 -3.316406 2.96875 -3.421875 2.59375 -3.421875 C 2.175781 -3.421875 1.847656 -3.296875 1.609375 -3.046875 C 1.367188 -2.804688 1.25 -2.46875 1.25 -2.03125 L 1.25 0 L 0.734375 0 L 0.734375 -3.859375 L 1.21875 -3.859375 L 1.21875 -3.15625 C 1.363281 -3.382812 1.5625 -3.5625 1.8125 -3.6875 C 2.070312 -3.820312 2.363281 -3.890625 2.6875 -3.890625 Z M 2.6875 -3.890625 "/></g></g></g><g fill="#000000" fill-opacity="1"><g transform="translate(58.16433, 20.089642)"><g><path d="M 4.296875 -3.859375 L 4.296875 -0.46875 C 4.296875 0.1875 4.132812 0.671875 3.8125 0.984375 C 3.5 1.304688 3.019531 1.46875 2.375 1.46875 C 2.019531 1.46875 1.679688 1.410156 1.359375 1.296875 C 1.035156 1.191406 0.773438 1.046875 0.578125 0.859375 L 0.84375 0.46875 C 1.019531 0.632812 1.242188 0.765625 1.515625 0.859375 C 1.785156 0.953125 2.066406 1 2.359375 1 C 2.847656 1 3.207031 0.882812 3.4375 0.65625 C 3.664062 0.425781 3.78125 0.0703125 3.78125 -0.40625 L 3.78125 -0.890625 C 3.625 -0.648438 3.410156 -0.460938 3.140625 -0.328125 C 2.878906 -0.203125 2.59375 -0.140625 2.28125 -0.140625 C 1.914062 -0.140625 1.582031 -0.21875 1.28125 -0.375 C 0.988281 -0.539062 0.757812 -0.765625 0.59375 -1.046875 C 0.425781 -1.335938 0.34375 -1.664062 0.34375 -2.03125 C 0.34375 -2.394531 0.425781 -2.71875 0.59375 -3 C 0.757812 -3.28125 0.988281 -3.5 1.28125 -3.65625 C 1.570312 -3.8125 1.90625 -3.890625 2.28125 -3.890625 C 2.601562 -3.890625 2.894531 -3.820312 3.15625 -3.6875 C 3.425781 -3.5625 3.640625 -3.375 3.796875 -3.125 L 3.796875 -3.859375 Z M 2.328125 -0.609375 C 2.609375 -0.609375 2.859375 -0.664062 3.078125 -0.78125 C 3.304688 -0.90625 3.484375 -1.070312 3.609375 -1.28125 C 3.734375 -1.5 3.796875 -1.75 3.796875 -2.03125 C 3.796875 -2.300781 3.734375 -2.539062 3.609375 -2.75 C 3.484375 -2.96875 3.304688 -3.132812 3.078125 -3.25 C 2.859375 -3.375 2.609375 -3.4375 2.328125 -3.4375 C 2.046875 -3.4375 1.789062 -3.375 1.5625 -3.25 C 1.34375 -3.132812 1.171875 -2.96875 1.046875 -2.75 C 0.921875 -2.539062 0.859375 -2.300781 0.859375 -2.03125 C 0.859375 -1.75 0.921875 -1.5 1.046875 -1.28125 C 1.171875 -1.070312 1.34375 -0.90625 1.5625 -0.78125 C 1.789062 -0.664062 2.046875 -0.609375 2.328125 -0.609375 Z M 2.328125 -0.609375 "/></g></g></g><g fill="#000000" fill-opacity="1"><g transform="translate(63.202494, 20.089642)"><g/></g></g><g fill="#000000" fill-opacity="1"><g transform="translate(65.12669, 20.089642)"><g><path d="M 2.765625 -5.140625 C 3.421875 -5.140625 3.929688 -4.984375 4.296875 -4.671875 C 4.671875 -4.359375 4.859375 -3.925781 4.859375 -3.375 C 4.859375 -2.832031 4.671875 -2.40625 4.296875 -2.09375 C 3.929688 -1.78125 3.421875 -1.625 2.765625 -1.625 L 1.375 -1.625 L 1.375 0 L 0.84375 0 L 0.84375 -5.140625 Z M 2.75 -2.09375 C 3.257812 -2.09375 3.644531 -2.203125 3.90625 -2.421875 C 4.175781 -2.648438 4.3125 -2.96875 4.3125 -3.375 C 4.3125 -3.789062 4.175781 -4.109375 3.90625 -4.328125 C 3.644531 -4.554688 3.257812 -4.671875 2.75 -4.671875 L 1.375 -4.671875 L 1.375 -2.09375 Z M 2.75 -2.09375 "/></g></g></g><g fill="#000000" fill-opacity="1"><g transform="translate(70.304386, 20.089642)"><g><path d="M 2.3125 0.03125 C 1.9375 0.03125 1.597656 -0.0507812 1.296875 -0.21875 C 1.003906 -0.382812 0.769531 -0.613281 0.59375 -0.90625 C 0.425781 -1.207031 0.34375 -1.550781 0.34375 -1.9375 C 0.34375 -2.3125 0.425781 -2.644531 0.59375 -2.9375 C 0.769531 -3.238281 1.003906 -3.472656 1.296875 -3.640625 C 1.597656 -3.804688 1.9375 -3.890625 2.3125 -3.890625 C 2.675781 -3.890625 3.007812 -3.804688 3.3125 -3.640625 C 3.613281 -3.472656 3.847656 -3.238281 4.015625 -2.9375 C 4.179688 -2.644531 4.265625 -2.3125 4.265625 -1.9375 C 4.265625 -1.550781 4.179688 -1.207031 4.015625 -0.90625 C 3.847656 -0.613281 3.613281 -0.382812 3.3125 -0.21875 C 3.007812 -0.0507812 2.675781 0.03125 2.3125 0.03125 Z M 2.3125 -0.421875 C 2.582031 -0.421875 2.828125 -0.484375 3.046875 -0.609375 C 3.265625 -0.734375 3.429688 -0.910156 3.546875 -1.140625 C 3.671875 -1.367188 3.734375 -1.632812 3.734375 -1.9375 C 3.734375 -2.226562 3.671875 -2.488281 3.546875 -2.71875 C 3.429688 -2.945312 3.265625 -3.125 3.046875 -3.25 C 2.828125 -3.375 2.582031 -3.4375 2.3125 -3.4375 C 2.03125 -3.4375 1.78125 -3.375 1.5625 -3.25 C 1.34375 -3.125 1.171875 -2.945312 1.046875 -2.71875 C 0.921875 -2.488281 0.859375 -2.226562 0.859375 -1.9375 C 0.859375 -1.632812 0.921875 -1.367188 1.046875 -1.140625 C 1.171875 -0.910156 1.34375 -0.734375 1.5625 -0.609375 C 1.78125 -0.484375 2.03125 -0.421875 2.3125 -0.421875 Z M 2.3125 -0.421875 "/></g></g></g><g fill="#000000" fill-opacity="1"><g transform="translate(74.909237, 20.089642)"><g><path d="M 2.3125 0.03125 C 1.9375 0.03125 1.597656 -0.0507812 1.296875 -0.21875 C 1.003906 -0.382812 0.769531 -0.613281 0.59375 -0.90625 C 0.425781 -1.207031 0.34375 -1.550781 0.34375 -1.9375 C 0.34375 -2.3125 0.425781 -2.644531 0.59375 -2.9375 C 0.769531 -3.238281 1.003906 -3.472656 1.296875 -3.640625 C 1.597656 -3.804688 1.9375 -3.890625 2.3125 -3.890625 C 2.675781 -3.890625 3.007812 -3.804688 3.3125 -3.640625 C 3.613281 -3.472656 3.847656 -3.238281 4.015625 -2.9375 C 4.179688 -2.644531 4.265625 -2.3125 4.265625 -1.9375 C 4.265625 -1.550781 4.179688 -1.207031 4.015625 -0.90625 C 3.847656 -0.613281 3.613281 -0.382812 3.3125 -0.21875 C 3.007812 -0.0507812 2.675781 0.03125 2.3125 0.03125 Z M 2.3125 -0.421875 C 2.582031 -0.421875 2.828125 -0.484375 3.046875 -0.609375 C 3.265625 -0.734375 3.429688 -0.910156 3.546875 -1.140625 C 3.671875 -1.367188 3.734375 -1.632812 3.734375 -1.9375 C 3.734375 -2.226562 3.671875 -2.488281 3.546875 -2.71875 C 3.429688 -2.945312 3.265625 -3.125 3.046875 -3.25 C 2.828125 -3.375 2.582031 -3.4375 2.3125 -3.4375 C 2.03125 -3.4375 1.78125 -3.375 1.5625 -3.25 C 1.34375 -3.125 1.171875 -2.945312 1.046875 -2.71875 C 0.921875 -2.488281 0.859375 -2.226562 0.859375 -1.9375 C 0.859375 -1.632812 0.921875 -1.367188 1.046875 -1.140625 C 1.171875 -0.910156 1.34375 -0.734375 1.5625 -0.609375 C 1.78125 -0.484375 2.03125 -0.421875 2.3125 -0.421875 Z M 2.3125 -0.421875 "/></g></g></g><g fill="#000000" fill-opacity="1"><g transform="translate(79.514088, 20.089642)"><g><path d="M 0.734375 -5.453125 L 1.25 -5.453125 L 1.25 0 L 0.734375 0 Z M 0.734375 -5.453125 "/></g></g></g><g fill="#000000" fill-opacity="1"><g transform="translate(41.099686, 30.275069)"><g><path d="M 3.671875 -5.207031 C 3.546875 -5.472656 3.285156 -5.863281 3.039062 -6.15625 L 2.546875 -5.949219 C 2.785156 -5.648438 3.039062 -5.238281 3.160156 -4.972656 Z M 2.058594 -5.3125 C 1.800781 -5.515625 1.292969 -5.847656 0.910156 -6.050781 L 0.59375 -5.679688 C 0.976562 -5.441406 1.484375 -5.105469 1.726562 -4.878906 Z M 1.820312 -3.421875 C 1.550781 -3.613281 1.007812 -3.90625 0.609375 -4.097656 L 0.300781 -3.703125 C 0.707031 -3.496094 1.25 -3.1875 1.511719 -2.980469 Z M 1.34375 -2.167969 C 1.078125 -1.335938 0.699219 -0.390625 0.433594 0.191406 L 0.925781 0.460938 C 1.210938 -0.214844 1.542969 -1.125 1.785156 -1.878906 Z M 3.046875 -3.402344 C 3.070312 -3.746094 3.078125 -4.089844 3.09375 -4.445312 L 4.464844 -4.445312 L 4.464844 -4.964844 L 1.902344 -4.964844 L 1.902344 -4.445312 L 2.585938 -4.445312 C 2.542969 -2.644531 2.445312 -0.792969 1.492188 0.214844 C 1.625 0.285156 1.792969 0.441406 1.878906 0.558594 C 2.628906 -0.265625 2.902344 -1.511719 3.019531 -2.894531 L 3.746094 -2.894531 C 3.695312 -0.941406 3.628906 -0.242188 3.519531 -0.0898438 C 3.453125 0 3.394531 0.0078125 3.289062 0.0078125 C 3.1875 0.0078125 2.917969 0.0078125 2.636719 -0.0234375 C 2.71875 0.125 2.761719 0.324219 2.777344 0.476562 C 3.0625 0.492188 3.355469 0.492188 3.527344 0.476562 C 3.710938 0.457031 3.835938 0.398438 3.953125 0.242188 C 4.128906 0 4.1875 -0.800781 4.253906 -3.152344 C 4.253906 -3.222656 4.261719 -3.402344 4.261719 -3.402344 Z M 7.042969 -2.128906 L 6.015625 -2.128906 L 6.015625 -2.660156 C 6.367188 -2.929688 6.734375 -3.296875 7 -3.652344 L 6.660156 -3.886719 L 6.566406 -3.855469 L 4.757812 -3.855469 C 4.898438 -4.089844 5.015625 -4.363281 5.132812 -4.65625 L 7.035156 -4.65625 L 7.035156 -5.171875 L 5.3125 -5.171875 C 5.382812 -5.457031 5.457031 -5.75 5.515625 -6.058594 L 4.996094 -6.140625 C 4.847656 -5.296875 4.574219 -4.457031 4.164062 -3.921875 C 4.296875 -3.855469 4.53125 -3.722656 4.628906 -3.644531 C 4.664062 -3.703125 4.707031 -3.761719 4.746094 -3.828125 L 4.746094 -3.371094 L 6.132812 -3.371094 C 5.941406 -3.171875 5.722656 -2.976562 5.507812 -2.835938 L 5.507812 -2.128906 L 4.386719 -2.128906 L 4.386719 -1.636719 L 5.507812 -1.636719 L 5.507812 -0.0507812 C 5.507812 0.0351562 5.480469 0.0585938 5.375 0.0585938 C 5.28125 0.0742188 4.949219 0.0742188 4.582031 0.0585938 C 4.640625 0.214844 4.714844 0.410156 4.738281 0.566406 C 5.230469 0.566406 5.554688 0.558594 5.757812 0.46875 C 5.964844 0.390625 6.015625 0.242188 6.015625 -0.0507812 L 6.015625 -1.636719 L 7.042969 -1.636719 Z M 7.042969 -2.128906 "/></g></g></g><g fill="#000000" fill-opacity="1"><g transform="translate(48.44395, 30.275069)"><g><path d="M 5.78125 -5.324219 C 5.25 -5.605469 4.253906 -5.941406 3.503906 -6.125 L 3.261719 -5.707031 C 4.023438 -5.507812 5.023438 -5.132812 5.515625 -4.855469 Z M 2.335938 -5.28125 C 2.035156 -5.539062 1.441406 -5.875 0.96875 -6.089844 L 0.683594 -5.683594 C 1.152344 -5.464844 1.742188 -5.097656 2.019531 -4.832031 Z M 1.945312 -3.378906 C 1.644531 -3.613281 1.035156 -3.9375 0.574219 -4.121094 L 0.285156 -3.710938 C 0.765625 -3.496094 1.359375 -3.160156 1.652344 -2.917969 Z M 1.777344 -2.253906 C 1.394531 -1.425781 0.882812 -0.460938 0.523438 0.109375 L 1 0.441406 C 1.382812 -0.234375 1.851562 -1.152344 2.195312 -1.925781 Z M 3.65625 -3.3125 L 3.5625 -3.289062 L 2.152344 -3.289062 L 2.152344 -2.785156 L 3.386719 -2.785156 C 3.101562 -1.6875 2.527344 -0.757812 1.871094 -0.308594 C 1.992188 -0.214844 2.136719 -0.0351562 2.21875 0.0898438 C 3.046875 -0.523438 3.722656 -1.675781 3.988281 -3.195312 Z M 6.476562 -3.972656 C 6.175781 -3.578125 5.699219 -3.070312 5.289062 -2.679688 C 5.121094 -3.078125 4.988281 -3.496094 4.878906 -3.929688 L 4.878906 -4.640625 L 2.796875 -4.640625 L 2.796875 -4.121094 L 4.347656 -4.121094 L 4.347656 -0.109375 C 4.347656 -0.0078125 4.3125 0.03125 4.203125 0.03125 C 4.082031 0.0351562 3.703125 0.0351562 3.289062 0.0234375 C 3.363281 0.167969 3.453125 0.410156 3.46875 0.558594 C 4.019531 0.566406 4.371094 0.550781 4.589844 0.460938 C 4.804688 0.375 4.878906 0.214844 4.878906 -0.109375 L 4.878906 -2.542969 C 5.296875 -1.425781 5.898438 -0.5 6.707031 0.0351562 C 6.792969 -0.117188 6.964844 -0.316406 7.09375 -0.425781 C 6.425781 -0.808594 5.882812 -1.460938 5.480469 -2.261719 C 5.941406 -2.636719 6.492188 -3.164062 6.949219 -3.628906 Z M 6.476562 -3.972656 "/></g></g></g><g fill="#000000" fill-opacity="1"><g transform="translate(55.788214, 30.275069)"><g><path d="M 2.363281 -5.3125 C 2.0625 -5.558594 1.476562 -5.867188 1.007812 -6.066406 L 0.707031 -5.664062 C 1.183594 -5.457031 1.761719 -5.121094 2.050781 -4.871094 Z M 1.925781 -3.34375 C 1.636719 -3.570312 1.058594 -3.871094 0.601562 -4.070312 L 0.316406 -3.65625 C 0.777344 -3.460938 1.335938 -3.121094 1.625 -2.894531 Z M 1.027344 0.449219 C 1.445312 -0.226562 1.933594 -1.144531 2.300781 -1.917969 L 1.886719 -2.253906 C 1.484375 -1.425781 0.933594 -0.46875 0.566406 0.09375 Z M 4.0625 -0.0234375 C 3.539062 -0.0234375 3.445312 -0.117188 3.445312 -0.527344 L 3.445312 -3.113281 L 4.515625 -3.53125 L 4.515625 -1.066406 L 5.054688 -1.066406 L 5.054688 -3.746094 L 6.199219 -4.1875 C 6.191406 -3.035156 6.175781 -2.261719 6.117188 -2.0625 C 6.074219 -1.878906 6.007812 -1.851562 5.875 -1.851562 C 5.789062 -1.851562 5.515625 -1.851562 5.3125 -1.859375 C 5.382812 -1.726562 5.433594 -1.503906 5.449219 -1.335938 C 5.671875 -1.335938 6 -1.34375 6.199219 -1.394531 C 6.425781 -1.453125 6.574219 -1.59375 6.632812 -1.925781 C 6.699219 -2.234375 6.722656 -3.296875 6.722656 -4.621094 L 6.742188 -4.722656 L 6.359375 -4.878906 L 6.257812 -4.796875 L 6.214844 -4.757812 L 5.054688 -4.304688 L 5.054688 -6.132812 L 4.515625 -6.132812 L 4.515625 -4.097656 L 3.445312 -3.679688 L 3.445312 -5.429688 L 2.910156 -5.429688 L 2.910156 -3.46875 L 2.035156 -3.128906 L 2.246094 -2.652344 L 2.910156 -2.910156 L 2.910156 -0.535156 C 2.910156 0.273438 3.171875 0.484375 4.039062 0.484375 L 5.972656 0.484375 C 6.785156 0.484375 6.957031 0.152344 7.050781 -0.859375 C 6.890625 -0.890625 6.675781 -0.992188 6.539062 -1.078125 C 6.476562 -0.21875 6.398438 -0.0234375 5.957031 -0.0234375 Z M 4.0625 -0.0234375 "/></g></g></g></g></g><g transform="matrix(1, 0, 0, 1, 785, 73)"><g clip-path="url(#e145184b19)"><g clip-path="url(#8d1d4262f7)"><g transform="matrix(1, 0, 0, 1, 0, 0.000000000000028422)"><g clip-path="url(#ee22c5b7c4)"><g clip-path="url(#e671b4a760)"><path fill="#dc8a78" d="M 0.40625 0.566406 L 133.039062 0.566406 L 133.039062 38.292969 L 0.40625 38.292969 Z M 0.40625 0.566406 " fill-opacity="1" fill-rule="nonzero"/></g></g></g></g></g></g><g transform="matrix(1, 0, 0, 1, 1033, 73)"><g clip-path="url(#b13ede271b)"><g clip-path="url(#a877883077)"><g transform="matrix(1, 0, 0, 1, 0, 0.000000000000028422)"><g clip-path="url(#8d851e2d4a)"><g clip-path="url(#64592557bf)"><path fill="#dc8a78" d="M 0.0859375 0.566406 L 132.71875 0.566406 L 132.71875 38.292969 L 0.0859375 38.292969 Z M 0.0859375 0.566406 " fill-opacity="1" fill-rule="nonzero"/></g></g></g></g></g></g><g clip-path="url(#96b2bd9f65)"><g transform="matrix(1, 0, 0, 1, 1233, 55)"><g clip-path="url(#66139e76ba)"><g clip-path="url(#e0fd9e019a)"><g transform="matrix(1, 0, 0, 1, 0, 1)"><g clip-path="url(#705db69e3f)"><g clip-path="url(#11e2a25ed1)"><path fill="#dc8a78" d="M 0.609375 0.0898438 L 173.78125 0.0898438 L 173.78125 72.765625 L 0.609375 72.765625 Z M 0.609375 0.0898438 " fill-opacity="1" fill-rule="nonzero"/></g></g></g></g><g fill="#000000" fill-opacity="1"><g transform="translate(59.653044, 33.650655)"><g><path d="M 1.21875 -7.484375 L 4.265625 -7.484375 C 5.054688 -7.484375 5.753906 -7.320312 6.359375 -7 C 6.960938 -6.6875 7.429688 -6.242188 7.765625 -5.671875 C 8.097656 -5.109375 8.265625 -4.460938 8.265625 -3.734375 C 8.265625 -3.015625 8.097656 -2.367188 7.765625 -1.796875 C 7.429688 -1.234375 6.960938 -0.789062 6.359375 -0.46875 C 5.753906 -0.15625 5.054688 0 4.265625 0 L 1.21875 0 Z M 4.21875 -0.6875 C 4.875 -0.6875 5.445312 -0.816406 5.9375 -1.078125 C 6.4375 -1.335938 6.816406 -1.695312 7.078125 -2.15625 C 7.347656 -2.613281 7.484375 -3.140625 7.484375 -3.734375 C 7.484375 -4.335938 7.347656 -4.867188 7.078125 -5.328125 C 6.816406 -5.785156 6.4375 -6.144531 5.9375 -6.40625 C 5.445312 -6.664062 4.875 -6.796875 4.21875 -6.796875 L 2.015625 -6.796875 L 2.015625 -0.6875 Z M 4.21875 -0.6875 "/></g></g></g><g fill="#000000" fill-opacity="1"><g transform="translate(68.477816, 33.650655)"><g><path d="M 3.359375 0.046875 C 2.816406 0.046875 2.328125 -0.0703125 1.890625 -0.3125 C 1.453125 -0.5625 1.109375 -0.898438 0.859375 -1.328125 C 0.609375 -1.765625 0.484375 -2.257812 0.484375 -2.8125 C 0.484375 -3.363281 0.609375 -3.851562 0.859375 -4.28125 C 1.109375 -4.71875 1.453125 -5.054688 1.890625 -5.296875 C 2.328125 -5.546875 2.816406 -5.671875 3.359375 -5.671875 C 3.898438 -5.671875 4.382812 -5.546875 4.8125 -5.296875 C 5.25 -5.054688 5.585938 -4.71875 5.828125 -4.28125 C 6.078125 -3.851562 6.203125 -3.363281 6.203125 -2.8125 C 6.203125 -2.257812 6.078125 -1.765625 5.828125 -1.328125 C 5.585938 -0.898438 5.25 -0.5625 4.8125 -0.3125 C 4.382812 -0.0703125 3.898438 0.046875 3.359375 0.046875 Z M 3.359375 -0.625 C 3.753906 -0.625 4.109375 -0.710938 4.421875 -0.890625 C 4.742188 -1.078125 4.992188 -1.335938 5.171875 -1.671875 C 5.347656 -2.003906 5.4375 -2.382812 5.4375 -2.8125 C 5.4375 -3.238281 5.347656 -3.617188 5.171875 -3.953125 C 4.992188 -4.285156 4.742188 -4.539062 4.421875 -4.71875 C 4.109375 -4.90625 3.753906 -5 3.359375 -5 C 2.953125 -5 2.59375 -4.90625 2.28125 -4.71875 C 1.96875 -4.539062 1.71875 -4.285156 1.53125 -3.953125 C 1.351562 -3.617188 1.265625 -3.238281 1.265625 -2.8125 C 1.265625 -2.382812 1.351562 -2.003906 1.53125 -1.671875 C 1.71875 -1.335938 1.96875 -1.078125 2.28125 -0.890625 C 2.59375 -0.710938 2.953125 -0.625 3.359375 -0.625 Z M 3.359375 -0.625 "/></g></g></g><g fill="#000000" fill-opacity="1"><g transform="translate(75.176522, 33.650655)"><g><path d="M 1.78125 -4.515625 C 1.957031 -4.898438 2.222656 -5.1875 2.578125 -5.375 C 2.929688 -5.570312 3.367188 -5.671875 3.890625 -5.671875 L 3.890625 -4.921875 L 3.703125 -4.9375 C 3.117188 -4.9375 2.65625 -4.753906 2.3125 -4.390625 C 1.976562 -4.023438 1.8125 -3.515625 1.8125 -2.859375 L 1.8125 0 L 1.0625 0 L 1.0625 -5.625 L 1.78125 -5.625 Z M 1.78125 -4.515625 "/></g></g></g><g fill="#000000" fill-opacity="1"><g transform="translate(79.375227, 33.650655)"><g><path d="M 8.0625 -5.671875 C 8.769531 -5.671875 9.320312 -5.46875 9.71875 -5.0625 C 10.125 -4.65625 10.328125 -4.054688 10.328125 -3.265625 L 10.328125 0 L 9.578125 0 L 9.578125 -3.1875 C 9.578125 -3.769531 9.4375 -4.210938 9.15625 -4.515625 C 8.875 -4.828125 8.476562 -4.984375 7.96875 -4.984375 C 7.375 -4.984375 6.910156 -4.800781 6.578125 -4.4375 C 6.242188 -4.082031 6.078125 -3.585938 6.078125 -2.953125 L 6.078125 0 L 5.328125 0 L 5.328125 -3.1875 C 5.328125 -3.769531 5.1875 -4.210938 4.90625 -4.515625 C 4.625 -4.828125 4.222656 -4.984375 3.703125 -4.984375 C 3.117188 -4.984375 2.65625 -4.800781 2.3125 -4.4375 C 1.976562 -4.082031 1.8125 -3.585938 1.8125 -2.953125 L 1.8125 0 L 1.0625 0 L 1.0625 -5.625 L 1.78125 -5.625 L 1.78125 -4.59375 C 1.976562 -4.9375 2.253906 -5.203125 2.609375 -5.390625 C 2.972656 -5.578125 3.382812 -5.671875 3.84375 -5.671875 C 4.3125 -5.671875 4.71875 -5.566406 5.0625 -5.359375 C 5.414062 -5.160156 5.675781 -4.867188 5.84375 -4.484375 C 6.050781 -4.847656 6.347656 -5.132812 6.734375 -5.34375 C 7.128906 -5.5625 7.570312 -5.671875 8.0625 -5.671875 Z M 8.0625 -5.671875 "/></g></g></g><g fill="#000000" fill-opacity="1"><g transform="translate(90.710678, 33.650655)"><g><path d="M 1.0625 -5.625 L 1.8125 -5.625 L 1.8125 0 L 1.0625 0 Z M 1.453125 -6.84375 C 1.296875 -6.84375 1.160156 -6.894531 1.046875 -7 C 0.941406 -7.113281 0.890625 -7.242188 0.890625 -7.390625 C 0.890625 -7.535156 0.941406 -7.660156 1.046875 -7.765625 C 1.160156 -7.878906 1.296875 -7.9375 1.453125 -7.9375 C 1.609375 -7.9375 1.738281 -7.882812 1.84375 -7.78125 C 1.945312 -7.675781 2 -7.550781 2 -7.40625 C 2 -7.25 1.945312 -7.113281 1.84375 -7 C 1.738281 -6.894531 1.609375 -6.84375 1.453125 -6.84375 Z M 1.453125 -6.84375 "/></g></g></g><g fill="#000000" fill-opacity="1"><g transform="translate(93.584606, 33.650655)"><g><path d="M 4.015625 -0.34375 C 3.878906 -0.21875 3.703125 -0.117188 3.484375 -0.046875 C 3.273438 0.015625 3.054688 0.046875 2.828125 0.046875 C 2.304688 0.046875 1.898438 -0.09375 1.609375 -0.375 C 1.328125 -0.65625 1.1875 -1.054688 1.1875 -1.578125 L 1.1875 -4.984375 L 0.1875 -4.984375 L 0.1875 -5.625 L 1.1875 -5.625 L 1.1875 -6.84375 L 1.9375 -6.84375 L 1.9375 -5.625 L 3.65625 -5.625 L 3.65625 -4.984375 L 1.9375 -4.984375 L 1.9375 -1.625 C 1.9375 -1.289062 2.019531 -1.035156 2.1875 -0.859375 C 2.363281 -0.679688 2.609375 -0.59375 2.921875 -0.59375 C 3.078125 -0.59375 3.226562 -0.617188 3.375 -0.671875 C 3.519531 -0.722656 3.644531 -0.796875 3.75 -0.890625 Z M 4.015625 -0.34375 "/></g></g></g><g fill="#000000" fill-opacity="1"><g transform="translate(97.719198, 33.650655)"><g><path d="M 3.359375 0.046875 C 2.816406 0.046875 2.328125 -0.0703125 1.890625 -0.3125 C 1.453125 -0.5625 1.109375 -0.898438 0.859375 -1.328125 C 0.609375 -1.765625 0.484375 -2.257812 0.484375 -2.8125 C 0.484375 -3.363281 0.609375 -3.851562 0.859375 -4.28125 C 1.109375 -4.71875 1.453125 -5.054688 1.890625 -5.296875 C 2.328125 -5.546875 2.816406 -5.671875 3.359375 -5.671875 C 3.898438 -5.671875 4.382812 -5.546875 4.8125 -5.296875 C 5.25 -5.054688 5.585938 -4.71875 5.828125 -4.28125 C 6.078125 -3.851562 6.203125 -3.363281 6.203125 -2.8125 C 6.203125 -2.257812 6.078125 -1.765625 5.828125 -1.328125 C 5.585938 -0.898438 5.25 -0.5625 4.8125 -0.3125 C 4.382812 -0.0703125 3.898438 0.046875 3.359375 0.046875 Z M 3.359375 -0.625 C 3.753906 -0.625 4.109375 -0.710938 4.421875 -0.890625 C 4.742188 -1.078125 4.992188 -1.335938 5.171875 -1.671875 C 5.347656 -2.003906 5.4375 -2.382812 5.4375 -2.8125 C 5.4375 -3.238281 5.347656 -3.617188 5.171875 -3.953125 C 4.992188 -4.285156 4.742188 -4.539062 4.421875 -4.71875 C 4.109375 -4.90625 3.753906 -5 3.359375 -5 C 2.953125 -5 2.59375 -4.90625 2.28125 -4.71875 C 1.96875 -4.539062 1.71875 -4.285156 1.53125 -3.953125 C 1.351562 -3.617188 1.265625 -3.238281 1.265625 -2.8125 C 1.265625 -2.382812 1.351562 -2.003906 1.53125 -1.671875 C 1.71875 -1.335938 1.96875 -1.078125 2.28125 -0.890625 C 2.59375 -0.710938 2.953125 -0.625 3.359375 -0.625 Z M 3.359375 -0.625 "/></g></g></g><g fill="#000000" fill-opacity="1"><g transform="translate(104.417904, 33.650655)"><g><path d="M 1.78125 -4.515625 C 1.957031 -4.898438 2.222656 -5.1875 2.578125 -5.375 C 2.929688 -5.570312 3.367188 -5.671875 3.890625 -5.671875 L 3.890625 -4.921875 L 3.703125 -4.9375 C 3.117188 -4.9375 2.65625 -4.753906 2.3125 -4.390625 C 1.976562 -4.023438 1.8125 -3.515625 1.8125 -2.859375 L 1.8125 0 L 1.0625 0 L 1.0625 -5.625 L 1.78125 -5.625 Z M 1.78125 -4.515625 "/></g></g></g><g fill="#000000" fill-opacity="1"><g transform="translate(108.862354, 33.650655)"><g><path d="M 5.78125 -5.625 L 2.96875 0.671875 C 2.738281 1.203125 2.472656 1.578125 2.171875 1.796875 C 1.878906 2.015625 1.519531 2.125 1.09375 2.125 C 0.820312 2.125 0.566406 2.082031 0.328125 2 C 0.0976562 1.914062 -0.0976562 1.785156 -0.265625 1.609375 L 0.078125 1.046875 C 0.367188 1.328125 0.710938 1.46875 1.109375 1.46875 C 1.367188 1.46875 1.585938 1.394531 1.765625 1.25 C 1.953125 1.113281 2.125 0.875 2.28125 0.53125 L 2.515625 -0.015625 L 0.015625 -5.625 L 0.796875 -5.625 L 2.921875 -0.84375 L 5.03125 -5.625 Z M 5.78125 -5.625 "/></g></g></g><g fill="#000000" fill-opacity="1"><g transform="translate(76.467868, 48.51136)"><g><path d="M 1.710938 -7.296875 L 8.996094 -7.296875 L 8.996094 -6.390625 L 9.796875 -6.390625 L 9.796875 -7.980469 L 5.917969 -7.980469 C 5.78125 -8.292969 5.578125 -8.699219 5.394531 -9.007812 L 4.574219 -8.773438 C 4.710938 -8.535156 4.851562 -8.25 4.96875 -7.980469 L 0.929688 -7.980469 L 0.929688 -6.21875 L 1.710938 -6.21875 Z M 2.886719 -6.742188 C 2.320312 -5.417969 1.378906 -4.144531 0.394531 -3.332031 C 0.542969 -3.164062 0.800781 -2.800781 0.886719 -2.648438 C 1.25 -2.96875 1.613281 -3.355469 1.957031 -3.773438 L 1.957031 0.824219 L 2.714844 0.824219 L 2.714844 -4.828125 C 3.054688 -5.363281 3.367188 -5.929688 3.613281 -6.496094 Z M 8.613281 -2.480469 L 4.902344 -2.480469 L 4.902344 -3.71875 L 8.613281 -3.71875 Z M 4.902344 -0.46875 L 4.902344 -1.816406 L 8.613281 -1.816406 L 8.613281 -0.46875 Z M 9.9375 -5.46875 L 9.9375 -6.1875 L 3.707031 -6.1875 L 3.707031 -5.46875 L 6.273438 -5.46875 C 6.195312 -5.128906 6.113281 -4.734375 6.015625 -4.402344 L 4.136719 -4.402344 L 4.136719 0.832031 L 4.902344 0.832031 L 4.902344 0.222656 L 8.613281 0.222656 L 8.613281 0.78125 L 9.390625 0.78125 L 9.390625 -4.402344 L 6.796875 -4.402344 C 6.914062 -4.734375 7.03125 -5.117188 7.136719 -5.46875 Z M 9.9375 -5.46875 "/></g></g></g><g fill="#000000" fill-opacity="1"><g transform="translate(87.151611, 48.51136)"><g><path d="M 3.207031 -6.25 C 3.984375 -6.753906 4.710938 -7.328125 5.34375 -7.929688 C 6.015625 -7.253906 6.71875 -6.710938 7.488281 -6.25 Z M 7.886719 -0.382812 L 2.808594 -0.382812 L 2.808594 -1.945312 L 7.886719 -1.945312 Z M 5.375 -9.007812 C 4.253906 -7.660156 2.242188 -6.367188 0.449219 -5.628906 C 0.640625 -5.460938 0.84375 -5.203125 0.972656 -5.023438 C 1.582031 -5.289062 2.210938 -5.621094 2.808594 -5.992188 L 2.808594 -5.554688 L 4.925781 -5.554688 L 4.925781 -4.5 L 1.101562 -4.5 L 1.101562 -3.78125 L 4.925781 -3.78125 L 4.925781 -2.648438 L 2.019531 -2.648438 L 2.019531 0.8125 L 2.808594 0.8125 L 2.808594 0.320312 L 7.886719 0.320312 L 7.886719 0.800781 L 8.699219 0.800781 L 8.699219 -2.648438 L 5.738281 -2.648438 L 5.738281 -3.78125 L 9.617188 -3.78125 L 9.617188 -4.5 L 5.738281 -4.5 L 5.738281 -5.554688 L 7.90625 -5.554688 L 7.90625 -5.992188 C 8.496094 -5.671875 9.101562 -5.363281 9.753906 -5.097656 C 9.871094 -5.332031 10.085938 -5.609375 10.277344 -5.792969 C 8.570312 -6.421875 7.074219 -7.191406 5.824219 -8.417969 C 5.898438 -8.496094 5.972656 -8.578125 6.027344 -8.644531 Z M 5.375 -9.007812 "/></g></g></g></g></g></g><g transform="matrix(1, 0, 0, 1, 596, 110)"><g clip-path="url(#caf00e7086)"><g clip-path="url(#c9619b2126)"><g transform="matrix(1, 0, 0, 1, 0, 0.000000000000028422)"><g clip-path="url(#18b0bb1e7c)"><g clip-path="url(#3f1688bd59)"><path fill="#dc8a78" d="M 0.546875 194.125 L 0.546875 0.949219 L 94.5625 0.949219 L 94.5625 194.125 Z M 0.546875 194.125 " fill-opacity="1" fill-rule="nonzero"/></g></g></g></g></g></g><g transform="matrix(1, 0, 0, 1, 377, 109)"><g clip-path="url(#0cc9d3c90d)"><g clip-path="url(#0a6f583a62)"><g transform="matrix(1, 0, 0, 1, 0.000000000000056843, 0.000000000000028422)"><g clip-path="url(#f4811d1f5e)"><g clip-path="url(#6f712dc5db)"><path fill="#dc8a78" d="M 0.59375 193.960938 L 0.59375 0.785156 L 94.613281 0.785156 L 94.613281 193.960938 Z M 0.59375 193.960938 " fill-opacity="1" fill-rule="nonzero"/></g></g></g></g></g></g><g clip-path="url(#a9c9d8ba67)"><g transform="matrix(1, 0, 0, 1, 231, 55)"><g clip-path="url(#9bd71cdda0)"><g clip-path="url(#d01e9a0b84)"><g transform="matrix(1, 0, 0, 1, 1, 1)"><g clip-path="url(#b9f99324e5)"><g clip-path="url(#92e2ee963f)"><path fill="#9c3b3b" d="M 0.0742188 461.625 L 0.0742188 0.0664062 L 67.289062 0.0664062 L 67.289062 461.625 Z M 0.0742188 461.625 " fill-opacity="1" fill-rule="nonzero"/></g></g></g></g></g></g></g><g clip-path="url(#ea8a4612eb)"><g transform="matrix(1, 0, 0, 1, 0, 82)"><g clip-path="url(#f20225e725)"><g clip-path="url(#0fab06dd05)"><g clip-path="url(#4a3266ff6f)"><g transform="matrix(1, 0, 0, 1, 0, 0.000000000000028422)"><g clip-path="url(#60b05da250)"><g clip-path="url(#b6c7fc5e64)"><g clip-path="url(#68e116b279)"><path fill="#9c3b3b" d="M 0.09375 0.367188 L 279.082031 0.367188 L 279.082031 406.859375 L 0.09375 406.859375 Z M 0.09375 0.367188 " fill-opacity="1" fill-rule="nonzero"/></g></g></g></g></g></g></g></g></g><g transform="matrix(1, 0, 0, 1, 62, 143)"><g clip-path="url(#7a9aa1fc68)"><g clip-path="url(#42eb8d7086)"><g><g clip-path="url(#39c552e13f)"><g clip-path="url(#229f05cd3c)"><path fill="#107645" d="M 0.316406 0.316406 L 154.863281 0.316406 L 154.863281 284.902344 L 0.316406 284.902344 Z M 0.316406 0.316406 " fill-opacity="1" fill-rule="nonzero"/></g></g></g></g></g></g><g transform="matrix(1, 0, 0, 1, 479, 134)"><g clip-path="url(#aecf81a3f4)"><g clip-path="url(#1bc36fe4a3)"><g><g clip-path="url(#85435e77d0)"><g clip-path="url(#36eda6ebf5)"><path fill="#107645" d="M 0.925781 0.164062 L 109.296875 0.164062 L 109.296875 40.429688 L 0.925781 40.429688 Z M 0.925781 0.164062 " fill-opacity="1" fill-rule="nonzero"/></g></g></g></g></g></g><g transform="matrix(1, 0, 0, 1, 479, 247)"><g clip-path="url(#87ec20c7a8)"><g clip-path="url(#5fa1d75bba)"><g><g clip-path="url(#daf81eef51)"><g clip-path="url(#26222bf75c)"><path fill="#107645" d="M 0.925781 0.320312 L 109.296875 0.320312 L 109.296875 40.585938 L 0.925781 40.585938 Z M 0.925781 0.320312 " fill-opacity="1" fill-rule="nonzero"/></g></g></g></g></g></g><g transform="matrix(1, 0, 0, 1, 247, 87)"><g clip-path="url(#7c6c180b62)"><g clip-path="url(#fb259e67db)"><path stroke-linecap="butt" transform="matrix(0, 0.166974, -0.166974, 0, 3.48343, 2.360374)" fill="none" stroke-linejoin="miter" d="M -0.00598551 7.995204 L 2374.33146 7.995204 " stroke="#ffffff" stroke-width="16" stroke-opacity="1" stroke-miterlimit="4"/></g></g></g><g transform="matrix(1, 0, 0, 1, 240, 87)"><g clip-path="url(#2822be0d9d)"><g clip-path="url(#9a3acc3db8)"><path stroke-linecap="butt" transform="matrix(0, 0.166974, -0.166974, 0, 2.80261, 2.360374)" fill="none" stroke-linejoin="miter" d="M -0.00598551 7.988422 L 2374.33146 7.988422 " stroke="#ffffff" stroke-width="16" stroke-opacity="1" stroke-miterlimit="4"/></g></g></g><g transform="matrix(1, 0, 0, 1, 256, 87)"><g clip-path="url(#71e14dd950)"><g clip-path="url(#80408d185f)"><path stroke-linecap="butt" transform="matrix(0, 0.166974, -0.166974, 0, 3.333078, 2.360374)" fill="none" stroke-linejoin="miter" d="M -0.00598551 8.007132 L 2374.33146 8.007132 " stroke="#ffffff" stroke-width="16" stroke-opacity="1" stroke-miterlimit="4"/></g></g></g><g transform="matrix(1, 0, 0, 1, 265, 87)"><g clip-path="url(#60475031df)"><g clip-path="url(#d17b454cce)"><path stroke-linecap="butt" transform="matrix(0, 0.166974, -0.166974, 0, 3.182726, 2.360374)" fill="none" stroke-linejoin="miter" d="M -0.00598551 7.995666 L 2374.33146 7.995666 " stroke="#ffffff" stroke-width="16" stroke-opacity="1" stroke-miterlimit="4"/></g></g></g><g transform="matrix(1, 0, 0, 1, 272, 87)"><g clip-path="url(#39ce21ad8a)"><g clip-path="url(#acb0f536ad)"><path stroke-linecap="butt" transform="matrix(0, 0.166974, -0.166974, 0, 3.863546, 2.360374)" fill="none" stroke-linejoin="miter" d="M -0.00598551 8.002448 L 2374.33146 8.002448 " stroke="#ffffff" stroke-width="16" stroke-opacity="1" stroke-miterlimit="4"/></g></g></g><g transform="matrix(1, 0, 0, 1, 280, 87)"><g clip-path="url(#4310f00910)"><g clip-path="url(#01ead39051)"><path stroke-linecap="butt" transform="matrix(0, 0.166974, -0.166974, 0, 3.544366, 2.360374)" fill="none" stroke-linejoin="miter" d="M -0.00598551 8.00923 L 2374.33146 8.00923 " stroke="#ffffff" stroke-width="16" stroke-opacity="1" stroke-miterlimit="4"/></g></g></g><g transform="matrix(1, 0, 0, 1, 288, 87)"><g clip-path="url(#386bb1947c)"><g clip-path="url(#419187cf8f)"><path stroke-linecap="butt" transform="matrix(0, 0.166974, -0.166974, 0, 3.225127, 2.360374)" fill="none" stroke-linejoin="miter" d="M -0.00598551 7.992267 L 2374.33146 7.992267 " stroke="#ffffff" stroke-width="16" stroke-opacity="1" stroke-miterlimit="4"/></g></g></g></g></g></svg>