<?xml version="1.0" encoding="UTF-8"?>
<svg id="_图层_1" data-name=" 图层 1" xmlns="http://www.w3.org/2000/svg" version="1.1" xmlns:xlink="http://www.w3.org/1999/xlink" viewBox="0 0 999 911.9">
  <defs>
    <style>
      .cls-1 {
        clip-path: url(#clippath-20);
      }

      .cls-2 {
        clip-path: url(#clippath-11);
      }

      .cls-3 {
        clip-path: url(#clippath-16);
      }

      .cls-4, .cls-5 {
        fill: #545454;
      }

      .cls-4, .cls-6, .cls-7, .cls-8, .cls-9, .cls-10, .cls-11 {
        stroke-miterlimit: 10;
      }

      .cls-4, .cls-9, .cls-10, .cls-11 {
        stroke: #545454;
      }

      .cls-5, .cls-12, .cls-13, .cls-14, .cls-15 {
        stroke-width: 0px;
      }

      .cls-16 {
        letter-spacing: 0em;
      }

      .cls-16, .cls-17, .cls-18 {
        isolation: isolate;
      }

      .cls-16, .cls-18 {
        font-family: ArialMT, Arial;
        font-size: 7.5px;
      }

      .cls-16, .cls-18, .cls-11, .cls-15 {
        fill: #fff;
      }

      .cls-12 {
        fill: #000;
      }

      .cls-19 {
        clip-path: url(#clippath-2);
      }

      .cls-20 {
        clip-path: url(#clippath-13);
      }

      .cls-6 {
        stroke: #a0a1a6;
      }

      .cls-6, .cls-14, .cls-9, .cls-10 {
        fill: none;
      }

      .cls-7 {
        fill: #84a2de;
      }

      .cls-7, .cls-8 {
        stroke: #fff;
      }

      .cls-21 {
        clip-path: url(#clippath-25);
      }

      .cls-13 {
        fill: #a0a1a6;
      }

      .cls-22 {
        clip-path: url(#clippath-15);
      }

      .cls-23 {
        clip-path: url(#clippath-6);
      }

      .cls-24 {
        clip-path: url(#clippath-7);
      }

      .cls-25 {
        clip-path: url(#clippath-21);
      }

      .cls-26 {
        clip-path: url(#clippath-1);
      }

      .cls-27 {
        clip-path: url(#clippath-4);
      }

      .cls-8 {
        fill: #d4babb;
      }

      .cls-28 {
        clip-path: url(#clippath-12);
      }

      .cls-9 {
        stroke-width: 3px;
      }

      .cls-29 {
        clip-path: url(#clippath-24);
      }

      .cls-30 {
        clip-path: url(#clippath-22);
      }

      .cls-31 {
        clip-path: url(#clippath-9);
      }

      .cls-32 {
        clip-path: url(#clippath);
      }

      .cls-33 {
        clip-path: url(#clippath-19);
      }

      .cls-34 {
        clip-path: url(#clippath-3);
      }

      .cls-35 {
        clip-path: url(#clippath-8);
      }

      .cls-36 {
        clip-path: url(#clippath-18);
      }

      .cls-37 {
        clip-path: url(#clippath-14);
      }

      .cls-38 {
        clip-path: url(#clippath-17);
      }

      .cls-39 {
        clip-path: url(#clippath-5);
      }

      .cls-40 {
        clip-path: url(#clippath-10);
      }

      .cls-41 {
        clip-path: url(#clippath-23);
      }
    </style>
    <symbol id="_新建符号" data-name=" 新建符号" viewBox="0 0 169.8 242.7">
      <g>
        <g>
          <g>
            <path class="cls-9" d="M168.3,25.9L128.1,2.5c-2.3,28.9-15,74.3-45.2,122.8C55.2,169.6,24.5,199.9,2.6,217.6c13.4,7.8,26.8,15.6,40.2,23.4,23.2-12.8,52.9-40.9,79.1-83.7,33.1-54.1,47.3-103.3,46.4-131.4h0Z"/>
            <line class="cls-9" x1="124.9" y1="22.3" x2="166.4" y2="46.5"/>
            <line class="cls-9" x1="119.6" y1="41.4" x2="161.9" y2="64.3"/>
            <line class="cls-9" x1="114.2" y1="60.5" x2="155.9" y2="85.3"/>
            <line class="cls-9" x1="106.9" y1="77.3" x2="149.9" y2="101.3"/>
            <line class="cls-9" x1="98.9" y1="96.3" x2="140.7" y2="120.4"/>
            <line class="cls-9" x1="90.9" y1="112.3" x2="132.6" y2="136.5"/>
            <line class="cls-9" x1="79.9" y1="129.3" x2="123.2" y2="154.6"/>
            <line class="cls-9" x1="70.9" y1="144.3" x2="113.7" y2="169.8"/>
            <line class="cls-9" x1="58.9" y1="161.3" x2="101.5" y2="186.4"/>
            <line class="cls-9" x1="43.9" y1="178.3" x2="86.9" y2="204.3"/>
            <line class="cls-9" x1="30.5" y1="193.8" x2="72.9" y2="218.3"/>
            <line class="cls-9" x1="17.1" y1="206.3" x2="58.9" y2="230.3"/>
          </g>
          <path class="cls-10" d="M148.9,14.3c-5.7,28.4-15,74.2-44,121-28.1,45.3-60.6,75.3-83,93l3-12"/>
        </g>
        <line class="cls-10" x1="35.9" y1="226.3" x2="21.9" y2="228.3"/>
      </g>
    </symbol>
    <symbol id="_考试椅子" data-name=" 考试椅子" viewBox="0 0 36 42.6">
      <g id="_桌椅" data-name=" 桌椅">
        <g>
          <g>
            <path class="cls-6" d="M9.6,11.2v11.5h17v-11.5c0-4.3-3-7.9-6.6-7.9h-3.7c-3.7,0-6.6,3.5-6.6,7.9h0Z"/>
            <path class="cls-6" d="M29.2,3.5s-10.5-6.7-22.2,0"/>
            <path class="cls-6" d="M29.2,7.8s-10.5-11.7-22.2,0"/>
            <polyline class="cls-6" points="26.4 2.4 25.4 4 24.2 1.8 22.5 2.6 18.5 1.1 14 2.5 11.7 1.8 11 3.8 9.2 2.6"/>
          </g>
          <polygon class="cls-13" points="0 42.6 36 42.6 36 23.6 0 23.6 0 42.6"/>
          <path class="cls-15" d="M18.5,28.1"/>
        </g>
      </g>
    </symbol>
    <clipPath id="clippath">
      <rect class="cls-14" x="629.4" y="429.8" width="169.8" height="242.7"/>
    </clipPath>
    <clipPath id="clippath-1">
      <rect class="cls-14" x="206.4" y="430.8" width="169.8" height="242.7"/>
    </clipPath>
    <clipPath id="clippath-2">
      <rect class="cls-14" x="210.2" y="808.1" width="36" height="42.6"/>
    </clipPath>
    <clipPath id="clippath-3">
      <rect class="cls-14" x="275.2" y="808.1" width="36" height="42.6"/>
    </clipPath>
    <clipPath id="clippath-4">
      <rect class="cls-14" x="209.2" y="66.1" width="36" height="42.6"/>
    </clipPath>
    <clipPath id="clippath-5">
      <rect class="cls-14" x="274.2" y="66.1" width="36" height="42.6"/>
    </clipPath>
    <clipPath id="clippath-6">
      <rect class="cls-14" x="209.2" y="126.1" width="36" height="42.6"/>
    </clipPath>
    <clipPath id="clippath-7">
      <rect class="cls-14" x="274.2" y="126.1" width="36" height="42.6"/>
    </clipPath>
    <clipPath id="clippath-8">
      <rect class="cls-14" x="719.2" y="66.1" width="36" height="42.6"/>
    </clipPath>
    <clipPath id="clippath-9">
      <rect class="cls-14" x="784.2" y="66.1" width="36" height="42.6"/>
    </clipPath>
    <clipPath id="clippath-10">
      <rect class="cls-14" x="340.2" y="808.1" width="36" height="42.6"/>
    </clipPath>
    <clipPath id="clippath-11">
      <rect class="cls-14" x="405.2" y="808.1" width="36" height="42.6"/>
    </clipPath>
    <clipPath id="clippath-12">
      <rect class="cls-14" x="470.2" y="808.1" width="36" height="42.6"/>
    </clipPath>
    <clipPath id="clippath-13">
      <rect class="cls-14" x="535.2" y="808.1" width="36" height="42.6"/>
    </clipPath>
    <clipPath id="clippath-14">
      <rect class="cls-14" x="600.2" y="808.1" width="36" height="42.6"/>
    </clipPath>
    <clipPath id="clippath-15">
      <rect class="cls-14" x="665.2" y="808.1" width="36" height="42.6"/>
    </clipPath>
    <clipPath id="clippath-16">
      <rect class="cls-14" x="730.2" y="808.1" width="36" height="42.6"/>
    </clipPath>
    <clipPath id="clippath-17">
      <rect class="cls-14" x="210.2" y="869.1" width="36" height="42.6"/>
    </clipPath>
    <clipPath id="clippath-18">
      <rect class="cls-14" x="275.2" y="869.1" width="36" height="42.6"/>
    </clipPath>
    <clipPath id="clippath-19">
      <rect class="cls-14" x="340.2" y="869.1" width="36" height="42.6"/>
    </clipPath>
    <clipPath id="clippath-20">
      <rect class="cls-14" x="405.2" y="869.1" width="36" height="42.6"/>
    </clipPath>
    <clipPath id="clippath-21">
      <rect class="cls-14" x="470.2" y="869.1" width="36" height="42.6"/>
    </clipPath>
    <clipPath id="clippath-22">
      <rect class="cls-14" x="535.2" y="869.1" width="36" height="42.6"/>
    </clipPath>
    <clipPath id="clippath-23">
      <rect class="cls-14" x="600.2" y="869.1" width="36" height="42.6"/>
    </clipPath>
    <clipPath id="clippath-24">
      <rect class="cls-14" x="665.2" y="869.1" width="36" height="42.6"/>
    </clipPath>
    <clipPath id="clippath-25">
      <rect class="cls-14" x="730.2" y="869.1" width="36" height="42.6"/>
    </clipPath>
  </defs>
  <g>
    <rect class="cls-4" x="455" y=".5" width="5" height="26.4"/>
    <rect class="cls-4" x="540.9" y=".5" width="5" height="26.4"/>
    <rect class="cls-4" x="468.7" y="8.9" width="63.5" height="9"/>
  </g>
  <g class="cls-32">
    <use width="169.8" height="242.7" transform="translate(629.4 672.6) scale(1 -1)" xlink:href="#_新建符号"/>
  </g>
  <g class="cls-26">
    <use width="169.8" height="242.7" transform="translate(376.2 673.6) rotate(-180)" xlink:href="#_新建符号"/>
  </g>
  <g class="cls-19">
    <use width="36" height="42.6" transform="translate(246.2 808.1) rotate(-180) scale(1 -1)" xlink:href="#_考试椅子"/>
  </g>
  <g class="cls-34">
    <use width="36" height="42.6" transform="translate(311.2 808.1) rotate(-180) scale(1 -1)" xlink:href="#_考试椅子"/>
  </g>
  <g class="cls-27">
    <use width="36" height="42.6" transform="translate(245.2 66.1) rotate(-180) scale(1 -1)" xlink:href="#_考试椅子"/>
  </g>
  <g class="cls-39">
    <use width="36" height="42.6" transform="translate(310.2 66.1) rotate(-180) scale(1 -1)" xlink:href="#_考试椅子"/>
  </g>
  <g class="cls-23">
    <use width="36" height="42.6" transform="translate(245.2 126.1) rotate(-180) scale(1 -1)" xlink:href="#_考试椅子"/>
  </g>
  <g class="cls-24">
    <use width="36" height="42.6" transform="translate(310.2 126.1) rotate(-180) scale(1 -1)" xlink:href="#_考试椅子"/>
  </g>
  <g class="cls-35">
    <use width="36" height="42.6" transform="translate(755.2 66.1) rotate(-180) scale(1 -1)" xlink:href="#_考试椅子"/>
  </g>
  <g class="cls-31">
    <use width="36" height="42.6" transform="translate(820.2 66.1) rotate(-180) scale(1 -1)" xlink:href="#_考试椅子"/>
  </g>
  <g class="cls-40">
    <use width="36" height="42.6" transform="translate(376.2 808.1) rotate(-180) scale(1 -1)" xlink:href="#_考试椅子"/>
  </g>
  <g class="cls-2">
    <use width="36" height="42.6" transform="translate(441.2 808.1) rotate(-180) scale(1 -1)" xlink:href="#_考试椅子"/>
  </g>
  <g class="cls-28">
    <use width="36" height="42.6" transform="translate(506.2 808.1) rotate(-180) scale(1 -1)" xlink:href="#_考试椅子"/>
  </g>
  <g class="cls-20">
    <use width="36" height="42.6" transform="translate(571.2 808.1) rotate(-180) scale(1 -1)" xlink:href="#_考试椅子"/>
  </g>
  <g class="cls-37">
    <use width="36" height="42.6" transform="translate(636.2 808.1) rotate(-180) scale(1 -1)" xlink:href="#_考试椅子"/>
  </g>
  <g class="cls-22">
    <use width="36" height="42.6" transform="translate(701.2 808.1) rotate(-180) scale(1 -1)" xlink:href="#_考试椅子"/>
  </g>
  <g class="cls-3">
    <use width="36" height="42.6" transform="translate(766.2 808.1) rotate(-180) scale(1 -1)" xlink:href="#_考试椅子"/>
  </g>
  <g class="cls-38">
    <use width="36" height="42.6" transform="translate(246.2 869.1) rotate(-180) scale(1 -1)" xlink:href="#_考试椅子"/>
  </g>
  <g class="cls-36">
    <use width="36" height="42.6" transform="translate(311.2 869.1) rotate(-180) scale(1 -1)" xlink:href="#_考试椅子"/>
  </g>
  <g class="cls-33">
    <use width="36" height="42.6" transform="translate(376.2 869.1) rotate(-180) scale(1 -1)" xlink:href="#_考试椅子"/>
  </g>
  <g class="cls-1">
    <use width="36" height="42.6" transform="translate(441.2 869.1) rotate(-180) scale(1 -1)" xlink:href="#_考试椅子"/>
  </g>
  <g class="cls-25">
    <use width="36" height="42.6" transform="translate(506.2 869.1) rotate(-180) scale(1 -1)" xlink:href="#_考试椅子"/>
  </g>
  <g class="cls-30">
    <use width="36" height="42.6" transform="translate(571.2 869.1) rotate(-180) scale(1 -1)" xlink:href="#_考试椅子"/>
  </g>
  <g class="cls-41">
    <use width="36" height="42.6" transform="translate(636.2 869.1) rotate(-180) scale(1 -1)" xlink:href="#_考试椅子"/>
  </g>
  <g class="cls-29">
    <use width="36" height="42.6" transform="translate(701.2 869.1) rotate(-180) scale(1 -1)" xlink:href="#_考试椅子"/>
  </g>
  <g class="cls-21">
    <use width="36" height="42.6" transform="translate(766.2 869.1) rotate(-180) scale(1 -1)" xlink:href="#_考试椅子"/>
  </g>
  <g>
    <path class="cls-15" d="M469.3,249.3c0,0,.1,0,.1.1s0,0-.1.1l-.4.3v7.2c0,.9,0,1.6,0,2.2h0c0,.2,0,.3-.3.4-.1,0-.2,0-.2,0s0,0,0-.2v-.8h-7.8v.6c0,.1,0,.2-.3.3-.1,0-.2,0-.2,0s-.1,0-.1-.2c0-.4,0-2.1,0-2.5v-6.2c0-.7,0-1.4,0-1.8l.7.6h7.4l.4-.6.8.6h0ZM468.4,258.3v-8.8h-7.8v8.8h7.8ZM467,251s0,0,0,0c0,0,0,0-.1,0-.3,0-.4.1-.5.3-.6.7-1.1,1.4-1.5,1.7.8.5,1.8.9,3.3,1h0c-.5.2-.7.4-.8.6,0,.1,0,.1-.1.1s-1.4-.4-2.6-1.4c-1,.8-2,1.4-3.6,1.9h0c1.4-.8,2.5-1.5,3.3-2.2-.5-.5-.9-1-1.2-1.7-.5.8-1.1,1.4-1.6,2h-.1c1.1-1.5,1.7-2.7,2.2-3.8l.7.3c0,0,.1,0,.1.1s0,0-.1,0c-.2,0-.3.1-.7.8h2.5l.4-.5.8.6h0ZM462.7,256.2c1.3.1,3.2.4,3.2,1.4s-.1.3-.2.3-.2,0-.3-.2c-.6-.5-1.5-1-2.7-1.3h0c0-.1,0-.1,0-.1ZM463.2,251.2c.3.5.9,1.2,1.4,1.6.6-.6.9-1,1.4-1.7h-2.7c0,0,0,0,0,0ZM463.6,254.6c1.2.2,2,.4,2,1s-.2.4-.3.4-.1,0-.2-.1c-.3-.4-.7-.8-1.6-1.2h0c0-.1,0-.1,0-.1Z"/>
    <path class="cls-15" d="M481.6,254.3c0,0,.1.1.1.1s0,0-.1.1l-.4.2c-.2,3.1-.3,3.3-1.4,3.8,0,0-.1,0-.2,0s0,0-.1-.2c-.1-.5-.3-.6-1.4-1v-.2c.8.2,1.2.3,1.6.3s.6-.2.7-.7c.1-.6.2-1.4.2-2.4h-4.2v2.4c0,.9,0,1.8,0,2.4h0c0,.2,0,.2-.3.4-.1,0-.2.1-.2.1s-.1,0-.1-.2v-.2c0-.7,0-1.8,0-2.5v-2.4h-3.6c-.2,0-.6,0-.8.1l-.3-.4c.3,0,.6,0,.9,0h3.8v-2.7h-2.5c-.2,0-.6,0-.8.1l-.3-.4c.3,0,.6,0,.9,0h2.8v-1c0-.5,0-1.3,0-1.8l1,.5c0,0,0,0,0,0s0,0-.1.1l-.4.2v1.9h2.5l.4-.5.7.6c0,0,.1.1.1.2s0,0-.1.1l-.3.2v2.4c-.1,0,.8,0,.8,0l.5-.6.7.7h0ZM479.1,251.5h-2.7v2.7h2.5l.2-2.7h0ZM478.8,249c1,.2,2.6.7,2.6,1.6s-.1.4-.3.4-.2,0-.4-.4c-.2-.4-.9-1-2-1.5h0Z"/>
    <path class="cls-15" d="M487.2,251c0,0,.1,0,.1.1s0,0-.1,0c-.3,0-.6.3-1.3,1.3h-.1c0,0,.5-1.3.5-1.3h-1.5c-.6,1.4-1,2.2-1.8,3.3h-.1c1.1-2.4,1.7-4,2.1-5.9l.8.5c0,0,.1,0,.1.1s0,0-.1.1c-.2.1-.3.2-.4.3-.2.5-.4.9-.5,1.3h1.3l.4-.4.6.4h0ZM487.5,256.2c-1.6,1.5-2.2,2.1-2.5,2.6,0,0,0,0,0,0s0,0-.1,0l-.5-.5c.4-.3.4-.5.4-.8v-3.7c0-.5,0-.9,0-1.2l.9.5s0,0,0,.1,0,0,0,.1l-.3.2v4.2l2.1-1.6h.1c0,.1,0,.1,0,.1ZM493.9,250.6c0,0,.1.1.1.1,0,0,0,0-.1,0-.4,0-.6.1-1.4,1h-.2c0,0,.6-1.1.6-1.1h-4.5c0,1-.3,1.4-.8,1.4s-.3,0-.3-.2,0-.2.2-.4c.4-.5.6-.7.7-1.7h.2c0,.2,0,.4,0,.6h4.5l.4-.4.7.6h0ZM493.1,256c0,0,0,0,0,.1s0,0,0,.1l-.3.2v1.5c0,.4,0,1,0,1.2h0c0,.2-.5.4-.5.4s0,0,0-.1v-.9h-3.5v.7c0,.1,0,.2-.3.3s-.2.1-.2.1,0,0,0-.2c0-.2,0-1.3,0-1.5v-5.1c0-.3,0-.9,0-1.2l.7.5h2.9l.3-.4.7.4s0,0,0,.1,0,0,0,.1l-.3.2v1.2c0,.1,0,.7,0,.8s0,.2-.3.3c-.1,0-.2,0-.2,0s0,0,0-.5h-3.1v1.4h3.4l.3-.5.7.5h0ZM491.9,254.3v-1.8h-3.1v1.8h3.1ZM492.3,258.4v-2.1h-3.5v2.1h3.5ZM489.6,248.5c1.2.5,1.5.8,1.5,1.2s-.2.6-.4.6-.2,0-.2-.2c0-.4-.4-1-.9-1.4h0q0-.1,0-.1Z"/>
    <path class="cls-15" d="M505.9,253.6c0,0,0,.1,0,.1,0,0,0,0-.1,0h-3.3v2.5c0,.9,0,2,0,2.6h0c0,.2,0,.3-.3.4-.1,0-.2,0-.2,0s-.1,0-.1-.3h0c0-.8,0-2.1,0-2.8v-2.5h-3.1c-.1,2.6-.7,4.4-3.7,5.8v-.2c2.5-1.6,3.1-2.8,3.1-5.6h-2.2c-.2,0-.6,0-.8.1l-.3-.4c.3,0,.6,0,.9,0h2.5c0-.9,0-1.5,0-2.3s0-.9,0-1.4h-1.8c-.2,0-.6,0-.8.1l-.3-.4c.3,0,.6,0,.9,0h7.7l.5-.7.8.8c0,0,.1.1.1.1s0,0-.2,0h-2.6v3.7h2.1l.5-.7.8.8h0ZM502,253.5v-3.7h-3c0,1.5,0,2.4,0,3.7h3.1Z"/>
    <path class="cls-15" d="M512.8,251.1c.1.1.2.2.2.2,0,0,0,0-.2,0h-3.5c0,.6,0,1,0,1.8h1.6l.4-.5.8.5c0,0,0,0,0,.1s0,0-.1.1l-.4.2c-.1,2.4-.2,3-.2,3.6,0,.8-.4,1.3-1.1,1.6,0,0,0,0-.1,0,0,0,0,0,0-.1-.1-.4-.2-.6-1.3-.9v-.2c.6.1,1.1.2,1.3.2.5,0,.6-.2.7-.8.1-.7.2-1.7.2-3.7h-1.9c-.2,3.4-.7,4.6-2.3,6.1h-.1c1-1.4,1.5-2.4,1.7-3.9.1-.7.2-2.7.2-4.4h-.7c-.2,0-.6,0-.8.1l-.3-.4c.3,0,.6,0,.9,0h4l.5-.6.7.6h0ZM509.2,248.9c1.1.6,1.5.9,1.5,1.4s-.2.6-.4.6-.3,0-.3-.4c0-.3-.2-.9-.9-1.4h0q0-.1,0-.1ZM518.1,258.7c-.6,0-.9,0-1.1.4,0,0,0,0,0,0,0,0-1.5-1-2.2-2-1,1.1-2.8,2.1-4.5,2.7v-.2c1.6-.8,3.3-1.9,4.2-3-.5-.9-.9-2.2-1.1-3.9-.4.9-.8,1.8-1.2,2.4h-.1c1-2.4,1.8-4.9,2.1-6.7l.8.5c0,0,.1,0,.1.1,0,0,0,0-.1,0-.2,0-.3.1-.4.4-.1.5-.3,1.1-.6,1.7h2.8l.5-.6.7.7c0,0,.1.1.1.2,0,0,0,0-.2,0h-1.5c-.3,2.3-.6,4.1-1.3,5.2.8,1.1,1.6,1.6,3,1.9v.2h0ZM513.8,251.5c0,.3-.2.5-.3.8.3,1.9.7,2.9,1.2,3.8.5-1,.9-2.6,1-4.6h-1.9Z"/>
    <path class="cls-15" d="M523.4,250c0,0,0,0,0,.1s0,0,0,.1l-.4.3v5c0,.9,0,1.4,0,1.7h0c0,.3-.5.6-.5.6,0,0,0,0,0-.2v-.5h-2.3v1c0,.1,0,.2-.2.3-.1,0-.2.1-.2.1s0,0,0-.3h0c0-.9,0-1.7,0-2.6v-4.8c0-.6,0-.9,0-1.3l.7.5h2l.3-.4.7.5h0ZM522.4,253.1v-2.9h-2.3v2.9h2.3ZM522.4,256.7v-3.3h-2.3v3.3h2.3ZM529.9,251.7c0,0,0,.1,0,.1,0,0,0,0-.2,0h-1.8v6.6c0,.8,0,.8-.9,1.2,0,0,0,0-.1,0s0,0,0-.1c0-.4-.3-.6-1.7-1v-.2c.8.2,1.4.2,1.7.2.5,0,.6-.2.6-.4v-6.4h-2.9c-.2,0-.5,0-.7,0l-.4-.4c.3,0,.6,0,.9,0h3.2v-1.3c0-1,0-1.3,0-1.7l.8.4c0,0,.1,0,.1.1s0,0-.1.1l-.3.2v2.2h.8l.4-.7.7.8h0ZM524.4,253.1c.9.7,1.5,1.2,1.5,1.8s-.2.6-.4.6-.2,0-.3-.6c0-.5-.3-1.1-.9-1.7h.1c0-.1,0-.1,0-.1Z"/>
    <path class="cls-15" d="M532.9,250.5c0,0,0,0,0,0,0,0,0,0,0,.1l-.3.2v6.1c0,.9,0,1.8,0,2.2h0c0,.2,0,.3-.3.4-.1,0-.2.1-.3.1s-.1,0-.1-.2h0c0-.8,0-1.4,0-2.5v-5.2c0-.5,0-1.3,0-1.8l.9.5h0ZM532.8,248.5c1.2.6,1.7.9,1.7,1.4s-.2.6-.4.6-.2-.2-.3-.3c0-.3-.3-.9-1.1-1.6h0c0-.1,0-.1,0-.1ZM538.7,252.1c0,0,0,0,0,.1s0,0,0,.1l-.3.2v2.9c0,.6,0,.9,0,1.4,0,0,0,0,0,.1,0,.2,0,.2-.3.3-.1,0-.2,0-.2,0s0,0,0-.2v-.5h-2.7v.5c0,.2-.4.4-.5.4s-.1,0-.1-.2,0-1.4,0-1.6v-2.9c0-.3,0-.9,0-1.2l.8.6h2.4l.4-.5.6.5h0ZM537.8,254v-1.8h-2.7v1.8h2.7ZM537.8,256.3v-2h-2.7v2h2.7ZM541.5,249.8s0,0,0,.1,0,0,0,0l-.4.2v8c0,.9,0,1.2-1,1.5,0,0,0,0,0,0,0,0,0,0,0-.1,0-.4-.3-.5-1.5-.9v-.2c.8.1,1.2.2,1.5.2.5,0,.5-.1.5-.4v-8.3h-4.2c-.2,0-.6,0-.8.1l-.3-.4c.3,0,.6,0,.9,0h4.2l.4-.6.8.6h0Z"/>
    <path class="cls-15" d="M419.9,263.8c0,0,0,0,0,.1s0,0,0,.1l-.4.3v8.4c0,.7,0,1-.8,1.3,0,0,0,0-.1,0,0,0,0,0,0-.1,0-.5-.3-.7-1.6-1v-.2c.9.2,1.4.2,1.7.2s.4-.1.4-.3v-8.5h-7.2v3.3c0,3.7-.2,5.4-2,6.7h-.1c1.5-1.6,1.6-3.1,1.6-6.7v-2.6c0-.5,0-1.2,0-1.6l.8.6h6.8l.4-.6.8.6h0ZM418.4,267.7c0,0,.1.1.1.2s0,0-.2,0h-5.3c-.2,0-.5,0-.7.1l-.3-.4c.3,0,.5,0,.8,0h2.2v-1.5h-1.5c-.2,0-.5,0-.7.1l-.3-.4c.3,0,.5,0,.8,0h1.7v-.5c0-.5,0-.8,0-1.2l.8.3c0,0,.1,0,.1.1s0,0-.3.3v.9h1.2l.4-.5.6.6c0,0,.1.1.1.2s0,0-.2,0h-2.2v1.5h1.8l.4-.6.7.7h0ZM417.4,269.1c0,0,.1,0,.1.1s0,0-.1.1l-.3.2v1c0,.4,0,.8,0,1.3h0c0,.3,0,.3-.3.4-.1,0-.2,0-.2,0s0,0,0-.2v-.7h-2.7v.5c0,.2,0,.2-.2.3-.1,0-.2,0-.2,0,0,0-.1,0-.1-.3s0-1.5,0-1.6v-.7c0-.3,0-.9,0-1.2l.7.5h2.4l.3-.4.7.5h0ZM416.5,271.3v-1.9h-2.7v1.9h2.7Z"/>
    <path class="cls-15" d="M432.5,267.8c0,0,.1.1.1.2s0,0-.2,0h-9.8c-.2,0-.6,0-.8.1l-.3-.4c.3,0,.6,0,.9,0h8.8l.5-.8.8.9h0Z"/>
    <path class="cls-15" d="M444.5,273.1c0,0,0,.1,0,.1,0,0,0,0-.1,0h-9.6c-.2,0-.6,0-.8.1l-.3-.4c.3,0,.6,0,.9,0h4.2v-2.6h-2.8c-.2,0-.6,0-.8.1l-.3-.4c.3,0,.6,0,.8,0h3v-1.2c0-.5,0-.8,0-1.2l1,.4c0,0,.1,0,.1,0s0,0,0,.1l-.4.2v1.5h2.5l.5-.6.7.7c0,0,0,.1,0,.1s0,0-.1,0h-3.7v2.6h3.8l.6-.7.7.8h0ZM444.1,264c0,0,.1.1.1.1,0,0,0,0-.1,0h-5.7l.7.5s0,0,0,0,0,0,0,0c-.2,0-.4.1-.5.2-.9.8-1.8,1.7-2.7,2.4l6.4-.2c-.4-.6-1-1.3-1.8-1.9h.1c1.5.8,2.7,1.9,2.8,2.3,0,0,0,.1,0,.2,0,.3-.2.6-.4.6s-.2-.1-.3-.4c0-.2-.3-.5-.3-.5-.2,0-5,.3-5,.3-1,0-1.5.2-1.8.4,0,0,0,0-.1,0s0,0-.1,0l-.5-.7c.4,0,.7-.2,1.1-.5.8-.7,1.5-1.6,2.2-2.7h-2.9c-.2,0-.6,0-.8.1l-.3-.4c.3,0,.6,0,.9,0h7.6l.6-.7.8.8h0Z"/>
    <path class="cls-15" d="M455.9,263.8c0,0,0,0,0,.1s0,0,0,.1l-.4.3v8.4c0,.7,0,1-.8,1.3,0,0,0,0-.1,0,0,0,0,0,0-.1,0-.5-.3-.7-1.6-1v-.2c.9.2,1.4.2,1.7.2s.4-.1.4-.3v-8.5h-7.2v3.3c0,3.7-.2,5.4-2,6.7h-.1c1.5-1.6,1.6-3.1,1.6-6.7v-2.6c0-.5,0-1.2,0-1.6l.8.6h6.8l.4-.6.8.6h0ZM454.4,267.7c0,0,.1.1.1.2s0,0-.2,0h-5.3c-.2,0-.5,0-.7.1l-.3-.4c.3,0,.5,0,.8,0h2.2v-1.5h-1.5c-.2,0-.5,0-.7.1l-.3-.4c.3,0,.5,0,.8,0h1.7v-.5c0-.5,0-.8,0-1.2l.8.3c0,0,.1,0,.1.1s0,0-.3.3v.9h1.2l.4-.5.6.6c0,0,.1.1.1.2s0,0-.2,0h-2.2v1.5h1.8l.4-.6.7.7h0ZM453.4,269.1c0,0,.1,0,.1.1s0,0-.1.1l-.3.2v1c0,.4,0,.8,0,1.3h0c0,.3,0,.3-.3.4-.1,0-.2,0-.2,0s0,0,0-.2v-.7h-2.7v.5c0,.2,0,.2-.2.3-.1,0-.2,0-.2,0,0,0-.1,0-.1-.3s0-1.5,0-1.6v-.7c0-.3,0-.9,0-1.2l.7.5h2.4l.3-.4.7.5h0ZM452.5,271.3v-1.9h-2.7v1.9h2.7Z"/>
    <path class="cls-15" d="M468.4,272.7c.1,0,.1.1.1.2s0,0-.2,0h-9.8c-.2,0-.6,0-.8.1l-.3-.4c.3,0,.6,0,.9,0h2.7l.6-4.8h-1.8c-.2,0-.6,0-.8.1l-.3-.4c.3,0,.6,0,.9,0h2.1l.4-3.1h-2.8c-.2,0-.6,0-.8.1l-.3-.4c.3,0,.6,0,.9,0h7.7l.5-.7.8.7c0,0,.1.1.1.2s0,0-.2,0h-5.3l-.4,3.1h2.8l.4-.6.8.6c0,0,.1.1.1.1,0,0,0,0-.1.1l-.4.3-.2,4.5h1.5l.5-.7.8.7h0ZM465.2,267.9h-3.1l-.6,4.8h3.5l.2-4.8h0Z"/>
    <path class="cls-15" d="M472.1,268.8c-.4,0-.7-.3-.7-.7s.3-.7.7-.7.7.3.7.7-.3.7-.7.7ZM472.1,273.3c-.4,0-.7-.3-.7-.7s.3-.7.7-.7.7.3.7.7-.3.7-.7.7Z"/>
    <path class="cls-15" d="M517.8,271.1h1c0,.4.2.7.5,1s.5.3.9.3.6,0,.8-.2.4-.4.6-.6.3-.6.4-1,.2-.9.2-1.3v-.2c-.2.3-.5.6-.9.8s-.8.3-1.2.3c-.7,0-1.3-.3-1.8-.8s-.7-1.2-.7-2,.3-1.6.8-2.1,1.2-.8,1.9-.8,1.1.1,1.5.5.8.7,1,1.3.4,1.4.4,2.4-.1,2-.4,2.6-.6,1.1-1.1,1.5-1,.5-1.7.5-1.2-.2-1.7-.6-.7-.9-.8-1.6h0ZM522.1,267.3c0-.6-.2-1.1-.5-1.4s-.7-.5-1.2-.5-.9.2-1.2.6-.5.9-.5,1.5.2,1,.5,1.3.7.5,1.2.5.9-.2,1.2-.5.5-.8.5-1.4h0Z"/>
    <path class="cls-15" d="M526.8,268.8c-.4,0-.7-.3-.7-.7s.3-.7.7-.7.7.3.7.7-.3.7-.7.7ZM526.8,273.3c-.4,0-.7-.3-.7-.7s.3-.7.7-.7.7.3.7.7-.3.7-.7.7Z"/>
    <path class="cls-15" d="M536.3,268.9c0-1,.1-1.8.3-2.5s.5-1.1.9-1.4.9-.5,1.5-.5.9,0,1.2.3.6.5.9.8.4.8.5,1.3.2,1.2.2,2,0,1.8-.3,2.4-.5,1.1-.9,1.4-.9.5-1.6.5-1.5-.3-2-.9c-.6-.7-.8-1.9-.8-3.5h0ZM537.4,268.9c0,1.4.2,2.4.5,2.8s.7.7,1.2.7.9-.2,1.2-.7.5-1.4.5-2.8-.2-2.4-.5-2.8-.7-.7-1.2-.7-.9.2-1.2.6c-.4.5-.5,1.5-.5,2.9h0Z"/>
    <path class="cls-15" d="M543,268.9c0-1,.1-1.8.3-2.5s.5-1.1.9-1.4.9-.5,1.5-.5.9,0,1.2.3.6.5.9.8.4.8.5,1.3.2,1.2.2,2,0,1.8-.3,2.4-.5,1.1-.9,1.4-.9.5-1.6.5-1.5-.3-2-.9c-.6-.7-.8-1.9-.8-3.5h0ZM544,268.9c0,1.4.2,2.4.5,2.8s.7.7,1.2.7.9-.2,1.2-.7.5-1.4.5-2.8-.2-2.4-.5-2.8-.7-.7-1.2-.7-.9.2-1.2.6c-.4.5-.5,1.5-.5,2.9h0Z"/>
    <path class="cls-15" d="M549.5,270.5v-1.1h3.2v1.1h-3.2Z"/>
    <path class="cls-15" d="M559.2,272.1v1h-5.7c0-.2,0-.5.1-.7.1-.4.4-.8.7-1.1s.8-.8,1.4-1.3c.9-.8,1.6-1.4,1.9-1.8s.5-.9.5-1.3-.2-.8-.5-1.1-.7-.4-1.2-.4-.9.1-1.2.5-.5.7-.5,1.3h-1.1c0-.9.3-1.5.8-2s1.1-.6,2-.6,1.5.2,2,.7.7,1,.7,1.7,0,.7-.2,1-.4.7-.7,1-.9.9-1.6,1.5c-.6.5-1,.9-1.2,1.1s-.3.4-.5.6h4.2Z"/>
    <path class="cls-15" d="M565.8,272.1v1h-5.7c0-.2,0-.5.1-.7.1-.4.4-.8.7-1.1s.8-.8,1.4-1.3c.9-.8,1.6-1.4,1.9-1.8s.5-.9.5-1.3-.2-.8-.5-1.1-.7-.4-1.2-.4-.9.1-1.2.5-.5.7-.5,1.3h-1.1c0-.9.3-1.5.8-2s1.1-.6,2-.6,1.5.2,2,.7.7,1,.7,1.7,0,.7-.2,1-.4.7-.7,1-.9.9-1.6,1.5c-.6.5-1,.9-1.2,1.1s-.3.4-.5.6h4.2Z"/>
    <path class="cls-15" d="M569.5,268.8c-.4,0-.7-.3-.7-.7s.3-.7.7-.7.7.3.7.7-.3.7-.7.7ZM569.5,273.3c-.4,0-.7-.3-.7-.7s.3-.7.7-.7.7.3.7.7-.3.7-.7.7Z"/>
    <path class="cls-15" d="M579,268.9c0-1,.1-1.8.3-2.5s.5-1.1.9-1.4.9-.5,1.5-.5.9,0,1.2.3.6.5.9.8.4.8.5,1.3.2,1.2.2,2,0,1.8-.3,2.4-.5,1.1-.9,1.4-.9.5-1.6.5-1.5-.3-2-.9c-.6-.7-.8-1.9-.8-3.5h0ZM580.1,268.9c0,1.4.2,2.4.5,2.8s.7.7,1.2.7.9-.2,1.2-.7.5-1.4.5-2.8-.2-2.4-.5-2.8-.7-.7-1.2-.7-.9.2-1.2.6c-.4.5-.5,1.5-.5,2.9h0Z"/>
    <path class="cls-15" d="M585.7,268.9c0-1,.1-1.8.3-2.5s.5-1.1.9-1.4.9-.5,1.5-.5.9,0,1.2.3.6.5.9.8.4.8.5,1.3.2,1.2.2,2,0,1.8-.3,2.4-.5,1.1-.9,1.4-.9.5-1.6.5-1.5-.3-2-.9c-.6-.7-.8-1.9-.8-3.5h0ZM586.7,268.9c0,1.4.2,2.4.5,2.8s.7.7,1.2.7.9-.2,1.2-.7.5-1.4.5-2.8-.2-2.4-.5-2.8-.7-.7-1.2-.7-.9.2-1.2.6c-.4.5-.5,1.5-.5,2.9h0Z"/>
    <path class="cls-15" d="M419.9,278.2c0,0,0,0,0,.1s0,0,0,.1l-.4.3v8.4c0,.7,0,1-.8,1.3,0,0,0,0-.1,0,0,0,0,0,0-.1,0-.5-.3-.7-1.6-1v-.2c.9.2,1.4.2,1.7.2s.4-.1.4-.3v-8.5h-7.2v3.3c0,3.7-.2,5.4-2,6.7h-.1c1.5-1.6,1.6-3.1,1.6-6.7v-2.6c0-.5,0-1.2,0-1.6l.8.6h6.8l.4-.6.8.6h0ZM418.4,282.1c0,0,.1.1.1.2s0,0-.2,0h-5.3c-.2,0-.5,0-.7.1l-.3-.4c.3,0,.5,0,.8,0h2.2v-1.5h-1.5c-.2,0-.5,0-.7.1l-.3-.4c.3,0,.5,0,.8,0h1.7v-.5c0-.5,0-.8,0-1.2l.8.3c0,0,.1,0,.1.1s0,0-.3.3v.9h1.2l.4-.5.6.6c0,0,.1.1.1.2s0,0-.2,0h-2.2v1.5h1.8l.4-.6.7.7h0ZM417.4,283.5c0,0,.1,0,.1.1s0,0-.1.1l-.3.2v1c0,.4,0,.8,0,1.3h0c0,.3,0,.3-.3.4-.1,0-.2,0-.2,0s0,0,0-.2v-.7h-2.7v.5c0,.2,0,.2-.2.3-.1,0-.2,0-.2,0,0,0-.1,0-.1-.3s0-1.5,0-1.6v-.7c0-.3,0-.9,0-1.2l.7.5h2.4l.3-.4.7.5h0ZM416.5,285.7v-1.9h-2.7v1.9h2.7Z"/>
    <path class="cls-15" d="M432.5,280.8c0,0,.1.1.1.2s0,.2-.2.2h-9.8c-.2,0-.6,0-.8.1l-.3-.4c.3,0,.6,0,.9,0h8.7l.6-.8.9.7h0ZM426.3,282.9c0,0,.1.1.1.1,0,0,0,0-.1.1-.3.1-.5.2-.6.4-2.2,2.9-2.5,3.4-3.9,4.6h-.1c1.8-2.1,2.7-3.6,3.8-5.8l.9.5h0ZM426,277.7c1.3.6,1.9,1.2,1.9,1.5,0,0,0,.1,0,.2,0,.4-.3.7-.5.7s-.3-.1-.3-.4c0-.3-.4-1-1.3-1.9h.1ZM428.1,282.5c2,1.9,3.1,3.2,3.4,3.9,0,.1,0,.3,0,.4,0,.5-.3,1-.5,1s-.1,0-.3-.7c-.2-.6-1.1-2.5-2.8-4.5h.1c0-.1,0-.1,0-.1Z"/>
    <path class="cls-15" d="M444.5,287.5c0,0,0,.1,0,.1,0,0,0,0-.1,0h-9.6c-.2,0-.6,0-.8.1l-.3-.4c.3,0,.6,0,.9,0h4.2v-2.6h-2.8c-.2,0-.6,0-.8.1l-.3-.4c.3,0,.6,0,.8,0h3v-1.2c0-.5,0-.8,0-1.2l1,.4c0,0,.1,0,.1,0s0,0,0,.1l-.4.2v1.5h2.5l.5-.6.7.7c0,0,0,.1,0,.1s0,0-.1,0h-3.7v2.6h3.8l.6-.7.7.8h0ZM444.1,278.4c0,0,.1.1.1.1,0,0,0,0-.1,0h-5.7l.7.5s0,0,0,0,0,0,0,0c-.2,0-.4.1-.5.2-.9.8-1.8,1.7-2.7,2.4l6.4-.2c-.4-.6-1-1.3-1.8-1.9h.1c1.5.8,2.7,1.9,2.8,2.3,0,0,0,.1,0,.2,0,.3-.2.6-.4.6s-.2-.1-.3-.4c0-.2-.3-.5-.3-.5-.2,0-5,.3-5,.3-1,0-1.5.2-1.8.4,0,0,0,0-.1,0s0,0-.1,0l-.5-.7c.4,0,.7-.2,1.1-.5.8-.7,1.5-1.6,2.2-2.7h-2.9c-.2,0-.6,0-.8.1l-.3-.4c.3,0,.6,0,.9,0h7.6l.6-.7.8.8h0Z"/>
    <path class="cls-15" d="M455.9,278.2c0,0,0,0,0,.1s0,0,0,.1l-.4.3v8.4c0,.7,0,1-.8,1.3,0,0,0,0-.1,0,0,0,0,0,0-.1,0-.5-.3-.7-1.6-1v-.2c.9.2,1.4.2,1.7.2s.4-.1.4-.3v-8.5h-7.2v3.3c0,3.7-.2,5.4-2,6.7h-.1c1.5-1.6,1.6-3.1,1.6-6.7v-2.6c0-.5,0-1.2,0-1.6l.8.6h6.8l.4-.6.8.6h0ZM454.4,282.1c0,0,.1.1.1.2s0,0-.2,0h-5.3c-.2,0-.5,0-.7.1l-.3-.4c.3,0,.5,0,.8,0h2.2v-1.5h-1.5c-.2,0-.5,0-.7.1l-.3-.4c.3,0,.5,0,.8,0h1.7v-.5c0-.5,0-.8,0-1.2l.8.3c0,0,.1,0,.1.1s0,0-.3.3v.9h1.2l.4-.5.6.6c0,0,.1.1.1.2s0,0-.2,0h-2.2v1.5h1.8l.4-.6.7.7h0ZM453.4,283.5c0,0,.1,0,.1.1s0,0-.1.1l-.3.2v1c0,.4,0,.8,0,1.3h0c0,.3,0,.3-.3.4-.1,0-.2,0-.2,0s0,0,0-.2v-.7h-2.7v.5c0,.2,0,.2-.2.3-.1,0-.2,0-.2,0,0,0-.1,0-.1-.3s0-1.5,0-1.6v-.7c0-.3,0-.9,0-1.2l.7.5h2.4l.3-.4.7.5h0ZM452.5,285.7v-1.9h-2.7v1.9h2.7Z"/>
    <path class="cls-15" d="M467,278.6c0,0,.1,0,.1.1s0,.1-.2.2l-.4.2v6.1c0,.9,0,1.6,0,2.2h0c0,.2,0,.3-.3.4-.1,0-.2,0-.2,0s0,0,0-.2v-1.1h-5.5v1.1c0,.2,0,.2-.3.3-.1,0-.2,0-.2,0,0,0-.1,0-.1-.2h0c0-.8,0-1.9,0-2.6v-6c0-.4,0-.9,0-1.2l.8.6h5.1l.4-.5.9.6h0ZM465.9,282.1v-3.4h-5.5v3.4h5.5ZM465.9,286.3v-3.9h-5.5v3.9h5.5Z"/>
    <path class="cls-15" d="M472.1,283.2c-.4,0-.7-.3-.7-.7s.3-.7.7-.7.7.3.7.7-.3.7-.7.7ZM472.1,287.7c-.4,0-.7-.3-.7-.7s.3-.7.7-.7.7.3.7.7-.3.7-.7.7Z"/>
    <path class="cls-15" d="M517.8,285.5h1c0,.4.2.7.5,1s.5.3.9.3.6,0,.8-.2.4-.4.6-.6.3-.6.4-1,.2-.9.2-1.3v-.2c-.2.3-.5.6-.9.8s-.8.3-1.2.3c-.7,0-1.3-.3-1.8-.8s-.7-1.2-.7-2,.3-1.6.8-2.1,1.2-.8,1.9-.8,1.1.1,1.5.5.8.7,1,1.3.4,1.4.4,2.4-.1,2-.4,2.6-.6,1.1-1.1,1.5-1,.5-1.7.5-1.2-.2-1.7-.6-.7-.9-.8-1.6h0ZM522.1,281.7c0-.6-.2-1.1-.5-1.4s-.7-.5-1.2-.5-.9.2-1.2.6-.5.9-.5,1.5.2,1,.5,1.3.7.5,1.2.5.9-.2,1.2-.5.5-.8.5-1.4h0Z"/>
    <path class="cls-15" d="M526.8,283.2c-.4,0-.7-.3-.7-.7s.3-.7.7-.7.7.3.7.7-.3.7-.7.7ZM526.8,287.7c-.4,0-.7-.3-.7-.7s.3-.7.7-.7.7.3.7.7-.3.7-.7.7Z"/>
    <path class="cls-15" d="M536.3,283.3c0-1,.1-1.8.3-2.5s.5-1.1.9-1.4.9-.5,1.5-.5.9,0,1.2.3.6.5.9.8.4.8.5,1.3.2,1.2.2,2,0,1.8-.3,2.4-.5,1.1-.9,1.4-.9.5-1.6.5-1.5-.3-2-.9c-.6-.7-.8-1.9-.8-3.5h0ZM537.4,283.3c0,1.4.2,2.4.5,2.8s.7.7,1.2.7.9-.2,1.2-.7.5-1.4.5-2.8-.2-2.4-.5-2.8-.7-.7-1.2-.7-.9.2-1.2.6c-.4.5-.5,1.5-.5,2.9h0Z"/>
    <path class="cls-15" d="M543,283.3c0-1,.1-1.8.3-2.5s.5-1.1.9-1.4.9-.5,1.5-.5.9,0,1.2.3.6.5.9.8.4.8.5,1.3.2,1.2.2,2,0,1.8-.3,2.4-.5,1.1-.9,1.4-.9.5-1.6.5-1.5-.3-2-.9c-.6-.7-.8-1.9-.8-3.5h0ZM544,283.3c0,1.4.2,2.4.5,2.8s.7.7,1.2.7.9-.2,1.2-.7.5-1.4.5-2.8-.2-2.4-.5-2.8-.7-.7-1.2-.7-.9.2-1.2.6c-.4.5-.5,1.5-.5,2.9h0Z"/>
    <path class="cls-15" d="M549.5,284.9v-1.1h3.2v1.1h-3.2Z"/>
    <path class="cls-15" d="M557.6,287.5h-1v-6.7c-.2.2-.6.5-1,.7s-.8.4-1.1.5v-1c.6-.3,1.1-.6,1.5-1s.8-.8.9-1.1h.7v8.6h0Z"/>
    <path class="cls-15" d="M560.4,280v-1h5.6v.8c-.5.6-1.1,1.4-1.6,2.3s-1,2-1.2,3c-.2.7-.3,1.5-.4,2.4h-1.1c0-.7.1-1.5.4-2.5s.6-1.9,1.1-2.8,1-1.6,1.5-2.2h-4.2Z"/>
    <path class="cls-15" d="M569.5,283.2c-.4,0-.7-.3-.7-.7s.3-.7.7-.7.7.3.7.7-.3.7-.7.7ZM569.5,287.7c-.4,0-.7-.3-.7-.7s.3-.7.7-.7.7.3.7.7-.3.7-.7.7Z"/>
    <path class="cls-15" d="M579,283.3c0-1,.1-1.8.3-2.5s.5-1.1.9-1.4.9-.5,1.5-.5.9,0,1.2.3.6.5.9.8.4.8.5,1.3.2,1.2.2,2,0,1.8-.3,2.4-.5,1.1-.9,1.4-.9.5-1.6.5-1.5-.3-2-.9c-.6-.7-.8-1.9-.8-3.5h0ZM580.1,283.3c0,1.4.2,2.4.5,2.8s.7.7,1.2.7.9-.2,1.2-.7.5-1.4.5-2.8-.2-2.4-.5-2.8-.7-.7-1.2-.7-.9.2-1.2.6c-.4.5-.5,1.5-.5,2.9h0Z"/>
    <path class="cls-15" d="M585.7,283.3c0-1,.1-1.8.3-2.5s.5-1.1.9-1.4.9-.5,1.5-.5.9,0,1.2.3.6.5.9.8.4.8.5,1.3.2,1.2.2,2,0,1.8-.3,2.4-.5,1.1-.9,1.4-.9.5-1.6.5-1.5-.3-2-.9c-.6-.7-.8-1.9-.8-3.5h0ZM586.7,283.3c0,1.4.2,2.4.5,2.8s.7.7,1.2.7.9-.2,1.2-.7.5-1.4.5-2.8-.2-2.4-.5-2.8-.7-.7-1.2-.7-.9.2-1.2.6c-.4.5-.5,1.5-.5,2.9h0Z"/>
    <path class="cls-15" d="M415.7,292.9c0,0,.1,0,.1.1s0,0-.1,0c-.4.1-.4.2-.5.4-1,1.9-2.8,4.2-4.3,5.2v-.2c1.8-1.7,3.2-4,3.9-6.1l.9.5h0ZM417.5,298.9c1.5,1,2.5,2.3,2.6,2.8,0,0,0,.2,0,.2,0,.5-.3.7-.5.7s-.2-.2-.3-.6c0-.2,0-.4-.2-.6l-4.3.4c-1.5.1-1.7.2-2,.4,0,0,0,0-.1,0s0,0,0,0l-.5-.9c.7-.1,1-.3,1.4-.9,1.1-1.5,2-3.2,2.5-4.6l.9.5c0,0,.1,0,.1.1s0,0-.1.1c-.3.1-.4.2-.5.4-1.1,1.8-2.2,3.3-3.2,4.4l5.8-.2c-.3-.6-.8-1.3-1.6-2.2h.1c0-.1,0-.1,0-.1ZM422.1,297.7c-.2,0-.3,0-.5,0-.4,0-.6.1-.8.3,0,0,0,0-.1,0s0,0,0,0c-1.8-1.8-2.5-3.2-3.2-6l.9.3c0,0,0,0,0,0s0,0,0,0l-.3.2c.4,2.1,2.1,4.3,4,4.8v.2h0Z"/>
    <path class="cls-15" d="M433.9,298.6c.1.1.2.2.2.2s0,0-.2,0h-9.8c-.2,0-.6,0-.8.1l-.3-.4c.3,0,.6,0,.9,0h2.6v-3.5h-1.7c-.2,0-.6,0-.8.1l-.3-.4c.3,0,.6,0,.9,0h2v-1.8c0-.5,0-.8,0-1.2l.9.4c.1,0,.1,0,.1.1s0,0-.1.1l-.3.2v2.1h3.1v-1.9c0-.5,0-.8,0-1.2l.9.4c.1,0,.2,0,.2.1s0,0-.1.2l-.3.2v2.2h1.4l.6-.7.7.7c.1.1.2.2.2.2s0,0-.2,0h-2.7v3.5h2l.6-.8.7.7h0ZM428,300.1s0,0,0,0,0,0-.1,0c-.4,0-.5,0-.6.2-1.9,1.4-3.1,2.1-4.3,2.6h0c1.9-1.2,3.4-2.5,4.2-3.5l.9.7h0ZM430.1,298.6v-3.5h-3.1v3.5h3.1ZM429.6,299.6c1.9.8,2.8,1.3,3.2,1.8.2.2.2.4.2.6s-.1.6-.3.6-.2,0-.3-.3c-.3-.6-1.3-1.6-2.9-2.5v-.2Z"/>
    <path class="cls-15" d="M438.2,292.2c0,0,.1,0,.1.1s0,0-.1.1c-.2.1-.2.1-.4.5-.3.9-.6,1.6-1,2.3l.4.2c0,0,.1,0,.1.1s0,0-.3.4v4.7c0,.9,0,1.6,0,1.9h0c0,.3,0,.3-.3.4-.1,0-.2,0-.2,0s-.1,0-.1-.3h0c0-.8,0-1.5,0-2.1v-4.5c-.5.9-1,1.6-1.6,2.4h-.1c1.5-2.5,2.2-4.6,2.7-6.6l.8.4h0ZM441.8,292.7c0,0,0,0,0,.1s0,0,0,.1l-.3.2v1.4c0,.6,0,.8,0,1.1,0,0,0,0,0,.1,0,.2-.4.3-.5.3s0,0,0-.1v-.5h-1.8v1.7h1.2l.3-.5.6.6s0,0,0,.1,0,0-.1,0h-2.1v2h1.5l.4-.5.6.6c0,0,0,.1,0,.1,0,0,0,0-.1,0h-2.5v2.8c0,.1,0,.2-.2.3-.1,0-.2,0-.2,0s-.1,0-.1-.2h0c0-.8,0-1.8,0-2.6v-6.2c0-.5,0-1.1,0-1.5l.7.6h1.4l.4-.5.7.5h0ZM440.9,295.2v-2.2h-1.8v2.2h1.8ZM446.2,302.1c-.6,0-.9,0-1.1.3,0,0,0,0,0,0-.1,0-1.2-.8-1.8-1.5-.8,1-2,1.6-3.5,2.1v-.2c1.4-.7,2.4-1.3,3.2-2.4-.5-.9-.8-1.8-1-3,0,0,0,0-.1,0l-.3-.4c.3,0,.6,0,.9,0h1.6l.4-.5.7.5s0,0,0,0c0,0,0,0-.1.1-.3.1-.4.3-.4.5-.3,1.1-.6,1.9-1.1,2.6.6.7,1.5,1.2,2.6,1.5h0c0,.1,0,.1,0,.1ZM445.2,292.7c0,0,.1,0,.1.1s0,0-.1.1l-.3.2v1.4c0,.5,0,.8,0,1.1h0c0,.2,0,.2-.3.4-.1,0-.2,0-.2,0s0,0,0-.1v-.5h-1.3c-.2,0-.6,0-.8.1l-.3-.4c.3,0,.6,0,.9,0h1.5v-2.2h-1.1c-.2,0-.6,0-.8.1l-.3-.4c.3,0,.6,0,.9,0h1.1l.4-.5.7.5h0ZM442.7,297.4c-.1,0-.3,0-.5,0,.2,1,.5,1.9,1,2.6.4-.6.7-1.5.9-2.7h-1.5,0Z"/>
    <path class="cls-15" d="M453.4,293.8c0,0,.1.1.1.2s0,0-.2,0h-1.4v4.9h.5l.4-.5.5.5c0,.1.1.2.1.2,0,0,0,0-.2,0h-5.2c-.2,0-.6,0-.8.1l-.3-.4c.3,0,.6,0,.9,0h.9v-4.9c-.3,0-.7,0-1.1.1l-.3-.4c.3,0,.6,0,.9,0h.5v-.4c0-.5,0-1.3,0-1.7l.8.4c0,0,.1,0,.1.1s0,0-.3.2v1.3h2.1v-.4c0-.5,0-1.2,0-1.7l.9.4c0,0,.1,0,.1,0s0,0-.3.2v1.3h.5l.4-.5.5.5h0ZM450,300.1c0,0,0,0,0,.1,0,0,0,0-.2,0-.1,0-.3.1-.5.4-.7.9-1.5,1.6-2.2,2.2h0c.9-1.2,1.4-1.9,2.2-3.3l.7.5h0ZM451.3,295.4v-1.3h-2.1v1.3h2.1ZM451.3,297.1v-1.4h-2.1v1.4h2.1ZM451.3,299v-1.6h-2.1v1.6h2.1ZM450.8,299.7c1.4.7,1.4,1.1,1.4,1.3,0,.3-.2.5-.4.5s-.2-.1-.2-.3c0-.4-.3-.9-.9-1.5h.1c0-.1,0,0,0,0ZM457.5,292.9c0,0,.1.1.1.1s0,0-.1.1l-.3.2v8.4c0,.7-.1.9-.8,1.2,0,0,0,0,0,0,0,0,0,0,0-.1-.1-.5-.3-.6-1.3-.9v-.2c.7.1,1.1.2,1.4.2s.3-.1.3-.3v-3.1h-2.3c0,1.8-1,3.4-3.3,4.6h-.1c2.2-1.7,2.9-2.8,2.9-5.9v-3.2c0-.6,0-1.3,0-1.7l.7.6h2.1l.3-.5.6.5h0ZM456.7,295.7v-2.5h-2.3v2.5h2.3ZM456.7,298.2v-2.3h-2.3v2.3h2.3Z"/>
    <path class="cls-15" d="M461.5,297.6c-.4,0-.7-.3-.7-.7s.3-.7.7-.7.7.3.7.7-.3.7-.7.7ZM461.5,302.1c-.4,0-.7-.3-.7-.7s.3-.7.7-.7.7.3.7.7-.3.7-.7.7Z"/>
    <path class="cls-15" d="M522.5,299.9h1c0,.4.2.7.5,1s.5.3.9.3.6,0,.8-.2.5-.4.6-.6.3-.6.4-1,.2-.9.2-1.3v-.2c-.2.3-.5.6-.9.8s-.8.3-1.2.3c-.7,0-1.3-.3-1.8-.8s-.7-1.2-.7-2,.3-1.6.8-2.1,1.2-.8,1.9-.8,1.1.1,1.5.5.8.7,1,1.3.4,1.4.4,2.4-.1,2-.4,2.6-.6,1.1-1.1,1.5-1,.5-1.7.5-1.2-.2-1.7-.6-.7-.9-.8-1.6h0ZM526.8,296.1c0-.6-.2-1.1-.5-1.4s-.7-.5-1.2-.5-.9.2-1.2.6-.5.9-.5,1.5.2,1,.5,1.3.7.5,1.2.5.9-.2,1.2-.5.5-.8.5-1.4h0Z"/>
    <path class="cls-15" d="M531.5,297.6c-.4,0-.7-.3-.7-.7s.3-.7.7-.7.7.3.7.7-.3.7-.7.7ZM531.5,302.1c-.4,0-.7-.3-.7-.7s.3-.7.7-.7.7.3.7.7-.3.7-.7.7Z"/>
    <path class="cls-15" d="M541,297.7c0-1,0-1.8.3-2.5s.5-1.1.9-1.4.9-.5,1.6-.5.9,0,1.2.3.6.5.9.8.4.8.5,1.3.2,1.2.2,2,0,1.8-.3,2.4-.5,1.1-.9,1.4-.9.5-1.6.5-1.5-.3-2-.9c-.6-.7-.8-1.9-.8-3.5h0ZM542.1,297.7c0,1.4.2,2.4.5,2.8s.7.7,1.2.7.9-.2,1.2-.7.5-1.4.5-2.8-.2-2.4-.5-2.8-.7-.7-1.2-.7-.9.2-1.2.6c-.4.5-.5,1.5-.5,2.9h0Z"/>
    <path class="cls-15" d="M547.7,297.7c0-1,0-1.8.3-2.5s.5-1.1.9-1.4.9-.5,1.6-.5.9,0,1.2.3.6.5.9.8.4.8.5,1.3.2,1.2.2,2,0,1.8-.3,2.4-.5,1.1-.9,1.4-.9.5-1.6.5-1.5-.3-2-.9c-.6-.7-.8-1.9-.8-3.5h0ZM548.7,297.7c0,1.4.2,2.4.5,2.8s.7.7,1.2.7.9-.2,1.2-.7.5-1.4.5-2.8-.2-2.4-.5-2.8-.7-.7-1.2-.7-.9.2-1.2.6c-.4.5-.5,1.5-.5,2.9h0Z"/>
    <path class="cls-15" d="M554.2,299.3v-1.1h3.2v1.1h-3.2Z"/>
    <path class="cls-15" d="M562.3,301.9h-1v-6.7c-.2.2-.6.5-1,.7s-.8.4-1.1.5v-1c.6-.3,1.1-.6,1.5-1s.8-.8.9-1.1h.7v8.6h0Z"/>
    <path class="cls-15" d="M565.1,294.4v-1h5.6v.8c-.5.6-1.1,1.4-1.6,2.3s-1,2-1.2,3c-.2.7-.3,1.5-.4,2.4h-1.1c0-.7.1-1.5.4-2.5s.6-1.9,1.1-2.8,1-1.6,1.5-2.2h-4.2Z"/>
    <path class="cls-15" d="M574.2,297.6c-.4,0-.7-.3-.7-.7s.3-.7.7-.7.7.3.7.7-.3.7-.7.7ZM574.2,302.1c-.4,0-.7-.3-.7-.7s.3-.7.7-.7.7.3.7.7-.3.7-.7.7Z"/>
    <path class="cls-15" d="M583.7,297.7c0-1,0-1.8.3-2.5s.5-1.1.9-1.4.9-.5,1.6-.5.9,0,1.2.3.6.5.9.8.4.8.5,1.3.2,1.2.2,2,0,1.8-.3,2.4-.5,1.1-.9,1.4-.9.5-1.6.5-1.5-.3-2-.9c-.6-.7-.8-1.9-.8-3.5h0ZM584.8,297.7c0,1.4.2,2.4.5,2.8s.7.7,1.2.7.9-.2,1.2-.7.5-1.4.5-2.8-.2-2.4-.5-2.8-.7-.7-1.2-.7-.9.2-1.2.6c-.4.5-.5,1.5-.5,2.9h0Z"/>
    <path class="cls-15" d="M590.3,297.7c0-1,0-1.8.3-2.5s.5-1.1.9-1.4.9-.5,1.6-.5.9,0,1.2.3.6.5.9.8.4.8.5,1.3.2,1.2.2,2,0,1.8-.3,2.4-.5,1.1-.9,1.4-.9.5-1.6.5-1.5-.3-2-.9c-.6-.7-.8-1.9-.8-3.5h0ZM591.4,297.7c0,1.4.2,2.4.5,2.8s.7.7,1.2.7.9-.2,1.2-.7.5-1.4.5-2.8-.2-2.4-.5-2.8-.7-.7-1.2-.7-.9.2-1.2.6c-.4.5-.5,1.5-.5,2.9h0Z"/>
  </g>
  <g>
    <path class="cls-15" d="M437.3,165.7v-8.6h1.1v7.6h4.2v1h-5.4Z"/>
    <path class="cls-15" d="M443.9,158.3v-1.2h1v1.2h-1ZM443.9,165.7v-6.2h1v6.2h-1Z"/>
    <path class="cls-15" d="M447.5,165.7h-1v-8.6h1v3.1c.5-.6,1-.8,1.7-.8s.8,0,1.1.2.6.4.8.6.4.6.5,1,.2.8.2,1.3c0,1.1-.3,1.9-.8,2.5s-1.2.9-1.9.9-1.3-.3-1.7-.9v.8h0ZM447.5,162.6c0,.8.1,1.3.3,1.6.3.5.8.8,1.4.8s.9-.2,1.2-.6.5-1,.5-1.8-.2-1.4-.5-1.8-.7-.6-1.2-.6-.9.2-1.2.6-.5,1-.5,1.7h0Z"/>
    <path class="cls-15" d="M453.2,165.7v-6.2h1v.9c.2-.4.5-.7.7-.9s.4-.2.7-.2c.4,0,.7.1,1.1.3l-.4,1c-.3-.1-.5-.2-.8-.2s-.4,0-.6.2-.3.3-.4.6c-.1.4-.2.8-.2,1.2v3.3h-1.1Z"/>
    <path class="cls-15" d="M461.3,164.9c-.4.3-.8.6-1.1.7s-.8.2-1.2.2c-.7,0-1.2-.2-1.6-.5s-.5-.8-.5-1.3,0-.6.2-.8.3-.4.5-.6.5-.3.8-.4c.2,0,.5-.1.9-.2.9-.1,1.5-.2,1.9-.4v-.3c0-.4-.1-.7-.3-.9-.3-.2-.7-.4-1.2-.4s-.9,0-1.1.3-.4.5-.5.9h-1c0-.6.2-.9.5-1.2s.5-.5.9-.6.9-.2,1.4-.2,1,0,1.3.2.6.3.7.5.3.4.3.7c0,.2,0,.5,0,1v1.4c0,1,0,1.6,0,1.9s.1.5.3.8h-1.1c-.1-.2-.2-.5-.2-.8h0ZM461.2,162.6c-.4.2-1,.3-1.7.4-.4,0-.7.1-.9.2s-.3.2-.4.3-.1.3-.1.5c0,.3.1.5.3.7s.5.3.9.3.8,0,1.1-.3.5-.4.7-.7c.1-.2.2-.6.2-1.1v-.4h0Z"/>
    <path class="cls-15" d="M463.9,165.7v-6.2h1v.9c.2-.4.5-.7.7-.9s.4-.2.7-.2c.4,0,.7.1,1.1.3l-.4,1c-.3-.1-.5-.2-.8-.2s-.4,0-.6.2-.3.3-.4.6c-.1.4-.2.8-.2,1.2v3.3h-1.1Z"/>
    <path class="cls-15" d="M467.9,168.1v-1c.1,0,.3,0,.5,0s.4,0,.6-.1.3-.2.4-.3c0-.1.2-.4.3-.8,0,0,0-.1,0-.3l-2.4-6.2h1.1l1.3,3.6c.2.5.3.9.5,1.4.1-.5.3-1,.4-1.4l1.3-3.6h1l-2.4,6.3c-.2.7-.5,1.1-.6,1.4-.2.4-.4.6-.6.8s-.5.2-.9.2-.4,0-.7-.1h0Z"/>
    <path class="cls-15" d="M477,161.5c0-1.4.4-2.5,1.1-3.4s1.8-1.2,3-1.2,1.5.2,2.1.6,1.1.9,1.5,1.6.5,1.4.5,2.3-.2,1.6-.5,2.3-.9,1.2-1.5,1.6-1.3.5-2.1.5-1.5-.2-2.2-.6-1.1-.9-1.5-1.6-.5-1.4-.5-2.1h0ZM478.2,161.5c0,1,.3,1.9.8,2.4s1.2.9,2.1.9,1.6-.3,2.1-.9.8-1.5.8-2.6-.1-1.3-.4-1.8-.6-.9-1-1.2-1-.4-1.5-.4c-.8,0-1.5.3-2.1.8s-.9,1.5-.9,2.8h0Z"/>
    <path class="cls-15" d="M486.6,168.1v-8.6h1v.8c.2-.3.5-.6.8-.7s.6-.2,1-.2,1,.1,1.4.4.7.7.9,1.2.3,1,.3,1.6-.1,1.2-.3,1.7-.6.9-1,1.2-.9.4-1.4.4-.7,0-1-.2-.5-.3-.7-.6v3h-1ZM487.5,162.6c0,.8.2,1.4.5,1.8s.7.6,1.2.6.9-.2,1.2-.6.5-1,.5-1.8-.2-1.4-.5-1.8-.7-.6-1.2-.6-.9.2-1.2.6-.5,1-.5,1.8h0Z"/>
    <path class="cls-15" d="M497.5,163.7h1.1c-.2.8-.5,1.3-1,1.6s-1.1.5-1.8.5-1.6-.3-2.2-.8-.8-1.4-.8-2.4.3-1.9.8-2.4,1.2-.9,2.1-.9,1.5.3,2,.9.8,1.4.8,2.4v.3h-4.6c0,.7.2,1.2.6,1.6s.8.5,1.3.5.7-.1,1-.3.5-.5.6-1h0ZM494,162h3.5c0-.5-.2-.9-.4-1.2-.3-.4-.8-.6-1.3-.6s-.9.2-1.2.5-.5.8-.5,1.3h0Z"/>
    <path class="cls-15" d="M499.9,165.7v-6.2h1v.9c.2-.4.5-.7.7-.9s.4-.2.7-.2c.4,0,.7.1,1.1.3l-.4,1c-.3-.1-.5-.2-.8-.2s-.4,0-.6.2-.3.3-.4.6c-.1.4-.2.8-.2,1.2v3.3h-1.1Z"/>
    <path class="cls-15" d="M508,164.9c-.4.3-.8.6-1.1.7s-.8.2-1.2.2c-.7,0-1.2-.2-1.6-.5s-.5-.8-.5-1.3,0-.6.2-.8.3-.4.5-.6.5-.3.8-.4c.2,0,.5-.1.9-.2.9-.1,1.5-.2,1.9-.4v-.3c0-.4-.1-.7-.3-.9-.3-.2-.7-.4-1.2-.4s-.9,0-1.1.3-.4.5-.5.9h-1c0-.6.2-.9.5-1.2s.5-.5.9-.6.9-.2,1.4-.2,1,0,1.3.2.6.3.7.5.3.4.3.7c0,.2,0,.5,0,1v1.4c0,1,0,1.6,0,1.9s.1.5.3.8h-1.1c-.1-.2-.2-.5-.2-.8h0ZM507.9,162.6c-.4.2-1,.3-1.7.4-.4,0-.7.1-.9.2s-.3.2-.4.3-.1.3-.1.5c0,.3.1.5.3.7s.5.3.9.3.8,0,1.1-.3.5-.4.7-.7c.1-.2.2-.6.2-1.1v-.4h0Z"/>
    <path class="cls-15" d="M512.9,164.8l.2.9c-.3,0-.6,0-.8,0-.4,0-.7,0-.9-.2s-.4-.3-.5-.5-.1-.6-.1-1.2v-3.6h-.8v-.8h.8v-1.5l1-.6v2.2h1.1v.8h-1.1v3.6c0,.3,0,.5,0,.6s.1.1.2.2c0,0,.2,0,.4,0s.3,0,.5,0h0Z"/>
    <path class="cls-15" d="M513.9,158.3v-1.2h1v1.2h-1ZM513.9,165.7v-6.2h1v6.2h-1Z"/>
    <path class="cls-15" d="M516.2,162.6c0-1.1.3-2,1-2.6.5-.5,1.2-.7,2-.7s1.5.3,2.1.8.8,1.3.8,2.3-.1,1.4-.4,1.9-.6.8-1,1.1-1,.4-1.5.4c-.9,0-1.6-.3-2.1-.8s-.8-1.4-.8-2.4h0ZM517.3,162.6c0,.8.2,1.4.5,1.8s.8.6,1.3.6,1-.2,1.3-.6.5-1,.5-1.8-.2-1.4-.5-1.8-.8-.6-1.3-.6-1,.2-1.3.6-.5,1-.5,1.8h0Z"/>
    <path class="cls-15" d="M523.3,165.7v-6.2h1v.9c.5-.7,1.1-1,2-1s.7,0,1,.2.5.3.7.5.3.5.3.8c0,.2,0,.5,0,1v3.8h-1v-3.8c0-.4,0-.8-.1-1s-.2-.4-.4-.5-.5-.2-.7-.2c-.5,0-.8.1-1.2.4s-.5.8-.5,1.6v3.4h-1.1Z"/>
    <path class="cls-15" d="M533.5,165.7v-8.6h1.1v3.5h4.5v-3.5h1.1v8.6h-1.1v-4.1h-4.5v4.1h-1.1Z"/>
    <path class="cls-15" d="M541.5,162.6c0-1.1.3-2,1-2.6.5-.5,1.2-.7,2-.7s1.5.3,2.1.8.8,1.3.8,2.3-.1,1.4-.4,1.9-.6.8-1,1.1-1,.4-1.5.4c-.9,0-1.6-.3-2.1-.8s-.8-1.4-.8-2.4h0ZM542.6,162.6c0,.8.2,1.4.5,1.8s.8.6,1.3.6,1-.2,1.3-.6.5-1,.5-1.8-.2-1.4-.5-1.8-.8-.6-1.3-.6-1,.2-1.3.6-.5,1-.5,1.8h0Z"/>
    <path class="cls-15" d="M552.7,165.7v-.9c-.5.7-1.1,1.1-2,1.1s-.7,0-1-.2-.5-.3-.7-.5-.3-.5-.3-.8c0-.2,0-.5,0-1v-3.9h1v3.4c0,.6,0,.9,0,1.1,0,.3.2.5.4.6s.5.2.8.2.6,0,.9-.2.5-.4.6-.7.2-.7.2-1.2v-3.3h1v6.2h-.9,0Z"/>
    <path class="cls-15" d="M555.3,165.7v-6.2h1v.9c.2-.4.5-.7.7-.9s.4-.2.7-.2c.4,0,.7.1,1.1.3l-.4,1c-.3-.1-.5-.2-.8-.2s-.4,0-.6.2-.3.3-.4.6c-.1.4-.2.8-.2,1.2v3.3h-1.1Z"/>
    <path class="cls-15" d="M558.9,163.9l1-.2c0,.4.2.7.5,1s.6.3,1.1.3.8-.1,1.1-.3.3-.4.3-.7,0-.4-.3-.6c-.1,0-.5-.2-1.1-.4-.8-.2-1.3-.4-1.6-.5s-.5-.3-.7-.6-.2-.5-.2-.8,0-.5.2-.8.3-.4.5-.6c.2-.1.4-.2.7-.3s.6-.1.9-.1c.5,0,.9,0,1.3.2s.6.3.8.6.3.6.4,1h-1c0-.2-.2-.4-.4-.6s-.5-.3-1-.3-.8,0-1,.2-.3.4-.3.6,0,.3.1.4.2.2.4.3c.1,0,.4.1.9.3.8.2,1.3.4,1.6.5s.5.3.7.6.2.5.2.9,0,.7-.3,1-.5.6-.9.7-.8.2-1.3.2c-.8,0-1.4-.2-1.8-.5s-.7-.8-.8-1.5h0Z"/>
    <path class="cls-15" d="M399.4,180.1v-8.6h1.7l2,6.1c.2.6.3,1,.4,1.3.1-.3.2-.8.5-1.4l2.1-6h1.5v8.6h-1.1v-7.2l-2.5,7.2h-1l-2.5-7.3v7.3h-1.1,0Z"/>
    <path class="cls-15" d="M408.9,177c0-1.1.3-2,1-2.6.5-.5,1.2-.7,2-.7s1.5.3,2.1.8.8,1.3.8,2.3-.1,1.4-.4,1.9-.6.8-1,1.1-1,.4-1.5.4c-.9,0-1.6-.3-2.1-.8s-.8-1.4-.8-2.4h0ZM409.9,177c0,.8.2,1.4.5,1.8s.8.6,1.3.6,1-.2,1.3-.6.5-1,.5-1.8-.2-1.4-.5-1.8-.8-.6-1.3-.6-1,.2-1.3.6-.5,1-.5,1.8h0Z"/>
    <path class="cls-15" d="M415.9,180.1v-6.2h1v.9c.5-.7,1.1-1,2-1s.7,0,1,.2.5.3.7.5.3.5.3.8c0,.2,0,.5,0,1v3.8h-1v-3.8c0-.4,0-.8-.1-1s-.2-.4-.4-.5-.5-.2-.7-.2c-.5,0-.8.1-1.2.4s-.5.8-.5,1.6v3.4h-1.1Z"/>
    <path class="cls-15" d="M426.6,180.1v-.8c-.4.6-1,.9-1.7.9s-1-.1-1.4-.4-.7-.7-1-1.1-.3-1.1-.3-1.7.1-1.2.3-1.7.5-.9.9-1.2.9-.4,1.4-.4.7,0,1,.2.5.4.7.6v-3.1h1v8.6h-1,0ZM423.3,177c0,.8.2,1.4.5,1.8s.7.6,1.2.6.9-.2,1.2-.6.5-.9.5-1.7-.2-1.5-.5-1.9-.7-.6-1.2-.6-.9.2-1.2.6-.5,1-.5,1.8h0Z"/>
    <path class="cls-15" d="M433.3,179.3c-.4.3-.8.6-1.1.7s-.8.2-1.2.2c-.7,0-1.2-.2-1.6-.5s-.5-.8-.5-1.3,0-.6.2-.8.3-.4.5-.6.5-.3.8-.4c.2,0,.5-.1.9-.2.9-.1,1.5-.2,1.9-.4v-.3c0-.4-.1-.7-.3-.9-.3-.2-.7-.4-1.2-.4s-.9,0-1.1.3-.4.5-.5.9h-1c0-.6.2-.9.5-1.2s.5-.5.9-.6.9-.2,1.4-.2,1,0,1.3.2.6.3.7.5.3.4.3.7c0,.2,0,.5,0,1v1.4c0,1,0,1.6,0,1.9s.1.5.3.8h-1.1c-.1-.2-.2-.5-.2-.8h0ZM433.2,177c-.4.2-1,.3-1.7.4-.4,0-.7.1-.9.2s-.3.2-.4.3-.1.3-.1.5c0,.3.1.5.3.7s.5.3.9.3.8,0,1.1-.3.5-.4.7-.7c.1-.2.2-.6.2-1.1v-.4h0Z"/>
    <path class="cls-15" d="M435.9,182.5v-1c.1,0,.3,0,.5,0s.4,0,.6-.1.3-.2.4-.3c0-.1.2-.4.3-.8,0,0,0-.1,0-.3l-2.4-6.2h1.1l1.3,3.6c.2.5.3.9.5,1.4.1-.5.3-1,.4-1.4l1.3-3.6h1l-2.4,6.3c-.2.7-.5,1.1-.6,1.4-.2.4-.4.6-.6.8s-.5.2-.9.2-.4,0-.7-.1h0Z"/>
    <path class="cls-15" d="M444.9,177.5v-1.1h3.2v1.1h-3.2Z"/>
    <path class="cls-15" d="M452.8,180.1v-8.6h5.8v1h-4.7v2.7h4v1h-4v3.9h-1.1,0Z"/>
    <path class="cls-15" d="M459.9,180.1v-6.2h1v.9c.2-.4.5-.7.7-.9s.4-.2.7-.2c.4,0,.7.1,1.1.3l-.4,1c-.3-.1-.5-.2-.8-.2s-.4,0-.6.2-.3.3-.4.6c-.1.4-.2.8-.2,1.2v3.3h-1.1Z"/>
    <path class="cls-15" d="M463.9,172.7v-1.2h1v1.2h-1ZM463.9,180.1v-6.2h1v6.2h-1Z"/>
    <path class="cls-15" d="M470.6,180.1v-.8c-.4.6-1,.9-1.7.9s-1-.1-1.4-.4-.7-.7-1-1.1-.3-1.1-.3-1.7.1-1.2.3-1.7.5-.9.9-1.2.9-.4,1.4-.4.7,0,1,.2.5.4.7.6v-3.1h1v8.6h-1,0ZM467.3,177c0,.8.2,1.4.5,1.8s.7.6,1.2.6.9-.2,1.2-.6.5-.9.5-1.7-.2-1.5-.5-1.9-.7-.6-1.2-.6-.9.2-1.2.6-.5,1-.5,1.8h0Z"/>
    <path class="cls-15" d="M477.3,179.3c-.4.3-.8.6-1.1.7s-.8.2-1.2.2c-.7,0-1.2-.2-1.6-.5s-.5-.8-.5-1.3,0-.6.2-.8.3-.4.5-.6.5-.3.8-.4c.2,0,.5-.1.9-.2.9-.1,1.5-.2,1.9-.4v-.3c0-.4-.1-.7-.3-.9-.3-.2-.7-.4-1.2-.4s-.9,0-1.1.3-.4.5-.5.9h-1c0-.6.2-.9.5-1.2s.5-.5.9-.6.9-.2,1.4-.2,1,0,1.3.2.6.3.7.5.3.4.3.7c0,.2,0,.5,0,1v1.4c0,1,0,1.6,0,1.9s.1.5.3.8h-1.1c-.1-.2-.2-.5-.2-.8h0ZM477.2,177c-.4.2-1,.3-1.7.4-.4,0-.7.1-.9.2s-.3.2-.4.3-.1.3-.1.5c0,.3.1.5.3.7s.5.3.9.3.8,0,1.1-.3.5-.4.7-.7c.1-.2.2-.6.2-1.1v-.4h0Z"/>
    <path class="cls-15" d="M479.9,182.5v-1c.1,0,.3,0,.5,0s.4,0,.6-.1.3-.2.4-.3c0-.1.2-.4.3-.8,0,0,0-.1,0-.3l-2.4-6.2h1.1l1.3,3.6c.2.5.3.9.5,1.4.1-.5.3-1,.4-1.4l1.3-3.6h1l-2.4,6.3c-.2.7-.5,1.1-.6,1.4-.2.4-.4.6-.6.8s-.5.2-.9.2-.4,0-.7-.1h0Z"/>
    <path class="cls-15" d="M486.2,175.1v-1.2h1.2v1.2h-1.2ZM486.2,180.1v-1.2h1.2v1.2h-1.2Z"/>
    <path class="cls-15" d="M543.1,178.1h1c0,.4.2.7.5.9s.5.3.9.3.6,0,.8-.2.4-.4.6-.6.3-.6.4-1,.2-.9.2-1.3v-.2c-.2.3-.5.6-.9.8s-.8.3-1.2.3c-.7,0-1.3-.3-1.8-.8s-.7-1.2-.7-2,.3-1.6.8-2.1,1.2-.8,1.9-.8,1.1.1,1.5.4.8.7,1,1.3.4,1.4.4,2.4-.1,2-.4,2.6-.6,1.1-1.1,1.5-1,.5-1.7.5-1.2-.2-1.7-.6-.7-.9-.8-1.6h0ZM547.4,174.3c0-.6-.2-1.1-.5-1.4s-.7-.5-1.2-.5-.9.2-1.2.6-.5.9-.5,1.5.2,1,.5,1.3.7.5,1.2.5.9-.2,1.2-.5.5-.8.5-1.4h0Z"/>
    <path class="cls-15" d="M549.1,180.1l3.3-8.6h1.2l3.5,8.6h-1.3l-1-2.6h-3.6l-.9,2.6h-1.2ZM551.6,176.6h2.9l-.9-2.4c-.3-.7-.5-1.3-.6-1.8-.1.6-.3,1.1-.5,1.6l-.9,2.5h0Z"/>
    <path class="cls-15" d="M558,180.1v-8.6h1.7l2,6.1c.2.6.3,1,.4,1.3,0-.3.2-.8.5-1.4l2.1-6h1.5v8.6h-1.1v-7.2l-2.5,7.2h-1l-2.5-7.3v7.3h-1.1,0Z"/>
    <path class="cls-15" d="M567.5,177.5v-1.1h3.2v1.1h-3.2Z"/>
    <path class="cls-15" d="M575.6,180.1h-1v-6.7c-.2.2-.6.5-1,.7s-.8.4-1.1.5v-1c.6-.3,1.1-.6,1.5-1s.8-.8.9-1.1h.7v8.6h0Z"/>
    <path class="cls-15" d="M578.3,175.9c0-1,.1-1.8.3-2.4s.5-1.1.9-1.4.9-.5,1.5-.5.9,0,1.2.3.6.4.9.8.4.8.5,1.3.2,1.2.2,2,0,1.8-.3,2.4-.5,1.1-.9,1.4-.9.5-1.6.5-1.5-.3-2-.9c-.6-.7-.8-1.9-.8-3.5h0ZM579.4,175.9c0,1.4.2,2.4.5,2.8s.7.7,1.2.7.9-.2,1.2-.7.5-1.4.5-2.8-.2-2.4-.5-2.8-.7-.7-1.2-.7-.9.2-1.2.6c-.4.5-.5,1.5-.5,2.9h0Z"/>
    <path class="cls-15" d="M585.4,180.1v-8.6h3.2c.6,0,1,0,1.3,0,.4,0,.8.2,1.1.4s.5.5.7.8.3.8.3,1.2c0,.7-.2,1.4-.7,1.9s-1.3.8-2.5.8h-2.2v3.5h-1.1,0ZM586.5,175.6h2.2c.7,0,1.3-.1,1.6-.4s.5-.7.5-1.1,0-.7-.3-.9-.4-.4-.7-.5c-.2,0-.5,0-1.1,0h-2.2v3.1h0Z"/>
    <path class="cls-15" d="M593.4,180.1v-8.6h1.7l2,6.1c.2.6.3,1,.4,1.3,0-.3.2-.8.5-1.4l2.1-6h1.5v8.6h-1.1v-7.2l-2.5,7.2h-1l-2.5-7.3v7.3h-1.1,0Z"/>
    <path class="cls-15" d="M400.7,191.8h1.1c0,.3.2.7.4,1s.5.5.9.7.8.2,1.3.2.8,0,1.1-.2.6-.3.7-.5.2-.5.2-.7,0-.5-.2-.7-.4-.4-.8-.5c-.2,0-.7-.2-1.5-.4s-1.3-.4-1.7-.5c-.4-.2-.7-.5-.9-.8s-.3-.7-.3-1.1.1-.8.4-1.2.6-.7,1.1-.9,1-.3,1.6-.3,1.2.1,1.7.3.9.5,1.1.9.4.9.4,1.4h-1.1c0-.5-.3-.9-.6-1.1s-.8-.4-1.5-.4-1.2.1-1.5.4-.5.6-.5.9.1.6.3.8.8.4,1.7.6,1.6.4,1.9.6c.5.2.9.5,1.1.9s.4.8.4,1.2-.1.9-.4,1.3-.6.7-1.1.9-1,.3-1.7.3-1.4-.1-2-.3-.9-.6-1.2-1-.5-1-.5-1.5h0Z"/>
    <path class="cls-15" d="M413,193.7c-.4.3-.8.6-1.1.7s-.8.2-1.2.2c-.7,0-1.2-.2-1.6-.5s-.5-.8-.5-1.3,0-.6.2-.8.3-.4.5-.6.5-.3.8-.4c.2,0,.5-.1.9-.2.9-.1,1.5-.2,1.9-.4v-.3c0-.4-.1-.7-.3-.9-.3-.2-.7-.4-1.2-.4s-.9,0-1.1.3-.4.5-.5.9h-1c0-.6.2-.9.5-1.2s.5-.5.9-.6.9-.2,1.4-.2,1,0,1.3.2.6.3.7.5.3.4.3.7c0,.2,0,.5,0,1v1.4c0,1,0,1.6,0,1.9s.1.5.3.8h-1.1c-.1-.2-.2-.5-.2-.8h0ZM412.9,191.4c-.4.2-1,.3-1.7.4-.4,0-.7.1-.9.2s-.3.2-.4.3-.1.3-.1.5c0,.3.1.5.3.7s.5.3.9.3.8,0,1.1-.3.5-.4.7-.7c.1-.2.2-.6.2-1.1v-.4h0Z"/>
    <path class="cls-15" d="M417.9,193.6v.9c-.1,0-.4,0-.6,0-.4,0-.7,0-.9-.2s-.4-.3-.5-.5-.1-.6-.1-1.2v-3.6h-.8v-.8h.8v-1.5l1-.6v2.2h1.1v.8h-1.1v3.6c0,.3,0,.5,0,.6s.1.1.2.2.2,0,.4,0,.3,0,.5,0h0Z"/>
    <path class="cls-15" d="M423,194.5v-.9c-.5.7-1.1,1.1-2,1.1s-.7,0-1-.2-.5-.3-.7-.5-.3-.5-.3-.8c0-.2,0-.5,0-1v-3.9h1v3.4c0,.6,0,.9,0,1.1,0,.3.2.5.4.6s.5.2.8.2.6,0,.9-.2.5-.4.6-.7.2-.7.2-1.2v-3.3h1v6.2h-.9,0Z"/>
    <path class="cls-15" d="M425.6,194.5v-6.2h1v.9c.2-.4.5-.7.7-.9s.4-.2.7-.2c.4,0,.7.1,1.1.3l-.4,1c-.3-.1-.5-.2-.8-.2s-.4,0-.6.2-.3.3-.4.6c-.1.4-.2.8-.2,1.2v3.3h-1.1Z"/>
    <path class="cls-15" d="M433.6,194.5v-.8c-.4.6-1,.9-1.7.9s-1-.1-1.4-.4-.7-.7-1-1.1-.3-1.1-.3-1.7.1-1.2.3-1.7.5-.9.9-1.2.9-.4,1.4-.4.7,0,1,.2.5.4.7.6v-3.1h1v8.6h-1,0ZM430.3,191.4c0,.8.2,1.4.5,1.8s.7.6,1.2.6.9-.2,1.2-.6.5-.9.5-1.7-.2-1.5-.5-1.9-.7-.6-1.2-.6-.9.2-1.2.6-.5,1-.5,1.8h0Z"/>
    <path class="cls-15" d="M440.3,193.7c-.4.3-.8.6-1.1.7s-.8.2-1.2.2c-.7,0-1.2-.2-1.6-.5s-.5-.8-.5-1.3,0-.6.2-.8.3-.4.5-.6.5-.3.8-.4c.2,0,.5-.1.9-.2.9-.1,1.5-.2,1.9-.4v-.3c0-.4-.1-.7-.3-.9-.3-.2-.7-.4-1.2-.4s-.9,0-1.1.3-.4.5-.5.9h-1c0-.6.2-.9.5-1.2s.5-.5.9-.6.9-.2,1.4-.2,1,0,1.3.2.6.3.7.5.3.4.3.7c0,.2,0,.5,0,1v1.4c0,1,0,1.6,0,1.9s.1.5.3.8h-1.1c-.1-.2-.2-.5-.2-.8h0ZM440.2,191.4c-.4.2-1,.3-1.7.4-.4,0-.7.1-.9.2s-.3.2-.4.3-.1.3-.1.5c0,.3.1.5.3.7s.5.3.9.3.8,0,1.1-.3.5-.4.7-.7c.1-.2.2-.6.2-1.1v-.4h0Z"/>
    <path class="cls-15" d="M442.9,196.9v-1c.1,0,.3,0,.5,0s.4,0,.6-.1.3-.2.4-.3c0-.1.2-.4.3-.8,0,0,0-.1,0-.3l-2.4-6.2h1.1l1.3,3.6c.2.5.3.9.5,1.4.1-.5.3-1,.4-1.4l1.3-3.6h1l-2.4,6.3c-.2.7-.5,1.1-.6,1.4-.2.4-.4.6-.6.8s-.5.2-.9.2-.4,0-.7-.1h0Z"/>
    <path class="cls-15" d="M451.9,191.9v-1.1h3.2v1.1h-3.2Z"/>
    <path class="cls-15" d="M459.4,191.8h1.1c0,.3.2.7.4,1s.5.5.9.7.8.2,1.3.2.8,0,1.1-.2.6-.3.7-.5.2-.5.2-.7,0-.5-.2-.7-.4-.4-.8-.5c-.2,0-.7-.2-1.5-.4s-1.3-.4-1.7-.5c-.4-.2-.7-.5-.9-.8s-.3-.7-.3-1.1.1-.8.4-1.2.6-.7,1.1-.9,1-.3,1.6-.3,1.2.1,1.7.3.9.5,1.1.9.4.9.4,1.4h-1.1c0-.5-.3-.9-.6-1.1s-.8-.4-1.5-.4-1.2.1-1.5.4-.5.6-.5.9.1.6.3.8.8.4,1.7.6,1.6.4,1.9.6c.5.2.9.5,1.1.9s.4.8.4,1.2-.1.9-.4,1.3-.6.7-1.1.9-1,.3-1.7.3-1.4-.1-2-.3-.9-.6-1.2-1-.5-1-.5-1.5h0Z"/>
    <path class="cls-15" d="M471.7,194.5v-.9c-.5.7-1.1,1.1-2,1.1s-.7,0-1-.2-.5-.3-.7-.5-.3-.5-.3-.8c0-.2,0-.5,0-1v-3.9h1v3.4c0,.6,0,.9,0,1.1,0,.3.2.5.4.6s.5.2.8.2.6,0,.9-.2.5-.4.6-.7.2-.7.2-1.2v-3.3h1v6.2h-.9,0Z"/>
    <path class="cls-15" d="M474.3,194.5v-6.2h1v.9c.5-.7,1.1-1,2-1s.7,0,1,.2.5.3.7.5.3.5.3.8c0,.2,0,.5,0,1v3.8h-1v-3.8c0-.4,0-.8-.1-1s-.2-.4-.4-.5-.5-.2-.7-.2c-.5,0-.8.1-1.2.4s-.5.8-.5,1.6v3.4h-1.1Z"/>
    <path class="cls-15" d="M485,194.5v-.8c-.4.6-1,.9-1.7.9s-1-.1-1.4-.4-.7-.7-1-1.1-.3-1.1-.3-1.7.1-1.2.3-1.7.5-.9.9-1.2.9-.4,1.4-.4.7,0,1,.2.5.4.7.6v-3.1h1v8.6h-1,0ZM481.7,191.4c0,.8.2,1.4.5,1.8s.7.6,1.2.6.9-.2,1.2-.6.5-.9.5-1.7-.2-1.5-.5-1.9-.7-.6-1.2-.6-.9.2-1.2.6-.5,1-.5,1.8h0Z"/>
    <path class="cls-15" d="M491.7,193.7c-.4.3-.8.6-1.1.7s-.8.2-1.2.2c-.7,0-1.2-.2-1.6-.5s-.5-.8-.5-1.3,0-.6.2-.8.3-.4.5-.6.5-.3.8-.4c.2,0,.5-.1.9-.2.9-.1,1.5-.2,1.9-.4v-.3c0-.4-.1-.7-.3-.9-.3-.2-.7-.4-1.2-.4s-.9,0-1.1.3c-.2.2-.4.5-.5.9h-1c0-.6.2-.9.5-1.2s.5-.5.9-.6c.4-.1.9-.2,1.4-.2s1,0,1.3.2.6.3.7.5.3.4.3.7c0,.2,0,.5,0,1v1.4c0,1,0,1.6,0,1.9s.1.5.3.8h-1.1c-.1-.2-.2-.5-.2-.8h0ZM491.6,191.4c-.4.2-1,.3-1.7.4-.4,0-.7.1-.9.2-.2,0-.3.2-.4.3s-.1.3-.1.5c0,.3.1.5.3.7s.5.3.9.3.8,0,1.1-.3.5-.4.7-.7c.1-.2.2-.6.2-1.1v-.4h0Z"/>
    <path class="cls-15" d="M494.3,196.9v-1c.1,0,.3,0,.5,0s.4,0,.6-.1.3-.2.4-.3c0-.1.2-.4.3-.8,0,0,0-.1,0-.3l-2.4-6.2h1.1l1.3,3.6c.2.5.3.9.5,1.4.1-.5.3-1,.4-1.4l1.3-3.6h1l-2.4,6.3c-.2.7-.5,1.1-.6,1.4-.2.4-.4.6-.6.8s-.5.2-.9.2-.4,0-.7-.1h0Z"/>
    <path class="cls-15" d="M500.6,189.5v-1.2h1.2v1.2h-1.2ZM500.6,194.5v-1.2h1.2v1.2h-1.2Z"/>
    <path class="cls-15" d="M544.8,192.5h1c0,.4.2.7.5.9s.5.3.9.3.6,0,.8-.2.4-.4.6-.6.3-.6.4-1,.2-.9.2-1.3v-.2c-.2.3-.5.6-.9.8s-.8.3-1.2.3c-.7,0-1.3-.3-1.8-.8s-.7-1.2-.7-2,.3-1.6.8-2.1,1.2-.8,1.9-.8,1.1.1,1.5.4.8.7,1,1.3.4,1.4.4,2.4-.1,2-.4,2.6-.6,1.1-1.1,1.5-1,.5-1.7.5-1.2-.2-1.7-.6-.7-.9-.8-1.6h0ZM549.1,188.7c0-.6-.2-1.1-.5-1.4s-.7-.5-1.2-.5-.9.2-1.2.6-.5.9-.5,1.5.2,1,.5,1.3.7.5,1.2.5.9-.2,1.2-.5.5-.8.5-1.4h0Z"/>
    <path class="cls-15" d="M550.8,194.5l3.3-8.6h1.2l3.5,8.6h-1.3l-1-2.6h-3.6l-.9,2.6h-1.2ZM553.3,191h2.9l-.9-2.4c-.3-.7-.5-1.3-.6-1.8-.1.6-.3,1.1-.5,1.6l-.9,2.5h0Z"/>
    <path class="cls-15" d="M559.7,194.5v-8.6h1.7l2,6.1c.2.6.3,1,.4,1.3,0-.3.2-.8.5-1.4l2.1-6h1.5v8.6h-1.1v-7.2l-2.5,7.2h-1l-2.5-7.3v7.3h-1.1,0Z"/>
    <path class="cls-15" d="M569.2,191.9v-1.1h3.2v1.1h-3.2Z"/>
    <path class="cls-15" d="M573.3,192.3h1.1c0,.4.3.9.6,1.1s.7.4,1.1.4.9-.2,1.3-.6.5-.9.5-1.5-.2-1.1-.5-1.4-.8-.5-1.3-.5-.7,0-.9.2-.5.4-.6.6h-1c0-.1.8-4.5.8-4.5h4.3v1h-3.4l-.5,2.3c.5-.4,1.1-.5,1.6-.5s1.4.3,1.9.8.8,1.2.8,2-.2,1.4-.7,2c-.5.7-1.3,1-2.3,1s-1.4-.2-1.9-.7-.8-1-.8-1.7h0Z"/>
    <path class="cls-15" d="M580.4,194.5v-8.6h3.2c.6,0,1,0,1.3,0,.4,0,.8.2,1.1.4s.5.5.7.8.3.8.3,1.2c0,.7-.2,1.4-.7,1.9s-1.3.8-2.5.8h-2.2v3.5h-1.1,0ZM581.5,190h2.2c.7,0,1.3-.1,1.6-.4s.5-.7.5-1.1,0-.7-.3-.9-.4-.4-.7-.5c-.2,0-.5,0-1.1,0h-2.2v3.1h0Z"/>
    <path class="cls-15" d="M588.4,194.5v-8.6h1.7l2,6.1c.2.6.3,1,.4,1.3,0-.3.2-.8.5-1.4l2.1-6h1.5v8.6h-1.1v-7.2l-2.5,7.2h-1l-2.5-7.3v7.3h-1.1,0Z"/>
    <path class="cls-15" d="M402.7,208.9v-8.6h3.2c.6,0,1,0,1.3,0,.4,0,.8.2,1.1.4s.5.5.7.8.3.8.3,1.2c0,.7-.2,1.4-.7,1.9s-1.3.8-2.5.8h-2.2v3.5h-1.1,0ZM403.9,204.4h2.2c.7,0,1.3-.1,1.6-.4s.5-.7.5-1.1,0-.7-.3-.9-.4-.4-.7-.5c-.2,0-.5,0-1.1,0h-2.2v3.1h0Z"/>
    <path class="cls-15" d="M414.7,208.9v-.9c-.5.7-1.1,1.1-2,1.1s-.7,0-1-.2-.5-.3-.7-.5-.3-.5-.3-.8c0-.2,0-.5,0-1v-3.9h1v3.4c0,.6,0,.9,0,1.1,0,.3.2.5.4.6s.5.2.8.2.6,0,.9-.2.5-.4.6-.7.2-.7.2-1.2v-3.3h1v6.2h-.9,0Z"/>
    <path class="cls-15" d="M418.2,208.9h-1v-8.6h1v3.1c.5-.6,1-.8,1.7-.8s.8,0,1.1.2.6.4.8.6.4.6.5,1,.2.8.2,1.3c0,1.1-.3,1.9-.8,2.5s-1.2.9-1.9.9-1.3-.3-1.7-.9v.8h0ZM418.2,205.8c0,.8.1,1.3.3,1.6.3.5.8.8,1.4.8s.9-.2,1.2-.6.5-1,.5-1.8-.2-1.4-.5-1.8-.7-.6-1.2-.6-.9.2-1.2.6-.5,1-.5,1.7h0Z"/>
    <path class="cls-15" d="M423.9,208.9v-8.6h1v8.6h-1Z"/>
    <path class="cls-15" d="M426.6,201.5v-1.2h1v1.2h-1ZM426.6,208.9v-6.2h1v6.2h-1Z"/>
    <path class="cls-15" d="M433.3,206.6h1c-.1.8-.4,1.4-.9,1.8s-1,.6-1.7.6-1.5-.3-2-.8-.8-1.4-.8-2.4.1-1.3.3-1.8.6-.9,1-1.1,1-.4,1.5-.4,1.2.2,1.7.5.7.8.8,1.5l-1,.2c-.1-.4-.3-.7-.5-.9s-.5-.3-.9-.3c-.5,0-1,.2-1.3.6s-.5,1-.5,1.8.2,1.4.5,1.8.7.6,1.2.6.8-.1,1-.4.5-.6.5-1.2h0Z"/>
    <path class="cls-15" d="M438.6,208.9v-8.6h1v3.1c.5-.6,1.1-.9,1.9-.9s.9,0,1.2.3.6.4.7.8.2.8.2,1.4v3.9h-1v-3.9c0-.5-.1-.9-.3-1.1s-.5-.4-1-.4-.6,0-.9.2-.5.4-.6.7-.2.7-.2,1.1v3.4h-1.1Z"/>
    <path class="cls-15" d="M444.9,205.8c0-1.1.3-2,1-2.6.5-.5,1.2-.7,2-.7s1.5.3,2.1.8.8,1.3.8,2.3-.1,1.4-.4,1.9-.6.8-1,1.1-1,.4-1.5.4c-.9,0-1.6-.3-2.1-.8s-.8-1.4-.8-2.4h0ZM446,205.8c0,.8.2,1.4.5,1.8s.8.6,1.3.6,1-.2,1.3-.6.5-1,.5-1.8-.2-1.4-.5-1.8-.8-.6-1.3-.6-1,.2-1.3.6-.5,1-.5,1.8h0Z"/>
    <path class="cls-15" d="M451.9,208.9v-8.6h1v8.6h-1Z"/>
    <path class="cls-15" d="M454.6,201.5v-1.2h1v1.2h-1ZM454.6,208.9v-6.2h1v6.2h-1Z"/>
    <path class="cls-15" d="M461.3,208.9v-.8c-.4.6-1,.9-1.7.9s-1-.1-1.4-.4-.7-.7-1-1.1-.3-1.1-.3-1.7.1-1.2.3-1.7.5-.9.9-1.2.9-.4,1.4-.4.7,0,1,.2.5.4.7.6v-3.1h1v8.6h-1,0ZM458,205.8c0,.8.2,1.4.5,1.8s.7.6,1.2.6.9-.2,1.2-.6.5-.9.5-1.7-.2-1.5-.5-1.9-.7-.6-1.2-.6-.9.2-1.2.6-.5,1-.5,1.8h0Z"/>
    <path class="cls-15" d="M468,208.1c-.4.3-.8.6-1.1.7s-.8.2-1.2.2c-.7,0-1.2-.2-1.6-.5s-.5-.8-.5-1.3,0-.6.2-.8.3-.4.5-.6.5-.3.8-.4c.2,0,.5-.1.9-.2.9-.1,1.5-.2,1.9-.4v-.3c0-.4-.1-.7-.3-.9-.3-.2-.7-.4-1.2-.4s-.9,0-1.1.3-.4.5-.5.9h-1c0-.6.2-.9.5-1.2s.5-.5.9-.6.9-.2,1.4-.2,1,0,1.3.2.6.3.7.5.3.4.3.7c0,.2,0,.5,0,1v1.4c0,1,0,1.6,0,1.9s.1.5.3.8h-1.1c-.1-.2-.2-.5-.2-.8h0ZM467.9,205.8c-.4.2-1,.3-1.7.4-.4,0-.7.1-.9.2s-.3.2-.4.3-.1.3-.1.5c0,.3.1.5.3.7s.5.3.9.3.8,0,1.1-.3.5-.4.7-.7c.1-.2.2-.6.2-1.1v-.4h0Z"/>
    <path class="cls-15" d="M470.6,211.3v-1c.1,0,.3,0,.5,0s.4,0,.6-.1.3-.2.4-.3c0-.1.2-.4.3-.8,0,0,0-.1,0-.3l-2.4-6.2h1.1l1.3,3.6c.2.5.3.9.5,1.4.1-.5.3-1,.4-1.4l1.3-3.6h1l-2.4,6.3c-.2.7-.5,1.1-.6,1.4-.2.4-.4.6-.6.8s-.5.2-.9.2-.4,0-.7-.1h0Z"/>
    <path class="cls-15" d="M476.2,207.1l1-.2c0,.4.2.7.5,1s.6.3,1.1.3.8-.1,1.1-.3.4-.4.4-.7-.1-.4-.3-.6c-.1,0-.5-.2-1.1-.4-.8-.2-1.3-.4-1.6-.5s-.5-.3-.7-.6-.2-.5-.2-.8,0-.5.2-.8.3-.4.5-.6c.2-.1.4-.2.7-.3s.6-.1.9-.1c.5,0,.9,0,1.3.2s.6.3.8.6.3.6.4,1h-1c0-.2-.2-.4-.4-.6s-.5-.3-1-.3-.8,0-1,.2-.3.4-.3.6,0,.3.1.4.2.2.4.3c.1,0,.4.1.9.3.8.2,1.3.4,1.6.5s.5.3.7.6.2.5.2.9-.1.7-.3,1-.5.6-.9.7-.8.2-1.3.2c-.8,0-1.4-.2-1.9-.5s-.7-.8-.8-1.5h0Z"/>
    <path class="cls-15" d="M482.9,203.9v-1.2h1.2v1.2h-1.2ZM482.9,208.9v-1.2h1.2v1.2h-1.2Z"/>
    <path class="cls-15" d="M546.5,206.9h1c0,.4.2.7.5.9s.5.3.9.3.6,0,.8-.2.5-.4.6-.6.3-.6.4-1,.2-.9.2-1.3v-.2c-.2.3-.5.6-.9.8s-.8.3-1.2.3c-.7,0-1.3-.3-1.8-.8s-.7-1.2-.7-2,.3-1.6.8-2.1,1.2-.8,1.9-.8,1.1.1,1.5.4.8.7,1,1.3.4,1.4.4,2.4-.1,2-.4,2.6-.6,1.1-1.1,1.5-1,.5-1.7.5-1.2-.2-1.7-.6-.7-.9-.8-1.6h0ZM550.8,203.1c0-.6-.2-1.1-.5-1.4s-.7-.5-1.2-.5-.9.2-1.2.6-.5.9-.5,1.5.2,1,.5,1.3.7.5,1.2.5.9-.2,1.2-.5.5-.8.5-1.4h0Z"/>
    <path class="cls-15" d="M552.5,208.9l3.3-8.6h1.2l3.5,8.6h-1.3l-1-2.6h-3.6l-.9,2.6h-1.2ZM554.9,205.4h2.9l-.9-2.4c-.3-.7-.5-1.3-.6-1.8-.1.6-.3,1.1-.5,1.6l-.9,2.5h0Z"/>
    <path class="cls-15" d="M561.4,208.9v-8.6h1.7l2,6.1c.2.6.3,1,.4,1.3,0-.3.2-.8.5-1.4l2.1-6h1.5v8.6h-1.1v-7.2l-2.5,7.2h-1l-2.5-7.3v7.3h-1.1,0Z"/>
    <path class="cls-15" d="M570.8,206.3v-1.1h3.2v1.1h-3.2Z"/>
    <path class="cls-15" d="M575,206.7h1.1c0,.4.3.9.6,1.1s.7.4,1.1.4.9-.2,1.3-.6.5-.9.5-1.5-.2-1.1-.5-1.4-.8-.5-1.3-.5-.7,0-.9.2-.5.4-.6.6h-1c0-.1.8-4.5.8-4.5h4.3v1h-3.4l-.5,2.3c.5-.4,1.1-.5,1.6-.5s1.4.3,1.9.8.8,1.2.8,2-.2,1.4-.7,2c-.5.7-1.3,1-2.3,1s-1.4-.2-1.9-.7-.8-1-.8-1.7h0Z"/>
    <path class="cls-15" d="M582.1,208.9v-8.6h3.2c.6,0,1,0,1.3,0,.4,0,.8.2,1.1.4s.5.5.7.8.3.8.3,1.2c0,.7-.2,1.4-.7,1.9s-1.3.8-2.5.8h-2.2v3.5h-1.1,0ZM583.2,204.4h2.2c.7,0,1.3-.1,1.6-.4s.5-.7.5-1.1,0-.7-.3-.9-.4-.4-.7-.5c-.2,0-.5,0-1.1,0h-2.2v3.1h0Z"/>
    <path class="cls-15" d="M590,208.9v-8.6h1.7l2,6.1c.2.6.3,1,.4,1.3,0-.3.2-.8.5-1.4l2.1-6h1.5v8.6h-1.1v-7.2l-2.5,7.2h-1l-2.5-7.3v7.3h-1.1,0Z"/>
  </g>
  <g>
    <rect class="cls-5" y="738.9" width="139" height="173"/>
    <g>
      <path class="cls-15" d="M33.8,825.5v-5.4h.7v5.4h-.7Z"/>
      <path class="cls-15" d="M35.8,825.5v-5.4h.7l2.8,4.2v-4.2h.7v5.4h-.7l-2.8-4.2v4.2h-.7Z"/>
      <path class="cls-15" d="M41.2,825.5v-5.4h.7l2.8,4.2v-4.2h.7v5.4h-.7l-2.8-4.2v4.2h-.7Z"/>
      <path class="cls-15" d="M46.5,822.9c0-.9.2-1.6.7-2.1.5-.5,1.1-.8,1.9-.8s1,.1,1.3.4c.4.2.7.6.9,1,.2.4.3.9.3,1.5s-.1,1-.3,1.5-.5.8-.9,1-.8.3-1.3.3-1-.1-1.4-.4-.7-.6-.9-1-.3-.9-.3-1.3h0ZM47.2,822.9c0,.7.2,1.2.5,1.5.3.4.8.6,1.3.6s1-.2,1.3-.6c.3-.4.5-.9.5-1.6s0-.8-.2-1.2-.4-.6-.7-.8c-.3-.2-.6-.3-1-.3-.5,0-.9.2-1.3.5s-.5.9-.5,1.7h0Z"/>
      <path class="cls-15" d="M54.1,825.5l-2.1-5.4h.8l1.4,3.9c.1.3.2.6.3.9,0-.3.2-.6.3-.9l1.5-3.9h.7l-2.1,5.4h-.7Z"/>
      <path class="cls-15" d="M56.4,825.5l2.1-5.4h.8l2.2,5.4h-.8l-.6-1.6h-2.2l-.6,1.6h-.8ZM58,823.3h1.8l-.6-1.5c-.2-.5-.3-.8-.4-1.1,0,.3-.2.7-.3,1l-.6,1.6h0Z"/>
      <path class="cls-15" d="M62.8,825.5v-4.8h-1.8v-.6h4.3v.6h-1.8v4.8h-.7Z"/>
      <path class="cls-15" d="M66.2,825.5v-5.4h.7v5.4h-.7Z"/>
      <path class="cls-15" d="M67.9,822.9c0-.9.2-1.6.7-2.1.5-.5,1.1-.8,1.9-.8s.9.1,1.3.4.7.6.9,1c.2.4.3.9.3,1.5s-.1,1-.3,1.5-.5.8-.9,1-.8.3-1.3.3-1-.1-1.4-.4-.7-.6-.9-1c-.2-.4-.3-.9-.3-1.3h0ZM68.7,822.9c0,.7.2,1.2.5,1.5.3.4.8.6,1.3.6s1-.2,1.3-.6.5-.9.5-1.6,0-.8-.2-1.2-.4-.6-.7-.8c-.3-.2-.6-.3-1-.3-.5,0-.9.2-1.3.5s-.6.9-.6,1.7h0Z"/>
      <path class="cls-15" d="M74,825.5v-5.4h.7l2.8,4.2v-4.2h.7v5.4h-.7l-2.8-4.2v4.2h-.7Z"/>
      <path class="cls-15" d="M81.3,823.8h.7c0,.2.1.4.2.6s.3.3.5.4.5.2.8.2.5,0,.7-.1.4-.2.5-.3.2-.3.2-.5,0-.3-.2-.4c0-.1-.3-.2-.5-.3-.1,0-.5-.1-1-.3s-.8-.2-1-.3c-.3-.1-.4-.3-.6-.5-.1-.2-.2-.4-.2-.7s0-.5.2-.8c.2-.2.4-.4.7-.5s.6-.2,1-.2.8,0,1.1.2c.3.1.5.3.7.6s.2.5.3.8h-.7c0-.3-.2-.5-.4-.7s-.5-.3-.9-.3-.8,0-.9.2-.3.3-.3.6,0,.3.2.5c.1.1.5.2,1.1.4s1,.2,1.2.3c.3.1.6.3.7.5s.2.5.2.8,0,.6-.2.8c-.2.2-.4.5-.7.6s-.7.2-1,.2-.9,0-1.2-.2-.6-.4-.8-.6c-.2-.3-.3-.6-.3-1h0Z"/>
      <path class="cls-15" d="M86.6,825.5v-5.4h2c.4,0,.6,0,.8,0,.3,0,.5.1.7.2s.3.3.4.5c.1.2.2.5.2.7,0,.5-.2.8-.4,1.2s-.8.5-1.6.5h-1.4v2.2h-.7ZM87.3,822.7h1.4c.5,0,.8,0,1-.3s.3-.4.3-.7,0-.4-.2-.6c-.1-.2-.3-.3-.4-.3-.1,0-.3,0-.7,0h-1.4v1.9h0Z"/>
      <path class="cls-15" d="M90.4,825.5l2.1-5.4h.8l2.2,5.4h-.8l-.6-1.6h-2.2l-.6,1.6h-.8ZM92,823.3h1.8l-.6-1.5c-.2-.5-.3-.8-.4-1.1,0,.3-.2.7-.3,1l-.6,1.6h0Z"/>
      <path class="cls-15" d="M99.9,823.6l.7.2c-.2.6-.4,1-.8,1.3s-.9.5-1.4.5-1.1-.1-1.4-.3-.6-.6-.8-1-.3-.9-.3-1.4.1-1,.3-1.5.5-.7.9-1,.8-.3,1.3-.3,1,.1,1.4.4c.4.3.6.7.8,1.2l-.7.2c-.1-.4-.3-.7-.5-.9-.2-.2-.5-.3-.9-.3s-.8,0-1,.3-.5.5-.6.8c-.1.3-.2.7-.2,1s0,.9.2,1.2.3.6.6.8c.3.2.6.2.9.2s.7-.1,1-.3c.3-.2.5-.6.6-1h0Z"/>
      <path class="cls-15" d="M101.5,825.5v-5.4h3.9v.6h-3.2v1.7h3v.6h-3v1.8h3.3v.6h-4Z"/>
      <path class="cls-15" d="M44.8,843.6v-5.4h2.4c.5,0,.8,0,1.1.2s.5.3.6.5c.2.2.2.5.2.8s-.1.7-.4,1c-.2.3-.6.4-1.2.5.2,0,.3.2.4.3.2.2.4.4.6.7l.9,1.5h-.9l-.7-1.1c-.2-.3-.4-.6-.5-.7s-.3-.3-.4-.4-.2-.1-.3-.1c0,0-.2,0-.4,0h-.8v2.4h-.7,0ZM45.5,840.6h1.5c.3,0,.6,0,.8,0s.3-.2.4-.3c0-.2.1-.3.1-.5,0-.2,0-.5-.3-.6-.2-.2-.5-.2-.9-.2h-1.7v1.8h0Z"/>
      <path class="cls-15" d="M50,841c0-.9.2-1.6.7-2.1.5-.5,1.1-.8,1.9-.8s1,.1,1.3.4c.4.2.7.6.9,1,.2.4.3.9.3,1.5s-.1,1-.3,1.5-.5.8-.9,1-.8.3-1.3.3-1-.1-1.4-.4-.7-.6-.9-1-.3-.9-.3-1.3h0ZM50.8,841c0,.7.2,1.2.5,1.5.3.4.8.6,1.3.6s1-.2,1.3-.6c.3-.4.5-.9.5-1.6s0-.8-.2-1.2-.4-.6-.7-.8c-.3-.2-.6-.3-1-.3-.5,0-.9.2-1.3.5s-.5.9-.5,1.7h0Z"/>
      <path class="cls-15" d="M56.1,843.6v-5.4h2c.4,0,.7,0,1,.2s.4.3.6.5c.1.2.2.5.2.7s0,.5-.2.7c-.1.2-.3.4-.6.5.3,0,.6.3.8.5s.3.5.3.8,0,.5-.2.7-.2.4-.4.5-.3.2-.6.3-.5,0-.9,0h-2.1,0ZM56.8,840.5h1.2c.3,0,.5,0,.7,0,.2,0,.3-.1.4-.3s.1-.3.1-.5,0-.3-.1-.5c0-.1-.2-.2-.4-.3-.2,0-.4,0-.8,0h-1.1s0,1.6,0,1.6ZM56.8,842.9h1.3c.2,0,.4,0,.5,0,.2,0,.3,0,.4-.2s.2-.2.3-.3.1-.3.1-.5,0-.4-.2-.5-.2-.2-.4-.3-.5,0-.8,0h-1.2v1.8h0Z"/>
      <path class="cls-15" d="M60.9,841c0-.9.2-1.6.7-2.1.5-.5,1.1-.8,1.9-.8s1,.1,1.4.4.7.6.9,1c.2.4.3.9.3,1.5s-.1,1-.3,1.5-.5.8-.9,1-.8.3-1.3.3-1-.1-1.4-.4-.7-.6-.9-1-.3-.9-.3-1.3h0ZM61.7,841c0,.7.2,1.2.5,1.5.3.4.8.6,1.3.6s1-.2,1.3-.6.5-.9.5-1.6,0-.8-.2-1.2-.4-.6-.7-.8c-.3-.2-.6-.3-1-.3-.5,0-.9.2-1.3.5s-.5.9-.5,1.7h0Z"/>
      <path class="cls-15" d="M68.4,843.6v-4.8h-1.8v-.6h4.3v.6h-1.8v4.8h-.7Z"/>
      <path class="cls-15" d="M71.7,843.6v-5.4h.7v5.4h-.7Z"/>
      <path class="cls-15" d="M77.5,841.7l.7.2c-.2.6-.4,1-.8,1.3s-.9.5-1.4.5-1.1-.1-1.4-.3-.6-.6-.8-1-.3-.9-.3-1.4.1-1,.3-1.5.5-.7.9-1,.8-.3,1.3-.3,1,.1,1.4.4c.4.3.6.7.8,1.2l-.7.2c-.1-.4-.3-.7-.5-.9-.2-.2-.5-.3-.9-.3s-.8,0-1,.3-.5.5-.6.8c-.1.3-.2.7-.2,1s0,.9.2,1.2.3.6.6.8c.3.2.6.2.9.2s.7-.1,1-.3c.3-.2.5-.6.6-1h0Z"/>
      <path class="cls-15" d="M81.2,843.6v-5.4h.7v4.8h2.7v.6h-3.4Z"/>
      <path class="cls-15" d="M84.8,843.6l2.1-5.4h.8l2.2,5.4h-.8l-.6-1.6h-2.2l-.6,1.6h-.8ZM86.4,841.4h1.8l-.6-1.5c-.2-.5-.3-.8-.4-1.1,0,.3-.2.7-.3,1l-.6,1.6h0Z"/>
      <path class="cls-15" d="M90.4,843.6v-5.4h2c.4,0,.7,0,1,.2s.4.3.6.5c.1.2.2.5.2.7s0,.5-.2.7c-.1.2-.3.4-.6.5.3,0,.6.3.8.5s.3.5.3.8,0,.5-.2.7-.2.4-.4.5-.3.2-.6.3-.5,0-.9,0h-2.1,0ZM91.1,840.5h1.2c.3,0,.5,0,.7,0,.2,0,.3-.1.4-.3s.1-.3.1-.5,0-.3-.1-.5c0-.1-.2-.2-.4-.3-.2,0-.4,0-.8,0h-1.1v1.6ZM91.1,842.9h1.3c.2,0,.4,0,.5,0,.2,0,.3,0,.4-.2s.2-.2.3-.3.1-.3.1-.5,0-.4-.2-.5-.2-.2-.4-.3-.4,0-.8,0h-1.2v1.8h0Z"/>
    </g>
  </g>
  <g>
    <rect class="cls-5" x="860" y="738.9" width="139" height="173"/>
    <g class="cls-17">
      <text class="cls-18" transform="translate(903.7 825.5)"><tspan x="0" y="0">MAKERS</tspan></text>
      <text class="cls-16" transform="translate(935.5 825.5)"><tspan x="0" y="0">P</tspan></text>
      <text class="cls-18" transform="translate(939.9 825.5)"><tspan x="0" y="0">ACE</tspan></text>
    </g>
  </g>
  <g>
    <rect class="cls-5" x="882.6" y="381.8" width="43.1" height="52"/>
    <circle class="cls-15" cx="914.6" cy="392.7" r="3.2"/>
    <polygon class="cls-11" points="919.3 398.2 919.3 411.6 917.6 411.6 917.6 414.5 916.9 414.5 916.9 430.3 912.5 430.3 912.5 414.5 911.8 414.5 911.8 411.6 910 411.6 910 398.2 911.8 398.2 911.8 397.2 917.6 397.2 917.6 398.2 919.3 398.2"/>
    <circle class="cls-15" cx="894.8" cy="392.7" r="3.2"/>
    <polygon class="cls-11" points="904.5 411.6 904.5 414.5 896.9 414.5 896.9 430.3 892.6 430.3 892.6 414.5 885.1 414.5 885.1 411.6 887.2 411.6 890 408.7 890 398.2 891.9 398.2 891.9 397.2 897.7 397.2 897.7 398.2 899.4 398.2 899.4 408.6 902.4 411.6 904.5 411.6"/>
  </g>
</svg>
