<?xml version="1.0" encoding="UTF-8"?>
<svg id="_图层_1" data-name="图层 1" xmlns="http://www.w3.org/2000/svg" xmlns:xlink="http://www.w3.org/1999/xlink" viewBox="0 0 999 911.88">
  <defs>
    <style>
      .cls-1, .cls-2 {
        fill: #545454;
      }

      .cls-1, .cls-3, .cls-4, .cls-5, .cls-6, .cls-7, .cls-8 {
        stroke-miterlimit: 10;
      }

      .cls-1, .cls-6, .cls-7, .cls-8 {
        stroke: #545454;
      }

      .cls-2, .cls-9, .cls-10, .cls-11 {
        stroke-width: 0px;
      }

      .cls-9 {
        fill: #000;
      }

      .cls-3 {
        stroke: #a0a1a6;
      }

      .cls-3, .cls-6, .cls-7 {
        fill: none;
      }

      .cls-4 {
        fill: #84a2de;
      }

      .cls-4, .cls-5 {
        stroke: #fff;
      }

      .cls-10 {
        fill: #a0a1a6;
      }

      .cls-5 {
        fill: #d4babb;
      }

      .cls-6 {
        stroke-width: 3px;
      }

      .cls-12 {
        font-family: ArialMT, Arial;
        font-size: 7.53px;
      }

      .cls-12, .cls-8, .cls-11 {
        fill: #fff;
      }

      .cls-13 {
        letter-spacing: -.07em;
      }
    </style>
    <symbol id="_新建符号" data-name="新建符号" viewBox="0 0 169.8 242.74">
      <g>
        <g>
          <g>
            <path class="cls-6" d="M168.26,216.81l-40.17,23.43c-2.27-28.94-14.98-74.31-45.23-122.84C55.24,73.09,24.48,42.82,2.63,25.15,16.02,17.34,29.41,9.53,42.8,1.72c23.17,12.81,52.92,40.87,79.07,83.67,33.07,54.14,47.28,103.32,46.4,131.41Z"/>
            <line class="cls-6" x1="124.87" y1="220.4" x2="166.37" y2="196.26"/>
            <line class="cls-6" x1="119.6" y1="201.32" x2="161.87" y2="178.4"/>
            <line class="cls-6" x1="114.19" y1="182.25" x2="155.87" y2="157.4"/>
            <line class="cls-6" x1="106.87" y1="165.4" x2="149.87" y2="141.4"/>
            <line class="cls-6" x1="98.87" y1="146.4" x2="140.69" y2="122.3"/>
            <line class="cls-6" x1="90.87" y1="130.4" x2="132.63" y2="106.25"/>
            <line class="cls-6" x1="79.87" y1="113.4" x2="123.15" y2="88.11"/>
            <line class="cls-6" x1="70.87" y1="98.4" x2="113.66" y2="72.98"/>
            <line class="cls-6" x1="58.87" y1="81.4" x2="101.45" y2="56.31"/>
            <line class="cls-6" x1="43.87" y1="64.4" x2="86.87" y2="38.4"/>
            <line class="cls-6" x1="30.46" y1="48.97" x2="72.87" y2="24.4"/>
            <line class="cls-6" x1="17.05" y1="36.47" x2="58.87" y2="12.4"/>
          </g>
          <path class="cls-7" d="M148.87,228.4c-5.69-28.4-15.03-74.25-44-121C76.8,62.1,44.29,32.11,21.87,14.4l3,12"/>
        </g>
        <line class="cls-7" x1="35.87" y1="16.4" x2="21.87" y2="14.4"/>
      </g>
    </symbol>
    <symbol id="_考试椅子" data-name="考试椅子" viewBox="0 0 36 42.58">
      <g id="_桌椅" data-name=" 桌椅">
        <g>
          <g>
            <path class="cls-3" d="M9.59,31.39v-11.47h17v11.47c0,4.35-2.98,7.88-6.65,7.88h-3.69c-3.67,0-6.65-3.53-6.65-7.88h0Z"/>
            <path class="cls-3" d="M29.17,39.13s-10.46,6.65-22.17,0"/>
            <path class="cls-3" d="M29.17,34.83s-10.46,11.71-22.17,0"/>
            <polyline class="cls-3" points="26.42 40.2 25.43 38.54 24.2 40.8 22.45 39.97 18.45 41.51 13.96 40.12 11.73 40.78 11.03 38.76 9.21 40.03"/>
          </g>
          <polygon class="cls-10" points="0 0 36 0 36 19 0 19 0 0"/>
          <path class="cls-11" d="M18.5,14.5"/>
        </g>
      </g>
    </symbol>
  </defs>
  <g>
    <rect class="cls-1" x="455" y=".5" width="5.05" height="26.38"/>
    <rect class="cls-1" x="540.91" y=".5" width="5.05" height="26.38"/>
    <rect class="cls-1" x="468.72" y="8.89" width="63.53" height="8.99"/>
  </g>
  <use width="169.8" height="242.74" transform="translate(629.43 429.82)" xlink:href="#_新建符号"/>
  <use width="169.8" height="242.74" transform="translate(376.23 430.82) rotate(-180) scale(1 -1)" xlink:href="#_新建符号"/>
  <use width="36" height="42.58" transform="translate(246.17 850.66) rotate(-180)" xlink:href="#_考试椅子"/>
  <use width="36" height="42.58" transform="translate(311.17 850.66) rotate(-180)" xlink:href="#_考试椅子"/>
  <use width="36" height="42.58" transform="translate(245.17 108.66) rotate(-180)" xlink:href="#_考试椅子"/>
  <use width="36" height="42.58" transform="translate(310.17 108.66) rotate(-180)" xlink:href="#_考试椅子"/>
  <use width="36" height="42.58" transform="translate(245.17 168.66) rotate(-180)" xlink:href="#_考试椅子"/>
  <use width="36" height="42.58" transform="translate(310.17 168.66) rotate(-180)" xlink:href="#_考试椅子"/>
  <use width="36" height="42.58" transform="translate(755.17 108.66) rotate(-180)" xlink:href="#_考试椅子"/>
  <use width="36" height="42.58" transform="translate(820.17 108.66) rotate(-180)" xlink:href="#_考试椅子"/>
  <use width="36" height="42.58" transform="translate(376.17 850.66) rotate(-180)" xlink:href="#_考试椅子"/>
  <use width="36" height="42.58" transform="translate(441.17 850.66) rotate(-180)" xlink:href="#_考试椅子"/>
  <use width="36" height="42.58" transform="translate(506.17 850.66) rotate(-180)" xlink:href="#_考试椅子"/>
  <use width="36" height="42.58" transform="translate(571.17 850.66) rotate(-180)" xlink:href="#_考试椅子"/>
  <use width="36" height="42.58" transform="translate(636.17 850.66) rotate(-180)" xlink:href="#_考试椅子"/>
  <use width="36" height="42.58" transform="translate(701.17 850.66) rotate(-180)" xlink:href="#_考试椅子"/>
  <use width="36" height="42.58" transform="translate(766.17 850.66) rotate(-180)" xlink:href="#_考试椅子"/>
  <use width="36" height="42.58" transform="translate(246.17 911.66) rotate(-180)" xlink:href="#_考试椅子"/>
  <use width="36" height="42.58" transform="translate(311.17 911.66) rotate(-180)" xlink:href="#_考试椅子"/>
  <use width="36" height="42.58" transform="translate(376.17 911.66) rotate(-180)" xlink:href="#_考试椅子"/>
  <use width="36" height="42.58" transform="translate(441.17 911.66) rotate(-180)" xlink:href="#_考试椅子"/>
  <use width="36" height="42.58" transform="translate(506.17 911.66) rotate(-180)" xlink:href="#_考试椅子"/>
  <use width="36" height="42.58" transform="translate(571.17 911.66) rotate(-180)" xlink:href="#_考试椅子"/>
  <use width="36" height="42.58" transform="translate(636.17 911.66) rotate(-180)" xlink:href="#_考试椅子"/>
  <use width="36" height="42.58" transform="translate(701.17 911.66) rotate(-180)" xlink:href="#_考试椅子"/>
  <use width="36" height="42.58" transform="translate(766.17 911.66) rotate(-180)" xlink:href="#_考试椅子"/>
  <rect class="cls-4" x="859.5" y="26.38" width="93" height="121"/>
  <rect class="cls-5" x="859.5" y="354.38" width="93" height="121"/>
  <g>
    <path class="cls-9" d="M880.45,79.92v-8.59h3.24c.57,0,1.01.03,1.31.08.42.07.78.2,1.06.4s.51.47.69.83.26.75.26,1.17c0,.73-.23,1.35-.7,1.85s-1.3.76-2.52.76h-2.2v3.49h-1.14ZM881.59,75.41h2.22c.73,0,1.26-.14,1.56-.41s.46-.66.46-1.15c0-.36-.09-.67-.27-.92s-.42-.42-.72-.51c-.19-.05-.54-.08-1.06-.08h-2.2v3.07Z"/>
    <path class="cls-9" d="M888.31,79.92v-6.22h.95v.94c.24-.44.47-.73.67-.87s.43-.21.68-.21c.36,0,.72.11,1.08.34l-.36.98c-.26-.15-.52-.23-.77-.23-.23,0-.44.07-.62.21s-.31.33-.39.58c-.12.38-.18.79-.18,1.23v3.26h-1.05Z"/>
    <path class="cls-9" d="M892.32,72.54v-1.21h1.05v1.21h-1.05ZM892.32,79.92v-6.22h1.05v6.22h-1.05Z"/>
    <path class="cls-9" d="M894.98,79.92v-6.22h.95v.88c.46-.68,1.12-1.03,1.98-1.03.38,0,.72.07,1.03.2s.55.31.71.53.27.48.33.78c.04.2.06.54.06,1.03v3.83h-1.05v-3.79c0-.43-.04-.75-.12-.96s-.23-.38-.44-.51-.45-.19-.74-.19c-.45,0-.84.14-1.16.43s-.49.83-.49,1.62v3.4h-1.05Z"/>
    <path class="cls-9" d="M903.96,78.98l.15.93c-.3.06-.56.09-.8.09-.38,0-.68-.06-.89-.18s-.36-.28-.45-.48-.13-.61-.13-1.25v-3.58h-.77v-.82h.77v-1.54l1.05-.63v2.17h1.06v.82h-1.06v3.64c0,.3.02.49.06.58s.1.15.18.21.2.08.36.08c.12,0,.27-.01.46-.04Z"/>
    <path class="cls-9" d="M906.85,79.92l3.3-8.59h1.22l3.52,8.59h-1.29l-1-2.6h-3.59l-.94,2.6h-1.21ZM909.33,76.39h2.91l-.9-2.38c-.27-.72-.48-1.32-.61-1.78-.11.55-.26,1.1-.46,1.64l-.94,2.52Z"/>
    <path class="cls-9" d="M915.65,79.92v-6.22h.95v.94c.24-.44.47-.73.67-.87s.43-.21.68-.21c.36,0,.72.11,1.08.34l-.36.98c-.26-.15-.52-.23-.77-.23-.23,0-.44.07-.62.21s-.31.33-.39.58c-.12.38-.18.79-.18,1.23v3.26h-1.05Z"/>
    <path class="cls-9" d="M923.92,77.92l1.09.13c-.17.64-.49,1.13-.96,1.48s-1.06.53-1.78.53c-.91,0-1.63-.28-2.17-.84s-.8-1.35-.8-2.36.27-1.86.81-2.44,1.24-.87,2.1-.87,1.51.28,2.04.85.79,1.36.79,2.39c0,.06,0,.16,0,.28h-4.64c.04.68.23,1.21.58,1.57s.78.54,1.3.54c.39,0,.72-.1.99-.3s.49-.53.65-.97ZM920.46,76.21h3.47c-.05-.52-.18-.92-.4-1.18-.34-.41-.77-.61-1.31-.61-.48,0-.89.16-1.22.49s-.51.76-.55,1.3Z"/>
    <path class="cls-9" d="M930.4,79.15c-.39.33-.77.57-1.13.7s-.75.21-1.16.21c-.68,0-1.21-.17-1.58-.5s-.55-.76-.55-1.28c0-.3.07-.58.21-.83s.32-.45.54-.61.48-.27.76-.35c.21-.05.52-.11.94-.16.85-.1,1.48-.22,1.88-.36,0-.14,0-.24,0-.28,0-.43-.1-.73-.3-.91-.27-.24-.67-.36-1.2-.36-.5,0-.86.09-1.1.26s-.41.48-.52.92l-1.03-.14c.09-.44.25-.8.46-1.07s.53-.48.93-.63.88-.22,1.41-.22.96.06,1.29.19.58.28.73.47.27.43.33.72c.04.18.05.5.05.97v1.41c0,.98.02,1.6.07,1.86s.13.51.27.75h-1.1c-.11-.22-.18-.47-.21-.77ZM930.31,76.8c-.38.16-.96.29-1.72.4-.43.06-.74.13-.92.21s-.32.19-.42.34-.15.32-.15.5c0,.28.11.52.32.7s.52.28.93.28.77-.09,1.08-.27.55-.42.7-.73c.11-.24.17-.59.17-1.05v-.39Z"/>
    <path class="cls-9" d="M893.39,88.82l-2.28,1.1v4.19c0,.55-.17.91-.88,1.18-.02.01-.05.01-.07.01-.05,0-.06-.02-.07-.08-.04-.37-.34-.64-1.38-.92l.04-.19c.75.2,1.2.3,1.45.3.3,0,.35-.13.35-.36v-3.85c-1.34.66-1.51.78-1.66.98-.04.07-.07.1-.1.1s-.05-.02-.07-.05l-.52-.66,2.34-.89v-2.42h-.96c-.25,0-.6.05-.8.13l-.34-.44c.3.02.6.05.88.05h1.22v-1.07c0-.49-.02-1.31-.05-1.75l.86.46c.07.04.11.06.11.1,0,.05-.04.07-.36.31v1.96h.95l.47-.62.73.72c.06.06.08.1.08.12,0,.04-.04.05-.11.05h-2.12v2.22l2.18-.83.1.18ZM899.18,86.06c.06.06.1.11.1.14s-.05.05-.16.05h-2.4v7.64c0,.92-.16,1.1-.86,1.44-.02.01-.05.02-.06.02-.04,0-.07-.04-.08-.11-.1-.42-.29-.59-1.48-.95l.02-.17c.78.14,1.24.2,1.5.2.32,0,.36-.1.36-.3v-7.78h-1.97c-.23,0-.55.05-.73.12l-.3-.43c.26.02.54.05.79.05h4.01l.48-.7.78.77Z"/>
    <path class="cls-9" d="M905.84,91.39c-3.08,1.32-3.6,1.71-3.8,2.01-.05.07-.08.11-.13.11-.02,0-.05-.01-.08-.05l-.6-.65c.29-.13.53-.34.53-.46v-6.15c0-.41-.02-.88-.05-1.34l.72.6c.89-.32,1.78-.68,2.77-1.22l.64.53s.07.08.07.11-.02.04-.07.04-.28-.02-.32-.02c-.41,0-2.97.79-3.21.86v2.81h2.07l.49-.7.77.77c.06.06.1.11.1.14s-.05.05-.16.05h-3.27v3.57l3.45-1.19.1.18ZM910.82,85.39c.07.05.11.1.11.13s-.04.06-.11.11l-.4.24v5.85c0,.46-.08.6-.86.95-.04.01-.06.02-.1.02-.06,0-.1-.05-.12-.16-.07-.35-.2-.5-1.4-.9v-.17c.86.18,1.34.26,1.61.26.29,0,.31-.1.31-.28v-5.83h-2.81v6.72c0,1.06.02,1.93.05,2.35v.08c0,.17-.05.22-.3.32-.11.05-.19.07-.24.07-.08,0-.11-.07-.11-.25v-.13c.02-.71.04-1.79.04-2.47v-5.74c0-.49-.02-1.31-.05-1.75l.73.54h2.47l.37-.58.8.6Z"/>
    <path class="cls-9" d="M923.16,94.18c.07.07.11.12.11.16,0,.05-.05.06-.14.06h-8.72l-.38.38s-.08.07-.12.07-.07-.02-.12-.06l-.68-.55.55-.43v-7.3c0-.6-.04-1.51-.05-1.95l.89.73h6.92l.47-.7.8.7c.08.07.12.13.12.18s-.05.08-.17.08h-8.42v8.59h7.58l.58-.66.79.71ZM920.51,87.26c-.42.71-.95,1.48-1.52,2.23,1.31,1.09,1.74,1.54,2.04,1.91.18.22.24.47.24.7,0,.34-.16.61-.34.61-.14,0-.23-.1-.41-.55-.18-.44-.78-1.22-1.86-2.25-1.07,1.32-2.4,2.53-3.77,3.21l-.06-.17c1.39-.98,2.51-2.1,3.48-3.37-.89-.8-1.86-1.61-2.84-2.34l.11-.13c1.02.6,2.16,1.4,3.01,2.08.58-.84,1.22-1.98,1.6-2.91l.77.68c.06.05.08.08.08.12,0,.02-.04.05-.12.07l-.41.12Z"/>
  </g>
  <g>
    <path class="cls-9" d="M869.43,414.92v-8.59h1.71l2.03,6.08c.19.57.32.99.41,1.27.1-.31.25-.77.46-1.38l2.06-5.98h1.53v8.59h-1.1v-7.19l-2.5,7.19h-1.03l-2.48-7.31v7.31h-1.1Z"/>
    <path class="cls-9" d="M879.65,414.92v-8.59h1.14v8.59h-1.14Z"/>
    <path class="cls-9" d="M882.78,414.92v-8.59h1.17l4.51,6.74v-6.74h1.09v8.59h-1.17l-4.51-6.75v6.75h-1.09Z"/>
    <path class="cls-9" d="M891.65,414.92v-8.59h1.14v8.59h-1.14Z"/>
    <path class="cls-9" d="M904.25,411.91l1.14.29c-.24.93-.67,1.65-1.29,2.14s-1.38.74-2.27.74-1.68-.19-2.26-.57-1.02-.92-1.32-1.64-.45-1.48-.45-2.3c0-.89.17-1.67.51-2.34s.83-1.17,1.46-1.52,1.33-.52,2.08-.52c.86,0,1.58.22,2.17.66s.99,1.05,1.22,1.85l-1.12.26c-.2-.62-.49-1.08-.87-1.37s-.86-.43-1.43-.43c-.66,0-1.21.16-1.66.47s-.75.74-.93,1.27-.27,1.08-.27,1.65c0,.73.11,1.37.32,1.91s.54.95.99,1.22.94.4,1.46.4c.64,0,1.18-.18,1.62-.55s.74-.91.9-1.63Z"/>
    <path class="cls-9" d="M906.99,414.92v-8.59h1.14v8.59h-1.14Z"/>
    <path class="cls-9" d="M910.11,414.92v-8.59h1.17l4.51,6.74v-6.74h1.09v8.59h-1.17l-4.51-6.75v6.75h-1.09Z"/>
    <path class="cls-9" d="M918.82,414.92v-8.59h6.21v1.01h-5.07v2.63h4.75v1.01h-4.75v2.92h5.27v1.01h-6.41Z"/>
    <path class="cls-9" d="M926.76,414.92v-8.59h1.71l2.03,6.08c.19.57.32.99.41,1.27.1-.31.25-.77.46-1.38l2.06-5.98h1.53v8.59h-1.1v-7.19l-2.5,7.19h-1.03l-2.48-7.31v7.31h-1.1Z"/>
    <path class="cls-9" d="M935.85,414.92l3.3-8.59h1.22l3.52,8.59h-1.29l-1-2.6h-3.59l-.94,2.6h-1.21ZM938.33,411.39h2.91l-.9-2.38c-.27-.72-.48-1.32-.61-1.78-.11.55-.26,1.1-.46,1.64l-.94,2.52Z"/>
    <path class="cls-9" d="M892.06,422.46c.1.07.14.12.14.17,0,.04-.05.08-.14.12-.18.07-.26.14-.37.37-1.31,2.9-2.21,4.33-3.21,5.34l-.11-.1c1.04-1.55,1.92-3.12,2.97-6.38l.72.48ZM894.68,419.69c.1.05.14.1.14.14,0,.06-.04.08-.35.28v8.71c0,.92-.1,1.14-.79,1.44-.06.02-.1.04-.13.04-.06,0-.08-.04-.1-.13-.08-.41-.47-.61-1.59-.94l.05-.18c.8.16,1.28.24,1.57.24.37,0,.41-.14.41-.43v-7.56c0-.6-.02-1.49-.05-2.06l.84.46ZM895.96,422.41c1.35,1.14,3.26,3.18,3.26,4.25,0,.43-.24.67-.41.67s-.23-.11-.31-.47c-.22-.95-1.43-3.06-2.67-4.34l.13-.11Z"/>
    <path class="cls-9" d="M907.27,423.64c.08.08.12.13.12.18,0,.04-.06.06-.17.06h-5.73c-.25,0-.6.05-.8.13l-.34-.44c.3.02.6.05.88.05h4.87l.5-.62.67.65ZM903.07,427.57c.07.05.11.08.11.11,0,.04-.05.05-.12.06-.13.01-.31.11-.46.24-.58.56-1.25,1.1-2.13,1.75l-.08-.12c.66-.6,1.54-1.63,2.1-2.44l.59.4ZM906.7,419.77s.08.07.08.11c0,.06-.01.07-.46.26v1.13c0,.46.02.88.05,1.08,0,.02.01.06.01.07,0,.2-.48.37-.5.37-.08,0-.08-.02-.08-.35h-2.18c.84.4.84.6.84.79,0,.24-.12.36-.28.36-.18,0-.25-.11-.3-.32-.05-.19-.22-.55-.43-.83h-1.25c0,.36,0,.4-.22.5-.12.06-.19.1-.25.1s-.08-.06-.08-.22v-.14c.02-.38.04-.72.04-1.24v-1c0-.46-.01-.86-.04-1.24l.67.52h3.26l.34-.53.78.56ZM906.59,424.69c.06.05.1.08.1.12s-.04.06-.4.25v.62c0,.3.01.7.04.85,0,.04.01.06.01.08,0,.22-.49.36-.49.36-.07,0-.08-.05-.08-.17v-.43h-1.44v2.58c0,.52-.08.74-.71,1.02-.05.02-.08.04-.11.04-.05,0-.06-.04-.07-.11-.02-.32-.31-.55-1.13-.85l.05-.13c.61.16.96.22,1.18.22.24,0,.28-.08.28-.22v-2.54h-1.49c0,.36,0,.4-.2.48-.11.05-.18.07-.24.07s-.08-.05-.08-.16c0-.06,0-.13.01-.23.01-.12.02-.42.02-.76v-.54c0-.4-.01-.76-.04-1.13l.65.52h3.18l.3-.42.67.47ZM905.8,421v-1h-3.6v1h3.6ZM905.8,422.18v-.92h-3.6v.92h3.6ZM905.76,426.12v-1.21h-3.44v1.21h3.44ZM904.85,427.11c1.32.58,1.66.91,1.66,1.34,0,.28-.14.5-.29.5-.11,0-.22-.16-.29-.36-.12-.34-.5-.9-1.15-1.38l.07-.11ZM911.06,425.93c.06.05.08.1.08.12,0,.04-.04.06-.12.06-.18,0-.34.07-.42.18-1.75,2.12-3.08,3.17-5.69,4.03l-.04-.16c2.59-1.19,3.98-2.37,5.56-4.77l.61.54ZM910.77,422.86s.07.08.07.11c0,.05-.05.07-.17.07-.16,0-.31.08-.43.19-1.64,1.6-1.85,1.78-3.29,2.9l-.12-.13c1.32-1.25,2.08-2.05,3.32-3.69l.61.55ZM910.43,419.69c.06.05.1.08.1.11,0,.04-.05.06-.13.07-.16.01-.35.12-.43.2-1.12,1.14-1.93,1.91-2.92,2.64l-.11-.16c1.29-1.3,1.75-1.83,2.84-3.31l.65.44Z"/>
    <path class="cls-9" d="M916.33,420.28s.07.07.07.1c0,.04-.02.06-.1.1-.29.13-.42.26-.52.47l-1.09,2.23c1.1,1.15,1.5,2,1.5,2.61,0,1.06-1.2,1.68-1.21,1.68-.05,0-.07-.04-.1-.11-.1-.34-.42-.58-1.08-.74l.04-.2c.32.11.62.16.86.16.73,0,.9-.43.9-.86,0-.56-.3-1.35-1.19-2.51l.92-2.77h-1.66v6.91c0,.91.01,1.81.05,2.35v.08c0,.2-.05.24-.25.32-.12.05-.2.07-.26.07-.08,0-.11-.06-.11-.2,0-.05.01-.11.01-.18.04-.71.04-1.79.04-2.47v-6.02c0-.49-.02-1.31-.05-1.75l.76.62h1.33l.37-.49.76.61ZM922.82,427.25c-.06,1.29.24,1.51.32,1.56.07.04.1.07.1.12,0,.01,0,.04-.01.05-.34.7-.66.85-2.04.85-1.21,0-1.33-.22-1.33-.91v-3.57h-1.35c-.01,2.87-.56,3.77-3.56,4.76l-.08-.17c2.58-1.24,3.09-1.8,3.11-4.59h-.53c-.25,0-.6.05-.8.13l-.34-.44c.3.02.6.05.88.05h4.55l.48-.6.61.6c.1.1.14.16.14.2s-.06.06-.18.06h-2.38v3.47c0,.38,0,.48.86.48,1,0,1.2,0,1.38-2.04h.18ZM923.01,421.36c.06.06.08.12.08.14,0,.05-.05.05-.08.05-.41-.05-.77.1-1.5.79l-.16-.1.58-.9h-4.51c-.02.58-.18,1.01-.43,1.2-.19.14-.34.2-.46.2-.13,0-.35-.11-.35-.26,0-.12.11-.29.38-.5.32-.26.58-.83.62-1.58h.16c.05.24.07.47.07.68h4.44l.47-.43.68.71ZM921.97,423.29c.07.07.11.12.11.16,0,.05-.06.06-.17.06h-3.71c-.25,0-.6.05-.8.13l-.34-.44c.3.02.6.05.88.05h2.97l.46-.53.6.58ZM918.76,419.19c1.21.48,1.31,1.07,1.31,1.22,0,.26-.19.56-.44.56-.19,0-.29-.14-.29-.49,0-.25-.25-.84-.65-1.18l.07-.12Z"/>
  </g>
  <g>
    <path class="cls-11" d="M469.32,249.3c.06.04.1.07.1.11s-.04.06-.1.11l-.4.28v7.15c0,.91.02,1.62.06,2.16v.08c0,.17-.05.22-.3.32-.12.06-.2.08-.25.08-.07,0-.08-.06-.08-.17v-.83h-7.75v.58c0,.14-.04.19-.26.3-.11.05-.19.08-.24.08-.07,0-.1-.07-.1-.25,0-.37.05-2.15.05-2.55v-6.25c0-.7-.01-1.4-.02-1.77l.66.56h7.41l.41-.59.82.6ZM468.35,258.34v-8.78h-7.75v8.78h7.75ZM467.02,251.03s.06.06.06.08c0,.04-.04.05-.1.06-.29.04-.44.13-.55.28-.58.71-1.14,1.35-1.51,1.71.82.52,1.76.88,3.29.96l-.02.12c-.5.1-.74.24-.84.44-.05.1-.08.12-.13.12-.06,0-1.42-.41-2.58-1.39-.97.82-1.99,1.35-3.56,1.94l-.07-.12c1.42-.7,2.51-1.43,3.29-2.12-.48-.46-.89-1.02-1.22-1.7-.54.78-1.06,1.43-1.62,1.98l-.14-.12c1.12-1.42,1.7-2.55,2.18-3.69l.67.31c.07.04.11.06.11.1,0,.02-.04.05-.12.07-.22.07-.28.14-.73.84h2.46l.4-.49.76.62ZM462.7,256.18c1.31.11,3.17.42,3.17,1.36,0,.17-.1.29-.22.29-.08,0-.2-.06-.32-.18-.62-.55-1.52-1-2.66-1.34l.04-.12ZM463.18,251.25c.3.49.9,1.22,1.36,1.63.59-.56.92-1,1.37-1.72h-2.67l-.05.08ZM463.58,254.59c1.19.17,2.01.41,2.01,1.04,0,.23-.17.36-.28.36-.07,0-.14-.05-.19-.12-.3-.44-.73-.8-1.57-1.16l.02-.12Z"/>
    <path class="cls-11" d="M481.6,254.29c.07.06.11.11.11.14s-.04.07-.11.12l-.38.24c-.23,3.06-.31,3.29-1.42,3.83-.07.04-.12.05-.16.05-.05,0-.07-.05-.1-.16-.1-.46-.3-.6-1.42-1.01l.04-.18c.73.19,1.21.3,1.55.3.48,0,.62-.23.71-.72.11-.6.2-1.42.2-2.45h-4.16v2.41c0,.91.01,1.81.05,2.35v.06c0,.16-.06.19-.34.35-.12.06-.19.1-.25.1-.07,0-.1-.07-.1-.24v-.17c.04-.68.06-1.79.06-2.47v-2.39h-3.56c-.25,0-.6.05-.8.13l-.34-.44c.3.02.6.05.88.05h3.83v-2.73h-2.51c-.25,0-.6.05-.8.13l-.34-.44c.3.02.6.05.88.05h2.77v-1c0-.49-.02-1.31-.05-1.75l.98.46c.06.02.08.05.08.07s-.02.06-.1.11l-.35.24v1.87h2.49l.36-.52.66.6c.08.07.12.11.12.16,0,.04-.04.06-.12.12l-.31.2-.14,2.44h.92l.46-.58.7.67ZM479.14,251.46h-2.67v2.73h2.49l.18-2.73ZM478.84,249.03c1.01.22,2.6.68,2.6,1.56,0,.26-.14.43-.29.43-.11,0-.19-.05-.37-.36-.25-.43-.88-1.02-1.99-1.51l.05-.12Z"/>
    <path class="cls-11" d="M487.18,250.97c.07.05.11.08.11.12,0,.02-.04.05-.1.07-.29.08-.61.3-1.27,1.34l-.12-.05.47-1.22h-1.46c-.58,1.37-1.03,2.18-1.78,3.27l-.14-.08c1.14-2.28,1.73-3.93,2.15-5.77l.78.5c.07.05.1.07.1.1,0,.04-.05.07-.13.11-.24.11-.31.19-.36.32-.18.48-.35.9-.5,1.28h1.27l.35-.42.65.42ZM487.49,256.23c-1.62,1.45-2.19,2.12-2.51,2.64-.02.04-.05.05-.07.05s-.06-.01-.1-.05l-.53-.53c.38-.31.44-.48.44-.82v-3.72c0-.47-.01-.86-.05-1.22l.86.46s.08.06.08.11c0,.04-.02.07-.07.11l-.3.2v4.23l2.11-1.6.12.13ZM493.89,250.58c.07.06.11.11.11.13,0,.04-.05.05-.14.06-.38.04-.56.13-1.37.96l-.16-.08.59-1h-4.53c-.04,1.02-.32,1.39-.78,1.39-.14,0-.3-.05-.3-.23,0-.11.07-.2.2-.35.42-.46.59-.73.68-1.71h.17c.01.24.02.44.02.64h4.47l.37-.41.66.6ZM493.15,256.04c.06.04.08.07.08.12,0,.04-.02.07-.07.11l-.32.23v1.52c0,.42.01.97.05,1.24v.02c0,.16-.46.35-.52.35s-.08-.05-.08-.14v-.85h-3.51v.66c0,.12-.02.18-.28.31-.12.06-.19.1-.24.1-.06,0-.07-.05-.07-.16,0-.22.05-1.26.05-1.5v-5.07c0-.29-.01-.86-.04-1.24l.68.52h2.87l.29-.44.68.44s.07.07.07.11-.02.06-.07.1l-.28.22v1.24c0,.13.04.68.04.82,0,.11-.05.17-.3.3-.1.05-.17.07-.22.07-.07,0-.07-.05-.07-.49h-3.12v1.43h3.38l.31-.48.68.49ZM491.89,254.34v-1.82h-3.12v1.82h3.12ZM492.29,258.37v-2.07h-3.51v2.07h3.51ZM489.65,248.52c1.22.54,1.45.83,1.45,1.24,0,.31-.19.56-.36.56-.13,0-.22-.08-.24-.25-.07-.43-.44-1.04-.92-1.42l.07-.13Z"/>
    <path class="cls-11" d="M505.93,253.6c.06.06.08.11.08.13,0,.04-.04.06-.13.06h-3.33v2.51c0,.94.01,2.03.05,2.57v.08c0,.17-.05.22-.3.32-.11.05-.19.07-.25.07-.08,0-.11-.07-.11-.28v-.11c.03-.71.04-2,.04-2.69v-2.48h-3.09c-.11,2.64-.68,4.37-3.72,5.78l-.06-.16c2.51-1.58,3.12-2.82,3.2-5.62h-2.24c-.25,0-.6.05-.8.13l-.34-.44c.3.02.6.05.88.05h2.51c.02-.86.04-1.51.04-2.27,0-.42,0-.88-.01-1.43h-1.75c-.25,0-.6.05-.8.13l-.34-.44c.3.02.6.05.88.05h7.68l.5-.7.76.77c.06.06.1.11.1.14s-.05.05-.16.05h-2.64v3.69h2.08l.53-.71.78.78ZM501.98,253.53v-3.69h-3.04c0,1.51-.01,2.42-.06,3.69h3.09Z"/>
    <path class="cls-11" d="M512.78,251.06c.11.1.16.16.16.19,0,.05-.06.07-.19.07h-3.5c0,.58-.01,1.03-.05,1.84h1.63l.4-.48.77.52c.06.04.1.07.1.11,0,.02-.04.06-.1.1l-.37.22c-.13,2.42-.18,3-.24,3.61-.08.83-.36,1.26-1.12,1.61-.05.02-.07.04-.1.04-.05,0-.07-.04-.08-.1-.1-.4-.25-.61-1.26-.94l.04-.16c.6.13,1.01.2,1.28.2.5,0,.58-.25.66-.8.11-.72.18-1.7.23-3.67h-1.85c-.17,3.45-.74,4.55-2.29,6.14l-.13-.11c1.02-1.33,1.48-2.33,1.69-3.75.11-.7.22-2.7.19-4.37h-.74c-.25,0-.6.05-.8.13l-.34-.43c.3.02.6.05.88.05h3.97l.52-.61.66.6ZM509.18,248.85c1.12.58,1.5.92,1.5,1.39,0,.35-.23.62-.43.62-.18,0-.26-.08-.28-.44-.01-.34-.2-.86-.86-1.45l.07-.12ZM518.13,258.7c-.62,0-.9.08-1.12.35-.02.02-.05.05-.07.05-.07,0-1.48-1.03-2.19-1.99-1,1.08-2.77,2.11-4.53,2.69l-.05-.17c1.69-.79,3.36-1.85,4.26-3-.54-.92-.88-2.17-1.09-3.9-.41.94-.83,1.8-1.15,2.35l-.14-.11c1.02-2.34,1.79-4.81,2.09-6.55l.85.53c.07.05.11.08.11.11,0,.05-.05.07-.14.08-.23.04-.35.12-.42.38-.14.5-.34,1.09-.56,1.68h2.77l.53-.62.71.67c.08.07.12.13.12.16,0,.05-.06.06-.17.06h-1.48c-.28,2.34-.59,4.1-1.32,5.17.79,1.1,1.62,1.61,3.01,1.87v.19ZM513.84,251.46c-.1.28-.21.54-.32.82.28,1.91.71,2.95,1.25,3.83.53-.96.86-2.64,1-4.64h-1.92Z"/>
    <path class="cls-11" d="M523.37,249.98c.06.05.1.07.1.11,0,.02-.04.06-.1.1l-.4.28v5.01c0,.91.01,1.36.04,1.74v.07c0,.25-.5.49-.52.49-.05,0-.06-.08-.06-.24v-.55h-2.3v1.02c0,.13-.02.16-.25.3-.12.07-.19.12-.24.12-.07,0-.08-.08-.08-.28v-.12c.02-.74.04-1.56.04-2.51v-4.77c0-.6-.01-.94-.04-1.34l.72.53h2.04l.31-.43.74.48ZM522.44,253.13v-2.94h-2.3v2.94h2.3ZM522.44,256.72v-3.32h-2.3v3.32h2.3ZM529.89,251.68c.06.06.1.11.1.13,0,.04-.05.05-.16.05h-1.83v6.61c0,.78-.01.83-.91,1.21-.05.01-.07.02-.11.02-.05,0-.07-.02-.08-.1-.1-.44-.32-.65-1.74-1.02l.04-.19c.79.17,1.32.25,1.66.25.49,0,.6-.16.6-.37v-6.42h-2.91c-.22,0-.5.04-.71.08l-.43-.4c.3.04.56.05.88.05h3.18v-1.27c0-1,0-1.33-.02-1.74l.85.43c.08.05.13.07.13.11s-.05.07-.13.12l-.28.16v2.19h.75l.43-.67.71.76ZM524.44,253.09c.9.7,1.49,1.22,1.49,1.8,0,.3-.18.59-.42.59-.16,0-.23-.08-.32-.56-.1-.5-.32-1.09-.86-1.73l.12-.1Z"/>
    <path class="cls-11" d="M532.87,250.48c.07.04.1.06.1.08,0,.04-.02.06-.08.1l-.31.19v6.15c0,.91,0,1.77.03,2.18v.06c0,.17-.06.2-.26.31-.13.07-.22.11-.28.11-.08,0-.11-.07-.11-.22v-.12c.04-.71.06-1.28.06-2.35v-5.19c0-.49-.02-1.32-.05-1.76l.91.46ZM532.77,248.51c1.19.55,1.69.85,1.69,1.39,0,.26-.18.6-.38.6-.11,0-.25-.16-.28-.34-.04-.28-.35-.86-1.1-1.55l.07-.11ZM538.65,252.05c.07.05.1.08.1.12s-.02.07-.1.12l-.28.18v2.93c0,.56.01.9.06,1.43,0,.04.01.07.01.1,0,.16-.07.22-.31.31-.12.05-.19.07-.24.07-.07,0-.08-.06-.08-.16v-.55h-2.73v.52c0,.25-.4.37-.5.37-.08,0-.11-.06-.11-.23,0-.08.05-1.37.05-1.63v-2.94c0-.29-.01-.86-.04-1.24l.75.56h2.42l.37-.47.62.5ZM537.81,254.04v-1.76h-2.73v1.76h2.73ZM537.81,256.33v-2.03h-2.73v2.03h2.73ZM541.48,249.76s.06.06.06.1c0,.02-.01.05-.06.07l-.38.23v8.02c0,.91-.08,1.16-.97,1.49-.04.01-.07.02-.1.02-.05,0-.07-.04-.08-.11-.08-.35-.31-.55-1.45-.86v-.17c.76.11,1.22.17,1.52.17.47,0,.52-.13.52-.42v-8.32h-4.19c-.25,0-.6.05-.8.13l-.34-.44c.3.02.6.05.88.05h4.2l.43-.56.77.61Z"/>
    <path class="cls-11" d="M419.88,263.84c.06.05.08.07.08.11,0,.02-.02.06-.08.1l-.37.26v8.38c0,.67-.08,1.02-.82,1.31-.05.01-.08.02-.11.02-.05,0-.07-.04-.08-.11-.08-.49-.29-.68-1.62-1.04l.04-.19c.84.17,1.33.25,1.63.25.35,0,.41-.12.41-.31v-8.5h-7.16v3.32c0,3.67-.24,5.37-2.05,6.69l-.11-.11c1.45-1.48,1.57-2.96,1.57-6.55v-2.6c0-.52-.01-1.25-.04-1.63l.76.61h6.78l.38-.59.79.58ZM418.39,267.69c.08.08.12.13.12.17s-.05.05-.17.05h-5.33c-.23,0-.55.05-.73.12l-.3-.43c.26.02.54.05.79.05h2.24v-1.52h-1.45c-.23,0-.55.05-.73.12l-.3-.43c.26.02.54.05.79.05h1.69v-.48c0-.47-.01-.76-.04-1.18l.76.32c.08.04.13.07.13.1,0,.04-.04.06-.32.3v.94h1.2l.38-.55.62.6c.08.08.13.13.13.17s-.06.05-.18.05h-2.16v1.52h1.77l.41-.61.66.66ZM417.36,269.14c.06.05.1.07.1.11s-.04.07-.1.12l-.3.23v1.01c0,.41.01.76.05,1.3v.08c0,.19-.05.23-.26.32-.12.05-.19.07-.24.07-.07,0-.08-.06-.08-.16v-.66h-2.7v.5c0,.18-.01.22-.22.3-.11.05-.18.07-.23.07-.08,0-.11-.07-.11-.26,0-.26.04-1.52.04-1.62v-.71c0-.29-.01-.86-.04-1.24l.66.5h2.42l.3-.44.71.47ZM416.52,271.3v-1.92h-2.7v1.92h2.7Z"/>
    <path class="cls-11" d="M432.55,267.76c.07.07.11.13.11.17s-.06.06-.18.06h-9.77c-.25,0-.6.04-.8.12l-.34-.44c.3.02.6.05.88.05h8.76l.54-.8.82.85Z"/>
    <path class="cls-11" d="M444.52,273.07c.06.06.08.11.08.13,0,.04-.04.05-.12.05h-9.61c-.25,0-.61.05-.8.12l-.34-.43c.29.04.6.05.88.05h4.2v-2.57h-2.79c-.24,0-.59.05-.77.12l-.32-.43c.28.02.58.05.84.05h3.05v-1.2c0-.47-.01-.76-.04-1.18l1,.43c.06.02.1.05.1.08,0,.02-.04.06-.08.1l-.37.24v1.52h2.52l.53-.64.72.72c.06.06.08.1.08.13s-.04.05-.12.05h-3.73v2.57h3.81l.56-.68.73.77ZM444.12,264c.07.06.1.11.1.13,0,.05-.04.06-.13.06h-5.66l.66.46s.06.06.06.08-.04.05-.08.06c-.19.02-.37.11-.49.23-.86.83-1.79,1.67-2.73,2.41l6.38-.18c-.38-.56-1.02-1.27-1.8-1.92l.11-.12c1.52.89,2.7,1.98,2.81,2.43.01.06.02.13.02.19,0,.32-.19.61-.41.61-.14,0-.22-.11-.3-.42-.06-.2-.28-.55-.28-.55-.17,0-4.95.34-4.95.34-.96.07-1.52.19-1.8.36-.05.02-.08.05-.12.05-.05,0-.08-.04-.12-.08l-.47-.67c.44-.08.73-.2,1.12-.55.83-.74,1.55-1.6,2.23-2.72h-2.91c-.25,0-.61.05-.8.12l-.34-.43c.29.02.6.05.88.05h7.65l.56-.7.83.77Z"/>
    <path class="cls-11" d="M455.88,263.84c.06.05.08.07.08.11,0,.02-.02.06-.08.1l-.37.26v8.38c0,.67-.08,1.02-.82,1.31-.05.01-.08.02-.11.02-.05,0-.07-.04-.08-.11-.08-.49-.29-.68-1.62-1.04l.04-.19c.84.17,1.33.25,1.63.25.35,0,.41-.12.41-.31v-8.5h-7.16v3.32c0,3.67-.24,5.37-2.05,6.69l-.11-.11c1.45-1.48,1.57-2.96,1.57-6.55v-2.6c0-.52-.01-1.25-.04-1.63l.76.61h6.78l.38-.59.79.58ZM454.39,267.69c.08.08.12.13.12.17s-.05.05-.17.05h-5.33c-.23,0-.55.05-.73.12l-.3-.43c.26.02.54.05.79.05h2.24v-1.52h-1.45c-.23,0-.55.05-.73.12l-.3-.43c.26.02.54.05.79.05h1.69v-.48c0-.47-.01-.76-.04-1.18l.76.32c.08.04.13.07.13.1,0,.04-.04.06-.32.3v.94h1.2l.38-.55.62.6c.08.08.13.13.13.17s-.06.05-.18.05h-2.16v1.52h1.77l.41-.61.66.66ZM453.36,269.14c.06.05.1.07.1.11s-.04.07-.1.12l-.3.23v1.01c0,.41.01.76.05,1.3v.08c0,.19-.05.23-.26.32-.12.05-.19.07-.24.07-.07,0-.08-.06-.08-.16v-.66h-2.7v.5c0,.18-.01.22-.22.3-.11.05-.18.07-.23.07-.08,0-.11-.07-.11-.26,0-.26.04-1.52.04-1.62v-.71c0-.29-.01-.86-.04-1.24l.66.5h2.42l.3-.44.71.47ZM452.52,271.3v-1.92h-2.7v1.92h2.7Z"/>
    <path class="cls-11" d="M468.43,272.66c.1.08.14.14.14.19s-.07.07-.2.07h-9.82c-.25,0-.6.05-.8.13l-.34-.44c.3.04.6.05.88.05h2.66l.64-4.8h-1.77c-.25,0-.6.05-.8.13l-.34-.44c.3.04.6.05.88.05h2.09l.41-3.09h-2.83c-.25,0-.6.05-.8.13l-.34-.44c.3.04.6.05.88.05h7.69l.48-.66.84.7c.08.06.12.12.12.16,0,.05-.06.07-.17.07h-5.3l-.42,3.09h2.83l.38-.62.79.56c.07.06.11.1.11.13,0,.05-.04.08-.11.14l-.38.31-.19,4.53h1.48l.52-.71.83.71ZM465.24,267.87h-3.09l-.65,4.8h3.53l.22-4.8Z"/>
    <path class="cls-11" d="M472.11,268.83c-.37,0-.68-.3-.68-.67s.31-.68.68-.68.68.31.68.68-.31.67-.68.67ZM472.11,273.29c-.37,0-.68-.3-.68-.67s.31-.68.68-.68.68.31.68.68-.31.67-.68.67Z"/>
    <path class="cls-11" d="M517.77,271.12l1.01-.09c.09.48.25.82.49,1.04s.55.32.93.32c.32,0,.61-.07.85-.22s.44-.35.6-.59.29-.58.39-1,.16-.85.16-1.29c0-.05,0-.12,0-.21-.21.34-.5.61-.86.82s-.76.31-1.19.31c-.71,0-1.31-.26-1.8-.77s-.74-1.2-.74-2.04.26-1.57.77-2.1,1.16-.8,1.93-.8c.56,0,1.07.15,1.53.45s.81.73,1.05,1.29.36,1.36.36,2.42-.12,1.97-.36,2.62-.59,1.15-1.06,1.49-1.02.51-1.66.51c-.67,0-1.22-.19-1.65-.56s-.68-.9-.77-1.57ZM522.09,267.33c0-.61-.16-1.09-.48-1.44s-.71-.53-1.16-.53-.88.19-1.22.57-.52.88-.52,1.49c0,.55.17.99.5,1.33s.74.51,1.22.51.89-.17,1.21-.51.47-.82.47-1.42Z"/>
    <path class="cls-11" d="M526.78,268.83c-.37,0-.68-.3-.68-.67s.31-.68.68-.68.68.31.68.68-.31.67-.68.67ZM526.78,273.29c-.37,0-.68-.3-.68-.67s.31-.68.68-.68.68.31.68.68-.31.67-.68.67Z"/>
    <path class="cls-11" d="M536.28,268.87c0-1.02.11-1.83.31-2.45s.52-1.1.93-1.43.93-.5,1.55-.5c.46,0,.87.09,1.21.28s.63.45.86.8.4.78.53,1.28.19,1.18.19,2.03c0,1.01-.1,1.82-.31,2.44s-.52,1.1-.93,1.44-.93.51-1.56.51c-.83,0-1.48-.3-1.95-.89-.57-.71-.85-1.88-.85-3.49ZM537.37,268.87c0,1.41.17,2.35.5,2.82s.74.7,1.22.7.89-.23,1.22-.7.49-1.41.49-2.81-.16-2.35-.49-2.82-.74-.7-1.23-.7-.87.21-1.16.62c-.36.52-.54,1.49-.54,2.9Z"/>
    <path class="cls-11" d="M542.96,268.87c0-1.02.11-1.83.31-2.45s.52-1.1.93-1.43.93-.5,1.55-.5c.46,0,.87.09,1.21.28s.63.45.86.8.4.78.53,1.28.19,1.18.19,2.03c0,1.01-.1,1.82-.31,2.44s-.52,1.1-.93,1.44-.93.51-1.56.51c-.83,0-1.48-.3-1.95-.89-.57-.71-.85-1.88-.85-3.49ZM544.04,268.87c0,1.41.17,2.35.5,2.82s.74.7,1.22.7.89-.23,1.22-.7.49-1.41.49-2.81-.16-2.35-.49-2.82-.74-.7-1.23-.7-.87.21-1.16.62c-.36.52-.54,1.49-.54,2.9Z"/>
    <path class="cls-11" d="M549.51,270.53v-1.06h3.24v1.06h-3.24Z"/>
    <path class="cls-11" d="M559.17,272.09v1.01h-5.68c0-.25.03-.5.12-.73.14-.39.38-.77.7-1.14s.78-.81,1.38-1.3c.93-.77,1.56-1.37,1.89-1.82s.49-.87.49-1.27c0-.42-.15-.77-.45-1.06s-.69-.43-1.17-.43c-.51,0-.91.15-1.22.46s-.46.73-.46,1.27l-1.08-.11c.07-.81.35-1.42.84-1.85s1.13-.64,1.95-.64,1.48.23,1.96.69.72,1.02.72,1.7c0,.34-.07.68-.21,1.01s-.37.68-.7,1.05-.87.87-1.63,1.51c-.63.53-1.04.89-1.22,1.08s-.33.38-.45.57h4.21Z"/>
    <path class="cls-11" d="M565.84,272.09v1.01h-5.68c0-.25.03-.5.12-.73.14-.39.38-.77.7-1.14s.78-.81,1.38-1.3c.93-.77,1.56-1.37,1.89-1.82s.49-.87.49-1.27c0-.42-.15-.77-.45-1.06s-.69-.43-1.17-.43c-.51,0-.91.15-1.22.46s-.46.73-.46,1.27l-1.08-.11c.07-.81.35-1.42.84-1.85s1.13-.64,1.95-.64,1.48.23,1.96.69.72,1.02.72,1.7c0,.34-.07.68-.21,1.01s-.37.68-.7,1.05-.87.87-1.63,1.51c-.63.53-1.04.89-1.22,1.08s-.33.38-.45.57h4.21Z"/>
    <path class="cls-11" d="M569.48,268.83c-.37,0-.68-.3-.68-.67s.31-.68.68-.68.68.31.68.68-.31.67-.68.67ZM569.48,273.29c-.37,0-.68-.3-.68-.67s.31-.68.68-.68.68.31.68.68-.31.67-.68.67Z"/>
    <path class="cls-11" d="M578.97,268.87c0-1.02.11-1.83.31-2.45s.52-1.1.93-1.43.93-.5,1.55-.5c.46,0,.87.09,1.21.28s.63.45.86.8.4.78.53,1.28.19,1.18.19,2.03c0,1.01-.1,1.82-.31,2.44s-.52,1.1-.93,1.44-.93.51-1.56.51c-.83,0-1.48-.3-1.95-.89-.57-.71-.85-1.88-.85-3.49ZM580.06,268.87c0,1.41.17,2.35.5,2.82s.74.7,1.22.7.89-.23,1.22-.7.49-1.41.49-2.81-.16-2.35-.49-2.82-.74-.7-1.23-.7-.87.21-1.16.62c-.36.52-.54,1.49-.54,2.9Z"/>
    <path class="cls-11" d="M585.65,268.87c0-1.02.11-1.83.31-2.45s.52-1.1.93-1.43.93-.5,1.55-.5c.46,0,.87.09,1.21.28s.63.45.86.8.4.78.53,1.28.19,1.18.19,2.03c0,1.01-.1,1.82-.31,2.44s-.52,1.1-.93,1.44-.93.51-1.56.51c-.83,0-1.48-.3-1.95-.89-.57-.71-.85-1.88-.85-3.49ZM586.73,268.87c0,1.41.17,2.35.5,2.82s.74.7,1.22.7.89-.23,1.22-.7.49-1.41.49-2.81-.16-2.35-.49-2.82-.74-.7-1.23-.7-.87.21-1.16.62c-.36.52-.54,1.49-.54,2.9Z"/>
    <path class="cls-11" d="M419.88,278.24c.06.05.08.07.08.11,0,.02-.02.06-.08.1l-.37.26v8.38c0,.67-.08,1.02-.82,1.31-.05.01-.08.02-.11.02-.05,0-.07-.04-.08-.11-.08-.49-.29-.68-1.62-1.04l.04-.19c.84.17,1.33.25,1.63.25.35,0,.41-.12.41-.31v-8.5h-7.16v3.32c0,3.67-.24,5.37-2.05,6.69l-.11-.11c1.45-1.48,1.57-2.96,1.57-6.55v-2.6c0-.52-.01-1.25-.04-1.63l.76.61h6.78l.38-.59.79.58ZM418.39,282.09c.08.08.12.13.12.17s-.05.05-.17.05h-5.33c-.23,0-.55.05-.73.12l-.3-.43c.26.02.54.05.79.05h2.24v-1.52h-1.45c-.23,0-.55.05-.73.12l-.3-.43c.26.02.54.05.79.05h1.69v-.48c0-.47-.01-.76-.04-1.18l.76.32c.08.04.13.07.13.1,0,.04-.04.06-.32.3v.94h1.2l.38-.55.62.6c.08.08.13.13.13.17s-.06.05-.18.05h-2.16v1.52h1.77l.41-.61.66.66ZM417.36,283.54c.06.05.1.07.1.11s-.04.07-.1.12l-.3.23v1.01c0,.41.01.76.05,1.3v.08c0,.19-.05.23-.26.32-.12.05-.19.07-.24.07-.07,0-.08-.06-.08-.16v-.66h-2.7v.5c0,.18-.01.22-.22.3-.11.05-.18.07-.23.07-.08,0-.11-.07-.11-.26,0-.26.04-1.52.04-1.62v-.71c0-.29-.01-.86-.04-1.24l.66.5h2.42l.3-.44.71.47ZM416.52,285.7v-1.92h-2.7v1.92h2.7Z"/>
    <path class="cls-11" d="M432.53,280.81c.07.06.11.12.11.18,0,.08-.07.16-.23.16h-9.8c-.25,0-.6.05-.8.13l-.34-.44c.3.02.6.05.88.05h8.68l.59-.82.91.74ZM426.28,282.87c.08.05.13.1.13.13,0,.05-.05.08-.14.12-.26.1-.49.25-.61.41-2.17,2.91-2.54,3.39-3.92,4.57l-.12-.14c1.77-1.96,2.71-3.47,3.75-5.64l.91.55ZM426.03,277.72c1.29.62,1.87,1.19,1.94,1.49.01.07.02.13.02.2,0,.41-.3.71-.48.71-.19,0-.26-.11-.31-.43-.05-.3-.35-.98-1.27-1.85l.1-.12ZM428.13,282.51c2.04,1.94,3.06,3.17,3.37,3.87.06.13.08.28.08.42,0,.49-.28.98-.47.98-.07,0-.13-.02-.32-.67-.18-.59-1.07-2.54-2.81-4.47l.14-.13Z"/>
    <path class="cls-11" d="M444.52,287.47c.06.06.08.11.08.13,0,.04-.04.05-.12.05h-9.61c-.25,0-.61.05-.8.12l-.34-.43c.29.04.6.05.88.05h4.2v-2.57h-2.79c-.24,0-.59.05-.77.12l-.32-.43c.28.02.58.05.84.05h3.05v-1.2c0-.47-.01-.76-.04-1.18l1,.43c.06.02.1.05.1.08,0,.02-.04.06-.08.1l-.37.24v1.52h2.52l.53-.64.72.72c.06.06.08.1.08.13s-.04.05-.12.05h-3.73v2.57h3.81l.56-.68.73.77ZM444.12,278.4c.07.06.1.11.1.13,0,.05-.04.06-.13.06h-5.66l.66.46s.06.06.06.08-.04.05-.08.06c-.19.02-.37.11-.49.23-.86.83-1.79,1.67-2.73,2.41l6.38-.18c-.38-.56-1.02-1.27-1.8-1.92l.11-.12c1.52.89,2.7,1.98,2.81,2.43.01.06.02.13.02.19,0,.32-.19.61-.41.61-.14,0-.22-.11-.3-.42-.06-.2-.28-.55-.28-.55-.17,0-4.95.34-4.95.34-.96.07-1.52.19-1.8.36-.05.02-.08.05-.12.05-.05,0-.08-.04-.12-.08l-.47-.67c.44-.08.73-.2,1.12-.55.83-.74,1.55-1.6,2.23-2.72h-2.91c-.25,0-.61.05-.8.12l-.34-.43c.29.02.6.05.88.05h7.65l.56-.7.83.77Z"/>
    <path class="cls-11" d="M455.88,278.24c.06.05.08.07.08.11,0,.02-.02.06-.08.1l-.37.26v8.38c0,.67-.08,1.02-.82,1.31-.05.01-.08.02-.11.02-.05,0-.07-.04-.08-.11-.08-.49-.29-.68-1.62-1.04l.04-.19c.84.17,1.33.25,1.63.25.35,0,.41-.12.41-.31v-8.5h-7.16v3.32c0,3.67-.24,5.37-2.05,6.69l-.11-.11c1.45-1.48,1.57-2.96,1.57-6.55v-2.6c0-.52-.01-1.25-.04-1.63l.76.61h6.78l.38-.59.79.58ZM454.39,282.09c.08.08.12.13.12.17s-.05.05-.17.05h-5.33c-.23,0-.55.05-.73.12l-.3-.43c.26.02.54.05.79.05h2.24v-1.52h-1.45c-.23,0-.55.05-.73.12l-.3-.43c.26.02.54.05.79.05h1.69v-.48c0-.47-.01-.76-.04-1.18l.76.32c.08.04.13.07.13.1,0,.04-.04.06-.32.3v.94h1.2l.38-.55.62.6c.08.08.13.13.13.17s-.06.05-.18.05h-2.16v1.52h1.77l.41-.61.66.66ZM453.36,283.54c.06.05.1.07.1.11s-.04.07-.1.12l-.3.23v1.01c0,.41.01.76.05,1.3v.08c0,.19-.05.23-.26.32-.12.05-.19.07-.24.07-.07,0-.08-.06-.08-.16v-.66h-2.7v.5c0,.18-.01.22-.22.3-.11.05-.18.07-.23.07-.08,0-.11-.07-.11-.26,0-.26.04-1.52.04-1.62v-.71c0-.29-.01-.86-.04-1.24l.66.5h2.42l.3-.44.71.47ZM452.52,285.7v-1.92h-2.7v1.92h2.7Z"/>
    <path class="cls-11" d="M466.96,278.58c.06.05.1.08.1.12,0,.05-.05.1-.16.16l-.4.22v6.06c0,.91.02,1.65.06,2.19v.07c0,.18-.05.22-.34.34-.12.05-.19.07-.24.07-.07,0-.08-.06-.08-.16v-1.12h-5.52v1.09c0,.16-.01.19-.26.3-.11.05-.19.07-.24.07-.08,0-.11-.07-.11-.25v-.13c.02-.71.04-1.79.04-2.47v-6.04c0-.44-.01-.86-.04-1.24l.83.64h5.13l.35-.54.88.62ZM465.9,282.12v-3.36h-5.52v3.36h5.52ZM465.9,286.27v-3.89h-5.52v3.89h5.52Z"/>
    <path class="cls-11" d="M472.11,283.23c-.37,0-.68-.3-.68-.67s.31-.68.68-.68.68.31.68.68-.31.67-.68.67ZM472.11,287.69c-.37,0-.68-.3-.68-.67s.31-.68.68-.68.68.31.68.68-.31.67-.68.67Z"/>
    <path class="cls-11" d="M517.77,285.52l1.01-.09c.09.48.25.82.49,1.04s.55.32.93.32c.32,0,.61-.07.85-.22s.44-.35.6-.59.29-.58.39-1,.16-.85.16-1.29c0-.05,0-.12,0-.21-.21.34-.5.61-.86.82s-.76.31-1.19.31c-.71,0-1.31-.26-1.8-.77s-.74-1.2-.74-2.04.26-1.57.77-2.1,1.16-.8,1.93-.8c.56,0,1.07.15,1.53.45s.81.73,1.05,1.29.36,1.36.36,2.42-.12,1.97-.36,2.62-.59,1.15-1.06,1.49-1.02.51-1.66.51c-.67,0-1.22-.19-1.65-.56s-.68-.9-.77-1.57ZM522.09,281.73c0-.61-.16-1.09-.48-1.44s-.71-.53-1.16-.53-.88.19-1.22.57-.52.88-.52,1.49c0,.55.17.99.5,1.33s.74.51,1.22.51.89-.17,1.21-.51.47-.82.47-1.42Z"/>
    <path class="cls-11" d="M526.78,283.23c-.37,0-.68-.3-.68-.67s.31-.68.68-.68.68.31.68.68-.31.67-.68.67ZM526.78,287.69c-.37,0-.68-.3-.68-.67s.31-.68.68-.68.68.31.68.68-.31.67-.68.67Z"/>
    <path class="cls-11" d="M536.28,283.27c0-1.02.11-1.83.31-2.45s.52-1.1.93-1.43.93-.5,1.55-.5c.46,0,.87.09,1.21.28s.63.45.86.8.4.78.53,1.28.19,1.18.19,2.03c0,1.01-.1,1.82-.31,2.44s-.52,1.1-.93,1.44-.93.51-1.56.51c-.83,0-1.48-.3-1.95-.89-.57-.71-.85-1.88-.85-3.49ZM537.37,283.27c0,1.41.17,2.35.5,2.82s.74.7,1.22.7.89-.23,1.22-.7.49-1.41.49-2.81-.16-2.35-.49-2.82-.74-.7-1.23-.7-.87.21-1.16.62c-.36.52-.54,1.49-.54,2.9Z"/>
    <path class="cls-11" d="M542.96,283.27c0-1.02.11-1.83.31-2.45s.52-1.1.93-1.43.93-.5,1.55-.5c.46,0,.87.09,1.21.28s.63.45.86.8.4.78.53,1.28.19,1.18.19,2.03c0,1.01-.1,1.82-.31,2.44s-.52,1.1-.93,1.44-.93.51-1.56.51c-.83,0-1.48-.3-1.95-.89-.57-.71-.85-1.88-.85-3.49ZM544.04,283.27c0,1.41.17,2.35.5,2.82s.74.7,1.22.7.89-.23,1.22-.7.49-1.41.49-2.81-.16-2.35-.49-2.82-.74-.7-1.23-.7-.87.21-1.16.62c-.36.52-.54,1.49-.54,2.9Z"/>
    <path class="cls-11" d="M549.51,284.93v-1.06h3.24v1.06h-3.24Z"/>
    <path class="cls-11" d="M557.6,287.51h-1.05v-6.72c-.25.24-.59.48-1,.73s-.78.42-1.11.54v-1.02c.59-.28,1.11-.61,1.55-1.01s.75-.78.94-1.15h.68v8.62Z"/>
    <path class="cls-11" d="M560.37,280.04v-1.01h5.56v.82c-.55.58-1.09,1.36-1.62,2.32s-.95,1.96-1.25,2.98c-.21.72-.35,1.51-.4,2.36h-1.08c.01-.68.14-1.49.4-2.45s.62-1.88,1.09-2.77.98-1.64,1.51-2.25h-4.21Z"/>
    <path class="cls-11" d="M569.48,283.23c-.37,0-.68-.3-.68-.67s.31-.68.68-.68.68.31.68.68-.31.67-.68.67ZM569.48,287.69c-.37,0-.68-.3-.68-.67s.31-.68.68-.68.68.31.68.68-.31.67-.68.67Z"/>
    <path class="cls-11" d="M578.97,283.27c0-1.02.11-1.83.31-2.45s.52-1.1.93-1.43.93-.5,1.55-.5c.46,0,.87.09,1.21.28s.63.45.86.8.4.78.53,1.28.19,1.18.19,2.03c0,1.01-.1,1.82-.31,2.44s-.52,1.1-.93,1.44-.93.51-1.56.51c-.83,0-1.48-.3-1.95-.89-.57-.71-.85-1.88-.85-3.49ZM580.06,283.27c0,1.41.17,2.35.5,2.82s.74.7,1.22.7.89-.23,1.22-.7.49-1.41.49-2.81-.16-2.35-.49-2.82-.74-.7-1.23-.7-.87.21-1.16.62c-.36.52-.54,1.49-.54,2.9Z"/>
    <path class="cls-11" d="M585.65,283.27c0-1.02.11-1.83.31-2.45s.52-1.1.93-1.43.93-.5,1.55-.5c.46,0,.87.09,1.21.28s.63.45.86.8.4.78.53,1.28.19,1.18.19,2.03c0,1.01-.1,1.82-.31,2.44s-.52,1.1-.93,1.44-.93.51-1.56.51c-.83,0-1.48-.3-1.95-.89-.57-.71-.85-1.88-.85-3.49ZM586.73,283.27c0,1.41.17,2.35.5,2.82s.74.7,1.22.7.89-.23,1.22-.7.49-1.41.49-2.81-.16-2.35-.49-2.82-.74-.7-1.23-.7-.87.21-1.16.62c-.36.52-.54,1.49-.54,2.9Z"/>
    <path class="cls-11" d="M415.73,292.88c.07.04.1.07.1.1s-.04.05-.13.08c-.37.13-.41.17-.52.38-1,1.91-2.78,4.23-4.31,5.17l-.1-.16c1.89-1.66,3.32-4.02,4.02-6.12l.94.54ZM417.52,298.87c1.46,1.03,2.51,2.31,2.58,2.79.01.08.01.16.01.22,0,.53-.29.72-.52.72-.16,0-.23-.17-.29-.6-.02-.17-.08-.36-.18-.59l-4.27.43c-1.46.14-1.73.22-2,.4-.05.04-.07.05-.1.05-.04,0-.06-.02-.08-.07l-.47-.86c.66-.14.96-.31,1.35-.85,1.1-1.51,2-3.2,2.55-4.58l.91.46c.07.04.11.06.11.1,0,.02-.05.06-.14.1-.32.14-.37.19-.53.43-1.1,1.75-2.23,3.29-3.24,4.39l5.79-.2c-.3-.58-.84-1.33-1.61-2.19l.11-.12ZM422.13,297.72c-.17-.02-.32-.05-.46-.05-.36,0-.58.11-.77.32-.04.04-.06.05-.1.05-.02,0-.06-.01-.08-.04-1.77-1.76-2.51-3.19-3.23-5.97l.9.32c.06.02.08.05.08.07s-.01.05-.06.08l-.34.25c.42,2.09,2.13,4.33,4.04,4.79v.17Z"/>
    <path class="cls-11" d="M433.92,298.56c.12.12.18.19.18.23,0,.05-.08.06-.24.06h-9.82c-.25,0-.61.05-.8.12l-.34-.43c.29.02.6.05.88.05h2.61v-3.55h-1.69c-.25,0-.61.05-.8.12l-.34-.43c.29.02.6.05.88.05h1.96v-1.83c0-.48-.01-.78-.04-1.22l.88.41c.1.05.14.08.14.13,0,.04-.04.08-.12.14l-.3.24v2.13h3.13v-1.88c0-.48-.01-.78-.04-1.22l.89.4c.1.05.16.08.16.12s-.05.08-.13.16l-.31.25v2.18h1.44l.58-.73.73.72c.11.11.16.17.16.22s-.07.06-.23.06h-2.67v3.55h1.98l.56-.76.73.73ZM427.99,300.08s.07.06.07.08c0,.01-.04.02-.1.04-.38.02-.48.05-.65.17-1.9,1.37-3.14,2.11-4.29,2.57l-.07-.14c1.86-1.07,3.44-2.39,4.16-3.38l.88.67ZM430.08,298.59v-3.55h-3.13v3.55h3.13ZM429.6,299.63c1.92.78,2.77,1.26,3.23,1.77.16.18.22.42.22.64,0,.31-.12.59-.26.59-.13,0-.19-.04-.34-.31-.31-.61-1.34-1.64-2.93-2.53l.08-.16Z"/>
    <path class="cls-11" d="M438.22,292.17c.07.05.11.07.11.11s-.04.07-.12.11c-.22.11-.24.13-.38.5-.34.85-.65,1.6-.97,2.28l.4.17c.07.04.11.06.11.1s-.04.07-.32.35v4.7c0,.89.02,1.58.05,1.9v.1c0,.16-.04.2-.29.31-.11.05-.19.07-.25.07-.08,0-.11-.07-.11-.28v-.11c.02-.71.04-1.39.04-2.01v-4.49c-.47.88-.95,1.64-1.56,2.37l-.13-.1c1.46-2.42,2.18-4.55,2.67-6.52l.77.44ZM441.76,292.71c.06.04.08.07.08.11,0,.02-.02.06-.07.1l-.29.23v1.39c0,.56.01.82.04,1.08,0,.05.01.08.01.11,0,.22-.44.34-.53.34-.06,0-.07-.05-.07-.13v-.5h-1.79v1.68h1.24l.32-.52.64.61s.07.08.07.11c0,.04-.04.06-.12.06h-2.15v1.96h1.5l.35-.53.64.62c.06.06.08.1.08.12,0,.04-.04.05-.11.05h-2.46v2.83c0,.14-.05.22-.25.3-.11.05-.18.07-.24.07-.08,0-.1-.07-.1-.25v-.13c.02-.71.04-1.71.04-2.47v-6.21c0-.49-.02-1.1-.05-1.55l.74.56h1.43l.35-.49.7.47ZM440.93,295.16v-2.16h-1.79v2.16h1.79ZM446.2,302.08c-.64,0-.91.07-1.12.26-.02.02-.05.04-.07.04-.12,0-1.2-.8-1.76-1.49-.8.95-2.05,1.62-3.53,2.13l-.04-.17c1.4-.66,2.4-1.26,3.27-2.37-.54-.85-.79-1.81-.95-3-.05.01-.07.02-.11.04l-.34-.44c.3.02.6.05.88.05h1.61l.38-.49.68.54s.07.06.07.08c0,.04-.04.06-.1.1-.29.14-.37.28-.44.53-.32,1.13-.64,1.93-1.08,2.58.6.68,1.46,1.22,2.63,1.49v.13ZM445.24,292.74c.06.05.1.08.1.12s-.04.07-.1.11l-.32.22v1.38c0,.54.01.84.04,1.1v.06c0,.14-.05.19-.28.29-.12.05-.19.07-.24.07-.07,0-.08-.05-.08-.12v-.49h-1.27c-.25,0-.6.05-.8.13l-.34-.44c.3.04.6.05.88.05h1.54v-2.19h-1.09c-.25,0-.6.05-.8.13l-.34-.44c.3.02.6.05.88.05h1.13l.41-.55.71.54ZM442.71,297.39c-.14,0-.31.01-.48.05.2.98.52,1.87,1.03,2.61.37-.61.7-1.5.9-2.66h-1.45Z"/>
    <path class="cls-11" d="M453.36,293.79c.07.08.11.14.11.19s-.05.07-.16.07h-1.44v4.89h.52l.43-.54.5.54c.08.1.13.16.13.19,0,.05-.06.07-.18.07h-5.21c-.25,0-.6.05-.8.13l-.34-.44c.3.02.6.05.88.05h.89v-4.89c-.34,0-.74,0-1.07.13l-.34-.44c.3.02.6.05.88.05h.53v-.37c0-.49-.02-1.26-.05-1.7l.8.43c.08.05.12.07.12.11s0,.04-.34.24v1.3h2.06v-.4c0-.49-.02-1.25-.05-1.69l.86.43c.07.02.1.05.1.08s-.04.06-.34.24v1.33h.55l.44-.55.49.55ZM449.95,300.08c.06.04.08.07.08.1,0,.05-.06.07-.18.08-.12.01-.3.14-.5.4-.67.85-1.45,1.64-2.19,2.22l-.08-.12c.94-1.08,1.43-1.77,2.21-3.17l.67.49ZM451.3,295.37v-1.32h-2.06v1.32h2.06ZM451.3,297.07v-1.44h-2.06v1.44h2.06ZM451.3,298.95v-1.61h-2.06v1.61h2.06ZM450.81,299.69c1.37.74,1.37,1.14,1.37,1.34,0,.3-.16.55-.4.55-.1,0-.18-.1-.19-.29-.02-.38-.31-.94-.89-1.5l.11-.11ZM457.51,292.9c.07.06.12.1.12.14,0,.04-.04.07-.11.12l-.29.19v8.38c0,.66-.12.86-.83,1.19-.04.01-.06.02-.07.02-.04,0-.06-.04-.07-.11-.12-.47-.26-.59-1.3-.91l.02-.17c.7.13,1.1.2,1.35.2.31,0,.34-.12.34-.34v-3.13h-2.29c-.08,1.75-.97,3.36-3.32,4.57l-.1-.13c2.24-1.58,2.87-2.67,2.87-5.8v-3.18c0-.58-.01-1.27-.04-1.68l.7.6h2.06l.3-.49.65.52ZM456.69,295.68v-2.54h-2.29v2.54h2.29ZM456.69,298.24v-2.29h-2.29v2.29h2.29Z"/>
    <path class="cls-11" d="M461.47,297.63c-.37,0-.68-.3-.68-.67s.31-.68.68-.68.68.31.68.68-.31.67-.68.67ZM461.47,302.09c-.37,0-.68-.3-.68-.67s.31-.68.68-.68.68.31.68.68-.31.67-.68.67Z"/>
    <path class="cls-11" d="M522.46,299.92l1.01-.09c.09.48.25.82.49,1.04s.55.32.93.32c.32,0,.61-.07.85-.22s.45-.35.6-.59.29-.58.39-1,.16-.85.16-1.29c0-.05,0-.12,0-.21-.21.34-.5.61-.87.82s-.76.31-1.19.31c-.71,0-1.31-.26-1.8-.77s-.74-1.2-.74-2.04.26-1.57.77-2.1,1.16-.8,1.93-.8c.56,0,1.07.15,1.53.45s.81.73,1.05,1.29.36,1.36.36,2.42-.12,1.97-.36,2.62-.59,1.15-1.06,1.49-1.02.51-1.65.51c-.67,0-1.22-.19-1.65-.56s-.68-.9-.77-1.57ZM526.78,296.13c0-.61-.16-1.09-.48-1.44s-.71-.53-1.16-.53-.88.19-1.22.57-.52.88-.52,1.49c0,.55.16.99.49,1.33s.74.51,1.22.51.89-.17,1.2-.51.47-.82.47-1.42Z"/>
    <path class="cls-11" d="M531.47,297.63c-.37,0-.68-.3-.68-.67s.31-.68.68-.68.68.31.68.68-.31.67-.68.67ZM531.47,302.09c-.37,0-.68-.3-.68-.67s.31-.68.68-.68.68.31.68.68-.31.67-.68.67Z"/>
    <path class="cls-11" d="M540.97,297.67c0-1.02.1-1.83.31-2.45s.52-1.1.93-1.43.93-.5,1.56-.5c.46,0,.87.09,1.21.28s.63.45.86.8.4.78.53,1.28.19,1.18.19,2.03c0,1.01-.1,1.82-.31,2.44s-.52,1.1-.93,1.44-.93.51-1.56.51c-.83,0-1.48-.3-1.95-.89-.57-.71-.85-1.88-.85-3.49ZM542.06,297.67c0,1.41.16,2.35.49,2.82s.74.7,1.22.7.89-.23,1.22-.7.5-1.41.5-2.81-.17-2.35-.5-2.82-.74-.7-1.23-.7-.87.21-1.16.62c-.36.52-.54,1.49-.54,2.9Z"/>
    <path class="cls-11" d="M547.65,297.67c0-1.02.1-1.83.31-2.45s.52-1.1.93-1.43.93-.5,1.56-.5c.46,0,.87.09,1.21.28s.63.45.86.8.4.78.53,1.28.19,1.18.19,2.03c0,1.01-.1,1.82-.31,2.44s-.52,1.1-.93,1.44-.93.51-1.56.51c-.83,0-1.48-.3-1.95-.89-.57-.71-.85-1.88-.85-3.49ZM548.73,297.67c0,1.41.16,2.35.49,2.82s.74.7,1.22.7.89-.23,1.22-.7.5-1.41.5-2.81-.17-2.35-.5-2.82-.74-.7-1.23-.7-.87.21-1.16.62c-.36.52-.54,1.49-.54,2.9Z"/>
    <path class="cls-11" d="M554.21,299.33v-1.06h3.24v1.06h-3.24Z"/>
    <path class="cls-11" d="M562.29,301.91h-1.05v-6.72c-.25.24-.59.48-1,.73s-.78.42-1.11.54v-1.02c.59-.28,1.11-.61,1.55-1.01s.75-.78.94-1.15h.68v8.62Z"/>
    <path class="cls-11" d="M565.06,294.44v-1.01h5.56v.82c-.55.58-1.09,1.36-1.63,2.32s-.95,1.96-1.24,2.98c-.21.72-.35,1.51-.4,2.36h-1.08c.01-.68.14-1.49.4-2.45s.62-1.88,1.09-2.77.98-1.64,1.52-2.25h-4.21Z"/>
    <path class="cls-11" d="M574.17,297.63c-.37,0-.68-.3-.68-.67s.31-.68.68-.68.68.31.68.68-.31.67-.68.67ZM574.17,302.09c-.37,0-.68-.3-.68-.67s.31-.68.68-.68.68.31.68.68-.31.67-.68.67Z"/>
    <path class="cls-11" d="M583.67,297.67c0-1.02.1-1.83.31-2.45s.52-1.1.93-1.43.93-.5,1.56-.5c.46,0,.87.09,1.21.28s.63.45.86.8.4.78.53,1.28.19,1.18.19,2.03c0,1.01-.1,1.82-.31,2.44s-.52,1.1-.93,1.44-.93.51-1.56.51c-.83,0-1.48-.3-1.95-.89-.57-.71-.85-1.88-.85-3.49ZM584.75,297.67c0,1.41.16,2.35.49,2.82s.74.7,1.22.7.89-.23,1.22-.7.5-1.41.5-2.81-.17-2.35-.5-2.82-.74-.7-1.23-.7-.87.21-1.16.62c-.36.52-.54,1.49-.54,2.9Z"/>
    <path class="cls-11" d="M590.34,297.67c0-1.02.1-1.83.31-2.45s.52-1.1.93-1.43.93-.5,1.56-.5c.46,0,.87.09,1.21.28s.63.45.86.8.4.78.53,1.28.19,1.18.19,2.03c0,1.01-.1,1.82-.31,2.44s-.52,1.1-.93,1.44-.93.51-1.56.51c-.83,0-1.48-.3-1.95-.89-.57-.71-.85-1.88-.85-3.49ZM591.42,297.67c0,1.41.16,2.35.49,2.82s.74.7,1.22.7.89-.23,1.22-.7.5-1.41.5-2.81-.17-2.35-.5-2.82-.74-.7-1.23-.7-.87.21-1.16.62c-.36.52-.54,1.49-.54,2.9Z"/>
  </g>
  <g>
    <path class="cls-11" d="M437.32,165.71v-8.59h1.14v7.58h4.23v1.01h-5.37Z"/>
    <path class="cls-11" d="M443.91,158.33v-1.21h1.05v1.21h-1.05ZM443.91,165.71v-6.22h1.05v6.22h-1.05Z"/>
    <path class="cls-11" d="M447.54,165.71h-.98v-8.59h1.05v3.06c.45-.56,1.01-.84,1.71-.84.38,0,.75.08,1.09.23s.62.37.84.65.39.62.52,1.01.19.82.19,1.27c0,1.07-.26,1.89-.79,2.47s-1.16.87-1.9.87-1.31-.31-1.73-.92v.78ZM447.53,162.55c0,.75.1,1.29.3,1.62.33.54.78.81,1.35.81.46,0,.86-.2,1.2-.6s.5-1,.5-1.79-.16-1.41-.48-1.8-.71-.58-1.17-.58-.86.2-1.2.6-.5.98-.5,1.74Z"/>
    <path class="cls-11" d="M453.23,165.71v-6.22h.95v.94c.24-.44.47-.73.67-.87s.43-.21.68-.21c.36,0,.72.11,1.08.34l-.36.98c-.26-.15-.52-.23-.77-.23-.23,0-.44.07-.62.21s-.31.33-.39.58c-.12.38-.18.79-.18,1.23v3.26h-1.05Z"/>
    <path class="cls-11" d="M461.3,164.94c-.39.33-.77.57-1.13.7s-.75.21-1.16.21c-.68,0-1.21-.17-1.58-.5s-.55-.76-.55-1.28c0-.3.07-.58.21-.83s.32-.45.54-.61.48-.27.76-.35c.21-.05.52-.11.94-.16.85-.1,1.48-.22,1.88-.36,0-.14,0-.24,0-.28,0-.43-.1-.73-.3-.91-.27-.24-.67-.36-1.2-.36-.5,0-.86.09-1.1.26s-.41.48-.52.92l-1.03-.14c.09-.44.25-.8.46-1.07s.53-.48.93-.63.88-.22,1.41-.22.96.06,1.29.19.58.28.73.47.27.43.33.72c.04.18.05.5.05.97v1.41c0,.98.02,1.6.07,1.86s.13.51.27.75h-1.1c-.11-.22-.18-.47-.21-.77ZM461.21,162.58c-.38.16-.96.29-1.72.4-.43.06-.74.13-.92.21s-.32.19-.42.34-.15.32-.15.5c0,.28.11.52.32.7s.52.28.93.28.77-.09,1.08-.27.55-.42.7-.73c.11-.24.17-.59.17-1.05v-.39Z"/>
    <path class="cls-11" d="M463.9,165.71v-6.22h.95v.94c.24-.44.47-.73.67-.87s.43-.21.68-.21c.36,0,.72.11,1.08.34l-.36.98c-.26-.15-.52-.23-.77-.23-.23,0-.44.07-.62.21s-.31.33-.39.58c-.12.38-.18.79-.18,1.23v3.26h-1.05Z"/>
    <path class="cls-11" d="M467.86,168.1l-.12-.99c.23.06.43.09.6.09.23,0,.42-.04.56-.12s.26-.19.35-.33c.07-.11.17-.37.32-.79.02-.06.05-.14.09-.26l-2.36-6.23h1.14l1.29,3.6c.17.46.32.94.45,1.44.12-.48.27-.96.43-1.42l1.33-3.63h1.05l-2.37,6.33c-.25.68-.45,1.15-.59,1.41-.19.35-.4.6-.64.76s-.53.24-.87.24c-.2,0-.43-.04-.68-.13Z"/>
    <path class="cls-11" d="M477.03,161.52c0-1.43.38-2.54,1.15-3.35s1.75-1.21,2.96-1.21c.79,0,1.51.19,2.14.57s1.12.91,1.46,1.58.5,1.45.5,2.31-.18,1.65-.53,2.34-.85,1.21-1.49,1.56-1.34.53-2.09.53c-.81,0-1.53-.2-2.17-.59s-1.12-.92-1.45-1.6-.49-1.39-.49-2.14ZM478.21,161.54c0,1.04.28,1.85.83,2.45s1.25.89,2.09.89,1.56-.3,2.11-.9.83-1.46.83-2.56c0-.7-.12-1.31-.35-1.83s-.58-.93-1.04-1.21-.97-.43-1.53-.43c-.8,0-1.5.28-2.08.83s-.87,1.48-.87,2.77Z"/>
    <path class="cls-11" d="M486.58,168.09v-8.61h.96v.81c.23-.32.48-.55.77-.71s.63-.24,1.04-.24c.53,0,1,.14,1.41.41s.71.66.92,1.16.31,1.04.31,1.64c0,.64-.11,1.21-.34,1.72s-.56.9-1,1.17-.89.41-1.38.41c-.35,0-.67-.07-.95-.22s-.51-.34-.69-.56v3.03h-1.05ZM487.53,162.63c0,.8.16,1.39.49,1.78s.72.57,1.18.57.87-.2,1.21-.59.5-1.01.5-1.84-.16-1.39-.49-1.78-.72-.59-1.17-.59-.85.21-1.19.63-.52,1.03-.52,1.83Z"/>
    <path class="cls-11" d="M497.51,163.7l1.09.13c-.17.64-.49,1.13-.96,1.48s-1.06.53-1.78.53c-.91,0-1.63-.28-2.16-.84s-.8-1.35-.8-2.36.27-1.86.81-2.44,1.24-.87,2.1-.87,1.51.28,2.04.85.79,1.36.79,2.39c0,.06,0,.16,0,.28h-4.64c.04.68.23,1.21.58,1.57s.78.54,1.3.54c.39,0,.72-.1.99-.3s.49-.53.65-.97ZM494.05,162h3.47c-.05-.52-.18-.92-.4-1.18-.34-.41-.77-.61-1.31-.61-.48,0-.89.16-1.22.49s-.51.76-.55,1.3Z"/>
    <path class="cls-11" d="M499.91,165.71v-6.22h.95v.94c.24-.44.47-.73.67-.87s.43-.21.68-.21c.36,0,.72.11,1.08.34l-.36.98c-.26-.15-.52-.23-.77-.23-.23,0-.44.07-.62.21s-.31.33-.39.58c-.12.38-.18.79-.18,1.23v3.26h-1.05Z"/>
    <path class="cls-11" d="M507.98,164.94c-.39.33-.77.57-1.13.7s-.75.21-1.16.21c-.68,0-1.21-.17-1.58-.5s-.55-.76-.55-1.28c0-.3.07-.58.21-.83s.32-.45.54-.61.48-.27.76-.35c.21-.05.52-.11.94-.16.85-.1,1.48-.22,1.88-.36,0-.14,0-.24,0-.28,0-.43-.1-.73-.3-.91-.27-.24-.67-.36-1.2-.36-.5,0-.86.09-1.1.26s-.41.48-.53.92l-1.03-.14c.09-.44.25-.8.46-1.07s.53-.48.93-.63.88-.22,1.41-.22.96.06,1.29.19.58.28.73.47.27.43.33.72c.04.18.05.5.05.97v1.41c0,.98.02,1.6.07,1.86s.13.51.27.75h-1.1c-.11-.22-.18-.47-.21-.77ZM507.89,162.58c-.38.16-.96.29-1.72.4-.43.06-.74.13-.92.21s-.32.19-.42.34-.15.32-.15.5c0,.28.11.52.32.7s.52.28.93.28.77-.09,1.08-.27.55-.42.7-.73c.11-.24.17-.59.17-1.05v-.39Z"/>
    <path class="cls-11" d="M512.9,164.76l.15.93c-.3.06-.56.09-.8.09-.38,0-.68-.06-.89-.18s-.36-.28-.45-.48-.13-.61-.13-1.25v-3.58h-.77v-.82h.77v-1.54l1.05-.63v2.17h1.06v.82h-1.06v3.64c0,.3.02.49.06.58s.1.15.18.21.2.08.36.08c.12,0,.27-.01.46-.04Z"/>
    <path class="cls-11" d="M513.94,158.33v-1.21h1.05v1.21h-1.05ZM513.94,165.71v-6.22h1.05v6.22h-1.05Z"/>
    <path class="cls-11" d="M516.2,162.6c0-1.15.32-2.01.96-2.56.54-.46,1.19-.69,1.96-.69.86,0,1.55.28,2.1.84s.81,1.33.81,2.32c0,.8-.12,1.43-.36,1.89s-.59.82-1.05,1.07-.96.38-1.5.38c-.87,0-1.57-.28-2.11-.84s-.81-1.36-.81-2.41ZM517.29,162.6c0,.8.17,1.39.52,1.79s.79.59,1.31.59.96-.2,1.31-.6.52-1.01.52-1.82c0-.77-.17-1.35-.52-1.75s-.79-.59-1.3-.59-.96.2-1.31.59-.52.99-.52,1.79Z"/>
    <path class="cls-11" d="M523.27,165.71v-6.22h.95v.88c.46-.68,1.12-1.03,1.98-1.03.38,0,.72.07,1.04.2s.55.31.71.53.27.48.33.78c.04.2.06.54.06,1.03v3.83h-1.05v-3.79c0-.43-.04-.75-.12-.96s-.23-.38-.44-.51-.46-.19-.74-.19c-.45,0-.84.14-1.16.43s-.49.83-.49,1.62v3.4h-1.05Z"/>
    <path class="cls-11" d="M533.45,165.71v-8.59h1.14v3.53h4.46v-3.53h1.14v8.59h-1.14v-4.05h-4.46v4.05h-1.14Z"/>
    <path class="cls-11" d="M541.55,162.6c0-1.15.32-2.01.96-2.56.54-.46,1.19-.69,1.96-.69.86,0,1.55.28,2.1.84s.81,1.33.81,2.32c0,.8-.12,1.43-.36,1.89s-.59.82-1.05,1.07-.96.38-1.5.38c-.87,0-1.57-.28-2.11-.84s-.81-1.36-.81-2.41ZM542.63,162.6c0,.8.17,1.39.52,1.79s.79.59,1.31.59.96-.2,1.31-.6.52-1.01.52-1.82c0-.77-.17-1.35-.52-1.75s-.79-.59-1.3-.59-.96.2-1.31.59-.52.99-.52,1.79Z"/>
    <path class="cls-11" d="M552.7,165.71v-.91c-.48.7-1.14,1.05-1.97,1.05-.37,0-.71-.07-1.03-.21s-.55-.32-.71-.53-.26-.47-.33-.78c-.04-.21-.06-.54-.06-.98v-3.86h1.05v3.45c0,.55.02.92.06,1.11.07.28.21.5.42.65s.48.24.8.24.61-.08.89-.24.47-.38.59-.66.17-.68.17-1.22v-3.33h1.05v6.22h-.94Z"/>
    <path class="cls-11" d="M555.28,165.71v-6.22h.95v.94c.24-.44.47-.73.67-.87s.43-.21.68-.21c.36,0,.72.11,1.08.34l-.36.98c-.26-.15-.52-.23-.77-.23-.23,0-.44.07-.62.21s-.31.33-.39.58c-.12.38-.18.79-.18,1.23v3.26h-1.05Z"/>
    <path class="cls-11" d="M558.87,163.85l1.04-.16c.06.42.22.74.49.96s.64.33,1.12.33.84-.1,1.08-.3.35-.43.35-.69c0-.24-.1-.43-.31-.56-.14-.09-.5-.21-1.08-.36-.77-.2-1.31-.36-1.61-.51s-.53-.34-.68-.59-.23-.53-.23-.83c0-.28.06-.53.19-.77s.3-.43.52-.59c.16-.12.39-.22.67-.31s.59-.13.91-.13c.49,0,.92.07,1.29.21s.64.33.82.57.3.56.36.96l-1.03.14c-.05-.32-.18-.57-.41-.75s-.54-.27-.95-.27c-.48,0-.83.08-1.04.24s-.31.35-.31.56c0,.14.04.26.13.37.09.11.22.21.4.28.11.04.42.13.93.27.75.2,1.27.36,1.56.49s.53.31.69.55.25.54.25.9-.1.68-.31.99-.5.55-.89.72-.82.25-1.31.25c-.81,0-1.42-.17-1.85-.5s-.7-.83-.81-1.49Z"/>
    <path class="cls-11" d="M399.35,180.11v-8.59h1.71l2.03,6.08c.19.57.32.99.41,1.27.1-.31.25-.77.46-1.38l2.06-5.98h1.53v8.59h-1.1v-7.19l-2.5,7.19h-1.03l-2.48-7.31v7.31h-1.1Z"/>
    <path class="cls-11" d="M408.85,177c0-1.15.32-2.01.96-2.56.54-.46,1.19-.69,1.96-.69.86,0,1.55.28,2.1.84s.81,1.33.81,2.32c0,.8-.12,1.43-.36,1.89s-.59.82-1.05,1.07-.96.38-1.5.38c-.87,0-1.58-.28-2.11-.84s-.81-1.36-.81-2.41ZM409.94,177c0,.8.17,1.39.52,1.79s.79.59,1.31.59.96-.2,1.31-.6.52-1.01.52-1.82c0-.77-.17-1.35-.52-1.75s-.78-.59-1.3-.59-.96.2-1.31.59-.52.99-.52,1.79Z"/>
    <path class="cls-11" d="M415.92,180.11v-6.22h.95v.88c.46-.68,1.12-1.03,1.98-1.03.38,0,.72.07,1.03.2s.55.31.71.53.27.48.33.78c.04.2.06.54.06,1.03v3.83h-1.05v-3.79c0-.43-.04-.75-.12-.96s-.23-.38-.44-.51-.45-.19-.74-.19c-.45,0-.84.14-1.16.43s-.49.83-.49,1.62v3.4h-1.05Z"/>
    <path class="cls-11" d="M426.63,180.11v-.79c-.39.62-.97.93-1.74.93-.5,0-.95-.14-1.37-.41s-.74-.66-.97-1.15-.34-1.05-.34-1.69.1-1.18.31-1.69.52-.89.93-1.16.88-.4,1.39-.4c.38,0,.71.08,1,.24s.53.36.71.62v-3.08h1.05v8.59h-.98ZM423.3,177c0,.8.17,1.39.5,1.79s.73.59,1.19.59.85-.19,1.17-.57.48-.95.48-1.73c0-.85-.16-1.48-.49-1.88s-.73-.6-1.21-.6-.86.19-1.17.57-.47.99-.47,1.81Z"/>
    <path class="cls-11" d="M433.33,179.34c-.39.33-.77.57-1.13.7s-.75.21-1.16.21c-.68,0-1.21-.17-1.58-.5s-.55-.76-.55-1.28c0-.3.07-.58.21-.83s.32-.45.54-.61.48-.27.76-.35c.21-.05.52-.11.94-.16.85-.1,1.48-.22,1.88-.36,0-.14,0-.24,0-.28,0-.43-.1-.73-.3-.91-.27-.24-.67-.36-1.2-.36-.5,0-.86.09-1.1.26s-.41.48-.52.92l-1.03-.14c.09-.44.25-.8.46-1.07s.53-.48.93-.63.88-.22,1.41-.22.96.06,1.29.19.58.28.73.47.27.43.33.72c.04.18.05.5.05.97v1.41c0,.98.02,1.6.07,1.86s.13.51.27.75h-1.1c-.11-.22-.18-.47-.21-.77ZM433.24,176.98c-.38.16-.96.29-1.72.4-.43.06-.74.13-.92.21s-.32.19-.42.34-.15.32-.15.5c0,.28.11.52.32.7s.52.28.93.28.77-.09,1.08-.27.55-.42.7-.73c.11-.24.17-.59.17-1.05v-.39Z"/>
    <path class="cls-11" d="M435.9,182.5l-.12-.99c.23.06.43.09.6.09.23,0,.42-.04.56-.12s.26-.19.35-.33c.07-.11.17-.37.32-.79.02-.06.05-.14.09-.26l-2.36-6.23h1.14l1.29,3.6c.17.46.32.94.45,1.44.12-.48.27-.96.43-1.42l1.33-3.63h1.05l-2.37,6.33c-.25.68-.45,1.15-.59,1.41-.19.35-.4.6-.64.76s-.53.24-.87.24c-.2,0-.43-.04-.68-.13Z"/>
    <path class="cls-11" d="M444.87,177.53v-1.06h3.24v1.06h-3.24Z"/>
    <path class="cls-11" d="M452.8,180.11v-8.59h5.79v1.01h-4.66v2.66h4.03v1.01h-4.03v3.9h-1.14Z"/>
    <path class="cls-11" d="M459.92,180.11v-6.22h.95v.94c.24-.44.47-.73.67-.87s.43-.21.68-.21c.36,0,.72.11,1.08.34l-.36.98c-.26-.15-.52-.23-.77-.23-.23,0-.44.07-.62.21s-.31.33-.39.58c-.12.38-.18.79-.18,1.23v3.26h-1.05Z"/>
    <path class="cls-11" d="M463.94,172.73v-1.21h1.05v1.21h-1.05ZM463.94,180.11v-6.22h1.05v6.22h-1.05Z"/>
    <path class="cls-11" d="M470.64,180.11v-.79c-.39.62-.97.93-1.74.93-.5,0-.95-.14-1.37-.41s-.74-.66-.97-1.15-.34-1.05-.34-1.69.1-1.18.31-1.69.52-.89.93-1.16.88-.4,1.39-.4c.38,0,.71.08,1,.24s.53.36.71.62v-3.08h1.05v8.59h-.98ZM467.3,177c0,.8.17,1.39.5,1.79s.73.59,1.19.59.85-.19,1.17-.57.48-.95.48-1.73c0-.85-.16-1.48-.49-1.88s-.73-.6-1.21-.6-.86.19-1.17.57-.47.99-.47,1.81Z"/>
    <path class="cls-11" d="M477.33,179.34c-.39.33-.77.57-1.13.7s-.75.21-1.16.21c-.68,0-1.21-.17-1.58-.5s-.55-.76-.55-1.28c0-.3.07-.58.21-.83s.32-.45.54-.61.48-.27.76-.35c.21-.05.52-.11.94-.16.85-.1,1.48-.22,1.88-.36,0-.14,0-.24,0-.28,0-.43-.1-.73-.3-.91-.27-.24-.67-.36-1.2-.36-.5,0-.86.09-1.1.26s-.41.48-.52.92l-1.03-.14c.09-.44.25-.8.46-1.07s.53-.48.93-.63.88-.22,1.41-.22.96.06,1.29.19.58.28.73.47.27.43.33.72c.04.18.05.5.05.97v1.41c0,.98.02,1.6.07,1.86s.13.51.27.75h-1.1c-.11-.22-.18-.47-.21-.77ZM477.24,176.98c-.38.16-.96.29-1.72.4-.43.06-.74.13-.92.21s-.32.19-.42.34-.15.32-.15.5c0,.28.11.52.32.7s.52.28.93.28.77-.09,1.08-.27.55-.42.7-.73c.11-.24.17-.59.17-1.05v-.39Z"/>
    <path class="cls-11" d="M479.9,182.5l-.12-.99c.23.06.43.09.6.09.23,0,.42-.04.56-.12s.26-.19.35-.33c.07-.11.17-.37.32-.79.02-.06.05-.14.09-.26l-2.36-6.23h1.14l1.29,3.6c.17.46.32.94.45,1.44.12-.48.27-.96.43-1.42l1.33-3.63h1.05l-2.37,6.33c-.25.68-.45,1.15-.59,1.41-.19.35-.4.6-.64.76s-.53.24-.87.24c-.2,0-.43-.04-.68-.13Z"/>
    <path class="cls-11" d="M486.24,175.09v-1.2h1.2v1.2h-1.2ZM486.24,180.11v-1.2h1.2v1.2h-1.2Z"/>
    <path class="cls-11" d="M543.12,178.12l1.01-.09c.09.48.25.82.49,1.04s.55.32.93.32c.32,0,.61-.07.85-.22s.44-.35.6-.59.29-.58.39-1,.16-.85.16-1.29c0-.05,0-.12,0-.21-.21.34-.5.61-.86.82s-.76.31-1.19.31c-.71,0-1.31-.26-1.8-.77s-.74-1.2-.74-2.04.26-1.57.77-2.1,1.16-.8,1.93-.8c.56,0,1.07.15,1.53.45s.81.73,1.05,1.29.36,1.36.36,2.42-.12,1.97-.36,2.62-.59,1.15-1.06,1.49-1.02.51-1.66.51c-.67,0-1.22-.19-1.65-.56s-.68-.9-.77-1.57ZM547.43,174.33c0-.61-.16-1.09-.48-1.44s-.71-.53-1.16-.53-.88.19-1.22.57-.52.88-.52,1.49c0,.55.17.99.5,1.33s.74.51,1.22.51.89-.17,1.21-.51.47-.82.47-1.42Z"/>
    <path class="cls-11" d="M549.12,180.11l3.3-8.59h1.22l3.52,8.59h-1.29l-1-2.6h-3.59l-.94,2.6h-1.21ZM551.59,176.58h2.91l-.9-2.38c-.27-.72-.48-1.32-.61-1.78-.11.55-.26,1.1-.46,1.64l-.94,2.52Z"/>
    <path class="cls-11" d="M558.03,180.11v-8.59h1.71l2.03,6.08c.19.57.32.99.41,1.27.1-.31.25-.77.46-1.38l2.06-5.98h1.53v8.59h-1.1v-7.19l-2.5,7.19h-1.03l-2.48-7.31v7.31h-1.1Z"/>
    <path class="cls-11" d="M567.51,177.53v-1.06h3.24v1.06h-3.24Z"/>
    <path class="cls-11" d="M575.6,180.11h-1.05v-6.72c-.25.24-.59.48-1,.73s-.78.42-1.11.54v-1.02c.59-.28,1.11-.61,1.55-1.01s.75-.78.94-1.15h.68v8.62Z"/>
    <path class="cls-11" d="M578.3,175.87c0-1.02.11-1.83.31-2.45s.52-1.1.93-1.43.93-.5,1.55-.5c.46,0,.87.09,1.21.28s.63.45.86.8.4.78.53,1.28.19,1.18.19,2.03c0,1.01-.1,1.82-.31,2.44s-.52,1.1-.93,1.44-.93.51-1.56.51c-.83,0-1.48-.3-1.95-.89-.57-.71-.85-1.88-.85-3.49ZM579.38,175.87c0,1.41.17,2.35.5,2.82s.74.7,1.22.7.89-.23,1.22-.7.49-1.41.49-2.81-.16-2.35-.49-2.82-.74-.7-1.23-.7-.87.21-1.16.62c-.36.52-.54,1.49-.54,2.9Z"/>
    <path class="cls-11" d="M585.4,180.11v-8.59h3.24c.57,0,1.01.03,1.31.08.42.07.78.2,1.06.4s.52.47.69.83.26.75.26,1.17c0,.73-.23,1.35-.7,1.85s-1.3.76-2.52.76h-2.2v3.49h-1.14ZM586.54,175.6h2.22c.73,0,1.26-.14,1.56-.41s.46-.66.46-1.15c0-.36-.09-.67-.27-.92s-.42-.42-.72-.51c-.19-.05-.54-.08-1.06-.08h-2.2v3.07Z"/>
    <path class="cls-11" d="M593.37,180.11v-8.59h1.71l2.03,6.08c.19.57.32.99.41,1.27.1-.31.25-.77.46-1.38l2.06-5.98h1.53v8.59h-1.1v-7.19l-2.5,7.19h-1.03l-2.48-7.31v7.31h-1.1Z"/>
    <path class="cls-11" d="M400.67,191.75l1.07-.09c.05.43.17.78.35,1.06s.47.5.86.67.83.25,1.32.25c.43,0,.82-.06,1.15-.19s.58-.31.74-.53.24-.47.24-.74-.08-.5-.23-.71-.41-.37-.77-.51c-.23-.09-.74-.23-1.53-.42s-1.34-.37-1.66-.54c-.41-.21-.72-.48-.92-.8s-.3-.67-.3-1.07c0-.43.12-.84.37-1.22s.61-.66,1.08-.86,1-.29,1.58-.29c.64,0,1.2.1,1.68.31s.86.51,1.12.91.4.85.42,1.35l-1.09.08c-.06-.54-.26-.95-.59-1.23s-.84-.42-1.5-.42-1.19.13-1.5.38-.47.56-.47.91c0,.31.11.56.33.76.22.2.79.4,1.71.61s1.56.39,1.9.55c.5.23.87.52,1.11.88s.36.76.36,1.22-.13.89-.39,1.29-.64.72-1.13.94-1.04.34-1.66.34c-.78,0-1.43-.11-1.95-.34s-.94-.57-1.24-1.02-.46-.97-.47-1.54Z"/>
    <path class="cls-11" d="M412.98,193.74c-.39.33-.77.57-1.13.7s-.75.21-1.16.21c-.68,0-1.21-.17-1.58-.5s-.55-.76-.55-1.28c0-.3.07-.58.21-.83s.32-.45.54-.61.48-.27.76-.35c.21-.05.52-.11.94-.16.85-.1,1.48-.22,1.88-.36,0-.14,0-.24,0-.28,0-.43-.1-.73-.3-.91-.27-.24-.67-.36-1.2-.36-.5,0-.86.09-1.1.26s-.41.48-.52.92l-1.03-.14c.09-.44.25-.8.46-1.07s.53-.48.93-.63.88-.22,1.41-.22.96.06,1.29.19.58.28.73.47.27.43.33.72c.04.18.05.5.05.97v1.41c0,.98.02,1.6.07,1.86s.13.51.27.75h-1.1c-.11-.22-.18-.47-.21-.77ZM412.9,191.38c-.38.16-.96.29-1.72.4-.43.06-.74.13-.92.21s-.32.19-.42.34-.15.32-.15.5c0,.28.11.52.32.7s.52.28.93.28.77-.09,1.08-.27.55-.42.7-.73c.11-.24.17-.59.17-1.05v-.39Z"/>
    <path class="cls-11" d="M417.9,193.56l.15.93c-.3.06-.56.09-.8.09-.38,0-.68-.06-.89-.18s-.36-.28-.45-.48-.13-.61-.13-1.25v-3.58h-.77v-.82h.77v-1.54l1.05-.63v2.17h1.06v.82h-1.06v3.64c0,.3.02.49.06.58s.1.15.18.21.2.08.36.08c.12,0,.27-.01.46-.04Z"/>
    <path class="cls-11" d="M423.01,194.51v-.91c-.48.7-1.14,1.05-1.97,1.05-.37,0-.71-.07-1.03-.21s-.55-.32-.71-.53-.26-.47-.33-.78c-.04-.21-.06-.54-.06-.98v-3.86h1.05v3.45c0,.55.02.92.06,1.11.07.28.21.5.42.65s.48.24.8.24.61-.08.89-.24.47-.38.59-.66.17-.68.17-1.22v-3.33h1.05v6.22h-.94Z"/>
    <path class="cls-11" d="M425.59,194.51v-6.22h.95v.94c.24-.44.47-.73.67-.87s.43-.21.68-.21c.36,0,.72.11,1.08.34l-.36.98c-.26-.15-.52-.23-.77-.23-.23,0-.44.07-.62.21s-.31.33-.39.58c-.12.38-.18.79-.18,1.23v3.26h-1.05Z"/>
    <path class="cls-11" d="M433.64,194.51v-.79c-.39.62-.97.93-1.74.93-.5,0-.95-.14-1.37-.41s-.74-.66-.97-1.15-.34-1.05-.34-1.69.1-1.18.31-1.69.52-.89.93-1.16.88-.4,1.39-.4c.38,0,.71.08,1,.24s.53.36.71.62v-3.08h1.05v8.59h-.98ZM430.31,191.4c0,.8.17,1.39.5,1.79s.73.59,1.19.59.85-.19,1.17-.57.48-.95.48-1.73c0-.85-.16-1.48-.49-1.88s-.73-.6-1.21-.6-.86.19-1.17.57-.47.99-.47,1.81Z"/>
    <path class="cls-11" d="M440.34,193.74c-.39.33-.77.57-1.13.7s-.75.21-1.16.21c-.68,0-1.21-.17-1.58-.5s-.55-.76-.55-1.28c0-.3.07-.58.21-.83s.32-.45.54-.61.48-.27.76-.35c.21-.05.52-.11.94-.16.85-.1,1.48-.22,1.88-.36,0-.14,0-.24,0-.28,0-.43-.1-.73-.3-.91-.27-.24-.67-.36-1.2-.36-.5,0-.86.09-1.1.26s-.41.48-.52.92l-1.03-.14c.09-.44.25-.8.46-1.07s.53-.48.93-.63.88-.22,1.41-.22.96.06,1.29.19.58.28.73.47.27.43.33.72c.04.18.05.5.05.97v1.41c0,.98.02,1.6.07,1.86s.13.51.27.75h-1.1c-.11-.22-.18-.47-.21-.77ZM440.25,191.38c-.38.16-.96.29-1.72.4-.43.06-.74.13-.92.21s-.32.19-.42.34-.15.32-.15.5c0,.28.11.52.32.7s.52.28.93.28.77-.09,1.08-.27.55-.42.7-.73c.11-.24.17-.59.17-1.05v-.39Z"/>
    <path class="cls-11" d="M442.9,196.9l-.12-.99c.23.06.43.09.6.09.23,0,.42-.04.56-.12s.26-.19.35-.33c.07-.11.17-.37.32-.79.02-.06.05-.14.09-.26l-2.36-6.23h1.14l1.29,3.6c.17.46.32.94.45,1.44.12-.48.27-.96.43-1.42l1.33-3.63h1.05l-2.37,6.33c-.25.68-.45,1.15-.59,1.41-.19.35-.4.6-.64.76s-.53.24-.87.24c-.2,0-.43-.04-.68-.13Z"/>
    <path class="cls-11" d="M451.87,191.93v-1.06h3.24v1.06h-3.24Z"/>
    <path class="cls-11" d="M459.36,191.75l1.07-.09c.05.43.17.78.35,1.06s.47.5.86.67.83.25,1.32.25c.43,0,.82-.06,1.15-.19s.58-.31.74-.53.24-.47.24-.74-.08-.5-.23-.71-.41-.37-.77-.51c-.23-.09-.74-.23-1.53-.42s-1.34-.37-1.66-.54c-.41-.21-.72-.48-.92-.8s-.3-.67-.3-1.07c0-.43.12-.84.37-1.22s.61-.66,1.08-.86,1-.29,1.58-.29c.64,0,1.2.1,1.68.31s.86.51,1.12.91.4.85.42,1.35l-1.09.08c-.06-.54-.26-.95-.59-1.23s-.84-.42-1.5-.42-1.19.13-1.5.38-.47.56-.47.91c0,.31.11.56.33.76.22.2.79.4,1.71.61s1.56.39,1.9.55c.5.23.87.52,1.11.88s.36.76.36,1.22-.13.89-.39,1.29-.64.72-1.13.94-1.04.34-1.66.34c-.78,0-1.43-.11-1.95-.34s-.94-.57-1.24-1.02-.46-.97-.47-1.54Z"/>
    <path class="cls-11" d="M471.7,194.51v-.91c-.48.7-1.14,1.05-1.97,1.05-.37,0-.71-.07-1.03-.21s-.55-.32-.71-.53-.26-.47-.33-.78c-.04-.21-.06-.54-.06-.98v-3.86h1.05v3.45c0,.55.02.92.06,1.11.07.28.21.5.42.65s.48.24.8.24.61-.08.89-.24.47-.38.59-.66.17-.68.17-1.22v-3.33h1.05v6.22h-.94Z"/>
    <path class="cls-11" d="M474.29,194.51v-6.22h.95v.88c.46-.68,1.12-1.03,1.98-1.03.38,0,.72.07,1.03.2s.55.31.71.53.27.48.33.78c.04.2.06.54.06,1.03v3.83h-1.05v-3.79c0-.43-.04-.75-.12-.96s-.23-.38-.44-.51-.45-.19-.74-.19c-.45,0-.84.14-1.16.43s-.49.83-.49,1.62v3.4h-1.05Z"/>
    <path class="cls-11" d="M485,194.51v-.79c-.39.62-.97.93-1.74.93-.5,0-.95-.14-1.37-.41s-.74-.66-.97-1.15-.34-1.05-.34-1.69.1-1.18.31-1.69.52-.89.93-1.16.88-.4,1.39-.4c.38,0,.71.08,1,.24s.53.36.71.62v-3.08h1.05v8.59h-.98ZM481.67,191.4c0,.8.17,1.39.5,1.79s.73.59,1.19.59.85-.19,1.17-.57.48-.95.48-1.73c0-.85-.16-1.48-.49-1.88s-.73-.6-1.21-.6-.86.19-1.17.57-.47.99-.47,1.81Z"/>
    <path class="cls-11" d="M491.7,193.74c-.39.33-.77.57-1.13.7s-.75.21-1.16.21c-.68,0-1.21-.17-1.58-.5s-.55-.76-.55-1.28c0-.3.07-.58.21-.83s.32-.45.54-.61.48-.27.76-.35c.21-.05.52-.11.94-.16.85-.1,1.48-.22,1.88-.36,0-.14,0-.24,0-.28,0-.43-.1-.73-.3-.91-.27-.24-.67-.36-1.2-.36-.5,0-.86.09-1.1.26-.24.17-.41.48-.52.92l-1.03-.14c.09-.44.25-.8.46-1.07s.53-.48.93-.63c.41-.15.88-.22,1.41-.22s.96.06,1.29.19.58.28.73.47.27.43.33.72c.04.18.05.5.05.97v1.41c0,.98.02,1.6.07,1.86s.13.51.27.75h-1.1c-.11-.22-.18-.47-.21-.77ZM491.61,191.38c-.38.16-.96.29-1.72.4-.43.06-.74.13-.92.21-.18.08-.32.19-.42.34s-.15.32-.15.5c0,.28.11.52.32.7s.52.28.93.28.77-.09,1.08-.27.55-.42.7-.73c.11-.24.17-.59.17-1.05v-.39Z"/>
    <path class="cls-11" d="M494.27,196.9l-.12-.99c.23.06.43.09.6.09.23,0,.42-.04.56-.12s.26-.19.35-.33c.07-.11.17-.37.32-.79.02-.06.05-.14.09-.26l-2.36-6.23h1.14l1.29,3.6c.17.46.32.94.45,1.44.12-.48.27-.96.43-1.42l1.33-3.63h1.05l-2.37,6.33c-.25.68-.45,1.15-.59,1.41-.19.35-.4.6-.64.76s-.53.24-.87.24c-.2,0-.43-.04-.68-.13Z"/>
    <path class="cls-11" d="M500.61,189.49v-1.2h1.2v1.2h-1.2ZM500.61,194.51v-1.2h1.2v1.2h-1.2Z"/>
    <path class="cls-11" d="M544.79,192.52l1.01-.09c.09.48.25.82.49,1.04s.55.32.93.32c.32,0,.61-.07.85-.22s.44-.35.6-.59.29-.58.39-1,.16-.85.16-1.29c0-.05,0-.12,0-.21-.21.34-.5.61-.86.82s-.76.31-1.19.31c-.71,0-1.31-.26-1.8-.77s-.74-1.2-.74-2.04.26-1.57.77-2.1,1.16-.8,1.93-.8c.56,0,1.07.15,1.53.45s.81.73,1.05,1.29.36,1.36.36,2.42-.12,1.97-.36,2.62-.59,1.15-1.06,1.49-1.02.51-1.66.51c-.67,0-1.22-.19-1.65-.56s-.68-.9-.77-1.57ZM549.1,188.73c0-.61-.16-1.09-.48-1.44s-.71-.53-1.16-.53-.88.19-1.22.57-.52.88-.52,1.49c0,.55.17.99.5,1.33s.74.51,1.22.51.89-.17,1.21-.51.47-.82.47-1.42Z"/>
    <path class="cls-11" d="M550.79,194.51l3.3-8.59h1.22l3.52,8.59h-1.29l-1-2.6h-3.59l-.94,2.6h-1.21ZM553.26,190.98h2.91l-.9-2.38c-.27-.72-.48-1.32-.61-1.78-.11.55-.26,1.1-.46,1.64l-.94,2.52Z"/>
    <path class="cls-11" d="M559.7,194.51v-8.59h1.71l2.03,6.08c.19.57.32.99.41,1.27.1-.31.25-.77.46-1.38l2.06-5.98h1.53v8.59h-1.1v-7.19l-2.5,7.19h-1.03l-2.48-7.31v7.31h-1.1Z"/>
    <path class="cls-11" d="M569.18,191.93v-1.06h3.24v1.06h-3.24Z"/>
    <path class="cls-11" d="M573.3,192.26l1.11-.09c.08.54.27.94.57,1.22s.66.41,1.08.41c.51,0,.94-.19,1.29-.57s.53-.89.53-1.52-.17-1.08-.51-1.42-.78-.52-1.33-.52c-.34,0-.65.08-.92.23s-.49.35-.64.6l-.99-.13.83-4.41h4.27v1.01h-3.43l-.46,2.31c.52-.36,1.06-.54,1.62-.54.75,0,1.38.26,1.9.78s.77,1.19.77,2-.23,1.45-.68,2.02c-.55.7-1.3,1.04-2.26,1.04-.78,0-1.42-.22-1.91-.66s-.78-1.02-.85-1.74Z"/>
    <path class="cls-11" d="M580.4,194.51v-8.59h3.24c.57,0,1.01.03,1.31.08.42.07.78.2,1.06.4s.52.47.69.83.26.75.26,1.17c0,.73-.23,1.35-.7,1.85s-1.3.76-2.52.76h-2.2v3.49h-1.14ZM581.54,190h2.22c.73,0,1.26-.14,1.56-.41s.46-.66.46-1.15c0-.36-.09-.67-.27-.92s-.42-.42-.72-.51c-.19-.05-.54-.08-1.06-.08h-2.2v3.07Z"/>
    <path class="cls-11" d="M588.37,194.51v-8.59h1.71l2.03,6.08c.19.57.32.99.41,1.27.1-.31.25-.77.46-1.38l2.06-5.98h1.53v8.59h-1.1v-7.19l-2.5,7.19h-1.03l-2.48-7.31v7.31h-1.1Z"/>
    <path class="cls-11" d="M402.72,208.91v-8.59h3.24c.57,0,1.01.03,1.31.08.42.07.78.2,1.06.4s.51.47.69.83.26.75.26,1.17c0,.73-.23,1.35-.7,1.85s-1.3.76-2.52.76h-2.2v3.49h-1.14ZM403.86,204.4h2.22c.73,0,1.26-.14,1.56-.41s.46-.66.46-1.15c0-.36-.09-.67-.27-.92s-.42-.42-.72-.51c-.19-.05-.54-.08-1.06-.08h-2.2v3.07Z"/>
    <path class="cls-11" d="M414.67,208.91v-.91c-.48.7-1.14,1.05-1.97,1.05-.37,0-.71-.07-1.03-.21s-.55-.32-.71-.53-.26-.47-.33-.78c-.04-.21-.06-.54-.06-.98v-3.86h1.05v3.45c0,.55.02.92.06,1.11.07.28.21.5.42.65s.48.24.8.24.61-.08.89-.24.47-.38.59-.66.17-.68.17-1.22v-3.33h1.05v6.22h-.94Z"/>
    <path class="cls-11" d="M418.24,208.91h-.98v-8.59h1.05v3.06c.45-.56,1.01-.84,1.71-.84.38,0,.75.08,1.09.23s.62.37.84.65.39.62.52,1.01.19.82.19,1.27c0,1.07-.26,1.89-.79,2.47s-1.16.87-1.9.87-1.31-.31-1.73-.92v.78ZM418.23,205.75c0,.75.1,1.29.3,1.62.33.54.78.81,1.35.81.46,0,.86-.2,1.2-.6s.5-1,.5-1.79-.16-1.41-.48-1.8-.71-.58-1.17-.58-.86.2-1.2.6-.5.98-.5,1.74Z"/>
    <path class="cls-11" d="M423.92,208.91v-8.59h1.05v8.59h-1.05Z"/>
    <path class="cls-11" d="M426.61,201.53v-1.21h1.05v1.21h-1.05ZM426.61,208.91v-6.22h1.05v6.22h-1.05Z"/>
    <path class="cls-11" d="M433.33,206.63l1.04.13c-.11.71-.4,1.27-.87,1.68s-1.04.61-1.72.61c-.85,0-1.54-.28-2.05-.83s-.78-1.35-.78-2.39c0-.67.11-1.26.33-1.76s.56-.88,1.02-1.13.95-.38,1.49-.38c.68,0,1.23.17,1.66.51s.71.83.83,1.46l-1.03.16c-.1-.42-.27-.73-.52-.94s-.55-.32-.9-.32c-.53,0-.96.19-1.29.57s-.5.98-.5,1.81.16,1.44.48,1.82.74.57,1.25.57c.41,0,.76-.13,1.04-.38s.45-.64.53-1.17Z"/>
    <path class="cls-11" d="M438.6,208.91v-8.59h1.05v3.08c.49-.57,1.11-.86,1.86-.86.46,0,.86.09,1.2.27s.58.43.73.75.22.79.22,1.39v3.94h-1.05v-3.94c0-.53-.11-.91-.34-1.15s-.55-.36-.97-.36c-.31,0-.61.08-.88.24s-.47.38-.59.66-.18.66-.18,1.15v3.4h-1.05Z"/>
    <path class="cls-11" d="M444.89,205.8c0-1.15.32-2.01.96-2.56.54-.46,1.19-.69,1.96-.69.86,0,1.55.28,2.1.84s.81,1.33.81,2.32c0,.8-.12,1.43-.36,1.89s-.59.82-1.05,1.07-.96.38-1.5.38c-.87,0-1.58-.28-2.11-.84s-.81-1.36-.81-2.41ZM445.97,205.8c0,.8.17,1.39.52,1.79s.79.59,1.31.59.96-.2,1.31-.6.52-1.01.52-1.82c0-.77-.17-1.35-.52-1.75s-.78-.59-1.3-.59-.96.2-1.31.59-.52.99-.52,1.79Z"/>
    <path class="cls-11" d="M451.93,208.91v-8.59h1.05v8.59h-1.05Z"/>
    <path class="cls-11" d="M454.62,201.53v-1.21h1.05v1.21h-1.05ZM454.62,208.91v-6.22h1.05v6.22h-1.05Z"/>
    <path class="cls-11" d="M461.32,208.91v-.79c-.39.62-.97.93-1.74.93-.5,0-.95-.14-1.37-.41s-.74-.66-.97-1.15-.34-1.05-.34-1.69.1-1.18.31-1.69.52-.89.93-1.16.88-.4,1.39-.4c.38,0,.71.08,1,.24s.53.36.71.62v-3.08h1.05v8.59h-.98ZM457.99,205.8c0,.8.17,1.39.5,1.79s.73.59,1.19.59.85-.19,1.17-.57.48-.95.48-1.73c0-.85-.16-1.48-.49-1.88s-.73-.6-1.21-.6-.86.19-1.17.57-.47.99-.47,1.81Z"/>
    <path class="cls-11" d="M468.02,208.14c-.39.33-.77.57-1.13.7s-.75.21-1.16.21c-.68,0-1.21-.17-1.58-.5s-.55-.76-.55-1.28c0-.3.07-.58.21-.83s.32-.45.54-.61.48-.27.76-.35c.21-.05.52-.11.94-.16.85-.1,1.48-.22,1.88-.36,0-.14,0-.24,0-.28,0-.43-.1-.73-.3-.91-.27-.24-.67-.36-1.2-.36-.5,0-.86.09-1.1.26s-.41.48-.52.92l-1.03-.14c.09-.44.25-.8.46-1.07s.53-.48.93-.63.88-.22,1.41-.22.96.06,1.29.19.58.28.73.47.27.43.33.72c.04.18.05.5.05.97v1.41c0,.98.02,1.6.07,1.86s.13.51.27.75h-1.1c-.11-.22-.18-.47-.21-.77ZM467.93,205.78c-.38.16-.96.29-1.72.4-.43.06-.74.13-.92.21s-.32.19-.42.34-.15.32-.15.5c0,.28.11.52.32.7s.52.28.93.28.77-.09,1.08-.27.55-.42.7-.73c.11-.24.17-.59.17-1.05v-.39Z"/>
    <path class="cls-11" d="M470.59,211.3l-.12-.99c.23.06.43.09.6.09.23,0,.42-.04.56-.12s.26-.19.35-.33c.07-.11.17-.37.32-.79.02-.06.05-.14.09-.26l-2.36-6.23h1.14l1.29,3.6c.17.46.32.94.45,1.44.12-.48.27-.96.43-1.42l1.33-3.63h1.05l-2.37,6.33c-.25.68-.45,1.15-.59,1.41-.19.35-.4.6-.64.76s-.53.24-.87.24c-.2,0-.43-.04-.68-.13Z"/>
    <path class="cls-11" d="M476.21,207.05l1.04-.16c.06.42.22.74.49.96s.64.33,1.12.33.84-.1,1.08-.3.35-.43.35-.69c0-.24-.1-.43-.31-.56-.14-.09-.5-.21-1.08-.36-.77-.2-1.31-.36-1.61-.51s-.53-.34-.68-.59-.23-.53-.23-.83c0-.28.06-.53.19-.77s.3-.43.52-.59c.16-.12.39-.22.67-.31s.59-.13.91-.13c.49,0,.92.07,1.29.21s.64.33.82.57.3.56.36.96l-1.03.14c-.05-.32-.18-.57-.41-.75s-.54-.27-.95-.27c-.48,0-.83.08-1.04.24s-.31.35-.31.56c0,.14.04.26.13.37.09.11.22.21.4.28.11.04.42.13.93.27.75.2,1.27.36,1.56.49s.53.31.69.55.25.54.25.9-.1.68-.31.99-.5.55-.89.72-.82.25-1.31.25c-.81,0-1.42-.17-1.85-.5s-.69-.83-.81-1.49Z"/>
    <path class="cls-11" d="M482.93,203.89v-1.2h1.2v1.2h-1.2ZM482.93,208.91v-1.2h1.2v1.2h-1.2Z"/>
    <path class="cls-11" d="M546.45,206.92l1.01-.09c.09.48.25.82.49,1.04s.55.32.93.32c.32,0,.61-.07.85-.22s.45-.35.6-.59.29-.58.39-1,.16-.85.16-1.29c0-.05,0-.12,0-.21-.21.34-.5.61-.87.82s-.76.31-1.19.31c-.71,0-1.31-.26-1.8-.77s-.74-1.2-.74-2.04.26-1.57.77-2.1,1.16-.8,1.93-.8c.56,0,1.07.15,1.53.45s.81.73,1.05,1.29.36,1.36.36,2.42-.12,1.97-.36,2.62-.59,1.15-1.06,1.49-1.02.51-1.65.51c-.67,0-1.22-.19-1.65-.56s-.68-.9-.77-1.57ZM550.77,203.13c0-.61-.16-1.09-.48-1.44s-.71-.53-1.16-.53-.88.19-1.22.57-.52.88-.52,1.49c0,.55.16.99.49,1.33s.74.51,1.22.51.89-.17,1.2-.51.47-.82.47-1.42Z"/>
    <path class="cls-11" d="M552.45,208.91l3.3-8.59h1.22l3.52,8.59h-1.29l-1-2.6h-3.59l-.94,2.6h-1.21ZM554.93,205.38h2.91l-.9-2.38c-.27-.72-.48-1.32-.61-1.78-.11.55-.26,1.1-.46,1.64l-.94,2.52Z"/>
    <path class="cls-11" d="M561.37,208.91v-8.59h1.71l2.03,6.08c.19.57.32.99.41,1.27.1-.31.25-.77.46-1.38l2.06-5.98h1.53v8.59h-1.1v-7.19l-2.5,7.19h-1.03l-2.48-7.31v7.31h-1.1Z"/>
    <path class="cls-11" d="M570.85,206.33v-1.06h3.24v1.06h-3.24Z"/>
    <path class="cls-11" d="M574.96,206.66l1.11-.09c.08.54.27.94.57,1.22s.66.41,1.08.41c.51,0,.94-.19,1.29-.57s.53-.89.53-1.52-.17-1.08-.51-1.42-.78-.52-1.33-.52c-.34,0-.65.08-.92.23s-.49.35-.64.6l-.99-.13.83-4.41h4.27v1.01h-3.43l-.46,2.31c.52-.36,1.06-.54,1.62-.54.75,0,1.38.26,1.9.78s.77,1.19.77,2-.23,1.45-.68,2.02c-.55.7-1.3,1.04-2.26,1.04-.78,0-1.42-.22-1.91-.66s-.78-1.02-.85-1.74Z"/>
    <path class="cls-11" d="M582.07,208.91v-8.59h3.24c.57,0,1.01.03,1.31.08.42.07.78.2,1.06.4s.51.47.69.83.26.75.26,1.17c0,.73-.23,1.35-.7,1.85s-1.3.76-2.52.76h-2.2v3.49h-1.14ZM583.2,204.4h2.22c.73,0,1.26-.14,1.56-.41s.46-.66.46-1.15c0-.36-.09-.67-.27-.92s-.42-.42-.72-.51c-.19-.05-.54-.08-1.06-.08h-2.2v3.07Z"/>
    <path class="cls-11" d="M590.04,208.91v-8.59h1.71l2.03,6.08c.19.57.32.99.41,1.27.1-.31.25-.77.46-1.38l2.06-5.98h1.53v8.59h-1.1v-7.19l-2.5,7.19h-1.03l-2.48-7.31v7.31h-1.1Z"/>
  </g>
  <g>
    <rect class="cls-2" y="738.88" width="139" height="173"/>
    <g>
      <path class="cls-11" d="M33.84,825.5v-5.39h.71v5.39h-.71Z"/>
      <path class="cls-11" d="M35.81,825.5v-5.39h.73l2.83,4.23v-4.23h.68v5.39h-.73l-2.83-4.24v4.24h-.68Z"/>
      <path class="cls-11" d="M41.25,825.5v-5.39h.73l2.83,4.23v-4.23h.68v5.39h-.73l-2.83-4.24v4.24h-.68Z"/>
      <path class="cls-11" d="M46.48,822.88c0-.9.24-1.6.72-2.1.48-.51,1.1-.76,1.86-.76.5,0,.95.12,1.35.36.4.24.7.57.91,1,.21.42.31.91.31,1.45s-.11,1.04-.33,1.47-.53.76-.94.98c-.41.22-.84.33-1.31.33-.51,0-.96-.12-1.36-.37s-.7-.58-.91-1c-.21-.42-.31-.87-.31-1.35ZM47.21,822.89c0,.65.17,1.16.52,1.54.35.37.79.56,1.31.56s.98-.19,1.33-.57c.35-.38.52-.91.52-1.61,0-.44-.07-.82-.22-1.15s-.37-.58-.65-.76c-.29-.18-.61-.27-.96-.27-.5,0-.94.17-1.3.52s-.55.93-.55,1.74Z"/>
      <path class="cls-11" d="M54.09,825.5l-2.09-5.39h.77l1.4,3.92c.11.31.21.61.28.88.08-.29.18-.59.29-.88l1.46-3.92h.73l-2.11,5.39h-.73Z"/>
      <path class="cls-11" d="M56.42,825.5l2.07-5.39h.77l2.21,5.39h-.81l-.63-1.63h-2.25l-.59,1.63h-.76ZM57.98,823.29h1.83l-.56-1.49c-.17-.45-.3-.83-.38-1.12-.07.35-.17.69-.29,1.03l-.59,1.58Z"/>
      <path class="cls-11" d="M62.85,825.5v-4.75h-1.78v-.64h4.27v.64h-1.78v4.75h-.71Z"/>
      <path class="cls-11" d="M66.2,825.5v-5.39h.71v5.39h-.71Z"/>
      <path class="cls-11" d="M67.95,822.88c0-.9.24-1.6.72-2.1.48-.51,1.1-.76,1.86-.76.5,0,.95.12,1.35.36.4.24.7.57.91,1,.21.42.31.91.31,1.45s-.11,1.04-.33,1.47-.53.76-.94.98c-.41.22-.84.33-1.31.33-.51,0-.96-.12-1.36-.37s-.7-.58-.91-1c-.21-.42-.31-.87-.31-1.35ZM68.69,822.89c0,.65.17,1.16.52,1.54.35.37.79.56,1.31.56s.98-.19,1.33-.57c.35-.38.52-.91.52-1.61,0-.44-.07-.82-.22-1.15s-.37-.58-.65-.76c-.29-.18-.61-.27-.96-.27-.5,0-.94.17-1.3.52s-.55.93-.55,1.74Z"/>
      <path class="cls-11" d="M74.02,825.5v-5.39h.73l2.83,4.23v-4.23h.68v5.39h-.73l-2.83-4.24v4.24h-.68Z"/>
      <path class="cls-11" d="M81.31,823.77l.67-.06c.03.27.11.49.22.66s.3.31.54.42.52.16.83.16c.27,0,.51-.04.72-.12.21-.08.36-.19.46-.33s.15-.29.15-.46-.05-.32-.15-.44c-.1-.13-.26-.23-.49-.32-.14-.06-.46-.14-.96-.26s-.84-.23-1.04-.34c-.26-.13-.45-.3-.58-.5-.13-.2-.19-.42-.19-.67,0-.27.08-.53.23-.76.16-.24.38-.42.68-.54.3-.12.63-.18.99-.18.4,0,.75.06,1.06.19.3.13.54.32.7.57s.25.53.26.85l-.68.05c-.04-.34-.16-.6-.37-.77s-.53-.26-.94-.26-.75.08-.94.24-.3.35-.3.57c0,.19.07.35.21.48.14.12.5.25,1.08.38.58.13.98.25,1.19.34.31.14.55.33.7.55s.22.48.22.77-.08.56-.25.81c-.16.25-.4.45-.71.59-.31.14-.65.21-1.04.21-.49,0-.9-.07-1.23-.21-.33-.14-.59-.36-.78-.64-.19-.29-.29-.61-.3-.97Z"/>
      <path class="cls-11" d="M86.58,825.5v-5.39h2.03c.36,0,.63.02.82.05.26.04.49.13.67.25s.32.3.43.52c.11.22.16.47.16.74,0,.46-.15.85-.44,1.16s-.82.48-1.58.48h-1.38v2.19h-.71ZM87.29,822.68h1.39c.46,0,.79-.09.98-.26.19-.17.29-.41.29-.72,0-.23-.06-.42-.17-.58-.11-.16-.26-.27-.45-.32-.12-.03-.34-.05-.67-.05h-1.38v1.93Z"/>
      <path class="cls-11" d="M90.45,825.5l2.07-5.39h.77l2.21,5.39h-.81l-.63-1.63h-2.25l-.59,1.63h-.76ZM92.01,823.29h1.83l-.56-1.49c-.17-.45-.3-.83-.38-1.12-.07.35-.17.69-.29,1.03l-.59,1.58Z"/>
      <path class="cls-11" d="M99.91,823.62l.71.18c-.15.59-.42,1.03-.81,1.34s-.86.46-1.42.46-1.05-.12-1.42-.35-.64-.58-.83-1.03c-.19-.45-.29-.93-.29-1.44,0-.56.11-1.05.32-1.47.21-.42.52-.74.92-.95s.83-.33,1.31-.33c.54,0,.99.14,1.36.41.37.27.62.66.77,1.16l-.7.17c-.12-.39-.31-.68-.54-.86-.24-.18-.54-.27-.9-.27-.42,0-.76.1-1.04.3s-.47.46-.59.8c-.11.33-.17.68-.17,1.04,0,.46.07.86.2,1.2s.34.6.62.77c.28.17.59.25.92.25.4,0,.74-.12,1.01-.35.28-.23.46-.57.56-1.03Z"/>
      <path class="cls-11" d="M101.52,825.5v-5.39h3.9v.64h-3.18v1.65h2.98v.63h-2.98v1.83h3.31v.64h-4.02Z"/>
      <path class="cls-11" d="M44.82,843.58v-5.39h2.39c.48,0,.85.05,1.1.15s.45.27.6.51c.15.25.22.52.22.81,0,.38-.12.71-.37.97-.25.26-.63.43-1.15.5.19.09.33.18.43.27.21.19.41.43.59.72l.94,1.47h-.9l-.71-1.12c-.21-.32-.38-.57-.51-.74s-.26-.29-.36-.36-.22-.12-.33-.14c-.08-.02-.21-.03-.4-.03h-.83v2.39h-.71ZM45.53,840.57h1.53c.33,0,.58-.03.76-.1s.32-.18.42-.32c.1-.15.14-.31.14-.48,0-.25-.09-.46-.28-.63-.19-.16-.48-.25-.88-.25h-1.71v1.78Z"/>
      <path class="cls-11" d="M50.03,840.95c0-.9.24-1.6.72-2.1.48-.51,1.1-.76,1.86-.76.5,0,.95.12,1.35.36.4.24.7.57.91,1,.21.42.31.91.31,1.45s-.11,1.04-.33,1.47-.53.76-.94.98c-.41.22-.84.33-1.31.33-.51,0-.96-.12-1.36-.37s-.7-.58-.91-1c-.21-.42-.31-.87-.31-1.35ZM50.77,840.96c0,.65.17,1.16.52,1.54.35.37.79.56,1.31.56s.98-.19,1.33-.57c.35-.38.52-.91.52-1.61,0-.44-.07-.82-.22-1.15s-.37-.58-.65-.76c-.29-.18-.61-.27-.96-.27-.5,0-.94.17-1.3.52s-.55.93-.55,1.74Z"/>
      <path class="cls-11" d="M56.08,843.58v-5.39h2.02c.41,0,.74.05.99.16.25.11.44.28.58.5.14.23.21.46.21.71,0,.23-.06.45-.19.65-.12.2-.31.37-.57.49.33.1.58.26.75.49.17.23.26.5.26.82,0,.25-.05.49-.16.7s-.24.38-.4.5c-.16.12-.35.21-.59.27-.24.06-.53.09-.87.09h-2.06ZM56.79,840.45h1.17c.32,0,.54-.02.68-.06.18-.05.32-.14.41-.27s.14-.28.14-.47-.04-.34-.13-.47c-.09-.14-.21-.23-.37-.28-.16-.05-.43-.08-.82-.08h-1.08v1.63ZM56.79,842.94h1.34c.23,0,.39,0,.49-.03.16-.03.3-.08.41-.15.11-.07.2-.17.27-.3s.11-.28.11-.45c0-.2-.05-.38-.15-.52s-.25-.25-.43-.31c-.18-.06-.45-.09-.79-.09h-1.25v1.85Z"/>
      <path class="cls-11" d="M60.91,840.95c0-.9.24-1.6.72-2.1.48-.51,1.1-.76,1.86-.76.5,0,.95.12,1.35.36.4.24.7.57.91,1,.21.42.31.91.31,1.45s-.11,1.04-.33,1.47-.53.76-.94.98c-.41.22-.84.33-1.31.33-.51,0-.96-.12-1.36-.37s-.7-.58-.91-1c-.21-.42-.31-.87-.31-1.35ZM61.65,840.96c0,.65.17,1.16.52,1.54.35.37.79.56,1.31.56s.98-.19,1.33-.57c.35-.38.52-.91.52-1.61,0-.44-.07-.82-.22-1.15s-.37-.58-.65-.76c-.29-.18-.61-.27-.96-.27-.5,0-.94.17-1.3.52s-.55.93-.55,1.74Z"/>
      <path class="cls-11" d="M68.36,843.58v-4.75h-1.78v-.64h4.27v.64h-1.78v4.75h-.71Z"/>
      <path class="cls-11" d="M71.71,843.58v-5.39h.71v5.39h-.71Z"/>
      <path class="cls-11" d="M77.52,841.69l.71.18c-.15.59-.42,1.03-.81,1.34s-.86.46-1.42.46-1.05-.12-1.42-.35-.64-.58-.83-1.03c-.19-.45-.29-.93-.29-1.44,0-.56.11-1.05.32-1.47.21-.42.52-.74.92-.95s.83-.33,1.31-.33c.54,0,.99.14,1.36.41.37.27.62.66.77,1.16l-.7.17c-.12-.39-.31-.68-.54-.86-.24-.18-.54-.27-.9-.27-.42,0-.76.1-1.04.3s-.47.46-.59.8c-.11.33-.17.68-.17,1.04,0,.46.07.86.2,1.2s.34.6.62.77c.28.17.59.25.92.25.4,0,.74-.12,1.01-.35.28-.23.46-.57.56-1.03Z"/>
      <path class="cls-11" d="M81.18,843.58v-5.39h.71v4.75h2.66v.64h-3.37Z"/>
      <path class="cls-11" d="M84.8,843.58l2.07-5.39h.77l2.21,5.39h-.81l-.63-1.63h-2.25l-.59,1.63h-.76ZM86.36,841.36h1.83l-.56-1.49c-.17-.45-.3-.83-.38-1.12-.07.35-.17.69-.29,1.03l-.59,1.58Z"/>
      <path class="cls-11" d="M90.39,843.58v-5.39h2.02c.41,0,.74.05.99.16.25.11.44.28.58.5.14.23.21.46.21.71,0,.23-.06.45-.19.65-.12.2-.31.37-.57.49.33.1.58.26.75.49.17.23.26.5.26.82,0,.25-.05.49-.16.7s-.24.38-.4.5c-.16.12-.35.21-.59.27-.24.06-.53.09-.87.09h-2.06ZM91.1,840.45h1.17c.32,0,.54-.02.68-.06.18-.05.32-.14.41-.27s.14-.28.14-.47-.04-.34-.13-.47c-.09-.14-.21-.23-.37-.28-.16-.05-.43-.08-.82-.08h-1.08v1.63ZM91.1,842.94h1.34c.23,0,.39,0,.49-.03.16-.03.3-.08.41-.15.11-.07.2-.17.27-.3s.11-.28.11-.45c0-.2-.05-.38-.15-.52s-.25-.25-.43-.31c-.18-.06-.45-.09-.79-.09h-1.25v1.85Z"/>
    </g>
  </g>
  <g>
    <rect class="cls-2" x="860" y="738.88" width="139" height="173"/>
    <text class="cls-12" transform="translate(903.67 825.5)"><tspan x="0" y="0">MAKERS</tspan><tspan class="cls-13" x="31.8" y="0">P</tspan><tspan x="36.27" y="0">ACE</tspan></text>
  </g>
  <g>
    <rect class="cls-2" x="47.78" y="389.37" width="43.07" height="52"/>
    <circle class="cls-11" cx="79.82" cy="400.3" r="3.22"/>
    <polygon class="cls-8" points="84.55 405.77 84.55 419.18 82.81 419.18 82.81 422 82.07 422 82.07 437.82 77.71 437.82 77.71 422 77.04 422 77.04 419.18 75.16 419.18 75.16 405.77 77.04 405.77 77.04 404.76 82.81 404.76 82.81 405.77 84.55 405.77"/>
    <circle class="cls-11" cx="59.97" cy="400.3" r="3.22"/>
    <polygon class="cls-8" points="69.66 419.11 69.66 422 62.15 422 62.15 437.82 57.79 437.82 57.79 422 50.28 422 50.28 419.11 52.38 419.11 55.24 416.2 55.24 405.77 57.12 405.77 57.12 404.76 62.89 404.76 62.89 405.77 64.63 405.77 64.63 416.13 67.56 419.11 69.66 419.11"/>
  </g>
</svg>