<?xml version="1.0" encoding="UTF-8"?>
<svg id="_图层_1" data-name=" 图层 1" xmlns="http://www.w3.org/2000/svg" version="1.1" xmlns:xlink="http://www.w3.org/1999/xlink" viewBox="0 0 1459 1052">
  <defs>
    <style>
      .cls-1 {
        clip-path: url(#clippath-20);
      }

      .cls-2 {
        clip-path: url(#clippath-11);
      }

      .cls-3 {
        clip-path: url(#clippath-16);
      }

      .cls-4 {
        fill: #545454;
      }

      .cls-4, .cls-5, .cls-6, .cls-7, .cls-8 {
        stroke-width: 0px;
      }

      .cls-9 {
        clip-path: url(#clippath-2);
      }

      .cls-10 {
        clip-path: url(#clippath-13);
      }

      .cls-11, .cls-12, .cls-13, .cls-14, .cls-15, .cls-16 {
        isolation: isolate;
      }

      .cls-17 {
        stroke: #a0a1a6;
      }

      .cls-17, .cls-7, .cls-18, .cls-12, .cls-19, .cls-20, .cls-15 {
        fill: none;
      }

      .cls-17, .cls-18, .cls-12, .cls-19, .cls-20, .cls-21, .cls-15 {
        stroke-miterlimit: 10;
      }

      .cls-22 {
        clip-path: url(#clippath-25);
      }

      .cls-5 {
        fill: #a0a1a6;
      }

      .cls-23 {
        clip-path: url(#clippath-15);
      }

      .cls-6 {
        fill: #953600;
      }

      .cls-24 {
        clip-path: url(#clippath-6);
      }

      .cls-25 {
        clip-path: url(#clippath-26);
      }

      .cls-26 {
        clip-path: url(#clippath-7);
      }

      .cls-27 {
        clip-path: url(#clippath-21);
      }

      .cls-28 {
        clip-path: url(#clippath-1);
      }

      .cls-29 {
        clip-path: url(#clippath-4);
      }

      .cls-30 {
        clip-path: url(#clippath-27);
      }

      .cls-18, .cls-12, .cls-15 {
        stroke: #fff;
      }

      .cls-12, .cls-13, .cls-14, .cls-15 {
        font-family: ArialMT, Arial;
        font-size: 9.1px;
      }

      .cls-12, .cls-15 {
        stroke-width: .2px;
      }

      .cls-31 {
        clip-path: url(#clippath-12);
      }

      .cls-13, .cls-14, .cls-21, .cls-8, .cls-16 {
        fill: #fff;
      }

      .cls-13, .cls-15 {
        letter-spacing: 0em;
      }

      .cls-19 {
        stroke-width: 3px;
      }

      .cls-19, .cls-20, .cls-21 {
        stroke: #545454;
      }

      .cls-32 {
        clip-path: url(#clippath-24);
      }

      .cls-33 {
        clip-path: url(#clippath-22);
      }

      .cls-34 {
        clip-path: url(#clippath-9);
      }

      .cls-35 {
        clip-path: url(#clippath);
      }

      .cls-36 {
        clip-path: url(#clippath-19);
      }

      .cls-37 {
        clip-path: url(#clippath-3);
      }

      .cls-38 {
        clip-path: url(#clippath-8);
      }

      .cls-39 {
        clip-path: url(#clippath-29);
      }

      .cls-40 {
        clip-path: url(#clippath-18);
      }

      .cls-41 {
        clip-path: url(#clippath-14);
      }

      .cls-42 {
        clip-path: url(#clippath-17);
      }

      .cls-43 {
        clip-path: url(#clippath-5);
      }

      .cls-16 {
        font-family: AdobeSongStd-Light-GBpc-EUC-H, 'Adobe Song Std';
        font-size: 9px;
        font-weight: 300;
      }

      .cls-44 {
        clip-path: url(#clippath-10);
      }

      .cls-45 {
        clip-path: url(#clippath-23);
      }

      .cls-46 {
        clip-path: url(#clippath-28);
      }
    </style>
    <symbol id="_新建符号" data-name=" 新建符号" viewBox="0 0 169.8 242.7">
      <g>
        <g>
          <g>
            <path class="cls-19" d="M168.3,25.9L128.1,2.5c-2.3,28.9-15,74.3-45.2,122.8C55.2,169.6,24.5,199.9,2.6,217.6c13.4,7.8,26.8,15.6,40.2,23.4,23.2-12.8,52.9-40.9,79.1-83.7,33.1-54.1,47.3-103.3,46.4-131.4h0Z"/>
            <line class="cls-19" x1="124.9" y1="22.3" x2="166.4" y2="46.5"/>
            <line class="cls-19" x1="119.6" y1="41.4" x2="161.9" y2="64.3"/>
            <line class="cls-19" x1="114.2" y1="60.5" x2="155.9" y2="85.3"/>
            <line class="cls-19" x1="106.9" y1="77.3" x2="149.9" y2="101.3"/>
            <line class="cls-19" x1="98.9" y1="96.3" x2="140.7" y2="120.4"/>
            <line class="cls-19" x1="90.9" y1="112.3" x2="132.6" y2="136.5"/>
            <line class="cls-19" x1="79.9" y1="129.3" x2="123.2" y2="154.6"/>
            <line class="cls-19" x1="70.9" y1="144.3" x2="113.7" y2="169.8"/>
            <line class="cls-19" x1="58.9" y1="161.3" x2="101.5" y2="186.4"/>
            <line class="cls-19" x1="43.9" y1="178.3" x2="86.9" y2="204.3"/>
            <line class="cls-19" x1="30.5" y1="193.8" x2="72.9" y2="218.3"/>
            <line class="cls-19" x1="17.1" y1="206.3" x2="58.9" y2="230.3"/>
          </g>
          <path class="cls-20" d="M148.9,14.3c-5.7,28.4-15,74.2-44,121-28.1,45.3-60.6,75.3-83,93l3-12"/>
        </g>
        <line class="cls-20" x1="35.9" y1="226.3" x2="21.9" y2="228.3"/>
      </g>
    </symbol>
    <symbol id="_新建符号_1" data-name=" 新建符号 1" viewBox="0 0 278.4 281.8">
      <g>
        <path class="cls-5" d="M264.6,35.6v.3c0-2.6,0-5.2,0-7.8,0-29.7-19-33.7-46.9-22.1.8,7.2,1.3,14.6,1.3,22.1,0,105.4-85.5,190.9-190.9,190.9s-14.8-.4-22.1-1.3c-11.6,27.8-7.6,46.9,22.1,46.9l146.6-1.3,90.5-90.5-.6-137.2Z"/>
        <path class="cls-17" d="M199.6,250.4l-11.7,11.7c-.8.8-.8,2.2,0,3l15.6,15.6c.8.8,2.2.8,3,0l11.7-11.7c.8-.8.8-2.2,0-3l-15.6-15.6c-.8-.8-2.2-.8-3,0Z"/>
        <path class="cls-17" d="M219.3,230.7l-11.7,11.7c-.8.8-.8,2.2,0,3l15.6,15.6c.8.8,2.2.8,3,0l11.7-11.7c.8-.8.8-2.2,0-3l-15.6-15.6c-.8-.8-2.2-.8-3,0Z"/>
        <path class="cls-17" d="M239,211l-11.7,11.7c-.8.8-.8,2.2,0,3l15.6,15.6c.8.8,2.2.8,3,0l11.7-11.7c.8-.8.8-2.2,0-3l-15.6-15.6c-.8-.8-2.2-.8-3,0h0Z"/>
        <path class="cls-17" d="M258.7,191.3l-11.7,11.7c-.8.8-.8,2.2,0,3l15.6,15.6c.8.8,2.2.8,3,0l11.7-11.7c.8-.8.8-2.2,0-3l-15.6-15.6c-.8-.8-2.2-.8-3,0Z"/>
      </g>
    </symbol>
    <symbol id="_新建符号_2" data-name=" 新建符号 2" viewBox="0 0 110 75.2">
      <use width="110" height="75.2" xlink:href="#_桌椅"/>
    </symbol>
    <symbol id="_桌椅" data-name=" 桌椅" viewBox="0 0 110 75.2">
      <g>
        <g>
          <g>
            <path class="cls-17" d="M24.1,64v-11.5H7.1v11.5c0,4.3,3,7.9,6.6,7.9h3.7c3.7,0,6.6-3.5,6.6-7.9Z"/>
            <path class="cls-17" d="M4.5,71.7s10.5,6.7,22.2,0"/>
            <path class="cls-17" d="M4.5,67.4s10.5,11.7,22.2,0"/>
            <polyline class="cls-17" points="7.2 72.8 8.2 71.1 9.5 73.4 11.2 72.5 15.2 74.1 19.7 72.7 21.9 73.4 22.6 71.3 24.5 72.6"/>
          </g>
          <g>
            <path class="cls-17" d="M50,64v-11.5h-17v11.5c0,4.3,3,7.9,6.7,7.9h3.7c3.7,0,6.7-3.5,6.7-7.9h0Z"/>
            <path class="cls-17" d="M30.4,71.7s10.5,6.7,22.2,0"/>
            <path class="cls-17" d="M30.4,67.4s10.5,11.7,22.2,0"/>
            <polyline class="cls-17" points="33.1 72.8 34.1 71.1 35.3 73.4 37.1 72.5 41.1 74.1 45.6 72.7 47.8 73.4 48.5 71.3 50.3 72.6"/>
          </g>
          <g>
            <path class="cls-17" d="M76.6,64v-11.5h-17v11.5c0,4.3,3,7.9,6.7,7.9h3.7c3.7,0,6.7-3.5,6.7-7.9h0Z"/>
            <path class="cls-17" d="M57,71.7s10.5,6.7,22.2,0"/>
            <path class="cls-17" d="M57,67.4s10.5,11.7,22.2,0"/>
            <polyline class="cls-17" points="59.7 72.8 60.7 71.1 61.9 73.4 63.7 72.5 67.7 74.1 72.2 72.7 74.4 73.4 75.1 71.3 76.9 72.6"/>
          </g>
          <g>
            <path class="cls-17" d="M102.4,64v-11.5h-17v11.5c0,4.3,3,7.9,6.7,7.9h3.7c3.7,0,6.7-3.5,6.7-7.9h0Z"/>
            <path class="cls-17" d="M82.8,71.7s10.5,6.7,22.2,0"/>
            <path class="cls-17" d="M82.8,67.4s10.5,11.7,22.2,0"/>
            <polyline class="cls-17" points="85.6 72.8 86.6 71.1 87.8 73.4 89.6 72.5 93.6 74.1 98 72.7 100.3 73.4 101 71.3 102.8 72.6"/>
          </g>
        </g>
        <g>
          <g>
            <path class="cls-17" d="M85.4,11.2v11.5h17v-11.5c0-4.3-3-7.9-6.7-7.9h-3.7c-3.7,0-6.7,3.5-6.7,7.9h0Z"/>
            <path class="cls-17" d="M105,3.5s-10.5-6.7-22.2,0"/>
            <path class="cls-17" d="M105,7.8s-10.5-11.7-22.2,0"/>
            <polyline class="cls-17" points="102.2 2.4 101.3 4 100 1.8 98.3 2.6 94.3 1.1 89.8 2.5 87.6 1.8 86.9 3.8 85 2.6"/>
          </g>
          <g>
            <path class="cls-17" d="M59.5,11.2v11.5h17v-11.5c0-4.3-3-7.9-6.7-7.9h-3.7c-3.7,0-6.7,3.5-6.7,7.9h0Z"/>
            <path class="cls-17" d="M79.1,3.5s-10.5-6.7-22.2,0"/>
            <path class="cls-17" d="M79.1,7.8s-10.5-11.7-22.2,0"/>
            <polyline class="cls-17" points="76.4 2.4 75.4 4 74.2 1.8 72.4 2.6 68.4 1.1 63.9 2.5 61.7 1.8 61 3.8 59.2 2.6"/>
          </g>
          <g>
            <path class="cls-17" d="M33,11.2v11.5h17v-11.5c0-4.3-3-7.9-6.7-7.9h-3.7c-3.7,0-6.7,3.5-6.7,7.9h0Z"/>
            <path class="cls-17" d="M52.5,3.5s-10.5-6.7-22.2,0"/>
            <path class="cls-17" d="M52.5,7.8s-10.5-11.7-22.2,0"/>
            <polyline class="cls-17" points="49.8 2.4 48.8 4 47.6 1.8 45.8 2.6 41.8 1.1 37.3 2.5 35.1 1.8 34.4 3.8 32.6 2.6"/>
          </g>
          <g>
            <path class="cls-17" d="M7.1,11.2v11.5h17v-11.5c0-4.3-3-7.9-6.6-7.9h-3.7c-3.7,0-6.7,3.5-6.7,7.9h0Z"/>
            <path class="cls-17" d="M26.7,3.5s-10.5-6.7-22.2,0"/>
            <path class="cls-17" d="M26.7,7.8s-10.5-11.7-22.2,0"/>
            <polyline class="cls-17" points="23.9 2.4 22.9 4 21.7 1.8 20 2.6 15.9 1.1 11.5 2.5 9.2 1.8 8.5 3.8 6.7 2.6"/>
          </g>
        </g>
        <rect class="cls-5" y="21.5" width="110" height="32"/>
      </g>
    </symbol>
    <clipPath id="clippath">
      <rect class="cls-7" x="785.5" y="425" width="169.8" height="242.7"/>
    </clipPath>
    <clipPath id="clippath-1">
      <rect class="cls-7" x="492.5" y="428" width="169.8" height="242.7"/>
    </clipPath>
    <clipPath id="clippath-2">
      <rect class="cls-7" y="34" width="110" height="75"/>
    </clipPath>
    <clipPath id="clippath-3">
      <rect class="cls-7" y="140" width="110" height="75"/>
    </clipPath>
    <clipPath id="clippath-4">
      <rect class="cls-7" y="246" width="110" height="75"/>
    </clipPath>
    <clipPath id="clippath-5">
      <rect class="cls-7" y="352" width="110" height="75"/>
    </clipPath>
    <clipPath id="clippath-6">
      <rect class="cls-7" y="458" width="110" height="75"/>
    </clipPath>
    <clipPath id="clippath-7">
      <rect class="cls-7" y="564" width="110" height="75"/>
    </clipPath>
    <clipPath id="clippath-8">
      <rect class="cls-7" y="670" width="110" height="75"/>
    </clipPath>
    <clipPath id="clippath-9">
      <rect class="cls-7" y="776" width="110" height="75"/>
    </clipPath>
    <clipPath id="clippath-10">
      <rect class="cls-7" y="882" width="110" height="75"/>
    </clipPath>
    <clipPath id="clippath-11">
      <rect class="cls-7" x="1349" y="34" width="110" height="75"/>
    </clipPath>
    <clipPath id="clippath-12">
      <rect class="cls-7" x="376" width="110" height="75"/>
    </clipPath>
    <clipPath id="clippath-13">
      <rect class="cls-7" x="519" width="110" height="75"/>
    </clipPath>
    <clipPath id="clippath-14">
      <rect class="cls-7" x="662" width="110" height="75"/>
    </clipPath>
    <clipPath id="clippath-15">
      <rect class="cls-7" x="805" width="110" height="75"/>
    </clipPath>
    <clipPath id="clippath-16">
      <rect class="cls-7" x="948" width="110" height="75"/>
    </clipPath>
    <clipPath id="clippath-17">
      <rect class="cls-7" x="375" y="977" width="110" height="75"/>
    </clipPath>
    <clipPath id="clippath-18">
      <rect class="cls-7" x="518" y="977" width="110" height="75"/>
    </clipPath>
    <clipPath id="clippath-19">
      <rect class="cls-7" x="661" y="977" width="110" height="75"/>
    </clipPath>
    <clipPath id="clippath-20">
      <rect class="cls-7" x="804" y="977" width="110" height="75"/>
    </clipPath>
    <clipPath id="clippath-21">
      <rect class="cls-7" x="947" y="977" width="110" height="75"/>
    </clipPath>
    <clipPath id="clippath-22">
      <rect class="cls-7" x="1349" y="140" width="110" height="75"/>
    </clipPath>
    <clipPath id="clippath-23">
      <rect class="cls-7" x="1349" y="246" width="110" height="75"/>
    </clipPath>
    <clipPath id="clippath-24">
      <rect class="cls-7" x="1349" y="352" width="110" height="75"/>
    </clipPath>
    <clipPath id="clippath-25">
      <rect class="cls-7" x="1349" y="458" width="110" height="75"/>
    </clipPath>
    <clipPath id="clippath-26">
      <rect class="cls-7" x="1349" y="564" width="110" height="75"/>
    </clipPath>
    <clipPath id="clippath-27">
      <rect class="cls-7" x="1349" y="670" width="110" height="75"/>
    </clipPath>
    <clipPath id="clippath-28">
      <rect class="cls-7" x="1349" y="776" width="110" height="75"/>
    </clipPath>
    <clipPath id="clippath-29">
      <rect class="cls-7" x="1349" y="882" width="110" height="75"/>
    </clipPath>
  </defs>
  <g class="cls-35">
    <use width="169.8" height="242.7" transform="translate(785.5 425.1)" xlink:href="#_新建符号"/>
  </g>
  <g class="cls-28">
    <use width="169.8" height="242.7" transform="translate(662.3 428.1) rotate(-180) scale(1 -1)" xlink:href="#_新建符号"/>
  </g>
  <use width="278.4" height="281.8" transform="translate(779.6 405) scale(1 -1)" xlink:href="#_新建符号_1"/>
  <use width="278.4" height="281.8" transform="translate(652.1 533.1) rotate(-180) scale(1 -1)" xlink:href="#_新建符号_1"/>
  <use width="278.4" height="281.8" transform="translate(785.4 528.3) rotate(90) scale(1 -1)" xlink:href="#_新建符号_1"/>
  <use width="278.4" height="281.8" transform="translate(647.3 409.8) rotate(-90) scale(1 -1)" xlink:href="#_新建符号_1"/>
  <g class="cls-9">
    <use width="110" height="75.2" transform="translate(-1 100.3) scale(1 -1)" xlink:href="#_新建符号_2"/>
  </g>
  <g class="cls-37">
    <use width="110" height="75.2" transform="translate(-1 206.3) scale(1 -1)" xlink:href="#_新建符号_2"/>
  </g>
  <g class="cls-29">
    <use width="110" height="75.2" transform="translate(-1 312.3) scale(1 -1)" xlink:href="#_新建符号_2"/>
  </g>
  <g class="cls-43">
    <use width="110" height="75.2" transform="translate(-1 418.3) scale(1 -1)" xlink:href="#_新建符号_2"/>
  </g>
  <g class="cls-24">
    <use width="110" height="75.2" transform="translate(-1 524.3) scale(1 -1)" xlink:href="#_新建符号_2"/>
  </g>
  <g class="cls-26">
    <use width="110" height="75.2" transform="translate(-1 630.3) scale(1 -1)" xlink:href="#_新建符号_2"/>
  </g>
  <g class="cls-38">
    <use width="110" height="75.2" transform="translate(-1 736.3) scale(1 -1)" xlink:href="#_新建符号_2"/>
  </g>
  <g class="cls-34">
    <use width="110" height="75.2" transform="translate(-1 842.3) scale(1 -1)" xlink:href="#_新建符号_2"/>
  </g>
  <g class="cls-44">
    <use width="110" height="75.2" transform="translate(-1 948.3) scale(1 -1)" xlink:href="#_新建符号_2"/>
  </g>
  <g class="cls-2">
    <use width="110" height="75.2" transform="translate(1348 100.3) scale(1 -1)" xlink:href="#_新建符号_2"/>
  </g>
  <g class="cls-31">
    <use width="110" height="75.2" transform="translate(375 66.3) scale(1 -1)" xlink:href="#_新建符号_2"/>
  </g>
  <g class="cls-10">
    <use width="110" height="75.2" transform="translate(518 66.3) scale(1 -1)" xlink:href="#_新建符号_2"/>
  </g>
  <g class="cls-41">
    <use width="110" height="75.2" transform="translate(661 66.3) scale(1 -1)" xlink:href="#_新建符号_2"/>
  </g>
  <g class="cls-23">
    <use width="110" height="75.2" transform="translate(804 66.3) scale(1 -1)" xlink:href="#_新建符号_2"/>
  </g>
  <g class="cls-3">
    <use width="110" height="75.2" transform="translate(947 66.3) scale(1 -1)" xlink:href="#_新建符号_2"/>
  </g>
  <g class="cls-42">
    <use width="110" height="75.2" transform="translate(374 1043.3) scale(1 -1)" xlink:href="#_新建符号_2"/>
  </g>
  <g class="cls-40">
    <use width="110" height="75.2" transform="translate(517 1043.3) scale(1 -1)" xlink:href="#_新建符号_2"/>
  </g>
  <g class="cls-36">
    <use width="110" height="75.2" transform="translate(660 1043.3) scale(1 -1)" xlink:href="#_新建符号_2"/>
  </g>
  <g class="cls-1">
    <use width="110" height="75.2" transform="translate(803 1043.3) scale(1 -1)" xlink:href="#_新建符号_2"/>
  </g>
  <g class="cls-27">
    <use width="110" height="75.2" transform="translate(946 1043.3) scale(1 -1)" xlink:href="#_新建符号_2"/>
  </g>
  <g class="cls-33">
    <use width="110" height="75.2" transform="translate(1348 206.3) scale(1 -1)" xlink:href="#_新建符号_2"/>
  </g>
  <g class="cls-45">
    <use width="110" height="75.2" transform="translate(1348 312.3) scale(1 -1)" xlink:href="#_新建符号_2"/>
  </g>
  <g class="cls-32">
    <use width="110" height="75.2" transform="translate(1348 418.3) scale(1 -1)" xlink:href="#_新建符号_2"/>
  </g>
  <g class="cls-22">
    <use width="110" height="75.2" transform="translate(1348 524.3) scale(1 -1)" xlink:href="#_新建符号_2"/>
  </g>
  <g class="cls-25">
    <use width="110" height="75.2" transform="translate(1348 630.3) scale(1 -1)" xlink:href="#_新建符号_2"/>
  </g>
  <g class="cls-30">
    <use width="110" height="75.2" transform="translate(1348 736.3) scale(1 -1)" xlink:href="#_新建符号_2"/>
  </g>
  <g class="cls-46">
    <use width="110" height="75.2" transform="translate(1348 842.3) scale(1 -1)" xlink:href="#_新建符号_2"/>
  </g>
  <g class="cls-39">
    <use width="110" height="75.2" transform="translate(1348 948.3) scale(1 -1)" xlink:href="#_新建符号_2"/>
  </g>
  <g>
    <rect class="cls-4" x="237" y="91" width="78.7" height="98"/>
    <g class="cls-11">
      <text class="cls-16" transform="translate(258.4 140.1)"><tspan x="0" y="0">嘉庚书房</tspan></text>
    </g>
  </g>
  <g>
    <rect class="cls-4" x="1115.1" y="855.7" width="43.1" height="52"/>
    <circle class="cls-8" cx="1147.1" cy="866.7" r="3.2"/>
    <polygon class="cls-21" points="1151.8 872.1 1151.8 885.5 1150.1 885.5 1150.1 888.3 1149.4 888.3 1149.4 904.2 1145 904.2 1145 888.3 1144.3 888.3 1144.3 885.5 1142.5 885.5 1142.5 872.1 1144.3 872.1 1144.3 871.1 1150.1 871.1 1150.1 872.1 1151.8 872.1"/>
    <circle class="cls-8" cx="1127.3" cy="866.7" r="3.2"/>
    <polygon class="cls-21" points="1137 885.5 1137 888.3 1129.4 888.3 1129.4 904.2 1125.1 904.2 1125.1 888.3 1117.6 888.3 1117.6 885.5 1119.7 885.5 1122.5 882.5 1122.5 872.1 1124.4 872.1 1124.4 871.1 1130.2 871.1 1130.2 872.1 1131.9 872.1 1131.9 882.5 1134.9 885.5 1137 885.5"/>
  </g>
  <rect class="cls-6" x="255.1" y="443.1" width="43.1" height="52"/>
  <circle class="cls-8" cx="287.1" cy="457" r="3.2"/>
  <polygon class="cls-8" points="291.9 462.5 291.9 475.9 290.1 475.9 290.1 478.7 289.4 478.7 289.4 494.5 285 494.5 285 478.7 284.3 478.7 284.3 475.9 282.5 475.9 282.5 462.5 284.3 462.5 284.3 461.5 290.1 461.5 290.1 462.5 291.9 462.5"/>
  <circle class="cls-8" cx="266.1" cy="457" r="3.2"/>
  <polygon class="cls-8" points="270.9 462.5 270.9 475.9 269.1 475.9 269.1 478.7 268.4 478.7 268.4 494.5 264 494.5 264 478.7 263.3 478.7 263.3 475.9 261.5 475.9 261.5 462.5 263.3 462.5 263.3 461.5 269.1 461.5 269.1 462.5 270.9 462.5"/>
  <line class="cls-18" x1="276.6" y1="453.5" x2="276.6" y2="494.5"/>
  <g class="cls-11">
    <text class="cls-14" transform="translate(268.3 451.3)"><tspan x="0" y="0">LIF</tspan></text>
    <text class="cls-12" transform="translate(268.3 451.3)"><tspan x="0" y="0">LIF</tspan></text>
    <text class="cls-13" transform="translate(281.5 451.3)"><tspan x="0" y="0">T</tspan></text>
    <text class="cls-15" transform="translate(281.5 451.3)"><tspan x="0" y="0">T</tspan></text>
  </g>
</svg>