<?xml version="1.0" encoding="UTF-8"?>
<svg id="_图层_1" data-name="图层 1" xmlns="http://www.w3.org/2000/svg" xmlns:xlink="http://www.w3.org/1999/xlink" viewBox="0 0 1459 1052">
  <defs>
    <style>
      .cls-1 {
        fill: #545454;
      }

      .cls-1, .cls-2, .cls-3 {
        stroke-width: 0px;
      }

      .cls-4 {
        stroke: #a0a1a6;
      }

      .cls-4, .cls-5, .cls-6, .cls-7, .cls-8, .cls-9 {
        stroke-miterlimit: 10;
      }

      .cls-4, .cls-6, .cls-7, .cls-8 {
        fill: none;
      }

      .cls-5 {
        font-family: ArialMT, Arial;
        font-size: 9.1px;
        stroke-width: .25px;
      }

      .cls-5, .cls-6 {
        stroke: #fff;
      }

      .cls-5, .cls-9, .cls-3 {
        fill: #fff;
      }

      .cls-2 {
        fill: #a0a1a6;
      }

      .cls-7 {
        stroke-width: 3px;
      }

      .cls-7, .cls-8, .cls-9 {
        stroke: #545454;
      }

      .cls-10 {
        letter-spacing: -.02em;
      }
    </style>
    <symbol id="_新建符号_1" data-name="新建符号 1" viewBox="0 0 278.41 281.85">
      <g>
        <path class="cls-2" d="M264.59,246.22l-.15-.3c.11,2.59.15,5.21.15,7.83,0,29.71-19.03,33.66-46.86,22.06.81-7.24,1.26-14.6,1.26-22.06,0-105.42-85.47-190.9-190.89-190.9-7.46,0-14.82.44-22.06,1.26C-5.56,36.29-1.61,17.26,28.1,17.26l146.55,1.26,90.53,90.53-.59,137.17Z"/>
        <path class="cls-4" d="M199.6,31.45l-11.7-11.7c-.83-.83-.83-2.17,0-2.99l15.63-15.63c.83-.83,2.17-.83,2.99,0l11.7,11.7c.83.83.83,2.17,0,2.99l-15.63,15.63c-.83.83-2.17.83-2.99,0Z"/>
        <path class="cls-4" d="M219.29,51.14l-11.7-11.7c-.83-.83-.83-2.17,0-2.99l15.63-15.63c.83-.83,2.17-.83,2.99,0l11.7,11.7c.83.83.83,2.17,0,2.99l-15.63,15.63c-.83.83-2.17.83-2.99,0Z"/>
        <path class="cls-4" d="M238.97,70.83l-11.7-11.7c-.83-.83-.83-2.17,0-2.99l15.63-15.63c.83-.83,2.17-.83,2.99,0l11.7,11.7c.83.83.83,2.17,0,2.99l-15.63,15.63c-.83.83-2.17.83-2.99,0Z"/>
        <path class="cls-4" d="M258.66,90.51l-11.7-11.7c-.83-.83-.83-2.17,0-2.99l15.63-15.63c.83-.83,2.17-.83,2.99,0l11.7,11.7c.83.83.83,2.17,0,2.99l-15.63,15.63c-.83.83-2.17.83-2.99,0Z"/>
      </g>
    </symbol>
    <symbol id="_新建符号_2" data-name="新建符号 2" viewBox="0 0 110 75">
      <use width="110" height="75.17" transform="" xlink:href="#_桌椅"/>
    </symbol>
    <symbol id="_新建符号_3" data-name="新建符号 3" viewBox="0 0 252 49.5">
      <g>
        <g>
          <rect class="cls-7" x="1.5" y="1.5" width="249" height="46.5"/>
          <line class="cls-7" x1="233.1" y1="47.9" x2="233.1" y2="1.5"/>
          <line class="cls-7" x1="213.9" y1="47.9" x2="213.9" y2="1.5"/>
          <line class="cls-7" x1="194.7" y1="47.9" x2="194.7" y2="1.5"/>
          <line class="cls-7" x1="175.5" y1="47.9" x2="175.5" y2="1.5"/>
          <line class="cls-7" x1="156.3" y1="47.9" x2="156.3" y2="1.5"/>
          <line class="cls-7" x1="137.1" y1="47.9" x2="137.1" y2="1.5"/>
          <line class="cls-7" x1="117.9" y1="47.9" x2="117.9" y2="1.5"/>
          <line class="cls-7" x1="98.7" y1="47.9" x2="98.7" y2="1.5"/>
          <line class="cls-7" x1="79.5" y1="47.9" x2="79.5" y2="1.5"/>
          <line class="cls-7" x1="60.3" y1="47.9" x2="60.3" y2="1.5"/>
          <line class="cls-7" x1="41.1" y1="47.9" x2="41.1" y2="1.5"/>
          <line class="cls-7" x1="21.9" y1="47.9" x2="21.9" y2="1.5"/>
        </g>
        <polyline class="cls-8" points="250.5 24.7 41.1 24.7 51.7 30.3"/>
        <polyline class="cls-8" points="250.5 24.7 41.1 24.7 51.7 19.1"/>
      </g>
    </symbol>
    <symbol id="_桌椅" data-name="桌椅" viewBox="0 0 110 75.17">
      <g>
        <g>
          <g>
            <path class="cls-4" d="M24.08,11.2v11.47H7.09v-11.47c0-4.35,2.98-7.88,6.65-7.88h3.69c3.67,0,6.65,3.53,6.65,7.88Z"/>
            <path class="cls-4" d="M4.5,3.46s10.46-6.65,22.17,0"/>
            <path class="cls-4" d="M4.5,7.76s10.46-11.71,22.17,0"/>
            <polyline class="cls-4" points="7.25 2.39 8.24 4.05 9.47 1.79 11.22 2.62 15.21 1.08 19.71 2.47 21.94 1.81 22.64 3.83 24.46 2.56"/>
          </g>
          <g>
            <path class="cls-4" d="M49.95,11.2v11.47h-17v-11.47c0-4.35,2.98-7.88,6.65-7.88h3.69c3.67,0,6.65,3.53,6.65,7.88Z"/>
            <path class="cls-4" d="M30.36,3.46s10.46-6.65,22.17,0"/>
            <path class="cls-4" d="M30.36,7.76s10.46-11.71,22.17,0"/>
            <polyline class="cls-4" points="33.11 2.39 34.1 4.05 35.34 1.79 37.08 2.62 41.08 1.08 45.58 2.47 47.81 1.81 48.5 3.83 50.33 2.56"/>
          </g>
          <g>
            <path class="cls-4" d="M76.55,11.2v11.47h-17v-11.47c0-4.35,2.98-7.88,6.65-7.88h3.69c3.67,0,6.65,3.53,6.65,7.88Z"/>
            <path class="cls-4" d="M56.97,3.46s10.46-6.65,22.17,0"/>
            <path class="cls-4" d="M56.97,7.76s10.46-11.71,22.17,0"/>
            <polyline class="cls-4" points="59.72 2.39 60.71 4.05 61.94 1.79 63.69 2.62 67.68 1.08 72.18 2.47 74.41 1.81 75.11 3.83 76.93 2.56"/>
          </g>
          <g>
            <path class="cls-4" d="M102.41,11.2v11.47h-17v-11.47c0-4.35,2.98-7.88,6.65-7.88h3.69c3.67,0,6.65,3.53,6.65,7.88Z"/>
            <path class="cls-4" d="M82.83,3.46s10.46-6.65,22.17,0"/>
            <path class="cls-4" d="M82.83,7.76s10.46-11.71,22.17,0"/>
            <polyline class="cls-4" points="85.58 2.39 86.57 4.05 87.8 1.79 89.55 2.62 93.55 1.08 98.04 2.47 100.27 1.81 100.97 3.83 102.79 2.56"/>
          </g>
        </g>
        <g>
          <g>
            <path class="cls-4" d="M85.42,63.97v-11.47s17,0,17,0v11.47c0,4.35-2.98,7.88-6.65,7.88h-3.69c-3.67,0-6.65-3.53-6.65-7.88Z"/>
            <path class="cls-4" d="M105,71.71s-10.46,6.65-22.17,0"/>
            <path class="cls-4" d="M105,67.41s-10.46,11.71-22.17,0"/>
            <polyline class="cls-4" points="102.25 72.78 101.26 71.12 100.03 73.38 98.28 72.55 94.29 74.09 89.79 72.7 87.56 73.35 86.86 71.34 85.04 72.61"/>
          </g>
          <g>
            <path class="cls-4" d="M59.55,63.97v-11.47s17,0,17,0v11.47c0,4.35-2.98,7.88-6.65,7.88h-3.69c-3.67,0-6.65-3.53-6.65-7.88Z"/>
            <path class="cls-4" d="M79.14,71.71s-10.46,6.65-22.17,0"/>
            <path class="cls-4" d="M79.14,67.41s-10.46,11.71-22.17,0"/>
            <polyline class="cls-4" points="76.39 72.78 75.4 71.12 74.16 73.38 72.42 72.55 68.42 74.09 63.92 72.7 61.69 73.35 61 71.34 59.17 72.61"/>
          </g>
          <g>
            <path class="cls-4" d="M32.95,63.97v-11.47s17,0,17,0v11.47c0,4.35-2.98,7.88-6.65,7.88h-3.69c-3.67,0-6.65-3.53-6.65-7.88Z"/>
            <path class="cls-4" d="M52.53,71.71s-10.46,6.65-22.17,0"/>
            <path class="cls-4" d="M52.53,67.41s-10.46,11.71-22.17,0"/>
            <polyline class="cls-4" points="49.78 72.78 48.79 71.12 47.56 73.38 45.81 72.55 41.82 74.09 37.32 72.7 35.09 73.35 34.39 71.34 32.57 72.61"/>
          </g>
          <g>
            <path class="cls-4" d="M7.09,63.97v-11.47s17,0,17,0v11.47c0,4.35-2.98,7.88-6.65,7.88h-3.69c-3.67,0-6.65-3.53-6.65-7.88Z"/>
            <path class="cls-4" d="M26.67,71.71s-10.46,6.65-22.17,0"/>
            <path class="cls-4" d="M26.67,67.41s-10.46,11.71-22.17,0"/>
            <polyline class="cls-4" points="23.92 72.78 22.93 71.12 21.7 73.38 19.95 72.55 15.95 74.09 11.46 72.7 9.23 73.35 8.53 71.34 6.71 72.61"/>
          </g>
        </g>
        <rect class="cls-2" y="21.67" width="110" height="32"/>
      </g>
    </symbol>
  </defs>
  <g>
    <use width="278.41" height="281.85" transform="translate(739.55 733.98) rotate(-180)" xlink:href="#_新建符号_1"/>
    <use width="278.41" height="281.85" transform="translate(457.42 511.26) rotate(-90)" xlink:href="#_新建符号_1"/>
    <use width="278.41" height="281.85" transform="translate(682.42 733.98) scale(1 -1)" xlink:href="#_新建符号_1"/>
    <use width="278.41" height="281.85" transform="translate(964.55 511.26) rotate(-90) scale(1 -1)" xlink:href="#_新建符号_1"/>
  </g>
  <use width="110" height="75" transform="translate(0 34)" xlink:href="#_新建符号_2"/>
  <use width="110" height="75" transform="translate(0 140)" xlink:href="#_新建符号_2"/>
  <use width="110" height="75" transform="translate(0 246)" xlink:href="#_新建符号_2"/>
  <use width="110" height="75" transform="translate(0 352)" xlink:href="#_新建符号_2"/>
  <use width="110" height="75" transform="translate(0 458)" xlink:href="#_新建符号_2"/>
  <use width="110" height="75" transform="translate(0 564)" xlink:href="#_新建符号_2"/>
  <use width="110" height="75" transform="translate(0 670)" xlink:href="#_新建符号_2"/>
  <use width="110" height="75" transform="translate(0 776)" xlink:href="#_新建符号_2"/>
  <use width="110" height="75" transform="translate(0 882)" xlink:href="#_新建符号_2"/>
  <use width="110" height="75" transform="translate(1349 34)" xlink:href="#_新建符号_2"/>
  <use width="110" height="75" transform="translate(376)" xlink:href="#_新建符号_2"/>
  <use width="110" height="75" transform="translate(519)" xlink:href="#_新建符号_2"/>
  <use width="110" height="75" transform="translate(662)" xlink:href="#_新建符号_2"/>
  <use width="110" height="75" transform="translate(805)" xlink:href="#_新建符号_2"/>
  <use width="110" height="75" transform="translate(948)" xlink:href="#_新建符号_2"/>
  <use width="110" height="75" transform="translate(375 977)" xlink:href="#_新建符号_2"/>
  <use width="110" height="75" transform="translate(518 977)" xlink:href="#_新建符号_2"/>
  <use width="110" height="75" transform="translate(661 977)" xlink:href="#_新建符号_2"/>
  <use width="110" height="75" transform="translate(804 977)" xlink:href="#_新建符号_2"/>
  <use width="110" height="75" transform="translate(947 977)" xlink:href="#_新建符号_2"/>
  <use width="110" height="75" transform="translate(1349 140)" xlink:href="#_新建符号_2"/>
  <use width="110" height="75" transform="translate(1349 246)" xlink:href="#_新建符号_2"/>
  <use width="110" height="75" transform="translate(1349 352)" xlink:href="#_新建符号_2"/>
  <use width="110" height="75" transform="translate(1349 458)" xlink:href="#_新建符号_2"/>
  <use width="110" height="75" transform="translate(1349 564)" xlink:href="#_新建符号_2"/>
  <use width="110" height="75" transform="translate(1349 670)" xlink:href="#_新建符号_2"/>
  <use width="110" height="75" transform="translate(1349 776)" xlink:href="#_新建符号_2"/>
  <use width="110" height="75" transform="translate(1349 882)" xlink:href="#_新建符号_2"/>
  <g>
    <rect class="cls-1" x="1115.08" y="855.72" width="43.07" height="52"/>
    <circle class="cls-3" cx="1147.12" cy="866.66" r="3.22"/>
    <polygon class="cls-9" points="1151.85 872.12 1151.85 885.54 1150.11 885.54 1150.11 888.35 1149.37 888.35 1149.37 904.18 1145.01 904.18 1145.01 888.35 1144.34 888.35 1144.34 885.54 1142.46 885.54 1142.46 872.12 1144.34 872.12 1144.34 871.12 1150.11 871.12 1150.11 872.12 1151.85 872.12"/>
    <circle class="cls-3" cx="1127.27" cy="866.66" r="3.22"/>
    <polygon class="cls-9" points="1136.96 885.47 1136.96 888.35 1129.45 888.35 1129.45 904.18 1125.09 904.18 1125.09 888.35 1117.58 888.35 1117.58 885.47 1119.68 885.47 1122.54 882.55 1122.54 872.12 1124.42 872.12 1124.42 871.12 1130.18 871.12 1130.18 872.12 1131.93 872.12 1131.93 882.48 1134.86 885.47 1136.96 885.47"/>
  </g>
  <g>
    <rect class="cls-1" x="255.08" y="443.08" width="43.07" height="52"/>
    <circle class="cls-3" cx="287.12" cy="457.02" r="3.22"/>
    <polygon class="cls-9" points="291.85 462.48 291.85 475.9 290.11 475.9 290.11 478.71 289.37 478.71 289.37 494.54 285.01 494.54 285.01 478.71 284.34 478.71 284.34 475.9 282.46 475.9 282.46 462.48 284.34 462.48 284.34 461.48 290.11 461.48 290.11 462.48 291.85 462.48"/>
    <circle class="cls-3" cx="266.12" cy="457.02" r="3.22"/>
    <polygon class="cls-9" points="270.85 462.48 270.85 475.9 269.11 475.9 269.11 478.71 268.37 478.71 268.37 494.54 264.01 494.54 264.01 478.71 263.34 478.71 263.34 475.9 261.46 475.9 261.46 462.48 263.34 462.48 263.34 461.48 269.11 461.48 269.11 462.48 270.85 462.48"/>
    <line class="cls-6" x1="276.62" y1="453.49" x2="276.62" y2="494.49"/>
    <text class="cls-5" transform="translate(268.33 451.3)"><tspan x="0" y="0">LIF</tspan><tspan class="cls-10" x="13.15" y="0">T</tspan></text>
  </g>
  <use width="252" height="49.5" transform="translate(413.67 152.78)" xlink:href="#_新建符号_3"/>
  <use width="252" height="49.5" transform="translate(1013.67 152.78) rotate(-180) scale(1 -1)" xlink:href="#_新建符号_3"/>
  <use width="252" height="49.5" transform="translate(416.67 783.78)" xlink:href="#_新建符号_3"/>
  <use width="252" height="49.5" transform="translate(1016.67 783.78) rotate(-180) scale(1 -1)" xlink:href="#_新建符号_3"/>
</svg>