<?xml version="1.0" encoding="UTF-8"?>
<svg id="_图层_1" data-name=" 图层 1" xmlns="http://www.w3.org/2000/svg" version="1.1" xmlns:xlink="http://www.w3.org/1999/xlink" viewBox="0 0 1762.2 1386.6">
  <defs>
    <style>
      .cls-1 {
        font-size: 2.6px;
      }

      .cls-1, .cls-2, .cls-3, .cls-4, .cls-5, .cls-6, .cls-7, .cls-8, .cls-9, .cls-10 {
        isolation: isolate;
      }

      .cls-1, .cls-2, .cls-4, .cls-6, .cls-7, .cls-8, .cls-9, .cls-10 {
        font-family: ArialMT, Arial;
      }

      .cls-1, .cls-11 {
        fill: #000;
      }

      .cls-2 {
        font-size: 42.5px;
      }

      .cls-2, .cls-4, .cls-5, .cls-7, .cls-8, .cls-12, .cls-13, .cls-10, .cls-14 {
        fill: #fff;
      }

      .cls-15, .cls-16, .cls-17 {
        fill: #545454;
      }

      .cls-15, .cls-17, .cls-18, .cls-6, .cls-19, .cls-20, .cls-21, .cls-22, .cls-12, .cls-9, .cls-23, .cls-14 {
        stroke-miterlimit: 10;
      }

      .cls-15, .cls-20, .cls-22, .cls-12, .cls-23 {
        stroke: #545454;
      }

      .cls-16, .cls-11, .cls-24, .cls-25, .cls-26, .cls-13 {
        stroke-width: 0px;
      }

      .cls-24 {
        fill: #a0a1a6;
      }

      .cls-4, .cls-5 {
        font-size: 11px;
      }

      .cls-25 {
        fill: #953600;
      }

      .cls-26, .cls-18, .cls-6, .cls-20, .cls-21, .cls-22, .cls-9, .cls-23 {
        fill: none;
      }

      .cls-5 {
        font-family: AdobeSongStd-Light-GBpc-EUC-H, 'Adobe Song Std';
        font-weight: 300;
      }

      .cls-17, .cls-18, .cls-6, .cls-19, .cls-21, .cls-9, .cls-14 {
        stroke: #fff;
      }

      .cls-6, .cls-19, .cls-9, .cls-14 {
        stroke-width: .2px;
      }

      .cls-6, .cls-7, .cls-8, .cls-9 {
        font-size: 9.1px;
      }

      .cls-19 {
        fill: #f60006;
      }

      .cls-7, .cls-9 {
        letter-spacing: 0em;
      }

      .cls-20 {
        stroke-width: 3px;
      }

      .cls-27 {
        clip-path: url(#clippath);
      }

      .cls-21 {
        stroke-width: .5px;
      }

      .cls-10 {
        font-size: 39.4px;
      }

      .cls-23 {
        stroke-width: 4px;
      }
    </style>
    <symbol id="AED" viewBox="0 0 10.5 10.8">
      <g>
        <g>
          <path class="cls-19" d="M10.4,7.9c0-.8-.3-1.5-.8-2h0L5.3.2,1,5.9c-.5.5-.9,1.2-.9,2,0,1.5,1.3,2.8,2.8,2.8s1.8-.5,2.3-1.3c.5.8,1.4,1.3,2.3,1.3,1.5,0,2.8-1.2,2.8-2.8h0Z"/>
          <polyline class="cls-21" points="5.3 8.9 4.4 6.2 6.6 7.3 5.4 2.1"/>
          <polygon class="cls-14" points="5.2 1.4 5.1 2.4 6 2.2 5.2 1.4"/>
        </g>
        <g class="cls-3">
          <text class="cls-1" transform="translate(2.6 5.7) scale(1 -1)"><tspan x="0" y="0">AED</tspan></text>
        </g>
      </g>
    </symbol>
    <clipPath id="clippath">
      <rect class="cls-26" x="521.4" y="265.4" width="31.1" height="32.2"/>
    </clipPath>
  </defs>
  <path class="cls-24" d="M920.9,417.9c-8,0-9.1,5.1-6,12.7,2-.2,4-.3,6-.3,28.5,0,51.7,23.1,51.7,51.7s-.1,4-.3,6c7.5,3.1,12.7,2.1,12.7-6,0-35.4-28.7-64-64-64h0Z"/>
  <path class="cls-24" d="M984.9,548.5c0-8-5.2-9.1-12.7-6,.2,2,.3,4,.3,6,0,28.5-23.1,51.7-51.7,51.7s-4-.1-6-.3c-3.1,7.5-2.1,12.7,6,12.7,35.3,0,64-28.7,64-64h0Z"/>
  <path class="cls-24" d="M785.3,481.9c0,8,5.2,9.1,12.7,6-.2-2-.3-4-.3-6,0-28.5,23.1-51.7,51.7-51.7s4,.1,6,.3c3.1-7.5,2.1-12.7-6-12.7-35.3,0-64,28.6-64,64h0Z"/>
  <path class="cls-24" d="M849.3,612.5c8,0,9.1-5.2,6-12.7-2,.2-4,.3-6,.3-28.5,0-51.7-23.1-51.7-51.7s.1-4,.3-6c-7.5-3.1-12.7-2.1-12.7,6,0,35.3,28.7,64,64,64h0Z"/>
  <g>
    <rect class="cls-15" x="1308.1" y="495.6" width="14.5" height="2.8"/>
    <rect class="cls-15" x="1308.1" y="542.8" width="14.5" height="2.8"/>
    <rect class="cls-15" x="1313.1" y="503.1" width="4.9" height="34.9"/>
  </g>
  <g>
    <rect class="cls-15" x="447.1" y="495.6" width="14.5" height="2.8"/>
    <rect class="cls-15" x="447.1" y="542.8" width="14.5" height="2.8"/>
    <rect class="cls-15" x="452.1" y="503.1" width="4.9" height="34.9"/>
  </g>
  <g>
    <rect class="cls-15" x="860.4" y="61.3" width="2.8" height="14.5"/>
    <rect class="cls-15" x="907.6" y="61.3" width="2.8" height="14.5"/>
    <rect class="cls-15" x="867.9" y="65.9" width="34.9" height="4.9"/>
  </g>
  <g>
    <rect class="cls-15" x="860.4" y="959.3" width="2.8" height="14.5"/>
    <rect class="cls-15" x="907.6" y="959.3" width="2.8" height="14.5"/>
    <rect class="cls-15" x="867.9" y="963.9" width="34.9" height="4.9"/>
  </g>
  <path class="cls-23" d="M842.4,68.4h-363.2c-13.6,0-24.6,11-24.6,24.6v388.1"/>
  <path class="cls-23" d="M928.6,68.4h363.3c13.6,0,24.6,11,24.6,24.6v388.1"/>
  <path class="cls-23" d="M842.4,967.2h-363.2c-13.6,0-24.6-11-24.6-24.6v-388.1"/>
  <path class="cls-23" d="M928.6,967.2h363.3c13.6,0,24.6-11,24.6-24.6v-388.1"/>
  <g>
    <path class="cls-15" d="M894.3,1238.6l-4.6,13c-.2,1.2-.3,2.3-.5,3.3,0,.2,0,.5-.2.7-.8,3.7-2,6-3.3,6s-2.5-2.3-3.3-6c0-.2,0-.5-.2-.7-.2-1.2-.5-2.5-.6-3.9l-4.4-12.4,5.2-7c.1-.6.3-1.2.5-1.8-1.6-1.8-2.6-4.8-2.6-8.2s.1-2.3.4-3.4l-2.8-6.2c2.9-1.6,6.3-2.4,9.7-2.1,2.2.2,4.3.9,6.2,1.9l-2.2,4.7c.5,1.5.8,3.2.8,5,0,4-1.4,7.4-3.4,9,.1.5.3,1.1.4,1.7v-.7l5.2,7h0Z"/>
    <path class="cls-15" d="M889.2,1254.9v33.7h-7v-33.7c0,.2,0,.5.2.7.8,3.7,2,6,3.3,6s2.5-2.3,3.3-6c0-.2.1-.5.2-.7Z"/>
    <rect class="cls-15" x="877.2" y="1290.6" width="17" height="4" rx="1.6" ry="1.6"/>
    <rect class="cls-15" x="872.2" y="1296.6" width="27" height="4" rx="1.6" ry="1.6"/>
    <g>
      <path class="cls-16" d="M886.7,1229.5c.3,1.2.6,2.4,1,3.6"/>
      <path class="cls-16" d="M885.3,1229.9c.3,1.2.6,2.4,1,3.6.1.4.3.7.7.9.3.2.8.3,1.2.2s.7-.3.9-.7.3-.8.2-1.2c-.4-1.2-.7-2.4-1-3.6,0-.3-.4-.7-.7-.9-.3-.2-.8-.3-1.2-.2s-.7.3-.9.7c-.2.4-.2.7-.2,1.2h0Z"/>
    </g>
    <g>
      <path class="cls-16" d="M886.8,1230.2c.2,0,.3.3.3.5.2.8.4,1.6.7,2.3"/>
      <path class="cls-16" d="M886.4,1231.7s0,0,0,0l-.4-.2s0,0,0,0l-.3-.2s0,0,0,0l-.2-.3c0,0,0,0,0,.2l-.2-.4c.2.4.2.8.3,1.2.1.4.2.9.4,1.3,0,.4.4.7.7.9s.8.3,1.2.2.7-.3.9-.7.3-.8.2-1.2c-.2-.6-.3-1.2-.5-1.7,0-.3-.1-.5-.2-.8-.1-.3-.2-.6-.5-.8-.2-.2-.5-.4-.8-.5-.4,0-.8,0-1.2.2-.3.2-.6.5-.7.9,0,.4,0,.8.2,1.2s.5.6.9.7h0Z"/>
    </g>
    <g>
      <path class="cls-16" d="M887.3,1230c.4,1.7.7,3.4.8,5.2"/>
      <path class="cls-16" d="M885.8,1230.4c.3,1.1.5,2.3.7,3.5v-.4c0,.6,0,1.1.1,1.7,0,.4.1.8.4,1.1.3.3.7.5,1.1.4.8,0,1.6-.7,1.5-1.5-.2-1.9-.5-3.7-.9-5.6-.2-.8-1.1-1.3-1.8-1.1-.8.3-1.2,1-1,1.8h0Z"/>
    </g>
  </g>
  <g>
    <rect class="cls-15" x="822" y="1342.1" width="7" height="44"/>
    <rect class="cls-15" x="941" y="1342.1" width="7" height="44"/>
    <rect class="cls-15" x="841" y="1356.1" width="88" height="15"/>
  </g>
  <g class="cls-3">
    <text class="cls-4" transform="translate(841 1340.2)"><tspan x="0" y="0">Southern Entrance</tspan></text>
    <text class="cls-5" transform="translate(875.8 1353.4)"><tspan x="0" y="0">南门</tspan></text>
  </g>
  <path class="cls-17" d="M.7,506.6l70.6,90.1c12.5-9.8,27-17.5,43.1-22.4,25.2-7.6,50.9-7.4,74.5-.6l31.6-110c-44-12.6-92.1-13.1-139.2,1.1-30.1,9.1-57.2,23.5-80.5,41.8h0Z"/>
  <g class="cls-3">
    <text class="cls-2" transform="translate(88.4 528.9)"><tspan x="0" y="0">A2</tspan></text>
  </g>
  <path class="cls-17" d="M1761.4,502.7l-65.5,83.5c-11.6-9.1-25-16.2-40-20.7-23.4-7.1-47.2-6.8-69.1-.6l-29.3-102c40.8-11.7,85.4-12.2,129.1,1.1,27.9,8.5,53,21.8,74.7,38.7h0Z"/>
  <g class="cls-3">
    <text class="cls-10" transform="translate(1635.4 525.8)"><tspan x="0" y="0">A4</tspan></text>
  </g>
  <g>
    <rect class="cls-25" x="478.8" y="283.1" width="43.1" height="52"/>
    <circle class="cls-13" cx="510.8" cy="297.1" r="3.2"/>
    <polygon class="cls-13" points="515.6 302.5 515.6 316 513.8 316 513.8 318.8 513.1 318.8 513.1 334.6 508.7 334.6 508.7 318.8 508 318.8 508 316 506.2 316 506.2 302.5 508 302.5 508 301.5 513.8 301.5 513.8 302.5 515.6 302.5"/>
    <circle class="cls-13" cx="489.8" cy="297.1" r="3.2"/>
    <polygon class="cls-13" points="494.6 302.5 494.6 316 492.8 316 492.8 318.8 492.1 318.8 492.1 334.6 487.7 334.6 487.7 318.8 487 318.8 487 316 485.2 316 485.2 302.5 487 302.5 487 301.5 492.8 301.5 492.8 302.5 494.6 302.5"/>
    <line class="cls-18" x1="500.3" y1="293.6" x2="500.3" y2="334.6"/>
    <g class="cls-3">
      <text class="cls-8" transform="translate(492 291.4)"><tspan x="0" y="0">LIF</tspan></text>
      <text class="cls-6" transform="translate(492 291.4)"><tspan x="0" y="0">LIF</tspan></text>
      <text class="cls-7" transform="translate(505.2 291.4)"><tspan x="0" y="0">T</tspan></text>
      <text class="cls-9" transform="translate(505.2 291.4)"><tspan x="0" y="0">T</tspan></text>
    </g>
  </g>
  <g>
    <rect class="cls-25" x="478.8" y="695.8" width="43.1" height="52"/>
    <circle class="cls-13" cx="510.8" cy="709.8" r="3.2"/>
    <polygon class="cls-13" points="515.6 715.2 515.6 728.7 513.8 728.7 513.8 731.5 513.1 731.5 513.1 747.3 508.7 747.3 508.7 731.5 508 731.5 508 728.7 506.2 728.7 506.2 715.2 508 715.2 508 714.2 513.8 714.2 513.8 715.2 515.6 715.2"/>
    <circle class="cls-13" cx="489.8" cy="709.8" r="3.2"/>
    <polygon class="cls-13" points="494.6 715.2 494.6 728.7 492.8 728.7 492.8 731.5 492.1 731.5 492.1 747.3 487.7 747.3 487.7 731.5 487 731.5 487 728.7 485.2 728.7 485.2 715.2 487 715.2 487 714.2 492.8 714.2 492.8 715.2 494.6 715.2"/>
    <line class="cls-18" x1="500.3" y1="706.3" x2="500.3" y2="747.3"/>
    <g class="cls-3">
      <text class="cls-8" transform="translate(492 704.1)"><tspan x="0" y="0">LIF</tspan></text>
      <text class="cls-6" transform="translate(492 704.1)"><tspan x="0" y="0">LIF</tspan></text>
      <text class="cls-7" transform="translate(505.2 704.1)"><tspan x="0" y="0">T</tspan></text>
      <text class="cls-9" transform="translate(505.2 704.1)"><tspan x="0" y="0">T</tspan></text>
    </g>
  </g>
  <g>
    <path class="cls-11" d="M529.2,308.9v-8.6h1.1v7.6h4.2v1h-5.4Z"/>
    <path class="cls-11" d="M536.1,308.9v-8.6h1.1v8.6h-1.1Z"/>
    <path class="cls-11" d="M539.3,308.9v-8.6h5.8v1h-4.7v2.7h4v1h-4v3.9h-1.1,0Z"/>
    <path class="cls-11" d="M548.8,308.9v-7.6h-2.8v-1h6.8v1h-2.8v7.6h-1.1,0Z"/>
    <path class="cls-11" d="M559,308.9v-7.6h-2.8v-1h6.8v1h-2.8v7.6h-1.1,0Z"/>
    <path class="cls-11" d="M563.6,304.7c0-1.4.4-2.5,1.2-3.4s1.8-1.2,3-1.2,1.5.2,2.1.6,1.1.9,1.5,1.6.5,1.5.5,2.3-.2,1.6-.5,2.3-.8,1.2-1.5,1.6-1.3.5-2.1.5-1.5-.2-2.2-.6-1.1-.9-1.5-1.6-.5-1.4-.5-2.1h0ZM564.7,304.7c0,1,.3,1.9.8,2.5s1.2.9,2.1.9,1.6-.3,2.1-.9.8-1.5.8-2.6-.1-1.3-.3-1.8-.6-.9-1-1.2-1-.4-1.5-.4c-.8,0-1.5.3-2.1.8s-.9,1.5-.9,2.8h0Z"/>
    <path class="cls-11" d="M576.5,308.9v-8.6h1.1v7.6h4.2v1h-5.4Z"/>
    <path class="cls-11" d="M583.4,308.9v-8.6h1.1v8.6h-1.1Z"/>
    <path class="cls-11" d="M586.5,308.9v-8.6h3.2c.7,0,1.2,0,1.6.3s.7.4.9.8.3.7.3,1.1,0,.7-.3,1-.5.6-.9.8c.5.1.9.4,1.2.8s.4.8.4,1.3,0,.8-.2,1.1-.4.6-.6.8-.6.3-.9.4-.8.1-1.4.1h-3.3,0ZM587.7,303.9h1.9c.5,0,.9,0,1.1-.1.3,0,.5-.2.7-.4s.2-.5.2-.8,0-.5-.2-.8-.3-.4-.6-.5-.7-.1-1.3-.1h-1.7v2.6h0ZM587.7,307.8h2.1c.4,0,.6,0,.8,0,.3,0,.5-.1.7-.2s.3-.3.4-.5.2-.5.2-.7,0-.6-.2-.8-.4-.4-.7-.5-.7-.1-1.3-.1h-2v3h0Z"/>
    <path class="cls-11" d="M594.6,308.9v-8.6h3.8c.8,0,1.3,0,1.8.2s.7.4,1,.8.4.8.4,1.3-.2,1.1-.6,1.5-1,.7-1.8.8c.3.1.5.3.7.4.3.3.7.7.9,1.1l1.5,2.3h-1.4l-1.1-1.8c-.3-.5-.6-.9-.8-1.2s-.4-.5-.6-.6-.3-.2-.5-.2c-.1,0-.3,0-.6,0h-1.3v3.8h-1.1,0ZM595.7,304.1h2.4c.5,0,.9,0,1.2-.2s.5-.3.7-.5.2-.5.2-.8c0-.4-.2-.7-.4-1s-.8-.4-1.4-.4h-2.7v2.8h0Z"/>
    <path class="cls-11" d="M602.3,308.9l3.3-8.6h1.2l3.5,8.6h-1.3l-1-2.6h-3.6l-.9,2.6h-1.2ZM604.8,305.3h2.9l-.9-2.4c-.3-.7-.5-1.3-.6-1.8-.1.5-.3,1.1-.5,1.6l-.9,2.5h0Z"/>
    <path class="cls-11" d="M611.3,308.9v-8.6h3.8c.8,0,1.3,0,1.8.2s.7.4,1,.8.4.8.4,1.3-.2,1.1-.6,1.5-1,.7-1.8.8c.3.1.5.3.7.4.3.3.7.7.9,1.1l1.5,2.3h-1.4l-1.1-1.8c-.3-.5-.6-.9-.8-1.2s-.4-.5-.6-.6-.3-.2-.5-.2c-.1,0-.3,0-.6,0h-1.3v3.8h-1.1,0ZM612.4,304.1h2.4c.5,0,.9,0,1.2-.2s.5-.3.7-.5.2-.5.2-.8c0-.4-.2-.7-.4-1s-.8-.4-1.4-.4h-2.7v2.8h0Z"/>
    <path class="cls-11" d="M622.1,308.9v-3.6l-3.3-5h1.4l1.7,2.6c.3.5.6,1,.9,1.5.3-.5.6-1,.9-1.5l1.7-2.5h1.3l-3.4,5v3.6h-1.1,0Z"/>
    <path class="cls-11" d="M627.2,303.8v-1.2h1.2v1.2h-1.2ZM627.2,308.9v-1.2h1.2v1.2h-1.2Z"/>
    <path class="cls-11" d="M556.2,319.9v-1h3.6v3.2c-.6.5-1.1.8-1.7,1s-1.2.3-1.8.3-1.6-.2-2.3-.5-1.2-.9-1.6-1.6-.5-1.5-.5-2.3.2-1.6.5-2.3.8-1.3,1.5-1.6,1.4-.5,2.3-.5,1.2.1,1.7.3.9.5,1.2.8.5.8.7,1.4l-1,.3c-.1-.4-.3-.8-.5-1s-.5-.5-.8-.6-.8-.2-1.2-.2-1,0-1.3.2-.7.4-.9.6-.4.5-.5.9c-.2.5-.3,1.1-.3,1.7s.1,1.4.4,1.9.7.9,1.2,1.1,1,.4,1.6.4,1,0,1.4-.3.8-.4,1.1-.6v-1.6h-2.5,0Z"/>
    <path class="cls-11" d="M561.5,323.3v-8.6h5.8v1h-4.7v2.7h4v1h-4v3.9h-1.1,0Z"/>
    <path class="cls-11" d="M567.6,323.3v-1.2h1.2v1.2c0,.4,0,.8-.2,1.1s-.4.5-.7.6l-.3-.5c.2-.1.4-.2.5-.4s.2-.5.2-.8h-.6Z"/>
    <path class="cls-11" d="M577.7,323.3h-1v-6.7c-.2.2-.6.5-1,.7s-.8.4-1.1.5v-1c.6-.3,1.1-.6,1.5-1s.8-.8.9-1.1h.7v8.6h0Z"/>
    <path class="cls-11" d="M580.9,323.3v-8.6h5.8v1h-4.7v2.7h4v1h-4v3.9h-1.1,0Z"/>
    <path class="cls-11" d="M587,323.3v-1.2h1.2v1.2c0,.4,0,.8-.2,1.1s-.4.5-.7.6l-.3-.5c.2-.1.4-.2.5-.4s.2-.5.2-.8h-.6Z"/>
    <path class="cls-11" d="M598.6,322.2v1h-5.7c0-.2,0-.5.1-.7.1-.4.4-.8.7-1.1s.8-.8,1.4-1.3c.9-.8,1.6-1.4,1.9-1.8s.5-.9.5-1.3-.2-.8-.5-1.1-.7-.4-1.2-.4-.9.1-1.2.5-.5.7-.5,1.3h-1.1c0-.9.3-1.5.8-2s1.1-.6,2-.6,1.5.2,2,.7.7,1,.7,1.7,0,.7-.2,1-.4.7-.7,1-.9.9-1.6,1.5c-.6.5-1,.9-1.2,1.1s-.3.4-.5.6h4.2Z"/>
    <path class="cls-11" d="M600.2,323.3v-8.6h5.8v1h-4.7v2.7h4v1h-4v3.9h-1.1,0Z"/>
  </g>
  <g>
    <path class="cls-11" d="M528.1,722.9l3.3-8.6h1.2l3.5,8.6h-1.3l-1-2.6h-3.6l-.9,2.6h-1.2ZM530.6,719.3h2.9l-.9-2.4c-.3-.7-.5-1.3-.6-1.8-.1.5-.3,1.1-.5,1.6l-.9,2.5h0Z"/>
    <path class="cls-11" d="M537,722.9v-8.6h3c.7,0,1.2,0,1.5.1.5.1.9.3,1.3.6.5.4.8.9,1,1.5s.3,1.3.3,2,0,1.2-.2,1.7-.3.9-.6,1.2-.5.6-.8.8-.6.3-1,.4-.9.2-1.4.2h-3.1ZM538.2,721.8h1.8c.6,0,1,0,1.3-.2s.6-.2.8-.5c.3-.3.5-.6.6-1.1s.2-1,.2-1.7-.2-1.6-.4-2.1-.7-.8-1.1-1c-.3-.1-.8-.2-1.5-.2h-1.8v6.6h0Z"/>
    <path class="cls-11" d="M545.7,722.9v-8.6h1.7l2,6.1c.2.6.3,1,.4,1.3,0-.3.2-.8.5-1.4l2.1-6h1.5v8.6h-1.1v-7.2l-2.5,7.2h-1l-2.5-7.3v7.3h-1.1,0Z"/>
    <path class="cls-11" d="M555.9,722.9v-8.6h1.1v8.6h-1.1Z"/>
    <path class="cls-11" d="M559,722.9v-8.6h1.2l4.5,6.7v-6.7h1.1v8.6h-1.2l-4.5-6.8v6.8h-1.1Z"/>
    <path class="cls-11" d="M567.9,722.9v-8.6h1.1v8.6h-1.1Z"/>
    <path class="cls-11" d="M570.6,720.1h1.1c0,.3.2.7.3,1s.5.5.9.7.8.2,1.3.2.8,0,1.2-.2.6-.3.7-.5.2-.5.2-.7,0-.5-.2-.7-.4-.4-.8-.5c-.2,0-.7-.2-1.5-.4s-1.3-.4-1.7-.5c-.4-.2-.7-.5-.9-.8s-.3-.7-.3-1.1.1-.8.4-1.2.6-.7,1.1-.9,1-.3,1.6-.3,1.2,0,1.7.3.9.5,1.1.9.4.8.4,1.3h-1.1c0-.5-.3-.9-.6-1.1s-.8-.4-1.5-.4-1.2.1-1.5.4-.5.6-.5.9.1.6.3.8c.2.2.8.4,1.7.6s1.6.4,1.9.5c.5.2.9.5,1.1.9s.4.8.4,1.2-.1.9-.4,1.3-.6.7-1.1.9-1,.3-1.7.3-1.4-.1-2-.3-.9-.6-1.2-1-.5-1-.5-1.5h0Z"/>
    <path class="cls-11" d="M581.2,722.9v-7.6h-2.8v-1h6.8v1h-2.8v7.6h-1.1,0Z"/>
    <path class="cls-11" d="M586.4,722.9v-8.6h3.8c.8,0,1.3,0,1.8.2s.7.4,1,.8.4.8.4,1.3-.2,1.1-.6,1.5-1,.7-1.8.8c.3.1.5.3.7.4.3.3.7.7.9,1.1l1.5,2.3h-1.4l-1.1-1.8c-.3-.5-.6-.9-.8-1.2s-.4-.5-.6-.6-.3-.2-.5-.2c-.1,0-.3,0-.6,0h-1.3v3.8h-1.1,0ZM587.5,718.1h2.4c.5,0,.9,0,1.2-.2s.5-.3.7-.5.2-.5.2-.8c0-.4-.2-.7-.4-1s-.8-.4-1.4-.4h-2.7v2.8h0Z"/>
    <path class="cls-11" d="M594.1,722.9l3.3-8.6h1.2l3.5,8.6h-1.3l-1-2.6h-3.6l-.9,2.6h-1.2ZM596.6,719.3h2.9l-.9-2.4c-.3-.7-.5-1.3-.6-1.8-.1.5-.3,1.1-.5,1.6l-.9,2.5h0Z"/>
    <path class="cls-11" d="M604.3,722.9v-7.6h-2.8v-1h6.8v1h-2.8v7.6h-1.1,0Z"/>
    <path class="cls-11" d="M609.7,722.9v-8.6h1.1v8.6h-1.1Z"/>
    <path class="cls-11" d="M612.5,718.7c0-1.4.4-2.5,1.2-3.3s1.8-1.2,3-1.2,1.5.2,2.1.6,1.1.9,1.5,1.6.5,1.5.5,2.3-.2,1.7-.5,2.3-.8,1.2-1.5,1.6-1.3.5-2.1.5-1.5-.2-2.2-.6-1.1-.9-1.5-1.6-.5-1.4-.5-2.1h0ZM613.6,718.7c0,1,.3,1.8.8,2.5s1.2.9,2.1.9,1.6-.3,2.1-.9.8-1.5.8-2.6-.1-1.3-.3-1.8-.6-.9-1-1.2-1-.4-1.5-.4c-.8,0-1.5.3-2.1.8s-.9,1.5-.9,2.8h0Z"/>
    <path class="cls-11" d="M622.1,722.9v-8.6h1.2l4.5,6.7v-6.7h1.1v8.6h-1.2l-4.5-6.8v6.8h-1.1Z"/>
    <path class="cls-11" d="M634.1,722.9v-8.6h1.1v7.6h4.2v1h-5.4Z"/>
    <path class="cls-11" d="M641,722.9v-8.6h1.1v8.6h-1.1Z"/>
    <path class="cls-11" d="M644.2,722.9v-8.6h5.8v1h-4.7v2.7h4v1h-4v3.9h-1.1,0Z"/>
    <path class="cls-11" d="M653.7,722.9v-7.6h-2.8v-1h6.8v1h-2.8v7.6h-1.1,0Z"/>
    <path class="cls-11" d="M572.5,730.8h-1c0-.3-.2-.6-.4-.8-.3-.3-.6-.5-1-.5s-.6,0-.9.3c-.3.2-.6.6-.8,1.1s-.3,1.1-.3,2c.2-.4.6-.7.9-.9s.8-.3,1.2-.3c.7,0,1.3.3,1.8.8s.7,1.2.7,2-.1,1-.3,1.5-.5.8-1,1.1-.9.4-1.4.4c-.9,0-1.6-.3-2.2-1s-.8-1.7-.8-3.2.3-2.9.9-3.6c.5-.7,1.3-1,2.2-1s1.2.2,1.7.6.7.9.8,1.6h0ZM568.2,734.5c0,.4,0,.7.2,1s.4.6.7.8.6.3.9.3c.5,0,.8-.2,1.2-.5s.5-.8.5-1.5-.2-1.1-.5-1.4-.7-.5-1.2-.5-.9.2-1.2.5-.5.8-.5,1.3Z"/>
    <path class="cls-11" d="M574.2,737.3v-8.6h5.8v1h-4.7v2.7h4v1h-4v3.9h-1.1,0Z"/>
    <path class="cls-11" d="M580.3,737.3v-1.2h1.2v1.2c0,.4,0,.8-.2,1.1s-.4.5-.7.6l-.3-.5c.2,0,.4-.2.5-.4s.2-.5.2-.8h-.6Z"/>
    <path class="cls-11" d="M586.5,729.8v-1h5.6v.8c-.5.6-1.1,1.4-1.6,2.3s-1,2-1.2,3c-.2.7-.3,1.5-.4,2.4h-1.1c0-.7.1-1.5.4-2.5s.6-1.9,1.1-2.8,1-1.6,1.5-2.2h-4.2,0Z"/>
    <path class="cls-11" d="M593.5,737.3v-8.6h5.8v1h-4.7v2.7h4v1h-4v3.9h-1.1,0Z"/>
    <path class="cls-11" d="M599.6,737.3v-1.2h1.2v1.2c0,.4,0,.8-.2,1.1s-.4.5-.7.6l-.3-.5c.2,0,.4-.2.5-.4s.2-.5.2-.8h-.6Z"/>
    <path class="cls-11" d="M607.3,732.6c-.4-.2-.8-.4-1-.7s-.3-.7-.3-1.1c0-.6.2-1.2.7-1.6s1-.6,1.8-.6,1.3.2,1.8.7.7,1,.7,1.6,0,.8-.3,1-.5.5-1,.7c.5.2.9.5,1.2.8s.4.8.4,1.4-.3,1.3-.8,1.8-1.2.8-2,.8-1.5-.2-2-.8-.8-1.1-.8-1.9.1-1,.4-1.4.7-.6,1.2-.8h0ZM606.8,734.8c0,.3,0,.6.2.9s.3.5.6.7.6.2.9.2c.5,0,.9-.2,1.2-.5s.5-.7.5-1.2-.2-.9-.5-1.3-.8-.5-1.3-.5-.9.2-1.2.5-.5.7-.5,1.2h0ZM607.1,730.8c0,.4.1.7.4,1s.6.4,1,.4.7-.1,1-.4.4-.6.4-.9-.1-.7-.4-1-.6-.4-1-.4-.7.1-1,.4-.4.6-.4.9h0Z"/>
    <path class="cls-11" d="M612.9,737.3v-8.6h5.8v1h-4.7v2.7h4v1h-4v3.9h-1.1,0Z"/>
  </g>
  <g class="cls-27">
    <use width="10.5" height="10.8" transform="translate(521.4 297.6) scale(3 -3)" xlink:href="#AED"/>
  </g>
  <g>
    <rect class="cls-16" x="1257.4" y="696.4" width="43.1" height="52"/>
    <circle class="cls-13" cx="1289.4" cy="707.4" r="3.2"/>
    <polygon class="cls-12" points="1294.2 712.8 1294.2 726.2 1292.4 726.2 1292.4 729.1 1291.7 729.1 1291.7 744.9 1287.3 744.9 1287.3 729.1 1286.7 729.1 1286.7 726.2 1284.8 726.2 1284.8 712.8 1286.7 712.8 1286.7 711.8 1292.4 711.8 1292.4 712.8 1294.2 712.8"/>
    <circle class="cls-13" cx="1269.6" cy="707.4" r="3.2"/>
    <polygon class="cls-12" points="1279.3 726.2 1279.3 729.1 1271.8 729.1 1271.8 744.9 1267.4 744.9 1267.4 729.1 1259.9 729.1 1259.9 726.2 1262 726.2 1264.9 723.3 1264.9 712.8 1266.7 712.8 1266.7 711.8 1272.5 711.8 1272.5 712.8 1274.2 712.8 1274.2 723.2 1277.2 726.2 1279.3 726.2"/>
  </g>
  <rect class="cls-16" x="1162.4" y="778.6" width="139" height="173"/>
  <g>
    <path class="cls-13" d="M1179.6,861.6c-.1-.4-.3-1-1-1s-.8.3-.8.8.5.9.9,1.1c.3.2,1.3.5,1.3,1.4s-.6,1.3-1.6,1.4c-.3,0-.6,0-.8-.1-.2,0-.3-.1-.3-.1,0-.2-.1-.7-.2-1.2h.1c.1.4.4,1.3,1.3,1.3s.9-.3.9-1-.6-1-1-1.2c0,0-1.2-.4-1.2-1.3s.5-1.2,1.4-1.2.5,0,.9.2c0,.3,0,.5.1,1h-.1,0Z"/>
    <path class="cls-13" d="M1181.5,865.1c.8,0,.8-.2.8-.7v-3.7h-.5c-1,0-1.1.2-1.3,1h-.1c0-.5,0-.9,0-1.3h.1c0,0,.1.1.2.2s.1,0,.2,0h3c.2,0,.2,0,.3-.2h.1c0,.4,0,.8,0,1.3h-.1c-.2-.8-.5-.9-1.1-.9h-.7v3.7c0,.6,0,.7.8.7h0c0,.1-2,.1-2,.1h0q0-.1,0-.1Z"/>
    <path class="cls-13" d="M1189.5,862.7c0,.9-.1,1.5-.6,2-.3.3-.8.5-1.4.5s-.9,0-1.2-.4c-.4-.3-.6-.8-.6-1.6v-1.9c0-.7,0-.7-.7-.8h0c0-.1,1.8-.1,1.8-.1h0c-.6.1-.7.3-.7.9v1.7c0,1.3.6,1.9,1.6,1.9s1.6-.9,1.6-2.2v-.4c0-.8,0-1.1,0-1.4,0-.2-.3-.4-.8-.4h0c0-.1,1.8-.1,1.8-.1h0c-.4.1-.7.3-.7.5,0,.2,0,.5,0,1.4v.4h0Z"/>
    <path class="cls-13" d="M1190.7,865.1c.7,0,.8-.2.8-.8v-3c0-.6,0-.7-.7-.8h0c0-.1,2.2-.1,2.2-.1.9,0,1.6.2,2.1.6.4.4.6.9.6,1.6,0,2-1.7,2.6-3.2,2.6h-1.7q0-.1,0-.1ZM1191.8,864.3c0,.6.1.7.9.7,1.8,0,2.5-1.2,2.5-2.2s-.3-1.6-1.1-2c-.3-.1-.8-.2-1.6-.2s-.6,0-.7,0c0,0,0,0,0,.1v3.5h0Z"/>
    <path class="cls-13" d="M1196.3,865.1c.7,0,.8-.2.8-.8v-3c0-.7,0-.8-.7-.8h0c0-.1,3.3-.1,3.3-.1,0,.3,0,.7,0,1.2h-.1c-.2-.8-.3-1-1.2-1h-.7c-.2,0-.2,0-.2.2v1.8h.9c.6,0,.7,0,.8-.6h.1v1.4h-.1c-.1-.6-.3-.6-.8-.6h-.9v1.5c0,.7.3.7.9.7s.9,0,1.2-.3c.1-.1.3-.4.4-.8h.1c0,.3-.2,1-.3,1.2h-3.5c0-.1,0,0,0,0Z"/>
    <path class="cls-13" d="M1200.5,865.1c.4,0,.7-.2.7-.4,0-.2,0-.6,0-1.4v-1.6c0-.7,0-.6-.2-.8-.1-.2-.3-.2-.7-.3h0c0-.1.9-.1.9-.1l3.5,4h0v-2.2c0-1.5,0-1.7-.9-1.7h0c0-.1,1.9-.1,1.9-.1h0c-.4.1-.6.3-.7.5,0,.2,0,.6,0,1.3v2.9h0l-3.5-4h0v2c0,.8,0,1.2,0,1.4,0,.2.3.4.8.4h0c0,.1-1.9.1-1.9.1h0c0-.1,0,0,0,0Z"/>
    <path class="cls-13" d="M1207.2,865.1c.8,0,.8-.2.8-.7v-3.7h-.5c-1,0-1.1.2-1.3,1h-.1c0-.5,0-.9,0-1.3h.1c0,0,.1.1.2.2s.1,0,.2,0h3c.2,0,.2,0,.3-.2h.1c0,.4,0,.8,0,1.3h-.1c-.2-.8-.5-.9-1.1-.9h-.7v3.7c0,.6,0,.7.8.7h0c0,.1-2,.1-2,.1h0q0-.1,0-.1Z"/>
    <path class="cls-13" d="M1212.4,865.1c.7,0,.7-.2.7-.8v-3c0-.6,0-.7-.7-.7h0c0-.1,1.8-.1,1.8-.1.8,0,1.6.2,1.6,1.2s-.3,1-.9,1.3c.1.2.4.7.7,1,.4.5.9,1.1,1.3,1.2h0c-.7,0-1.1,0-2.2-1.8-.2-.3-.4-.3-1.1-.3v1.2c0,.6,0,.7.7.8h0c0,.1-1.8.1-1.8.1h0c0-.1,0-.1,0-.1ZM1214,862.9c.4,0,.7,0,.9-.2.2-.2.4-.5.4-.9,0-.8-.5-1.2-1.3-1.2s-.3,0-.4,0c0,0,0,0,0,.2v2.1h.5Z"/>
    <path class="cls-13" d="M1217.1,865.1c.7,0,.8-.2.8-.8v-3c0-.7,0-.8-.7-.8h0c0-.1,3.3-.1,3.3-.1,0,.3,0,.7,0,1.2h-.1c-.2-.8-.3-1-1.2-1h-.7c-.2,0-.2,0-.2.2v1.8h.9c.6,0,.7,0,.8-.6h.1v1.4h-.1c-.1-.6-.3-.6-.8-.6h-.9v1.5c0,.7.3.7.9.7s.9,0,1.2-.3c.1-.1.3-.4.4-.8h.1c0,.3-.2,1-.3,1.2h-3.5c0-.1,0,0,0,0Z"/>
    <path class="cls-13" d="M1226.1,863.8c-.1.4-.3,1-.4,1.3-.2,0-.9.2-1.5.2-2,0-2.8-1.3-2.8-2.4,0-1.5,1.3-2.5,3-2.5s1.2.2,1.4.2c0,.4,0,.7.1,1.2h-.1c-.2-.8-.7-1.2-1.7-1.2-1.5,0-2.2,1-2.2,2.2s.9,2.4,2.2,2.4,1.5-.6,1.8-1.3h.1s0,0,0,0Z"/>
    <path class="cls-13" d="M1226.6,865.1c.7,0,.7-.2.7-.8v-3c0-.6,0-.7-.7-.7h0c0-.1,1.8-.1,1.8-.1.8,0,1.6.2,1.6,1.2s-.3,1-.9,1.3c.1.2.4.7.7,1,.4.5.9,1.1,1.3,1.2h0c-.7,0-1.1,0-2.2-1.8-.2-.3-.4-.3-1.1-.3v1.2c0,.6,0,.7.7.8h0c0,.1-1.8.1-1.8.1h0c0-.1,0-.1,0-.1ZM1228.2,862.9c.4,0,.7,0,.9-.2.2-.2.4-.5.4-.9,0-.8-.5-1.2-1.3-1.2s-.3,0-.4,0c0,0,0,0,0,.2v2.1h.5Z"/>
    <path class="cls-13" d="M1235.8,862.7c0,.9-.1,1.5-.6,2-.3.3-.8.5-1.4.5s-.9,0-1.2-.4c-.4-.3-.6-.8-.6-1.6v-1.9c0-.7,0-.7-.7-.8h0c0-.1,1.8-.1,1.8-.1h0c-.6.1-.7.3-.7.9v1.7c0,1.3.6,1.9,1.6,1.9s1.6-.9,1.6-2.2v-.4c0-.8,0-1.1,0-1.4,0-.2-.3-.4-.8-.4h0c0-.1,1.8-.1,1.8-.1h0c-.4.1-.7.3-.7.5,0,.2,0,.5,0,1.4v.4h0Z"/>
    <path class="cls-13" d="M1237,865.1c.7,0,.7-.2.7-.8v-3c0-.6,0-.7-.7-.8h0c0-.1,1.8-.1,1.8-.1h0c-.7.1-.7.3-.7.9v3c0,.6,0,.7.7.8h0c0,.1-1.8.1-1.8.1h0Z"/>
    <path class="cls-13" d="M1239.5,860.5h1l2,4,2-4h1.1c-.7.2-.8.2-.7,1v2.7c0,.8.1.9.8.9h0c0,.1-1.8.1-1.8.1h0c.7-.2.7-.3.7-1v-3.2h0l-2,4.1h0l-1.8-3.9h0v2c-.1.3-.1.6-.1.8,0,.7,0,.9.8,1h0c0,.1-1.8.1-1.8.1h0c.5-.1.6-.3.7-.6,0-.2.1-.7.2-1.5v-1.4c.1-.2.1-.4.1-.5,0-.5-.1-.6-.7-.7h0c0-.1,0-.1,0-.1Z"/>
    <path class="cls-13" d="M1246.1,865.1c.7,0,.8-.2.8-.8v-3c0-.7,0-.8-.7-.8h0c0-.1,3.3-.1,3.3-.1,0,.3,0,.7,0,1.2h-.1c-.2-.8-.3-1-1.2-1h-.7c-.2,0-.2,0-.2.2v1.8h.9c.6,0,.7,0,.8-.6h.1v1.4h-.1c-.1-.6-.3-.6-.8-.6h-.9v1.5c0,.7.3.7.9.7s.9,0,1.2-.3c.1-.1.3-.4.4-.8h.1c0,.3-.2,1-.3,1.2h-3.5c0-.1,0,0,0,0Z"/>
    <path class="cls-13" d="M1250.3,865.1c.4,0,.7-.2.7-.4,0-.2,0-.6,0-1.4v-1.6c0-.7,0-.6-.2-.8-.1-.2-.3-.2-.7-.3h0c0-.1.9-.1.9-.1l3.5,4h0v-2.2c0-1.5,0-1.7-.9-1.7h0c0-.1,1.9-.1,1.9-.1h0c-.4.1-.6.3-.7.5,0,.2,0,.6,0,1.3v2.9h0l-3.5-4h0v2c0,.8,0,1.2,0,1.4,0,.2.3.4.8.4h0c0,.1-1.9.1-1.9.1h0c0-.1,0,0,0,0Z"/>
    <path class="cls-13" d="M1257.1,865.1c.8,0,.8-.2.8-.7v-3.7h-.5c-1,0-1.1.2-1.3,1h-.1c0-.5,0-.9,0-1.3h.1c0,0,.1.1.2.2s.1,0,.2,0h3c.2,0,.2,0,.3-.2h.1c0,.4,0,.8,0,1.3h-.1c-.2-.8-.5-.9-1.1-.9h-.7v3.7c0,.6,0,.7.8.7h0c0,.1-2,.1-2,.1h0q0-.1,0-.1Z"/>
    <path class="cls-13" d="M1267.4,862.8c0,1.5-1.2,2.5-2.6,2.5s-2.5-1-2.5-2.4,1-2.5,2.7-2.5,2.5.9,2.5,2.4h0ZM1262.8,862.7c0,1.5.9,2.5,2.2,2.5s1.9-.7,1.9-2-1-2.5-2.2-2.5-1.9.7-1.9,2.1h0Z"/>
    <path class="cls-13" d="M1268,865.1c.6,0,.7-.2.7-.7v-3.1c0-.5,0-.7-.7-.7h0c0-.1,3.2-.1,3.2-.1,0,.4,0,.8,0,1.2h-.1c-.1-.8-.3-1-1.2-1h-.6c-.2,0-.2,0-.2.2v1.8h.9c.7,0,.8,0,.9-.6h.1v1.5h-.1c-.1-.6-.2-.7-.9-.7h-.9v1.5c0,.5,0,.7.8.7h0c0,.1-1.9.1-1.9.1h0c0-.1,0,0,0,0Z"/>
    <path class="cls-13" d="M1271.9,865.1c.6,0,.7-.2.7-.7v-3.1c0-.5,0-.7-.7-.7h0c0-.1,3.2-.1,3.2-.1,0,.4,0,.8,0,1.2h-.1c-.1-.8-.3-1-1.2-1h-.6c-.2,0-.2,0-.2.2v1.8h.9c.7,0,.8,0,.9-.6h.1v1.5h-.1c-.1-.6-.2-.7-.9-.7h-.9v1.5c0,.5,0,.7.8.7h0c0,.1-1.9.1-1.9.1h0c0-.1,0,0,0,0Z"/>
    <path class="cls-13" d="M1275.7,865.1c.7,0,.7-.2.7-.8v-3c0-.6,0-.7-.7-.8h0c0-.1,1.8-.1,1.8-.1h0c-.7.1-.7.3-.7.9v3c0,.6,0,.7.7.8h0c0,.1-1.8.1-1.8.1h0Z"/>
    <path class="cls-13" d="M1282.9,863.8c-.1.4-.3,1-.4,1.3-.2,0-.9.2-1.5.2-2,0-2.8-1.3-2.8-2.4,0-1.5,1.3-2.5,3-2.5s1.2.2,1.4.2c0,.4,0,.7.1,1.2h-.1c-.2-.8-.7-1.2-1.7-1.2-1.5,0-2.2,1-2.2,2.2s.9,2.4,2.2,2.4,1.5-.6,1.8-1.3h.1s0,0,0,0Z"/>
    <path class="cls-13" d="M1283.3,865.1c.7,0,.8-.2.8-.8v-3c0-.7,0-.8-.7-.8h0c0-.1,3.3-.1,3.3-.1,0,.3,0,.7,0,1.2h-.1c-.2-.8-.3-1-1.2-1h-.7c-.2,0-.2,0-.2.2v1.8h.9c.6,0,.7,0,.8-.6h.1v1.4h-.1c-.1-.6-.3-.6-.8-.6h-.9v1.5c0,.7.3.7.9.7s.9,0,1.2-.3c.1-.1.3-.4.4-.8h.1c0,.3-.2,1-.3,1.2h-3.5c0-.1,0,0,0,0Z"/>
    <path class="cls-13" d="M1216.5,869.6s0,0,0,0,0,0,0,0h-1.2v1.5l1-.5h0c0,0-1.1.8-1.1.8v2.7c0,.5,0,.5-.5.7,0,0,0,0,0,0,0,0,0,0,0,0,0-.2-.2-.3-.8-.6h0c.4,0,.7,0,.9,0s.2,0,.2-.2v-2.4c-.9.6-.9.6-1,.8,0,0,0,0,0,0s0,0,0,0l-.3-.3,1.5-.7v-1.6h-.7c-.2,0-.4,0-.5,0l-.2-.3c.2,0,.4,0,.6,0h.9v-.6c0-.3,0-.8,0-1.1l.6.3s0,0,0,0t-.2.2v1.2h.5l.3-.4.4.4h0ZM1220.2,868.6s0,0,0,0,0,0,0,0l-.2.2c0,.3,0,1-.1,1.4,0,.8-.1.8-.7,1.1,0,0,0,0,0,0s0,0,0,0c0-.2-.1-.3-.8-.6h0c.4,0,.6,0,.8,0,.3,0,.4-.2.4-.6,0-.4,0-.9.1-1.4h-1.6c-.2,1.8-.6,2.4-2,3.3h0c1.3-1,1.7-2,1.7-3.3h-.7c-.2,0-.4,0-.5,0l-.2-.3c.2,0,.4,0,.6,0h2.7l.2-.3.5.3h0ZM1220,871.8s0,0,0,0,0,0,0,0h-.2v1.7c0,.3,0,.5,0,.8h0c0,.2,0,.2-.2.3,0,0-.1,0-.1,0,0,0,0,0,0,0v-.5h-2.3v.4c0,.1,0,.1-.1.2,0,0-.1,0-.2,0s0,0,0-.2,0-1,0-1v-1.4c0-.2,0-.5,0-.8l.4.3h2.1l.2-.3.4.3h0ZM1219.5,874v-2h-2.3v2h2.3Z"/>
    <path class="cls-13" d="M1227.8,874.5s0,0,0,0,0,0,0,0h-6c-.2,0-.3,0-.5,0l-.3-.3c.2,0,.3,0,.6,0h2.7v-2.2h-1.6c-.3,0-.4,0-.5,0l-.2-.3c.2,0,.3,0,.6,0h1.8v-1.8h-1.9c-.5,1-.8,1.5-1.2,1.9h0c.6-1,1.2-2.2,1.6-3.5l.5.4s0,0,0,0c0,0,0,0-.1,0-.2,0-.2.1-.6,1h1.8v-1.1c0-.6,0-.8,0-1.1l.7.4s0,0,0,0,0,0,0,0l-.2.2v1.6h1.7l.4-.5.6.6s0,0,0,0,0,0,0,0h-2.6v1.8h1.4l.4-.5.6.6h0c0,0,0,0,0,0h-2.3v2.2h2.2l.3-.5.6.6h0Z"/>
    <path class="cls-13" d="M1233.9,869.7s0,0,0,0,0,0,0,0l-.3.2c0,1,0,2.1-.1,2.8,0,1.1-.2,1.4-.8,1.7,0,0,0,0,0,0,0,0,0,0,0,0,0-.3-.2-.4-1-.6h0c.4,0,.7,0,.9,0,.5,0,.6-.3.7-1.1,0-.8,0-1.7.1-3h-1.7c0,.4,0,.8-.1,1.1-.3,2-1.2,3.2-2.8,3.9h0c2.2-1.4,2.4-3,2.6-5h-1.6c-.1,0-.3,0-.5,0l-.2-.3c.2,0,.4,0,.5,0h1.8c0-.8,0-1.2,0-1.8l.6.3c0,0,0,0,0,0s0,0,0,0l-.2.2c0,.4,0,.8,0,1.2h1.6l.2-.4.5.4h0ZM1229.9,870.5c0,1-.4,1.7-.6,1.8-.2.1-.3.2-.4.2s-.2,0-.2-.2,0-.2.1-.2c.5-.4.9-.7,1-1.6h.1ZM1234,870.6c1,.7,1.4,1.3,1.4,1.6,0,.2-.1.5-.3.5s-.1,0-.2-.2c-.1-.5-.3-1-1.1-1.8h0c0,0,0,0,0,0Z"/>
    <path class="cls-13" d="M1239.1,868.5s0,0,0,0,0,0,0,0c-.2,0-.3.1-.3.2-.6,1.2-1.8,2.7-2.7,3.2h0c1.2-1.1,2.1-2.6,2.5-3.9l.6.3h0ZM1240.2,872.3c.9.7,1.6,1.5,1.6,1.8h0c0,.5-.2.6-.3.6s-.1-.1-.2-.4c0-.1,0-.2-.1-.4l-2.7.3c-.9,0-1.1.1-1.3.2,0,0,0,0,0,0s0,0,0,0l-.3-.5c.4,0,.6-.2.8-.5.7-1,1.3-2,1.6-2.9l.6.3s0,0,0,0,0,0,0,0c-.2,0-.2.1-.3.3-.7,1.1-1.4,2.1-2,2.8h3.6c-.2-.5-.5-1-1-1.5h0c0,0,0,0,0,0ZM1243.1,871.6c-.1,0-.2,0-.3,0-.2,0-.4,0-.5.2,0,0,0,0,0,0s0,0,0,0c-1.1-1.1-1.6-2-2-3.8l.6.2s0,0,0,0c0,0,0,0,0,0l-.2.2c.3,1.3,1.3,2.7,2.5,3h0q0,.1,0,.1Z"/>
    <path class="cls-13" d="M1250.3,874.5s0,0,0,0,0,0,0,0h-5.9c-.2,0-.4,0-.5,0l-.2-.3c.2,0,.4,0,.6,0h2.7v-1.2h-1.6c-.2,0-.4,0-.5,0l-.2-.3c.2,0,.4,0,.5,0h1.8v-.4c0-.3,0-.5,0-.8l.5.3s0,0,0,0,0,0,0,0h-.2v.8h1.4l.3-.4.5.5s0,0,0,0,0,0,0,0h-2.2v1.2h2.2l.3-.5.6.5h0ZM1250.3,869.2s0,0,0,0c0,0,0,0,0,0-.3,0-.5.1-.8.5h0c0,0,.3-.6.3-.6h-5c0,.6-.3,1-.6,1s-.2,0-.2-.2,0-.2.2-.3c.2-.2.4-.4.5-1h.1v.3h5l.2-.3.5.5h0ZM1248,870.7c1,.4,1.7.9,1.7,1.2s0,.3-.2.3-.2,0-.2-.2c0-.1-.1-.2-.2-.4l-3,.2c-.6,0-.9.1-.9.1,0,0,0,0,0,0,0,0,0,0,0,0l-.2-.4c.3,0,.6,0,.7-.2.4-.3.8-.7,1.1-1.1h-1.2c-.2,0-.4,0-.5,0l-.2-.3c.2,0,.4,0,.5,0h3.6l.3-.4.4.5s0,0,0,0,0,0,0,0h-2.4c-.6.5-1.1,1-1.7,1.3h3.6c-.2-.3-.5-.6-1-.8h0c0,0,0-.1,0-.1ZM1246.4,868c.8.3,1,.5,1,.7s-.2.4-.2.4-.2,0-.2-.2c0-.2-.2-.5-.6-.8h0c0,0,0,0,0,0Z"/>
  </g>
  <g>
    <g>
      <rect class="cls-20" x="974.2" y="4.5" width="249" height="46.5"/>
      <line class="cls-20" x1="991.6" y1="4.5" x2="991.6" y2="50.9"/>
      <line class="cls-20" x1="1010.8" y1="4.5" x2="1010.8" y2="50.9"/>
      <line class="cls-20" x1="1030" y1="4.5" x2="1030" y2="50.9"/>
      <line class="cls-20" x1="1049.2" y1="4.5" x2="1049.2" y2="50.9"/>
      <line class="cls-20" x1="1068.4" y1="4.5" x2="1068.4" y2="50.9"/>
      <line class="cls-20" x1="1087.6" y1="4.5" x2="1087.6" y2="50.9"/>
      <line class="cls-20" x1="1106.8" y1="4.5" x2="1106.8" y2="50.9"/>
      <line class="cls-20" x1="1126" y1="4.5" x2="1126" y2="50.9"/>
      <line class="cls-20" x1="1145.2" y1="4.5" x2="1145.2" y2="50.9"/>
      <line class="cls-20" x1="1164.4" y1="4.5" x2="1164.4" y2="50.9"/>
      <line class="cls-20" x1="1183.6" y1="4.5" x2="1183.6" y2="50.9"/>
      <line class="cls-20" x1="1202.8" y1="4.5" x2="1202.8" y2="50.9"/>
    </g>
    <polyline class="cls-22" points="1173 33.3 1183.6 27.7 974.2 27.7"/>
    <polyline class="cls-22" points="1173 22.1 1183.6 27.7 974.2 27.7"/>
  </g>
  <g>
    <g>
      <rect class="cls-20" x="550.2" y="1.5" width="249" height="46.5"/>
      <line class="cls-20" x1="781.8" y1="47.9" x2="781.8" y2="1.5"/>
      <line class="cls-20" x1="762.6" y1="47.9" x2="762.6" y2="1.5"/>
      <line class="cls-20" x1="743.4" y1="47.9" x2="743.4" y2="1.5"/>
      <line class="cls-20" x1="724.2" y1="47.9" x2="724.2" y2="1.5"/>
      <line class="cls-20" x1="705" y1="47.9" x2="705" y2="1.5"/>
      <line class="cls-20" x1="685.8" y1="47.9" x2="685.8" y2="1.5"/>
      <line class="cls-20" x1="666.6" y1="47.9" x2="666.6" y2="1.5"/>
      <line class="cls-20" x1="647.4" y1="47.9" x2="647.4" y2="1.5"/>
      <line class="cls-20" x1="628.2" y1="47.9" x2="628.2" y2="1.5"/>
      <line class="cls-20" x1="609" y1="47.9" x2="609" y2="1.5"/>
      <line class="cls-20" x1="589.8" y1="47.9" x2="589.8" y2="1.5"/>
      <line class="cls-20" x1="570.6" y1="47.9" x2="570.6" y2="1.5"/>
    </g>
    <polyline class="cls-22" points="799.2 24.7 589.8 24.7 600.4 30.3"/>
    <polyline class="cls-22" points="799.2 24.7 589.8 24.7 600.4 19.1"/>
  </g>
</svg>