<?xml version="1.0" encoding="UTF-8"?>
<svg id="_图层_1" data-name="图层 1" xmlns="http://www.w3.org/2000/svg" xmlns:xlink="http://www.w3.org/1999/xlink" viewBox="0 0 1762.16 1386.56">
  <defs>
    <style>
      .cls-1, .cls-2, .cls-3 {
        fill: #545454;
      }

      .cls-1, .cls-3, .cls-4, .cls-5, .cls-6, .cls-7, .cls-8, .cls-9, .cls-10, .cls-11, .cls-12, .cls-13 {
        stroke-miterlimit: 10;
      }

      .cls-1, .cls-6, .cls-9, .cls-10, .cls-12 {
        stroke: #545454;
      }

      .cls-2, .cls-14, .cls-15, .cls-16 {
        stroke-width: 0px;
      }

      .cls-14, .cls-17, .cls-18 {
        fill: #000;
      }

      .cls-17 {
        font-size: 2.62px;
      }

      .cls-17, .cls-19, .cls-18, .cls-20, .cls-7, .cls-21 {
        font-family: ArialMT, Arial;
      }

      .cls-15 {
        fill: #a0a1a6;
      }

      .cls-19 {
        font-size: 39.39px;
      }

      .cls-19, .cls-20, .cls-7, .cls-10, .cls-16, .cls-22, .cls-13 {
        fill: #fff;
      }

      .cls-18 {
        font-size: 15.63px;
      }

      .cls-3, .cls-4, .cls-5, .cls-7, .cls-8, .cls-11, .cls-13 {
        stroke: #fff;
      }

      .cls-23 {
        letter-spacing: -.02em;
      }

      .cls-4, .cls-6, .cls-8, .cls-9, .cls-12 {
        fill: none;
      }

      .cls-5 {
        fill: #f60006;
      }

      .cls-5, .cls-7, .cls-13 {
        stroke-width: .25px;
      }

      .cls-6 {
        stroke-width: 3px;
      }

      .cls-20 {
        font-size: 42.47px;
      }

      .cls-7 {
        font-size: 9.1px;
      }

      .cls-24 {
        letter-spacing: 0em;
      }

      .cls-8 {
        stroke-width: .5px;
      }

      .cls-25 {
        letter-spacing: -.02em;
      }

      .cls-11 {
        fill: #a1cb99;
      }

      .cls-12 {
        stroke-width: 4px;
      }

      .cls-22 {
        font-size: 11px;
      }

      .cls-26 {
        font-family: AdobeSongStd-Light-GBpc-EUC-H, 'Adobe Song Std';
        font-weight: 300;
      }
    </style>
    <symbol id="AED" viewBox="0 0 10.48 10.83">
      <g>
        <g>
          <path class="cls-5" d="M10.36,2.91c0,.77-.31,1.46-.81,1.96h0s-4.21,5.76-4.21,5.76L1,4.93C.46,4.42.12,3.7.12,2.91.12,1.37,1.37.12,2.91.12c.98,0,1.84.51,2.33,1.27.49-.76,1.36-1.27,2.33-1.27,1.54,0,2.78,1.25,2.78,2.78Z"/>
          <polyline class="cls-8" points="5.31 1.92 4.43 4.67 6.59 3.49 5.41 8.74"/>
          <polygon class="cls-13" points="5.21 9.43 5.07 8.48 5.95 8.66 5.21 9.43"/>
        </g>
        <text class="cls-17" transform="translate(2.64 5.12) scale(1.03 1)"><tspan x="0" y="0">AED</tspan></text>
      </g>
    </symbol>
  </defs>
  <path class="cls-15" d="M920.9,417.94c-8.04,0-9.11,5.15-5.97,12.68,1.96-.22,3.95-.34,5.97-.34,28.53,0,51.66,23.13,51.66,51.66,0,2.02-.12,4.01-.34,5.97,7.53,3.14,12.68,2.07,12.68-5.97,0-35.35-28.65-64-64-64Z"/>
  <path class="cls-15" d="M984.9,548.54c0-8.04-5.15-9.11-12.68-5.97.22,1.96.34,3.95.34,5.97,0,28.53-23.13,51.66-51.66,51.66-2.02,0-4.01-.12-5.97-.34-3.14,7.53-2.07,12.68,5.97,12.68,35.35,0,64-28.65,64-64Z"/>
  <path class="cls-15" d="M785.29,481.94c0,8.04,5.15,9.11,12.68,5.97-.22-1.96-.34-3.95-.34-5.97,0-28.53,23.13-51.66,51.66-51.66,2.02,0,4.01.12,5.97.34,3.14-7.53,2.07-12.68-5.97-12.68-35.35,0-64,28.65-64,64Z"/>
  <path class="cls-15" d="M849.29,612.54c8.04,0,9.11-5.15,5.97-12.68-1.96.22-3.95.34-5.97.34-28.53,0-51.66-23.13-51.66-51.66,0-2.02.12-4.01.34-5.97-7.53-3.14-12.68-2.07-12.68,5.97,0,35.35,28.65,64,64,64Z"/>
  <g>
    <rect class="cls-1" x="1314" y="489.7" width="2.78" height="14.5" transform="translate(1812.34 -818.44) rotate(90)"/>
    <rect class="cls-1" x="1314" y="536.92" width="2.78" height="14.5" transform="translate(1859.56 -771.22) rotate(90)"/>
    <rect class="cls-1" x="1298.1" y="518.09" width="34.92" height="4.94" transform="translate(1836.11 -795) rotate(90)"/>
  </g>
  <g>
    <rect class="cls-1" x="453" y="489.7" width="2.78" height="14.5" transform="translate(951.34 42.56) rotate(90)"/>
    <rect class="cls-1" x="453" y="536.92" width="2.78" height="14.5" transform="translate(998.56 89.78) rotate(90)"/>
    <rect class="cls-1" x="437.1" y="518.09" width="34.92" height="4.94" transform="translate(975.11 66) rotate(90)"/>
  </g>
  <g>
    <rect class="cls-1" x="860.39" y="61.31" width="2.78" height="14.5"/>
    <rect class="cls-1" x="907.61" y="61.31" width="2.78" height="14.5"/>
    <rect class="cls-1" x="867.93" y="65.92" width="34.92" height="4.94"/>
  </g>
  <g>
    <rect class="cls-1" x="860.39" y="959.31" width="2.78" height="14.5"/>
    <rect class="cls-1" x="907.61" y="959.31" width="2.78" height="14.5"/>
    <rect class="cls-1" x="867.93" y="963.92" width="34.92" height="4.94"/>
  </g>
  <path class="cls-12" d="M842.43,68.39h-363.25c-13.6,0-24.63,11.03-24.63,24.63v388.15"/>
  <path class="cls-12" d="M928.56,68.39h363.25c13.6,0,24.63,11.03,24.63,24.63v388.15"/>
  <path class="cls-12" d="M842.43,967.18h-363.25c-13.6,0-24.63-11.03-24.63-24.63v-388.15"/>
  <path class="cls-12" d="M928.56,967.18h363.25c13.6,0,24.63-11.03,24.63-24.63v-388.15"/>
  <g>
    <path class="cls-1" d="M894.32,1238.6l-4.61,12.99c-.15,1.17-.33,2.27-.54,3.28-.04.25-.1.49-.15.73-.82,3.68-2.01,6-3.35,6s-2.53-2.32-3.35-6c-.05-.23-.1-.47-.15-.72-.25-1.19-.45-2.51-.61-3.92l-4.39-12.36,5.15-7c.13-.63.29-1.22.45-1.76-1.57-1.8-2.6-4.82-2.6-8.24,0-1.2.13-2.35.37-3.42l-2.81-6.16c2.92-1.63,6.27-2.41,9.74-2.05,2.22.24,4.3.91,6.16,1.95l-2.25,4.72c.5,1.46.79,3.16.79,4.96,0,3.96-1.39,7.39-3.39,9,.14.53.27,1.1.39,1.7v-.7l5.15,7Z"/>
    <path class="cls-1" d="M889.17,1254.87v33.73h-7v-33.72c.05.25.1.49.15.72.82,3.68,2.01,6,3.35,6s2.53-2.32,3.35-6c.05-.24.11-.48.15-.73Z"/>
    <rect class="cls-1" x="877.17" y="1290.6" width="17" height="4" rx="1.55" ry="1.55"/>
    <rect class="cls-1" x="872.17" y="1296.6" width="27" height="4" rx="1.55" ry="1.55"/>
    <g>
      <path class="cls-2" d="M886.72,1229.53c.26,1.23.58,2.45.98,3.64"/>
      <path class="cls-2" d="M885.28,1229.93c.26,1.23.58,2.45.98,3.64.12.37.35.7.69.9.32.19.8.27,1.16.15s.71-.34.9-.69.28-.77.15-1.16c-.4-1.2-.72-2.41-.98-3.64-.07-.35-.38-.72-.69-.9-.32-.19-.8-.27-1.16-.15s-.71.34-.9.69c-.2.37-.24.74-.15,1.16h0Z"/>
    </g>
    <g>
      <path class="cls-2" d="M886.76,1230.24c.2.04.29.27.34.46.22.78.43,1.57.65,2.35"/>
      <path class="cls-2" d="M886.36,1231.69s.04.01.07.02l-.36-.15s.04.02.06.03l-.3-.23s.05.05.07.07l-.23-.3c.04.05.06.1.09.16l-.15-.36c.15.39.23.81.34,1.22.12.44.24.87.36,1.31.1.36.36.71.69.9s.8.27,1.16.15.71-.34.9-.69.26-.76.15-1.16c-.16-.58-.32-1.16-.48-1.74-.07-.26-.13-.52-.22-.77-.12-.33-.25-.59-.49-.85-.22-.24-.53-.42-.85-.5-.38-.1-.81-.05-1.16.15-.31.18-.61.54-.69.9-.09.38-.07.81.15,1.16s.51.59.9.69h0Z"/>
    </g>
    <g>
      <path class="cls-2" d="M887.27,1230.03c.41,1.7.69,3.43.84,5.17"/>
      <path class="cls-2" d="M885.82,1230.43c.27,1.14.49,2.3.65,3.47l-.05-.4c.08.57.14,1.13.19,1.7.04.4.14.76.44,1.06.26.26.69.46,1.06.44.75-.03,1.57-.66,1.5-1.5-.16-1.87-.46-3.74-.89-5.57-.18-.76-1.09-1.29-1.85-1.05-.79.26-1.24,1.03-1.05,1.85h0Z"/>
    </g>
  </g>
  <g>
    <rect class="cls-1" x="821.95" y="1342.06" width="7" height="44"/>
    <rect class="cls-1" x="940.95" y="1342.06" width="7" height="44"/>
    <rect class="cls-1" x="840.95" y="1356.06" width="88" height="15"/>
  </g>
  <text class="cls-22" transform="translate(840.97 1340.22)"><tspan class="cls-21"><tspan x="0" y="0">Southern Entrance</tspan></tspan><tspan class="cls-26"><tspan x="34.86" y="13.2">南门</tspan></tspan></text>
  <path class="cls-3" d="M.7,506.58l70.59,90.05c12.5-9.8,26.98-17.48,43.1-22.36,25.22-7.64,50.94-7.37,74.51-.61l31.55-110c-44.03-12.61-92.1-13.13-139.22,1.15-30.11,9.12-57.18,23.48-80.53,41.77Z"/>
  <text class="cls-20" transform="translate(88.43 528.92)"><tspan x="0" y="0">A2</tspan></text>
  <path class="cls-3" d="M1761.45,502.73l-65.48,83.53c-11.6-9.09-25.03-16.21-39.98-20.74-23.39-7.09-47.25-6.84-69.12-.56l-29.26-102.03c40.84-11.7,85.43-12.18,129.14,1.07,27.93,8.46,53.04,21.78,74.7,38.74Z"/>
  <text class="cls-19" transform="translate(1635.39 525.77)"><tspan x="0" y="0">A4</tspan></text>
  <g>
    <rect class="cls-2" x="478.79" y="283.15" width="43.07" height="52"/>
    <circle class="cls-16" cx="510.83" cy="297.09" r="3.22"/>
    <polygon class="cls-10" points="515.56 302.55 515.56 315.97 513.82 315.97 513.82 318.78 513.08 318.78 513.08 334.61 508.72 334.61 508.72 318.78 508.05 318.78 508.05 315.97 506.17 315.97 506.17 302.55 508.05 302.55 508.05 301.55 513.82 301.55 513.82 302.55 515.56 302.55"/>
    <circle class="cls-16" cx="489.83" cy="297.09" r="3.22"/>
    <polygon class="cls-10" points="494.56 302.55 494.56 315.97 492.82 315.97 492.82 318.78 492.08 318.78 492.08 334.61 487.72 334.61 487.72 318.78 487.05 318.78 487.05 315.97 485.17 315.97 485.17 302.55 487.05 302.55 487.05 301.55 492.82 301.55 492.82 302.55 494.56 302.55"/>
    <line class="cls-4" x1="500.33" y1="293.56" x2="500.33" y2="334.56"/>
    <text class="cls-7" transform="translate(492.04 291.37)"><tspan x="0" y="0">LIF</tspan><tspan class="cls-23" x="13.15" y="0">T</tspan></text>
  </g>
  <g>
    <rect class="cls-2" x="478.79" y="697.15" width="43.07" height="52"/>
    <circle class="cls-16" cx="510.83" cy="711.09" r="3.22"/>
    <polygon class="cls-10" points="515.56 716.55 515.56 729.97 513.82 729.97 513.82 732.78 513.08 732.78 513.08 748.61 508.72 748.61 508.72 732.78 508.05 732.78 508.05 729.97 506.17 729.97 506.17 716.55 508.05 716.55 508.05 715.55 513.82 715.55 513.82 716.55 515.56 716.55"/>
    <circle class="cls-16" cx="489.83" cy="711.09" r="3.22"/>
    <polygon class="cls-10" points="494.56 716.55 494.56 729.97 492.82 729.97 492.82 732.78 492.08 732.78 492.08 748.61 487.72 748.61 487.72 732.78 487.05 732.78 487.05 729.97 485.17 729.97 485.17 716.55 487.05 716.55 487.05 715.55 492.82 715.55 492.82 716.55 494.56 716.55"/>
    <line class="cls-4" x1="500.33" y1="707.56" x2="500.33" y2="748.56"/>
    <text class="cls-7" transform="translate(492.04 705.37)"><tspan x="0" y="0">LIF</tspan><tspan class="cls-23" x="13.15" y="0">T</tspan></text>
  </g>
  <g>
    <path class="cls-14" d="M529.18,308.86v-8.59h1.14v7.58h4.23v1.01h-5.37Z"/>
    <path class="cls-14" d="M536.09,308.86v-8.59h1.14v8.59h-1.14Z"/>
    <path class="cls-14" d="M539.29,308.86v-8.59h5.79v1.01h-4.66v2.66h4.03v1.01h-4.03v3.9h-1.14Z"/>
    <path class="cls-14" d="M548.75,308.86v-7.58h-2.83v-1.01h6.81v1.01h-2.84v7.58h-1.14Z"/>
    <path class="cls-14" d="M558.98,308.86v-7.58h-2.83v-1.01h6.81v1.01h-2.84v7.58h-1.14Z"/>
    <path class="cls-14" d="M563.56,304.67c0-1.43.38-2.54,1.15-3.35s1.75-1.21,2.96-1.21c.79,0,1.51.19,2.14.57s1.12.91,1.46,1.58.5,1.45.5,2.31-.18,1.65-.53,2.34-.85,1.21-1.49,1.56-1.34.53-2.09.53c-.81,0-1.53-.2-2.17-.59s-1.12-.92-1.45-1.6-.49-1.39-.49-2.14ZM564.74,304.69c0,1.04.28,1.85.83,2.45s1.25.89,2.09.89,1.56-.3,2.11-.9.83-1.46.83-2.56c0-.7-.12-1.31-.35-1.83s-.58-.93-1.04-1.21-.97-.43-1.53-.43c-.8,0-1.5.28-2.08.83s-.87,1.48-.87,2.77Z"/>
    <path class="cls-14" d="M576.53,308.86v-8.59h1.14v7.58h4.23v1.01h-5.37Z"/>
    <path class="cls-14" d="M583.44,308.86v-8.59h1.14v8.59h-1.14Z"/>
    <path class="cls-14" d="M586.54,308.86v-8.59h3.22c.66,0,1.18.09,1.58.26s.71.44.93.8.34.74.34,1.13c0,.37-.1.71-.3,1.04s-.5.59-.9.79c.52.15.92.41,1.2.78s.42.8.42,1.3c0,.4-.08.78-.25,1.12s-.38.61-.63.8-.56.33-.94.42-.84.14-1.39.14h-3.28ZM587.68,303.88h1.86c.5,0,.87-.03,1.08-.1.29-.09.51-.23.65-.43s.22-.45.22-.75c0-.29-.07-.54-.21-.75s-.33-.37-.59-.45-.69-.12-1.31-.12h-1.72v2.6ZM587.68,307.84h2.14c.37,0,.62-.01.77-.04.26-.05.48-.12.66-.23s.32-.27.43-.48.17-.45.17-.72c0-.32-.08-.6-.25-.83s-.39-.4-.68-.5-.71-.14-1.26-.14h-1.99v2.95Z"/>
    <path class="cls-14" d="M594.61,308.86v-8.59h3.81c.77,0,1.35.08,1.75.23s.72.43.96.82.36.82.36,1.29c0,.61-.2,1.12-.59,1.54s-1,.68-1.83.8c.3.14.53.29.69.43.33.3.65.69.94,1.14l1.49,2.34h-1.43l-1.14-1.79c-.33-.52-.61-.91-.82-1.18s-.41-.46-.58-.57-.34-.19-.52-.23c-.13-.03-.34-.04-.63-.04h-1.32v3.81h-1.14ZM595.74,304.06h2.44c.52,0,.93-.05,1.22-.16s.52-.28.67-.52.23-.49.23-.77c0-.41-.15-.74-.44-1s-.76-.39-1.4-.39h-2.72v2.84Z"/>
    <path class="cls-14" d="M602.31,308.86l3.3-8.59h1.22l3.52,8.59h-1.29l-1-2.6h-3.59l-.94,2.6h-1.21ZM604.79,305.33h2.91l-.9-2.38c-.27-.72-.48-1.32-.61-1.78-.11.55-.26,1.1-.46,1.64l-.94,2.52Z"/>
    <path class="cls-14" d="M611.28,308.86v-8.59h3.81c.77,0,1.35.08,1.75.23s.72.43.96.82.36.82.36,1.29c0,.61-.2,1.12-.59,1.54s-1,.68-1.83.8c.3.14.53.29.69.43.33.3.65.69.94,1.14l1.49,2.34h-1.43l-1.14-1.79c-.33-.52-.61-.91-.82-1.18s-.41-.46-.58-.57-.34-.19-.52-.23c-.13-.03-.34-.04-.63-.04h-1.32v3.81h-1.14ZM612.41,304.06h2.44c.52,0,.93-.05,1.22-.16s.52-.28.67-.52.23-.49.23-.77c0-.41-.15-.74-.44-1s-.76-.39-1.4-.39h-2.72v2.84Z"/>
    <path class="cls-14" d="M622.13,308.86v-3.64l-3.31-4.95h1.38l1.69,2.59c.31.48.6.97.87,1.45.26-.45.57-.96.94-1.52l1.66-2.53h1.32l-3.43,4.95v3.64h-1.14Z"/>
    <path class="cls-14" d="M627.21,303.83v-1.2h1.2v1.2h-1.2ZM627.21,308.86v-1.2h1.2v1.2h-1.2Z"/>
    <path class="cls-14" d="M556.15,319.89v-1.01h3.64s0,3.18,0,3.18c-.56.45-1.13.78-1.73,1s-1.2.34-1.83.34c-.84,0-1.61-.18-2.3-.54s-1.21-.88-1.56-1.57-.53-1.45-.53-2.29.17-1.62.52-2.34.85-1.26,1.51-1.61,1.41-.53,2.27-.53c.62,0,1.18.1,1.68.3s.9.48,1.18.84.5.83.65,1.41l-1.03.28c-.13-.44-.29-.78-.48-1.03s-.46-.45-.82-.6-.75-.23-1.18-.23c-.52,0-.97.08-1.35.24s-.68.37-.92.62-.41.54-.54.85c-.22.53-.33,1.11-.33,1.73,0,.77.13,1.41.4,1.92s.65.9,1.15,1.15,1.04.38,1.61.38c.49,0,.97-.09,1.44-.28s.82-.39,1.07-.61v-1.6h-2.53Z"/>
    <path class="cls-14" d="M561.52,323.26v-8.59h5.79v1.01h-4.66v2.66h4.03v1.01h-4.03v3.9h-1.14Z"/>
    <path class="cls-14" d="M567.61,323.26v-1.2h1.2v1.2c0,.44-.08.8-.23,1.07s-.4.48-.74.63l-.29-.45c.22-.1.39-.24.49-.43s.16-.46.18-.82h-.6Z"/>
    <path class="cls-14" d="M577.68,323.26h-1.05v-6.72c-.25.24-.59.48-1,.73s-.78.42-1.11.54v-1.02c.59-.28,1.11-.61,1.55-1.01s.75-.78.94-1.15h.68v8.62Z"/>
    <path class="cls-14" d="M580.87,323.26v-8.59h5.79v1.01h-4.66v2.66h4.03v1.01h-4.03v3.9h-1.14Z"/>
    <path class="cls-14" d="M586.95,323.26v-1.2h1.2v1.2c0,.44-.08.8-.23,1.07s-.4.48-.74.63l-.29-.45c.22-.1.39-.24.49-.43s.16-.46.18-.82h-.6Z"/>
    <path class="cls-14" d="M598.59,322.24v1.01h-5.68c0-.25.03-.5.12-.73.14-.39.38-.77.69-1.14s.78-.81,1.38-1.3c.93-.77,1.56-1.37,1.89-1.82s.49-.87.49-1.27c0-.42-.15-.77-.45-1.06s-.69-.43-1.17-.43c-.51,0-.91.15-1.22.46s-.46.73-.46,1.27l-1.08-.11c.07-.81.35-1.42.84-1.85s1.13-.64,1.95-.64,1.48.23,1.96.69.72,1.02.72,1.7c0,.34-.07.68-.21,1.01s-.37.68-.7,1.05-.87.87-1.63,1.51c-.63.53-1.04.89-1.22,1.08s-.33.38-.45.57h4.21Z"/>
    <path class="cls-14" d="M600.21,323.26v-8.59h5.79v1.01h-4.66v2.66h4.03v1.01h-4.03v3.9h-1.14Z"/>
  </g>
  <g>
    <path class="cls-14" d="M528.08,722.86l3.3-8.59h1.22l3.52,8.59h-1.29l-1-2.6h-3.59l-.94,2.6h-1.21ZM530.56,719.33h2.91l-.9-2.38c-.27-.72-.48-1.32-.61-1.78-.11.55-.26,1.1-.46,1.64l-.94,2.52Z"/>
    <path class="cls-14" d="M537.03,722.86v-8.59h2.96c.67,0,1.18.04,1.53.12.49.11.91.32,1.26.62.45.38.79.87,1.02,1.47s.34,1.28.34,2.04c0,.65-.08,1.23-.23,1.73s-.35.92-.59,1.25-.5.59-.78.78-.62.33-1.03.43-.86.15-1.38.15h-3.1ZM538.17,721.84h1.83c.57,0,1.01-.05,1.33-.16s.58-.25.77-.45c.27-.27.48-.63.63-1.09s.23-1.01.23-1.66c0-.9-.15-1.59-.44-2.07s-.65-.81-1.08-.97c-.3-.12-.79-.18-1.47-.18h-1.8v6.56Z"/>
    <path class="cls-14" d="M545.66,722.86v-8.59h1.71l2.03,6.08c.19.57.32.99.41,1.27.1-.31.25-.77.46-1.38l2.06-5.98h1.53v8.59h-1.1v-7.19l-2.5,7.19h-1.03l-2.48-7.31v7.31h-1.1Z"/>
    <path class="cls-14" d="M555.88,722.86v-8.59h1.14v8.59h-1.14Z"/>
    <path class="cls-14" d="M559.01,722.86v-8.59h1.17l4.51,6.74v-6.74h1.09v8.59h-1.17l-4.51-6.75v6.75h-1.09Z"/>
    <path class="cls-14" d="M567.88,722.86v-8.59h1.14v8.59h-1.14Z"/>
    <path class="cls-14" d="M570.64,720.1l1.07-.09c.05.43.17.78.35,1.06s.47.5.86.67.83.25,1.32.25c.43,0,.82-.06,1.15-.19s.58-.31.74-.53.24-.47.24-.74-.08-.5-.23-.71-.41-.37-.77-.51c-.23-.09-.74-.23-1.53-.42s-1.34-.37-1.66-.54c-.41-.21-.72-.48-.92-.8s-.3-.67-.3-1.07c0-.43.12-.84.37-1.22s.61-.66,1.08-.86,1-.29,1.58-.29c.64,0,1.2.1,1.68.31s.86.51,1.12.91.4.85.42,1.35l-1.09.08c-.06-.54-.26-.95-.59-1.23s-.84-.42-1.5-.42-1.19.13-1.5.38-.47.56-.47.91c0,.31.11.56.33.76.22.2.79.4,1.71.61s1.56.39,1.9.55c.5.23.87.52,1.11.88s.36.76.36,1.22-.13.89-.39,1.29-.64.72-1.13.94-1.04.34-1.66.34c-.78,0-1.43-.11-1.95-.34s-.94-.57-1.24-1.02-.46-.97-.47-1.54Z"/>
    <path class="cls-14" d="M581.21,722.86v-7.58h-2.83v-1.01h6.81v1.01h-2.84v7.58h-1.14Z"/>
    <path class="cls-14" d="M586.38,722.86v-8.59h3.81c.77,0,1.35.08,1.75.23s.72.43.96.82.36.82.36,1.29c0,.61-.2,1.12-.59,1.54s-1,.68-1.83.8c.3.14.53.29.69.43.33.3.65.69.94,1.14l1.49,2.34h-1.43l-1.14-1.79c-.33-.52-.61-.91-.82-1.18s-.41-.46-.58-.57-.34-.19-.52-.23c-.13-.03-.34-.04-.63-.04h-1.32v3.81h-1.14ZM587.51,718.06h2.44c.52,0,.93-.05,1.22-.16s.52-.28.67-.52.23-.49.23-.77c0-.41-.15-.74-.44-1s-.76-.39-1.4-.39h-2.72v2.84Z"/>
    <path class="cls-14" d="M594.08,722.86l3.3-8.59h1.22l3.52,8.59h-1.29l-1-2.6h-3.59l-.94,2.6h-1.21ZM596.56,719.33h2.91l-.9-2.38c-.27-.72-.48-1.32-.61-1.78-.11.55-.26,1.1-.46,1.64l-.94,2.52Z"/>
    <path class="cls-14" d="M604.32,722.86v-7.58h-2.83v-1.01h6.81v1.01h-2.84v7.58h-1.14Z"/>
    <path class="cls-14" d="M609.66,722.86v-8.59h1.14v8.59h-1.14Z"/>
    <path class="cls-14" d="M612.46,718.67c0-1.43.38-2.54,1.15-3.35s1.75-1.21,2.96-1.21c.79,0,1.51.19,2.14.57s1.12.91,1.46,1.58.5,1.45.5,2.31-.18,1.65-.53,2.34-.85,1.21-1.49,1.56-1.34.53-2.09.53c-.81,0-1.53-.2-2.17-.59s-1.12-.92-1.45-1.6-.49-1.39-.49-2.14ZM613.63,718.69c0,1.04.28,1.85.83,2.45s1.25.89,2.09.89,1.56-.3,2.11-.9.83-1.46.83-2.56c0-.7-.12-1.31-.35-1.83s-.58-.93-1.04-1.21-.97-.43-1.53-.43c-.8,0-1.5.28-2.08.83s-.87,1.48-.87,2.77Z"/>
    <path class="cls-14" d="M622.12,722.86v-8.59h1.17l4.51,6.74v-6.74h1.09v8.59h-1.17l-4.51-6.75v6.75h-1.09Z"/>
    <path class="cls-14" d="M634.09,722.86v-8.59h1.14v7.58h4.23v1.01h-5.37Z"/>
    <path class="cls-14" d="M641,722.86v-8.59h1.14v8.59h-1.14Z"/>
    <path class="cls-14" d="M644.2,722.86v-8.59h5.79v1.01h-4.66v2.66h4.03v1.01h-4.03v3.9h-1.14Z"/>
    <path class="cls-14" d="M653.66,722.86v-7.58h-2.83v-1.01h6.81v1.01h-2.84v7.58h-1.14Z"/>
    <path class="cls-14" d="M572.51,730.77l-1.05.08c-.09-.41-.23-.71-.4-.9-.29-.3-.64-.45-1.05-.45-.34,0-.63.09-.88.28-.33.24-.59.6-.79,1.06s-.29,1.13-.3,1.99c.25-.39.56-.67.93-.86s.75-.28,1.15-.28c.7,0,1.3.26,1.8.78s.74,1.19.74,2.01c0,.54-.12,1.04-.35,1.5s-.55.82-.96,1.06-.87.37-1.38.37c-.88,0-1.6-.32-2.15-.97s-.83-1.71-.83-3.2c0-1.66.31-2.87.92-3.62.54-.66,1.26-.98,2.16-.98.68,0,1.23.19,1.66.57s.69.9.78,1.57ZM568.2,734.47c0,.36.08.71.23,1.04s.37.59.65.76.57.26.87.26c.45,0,.83-.18,1.15-.54s.48-.85.48-1.46-.16-1.06-.47-1.4-.71-.51-1.2-.51-.88.17-1.21.51-.5.79-.5,1.34Z"/>
    <path class="cls-14" d="M574.19,737.26v-8.59h5.79v1.01h-4.66v2.66h4.03v1.01h-4.03v3.9h-1.14Z"/>
    <path class="cls-14" d="M580.28,737.26v-1.2h1.2v1.2c0,.44-.08.8-.23,1.07s-.4.48-.74.63l-.29-.45c.22-.1.39-.24.49-.43s.16-.46.18-.82h-.6Z"/>
    <path class="cls-14" d="M586.45,729.79v-1.01h5.56v.82c-.55.58-1.09,1.36-1.63,2.32s-.95,1.96-1.25,2.98c-.21.72-.35,1.51-.4,2.36h-1.08c.01-.68.14-1.49.4-2.45s.62-1.88,1.09-2.77.98-1.64,1.51-2.25h-4.21Z"/>
    <path class="cls-14" d="M593.54,737.26v-8.59h5.79v1.01h-4.66v2.66h4.03v1.01h-4.03v3.9h-1.14Z"/>
    <path class="cls-14" d="M599.62,737.26v-1.2h1.2v1.2c0,.44-.08.8-.23,1.07s-.4.48-.74.63l-.29-.45c.22-.1.39-.24.49-.43s.16-.46.18-.82h-.6Z"/>
    <path class="cls-14" d="M607.34,732.6c-.44-.16-.76-.39-.97-.69s-.32-.65-.32-1.07c0-.62.22-1.15.67-1.58s1.05-.64,1.79-.64,1.35.22,1.81.65.69.96.69,1.59c0,.4-.1.75-.31,1.04s-.53.52-.95.68c.53.17.93.45,1.2.83s.41.84.41,1.37c0,.73-.26,1.35-.78,1.85s-1.2.75-2.05.75-1.53-.25-2.05-.75-.78-1.13-.78-1.88c0-.56.14-1.03.42-1.4s.69-.63,1.21-.77ZM606.79,734.78c0,.3.07.59.21.87s.35.5.64.65.58.23.91.23c.5,0,.92-.16,1.25-.49s.49-.74.49-1.24-.17-.93-.51-1.26-.76-.5-1.27-.5-.91.16-1.23.49-.49.74-.49,1.23ZM607.13,730.81c0,.41.13.74.39,1s.6.39,1.02.39.74-.13,1-.38.39-.57.39-.94-.13-.71-.4-.97-.6-.4-1-.4-.74.13-1,.39-.4.57-.4.93Z"/>
    <path class="cls-14" d="M612.88,737.26v-8.59h5.79v1.01h-4.66v2.66h4.03v1.01h-4.03v3.9h-1.14Z"/>
  </g>
  <use width="10.48" height="10.83" transform="translate(521.4 265.37) scale(2.97)" xlink:href="#AED"/>
  <g>
    <rect class="cls-2" x="1257.41" y="696.43" width="43.07" height="52"/>
    <circle class="cls-16" cx="1289.45" cy="707.37" r="3.22"/>
    <polygon class="cls-10" points="1294.18 712.83 1294.18 726.24 1292.43 726.24 1292.43 729.06 1291.7 729.06 1291.7 744.89 1287.34 744.89 1287.34 729.06 1286.67 729.06 1286.67 726.24 1284.79 726.24 1284.79 712.83 1286.67 712.83 1286.67 711.83 1292.43 711.83 1292.43 712.83 1294.18 712.83"/>
    <circle class="cls-16" cx="1269.59" cy="707.37" r="3.22"/>
    <polygon class="cls-10" points="1279.28 726.18 1279.28 729.06 1271.77 729.06 1271.77 744.89 1267.41 744.89 1267.41 729.06 1259.9 729.06 1259.9 726.18 1262 726.18 1264.87 723.26 1264.87 712.83 1266.74 712.83 1266.74 711.83 1272.51 711.83 1272.51 712.83 1274.25 712.83 1274.25 723.19 1277.18 726.18 1279.28 726.18"/>
  </g>
  <rect class="cls-2" x="1162.45" y="778.56" width="139" height="173"/>
  <g>
    <path class="cls-16" d="M1179.56,861.56c-.13-.44-.31-1.03-1.04-1.03-.54,0-.81.35-.81.84,0,.63.46.88.95,1.13.33.17,1.26.49,1.26,1.43,0,.78-.6,1.35-1.55,1.36-.31-.02-.57-.06-.76-.12-.18-.06-.28-.11-.32-.14-.06-.2-.14-.74-.18-1.19h.12c.12.41.45,1.26,1.33,1.26.58,0,.93-.32.93-.98,0-.76-.62-1.02-1.02-1.24-.07-.04-1.18-.39-1.18-1.31,0-.63.51-1.21,1.4-1.21.25,0,.47.02.88.16.03.26.07.54.12,1.05h-.13Z"/>
    <path class="cls-16" d="M1181.5,865.08c.75-.04.81-.17.81-.74v-3.69h-.47c-.99,0-1.08.17-1.31.96h-.12c.04-.45.07-.9.08-1.32h.12c.05.09.11.14.17.16s.14.02.24.02h3.04c.2,0,.25-.04.35-.18h.13c-.02.36.03.84.07,1.29l-.13.03c-.18-.85-.47-.96-1.11-.96h-.67v3.69c0,.57.05.7.84.74v.11h-2.04v-.11Z"/>
    <path class="cls-16" d="M1189.52,862.71c0,.94-.13,1.55-.6,2.04-.33.33-.85.53-1.38.53-.45,0-.88-.1-1.23-.38-.39-.32-.6-.78-.6-1.64v-1.91c0-.65-.06-.72-.73-.78v-.11h1.82v.11c-.64.02-.69.18-.69.78v1.67c0,1.33.61,1.92,1.63,1.92,1.16,0,1.57-.89,1.58-2.2v-.4c0-.82,0-1.13-.06-1.36-.05-.24-.29-.37-.81-.42v-.11h1.85v.11c-.41.04-.66.18-.7.42-.04.23-.08.54-.08,1.36v.36Z"/>
    <path class="cls-16" d="M1190.71,865.08c.69-.03.75-.16.75-.75v-3c0-.59-.06-.72-.68-.75v-.11h2.19c.91,0,1.64.15,2.1.6.4.38.61.9.61,1.56,0,2-1.73,2.56-3.24,2.56h-1.73v-.11ZM1191.85,864.3c0,.58.12.7.87.7,1.85,0,2.46-1.2,2.46-2.2,0-.86-.35-1.64-1.05-1.97-.34-.13-.82-.22-1.55-.22-.38,0-.6,0-.66.02-.04,0-.07,0-.07.14v3.53Z"/>
    <path class="cls-16" d="M1196.26,865.08c.71-.04.76-.17.76-.75v-2.96c0-.65-.06-.78-.69-.81v-.11h3.28c0,.26.04.71.07,1.15l-.13.02c-.16-.77-.3-1-1.21-1h-.71c-.2,0-.21.02-.21.21v1.76h.88c.6,0,.74-.08.85-.58h.13v1.4h-.13c-.12-.58-.28-.61-.85-.61h-.88v1.47c0,.71.31.71.93.71.46,0,.91,0,1.15-.29.12-.14.31-.41.42-.75h.13c-.07.28-.21.95-.27,1.21h-3.53v-.11Z"/>
    <path class="cls-16" d="M1200.49,865.08c.45-.03.66-.18.72-.39.06-.23.08-.64.08-1.4v-1.64c0-.67-.04-.63-.17-.8-.13-.15-.29-.23-.69-.28v-.11h.93l3.48,3.98h.02v-2.15c0-1.47,0-1.67-.89-1.73v-.11h1.87v.11c-.44.04-.63.18-.69.4-.07.23-.08.62-.08,1.33v2.94h-.08l-3.47-3.96h-.01v2c0,.76.01,1.18.07,1.39.07.23.29.37.8.41v.11h-1.88v-.11Z"/>
    <path class="cls-16" d="M1207.25,865.08c.75-.04.81-.17.81-.74v-3.69h-.47c-.99,0-1.08.17-1.31.96h-.12c.04-.45.07-.9.08-1.32h.12c.05.09.11.14.17.16s.14.02.24.02h3.04c.2,0,.25-.04.35-.18h.13c-.02.36.03.84.07,1.29l-.13.03c-.18-.85-.47-.96-1.11-.96h-.67v3.69c0,.57.05.7.84.74v.11h-2.04v-.11Z"/>
    <path class="cls-16" d="M1212.36,865.08c.67-.03.73-.16.73-.75v-3.02c0-.6-.06-.68-.69-.72v-.11h1.78c.75,0,1.56.23,1.56,1.19,0,.64-.34,1.02-.92,1.28.12.23.44.72.67,1.03.36.45.89,1.09,1.27,1.18l-.02.1c-.69,0-1.05-.04-2.19-1.9-.19-.27-.41-.28-1.06-.28v1.25c0,.6.06.72.71.75v.11h-1.85v-.11ZM1213.96,862.92c.44,0,.72-.06.92-.23.25-.2.39-.5.39-.93,0-.81-.52-1.15-1.3-1.15-.2,0-.33,0-.4.02-.04,0-.07.02-.07.17v2.12h.46Z"/>
    <path class="cls-16" d="M1217.06,865.08c.71-.04.76-.17.76-.75v-2.96c0-.65-.06-.78-.69-.81v-.11h3.28c0,.26.04.71.07,1.15l-.13.02c-.16-.77-.3-1-1.21-1h-.71c-.2,0-.21.02-.21.21v1.76h.88c.6,0,.74-.08.85-.58h.13v1.4h-.13c-.12-.58-.28-.61-.85-.61h-.88v1.47c0,.71.31.71.93.71.46,0,.91,0,1.15-.29.12-.14.31-.41.42-.75h.13c-.07.28-.21.95-.27,1.21h-3.53v-.11Z"/>
    <path class="cls-16" d="M1226.14,863.81c-.11.4-.28,1.02-.39,1.27-.24.04-.95.21-1.51.21-1.97,0-2.82-1.27-2.81-2.4,0-1.51,1.27-2.54,2.97-2.54.74,0,1.21.17,1.42.21.06.38.1.74.14,1.17l-.13.02c-.21-.87-.72-1.21-1.7-1.21-1.49,0-2.16.99-2.16,2.16,0,1.46.87,2.41,2.21,2.41,1.05,0,1.48-.57,1.84-1.34l.13.04Z"/>
    <path class="cls-16" d="M1226.57,865.08c.67-.03.73-.16.73-.75v-3.02c0-.6-.06-.68-.69-.72v-.11h1.78c.75,0,1.56.23,1.56,1.19,0,.64-.34,1.02-.92,1.28.12.23.44.72.67,1.03.36.45.89,1.09,1.27,1.18l-.02.1c-.69,0-1.05-.04-2.19-1.9-.19-.27-.42-.28-1.06-.28v1.25c0,.6.06.72.71.75v.11h-1.85v-.11ZM1228.16,862.92c.44,0,.72-.06.92-.23.25-.2.39-.5.39-.93,0-.81-.52-1.15-1.3-1.15-.2,0-.33,0-.4.02-.04,0-.07.02-.07.17v2.12h.46Z"/>
    <path class="cls-16" d="M1235.77,862.71c0,.94-.13,1.55-.6,2.04-.33.33-.85.53-1.38.53-.45,0-.88-.1-1.23-.38-.39-.32-.6-.78-.6-1.64v-1.91c0-.65-.06-.72-.73-.78v-.11h1.82v.11c-.64.02-.69.18-.69.78v1.67c0,1.33.61,1.92,1.63,1.92,1.16,0,1.57-.89,1.58-2.2v-.4c0-.82,0-1.13-.06-1.36-.05-.24-.29-.37-.81-.42v-.11h1.85v.11c-.41.04-.66.18-.7.42-.04.23-.08.54-.08,1.36v.36Z"/>
    <path class="cls-16" d="M1236.98,865.08c.66-.03.72-.16.72-.75v-3c0-.59-.06-.72-.72-.75v-.11h1.82v.11c-.65.04-.72.17-.72.75v3c0,.6.07.72.72.75v.11h-1.82v-.11Z"/>
    <path class="cls-16" d="M1239.51,860.47h.96l1.99,4,2-4h1.08v.11c-.7.07-.77.14-.74.9l.05,2.68c.02.78.05.87.76.93v.11h-1.85v-.11c.66-.05.69-.15.68-.93l-.03-3.17h-.03l-2.04,4.12h-.07l-1.85-3.87h-.01l-.1,2.04c-.02.35-.03.61-.03.81,0,.72.08.93.78,1v.11h-1.82v-.11c.47-.04.63-.17.69-.47.05-.23.11-.68.17-1.45l.11-1.38c0-.2.01-.37.01-.5,0-.54-.13-.63-.7-.7v-.11Z"/>
    <path class="cls-16" d="M1246.08,865.08c.71-.04.76-.17.76-.75v-2.96c0-.65-.06-.78-.69-.81v-.11h3.28c0,.26.04.71.07,1.15l-.13.02c-.16-.77-.3-1-1.21-1h-.71c-.2,0-.21.02-.21.21v1.76h.88c.6,0,.74-.08.85-.58h.13v1.4h-.13c-.12-.58-.28-.61-.85-.61h-.88v1.47c0,.71.31.71.93.71.46,0,.91,0,1.15-.29.12-.14.31-.41.42-.75h.13c-.07.28-.21.95-.27,1.21h-3.53v-.11Z"/>
    <path class="cls-16" d="M1250.31,865.08c.45-.03.66-.18.72-.39.06-.23.08-.64.08-1.4v-1.64c0-.67-.04-.63-.17-.8-.13-.15-.29-.23-.69-.28v-.11h.93l3.48,3.98h.02v-2.15c0-1.47,0-1.67-.89-1.73v-.11h1.87v.11c-.44.04-.63.18-.69.4-.07.23-.08.62-.08,1.33v2.94h-.08l-3.47-3.96h-.01v2c0,.76.01,1.18.07,1.39.07.23.29.37.8.41v.11h-1.88v-.11Z"/>
    <path class="cls-16" d="M1257.07,865.08c.75-.04.81-.17.81-.74v-3.69h-.47c-.99,0-1.08.17-1.31.96h-.12c.04-.45.07-.9.08-1.32h.12c.05.09.11.14.17.16s.14.02.24.02h3.04c.2,0,.25-.04.35-.18h.13c-.02.36.03.84.07,1.29l-.13.03c-.18-.85-.47-.96-1.11-.96h-.67v3.69c0,.57.05.7.84.74v.11h-2.04v-.11Z"/>
    <path class="cls-16" d="M1267.39,862.76c0,1.5-1.2,2.54-2.63,2.54s-2.5-1.02-2.5-2.41c0-1.27.98-2.53,2.66-2.53,1.26,0,2.46.94,2.46,2.41ZM1262.79,862.67c0,1.47.93,2.45,2.15,2.45,1.02,0,1.94-.7,1.94-2.04,0-1.71-.96-2.54-2.17-2.54-1,0-1.92.68-1.92,2.13Z"/>
    <path class="cls-16" d="M1268.04,865.08c.63-.03.69-.16.69-.71v-3.09c0-.55-.06-.68-.69-.71v-.11h3.2c0,.41.04.8.07,1.16h-.14c-.14-.78-.34-.98-1.21-.98h-.63c-.2,0-.21.02-.21.21v1.83h.87c.71,0,.77-.07.9-.57h.13v1.46h-.13c-.13-.59-.19-.68-.9-.68h-.87v1.47c0,.55.07.67.83.71v.11h-1.92v-.11Z"/>
    <path class="cls-16" d="M1271.88,865.08c.63-.03.69-.16.69-.71v-3.09c0-.55-.06-.68-.69-.71v-.11h3.2c0,.41.04.8.07,1.16h-.14c-.14-.78-.34-.98-1.21-.98h-.63c-.2,0-.21.02-.21.21v1.83h.87c.71,0,.77-.07.9-.57h.13v1.46h-.13c-.13-.59-.19-.68-.9-.68h-.87v1.47c0,.55.07.67.83.71v.11h-1.92v-.11Z"/>
    <path class="cls-16" d="M1275.71,865.08c.66-.03.72-.16.72-.75v-3c0-.59-.06-.72-.72-.75v-.11h1.82v.11c-.65.04-.72.17-.72.75v3c0,.6.07.72.72.75v.11h-1.82v-.11Z"/>
    <path class="cls-16" d="M1282.89,863.81c-.11.4-.28,1.02-.39,1.27-.24.04-.95.21-1.51.21-1.97,0-2.82-1.27-2.81-2.4,0-1.51,1.27-2.54,2.97-2.54.74,0,1.21.17,1.42.21.06.38.1.74.14,1.17l-.13.02c-.21-.87-.72-1.21-1.7-1.21-1.49,0-2.16.99-2.16,2.16,0,1.46.87,2.41,2.21,2.41,1.05,0,1.48-.57,1.84-1.34l.13.04Z"/>
    <path class="cls-16" d="M1283.29,865.08c.71-.04.76-.17.76-.75v-2.96c0-.65-.06-.78-.69-.81v-.11h3.28c0,.26.04.71.07,1.15l-.13.02c-.16-.77-.3-1-1.21-1h-.71c-.2,0-.21.02-.21.21v1.76h.88c.6,0,.74-.08.85-.58h.13v1.4h-.13c-.12-.58-.28-.61-.85-.61h-.88v1.47c0,.71.31.71.93.71.46,0,.91,0,1.15-.29.12-.14.31-.41.42-.75h.13c-.07.28-.21.95-.27,1.21h-3.53v-.11Z"/>
    <path class="cls-16" d="M1216.48,869.58s.07.08.07.1-.03.03-.1.03h-1.16v1.46l1.02-.51.05.1-1.07.67v2.69c0,.5-.01.53-.54.74-.02,0-.04.02-.05.02-.02,0-.04-.02-.05-.07-.06-.21-.2-.34-.8-.57v-.11c.44.11.7.16.86.16.2,0,.24-.08.24-.25v-2.4c-.9.56-.95.62-1.04.76-.02.04-.04.06-.06.06-.01,0-.03-.02-.04-.03l-.32-.35,1.47-.74v-1.63h-.73c-.16,0-.38.03-.5.08l-.21-.28c.19.01.38.03.55.03h.9v-.64c0-.31-.02-.82-.03-1.1l.55.31s.07.04.07.06c0,.03,0,.03-.25.17v1.2h.46l.29-.4.45.44ZM1220.15,868.64s.07.06.07.08-.02.05-.07.08l-.23.15c-.02.34-.08,1.02-.13,1.39-.09.75-.11.78-.69,1.09-.04.01-.07.03-.09.03s-.04-.02-.04-.06c-.04-.23-.14-.34-.81-.56l.03-.11c.38.08.64.13.82.13.35,0,.39-.18.44-.63.04-.38.09-.93.12-1.41h-1.61c-.23,1.79-.57,2.4-2.04,3.27l-.05-.11c1.3-.89,1.66-1.85,1.7-3.17h-.66c-.16,0-.38.03-.5.08l-.21-.28c.19.02.38.03.55.03h2.72l.23-.33.46.32ZM1220.03,871.79s.06.04.06.07-.02.05-.06.07l-.18.11v1.58c0,.26,0,.47.03.81v.05c0,.11-.03.14-.19.21-.08.03-.12.04-.14.04-.04,0-.05-.04-.05-.1v-.49h-2.28v.44c0,.11-.02.14-.14.19-.07.03-.12.05-.16.05-.05,0-.07-.05-.07-.17,0-.16.02-.95.02-1.01v-1.37c0-.18,0-.54-.02-.78l.45.32h2.07l.23-.33.44.31ZM1219.49,873.97v-2h-2.28v2h2.28Z"/>
    <path class="cls-16" d="M1227.85,874.52s.04.04.04.05c0,.01-.03.02-.08.02h-6.02c-.21,0-.35.01-.48.07l-.27-.26c.19.02.35.03.58.03h2.74v-2.15h-1.64c-.28,0-.37.02-.49.05l-.23-.26c.19.02.35.04.56.04h1.8v-1.77h-1.89c-.51.97-.82,1.48-1.18,1.89l-.1-.07c.61-.96,1.15-2.15,1.56-3.47l.5.38s.04.04.04.05c0,.02-.04.04-.11.06-.15.04-.2.14-.62.99h1.8v-1.09c0-.6,0-.83-.02-1.13l.67.38s.04.02.04.04-.02.03-.07.06l-.24.16v1.58h1.74l.37-.49.56.57s.04.04.04.06c0,.02-.02.02-.08.02h-2.63v1.77h1.42l.37-.47.56.56s.04.05.04.05c0,.02-.03.03-.09.03h-2.29v2.15h2.2l.35-.47.56.57Z"/>
    <path class="cls-16" d="M1233.9,869.68s.06.05.06.08c0,.02-.02.05-.05.07l-.28.21c-.03.96-.08,2.08-.12,2.83-.07,1.12-.16,1.36-.85,1.72-.02.02-.04.02-.06.02-.03,0-.04-.02-.05-.06-.04-.29-.2-.43-1.03-.59l.02-.14c.4.08.7.13.93.13.53,0,.64-.28.69-1.08.04-.76.08-1.7.14-3.03h-1.72c-.05.39-.09.76-.14,1.08-.26,1.96-1.19,3.17-2.77,3.91l-.06-.11c2.19-1.28,2.41-2.86,2.59-4.88h-1.61c-.14,0-.35.03-.46.08l-.19-.27c.17.01.42.03.5.03h1.76c.05-.75.08-1.19.08-1.84l.59.27c.05.02.08.05.08.08,0,.02-.01.04-.04.07l-.23.18c-.02.41-.05.84-.09,1.24h1.58l.25-.37.49.38ZM1229.9,870.53c0,1.02-.38,1.68-.61,1.83-.17.11-.3.15-.4.15-.11,0-.22-.06-.22-.16,0-.07.03-.17.11-.23.52-.36.91-.69,1-1.59h.11ZM1234,870.59c.96.71,1.42,1.3,1.45,1.58.02.21-.11.51-.28.51-.1,0-.14-.09-.18-.23-.11-.45-.32-.96-1.06-1.77l.08-.08Z"/>
    <path class="cls-16" d="M1239.07,868.55s.06.04.06.06c0,.01-.02.03-.08.05-.23.08-.26.11-.32.24-.62,1.2-1.75,2.66-2.71,3.25l-.06-.1c1.19-1.04,2.09-2.53,2.52-3.84l.59.34ZM1240.2,872.32c.92.65,1.58,1.46,1.62,1.76,0,.05,0,.1,0,.14,0,.33-.18.45-.32.45-.1,0-.14-.11-.18-.38-.02-.11-.05-.23-.11-.37l-2.68.27c-.92.09-1.08.14-1.26.25-.03.02-.04.03-.06.03-.02,0-.04-.01-.05-.04l-.29-.54c.42-.09.6-.2.85-.54.69-.95,1.26-2.01,1.61-2.88l.57.29s.07.04.07.06c0,.02-.03.04-.09.06-.2.09-.23.12-.33.27-.69,1.1-1.4,2.07-2.04,2.76l3.64-.13c-.19-.36-.53-.84-1.01-1.38l.07-.08ZM1243.09,871.59c-.11-.01-.2-.03-.29-.03-.23,0-.36.07-.48.2-.02.02-.04.03-.06.03-.02,0-.04,0-.05-.02-1.12-1.11-1.58-2-2.03-3.75l.57.2s.05.03.05.04c0,.02,0,.03-.04.05l-.21.16c.26,1.31,1.34,2.72,2.54,3.01v.11Z"/>
    <path class="cls-16" d="M1250.3,874.49s.04.05.04.07c0,.02-.02.04-.07.04h-5.9c-.16,0-.38.03-.5.08l-.21-.27c.18.01.38.03.55.03h2.7v-1.23h-1.62c-.15,0-.37.03-.48.08l-.2-.27c.17.01.36.03.53.03h1.78v-.44c0-.29,0-.48-.02-.75l.54.29s.06.04.06.06c0,.02-.02.04-.05.06l-.18.11v.68h1.39l.31-.41.47.46s.06.07.06.09-.02.03-.08.03h-2.16v1.23h2.17l.32-.45.57.51ZM1250.34,869.25s.03.05.03.06c0,.03-.02.05-.08.06-.29.03-.47.11-.81.47l-.09-.07.29-.54h-5.04c-.06.6-.29.97-.63.97-.16,0-.25-.1-.25-.18,0-.09.08-.19.23-.29.23-.17.42-.39.54-1h.11c0,.12,0,.23,0,.33h4.97l.24-.28.48.47ZM1247.99,870.7c1.02.39,1.67.87,1.67,1.25,0,.16-.1.27-.17.27-.09,0-.17-.07-.22-.17-.05-.11-.14-.23-.25-.37l-3.02.19c-.56.04-.89.11-.95.14-.05.02-.08.03-.1.03-.03,0-.04-.02-.07-.05l-.24-.4c.28,0,.57-.08.69-.17.42-.31.82-.72,1.14-1.13h-1.21c-.15,0-.37.03-.48.08l-.2-.27c.17.02.36.03.53.03h3.62l.32-.42.45.47s.05.07.05.09-.02.03-.08.03h-2.45c-.58.52-1.13.96-1.67,1.32l3.55-.06c-.23-.25-.54-.5-.96-.76l.05-.08ZM1246.44,867.98c.77.26.97.45.97.69,0,.2-.15.38-.24.38-.12,0-.17-.03-.21-.21-.05-.2-.23-.5-.57-.78l.05-.08Z"/>
  </g>
  <g>
    <g>
      <rect class="cls-6" x="974.19" y="4.5" width="249" height="46.5"/>
      <line class="cls-6" x1="991.59" y1="4.5" x2="991.59" y2="50.9"/>
      <line class="cls-6" x1="1010.79" y1="4.5" x2="1010.79" y2="50.9"/>
      <line class="cls-6" x1="1029.99" y1="4.5" x2="1029.99" y2="50.9"/>
      <line class="cls-6" x1="1049.19" y1="4.5" x2="1049.19" y2="50.9"/>
      <line class="cls-6" x1="1068.39" y1="4.5" x2="1068.39" y2="50.9"/>
      <line class="cls-6" x1="1087.59" y1="4.5" x2="1087.59" y2="50.9"/>
      <line class="cls-6" x1="1106.79" y1="4.5" x2="1106.79" y2="50.9"/>
      <line class="cls-6" x1="1125.99" y1="4.5" x2="1125.99" y2="50.9"/>
      <line class="cls-6" x1="1145.19" y1="4.5" x2="1145.19" y2="50.9"/>
      <line class="cls-6" x1="1164.39" y1="4.5" x2="1164.39" y2="50.9"/>
      <line class="cls-6" x1="1183.59" y1="4.5" x2="1183.59" y2="50.9"/>
      <line class="cls-6" x1="1202.79" y1="4.5" x2="1202.79" y2="50.9"/>
    </g>
    <polyline class="cls-9" points="1172.99 33.3 1183.59 27.7 974.19 27.7"/>
    <polyline class="cls-9" points="1172.99 22.1 1183.59 27.7 974.19 27.7"/>
  </g>
  <g>
    <g>
      <rect class="cls-6" x="550.19" y="1.5" width="249" height="46.5"/>
      <line class="cls-6" x1="781.79" y1="47.9" x2="781.79" y2="1.5"/>
      <line class="cls-6" x1="762.59" y1="47.9" x2="762.59" y2="1.5"/>
      <line class="cls-6" x1="743.39" y1="47.9" x2="743.39" y2="1.5"/>
      <line class="cls-6" x1="724.19" y1="47.9" x2="724.19" y2="1.5"/>
      <line class="cls-6" x1="704.99" y1="47.9" x2="704.99" y2="1.5"/>
      <line class="cls-6" x1="685.79" y1="47.9" x2="685.79" y2="1.5"/>
      <line class="cls-6" x1="666.59" y1="47.9" x2="666.59" y2="1.5"/>
      <line class="cls-6" x1="647.39" y1="47.9" x2="647.39" y2="1.5"/>
      <line class="cls-6" x1="628.19" y1="47.9" x2="628.19" y2="1.5"/>
      <line class="cls-6" x1="608.99" y1="47.9" x2="608.99" y2="1.5"/>
      <line class="cls-6" x1="589.79" y1="47.9" x2="589.79" y2="1.5"/>
      <line class="cls-6" x1="570.59" y1="47.9" x2="570.59" y2="1.5"/>
    </g>
    <polyline class="cls-9" points="799.19 24.7 589.79 24.7 600.39 30.3"/>
    <polyline class="cls-9" points="799.19 24.7 589.79 24.7 600.39 19.1"/>
  </g>
</svg>
