<?xml version="1.0" encoding="UTF-8"?>
<svg id="_图层_1" data-name=" 图层 1" xmlns="http://www.w3.org/2000/svg" version="1.1" xmlns:xlink="http://www.w3.org/1999/xlink" viewBox="0 0 1584 2235.3">
  <defs>
    <style>
      .cls-1 {
        fill: #545454;
      }

      .cls-1, .cls-2, .cls-3, .cls-4 {
        stroke-width: 0px;
      }

      .cls-2 {
        fill: #000;
      }

      .cls-5 {
        font-size: 17px;
      }

      .cls-5, .cls-4, .cls-6 {
        fill: #fff;
      }

      .cls-5, .cls-6 {
        font-family: ArialMT, Arial;
      }

      .cls-7, .cls-6 {
        isolation: isolate;
      }

      .cls-8 {
        stroke: #a0a1a6;
      }

      .cls-8, .cls-9, .cls-10, .cls-11 {
        stroke-miterlimit: 10;
      }

      .cls-8, .cls-10, .cls-11 {
        fill: none;
      }

      .cls-9 {
        fill: #84a2de;
        stroke: #fff;
      }

      .cls-3 {
        fill: #a0a1a6;
      }

      .cls-10 {
        stroke-width: 3px;
      }

      .cls-10, .cls-11 {
        stroke: #545454;
      }

      .cls-6 {
        font-size: 32.3px;
      }
    </style>
    <symbol id="_新建符号" data-name=" 新建符号" viewBox="0 0 119.8 150.5">
      <rect class="cls-1" width="119.8" height="150.5"/>
    </symbol>
    <symbol id="_桌椅" data-name=" 桌椅" viewBox="0 0 110 75.2">
      <g>
        <g>
          <g>
            <path class="cls-8" d="M24.1,11.2v11.5H7.1v-11.5c0-4.3,3-7.9,6.6-7.9h3.7c3.7,0,6.6,3.5,6.6,7.9h.1Z"/>
            <path class="cls-8" d="M4.5,3.5s10.5-6.7,22.2,0"/>
            <path class="cls-8" d="M4.5,7.8s10.5-11.7,22.2,0"/>
            <polyline class="cls-8" points="7.2 2.4 8.2 4.1 9.5 1.8 11.2 2.7 15.2 1.1 19.7 2.5 21.9 1.8 22.6 3.9 24.5 2.6"/>
          </g>
          <g>
            <path class="cls-8" d="M50,11.2v11.5h-17v-11.5c0-4.3,3-7.9,6.7-7.9h3.7c3.7,0,6.7,3.5,6.7,7.9h-.1Z"/>
            <path class="cls-8" d="M30.4,3.5s10.5-6.7,22.2,0"/>
            <path class="cls-8" d="M30.4,7.8s10.5-11.7,22.2,0"/>
            <polyline class="cls-8" points="33.1 2.4 34.1 4.1 35.3 1.8 37.1 2.7 41.1 1.1 45.6 2.5 47.8 1.8 48.5 3.9 50.3 2.6"/>
          </g>
          <g>
            <path class="cls-8" d="M76.6,11.2v11.5h-17v-11.5c0-4.3,3-7.9,6.7-7.9h3.7c3.7,0,6.7,3.5,6.7,7.9h0Z"/>
            <path class="cls-8" d="M57,3.5s10.5-6.7,22.2,0"/>
            <path class="cls-8" d="M57,7.8s10.5-11.7,22.2,0"/>
            <polyline class="cls-8" points="59.7 2.4 60.7 4.1 61.9 1.8 63.7 2.7 67.7 1.1 72.2 2.5 74.4 1.8 75.1 3.9 76.9 2.6"/>
          </g>
          <g>
            <path class="cls-8" d="M102.4,11.2v11.5h-17v-11.5c0-4.3,3-7.9,6.7-7.9h3.7c3.7,0,6.7,3.5,6.7,7.9h0Z"/>
            <path class="cls-8" d="M82.8,3.5s10.5-6.7,22.2,0"/>
            <path class="cls-8" d="M82.8,7.8s10.5-11.7,22.2,0"/>
            <polyline class="cls-8" points="85.6 2.4 86.6 4.1 87.8 1.8 89.6 2.7 93.6 1.1 98 2.5 100.3 1.8 101 3.9 102.8 2.6"/>
          </g>
        </g>
        <g>
          <g>
            <path class="cls-8" d="M85.4,64v-11.5h17v11.5c0,4.3-3,7.9-6.7,7.9h-3.7c-3.7,0-6.7-3.5-6.7-7.9h0Z"/>
            <path class="cls-8" d="M105,71.7s-10.5,6.7-22.2,0"/>
            <path class="cls-8" d="M105,67.4s-10.5,11.7-22.2,0"/>
            <polyline class="cls-8" points="102.2 72.8 101.3 71.2 100 73.4 98.3 72.6 94.3 74.1 89.8 72.7 87.6 73.4 86.9 71.4 85 72.6"/>
          </g>
          <g>
            <path class="cls-8" d="M59.5,64v-11.5h17v11.5c0,4.3-3,7.9-6.7,7.9h-3.7c-3.7,0-6.7-3.5-6.7-7.9h0Z"/>
            <path class="cls-8" d="M79.1,71.7s-10.5,6.7-22.2,0"/>
            <path class="cls-8" d="M79.1,67.4s-10.5,11.7-22.2,0"/>
            <polyline class="cls-8" points="76.4 72.8 75.4 71.2 74.2 73.4 72.4 72.6 68.4 74.1 63.9 72.7 61.7 73.4 61 71.4 59.2 72.6"/>
          </g>
          <g>
            <path class="cls-8" d="M33,64v-11.5h17v11.5c0,4.3-3,7.9-6.7,7.9h-3.7c-3.7,0-6.7-3.5-6.7-7.9,0,0,0,0,.1,0Z"/>
            <path class="cls-8" d="M52.5,71.7s-10.5,6.7-22.2,0"/>
            <path class="cls-8" d="M52.5,67.4s-10.5,11.7-22.2,0"/>
            <polyline class="cls-8" points="49.8 72.8 48.8 71.2 47.6 73.4 45.8 72.6 41.8 74.1 37.3 72.7 35.1 73.4 34.4 71.4 32.6 72.6"/>
          </g>
          <g>
            <path class="cls-8" d="M7.1,64v-11.5h17v11.5c0,4.3-3,7.9-6.6,7.9h-3.7c-3.7,0-6.7-3.5-6.7-7.9h0Z"/>
            <path class="cls-8" d="M26.7,71.7s-10.5,6.7-22.2,0"/>
            <path class="cls-8" d="M26.7,67.4s-10.5,11.7-22.2,0"/>
            <polyline class="cls-8" points="23.9 72.8 22.9 71.2 21.7 73.4 20 72.6 15.9 74.1 11.5 72.7 9.2 73.4 8.5 71.4 6.7 72.6"/>
          </g>
        </g>
        <rect class="cls-3" y="21.7" width="110" height="32"/>
      </g>
    </symbol>
  </defs>
  <use width="110" height="75.2" transform="translate(915.4 608.7) rotate(-.2)" xlink:href="#_桌椅"/>
  <use width="110" height="75.2" transform="translate(915.4 608.7) rotate(-.2)" xlink:href="#_桌椅"/>
  <use width="110" height="75.2" transform="translate(917.5 702.3) rotate(-.2)" xlink:href="#_桌椅"/>
  <use width="110" height="75.2" transform="translate(917.5 702.3) rotate(-.2)" xlink:href="#_桌椅"/>
  <use width="110" height="75.2" transform="translate(918.4 797.5) rotate(-.2)" xlink:href="#_桌椅"/>
  <use width="110" height="75.2" transform="translate(918.4 797.5) rotate(-.2)" xlink:href="#_桌椅"/>
  <use width="110" height="75.2" transform="translate(920.5 891.1) rotate(-.2)" xlink:href="#_桌椅"/>
  <use width="110" height="75.2" transform="translate(920.5 891.1) rotate(-.2)" xlink:href="#_桌椅"/>
  <use width="110" height="75.2" transform="translate(921.4 986.2) rotate(-.2)" xlink:href="#_桌椅"/>
  <use width="110" height="75.2" transform="translate(921.4 986.2) rotate(-.2)" xlink:href="#_桌椅"/>
  <use width="110" height="75.2" transform="translate(923.5 1079.8) rotate(-.2)" xlink:href="#_桌椅"/>
  <use width="110" height="75.2" transform="translate(923.5 1079.8) rotate(-.2)" xlink:href="#_桌椅"/>
  <g>
    <rect class="cls-10" x="1100.5" y="564" width="137" height="457.2"/>
    <line class="cls-10" x1="1237.5" y1="596" x2="1100.5" y2="596"/>
    <line class="cls-10" x1="1237.5" y1="631.2" x2="1100.5" y2="631.2"/>
    <line class="cls-10" x1="1237.5" y1="666.5" x2="1100.5" y2="666.5"/>
    <line class="cls-10" x1="1237.5" y1="701.7" x2="1100.5" y2="701.7"/>
    <line class="cls-10" x1="1237.5" y1="737" x2="1100.5" y2="737"/>
    <line class="cls-10" x1="1237.5" y1="772.2" x2="1100.5" y2="772.2"/>
    <line class="cls-10" x1="1237.5" y1="807.5" x2="1100.5" y2="807.5"/>
    <line class="cls-10" x1="1237.5" y1="842.7" x2="1100.5" y2="842.7"/>
    <line class="cls-10" x1="1237.5" y1="878" x2="1100.5" y2="878"/>
    <line class="cls-10" x1="1237.5" y1="913.2" x2="1100.5" y2="913.2"/>
    <line class="cls-10" x1="1237.5" y1="948.5" x2="1100.5" y2="948.5"/>
    <line class="cls-10" x1="1237.5" y1="983.7" x2="1100.5" y2="983.7"/>
  </g>
  <polyline class="cls-11" points="1169 564 1169 948.5 1185.5 929"/>
  <polyline class="cls-11" points="1169 564 1169 948.5 1152.5 929"/>
  <g class="cls-7">
    <g class="cls-7">
      <g class="cls-7">
        <g class="cls-7">
          <g class="cls-7">
            <g class="cls-7">
              <text class="cls-6" transform="translate(1154.3 530.2) rotate(-.2) scale(.5 1)"><tspan x="0" y="0">1F</tspan></text>
            </g>
          </g>
        </g>
      </g>
    </g>
  </g>
  <g class="cls-7">
    <g class="cls-7">
      <g class="cls-7">
        <g class="cls-7">
          <g class="cls-7">
            <g class="cls-7">
              <text class="cls-6" transform="translate(1159.1 1065.5) rotate(-.2) scale(.5 1)"><tspan x="0" y="0">GF</tspan></text>
            </g>
          </g>
        </g>
      </g>
    </g>
  </g>
  <use width="119.8" height="150.5" transform="translate(595.8 1294)" xlink:href="#_新建符号"/>
  <use width="119.8" height="150.5" transform="translate(594.9 1118.1)" xlink:href="#_新建符号"/>
  <use width="119.8" height="150.5" transform="translate(594.1 942.2)" xlink:href="#_新建符号"/>
  <use width="119.8" height="150.5" transform="translate(593.2 766.3)" xlink:href="#_新建符号"/>
  <use width="119.8" height="150.5" transform="translate(592.4 590.4)" xlink:href="#_新建符号"/>
  <use width="119.8" height="150.5" transform="translate(591.5 414.5)" xlink:href="#_新建符号"/>
  <use width="119.8" height="150.5" transform="translate(590.6 238.6)" xlink:href="#_新建符号"/>
  <use width="119.8" height="150.5" transform="translate(594.7 1469.9)" xlink:href="#_新建符号"/>
  <use width="119.8" height="150.5" transform="translate(594.1 1667.5)" xlink:href="#_新建符号"/>
  <use width="119.8" height="150.5" transform="translate(754.5 2005.7) scale(2.6 1)" xlink:href="#_新建符号"/>
  <text class="cls-5" transform="translate(624.6 857.1)"><tspan x="0" y="0">B1-104</tspan></text>
  <text class="cls-5" transform="translate(625.2 323.7)"><tspan x="0" y="0">B1-107</tspan></text>
  <rect class="cls-9" x="1282.3" y="1166.2" width="167" height="232.9"/>
  <g>
    <path class="cls-2" d="M1315.2,1268.6v-12.2h4.6c.8,0,1.4,0,1.9.1.6,0,1.1.3,1.5.6.4.3.7.7,1,1.2s.4,1.1.4,1.7c0,1-.3,1.9-1,2.6s-1.8,1.1-3.6,1.1h-3.1v4.9h-1.6ZM1316.8,1262.2h3.1c1,0,1.8-.2,2.2-.6.4-.4.7-.9.7-1.6s-.1-.9-.4-1.3c-.3-.4-.6-.6-1-.7-.3,0-.8-.1-1.5-.1h-3.1v4.3Z"/>
    <path class="cls-2" d="M1332.1,1267.5c-.6.5-1.1.8-1.6,1-.5.2-1.1.3-1.6.3-1,0-1.7-.2-2.2-.7-.5-.5-.8-1.1-.8-1.8s0-.8.3-1.2c.2-.4.5-.6.8-.9s.7-.4,1.1-.5c.3,0,.7-.2,1.3-.2,1.2-.1,2.1-.3,2.7-.5,0-.2,0-.3,0-.4,0-.6-.1-1-.4-1.3-.4-.3-.9-.5-1.7-.5s-1.2.1-1.6.4-.6.7-.7,1.3l-1.5-.2c.1-.6.4-1.1.7-1.5s.7-.7,1.3-.9c.6-.2,1.2-.3,2-.3s1.4,0,1.8.3c.5.2.8.4,1,.7s.4.6.5,1c0,.3,0,.7,0,1.4v2c0,1.4,0,2.3,0,2.6s.2.7.4,1.1h-1.6c-.2-.3-.3-.7-.3-1.1ZM1331.9,1264.2c-.5.2-1.4.4-2.4.6-.6,0-1,.2-1.3.3-.3.1-.5.3-.6.5-.1.2-.2.4-.2.7,0,.4.2.7.5,1s.7.4,1.3.4,1.1-.1,1.5-.4c.4-.3.8-.6,1-1,.2-.3.2-.8.2-1.5v-.5Z"/>
    <path class="cls-2" d="M1335.7,1268.6v-8.8h1.3v1.3c.3-.6.7-1,1-1.2.3-.2.6-.3,1-.3.5,0,1,.2,1.5.5l-.5,1.4c-.4-.2-.7-.3-1.1-.3s-.6,0-.9.3-.4.5-.6.8c-.2.5-.2,1.1-.2,1.7v4.6h-1.5Z"/>
    <path class="cls-2" d="M1347.2,1265.4l1.5.2c-.2,1-.6,1.8-1.2,2.4-.7.6-1.5.9-2.4.9s-2.2-.4-2.9-1.2c-.7-.8-1.1-1.9-1.1-3.4s.2-1.8.5-2.5c.3-.7.8-1.2,1.4-1.6.6-.4,1.3-.5,2.1-.5s1.7.2,2.3.7c.6.5,1,1.2,1.2,2.1l-1.5.2c-.1-.6-.4-1-.7-1.3s-.8-.4-1.3-.4c-.8,0-1.4.3-1.8.8-.5.5-.7,1.4-.7,2.6s.2,2,.7,2.6c.5.5,1,.8,1.8.8s1.1-.2,1.5-.5c.4-.4.6-.9.7-1.7Z"/>
    <path class="cls-2" d="M1356,1265.8l1.5.2c-.2.9-.7,1.6-1.4,2.1-.7.5-1.5.7-2.5.7s-2.3-.4-3.1-1.2c-.8-.8-1.1-1.9-1.1-3.3s.4-2.6,1.1-3.5,1.8-1.2,3-1.2,2.1.4,2.9,1.2c.7.8,1.1,1.9,1.1,3.4s0,.2,0,.4h-6.6c0,1,.3,1.7.8,2.2.5.5,1.1.8,1.8.8s1-.1,1.4-.4c.4-.3.7-.7.9-1.4ZM1351,1263.3h4.9c0-.7-.3-1.3-.6-1.7-.5-.6-1.1-.9-1.9-.9s-1.3.2-1.7.7c-.5.5-.7,1.1-.8,1.8Z"/>
    <path class="cls-2" d="M1359.3,1268.6v-12.2h1.5v12.2h-1.5Z"/>
    <path class="cls-2" d="M1376.7,1264.3l1.6.4c-.3,1.3-.9,2.3-1.8,3s-1.9,1-3.2,1-2.4-.3-3.2-.8c-.8-.5-1.4-1.3-1.9-2.3-.4-1-.6-2.1-.6-3.3s.2-2.4.7-3.3,1.2-1.7,2.1-2.1c.9-.5,1.9-.7,3-.7s2.2.3,3.1.9c.8.6,1.4,1.5,1.7,2.6l-1.6.4c-.3-.9-.7-1.5-1.2-1.9s-1.2-.6-2-.6-1.7.2-2.3.7-1.1,1-1.3,1.8c-.3.8-.4,1.5-.4,2.3s.2,1.9.5,2.7c.3.8.8,1.3,1.4,1.7s1.3.6,2.1.6,1.7-.3,2.3-.8c.6-.5,1-1.3,1.3-2.3Z"/>
    <path class="cls-2" d="M1386.2,1265.8l1.5.2c-.2.9-.7,1.6-1.4,2.1-.7.5-1.5.7-2.5.7s-2.3-.4-3.1-1.2c-.8-.8-1.1-1.9-1.1-3.3s.4-2.6,1.1-3.5,1.8-1.2,3-1.2,2.1.4,2.9,1.2c.7.8,1.1,1.9,1.1,3.4s0,.2,0,.4h-6.6c0,1,.3,1.7.8,2.2.5.5,1.1.8,1.8.8s1-.1,1.4-.4c.4-.3.7-.7.9-1.4ZM1381.3,1263.3h4.9c0-.7-.3-1.3-.6-1.7-.5-.6-1.1-.9-1.9-.9s-1.3.2-1.7.7c-.5.5-.7,1.1-.8,1.8Z"/>
    <path class="cls-2" d="M1389.6,1268.6v-8.8h1.3v1.3c.6-1,1.6-1.5,2.8-1.5s1,0,1.5.3c.4.2.8.4,1,.8.2.3.4.7.5,1.1,0,.3,0,.8,0,1.5v5.4h-1.5v-5.4c0-.6,0-1.1-.2-1.4-.1-.3-.3-.5-.6-.7s-.6-.3-1-.3c-.6,0-1.2.2-1.6.6-.5.4-.7,1.2-.7,2.3v4.8h-1.5Z"/>
    <path class="cls-2" d="M1402.3,1267.3l.2,1.3c-.4,0-.8.1-1.1.1-.5,0-1,0-1.3-.3-.3-.2-.5-.4-.6-.7s-.2-.9-.2-1.8v-5.1h-1.1v-1.2h1.1v-2.2l1.5-.9v3.1h1.5v1.2h-1.5v5.2c0,.4,0,.7,0,.8s.1.2.3.3c.1,0,.3.1.5.1s.4,0,.7,0Z"/>
    <path class="cls-2" d="M1409.8,1265.8l1.5.2c-.2.9-.7,1.6-1.4,2.1-.7.5-1.5.7-2.5.7s-2.3-.4-3.1-1.2c-.8-.8-1.1-1.9-1.1-3.3s.4-2.6,1.1-3.5,1.8-1.2,3-1.2,2.1.4,2.9,1.2c.7.8,1.1,1.9,1.1,3.4s0,.2,0,.4h-6.6c0,1,.3,1.7.8,2.2.5.5,1.1.8,1.8.8s1-.1,1.4-.4c.4-.3.7-.7.9-1.4ZM1404.9,1263.3h4.9c0-.7-.3-1.3-.6-1.7-.5-.6-1.1-.9-1.9-.9s-1.3.2-1.7.7c-.5.5-.7,1.1-.8,1.8Z"/>
    <path class="cls-2" d="M1413.2,1268.6v-8.8h1.3v1.3c.3-.6.7-1,1-1.2.3-.2.6-.3,1-.3.5,0,1,.2,1.5.5l-.5,1.4c-.4-.2-.7-.3-1.1-.3s-.6,0-.9.3-.4.5-.6.8c-.2.5-.2,1.1-.2,1.7v4.6h-1.5Z"/>
    <path class="cls-2" d="M1334,1278.6c0,.5,0,.9,0,1.3,0,1.2-.2,1.8-.5,2.2-.3.3-.6.4-.8.4s-.4-.2-.4-.4,0-.4.3-.6c.6-.5,1-1.2,1.1-3h.2ZM1335.9,1278.2c1.5.6,2.4,1.2,2.4,2s-.2.7-.5.7-.4-.2-.5-.6c-.1-.4-.5-1.2-1.4-1.8v7.8c0,1.3,0,2.6,0,3.3h0c0,.4,0,.4-.4.6-.2,0-.3.1-.4.1s-.2-.1-.2-.4v-.2c0-1,0-2.5,0-3.5v-9.3c0-.7,0-1.9,0-2.5l1.1.6c.2,0,.3.1.3.2s-.4.3-.5.4v2.7ZM1348.2,1289.2c-.8,0-1.4.2-1.6.5,0,0,0,0-.1,0s0,0-.2,0c-2-1.6-3.5-3.3-4.1-6.3h-.4c-.4,3.5-1.9,5.6-5.7,7.3v-.2c3.3-2.1,4.5-3.9,4.9-7.2h-2.7c-.4,0-.8,0-1.1.2l-.5-.6c.4,0,.9,0,1.2,0h3.1c.1-1.2.2-2.4.2-4.6h-1.7c-.4,0-.8,0-1.1.2l-.5-.6c.4,0,.8,0,1.2,0h2.1v-3.5l1.3.6c.1,0,.2.1.2.1,0,0,0,.1-.6.4,0,.9,0,1.7,0,2.4h2.5l.5-.8,1.1.7c.1,0,.2.1.2.2s0,.1-.2.2l-.5.4v4.3h.8l.7-.8.9.8c.1.1.2.2.2.3s0,0-.3,0h-5.3c.8,2.9,2.8,5,5.6,5.6v.2ZM1344.9,1283v-4.6h-2.7c0,1.9-.2,3.3-.3,4.6h3Z"/>
    <path class="cls-2" d="M1365.3,1289.3c-.7.1-1.1.4-1.3.8,0,.1-.1.2-.3.2h-1.4c-2.2,0-4.1,0-5.6,0-2.1,0-2.8-.7-4-2.5,0-.1-.2-.2-.3-.2-.4,0-1.5,1.5-2.1,2.6,0,0,0,.1-.1.1s0,0,0,0l-.8-.7,2.8-2.4v-5.1h-1.6c-.2,0-.6.1-.8.2l-.5-.6c.3,0,.7,0,1,0h1.5l.5-.7,1.1.7c0,0,.1,0,.1.1s0,0-.1.1l-.5.3v5c.8,1.4,1.7,2.3,3.8,2.3s6,0,8.7-.4v.2ZM1351.1,1275.8c1.2.7,2.2,1.5,2.3,2.1,0,.1,0,.2,0,.3,0,.6-.4.9-.6.9s-.3-.2-.4-.7c-.3-1-.6-1.5-1.4-2.5v-.2ZM1364.3,1283.2c0,0,0,0,0,.1s0,0,0,0l-.5.3c0,2.5-.4,3.2-1.5,3.6,0,0-.1,0-.1,0,0,0-.1,0-.1-.2,0-.4-.3-.6-1.5-1.1v-.2c.8.2,1.3.2,1.7.2.5,0,.7-.2.7-.6.1-.7.2-1.3.2-2.2h-3.6v1.9c0,1.4,0,2,0,2.5h0c0,.4,0,.4-.4.6-.2,0-.3.1-.3.1-.1,0-.2-.1-.2-.4h0c0-1.1,0-1.8,0-2.8v-1.9c-1.3,2-3,3.5-4.9,4.6v-.2c1.6-1.2,3.2-2.9,4-4.4h-1.9l-.3.4c0,0,0,.1-.1.1s0,0-.1,0l-.9-.6.6-.5.2-1.9c0-.5,0-.8.1-1.2l.8.6h2.3v-2.3h-2.3c-.4,0-.8,0-1.1.2l-.5-.6c.4,0,.8,0,1.2,0h3.8c.5-.7,1.1-1.7,1.5-2.7l1,.5c0,0,0,0,0,0,0,0,0,0-.1,0-.4.1-.8.4-2.1,2h1.8l.5-.7,1,.8c0,0,.1.1.1.2s0,0-.5.4v1.3c0,.5,0,.9,0,1.3h0c0,.3,0,.3-.5.5-.1,0-.2,0-.2,0,0,0-.1,0-.1-.1v-.6h-2.8v2.4h3.4l.5-.6,1,.8ZM1358.7,1283v-2.4h-2.5l-.3,2.4h2.8ZM1356.2,1275c.7.3,2.2.9,2.2,1.7s-.2.6-.4.6-.2,0-.4-.5c-.2-.6-.6-1.2-1.4-1.7v-.2ZM1362.3,1280.2v-2.3h-2.8v2.3h2.8Z"/>
    <path class="cls-2" d="M1380.9,1278.3c.1,0,.2.1.2.2s0,.1-.2.2l-.5.4v2.5c0,1,0,1.6,0,2.4h0c0,.4,0,.4-.4.6-.2,0-.3.1-.3.1-.1,0-.1,0-.1-.2v-.9h-4.9v2.8c0,1.3,0,2.6,0,3.3h0c0,.4,0,.4-.4.6-.2,0-.3.1-.4.1-.1,0-.2-.1-.2-.4v-.2c0-1,0-2.5,0-3.5v-2.8h-4.9v.9c0,.2,0,.3-.4.4-.2,0-.3.1-.4.1s-.1,0-.1-.3v-.2c0-.6,0-1.4,0-2.2v-2.9c0-.4,0-1.2,0-1.8l1.2.8h4.5v-1.5c0-.7,0-1.9,0-2.5l1.4.7c.1,0,.2.1.2.2s0,.1-.2.2l-.5.4v2.4h4.5l.6-.9,1.1.8ZM1373.8,1283.2v-4.4h-4.9v4.4h4.9ZM1379.6,1283.2v-4.4h-4.9v4.4h4.9Z"/>
    <path class="cls-2" d="M1386.2,1280.5c0,.6,0,1.1,0,1.5,0,2.4-.4,3.6-1.3,4.3-.2.2-.5.3-.7.3s-.6-.2-.6-.4,0-.3.3-.6c1.1-1.2,1.6-1.9,2-5.1h.2ZM1395.2,1285c.1,2.2.2,2.5.7,2.7.1,0,.2.1.2.2s0,.1,0,.2c-.6,1.2-1.1,1.2-4.1,1.2s-3.6,0-3.6-1.3v-8.2c0-.7,0-1.3,0-2l1.1.5c.1,0,.2.1.2.2,0,.1,0,.1-.4.4v8.8c0,.8.2.9,3.1.9s1.2,0,1.5,0c.9,0,1-.2,1.1-3.5h.3ZM1390.3,1275.4c1.2.7,2.7,2,2.7,2.9s-.4,1.1-.7,1.1-.3-.2-.4-.5c-.1-.8-.8-2.3-1.7-3.3v-.2ZM1395.3,1280.3c1.7,1.3,3.2,3.2,3.5,3.9,0,.2,0,.3,0,.5,0,.6-.3,1.1-.7,1.1s-.3-.1-.5-.6c-.2-.8-1.3-3.3-2.5-4.8v-.2Z"/>
  </g>
</svg>
