<?xml version="1.0" encoding="UTF-8"?>
<svg id="_图层_1" data-name="图层 1" xmlns="http://www.w3.org/2000/svg" xmlns:xlink="http://www.w3.org/1999/xlink" viewBox="0 0 1662 971">
  <defs>
    <style>
      .cls-1 {
        fill: #000;
        font-family: ArialMT, Arial;
        font-size: 2.62px;
      }

      .cls-2 {
        fill: #545454;
      }

      .cls-2, .cls-3, .cls-4 {
        stroke-width: 0px;
      }

      .cls-3 {
        fill: #00c8cb;
      }

      .cls-5 {
        fill: #f60006;
      }

      .cls-5, .cls-6, .cls-7 {
        stroke: #fff;
        stroke-miterlimit: 10;
      }

      .cls-5, .cls-7 {
        stroke-width: .25px;
      }

      .cls-6 {
        fill: none;
        stroke-width: .5px;
      }

      .cls-4, .cls-7 {
        fill: #fff;
      }
    </style>
    <symbol id="AED" viewBox="0 0 10.48 10.83">
      <g>
        <g>
          <path class="cls-5" d="M10.36,2.91c0,.77-.31,1.46-.81,1.96h0s-4.21,5.76-4.21,5.76L1,4.93C.46,4.42.12,3.7.12,2.91.12,1.37,1.37.12,2.91.12c.98,0,1.84.51,2.33,1.27.49-.76,1.36-1.27,2.33-1.27,1.54,0,2.78,1.25,2.78,2.78Z"/>
          <polyline class="cls-6" points="5.31 1.92 4.43 4.67 6.59 3.49 5.41 8.74"/>
          <polygon class="cls-7" points="5.21 9.43 5.07 8.48 5.95 8.66 5.21 9.43"/>
        </g>
        <text class="cls-1" transform="translate(2.64 5.12) scale(1.03 1)"><tspan x="0" y="0">AED</tspan></text>
      </g>
    </symbol>
    <symbol id="_新建符号" data-name="新建符号" viewBox="0 0 332 725">
      <rect class="cls-2" width="332" height="725"/>
    </symbol>
  </defs>
  <use width="332" height="725" transform="scale(1 .84)" xlink:href="#_新建符号"/>
  <use width="332" height="725" transform="translate(1051 894) scale(.85 .11)" xlink:href="#_新建符号"/>
  <use width="332" height="725" transform="translate(1330)" xlink:href="#_新建符号"/>
  <g>
    <path class="cls-4" d="M55.41,270.74v-12.55h8.46v1.48h-6.8v3.89h5.89v1.48h-5.89v5.7h-1.66Z"/>
    <path class="cls-4" d="M65.84,259.97v-1.77h1.54v1.77h-1.54ZM65.84,270.74v-9.09h1.54v9.09h-1.54Z"/>
    <path class="cls-4" d="M73.09,269.37l.22,1.36c-.43.09-.82.14-1.16.14-.56,0-.99-.09-1.3-.27s-.53-.41-.65-.7c-.13-.29-.19-.89-.19-1.82v-5.23h-1.13v-1.2h1.13v-2.25l1.53-.92v3.18h1.55v1.2h-1.55v5.31c0,.44.03.72.08.85s.14.23.27.3.3.11.53.11c.17,0,.4-.02.68-.06Z"/>
    <path class="cls-4" d="M74.6,270.74v-9.09h1.39v1.29c.67-1,1.63-1.5,2.89-1.5.55,0,1.05.1,1.51.3s.8.46,1.03.77c.23.32.39.7.48,1.14.06.29.09.78.09,1.5v5.59h-1.54v-5.53c0-.63-.06-1.1-.18-1.41-.12-.31-.33-.56-.64-.74-.31-.19-.66-.28-1.07-.28-.66,0-1.22.21-1.7.62s-.71,1.21-.71,2.37v4.96h-1.54Z"/>
    <path class="cls-4" d="M90.57,267.82l1.59.2c-.25.93-.72,1.65-1.4,2.17-.68.51-1.55.77-2.6.77-1.33,0-2.38-.41-3.16-1.23-.78-.82-1.17-1.97-1.17-3.44s.39-2.72,1.18-3.56c.79-.84,1.81-1.27,3.06-1.27s2.21.41,2.98,1.24c.77.83,1.16,1.99,1.16,3.49,0,.09,0,.23,0,.41h-6.78c.06,1,.34,1.76.85,2.29.51.53,1.14.8,1.9.8.56,0,1.05-.15,1.45-.44.4-.3.72-.77.95-1.42ZM85.51,265.33h5.08c-.07-.76-.26-1.34-.58-1.72-.49-.59-1.13-.89-1.91-.89-.71,0-1.3.24-1.78.71-.48.47-.75,1.11-.8,1.9Z"/>
    <path class="cls-4" d="M93.48,268.03l1.52-.24c.09.61.32,1.08.71,1.4.39.33.94.49,1.64.49s1.23-.14,1.57-.43c.34-.29.51-.63.51-1.01,0-.35-.15-.62-.45-.82-.21-.14-.74-.31-1.58-.52-1.13-.29-1.91-.53-2.35-.74-.44-.21-.77-.5-.99-.86-.23-.37-.34-.77-.34-1.22,0-.41.09-.78.28-1.13.19-.35.44-.63.76-.86.24-.18.57-.33.98-.45s.86-.18,1.33-.18c.71,0,1.34.1,1.88.31.54.21.94.48,1.19.83.26.35.43.82.53,1.41l-1.51.21c-.07-.47-.27-.83-.59-1.1-.33-.26-.79-.39-1.39-.39-.71,0-1.21.12-1.52.35s-.45.51-.45.82c0,.2.06.38.19.54.13.17.32.3.59.41.15.06.61.19,1.36.39,1.09.29,1.85.53,2.28.71.43.19.77.46,1.01.81.25.35.37.79.37,1.32s-.15,1-.45,1.45c-.3.45-.73.8-1.3,1.05-.56.25-1.2.37-1.92.37-1.18,0-2.08-.25-2.7-.74s-1.01-1.22-1.19-2.18Z"/>
    <path class="cls-4" d="M102.24,268.03l1.52-.24c.09.61.32,1.08.71,1.4.39.33.94.49,1.64.49s1.23-.14,1.57-.43c.34-.29.51-.63.51-1.01,0-.35-.15-.62-.45-.82-.21-.14-.74-.31-1.58-.52-1.13-.29-1.91-.53-2.35-.74-.44-.21-.77-.5-.99-.86-.23-.37-.34-.77-.34-1.22,0-.41.09-.78.28-1.13.19-.35.44-.63.76-.86.24-.18.57-.33.98-.45s.86-.18,1.33-.18c.71,0,1.34.1,1.88.31.54.21.94.48,1.19.83.26.35.43.82.53,1.41l-1.51.21c-.07-.47-.27-.83-.59-1.1-.33-.26-.79-.39-1.39-.39-.71,0-1.21.12-1.52.35s-.45.51-.45.82c0,.2.06.38.19.54.13.17.32.3.59.41.15.06.61.19,1.36.39,1.09.29,1.85.53,2.28.71.43.19.77.46,1.01.81.25.35.37.79.37,1.32s-.15,1-.45,1.45c-.3.45-.73.8-1.3,1.05-.56.25-1.2.37-1.92.37-1.18,0-2.08-.25-2.7-.74s-1.01-1.22-1.19-2.18Z"/>
    <path class="cls-4" d="M116.72,270.74v-12.55h5.56c1.12,0,1.97.11,2.55.34s1.05.62,1.4,1.19c.35.57.52,1.2.52,1.89,0,.89-.29,1.64-.86,2.25-.58.61-1.47,1-2.67,1.16.44.21.77.42,1,.62.48.45.94,1,1.38,1.67l2.18,3.42h-2.09l-1.66-2.61c-.48-.75-.88-1.33-1.2-1.73-.31-.4-.59-.68-.84-.84-.25-.16-.5-.27-.76-.33-.19-.04-.5-.06-.92-.06h-1.93v5.57h-1.66ZM118.38,263.73h3.57c.76,0,1.35-.08,1.78-.24.43-.16.75-.41.98-.75s.33-.72.33-1.13c0-.59-.22-1.08-.65-1.46-.43-.38-1.11-.57-2.04-.57h-3.97v4.15Z"/>
    <path class="cls-4" d="M128.58,266.2c0-1.68.47-2.93,1.4-3.74.78-.67,1.73-1.01,2.86-1.01,1.25,0,2.27.41,3.06,1.23.79.82,1.19,1.95,1.19,3.39,0,1.17-.18,2.09-.53,2.76-.35.67-.86,1.19-1.53,1.56-.67.37-1.4.56-2.2.56-1.27,0-2.3-.41-3.09-1.22s-1.18-1.99-1.18-3.53ZM130.16,266.2c0,1.16.25,2.04.76,2.61.51.58,1.15.87,1.92.87s1.4-.29,1.91-.87.76-1.47.76-2.66c0-1.12-.26-1.98-.77-2.55s-1.15-.87-1.9-.87-1.41.29-1.92.86c-.51.58-.76,1.45-.76,2.61Z"/>
    <path class="cls-4" d="M138.33,266.2c0-1.68.47-2.93,1.4-3.74.78-.67,1.73-1.01,2.86-1.01,1.25,0,2.27.41,3.06,1.23.79.82,1.19,1.95,1.19,3.39,0,1.17-.18,2.09-.53,2.76-.35.67-.86,1.19-1.53,1.56-.67.37-1.4.56-2.2.56-1.27,0-2.3-.41-3.09-1.22s-1.18-1.99-1.18-3.53ZM139.91,266.2c0,1.16.25,2.04.76,2.61.51.58,1.15.87,1.92.87s1.4-.29,1.91-.87.76-1.47.76-2.66c0-1.12-.26-1.98-.77-2.55s-1.15-.87-1.9-.87-1.41.29-1.92.86c-.51.58-.76,1.45-.76,2.61Z"/>
    <path class="cls-4" d="M148.65,270.74v-9.09h1.38v1.28c.29-.45.67-.8,1.14-1.07.47-.27,1.01-.41,1.62-.41.67,0,1.23.14,1.66.42.43.28.73.67.91,1.17.72-1.06,1.65-1.59,2.81-1.59.9,0,1.59.25,2.08.75.48.5.73,1.27.73,2.31v6.24h-1.53v-5.73c0-.62-.05-1.06-.15-1.33-.1-.27-.28-.49-.54-.65-.26-.17-.57-.25-.92-.25-.64,0-1.17.21-1.59.64-.42.43-.63,1.11-.63,2.04v5.28h-1.54v-5.91c0-.68-.13-1.2-.38-1.54-.25-.34-.66-.51-1.23-.51-.43,0-.83.11-1.2.34-.37.23-.63.56-.8,1s-.25,1.07-.25,1.9v4.72h-1.54Z"/>
    <path class="cls-4" d="M171.07,274.43c-.85-1.07-1.57-2.33-2.16-3.77-.59-1.44-.88-2.93-.88-4.47,0-1.36.22-2.66.66-3.9.51-1.44,1.31-2.88,2.38-4.31h1.1c-.69,1.19-1.15,2.03-1.37,2.54-.35.79-.62,1.61-.82,2.46-.25,1.07-.37,2.14-.37,3.22,0,2.74.85,5.49,2.56,8.23h-1.1Z"/>
    <path class="cls-4" d="M172.78,270.74l4.82-12.55h1.79l5.14,12.55h-1.89l-1.46-3.8h-5.25l-1.38,3.8h-1.76ZM176.4,265.59h4.25l-1.31-3.48c-.4-1.06-.7-1.92-.89-2.6-.16.8-.39,1.6-.68,2.4l-1.38,3.68Z"/>
    <path class="cls-4" d="M191.87,267.82l1.59.2c-.25.93-.72,1.65-1.4,2.17-.68.51-1.55.77-2.6.77-1.33,0-2.38-.41-3.16-1.23-.78-.82-1.17-1.97-1.17-3.44s.39-2.72,1.18-3.56c.79-.84,1.81-1.27,3.06-1.27s2.21.41,2.98,1.24c.77.83,1.16,1.99,1.16,3.49,0,.09,0,.23,0,.41h-6.78c.06,1,.34,1.76.85,2.29.51.53,1.14.8,1.9.8.56,0,1.05-.15,1.45-.44.4-.3.72-.77.95-1.42ZM186.81,265.33h5.08c-.07-.76-.26-1.34-.58-1.72-.49-.59-1.13-.89-1.91-.89-.71,0-1.3.24-1.78.71-.48.47-.75,1.11-.8,1.9Z"/>
    <path class="cls-4" d="M195.38,270.74v-9.09h1.39v1.38c.35-.64.68-1.07.98-1.28.3-.21.63-.31.99-.31.52,0,1.05.17,1.58.5l-.53,1.43c-.38-.22-.75-.33-1.13-.33-.34,0-.64.1-.91.3-.27.2-.46.48-.57.84-.17.55-.26,1.15-.26,1.8v4.76h-1.54Z"/>
    <path class="cls-4" d="M200.66,266.2c0-1.68.47-2.93,1.4-3.74.78-.67,1.73-1.01,2.86-1.01,1.25,0,2.27.41,3.06,1.23.79.82,1.19,1.95,1.19,3.39,0,1.17-.18,2.09-.53,2.76-.35.67-.86,1.19-1.53,1.56-.67.37-1.4.56-2.2.56-1.27,0-2.3-.41-3.09-1.22s-1.18-1.99-1.18-3.53ZM202.25,266.2c0,1.16.25,2.04.76,2.61.51.58,1.15.87,1.92.87s1.4-.29,1.91-.87.76-1.47.76-2.66c0-1.12-.26-1.98-.77-2.55s-1.15-.87-1.9-.87-1.41.29-1.92.86c-.51.58-.76,1.45-.76,2.61Z"/>
    <path class="cls-4" d="M212.4,270.74h-1.43v-12.55h1.54v4.48c.65-.82,1.48-1.22,2.49-1.22.56,0,1.09.11,1.59.34.5.23.91.54,1.23.95.32.41.57.9.76,1.48.18.58.27,1.19.27,1.85,0,1.56-.38,2.76-1.16,3.61-.77.85-1.69,1.28-2.77,1.28s-1.91-.45-2.52-1.34v1.14ZM212.39,266.13c0,1.09.15,1.88.44,2.36.49.79,1.14,1.19,1.97,1.19.67,0,1.26-.29,1.75-.88s.74-1.46.74-2.61-.24-2.06-.71-2.63-1.04-.85-1.71-.85-1.26.29-1.75.88-.74,1.43-.74,2.54Z"/>
    <path class="cls-4" d="M220.74,259.97v-1.77h1.54v1.77h-1.54ZM220.74,270.74v-9.09h1.54v9.09h-1.54Z"/>
    <path class="cls-4" d="M230.56,267.41l1.52.2c-.17,1.04-.59,1.86-1.27,2.45-.68.59-1.52.89-2.51.89-1.24,0-2.24-.41-3-1.22-.76-.81-1.13-1.98-1.13-3.5,0-.98.16-1.84.49-2.58.33-.74.82-1.29,1.49-1.66.66-.37,1.39-.55,2.17-.55.99,0,1.79.25,2.42.75.63.5,1.03,1.21,1.21,2.13l-1.5.23c-.14-.61-.4-1.07-.76-1.38s-.8-.46-1.31-.46c-.78,0-1.41.28-1.89.83-.48.56-.73,1.44-.73,2.64s.23,2.11.7,2.66c.47.55,1.08.83,1.83.83.6,0,1.11-.19,1.52-.56.41-.37.66-.94.77-1.71Z"/>
    <path class="cls-4" d="M236.11,270.74l4.82-12.55h1.79l5.14,12.55h-1.89l-1.46-3.8h-5.25l-1.38,3.8h-1.76ZM239.73,265.59h4.25l-1.31-3.48c-.4-1.06-.7-1.92-.89-2.6-.16.8-.39,1.6-.68,2.4l-1.38,3.68Z"/>
    <path class="cls-4" d="M248.97,270.74v-9.09h1.39v1.38c.35-.64.68-1.07.98-1.28.3-.21.63-.31.99-.31.52,0,1.05.17,1.58.5l-.53,1.43c-.38-.22-.75-.33-1.13-.33-.34,0-.64.1-.91.3-.27.2-.46.48-.57.84-.17.55-.26,1.15-.26,1.8v4.76h-1.54Z"/>
    <path class="cls-4" d="M261.04,267.82l1.59.2c-.25.93-.72,1.65-1.4,2.17-.68.51-1.55.77-2.6.77-1.33,0-2.38-.41-3.16-1.23-.78-.82-1.17-1.97-1.17-3.44s.39-2.72,1.18-3.56c.79-.84,1.81-1.27,3.06-1.27s2.21.41,2.98,1.24c.77.83,1.16,1.99,1.16,3.49,0,.09,0,.23,0,.41h-6.78c.06,1,.34,1.76.85,2.29.51.53,1.14.8,1.9.8.56,0,1.05-.15,1.45-.44.4-.3.72-.77.95-1.42ZM255.99,265.33h5.08c-.07-.76-.26-1.34-.58-1.72-.49-.59-1.13-.89-1.91-.89-.71,0-1.3.24-1.78.71-.48.47-.75,1.11-.8,1.9Z"/>
    <path class="cls-4" d="M270.5,269.62c-.57.48-1.12.83-1.65,1.03s-1.09.3-1.7.3c-1,0-1.77-.24-2.3-.73-.54-.49-.8-1.11-.8-1.87,0-.44.1-.85.3-1.22.2-.37.47-.66.8-.89s.7-.39,1.11-.5c.3-.08.76-.16,1.37-.23,1.24-.15,2.16-.33,2.75-.53,0-.21,0-.35,0-.4,0-.63-.15-1.07-.44-1.33-.39-.35-.98-.52-1.75-.52-.72,0-1.26.13-1.6.38s-.6.7-.77,1.35l-1.51-.21c.14-.64.36-1.17.68-1.56s.77-.7,1.36-.92c.59-.21,1.28-.32,2.06-.32s1.41.09,1.89.27.84.41,1.07.69c.23.28.39.63.48,1.05.05.26.08.74.08,1.42v2.05c0,1.43.03,2.34.1,2.72.07.38.2.74.39,1.09h-1.61c-.16-.32-.26-.69-.31-1.12ZM270.37,266.18c-.56.23-1.4.42-2.52.58-.63.09-1.08.19-1.34.31-.26.11-.46.28-.61.5s-.21.46-.21.73c0,.41.16.75.47,1.03s.77.41,1.37.41,1.12-.13,1.58-.39c.46-.26.8-.61,1.02-1.07.17-.35.25-.86.25-1.54v-.56Z"/>
    <path class="cls-4" d="M275.33,274.43h-1.1c1.71-2.74,2.56-5.48,2.56-8.23,0-1.07-.12-2.14-.37-3.19-.19-.86-.47-1.68-.81-2.46-.22-.51-.68-1.37-1.38-2.57h1.1c1.07,1.43,1.87,2.87,2.38,4.31.44,1.24.66,2.54.66,3.9,0,1.54-.29,3.03-.89,4.47-.59,1.44-1.31,2.69-2.15,3.77Z"/>
    <path class="cls-4" d="M101.62,277.82c.1.07.16.1.16.16,0,.04-.07.07-.19.12-.3.11-.46.32-.63.74-.58,1.37-1.05,2.42-1.47,3.31l.7.39c.09.04.12.07.12.11s-.02.07-.07.1l-.46.39v7c0,1.09.04,1.7.05,2v.09c0,.28-.09.33-.39.47-.16.07-.26.11-.35.11-.1,0-.14-.09-.14-.32v-.25c.04-.53.05-1.23.05-2.14v-6.98c-.67,1.28-1.26,2.17-2.09,3.24l-.19-.16c1.6-2.74,3-5.89,3.86-9.01l1.03.63ZM112.98,291.34c-1.03.23-1.31.44-1.46.84-.04.1-.07.14-.21.14-5.42-.1-6.49-.37-8.33-2.35-.56,1.19-1.47,2.12-2.88,3.23l-.14-.16c1.37-1.35,2.03-2.24,2.58-3.58-.58-.79-1.33-2.38-1.6-3.37l.23-.09c.49,1.16.98,2,1.61,2.84.33-1,.56-2.03.77-4.12h-1.31c-.25.4-.26.44-.33.44-.03,0-.07-.02-.12-.05l-.82-.65.72-.4,1.54-3.87h-1.16c-.3,0-.74.07-.96.19l-.42-.65c.37.04.74.07,1.07.07h1.35l.53-.68.88.88c.07.07.11.12.11.16s-.05.07-.14.09c-.4.1-.61.23-.82.74l-1.37,3.37h1.12l.49-.63.81.77c.05.05.07.09.07.12,0,.05-.04.09-.09.12l-.42.25c-.32,2.24-.6,3.37-1.03,4.44,1.19,1.37,2.63,2.03,5.56,2.03,1.16,0,2.52-.11,4.19-.3v.19ZM113.38,281.75c.07.05.1.1.1.14s-.05.05-.14.05h-2.3v.65c0,.51.02.86.05,1.44,0,.26-.05.33-.44.49-.12.05-.21.07-.28.07-.1,0-.1-.05-.1-.54h-1.96v1.74h2.02l.61-.77,1.05.96c.07.05.11.1.11.14s-.04.05-.12.05h-3.66v1.79h2.47l.56-.82,1.12.98c.09.07.14.12.14.16,0,.05-.07.07-.19.07h-4.1c0,.7,0,1.25.05,2.02v.07c0,.18-.07.25-.4.44-.16.09-.26.12-.33.12-.09,0-.12-.09-.12-.28s.04-2,.04-2.37h-1.86c-.32,0-.74.07-.98.19l-.4-.65c.37.04.74.07,1.07.07h2.17v-1.79h-1.44c-.3,0-.7.07-.96.19l-.39-.65c.35.04.7.07,1.03.07h1.75v-1.74h-1.26c-.3,0-.61.05-.86.16l-.4-.61c.33.04.65.07.95.07h1.58v-1.72h-2.17c-.3,0-.63.07-.88.16l-.49-.61c.37.04.72.07,1.05.07h2.49v-1.72h-1.56c-.26,0-.51.05-.74.12l-.51-.56c.33.04.67.05.98.05h1.82c0-.72,0-1.84-.04-2.47l1.25.58c.07.04.1.05.1.1,0,.02-.02.05-.07.09l-.47.33v1.37h1.74l.46-.63,1,.68c.07.05.11.09.11.14,0,.02-.02.05-.05.07l-.51.32v1.53h.72l.6-.74,1.02.93ZM110.28,281.56v-1.72h-1.96v1.72h1.96ZM110.28,283.66v-1.72h-1.96v1.72h1.96Z"/>
    <path class="cls-4" d="M130.17,283.45c.16.1.23.18.23.23,0,.07-.11.09-.26.11-.4.02-.56.07-.88.42-.67.7-1.39,1.42-2.17,2.1v5.77c0,.89-.09,1-1.3,1.39-.03.02-.09.02-.1.02-.09,0-.12-.05-.14-.18-.14-.6-.47-.88-2.33-1.44l.07-.21c1.31.25,2.05.37,2.45.37.51,0,.53-.18.53-.51v-4.54c-3.05,2.45-6.98,4.59-11.48,5.93l-.07-.23c4.54-1.81,8.1-3.77,10.8-6.01l-8.84.44c-.37.02-.88.1-1.17.23l-.49-.61c.44.04.88.05,1.28.04l2.23-.11v-6.26c0-.56-.02-1.58-.03-2.02l.93.77h1.7c.44-.84.7-1.61.91-2.42l1.16.54c.14.07.19.12.19.18s-.07.09-.23.1c-.37.05-.6.21-1.68,1.6h4.51l.51-.84,1.14.75c.12.07.18.12.18.18s-.05.11-.18.19l-.53.4v5.44c.81-.81,1.52-1.65,2.09-2.51l1,.7ZM126.26,281.63v-2.1h-6.94v2.1h6.94ZM126.26,283.89v-1.88h-6.94v1.88h6.94ZM125.96,286.29c.1-.09.19-.18.3-.26v-1.75h-6.94v2.33l6.65-.32Z"/>
    <path class="cls-4" d="M146.88,279.15c.09.05.12.1.12.16s-.04.1-.12.18l-.53.42v.96c0,.25.11,1.47.11,1.53,0,.19-.09.25-.46.39-.19.07-.32.11-.39.11-.14,0-.14-.07-.14-.61h-9.99c-.12,6.47-.63,8.19-3.24,11.1l-.19-.18c1.96-2.56,2.37-4.87,2.47-8.29.07-1.98.12-5.1.09-6.5l1.03.84h9.59l.49-.81,1.16.72ZM148.07,285.01c.12.11.18.18.18.23,0,.07-.07.09-.23.09h-7.47c-.05.75-.14,1.44-.25,2.07h4.28l.49-.7,1.09.81c.09.05.14.1.14.14,0,.05-.05.09-.14.16l-.53.35c-.14,1.49-.28,2.3-.54,3.4-.21.88-.49,1.16-1.68,1.67-.07.04-.12.05-.16.05-.07,0-.11-.05-.12-.16-.07-.65-.49-1.03-2.02-1.44l.07-.26c1.14.26,1.82.4,2.24.4.61,0,.72-.28.89-.86.25-.84.39-1.67.46-3.19h-4.54c-.58,2.7-1.95,4.17-5.31,5.65l-.1-.23c3.31-1.95,4.68-3.44,4.8-7.85h-2.42c-.37,0-.88.07-1.17.19l-.49-.63c.44.04.88.07,1.28.07h9.47l.75-.91,1.03.96ZM145.47,281.89v-2.26h-9.96c0,.82-.02,1.56-.04,2.26h9.99ZM139.13,276.72c1.93.28,2.52.88,2.52,1.47,0,.63-.35.96-.61.96-.16,0-.35-.07-.42-.46-.09-.47-.51-1.24-1.56-1.79l.07-.19ZM140.06,282.56c1.49.46,1.91.82,1.98,1.39,0,.4-.26.84-.6.84-.12,0-.28-.19-.32-.44-.05-.35-.42-1.03-1.17-1.61l.11-.18Z"/>
    <path class="cls-4" d="M164.16,294.51c-3.44-3.02-4.33-5.12-4.33-8.22,0-2.49,1.26-5.26,4.28-7.63l.26.23c-2.19,1.91-3.38,4.91-3.38,7.42,0,3.1.89,5.54,3.38,7.94l-.21.26Z"/>
    <path class="cls-4" d="M183.18,279.73c.14.14.21.23.21.3s-.09.09-.28.09h-8.94c-.53.89-1.1,1.88-1.53,2.54h6.56l.53-.81,1.05.65c.16.09.23.16.23.21s-.05.11-.18.19l-.46.33v8.1c0,1.25-.09,1.49-1.05,1.93-.09.04-.14.05-.19.05-.07,0-.1-.05-.14-.21-.12-.58-.47-.81-2.1-1.28l.07-.25c1,.12,1.61.19,2,.19.56,0,.6-.16.6-.49v-2.68h-6.85v1.49c0,.39.04,2.19.04,2.45s-.07.33-.42.53c-.16.09-.26.14-.35.14-.11,0-.12-.1-.12-.33v-.16c.04-1.03.05-2.61.05-3.61v-5.33c-1.4,1.88-3.03,3.7-4.54,4.94l-.19-.23c2.47-2.28,4.66-5.56,6.1-8.38h-4.19c-.37,0-.88.07-1.17.19l-.49-.65c.44.04.88.07,1.28.07h4.77c.7-1.4,1.05-2.19,1.35-3.02l1.19.72c.14.09.19.14.19.18,0,.05-.07.09-.25.12-.39.09-.56.25-.74.58-.19.37-.47.86-.81,1.42h6.91l.82-1.05,1.05,1.05ZM179.55,285.45v-2.4h-6.85v2.4h6.85ZM179.55,288.22v-2.38h-6.85v2.38h6.85Z"/>
    <path class="cls-4" d="M200.2,279.05c.07.07.11.11.11.14s-.05.05-.16.05h-11.71c-1.42,2.12-2.49,3.45-3.61,4.56l-.18-.16c1.98-2.51,3.52-5.37,4.1-6.77l1.05.63c.09.05.14.11.14.14,0,.05-.07.09-.23.16-.47.19-.53.28-1.03,1.07h9.59l.68-1,1.24,1.17ZM196.48,289.66c.07.07.09.11.09.14s-.04.05-.14.05h-5.17v.75c0,.81,0,1.44.04,1.93v.09c0,.21-.07.26-.39.42-.16.07-.28.11-.35.11-.12,0-.16-.09-.16-.28v-.09c.04-.63.05-1.58.05-2.21v-.72h-4.28c-.33,0-.81.07-1.07.18l-.44-.6c.39.03.79.07,1.16.07h4.63v-1.77h-2.84c-.33,0-.81.07-1.07.18l-.44-.6c.39.04.79.07,1.16.07h3.19v-1.65h-3.63c-.33,0-.81.07-1.07.18l-.44-.6c.39.03.79.07,1.16.07h4.79c.82-1.17,1.23-1.81,1.58-2.47l.93.67c.05.04.07.05.07.09s-.03.05-.1.09c-.47.19-.91.51-2.1,1.63h2.72l.74-.82,1.05,1c.05.05.09.11.09.12,0,.03-.05.05-.14.05h-4.82v1.65h2.26l.63-.84,1,.95c.11.09.14.14.14.19,0,.04-.05.05-.19.05h-3.84v1.77h3.4l.72-.91,1.1,1.07ZM200.51,288.64c-.02.46-.04.88-.04,1.24,0,1.39.14,2.23.35,2.49.14.18.21.33.21.46,0,.19-.09.21-.21.21-.32,0-.93-.25-1.61-.72-2.12-1.47-2.45-3.54-2.45-8.08,0-.53,0-1.09.02-1.68h-8.35c-.37,0-.88.07-1.17.19l-.49-.61c.44.03.88.07,1.28.07h8.52l.51-.72,1.1.86c.07.05.12.11.12.14s-.05.07-.14.12l-.56.33c-.05,1-.07,1.79-.07,2.44,0,2.3.28,5.31,2.26,6.19.18-.63.26-1.07.46-2.95l.26.02ZM188.06,283.17c.32.12,1.98.82,1.98,1.49,0,.28-.21.54-.39.54-.16,0-.3-.12-.4-.39-.19-.51-.47-.93-1.3-1.49l.1-.16ZM198.64,280.7c.07.07.1.12.1.16s-.05.05-.18.05h-8.71c-.37,0-.88.07-1.17.19l-.49-.61c.44.04.88.07,1.28.07h7.35l.72-.91,1.1,1.05Z"/>
    <path class="cls-4" d="M218.04,291.57c.1.11.16.18.16.23,0,.07-.07.09-.21.09h-12.75l-.56.56c-.07.07-.12.11-.18.11s-.1-.04-.18-.09l-1-.81.81-.63v-10.68c0-.88-.05-2.21-.07-2.86l1.3,1.07h10.12l.68-1.02,1.17,1.02c.12.1.18.19.18.26s-.07.12-.25.12h-12.31v12.55h11.08l.84-.96,1.16,1.03ZM214.17,281.45c-.61,1.03-1.39,2.16-2.23,3.26,1.91,1.6,2.54,2.24,2.98,2.79.26.32.35.68.35,1.02,0,.49-.23.89-.49.89-.21,0-.33-.14-.6-.81-.26-.65-1.14-1.79-2.72-3.3-1.56,1.93-3.51,3.7-5.51,4.7l-.09-.25c2.03-1.44,3.66-3.07,5.08-4.93-1.3-1.17-2.72-2.35-4.16-3.42l.16-.19c1.49.88,3.16,2.05,4.4,3.03.84-1.23,1.79-2.89,2.33-4.26l1.12,1c.09.07.12.12.12.18,0,.04-.05.07-.18.1l-.6.18Z"/>
    <path class="cls-4" d="M221.09,294.35l-.26-.26c2.19-2.07,3.19-4.91,3.19-7.64s-.96-5.35-3.24-7.47l.21-.26c3.14,2.42,4.23,5.24,4.23,7.73,0,3.1-1.46,5.77-4.12,7.91Z"/>
  </g>
  <g>
    <path class="cls-4" d="M1361.9,353.42v-13.94h9.41v1.65h-7.56v4.32h6.54v1.65h-6.54v6.33h-1.84Z"/>
    <path class="cls-4" d="M1373.49,341.44v-1.97h1.71v1.97h-1.71ZM1373.49,353.42v-10.1h1.71v10.1h-1.71Z"/>
    <path class="cls-4" d="M1381.54,351.89l.25,1.51c-.48.1-.91.15-1.29.15-.62,0-1.1-.1-1.45-.29-.34-.2-.58-.46-.72-.77-.14-.32-.21-.99-.21-2.02v-5.81h-1.25v-1.33h1.25v-2.5l1.7-1.03v3.53h1.72v1.33h-1.72v5.91c0,.49.03.8.09.94.06.14.16.25.29.33.14.08.33.12.58.12.19,0,.44-.02.75-.07Z"/>
    <path class="cls-4" d="M1383.22,353.42v-10.1h1.54v1.44c.74-1.11,1.81-1.66,3.21-1.66.61,0,1.17.11,1.68.33.51.22.89.51,1.15.86s.43.78.53,1.26c.06.32.1.87.1,1.66v6.21h-1.71v-6.14c0-.7-.07-1.22-.2-1.56-.13-.35-.37-.62-.71-.83s-.74-.31-1.19-.31c-.73,0-1.36.23-1.89.69s-.79,1.34-.79,2.63v5.52h-1.71Z"/>
    <path class="cls-4" d="M1400.96,350.16l1.77.22c-.28,1.03-.8,1.84-1.55,2.41-.75.57-1.72.86-2.89.86-1.48,0-2.65-.45-3.51-1.36-.87-.91-1.3-2.19-1.3-3.83s.44-3.02,1.31-3.96c.88-.94,2.01-1.41,3.41-1.41s2.45.46,3.31,1.38c.86.92,1.28,2.21,1.28,3.88,0,.1,0,.25,0,.46h-7.53c.06,1.11.38,1.96.94,2.55.56.59,1.27.88,2.11.88.63,0,1.16-.17,1.61-.49.44-.33.8-.86,1.06-1.58ZM1395.34,347.4h5.64c-.08-.85-.29-1.49-.65-1.91-.55-.66-1.25-.99-2.12-.99-.79,0-1.45.26-1.98.79-.54.53-.83,1.23-.89,2.11Z"/>
    <path class="cls-4" d="M1404.2,350.4l1.69-.27c.09.68.36,1.2.79,1.56s1.04.54,1.82.54,1.37-.16,1.75-.48c.38-.32.57-.7.57-1.13,0-.39-.17-.69-.5-.91-.23-.15-.82-.35-1.75-.58-1.25-.32-2.12-.59-2.61-.82s-.85-.55-1.1-.96c-.25-.41-.38-.86-.38-1.36,0-.45.1-.87.31-1.25.21-.38.49-.7.84-.96.27-.2.63-.36,1.09-.5.46-.14.95-.2,1.48-.2.79,0,1.49.11,2.09.34.6.23,1.04.54,1.33.93.29.39.48.91.59,1.56l-1.67.23c-.08-.52-.3-.93-.66-1.22-.36-.29-.88-.44-1.54-.44-.79,0-1.35.13-1.68.39-.34.26-.5.56-.5.91,0,.22.07.42.21.6.14.18.36.34.66.46.17.06.68.21,1.51.44,1.21.32,2.06.59,2.53.79.48.21.85.51,1.13.9s.41.88.41,1.46-.17,1.11-.5,1.61c-.33.5-.81.89-1.44,1.17s-1.34.41-2.13.41c-1.31,0-2.31-.27-3-.82-.69-.54-1.13-1.35-1.32-2.42Z"/>
    <path class="cls-4" d="M1413.94,350.4l1.69-.27c.09.68.36,1.2.79,1.56s1.04.54,1.82.54,1.37-.16,1.75-.48c.38-.32.57-.7.57-1.13,0-.39-.17-.69-.5-.91-.23-.15-.82-.35-1.75-.58-1.25-.32-2.12-.59-2.61-.82s-.85-.55-1.1-.96c-.25-.41-.38-.86-.38-1.36,0-.45.1-.87.31-1.25.21-.38.49-.7.84-.96.27-.2.63-.36,1.09-.5.46-.14.95-.2,1.48-.2.79,0,1.49.11,2.09.34.6.23,1.04.54,1.33.93.29.39.48.91.59,1.56l-1.67.23c-.08-.52-.3-.93-.66-1.22-.36-.29-.88-.44-1.54-.44-.79,0-1.35.13-1.68.39-.34.26-.5.56-.5.91,0,.22.07.42.21.6.14.18.36.34.66.46.17.06.68.21,1.51.44,1.21.32,2.06.59,2.53.79.48.21.85.51,1.13.9s.41.88.41,1.46-.17,1.11-.5,1.61c-.33.5-.81.89-1.44,1.17s-1.34.41-2.13.41c-1.31,0-2.31-.27-3-.82-.69-.54-1.13-1.35-1.32-2.42Z"/>
    <path class="cls-4" d="M1430.02,353.42v-13.94h6.18c1.24,0,2.19.13,2.83.38s1.16.69,1.55,1.33c.39.63.58,1.33.58,2.1,0,.99-.32,1.82-.96,2.5-.64.68-1.63,1.11-2.97,1.29.49.23.86.47,1.11.69.54.49,1.05,1.11,1.53,1.85l2.43,3.79h-2.32l-1.85-2.9c-.54-.84-.98-1.48-1.33-1.92-.35-.44-.66-.75-.94-.93-.28-.18-.56-.3-.84-.37-.21-.04-.55-.07-1.03-.07h-2.14v6.19h-1.84ZM1431.86,345.63h3.97c.84,0,1.5-.09,1.98-.26.48-.17.84-.45,1.08-.84.25-.38.37-.8.37-1.25,0-.66-.24-1.2-.72-1.63s-1.23-.64-2.27-.64h-4.41v4.61Z"/>
    <path class="cls-4" d="M1443.2,348.37c0-1.87.52-3.26,1.56-4.16.87-.75,1.93-1.12,3.18-1.12,1.39,0,2.52.45,3.4,1.36.88.91,1.32,2.17,1.32,3.77,0,1.3-.2,2.32-.58,3.07s-.96,1.32-1.7,1.74c-.75.41-1.56.62-2.44.62-1.41,0-2.56-.45-3.43-1.36-.87-.91-1.31-2.21-1.31-3.92ZM1444.96,348.37c0,1.29.28,2.26.85,2.91.56.64,1.27.97,2.13.97s1.56-.32,2.12-.97c.56-.65.85-1.63.85-2.96,0-1.25-.28-2.2-.85-2.84-.57-.64-1.27-.96-2.12-.96s-1.57.32-2.13.96c-.56.64-.85,1.61-.85,2.9Z"/>
    <path class="cls-4" d="M1454.03,348.37c0-1.87.52-3.26,1.56-4.16.87-.75,1.93-1.12,3.18-1.12,1.39,0,2.52.45,3.4,1.36.88.91,1.32,2.17,1.32,3.77,0,1.3-.2,2.32-.58,3.07s-.96,1.32-1.7,1.74c-.75.41-1.56.62-2.44.62-1.41,0-2.56-.45-3.43-1.36-.87-.91-1.31-2.21-1.31-3.92ZM1455.79,348.37c0,1.29.28,2.26.85,2.91.56.64,1.27.97,2.13.97s1.56-.32,2.12-.97c.56-.65.85-1.63.85-2.96,0-1.25-.28-2.2-.85-2.84-.57-.64-1.27-.96-2.12-.96s-1.57.32-2.13.96c-.56.64-.85,1.61-.85,2.9Z"/>
    <path class="cls-4" d="M1465.5,353.42v-10.1h1.53v1.42c.32-.49.74-.89,1.26-1.19.53-.3,1.12-.45,1.8-.45.75,0,1.36.16,1.84.47.48.31.82.75,1.01,1.3.8-1.18,1.84-1.77,3.12-1.77,1,0,1.77.28,2.31.83s.81,1.41.81,2.56v6.93h-1.7v-6.36c0-.68-.06-1.18-.17-1.48-.11-.3-.31-.54-.6-.73-.29-.18-.63-.28-1.03-.28-.71,0-1.3.24-1.77.71-.47.47-.7,1.23-.7,2.27v5.87h-1.71v-6.56c0-.76-.14-1.33-.42-1.71s-.74-.57-1.37-.57c-.48,0-.93.13-1.34.38-.41.25-.71.62-.89,1.11s-.28,1.19-.28,2.11v5.24h-1.71Z"/>
    <path class="cls-4" d="M1490.41,357.52c-.95-1.19-1.74-2.59-2.4-4.18-.65-1.6-.98-3.25-.98-4.96,0-1.51.24-2.95.73-4.34.57-1.6,1.45-3.2,2.64-4.79h1.23c-.77,1.32-1.27,2.26-1.52,2.82-.39.88-.69,1.79-.91,2.74-.27,1.19-.41,2.38-.41,3.58,0,3.05.95,6.1,2.84,9.14h-1.23Z"/>
    <path class="cls-4" d="M1492.31,353.42l5.35-13.94h1.99l5.71,13.94h-2.1l-1.63-4.22h-5.83l-1.53,4.22h-1.96ZM1496.33,347.69h4.73l-1.46-3.86c-.44-1.17-.77-2.14-.99-2.89-.18.89-.43,1.78-.75,2.66l-1.53,4.09Z"/>
    <path class="cls-4" d="M1506.61,353.42v-10.1h1.54v1.44c.74-1.11,1.81-1.66,3.21-1.66.61,0,1.17.11,1.68.33.51.22.89.51,1.15.86s.43.78.53,1.26c.06.32.1.87.1,1.66v6.21h-1.71v-6.14c0-.7-.07-1.22-.2-1.56-.13-.35-.37-.62-.71-.83s-.74-.31-1.19-.31c-.73,0-1.36.23-1.89.69s-.79,1.34-.79,2.63v5.52h-1.71Z"/>
    <path class="cls-4" d="M1524.03,352.17c-.63.54-1.24.92-1.83,1.14-.59.22-1.22.33-1.89.33-1.11,0-1.96-.27-2.56-.81s-.89-1.23-.89-2.08c0-.49.11-.95.34-1.36.23-.41.52-.74.88-.98.36-.25.78-.43,1.23-.56.34-.09.84-.17,1.52-.26,1.38-.16,2.4-.36,3.05-.59,0-.23,0-.38,0-.45,0-.7-.16-1.19-.49-1.47-.44-.39-1.09-.58-1.95-.58-.81,0-1.4.14-1.78.42-.38.28-.67.78-.85,1.5l-1.67-.23c.15-.72.4-1.29.75-1.74s.85-.78,1.51-1.02,1.42-.36,2.29-.36,1.56.1,2.1.3c.54.2.94.46,1.19.77.25.31.43.7.53,1.16.06.29.09.82.09,1.58v2.28c0,1.59.04,2.6.11,3.02.07.42.22.83.43,1.21h-1.79c-.18-.35-.29-.77-.34-1.25ZM1523.89,348.35c-.62.25-1.55.47-2.8.65-.7.1-1.2.22-1.49.34-.29.13-.52.31-.67.56-.16.24-.24.52-.24.81,0,.46.17.84.52,1.14.35.3.85.46,1.52.46s1.25-.14,1.76-.43.89-.68,1.13-1.18c.18-.39.28-.96.28-1.71v-.63Z"/>
    <path class="cls-4" d="M1535.19,350.16l1.77.22c-.28,1.03-.8,1.84-1.55,2.41-.75.57-1.72.86-2.89.86-1.48,0-2.65-.45-3.51-1.36-.87-.91-1.3-2.19-1.3-3.83s.44-3.02,1.31-3.96c.88-.94,2.01-1.41,3.41-1.41s2.45.46,3.31,1.38c.86.92,1.28,2.21,1.28,3.88,0,.1,0,.25,0,.46h-7.53c.06,1.11.38,1.96.94,2.55.56.59,1.27.88,2.11.88.63,0,1.16-.17,1.61-.49.44-.33.8-.86,1.06-1.58ZM1529.57,347.4h5.64c-.08-.85-.29-1.49-.65-1.91-.55-.66-1.25-.99-2.12-.99-.79,0-1.45.26-1.98.79-.54.53-.83,1.23-.89,2.11Z"/>
    <path class="cls-4" d="M1539.09,353.42v-10.1h1.54v1.53c.39-.72.76-1.19,1.09-1.42.33-.23.7-.34,1.1-.34.58,0,1.16.18,1.76.55l-.59,1.59c-.42-.25-.84-.37-1.25-.37-.37,0-.71.11-1.01.34-.3.23-.51.54-.64.94-.19.61-.29,1.27-.29,2v5.29h-1.71Z"/>
    <path class="cls-4" d="M1544.96,348.37c0-1.87.52-3.26,1.56-4.16.87-.75,1.93-1.12,3.18-1.12,1.39,0,2.52.45,3.4,1.36.88.91,1.32,2.17,1.32,3.77,0,1.3-.2,2.32-.58,3.07s-.96,1.32-1.7,1.74c-.75.41-1.56.62-2.44.62-1.41,0-2.56-.45-3.43-1.36-.87-.91-1.31-2.21-1.31-3.92ZM1546.71,348.37c0,1.29.28,2.26.85,2.91.56.64,1.27.97,2.13.97s1.56-.32,2.12-.97c.56-.65.85-1.63.85-2.96,0-1.25-.28-2.2-.85-2.84-.57-.64-1.27-.96-2.12-.96s-1.57.32-2.13.96c-.56.64-.85,1.61-.85,2.9Z"/>
    <path class="cls-4" d="M1558,353.42h-1.59v-13.94h1.71v4.97c.72-.91,1.65-1.36,2.77-1.36.62,0,1.21.12,1.76.38s1.01.6,1.37,1.06c.36.45.64,1,.84,1.64.2.64.3,1.33.3,2.05,0,1.73-.43,3.07-1.28,4.01-.86.94-1.88,1.42-3.08,1.42s-2.13-.5-2.81-1.49v1.26ZM1557.98,348.29c0,1.21.16,2.09.49,2.62.54.88,1.27,1.32,2.19,1.32.75,0,1.39-.32,1.94-.97.54-.65.82-1.62.82-2.91s-.26-2.29-.78-2.92c-.52-.63-1.16-.94-1.9-.94s-1.39.33-1.94.97c-.54.65-.82,1.59-.82,2.82Z"/>
    <path class="cls-4" d="M1567.27,341.44v-1.97h1.71v1.97h-1.71ZM1567.27,353.42v-10.1h1.71v10.1h-1.71Z"/>
    <path class="cls-4" d="M1578.17,349.72l1.68.22c-.18,1.16-.65,2.07-1.41,2.72-.76.66-1.69.98-2.79.98-1.38,0-2.49-.45-3.33-1.35-.84-.9-1.26-2.2-1.26-3.88,0-1.09.18-2.04.54-2.86s.91-1.43,1.65-1.84c.74-.41,1.54-.61,2.41-.61,1.1,0,1.99.28,2.69.83s1.14,1.34,1.34,2.36l-1.66.26c-.16-.68-.44-1.19-.84-1.53-.4-.34-.89-.51-1.46-.51-.86,0-1.56.31-2.1.93-.54.62-.81,1.6-.81,2.93s.26,2.34.78,2.96c.52.61,1.2.92,2.04.92.67,0,1.23-.21,1.68-.62s.74-1.05.86-1.9Z"/>
    <path class="cls-4" d="M1584.35,353.42l5.35-13.94h1.99l5.71,13.94h-2.1l-1.63-4.22h-5.83l-1.53,4.22h-1.96ZM1588.37,347.69h4.73l-1.46-3.86c-.44-1.17-.77-2.14-.99-2.89-.18.89-.43,1.78-.75,2.66l-1.53,4.09Z"/>
    <path class="cls-4" d="M1598.63,353.42v-10.1h1.54v1.53c.39-.72.76-1.19,1.09-1.42.33-.23.7-.34,1.1-.34.58,0,1.16.18,1.76.55l-.59,1.59c-.42-.25-.84-.37-1.25-.37-.37,0-.71.11-1.01.34-.3.23-.51.54-.64.94-.19.61-.29,1.27-.29,2v5.29h-1.71Z"/>
    <path class="cls-4" d="M1612.05,350.16l1.77.22c-.28,1.03-.8,1.84-1.55,2.41-.75.57-1.72.86-2.89.86-1.48,0-2.65-.45-3.51-1.36-.87-.91-1.3-2.19-1.3-3.83s.44-3.02,1.31-3.96c.88-.94,2.01-1.41,3.41-1.41s2.45.46,3.31,1.38c.86.92,1.28,2.21,1.28,3.88,0,.1,0,.25,0,.46h-7.53c.06,1.11.38,1.96.94,2.55.56.59,1.27.88,2.11.88.63,0,1.16-.17,1.61-.49.44-.33.8-.86,1.06-1.58ZM1606.43,347.4h5.64c-.08-.85-.29-1.49-.65-1.91-.55-.66-1.25-.99-2.12-.99-.79,0-1.45.26-1.98.79-.54.53-.83,1.23-.89,2.11Z"/>
    <path class="cls-4" d="M1622.56,352.17c-.63.54-1.24.92-1.83,1.14-.59.22-1.22.33-1.89.33-1.11,0-1.96-.27-2.56-.81s-.89-1.23-.89-2.08c0-.49.11-.95.34-1.36.23-.41.52-.74.88-.98.36-.25.78-.43,1.23-.56.34-.09.84-.17,1.52-.26,1.38-.16,2.4-.36,3.05-.59,0-.23,0-.38,0-.45,0-.7-.16-1.19-.49-1.47-.44-.39-1.09-.58-1.95-.58-.81,0-1.4.14-1.78.42-.38.28-.67.78-.85,1.5l-1.67-.23c.15-.72.4-1.29.75-1.74s.85-.78,1.51-1.02,1.42-.36,2.29-.36,1.56.1,2.1.3c.54.2.94.46,1.19.77.25.31.43.7.53,1.16.06.29.09.82.09,1.58v2.28c0,1.59.04,2.6.11,3.02.07.42.22.83.43,1.21h-1.79c-.18-.35-.29-.77-.34-1.25ZM1622.42,348.35c-.62.25-1.55.47-2.8.65-.7.1-1.2.22-1.49.34-.29.13-.52.31-.67.56-.16.24-.24.52-.24.81,0,.46.17.84.52,1.14.35.3.85.46,1.52.46s1.25-.14,1.76-.43.89-.68,1.13-1.18c.18-.39.28-.96.28-1.71v-.63Z"/>
    <path class="cls-4" d="M1627.92,357.52h-1.23c1.9-3.04,2.84-6.09,2.84-9.14,0-1.19-.14-2.37-.41-3.55-.22-.95-.52-1.86-.9-2.74-.25-.57-.76-1.52-1.53-2.85h1.23c1.19,1.59,2.07,3.19,2.64,4.79.49,1.38.73,2.83.73,4.34,0,1.71-.33,3.37-.98,4.96s-1.45,2.99-2.39,4.18Z"/>
    <path class="cls-4" d="M1424.07,361.29c.12.08.18.12.18.17,0,.04-.08.08-.21.14-.33.12-.51.35-.7.82-.64,1.52-1.17,2.69-1.64,3.68l.78.43c.1.04.14.08.14.12s-.02.08-.08.12l-.51.43v7.77c0,1.21.04,1.89.06,2.22v.1c0,.31-.1.37-.43.53-.17.08-.29.12-.39.12-.12,0-.16-.1-.16-.35v-.27c.04-.58.06-1.36.06-2.38v-7.75c-.74,1.42-1.4,2.41-2.32,3.6l-.21-.18c1.77-3.04,3.33-6.54,4.28-10.01l1.15.7ZM1436.68,376.3c-1.15.25-1.46.49-1.62.93-.04.12-.08.16-.23.16-6.02-.12-7.2-.41-9.25-2.61-.62,1.32-1.63,2.36-3.19,3.58l-.16-.18c1.52-1.5,2.26-2.49,2.86-3.97-.64-.88-1.48-2.65-1.77-3.74l.25-.1c.54,1.29,1.09,2.22,1.79,3.15.37-1.11.62-2.26.86-4.58h-1.46c-.27.45-.29.49-.37.49-.04,0-.08-.02-.14-.06l-.92-.72.8-.45,1.71-4.3h-1.29c-.33,0-.82.08-1.07.21l-.47-.72c.41.04.82.08,1.19.08h1.5l.58-.76.97.97c.08.08.12.14.12.18s-.06.08-.16.1c-.45.12-.68.25-.92.82l-1.52,3.74h1.25l.54-.7.9.86c.06.06.08.1.08.14,0,.06-.04.1-.1.14l-.47.27c-.35,2.49-.66,3.74-1.15,4.93,1.32,1.52,2.92,2.26,6.17,2.26,1.29,0,2.8-.12,4.65-.33v.21ZM1437.13,365.65c.08.06.12.12.12.16s-.06.06-.16.06h-2.55v.72c0,.56.02.95.06,1.6,0,.29-.06.37-.49.55-.14.06-.23.08-.31.08-.12,0-.12-.06-.12-.6h-2.18v1.93h2.24l.68-.86,1.17,1.07c.08.06.12.12.12.16s-.04.06-.14.06h-4.07v1.99h2.75l.62-.92,1.25,1.09c.1.08.16.14.16.18,0,.06-.08.08-.21.08h-4.56c0,.78,0,1.38.06,2.24v.08c0,.19-.08.27-.45.49-.18.1-.29.14-.37.14-.1,0-.14-.1-.14-.31s.04-2.22.04-2.63h-2.06c-.35,0-.82.08-1.09.21l-.45-.72c.41.04.82.08,1.19.08h2.41v-1.99h-1.6c-.33,0-.78.08-1.07.21l-.43-.72c.39.04.78.08,1.15.08h1.95v-1.93h-1.4c-.33,0-.68.06-.95.18l-.45-.68c.37.04.72.08,1.05.08h1.75v-1.91h-2.41c-.33,0-.7.08-.97.18l-.54-.68c.41.04.8.08,1.17.08h2.76v-1.91h-1.73c-.29,0-.56.06-.82.14l-.56-.62c.37.04.74.06,1.09.06h2.02c0-.8,0-2.04-.04-2.75l1.38.64c.08.04.12.06.12.12,0,.02-.02.06-.08.1l-.53.37v1.52h1.93l.51-.7,1.11.76c.08.06.12.1.12.16,0,.02-.02.06-.06.08l-.56.35v1.69h.8l.66-.82,1.13,1.03ZM1433.68,365.44v-1.91h-2.18v1.91h2.18ZM1433.68,367.77v-1.91h-2.18v1.91h2.18Z"/>
    <path class="cls-4" d="M1455.79,367.54c.17.12.25.19.25.25,0,.08-.12.1-.29.12-.45.02-.62.08-.97.47-.74.78-1.54,1.58-2.41,2.34v6.41c0,.99-.1,1.11-1.44,1.54-.04.02-.1.02-.12.02-.1,0-.14-.06-.16-.19-.16-.66-.53-.97-2.59-1.6l.08-.23c1.46.27,2.28.41,2.73.41.56,0,.58-.19.58-.56v-5.04c-3.39,2.73-7.75,5.1-12.75,6.58l-.08-.25c5.04-2.01,9-4.19,11.99-6.68l-9.81.49c-.41.02-.97.12-1.3.25l-.54-.68c.49.04.97.06,1.42.04l2.47-.12v-6.95c0-.62-.02-1.75-.04-2.24l1.03.86h1.89c.49-.93.78-1.79,1.01-2.69l1.29.6c.16.08.21.14.21.19s-.08.1-.25.12c-.41.06-.66.23-1.87,1.77h5l.56-.93,1.27.84c.14.08.19.14.19.19s-.06.12-.19.21l-.58.45v6.04c.9-.9,1.69-1.83,2.32-2.78l1.11.78ZM1451.45,365.51v-2.34h-7.71v2.34h7.71ZM1451.45,368.03v-2.08h-7.71v2.08h7.71ZM1451.12,370.69c.12-.1.21-.19.33-.29v-1.95h-7.71v2.59l7.38-.35Z"/>
    <path class="cls-4" d="M1474.35,362.77c.1.06.14.12.14.18s-.04.12-.14.19l-.58.47v1.07c0,.27.12,1.64.12,1.69,0,.21-.1.27-.51.43-.21.08-.35.12-.43.12-.16,0-.16-.08-.16-.68h-11.1c-.14,7.18-.7,9.09-3.6,12.32l-.21-.19c2.18-2.84,2.63-5.41,2.75-9.21.08-2.2.14-5.67.1-7.22l1.15.93h10.65l.54-.9,1.29.8ZM1475.67,369.27c.14.12.19.19.19.25,0,.08-.08.1-.25.1h-8.29c-.06.84-.16,1.6-.27,2.3h4.75l.54-.78,1.21.9c.1.06.16.12.16.16,0,.06-.06.1-.16.17l-.58.39c-.16,1.65-.31,2.55-.6,3.78-.23.97-.54,1.28-1.87,1.85-.08.04-.14.06-.17.06-.08,0-.12-.06-.14-.18-.08-.72-.54-1.15-2.24-1.6l.08-.29c1.27.29,2.03.45,2.49.45.68,0,.8-.31.99-.95.27-.93.43-1.85.51-3.54h-5.04c-.64,3-2.16,4.63-5.9,6.27l-.12-.25c3.68-2.16,5.2-3.82,5.33-8.72h-2.69c-.41,0-.97.08-1.3.21l-.55-.7c.49.04.97.08,1.42.08h10.51l.84-1.01,1.15,1.07ZM1472.79,365.81v-2.51h-11.06c0,.92-.02,1.73-.04,2.51h11.1ZM1465.75,360.06c2.14.31,2.8.97,2.8,1.64,0,.7-.39,1.07-.68,1.07-.18,0-.39-.08-.47-.51-.1-.53-.56-1.38-1.73-1.99l.08-.21ZM1466.78,366.55c1.66.51,2.12.92,2.2,1.54,0,.45-.29.93-.66.93-.14,0-.31-.21-.35-.49-.06-.39-.47-1.15-1.3-1.79l.12-.19Z"/>
    <path class="cls-4" d="M1493.55,379.83c-3.82-3.35-4.81-5.69-4.81-9.13,0-2.76,1.4-5.84,4.75-8.47l.29.25c-2.43,2.12-3.76,5.45-3.76,8.24,0,3.45.99,6.15,3.76,8.82l-.23.29Z"/>
    <path class="cls-4" d="M1514,372.74c-.02.43-.04.78-.04,1.09,0,.99.16,1.32.58,1.62.1.08.16.14.16.21,0,.04-.02.1-.06.18-.62,1.32-1.29,1.42-5.24,1.42-1.17,0-2.8,0-2.8-1.42v-8.24h-1.54c-.53,4.83-2.22,7.96-7.98,10.36l-.14-.25c4.98-2.67,6.66-5.12,7.2-10.1h-5.08c-.41,0-.97.08-1.3.21l-.54-.72c.49.06.97.08,1.42.08h5.57c.14-1.48.2-2.88.2-4.56h-4.21c-.41,0-.97.08-1.3.21l-.54-.72c.49.06.97.08,1.42.08h10.88l.86-1.13,1.3,1.25c.12.12.16.19.16.23,0,.06-.06.08-.19.08h-7.36c-.06,1.71-.14,2.88-.29,4.56h6.95l.9-1.23,1.21,1.38c.08.1.12.16.12.21,0,.04-.06.06-.2.06h-6.6v7.69c0,.95.72,1.13,2.32,1.13.84,0,1.89-.06,2.63-.14.72-.08.99-.66,1.27-3.54h.29Z"/>
    <path class="cls-4" d="M1533.6,362.65c.08.08.12.12.12.16s-.06.06-.18.06h-13.01c-1.58,2.36-2.76,3.84-4.01,5.06l-.19-.18c2.2-2.78,3.91-5.96,4.56-7.52l1.17.7c.1.06.16.12.16.16,0,.06-.08.1-.25.18-.53.21-.58.31-1.15,1.19h10.65l.76-1.11,1.38,1.3ZM1529.47,374.43c.08.08.1.12.1.16s-.04.06-.16.06h-5.74v.84c0,.9,0,1.6.04,2.14v.1c0,.23-.08.29-.43.47-.17.08-.31.12-.39.12-.14,0-.18-.1-.18-.31v-.1c.04-.7.06-1.75.06-2.45v-.8h-4.75c-.37,0-.9.08-1.19.19l-.49-.66c.43.04.88.08,1.29.08h5.14v-1.97h-3.15c-.37,0-.9.08-1.19.19l-.49-.66c.43.04.88.08,1.28.08h3.54v-1.83h-4.03c-.37,0-.9.08-1.19.19l-.49-.66c.43.04.88.08,1.29.08h5.32c.92-1.3,1.36-2.01,1.75-2.75l1.03.74c.06.04.08.06.08.1s-.04.06-.12.1c-.53.21-1.01.56-2.34,1.81h3.02l.82-.92,1.17,1.11c.06.06.1.12.1.14,0,.04-.06.06-.16.06h-5.35v1.83h2.51l.7-.93,1.11,1.05c.12.1.16.16.16.21,0,.04-.06.06-.21.06h-4.26v1.97h3.78l.8-1.01,1.23,1.19ZM1533.95,373.3c-.02.51-.04.97-.04,1.38,0,1.54.16,2.47.39,2.76.16.19.23.37.23.51,0,.21-.1.23-.23.23-.35,0-1.03-.27-1.79-.8-2.36-1.64-2.73-3.93-2.73-8.98,0-.58,0-1.21.02-1.87h-9.27c-.41,0-.97.08-1.3.21l-.54-.68c.49.04.97.08,1.42.08h9.46l.56-.8,1.23.95c.08.06.14.12.14.16s-.06.08-.16.14l-.62.37c-.06,1.11-.08,1.99-.08,2.71,0,2.55.31,5.9,2.51,6.87.19-.7.29-1.19.51-3.27l.29.02ZM1520.12,367.23c.35.14,2.2.92,2.2,1.66,0,.31-.23.6-.43.6-.18,0-.33-.14-.45-.43-.21-.56-.53-1.03-1.44-1.66l.12-.18ZM1531.87,364.48c.08.08.12.14.12.18s-.06.06-.2.06h-9.68c-.41,0-.97.08-1.3.21l-.54-.68c.49.04.97.08,1.42.08h8.16l.8-1.01,1.23,1.17Z"/>
    <path class="cls-4" d="M1553.42,376.55c.12.12.18.19.18.25,0,.08-.08.1-.23.1h-14.15l-.62.62c-.08.08-.14.12-.2.12s-.12-.04-.19-.1l-1.11-.9.9-.7v-11.86c0-.97-.06-2.45-.08-3.17l1.44,1.19h11.23l.76-1.13,1.3,1.13c.14.12.19.21.19.29s-.08.14-.27.14h-13.67v13.94h12.3l.93-1.07,1.29,1.15ZM1549.12,365.32c-.68,1.15-1.54,2.39-2.47,3.62,2.12,1.77,2.82,2.49,3.31,3.1.29.35.39.76.39,1.13,0,.55-.25.99-.54.99-.23,0-.37-.16-.66-.9-.29-.72-1.27-1.99-3.02-3.66-1.73,2.14-3.89,4.11-6.11,5.22l-.1-.27c2.26-1.6,4.07-3.41,5.65-5.47-1.44-1.3-3.02-2.61-4.61-3.8l.18-.21c1.65.97,3.5,2.28,4.89,3.37.93-1.36,1.99-3.21,2.59-4.73l1.25,1.11c.1.08.14.14.14.19,0,.04-.06.08-.19.12l-.66.19Z"/>
    <path class="cls-4" d="M1556.82,379.65l-.29-.29c2.43-2.3,3.54-5.45,3.54-8.49s-1.07-5.94-3.6-8.29l.23-.29c3.49,2.69,4.69,5.82,4.69,8.59,0,3.45-1.62,6.41-4.58,8.78Z"/>
  </g>
  <rect class="cls-3" x="680" width="328.4" height="725"/>
  <g>
    <path class="cls-4" d="M738.73,323.03c-.62-2.12-1.5-5.01-5.05-5.01-2.63,0-3.95,1.72-3.95,4.1,0,3.07,2.23,4.28,4.61,5.49,1.61.8,6.11,2.38,6.11,6.95,0,3.8-2.93,6.55-7.53,6.62-1.5-.07-2.78-.29-3.69-.59-.88-.29-1.35-.55-1.57-.69-.29-.95-.66-3.58-.88-5.78h.59c.58,1.98,2.16,6.11,6.44,6.11,2.82,0,4.54-1.54,4.54-4.75,0-3.69-3-4.94-4.94-6.03-.33-.18-5.71-1.9-5.71-6.36,0-3.04,2.49-5.89,6.8-5.89,1.21,0,2.27.11,4.28.77.15,1.24.33,2.6.59,5.08h-.62Z"/>
    <path class="cls-4" d="M758.62,341.02c-1.46-4.32-3.07-8.12-4.57-12.22-1.54,4.02-3.11,7.97-4.65,12.22h-.69c-1.28-4.17-2.63-8.41-4.1-12.22-.8-2.16-.95-2.63-2.85-2.89v-.51h6.55v.51c-1.54.33-2.08.51-2.08,1.28,0,.95,2.12,7.32,3.44,10.61h.07c1.32-3.58,2.93-7.75,4.65-12.22h.51c1.39,3.8,2.85,7.94,4.61,12.22h.07c1.06-3.22,2.12-6.07,3-9.47.15-.51.22-.91.22-1.21,0-.84-.69-.88-2.45-1.21v-.51h6.4v.51c-1.79.29-2.05.84-2.85,2.67-.91,2.12-2.85,7.83-4.61,12.44h-.66Z"/>
    <path class="cls-4" d="M766.81,340.11c2.34-.18,2.71-.66,2.71-2.78v-7.61c0-2.34-.26-2.52-2.34-2.89v-.48c1.54-.33,2.71-.73,4.1-1.46v12.44c0,2.12.37,2.6,2.74,2.78v.51h-7.21v-.51ZM771.82,318.38c0,.77-.62,1.46-1.39,1.46s-1.39-.69-1.39-1.46c0-.88.66-1.54,1.39-1.54.84,0,1.39.77,1.39,1.54Z"/>
    <path class="cls-4" d="M775.22,340.11c2.63-.18,3.11-.69,3.11-3v-7.21c0-2.45-.15-2.6-2.41-3.04v-.48c1.54-.33,3.04-.69,4.21-1.54v2.96c3.77-2.63,4.75-2.82,5.82-2.82,1.35,0,3.11,1.02,3.84,2.96,4.28-2.85,5.34-2.96,6.07-2.96,2.67,0,4.43,1.87,4.43,4.43v7.5c0,2.67.37,3.04,2.56,3.18v.51h-7.42v-.51c2.56-.15,3.11-.62,3.11-3.25v-5.71c0-2.3-.59-4.54-3.8-4.54-1.54.07-3.18,1.02-4.65,2.12.04.51.11.91.11,1.13v7.06c0,2.49.4,3.04,2.56,3.18v.51h-7.5v-.51c2.74-.15,3.18-.69,3.18-3.18v-5.92c0-2.38-.69-4.39-3.88-4.39-1.72,0-3.29,1.28-4.46,2.16v8.16c0,2.49.37,3.04,2.38,3.18v.51h-7.24v-.51Z"/>
    <path class="cls-4" d="M804.22,340.11c2.63-.18,3.11-.69,3.11-3v-7.21c0-2.45-.15-2.6-2.41-3.04v-.48c1.54-.33,3.04-.69,4.21-1.54v2.96c3.77-2.63,4.75-2.82,5.82-2.82,1.35,0,3.11,1.02,3.84,2.96,4.28-2.85,5.34-2.96,6.07-2.96,2.67,0,4.43,1.87,4.43,4.43v7.5c0,2.67.37,3.04,2.56,3.18v.51h-7.42v-.51c2.56-.15,3.11-.62,3.11-3.25v-5.71c0-2.3-.59-4.54-3.8-4.54-1.54.07-3.18,1.02-4.65,2.12.04.51.11.91.11,1.13v7.06c0,2.49.4,3.04,2.56,3.18v.51h-7.5v-.51c2.74-.15,3.18-.69,3.18-3.18v-5.92c0-2.38-.69-4.39-3.88-4.39-1.72,0-3.29,1.28-4.46,2.16v8.16c0,2.49.37,3.04,2.38,3.18v.51h-7.24v-.51Z"/>
    <path class="cls-4" d="M833.62,340.11c2.34-.18,2.71-.66,2.71-2.78v-7.61c0-2.34-.26-2.52-2.34-2.89v-.48c1.54-.33,2.71-.73,4.1-1.46v12.44c0,2.12.37,2.6,2.74,2.78v.51h-7.21v-.51ZM838.63,318.38c0,.77-.62,1.46-1.39,1.46s-1.39-.69-1.39-1.46c0-.88.66-1.54,1.39-1.54.84,0,1.39.77,1.39,1.54Z"/>
    <path class="cls-4" d="M842.43,340.11c2.12-.15,2.71-.69,2.71-2.89v-7.35c0-2.45-.26-2.6-2.3-3v-.48c1.46-.37,2.93-.69,4.06-1.54v3.04c.73-.44,1.65-1.1,2.78-1.87,1.02-.62,1.94-1.02,2.96-1.02,3.04,0,4.75,1.87,4.75,4.75v7.28c0,2.56.33,2.93,2.38,3.07v.51h-7.06v-.51c2.49-.15,2.93-.66,2.93-3.07v-6c0-2.08-.59-4.43-3.95-4.43-1.79,0-3.66,1.1-4.79,2.23v8.23c0,2.34.37,2.89,2.89,3.04v.51h-7.35v-.51Z"/>
    <path class="cls-4" d="M873,327.09c.73.77,1.24,2.01,1.24,3.11,0,3.84-3.44,5.67-6.04,5.67-.37,0-.77-.04-1.32-.11-.91.33-2.12,1.1-2.12,1.87,0,.69.84,1.35,2.27,1.35,1.54,0,2.96-.15,4.35-.15,2.52,0,5.12.73,5.12,4.1s-3.99,6.99-8.78,6.99c-4.02,0-6.22-2.34-6.22-4.68,0-.91.37-1.57.73-2.12.73-.84,2.41-2.01,3.22-2.67-1.5-.33-3.18-1.61-3.04-3.15,1.13-.33,2.85-1.32,3.4-1.9-1.65-.55-3.33-2.3-3.33-4.43,0-4.97,5.52-7.35,9.18-5.05,1.87-.15,3.29-.33,4.9-.62l.22.29c-.44.48-1.13,1.28-1.65,1.5h-2.16ZM863.61,344.46c0,2.3,2.12,4.17,5.19,4.17,4.13,0,6.04-2.27,6.04-4.83,0-1.17-.58-2.19-1.54-2.71-1.02-.59-2.27-.62-4.28-.62-5.23,0-5.41,3.37-5.41,3.99ZM864.78,329.9c0,3.4,1.68,5.23,3.95,5.23,1.65,0,3.29-1.17,3.29-4.28,0-3.29-1.32-5.16-3.8-5.16-2.01.04-3.44,1.46-3.44,4.21Z"/>
    <path class="cls-4" d="M885.87,340.11c3.15-.15,3.44-.77,3.44-3.66v-14.56c0-2.93,0-3.47-3.22-3.62v-.55h8.67c2.3,0,7.97.29,7.97,6.36,0,5.34-5.08,7.53-8.52,7.17l-2.93-.8v6.07c0,2.85.26,3.37,3.99,3.58v.51h-9.4v-.51ZM891.29,329.65c.4.18,1.39.55,3.11.55,3.26,0,5.93-1.68,5.93-5.93,0-3.99-2.3-5.82-6.8-5.82-.99,0-1.54,0-1.87.07-.26.04-.37.15-.37.91v10.2Z"/>
    <path class="cls-4" d="M921.97,332.72c0,5.52-4.54,8.3-8.05,8.3-4.83,0-8.12-3.66-8.12-7.64,0-5.93,4.97-8.38,8.05-8.38,4.61,0,8.12,3.47,8.12,7.72ZM908.11,332.17c0,4.68,2.45,8.01,6.33,8.01,3.07,0,5.3-1.98,5.3-6.91,0-3.55-2.16-7.39-6.22-7.39-3.37,0-5.41,2.63-5.41,6.29Z"/>
    <path class="cls-4" d="M941.13,332.72c0,5.52-4.54,8.3-8.05,8.3-4.83,0-8.12-3.66-8.12-7.64,0-5.93,4.97-8.38,8.05-8.38,4.61,0,8.12,3.47,8.12,7.72ZM927.27,332.17c0,4.68,2.45,8.01,6.33,8.01,3.07,0,5.3-1.98,5.3-6.91,0-3.55-2.16-7.39-6.22-7.39-3.37,0-5.41,2.63-5.41,6.29Z"/>
    <path class="cls-4" d="M943.25,340.11c2.34-.15,2.71-.66,2.71-2.93v-17.12c0-2.52-.29-2.78-2.63-3v-.44c1.79-.22,3.77-.88,4.39-1.24v21.8c0,2.27.33,2.78,2.74,2.93v.51h-7.21v-.51Z"/>
    <path class="cls-4" d="M793.92,362.7l-3.69,13.39c-.26.91-.33,2.16-.33,3.36,0,1.65.15,3.29.37,4.24.07.26.11.51.11.77,0,.99-.55,1.57-1.39,1.57-.59,0-.99-.48-.99-1.65,0-.66.4-3.8.4-4.54,0-2.41-.95-2.82-3.84-3.36l.04-.55c.73.04,1.35.07,1.87.07,2.19,0,2.52-.55,3.33-2.89l3.62-10.57.51.15ZM784.96,362.56c2.34.62,5.01,2.01,5.01,3.95,0,.91-.51,1.72-1.21,1.72-.37,0-.55-.22-.69-.77-.51-2.05-1.35-3.37-3.33-4.46l.22-.44ZM787.38,355.13c1.9.59,5.23,1.9,5.23,3.95,0,.84-.51,1.5-1.24,1.5-.4,0-.55-.18-.69-.77-.48-1.79-1.57-3.22-3.47-4.32l.18-.37ZM805.19,361.02c.33.29.48.51.48.62,0,.15-.18.18-.62.18h-6.55c-.11,2.08-.22,3.95-.37,6.22h3l1.02-1.39,1.87,1.61c.22.15.29.26.29.37s-.07.18-.29.29l-1.13.62c-.15,3.73-.4,8.41-.66,12.11-.22,2.82-.48,3.44-2.41,4.17-.15.04-.26.07-.33.07-.18,0-.26-.11-.33-.4-.22-.84-.69-1.28-3.15-2.16l.15-.51c1.46.29,2.41.44,3.11.44,1.21,0,1.39-.51,1.5-1.76.33-3.55.62-8.19.73-12.66h-3.4c-.73,10.24-1.76,12.95-6.77,18.69l-.48-.33c3.26-3.95,4.86-8.52,5.34-12.95.26-2.3.51-7.02.7-12.44-.8,0-2.05,0-3.04.4l-1.02-1.35c.91.07,1.83.15,2.67.15h6.73l1.32-1.61,1.65,1.61ZM796.16,353.67c2.49,1.24,3.88,2.6,4.35,3.66.15.29.18.62.18.95,0,.88-.48,1.68-1.21,1.68-.44,0-.77-.33-.84-.99-.26-1.87-1.06-3.4-2.78-4.97l.29-.33ZM817.92,374.08c.33.29.48.51.48.62,0,.15-.18.18-.62.18h-6.18v9.69c0,2.05-.18,2.52-2.08,3.15-.18.07-.33.11-.44.11-.18,0-.29-.15-.33-.51-.18-1.24-.69-1.5-3.88-2.52l.07-.55c2.34.51,3.58.73,4.24.73.69,0,.73-.26.73-.77v-9.33h-2.93c-.77,0-1.83.15-2.45.4l-1.02-1.35c.91.07,1.83.15,2.67.15h3.73c0-1.68-.11-3.51-.15-4.24l1.57.88,2.56-4.28h-4.21c-.77,0-1.83.15-2.45.4l-1.02-1.35c.91.07,1.83.15,2.67.15h5.01l1.1-1.24,1.83,1.61c.18.15.29.29.29.37,0,.11-.15.15-.48.18-.66.04-1.65.69-4.79,4.5.51.26.7.37.7.48,0,.15-.07.18-.95.59v1.98h3.36l1.21-1.65,1.76,1.65ZM817.59,359.96c.37.33.55.51.55.62,0,.15-.22.18-.69.18h-9.18c-1.06,2.27-2.16,4.32-3.55,6.55l-.44-.22c2.19-4.65,3.55-8.41,5.01-13.61l2.01,1.1c.33.18.48.29.48.4,0,.15-.18.26-.62.44-.73.29-.8.4-1.1,1.13-.48,1.21-.95,2.34-1.46,3.4h5.92l1.28-1.61,1.79,1.61Z"/>
    <path class="cls-4" d="M820.91,362.52c3.15.73,5.78,2.01,5.78,4.02,0,.91-.62,1.5-1.13,1.54-.29,0-.55-.22-.8-.84-.51-1.35-1.17-2.78-3.99-4.24l.15-.48ZM832.72,358.17l-5.82,17.34c-.26.8-.37,1.57-.37,2.41,0,1.32.26,2.82.66,4.86.15.8.22,1.46.22,1.98,0,1.46-.55,1.9-1.46,1.9-.69,0-1.13-.29-1.13-1.79,0-.69.4-3.99.4-4.75,0-1.46-.33-2.38-1.1-2.63-1.17-.4-2.12-.62-3.15-.8l.07-.55c.55.04,1.06.04,1.46.04,2.05,0,2.63-.4,3.11-1.65l6.55-16.61.55.26ZM823.58,354.8c2.56.59,5.96,1.5,5.96,3.88,0,.88-.59,1.46-1.03,1.46s-.73-.4-1.17-1.35c-.51-1.1-1.17-2.01-3.95-3.55l.18-.44ZM839.09,367.57c.15.11.18.22.18.29s-.04.18-.15.26l-1.06.84c-1.83,6.33-3.25,9.91-9.22,15.18l-.37-.37c4.94-5.56,6.55-9.22,7.79-15.58h-3.47c-.77,0-1.39.15-1.94.37l-.77-1.24c.88.07,1.5.07,2.05.07h3.88l.99-1.43,2.08,1.61ZM845.75,369.91c2.52,5.85,5.63,9.25,9.29,10.68l-.07.4c-.37-.07-.69-.07-1.02-.07-.92,0-1.54.22-2.08.73-.15.11-.26.18-.37.18s-.22-.07-.33-.18c-3.69-4.06-6.44-9.36-8.38-18.43v21.51c0,1.57-.62,2.08-2.82,2.78-.04,0-.11.04-.15.04-.15,0-.22-.11-.26-.29-.15-1.21-.59-1.87-4.32-2.78l.11-.51c2.05.33,3.37.51,4.24.51,1.32,0,1.54-.4,1.54-1.21v-21.43h-4.43c-.66,0-1.54.15-2.12.33l-1.02-1.24c.95.11,1.76.11,2.45.11h4.68l1.02-1.61,2.08,1.43c.18.11.26.22.26.33,0,.15-.07.22-.95.88.73,2.74,1.54,5.16,2.38,7.28,2.45-3.11,4.28-5.67,5.16-7.13l2.08,1.68c.15.11.22.22.22.33,0,.07-.11.15-.29.15-.62,0-.95.11-1.83.91l-5.08,4.65ZM837.33,353.6c3.37.37,5.89,1.21,7.02,2.16.62.51.88,1.17.88,1.76,0,.8-.48,1.46-.99,1.46-.48,0-.66-.18-1.13-.88-.8-1.21-2.34-2.78-5.89-4.06l.11-.44Z"/>
    <path class="cls-4" d="M868.71,361.09l-4.68,14.08c-.4,1.21-.59,2.78-.59,4.28,0,1.32.11,2.6.33,3.62.11.51.15.99.15,1.39,0,1.61-.69,2.27-1.5,2.27-.62,0-1.1-.66-1.1-1.61,0-.22.04-.44.07-.66.44-2.05.58-3.55.58-4.61,0-1.61-.37-2.3-.95-2.6-1.1-.59-2.19-.88-3.22-.95l.11-.55c.91.11,1.61.15,2.16.15,1.65,0,2.01-.44,2.45-1.5l5.63-13.57.55.26ZM858.39,363.29c3.99,1.13,4.83,1.9,4.83,3.22,0,.91-.59,1.57-1.1,1.57-.26,0-.44-.18-.66-.73-.55-1.35-1.28-2.3-3.22-3.73l.15-.33ZM861.17,355.57c3.37.73,5.3,1.76,5.3,3.26,0,.73-.48,1.46-.99,1.46-.33,0-.51-.18-.8-.73-.77-1.5-1.9-2.63-3.66-3.55l.15-.44ZM889.92,377.15c0,3.73.15,4.9,1.17,5.52.11.07.22.18.22.33,0,.07-.04.18-.11.33-1.02,1.9-1.83,2.01-6.51,2.23-1.79.07-3.69.11-5.45.11-7.42,0-7.97-.29-7.97-3.22v-13.97c-2.01.8-2.52,1.02-2.89,1.32l-1.5-.84c.91-.15,1.79-.4,2.38-.62l2.01-.73v-3.66c0-1.02-.04-2.89-.11-4.35l2.56,1.28c.26.15.37.22.37.33,0,.18-.11.22-1.1.84v4.94l5.08-1.83v-7.24c0-1.46-.04-3.15-.07-4.43l2.67,1.35c.26.11.37.22.37.37,0,.18-.15.26-1.24.88v8.41l5.12-1.87.95-1.57,2.49,1.43c.22.11.29.22.29.33s-.04.18-.18.26l-1.21.8c-.15,4.06-.37,7.64-.58,10.31-.15,1.79-.7,2.63-2.49,3.37-.07.04-.15.07-.22.07-.15,0-.26-.11-.29-.33-.33-1.46-.77-1.68-3.33-2.27l.11-.55c1.39.22,2.38.37,3.04.37,1.24,0,1.39-.48,1.5-1.65.26-3.51.48-7.39.48-9.8l-5.67,2.01v8.23c0,.69.07,4.21.07,5.01,0,.66-.15.84-.88,1.28-.26.15-.44.26-.62.26-.26,0-.37-.26-.37-.91,0-.84.07-4.79.07-5.67v-7.53l-5.08,1.83v14.63c0,1.35.69,1.65,4.72,1.65,2.93,0,6.44-.11,8.59-.26,2.45-.18,2.6-.44,3-6.77h.62Z"/>
  </g>
  <g>
    <path class="cls-4" d="M1155.47,932.66h-1.38v-12.48h1.49v4.45c.63-.81,1.43-1.22,2.4-1.22.54,0,1.05.11,1.53.34.48.22.88.54,1.19.94.31.41.55.89.73,1.47s.26,1.19.26,1.84c0,1.55-.37,2.75-1.12,3.59-.74.84-1.64,1.27-2.68,1.27s-1.85-.45-2.44-1.34v1.13ZM1155.45,928.07c0,1.08.14,1.87.43,2.35.47.79,1.1,1.18,1.9,1.18.65,0,1.21-.29,1.68-.87.47-.58.71-1.45.71-2.6s-.23-2.05-.68-2.61-1-.84-1.65-.84-1.21.29-1.69.87c-.47.58-.71,1.42-.71,2.52Z"/>
    <path class="cls-4" d="M1169.23,931.54c-.55.48-1.08.82-1.59,1.02-.51.2-1.06.3-1.64.3-.96,0-1.71-.24-2.22-.73s-.78-1.1-.78-1.86c0-.44.1-.85.29-1.21.2-.37.45-.66.77-.88.32-.22.67-.39,1.07-.5.29-.08.73-.16,1.32-.23,1.2-.15,2.08-.32,2.65-.53,0-.21,0-.34,0-.4,0-.62-.14-1.06-.42-1.32-.38-.35-.94-.52-1.69-.52-.7,0-1.22.13-1.55.38-.33.25-.58.7-.74,1.34l-1.45-.2c.13-.64.35-1.16.65-1.55.3-.39.74-.7,1.31-.91.57-.21,1.24-.32,1.99-.32s1.36.09,1.83.27c.47.18.81.41,1.03.69.22.28.38.62.46,1.04.05.26.07.73.07,1.41v2.04c0,1.42.03,2.33.09,2.7.06.38.19.74.38,1.08h-1.55c-.15-.32-.25-.69-.3-1.12ZM1169.11,928.12c-.54.23-1.35.42-2.43.58-.61.09-1.04.19-1.3.31-.25.11-.45.28-.59.5-.14.22-.21.46-.21.73,0,.41.15.75.45,1.02.3.27.74.41,1.32.41s1.08-.13,1.53-.39.77-.61.98-1.06c.16-.35.24-.86.24-1.53v-.56Z"/>
    <path class="cls-4" d="M1178.61,932.66v-1.14c-.56.9-1.37,1.34-2.45,1.34-.7,0-1.34-.2-1.93-.6-.59-.4-1.04-.95-1.36-1.66-.32-.71-.48-1.53-.48-2.46s.15-1.72.44-2.46c.29-.73.73-1.3,1.31-1.69.58-.39,1.24-.59,1.96-.59.53,0,1,.12,1.41.34.41.23.75.53,1.01.9v-4.48h1.48v12.48h-1.38ZM1173.91,928.15c0,1.16.24,2.02.71,2.6.47.57,1.03.86,1.68.86s1.2-.27,1.66-.82c.45-.55.68-1.38.68-2.51,0-1.24-.23-2.14-.69-2.72-.46-.58-1.03-.87-1.71-.87s-1.21.28-1.66.83c-.44.56-.67,1.43-.67,2.63Z"/>
    <path class="cls-4" d="M1182.33,932.66v-9.04h1.33v1.27c.28-.44.64-.8,1.1-1.07.46-.27.98-.4,1.56-.4.65,0,1.18.14,1.6.42.42.28.71.67.88,1.17.69-1.05,1.6-1.58,2.71-1.58.87,0,1.54.25,2.01.75.47.5.7,1.26.7,2.29v6.2h-1.48v-5.69c0-.61-.05-1.05-.14-1.32-.1-.27-.27-.49-.52-.65-.25-.16-.55-.25-.89-.25-.62,0-1.13.21-1.54.63-.41.42-.61,1.1-.61,2.03v5.25h-1.49v-5.87c0-.68-.12-1.19-.36-1.53-.24-.34-.64-.51-1.19-.51-.42,0-.81.11-1.16.34-.35.23-.61.56-.77,1-.16.44-.24,1.07-.24,1.89v4.69h-1.49Z"/>
    <path class="cls-4" d="M1196.43,921.94v-1.76h1.49v1.76h-1.49ZM1196.43,932.66v-9.04h1.49v9.04h-1.49Z"/>
    <path class="cls-4" d="M1200.18,932.66v-9.04h1.34v1.29c.64-.99,1.58-1.49,2.79-1.49.53,0,1.02.1,1.46.29s.78.45,1,.77c.22.32.38.69.46,1.13.05.28.08.78.08,1.49v5.56h-1.49v-5.5c0-.62-.06-1.09-.17-1.4-.12-.31-.32-.56-.62-.74-.29-.18-.64-.28-1.04-.28-.63,0-1.18.21-1.64.62-.46.41-.69,1.2-.69,2.36v4.94h-1.49Z"/>
    <path class="cls-4" d="M1212.84,931.29l.21,1.35c-.42.09-.79.14-1.12.14-.54,0-.96-.09-1.26-.26-.3-.18-.51-.41-.63-.69-.12-.29-.18-.89-.18-1.81v-5.2h-1.09v-1.19h1.09v-2.24l1.48-.92v3.16h1.5v1.19h-1.5v5.29c0,.44.03.72.08.84s.14.22.26.3c.12.07.29.11.51.11.17,0,.38-.02.65-.06Z"/>
    <path class="cls-4" d="M1213.74,928.14c0-1.67.45-2.91,1.36-3.72.75-.67,1.67-1,2.76-1,1.21,0,2.19.41,2.96,1.22s1.15,1.94,1.15,3.37c0,1.16-.17,2.08-.51,2.74-.34.67-.83,1.18-1.48,1.55-.65.37-1.35.55-2.12.55-1.23,0-2.22-.41-2.98-1.22-.76-.81-1.14-1.98-1.14-3.51ZM1215.27,928.14c0,1.16.24,2.02.73,2.6s1.11.86,1.85.86,1.35-.29,1.84-.87c.49-.58.74-1.46.74-2.65,0-1.12-.25-1.96-.74-2.54-.49-.58-1.11-.86-1.84-.86s-1.36.29-1.85.86-.73,1.44-.73,2.6Z"/>
    <path class="cls-4" d="M1223.71,932.66v-9.04h1.34v1.29c.64-.99,1.58-1.49,2.79-1.49.53,0,1.02.1,1.46.29s.78.45,1,.77c.22.32.38.69.46,1.13.05.28.08.78.08,1.49v5.56h-1.49v-5.5c0-.62-.06-1.09-.17-1.4-.12-.31-.32-.56-.62-.74-.29-.18-.64-.28-1.04-.28-.63,0-1.18.21-1.64.62-.46.41-.69,1.2-.69,2.36v4.94h-1.49Z"/>
    <path class="cls-4" d="M1175.3,940.08c.1.07.15.12.15.17s-.07.09-.19.17l-.47.31v11.95c0,1.34-.1,1.53-1.18,2.04-.07.03-.1.05-.15.05s-.08-.07-.12-.19c-.15-.61-.56-.89-1.86-1.29l.03-.24c1,.19,1.61.28,1.96.28.49,0,.54-.17.54-.52v-5.98l-3.44,2.28c-1.12.75-1.59,1.24-1.73,1.5-.05.09-.08.12-.14.12-.03,0-.07-.02-.13-.09l-.75-.77,6.18-3.36v-6.05h-4.16c-.36,0-.85.07-1.13.19l-.47-.65c.42.04.85.07,1.24.07h4.23l.52-.82,1.07.8ZM1169.87,942.28c.95.7,2.18,1.81,2.4,2.49.05.14.07.3.07.44,0,.49-.25.89-.58.89-.2,0-.27-.09-.42-.7-.14-.58-.68-1.97-1.61-2.94l.13-.17ZM1182.13,940.12c.1.07.15.14.15.19,0,.07-.05.12-.19.23l-.56.42v11.9c0,1.2-.15,1.46-1.02,1.88-.08.05-.15.07-.19.07-.05,0-.08-.05-.1-.16-.08-.64-.46-.91-2.08-1.39l.07-.23c1.13.17,1.76.24,2.12.24s.42-.09.42-.23v-6.38l-2.12,1.29c-1.32.8-1.96,1.41-2.13,1.73-.05.1-.1.16-.15.16-.03,0-.08-.02-.13-.07l-.88-.75,5.42-2.7v-5.77h-3.3c-.36,0-.85.07-1.13.19l-.47-.64c.42.03.85.07,1.24.07h3.38l.58-.84,1.08.78ZM1176.65,942.35c1.42,1.12,2.33,1.99,2.33,2.84,0,.45-.24.91-.61.91-.19,0-.32-.16-.39-.61-.15-.94-.63-1.88-1.49-2.94l.15-.19Z"/>
    <path class="cls-4" d="M1199.55,950.37c0,2.16.1,2.47.59,2.7.07.02.12.05.12.14,0,.04-.02.07-.05.14-.39.73-.76.99-1.76,1.05-2.12.12-3.54.16-4.54.16-2.25,0-2.47,0-2.47-2.42v-3.36l-4.99.56c-.36.04-.83.17-1.1.31l-.63-.61c.42,0,.83-.04,1.22-.09l5.5-.63v-3.12l-3.57.42c-.35.04-.83.17-1.1.31l-.64-.61c.42-.02.83-.04,1.22-.09l4.1-.47v-3.36c-1.68.3-3.35.52-5.53.77l-.05-.24c4.28-.87,8.21-1.73,11.08-2.65l.85.96c.07.07.1.12.1.16s-.03.05-.07.05c0,0-.64-.1-.78-.1-.15,0-.29.02-.41.03-1.66.35-3.03.63-4.35.87v3.42l3.89-.45.58-.94,1.18.89c.1.07.17.14.17.17s-.07.07-.19.09l-5.63.68v3.14l5.82-.66.56-.96,1.32.92c.1.07.15.12.15.17,0,.03-.05.05-.15.07l-7.7.89v3.5c0,1.41.27,1.58.83,1.6.39.02.8.02,1.22.02,1.25,0,2.61-.05,3.76-.16.9-.09.96-.26,1.15-3.26h.3Z"/>
    <path class="cls-4" d="M1207.79,949.23l-4.32,2.53c-.66.38-.96.66-1.07.85-.03.07-.07.1-.12.1-.02,0-.05-.04-.08-.07l-.73-.92,2.61-1.13v-4.37h-.73c-.34,0-.8.07-1.07.17l-.46-.61c.41.04.81.07,1.18.07h1.07v-4.34h-.81c-.36,0-.85.07-1.13.19l-.47-.64c.42.04.85.07,1.24.07h3.3l.68-.87.81.89c.1.1.15.19.15.26s-.07.1-.2.1h-2.76v4.34h1.1l.61-.85.85.87c.1.1.15.19.15.24,0,.07-.07.1-.2.1h-2.5v4.03l2.81-1.24.1.23ZM1217.33,952.13c-.14-.02-.25-.02-.36-.02-.52,0-.83.14-1.03.38-.02.03-.05.03-.08.03-.05,0-.12-.02-.19-.09-2.44-2.53-3.33-4.48-3.49-9.27h-.24v10.3c0,.91-.08,1.03-1.34,1.67-.05.04-.08.05-.12.05-.07,0-.1-.07-.12-.21-.08-.47-.49-.78-2.18-1.29l.05-.26c1.07.21,1.74.31,2.18.31.66,0,.74-.23.74-.61v-4.9l-2.54,2.51c-.59.58-.96,1.08-1.05,1.31-.03.09-.07.12-.12.12-.03,0-.07-.02-.1-.03l-.78-.58,4.59-3.75v-4.65h-2.3c-.36,0-.85.07-1.13.19l-.47-.65c.42.04.85.07,1.24.07h2.67v-1.6c0-.71-.03-1.9-.07-2.54l1.2.52c.12.05.19.09.19.14s-.03.07-.54.44v3.05h3.32l.69-.89.93.89c.14.12.19.21.19.28s-.08.1-.25.1h-4.32c.12,2.11.41,3.52.78,4.44,1.02-1.2,1.42-1.76,2.22-3.01l.73.65c.14.12.2.19.2.24,0,.07-.08.11-.27.14-.15.04-.34.14-.47.26l-2.27,2.02c.95,2.02,2.88,3.68,3.91,4.01v.21ZM1207.99,944.51c1.07.77,1.76,1.78,1.76,2.49,0,.49-.25.89-.49.89-.2,0-.36-.16-.39-.66-.05-.8-.19-1.64-1.05-2.56l.17-.16ZM1213.07,940.02c.42.1,2.2.7,2.2,1.55,0,.31-.2.57-.37.57-.15,0-.2-.07-.37-.4-.17-.35-.68-1.03-1.52-1.57l.07-.16Z"/>
  </g>
  <use width="10.48" height="10.83" transform="translate(810.95 789.44) scale(6.3)" xlink:href="#AED"/>
</svg>