<?xml version="1.0" encoding="UTF-8"?>
<svg id="_图层_1" data-name=" 图层 1" xmlns="http://www.w3.org/2000/svg" version="1.1" xmlns:xlink="http://www.w3.org/1999/xlink" viewBox="0 0 1584 2235.3">
  <defs>
    <style>
      .cls-1 {
        fill: #545454;
      }

      .cls-1, .cls-2, .cls-3, .cls-4 {
        stroke-width: 0px;
      }

      .cls-2 {
        fill: #000;
      }

      .cls-5, .cls-6 {
        isolation: isolate;
      }

      .cls-7 {
        stroke: #a0a1a6;
      }

      .cls-7, .cls-8, .cls-9, .cls-10 {
        stroke-miterlimit: 10;
      }

      .cls-7, .cls-9, .cls-10 {
        fill: none;
      }

      .cls-8 {
        fill: #84a2de;
        stroke: #fff;
      }

      .cls-3 {
        fill: #a0a1a6;
      }

      .cls-9 {
        stroke-width: 3px;
      }

      .cls-9, .cls-10 {
        stroke: #545454;
      }

      .cls-4, .cls-6 {
        fill: #fff;
      }

      .cls-6 {
        font-family: ArialMT, Arial;
        font-size: 32.3px;
      }
    </style>
    <symbol id="_新建符号" data-name=" 新建符号" viewBox="0 0 119.8 150.5">
      <rect class="cls-1" width="119.8" height="150.5"/>
    </symbol>
    <symbol id="_桌椅" data-name=" 桌椅" viewBox="0 0 110 75.2">
      <g>
        <g>
          <g>
            <path class="cls-7" d="M24.1,64v-11.5H7.1v11.5c0,4.3,3,7.9,6.6,7.9h3.7c3.7,0,6.6-3.5,6.6-7.9,0,0,.1,0,.1,0Z"/>
            <path class="cls-7" d="M4.5,71.7s10.5,6.7,22.2,0"/>
            <path class="cls-7" d="M4.5,67.4s10.5,11.7,22.2,0"/>
            <polyline class="cls-7" points="7.2 72.8 8.2 71.1 9.5 73.4 11.2 72.5 15.2 74.1 19.7 72.7 21.9 73.4 22.6 71.3 24.5 72.6"/>
          </g>
          <g>
            <path class="cls-7" d="M50,64v-11.5h-17v11.5c0,4.3,3,7.9,6.7,7.9h3.7c3.7,0,6.7-3.5,6.7-7.9,0,0,0,0-.1,0Z"/>
            <path class="cls-7" d="M30.4,71.7s10.5,6.7,22.2,0"/>
            <path class="cls-7" d="M30.4,67.4s10.5,11.7,22.2,0"/>
            <polyline class="cls-7" points="33.1 72.8 34.1 71.1 35.3 73.4 37.1 72.5 41.1 74.1 45.6 72.7 47.8 73.4 48.5 71.3 50.3 72.6"/>
          </g>
          <g>
            <path class="cls-7" d="M76.6,64v-11.5h-17v11.5c0,4.3,3,7.9,6.7,7.9h3.7c3.7,0,6.7-3.5,6.7-7.9h0Z"/>
            <path class="cls-7" d="M57,71.7s10.5,6.7,22.2,0"/>
            <path class="cls-7" d="M57,67.4s10.5,11.7,22.2,0"/>
            <polyline class="cls-7" points="59.7 72.8 60.7 71.1 61.9 73.4 63.7 72.5 67.7 74.1 72.2 72.7 74.4 73.4 75.1 71.3 76.9 72.6"/>
          </g>
          <g>
            <path class="cls-7" d="M102.4,64v-11.5h-17v11.5c0,4.3,3,7.9,6.7,7.9h3.7c3.7,0,6.7-3.5,6.7-7.9h0Z"/>
            <path class="cls-7" d="M82.8,71.7s10.5,6.7,22.2,0"/>
            <path class="cls-7" d="M82.8,67.4s10.5,11.7,22.2,0"/>
            <polyline class="cls-7" points="85.6 72.8 86.6 71.1 87.8 73.4 89.6 72.5 93.6 74.1 98 72.7 100.3 73.4 101 71.3 102.8 72.6"/>
          </g>
        </g>
        <g>
          <g>
            <path class="cls-7" d="M85.4,11.2v11.5h17v-11.5c0-4.3-3-7.9-6.7-7.9h-3.7c-3.7,0-6.7,3.5-6.7,7.9h0Z"/>
            <path class="cls-7" d="M105,3.5s-10.5-6.7-22.2,0"/>
            <path class="cls-7" d="M105,7.8s-10.5-11.7-22.2,0"/>
            <polyline class="cls-7" points="102.2 2.4 101.3 4 100 1.8 98.3 2.6 94.3 1.1 89.8 2.5 87.6 1.8 86.9 3.8 85 2.6"/>
          </g>
          <g>
            <path class="cls-7" d="M59.5,11.2v11.5h17v-11.5c0-4.3-3-7.9-6.7-7.9h-3.7c-3.7,0-6.7,3.5-6.7,7.9h0Z"/>
            <path class="cls-7" d="M79.1,3.5s-10.5-6.7-22.2,0"/>
            <path class="cls-7" d="M79.1,7.8s-10.5-11.7-22.2,0"/>
            <polyline class="cls-7" points="76.4 2.4 75.4 4 74.2 1.8 72.4 2.6 68.4 1.1 63.9 2.5 61.7 1.8 61 3.8 59.2 2.6"/>
          </g>
          <g>
            <path class="cls-7" d="M33,11.2v11.5h17v-11.5c0-4.3-3-7.9-6.7-7.9h-3.7c-3.7,0-6.7,3.5-6.7,7.9h.1Z"/>
            <path class="cls-7" d="M52.5,3.5s-10.5-6.7-22.2,0"/>
            <path class="cls-7" d="M52.5,7.8s-10.5-11.7-22.2,0"/>
            <polyline class="cls-7" points="49.8 2.4 48.8 4 47.6 1.8 45.8 2.6 41.8 1.1 37.3 2.5 35.1 1.8 34.4 3.8 32.6 2.6"/>
          </g>
          <g>
            <path class="cls-7" d="M7.1,11.2v11.5h17v-11.5c0-4.3-3-7.9-6.6-7.9h-3.7c-3.7,0-6.7,3.5-6.7,7.9h0Z"/>
            <path class="cls-7" d="M26.7,3.5s-10.5-6.7-22.2,0"/>
            <path class="cls-7" d="M26.7,7.8s-10.5-11.7-22.2,0"/>
            <polyline class="cls-7" points="23.9 2.4 22.9 4 21.7 1.8 20 2.6 15.9 1.1 11.5 2.5 9.2 1.8 8.5 3.8 6.7 2.6"/>
          </g>
        </g>
        <rect class="cls-3" y="21.5" width="110" height="32"/>
      </g>
    </symbol>
  </defs>
  <use width="110" height="75.2" transform="translate(1067.3 736.9) rotate(-.2) scale(1 -1)" xlink:href="#_桌椅"/>
  <use width="110" height="75.2" transform="translate(1067.3 736.9) rotate(-.2) scale(1 -1)" xlink:href="#_桌椅"/>
  <use width="110" height="75.2" transform="translate(1069.4 830.5) rotate(-.2) scale(1 -1)" xlink:href="#_桌椅"/>
  <use width="110" height="75.2" transform="translate(1069.4 830.5) rotate(-.2) scale(1 -1)" xlink:href="#_桌椅"/>
  <use width="110" height="75.2" transform="translate(1226.3 737.4) rotate(-.2) scale(1 -1)" xlink:href="#_桌椅"/>
  <use width="110" height="75.2" transform="translate(1226.3 737.4) rotate(-.2) scale(1 -1)" xlink:href="#_桌椅"/>
  <use width="110" height="75.2" transform="translate(1228.4 831) rotate(-.2) scale(1 -1)" xlink:href="#_桌椅"/>
  <use width="110" height="75.2" transform="translate(1228.4 831) rotate(-.2) scale(1 -1)" xlink:href="#_桌椅"/>
  <use width="110" height="75.2" transform="translate(1070.3 925.7) rotate(-.2) scale(1 -1)" xlink:href="#_桌椅"/>
  <use width="110" height="75.2" transform="translate(1070.3 925.7) rotate(-.2) scale(1 -1)" xlink:href="#_桌椅"/>
  <use width="110" height="75.2" transform="translate(1072.4 1019.3) rotate(-.2) scale(1 -1)" xlink:href="#_桌椅"/>
  <use width="110" height="75.2" transform="translate(1072.4 1019.3) rotate(-.2) scale(1 -1)" xlink:href="#_桌椅"/>
  <use width="110" height="75.2" transform="translate(1229.3 926.1) rotate(-.2) scale(1 -1)" xlink:href="#_桌椅"/>
  <use width="110" height="75.2" transform="translate(1229.3 926.1) rotate(-.2) scale(1 -1)" xlink:href="#_桌椅"/>
  <use width="110" height="75.2" transform="translate(1231.4 1019.7) rotate(-.2) scale(1 -1)" xlink:href="#_桌椅"/>
  <use width="110" height="75.2" transform="translate(1231.4 1019.7) rotate(-.2) scale(1 -1)" xlink:href="#_桌椅"/>
  <use width="110" height="75.2" transform="translate(1073.3 1114.4) rotate(-.2) scale(1 -1)" xlink:href="#_桌椅"/>
  <use width="110" height="75.2" transform="translate(1073.3 1114.4) rotate(-.2) scale(1 -1)" xlink:href="#_桌椅"/>
  <use width="110" height="75.2" transform="translate(1075.4 1208) rotate(-.2) scale(1 -1)" xlink:href="#_桌椅"/>
  <use width="110" height="75.2" transform="translate(1075.4 1208) rotate(-.2) scale(1 -1)" xlink:href="#_桌椅"/>
  <use width="110" height="75.2" transform="translate(1232.3 1114.8) rotate(-.2) scale(1 -1)" xlink:href="#_桌椅"/>
  <use width="110" height="75.2" transform="translate(1232.3 1114.8) rotate(-.2) scale(1 -1)" xlink:href="#_桌椅"/>
  <use width="110" height="75.2" transform="translate(1234.4 1208.4) rotate(-.2) scale(1 -1)" xlink:href="#_桌椅"/>
  <use width="110" height="75.2" transform="translate(1234.4 1208.4) rotate(-.2) scale(1 -1)" xlink:href="#_桌椅"/>
  <g>
    <rect class="cls-9" x="864.7" y="792.5" width="137" height="457.2"/>
    <line class="cls-9" x1="1001.7" y1="824.5" x2="864.7" y2="824.5"/>
    <line class="cls-9" x1="1001.7" y1="859.7" x2="864.7" y2="859.7"/>
    <line class="cls-9" x1="1001.7" y1="895" x2="864.7" y2="895"/>
    <line class="cls-9" x1="1001.7" y1="930.2" x2="864.7" y2="930.2"/>
    <line class="cls-9" x1="1001.7" y1="965.5" x2="864.7" y2="965.5"/>
    <line class="cls-9" x1="1001.7" y1="1000.7" x2="864.7" y2="1000.7"/>
    <line class="cls-9" x1="1001.7" y1="1036" x2="864.7" y2="1036"/>
    <line class="cls-9" x1="1001.7" y1="1071.2" x2="864.7" y2="1071.2"/>
    <line class="cls-9" x1="1001.7" y1="1106.5" x2="864.7" y2="1106.5"/>
    <line class="cls-9" x1="1001.7" y1="1141.7" x2="864.7" y2="1141.7"/>
    <line class="cls-9" x1="1001.7" y1="1177" x2="864.7" y2="1177"/>
    <line class="cls-9" x1="1001.7" y1="1212.2" x2="864.7" y2="1212.2"/>
  </g>
  <polyline class="cls-10" points="933.2 792.5 933.2 1177 949.7 1157.5"/>
  <polyline class="cls-10" points="933.2 792.5 933.2 1177 916.7 1157.5"/>
  <g class="cls-5">
    <g class="cls-5">
      <g class="cls-5">
        <g class="cls-5">
          <g class="cls-5">
            <text class="cls-6" transform="translate(918.5 758.7) rotate(-.2) scale(.5 1)"><tspan x="0" y="0">GF</tspan></text>
          </g>
        </g>
      </g>
    </g>
  </g>
  <g class="cls-5">
    <g class="cls-5">
      <g class="cls-5">
        <g class="cls-5">
          <g class="cls-5">
            <text class="cls-6" transform="translate(923.3 1294) rotate(-.2) scale(.5 1)"><tspan x="0" y="0">BF</tspan></text>
          </g>
        </g>
      </g>
    </g>
  </g>
  <rect class="cls-8" x="595.3" y="1645.8" width="119.1" height="164"/>
  <use width="119.8" height="150.5" transform="translate(595.8 1444.5) scale(1 -1)" xlink:href="#_新建符号"/>
  <use width="119.8" height="150.5" transform="translate(594.9 1268.6) scale(1 -1)" xlink:href="#_新建符号"/>
  <use width="119.8" height="150.5" transform="translate(594.1 1092.7) scale(1 -1)" xlink:href="#_新建符号"/>
  <use width="119.8" height="150.5" transform="translate(593.2 916.8) scale(1 -1)" xlink:href="#_新建符号"/>
  <use width="119.8" height="150.5" transform="translate(592.4 740.9) scale(1 -1)" xlink:href="#_新建符号"/>
  <use width="119.8" height="150.5" transform="translate(591.5 565) scale(1 -1)" xlink:href="#_新建符号"/>
  <use width="119.8" height="150.5" transform="translate(590.6 389.1) scale(1 -1)" xlink:href="#_新建符号"/>
  <use width="119.8" height="150.5" transform="translate(918.5 388) scale(1 -1)" xlink:href="#_新建符号"/>
  <use width="119.8" height="150.5" transform="translate(594.7 1620.4) scale(1 -1)" xlink:href="#_新建符号"/>
  <use width="119.8" height="150.5" transform="translate(594.9 1985.7) scale(1 -1)" xlink:href="#_新建符号"/>
  <use width="119.8" height="150.5" transform="translate(1097.7 1446.8) scale(1 -1)" xlink:href="#_新建符号"/>
  <use width="119.8" height="150.5" transform="translate(1096.6 1622.7) scale(1 -1)" xlink:href="#_新建符号"/>
  <use width="119.8" height="150.5" transform="translate(1095.4 1798.6) scale(1 -1)" xlink:href="#_新建符号"/>
  <use width="119.8" height="150.5" transform="translate(1094.3 1974.5) scale(1 -1)" xlink:href="#_新建符号"/>
  <g>
    <path class="cls-2" d="M617.4,1722.1h1.1c0,.3.2.7.4,1s.5.5.9.7.8.3,1.3.3.8,0,1.1-.2.6-.3.7-.5.2-.5.2-.7,0-.5-.2-.7-.4-.4-.8-.5c-.2,0-.7-.2-1.5-.4s-1.3-.4-1.7-.5c-.4-.2-.7-.5-.9-.8s-.3-.7-.3-1.1.1-.8.4-1.2.6-.7,1.1-.9,1-.3,1.6-.3,1.2.1,1.7.3.9.5,1.1.9.4.8.4,1.4h-1.1c0-.5-.3-.9-.6-1.1s-.8-.4-1.5-.4-1.2.1-1.5.4-.5.6-.5.9.1.6.3.8c.2.2.8.4,1.7.6s1.6.4,1.9.5c.5.2.9.5,1.1.9s.4.8.4,1.2-.1.9-.4,1.3-.6.7-1.1.9-1,.3-1.7.3-1.4-.1-2-.3-.9-.6-1.2-1-.5-1-.5-1.5Z"/>
    <path class="cls-2" d="M629.7,1724.8v-.9c-.5.7-1.1,1.1-2,1.1s-.7,0-1-.2-.6-.3-.7-.5-.3-.5-.3-.8c0-.2,0-.5,0-1v-3.9h1.1v3.5c0,.6,0,.9,0,1.1,0,.3.2.5.4.7s.5.2.8.2.6,0,.9-.2.5-.4.6-.7.2-.7.2-1.2v-3.3h1.1v6.2h-.9Z"/>
    <path class="cls-2" d="M632.3,1727.2v-8.6h1v.8c.2-.3.5-.6.8-.7s.6-.2,1-.2,1,.1,1.4.4.7.7.9,1.2.3,1,.3,1.6-.1,1.2-.3,1.7-.6.9-1,1.2-.9.4-1.4.4-.7,0-.9-.2-.5-.3-.7-.6v3h-1.1ZM633.3,1721.7c0,.8.2,1.4.5,1.8s.7.6,1.2.6.9-.2,1.2-.6.5-1,.5-1.8-.2-1.4-.5-1.8-.7-.6-1.2-.6-.8.2-1.2.6-.5,1-.5,1.8Z"/>
    <path class="cls-2" d="M643.2,1722.8h1.1c-.2.8-.5,1.3-1,1.6s-1.1.5-1.8.5-1.6-.3-2.2-.8-.8-1.3-.8-2.4.3-1.9.8-2.4,1.2-.9,2.1-.9,1.5.3,2,.8.8,1.4.8,2.4,0,.2,0,.3h-4.6c0,.7.2,1.2.6,1.6s.8.5,1.3.5.7-.1,1-.3.5-.5.7-1ZM639.8,1721.1h3.5c0-.5-.2-.9-.4-1.2-.3-.4-.8-.6-1.3-.6s-.9.2-1.2.5-.5.8-.5,1.3Z"/>
    <path class="cls-2" d="M645.6,1724.8v-6.2h.9v.9c.2-.4.5-.7.7-.9s.4-.2.7-.2c.4,0,.7.1,1.1.3l-.4,1c-.3-.2-.5-.2-.8-.2s-.4,0-.6.2-.3.3-.4.6c-.1.4-.2.8-.2,1.2v3.3h-1.1Z"/>
    <path class="cls-2" d="M649.7,1724.8v-6.2h.9v.9c.2-.3.5-.5.8-.7s.7-.3,1.1-.3.8,0,1.1.3.5.5.6.8c.5-.7,1.1-1.1,1.9-1.1s1.1.2,1.4.5.5.9.5,1.6v4.3h-1v-3.9c0-.4,0-.7-.1-.9s-.2-.3-.4-.4-.4-.2-.6-.2c-.4,0-.8.1-1.1.4s-.4.8-.4,1.4v3.6h-1.1v-4c0-.5,0-.8-.3-1.1s-.5-.4-.8-.4-.6,0-.8.2-.4.4-.5.7-.2.7-.2,1.3v3.2h-1.1Z"/>
    <path class="cls-2" d="M663.7,1724.1c-.4.3-.8.6-1.1.7s-.7.2-1.2.2c-.7,0-1.2-.2-1.6-.5s-.6-.8-.6-1.3,0-.6.2-.8.3-.5.5-.6.5-.3.8-.3c.2,0,.5-.1.9-.2.9-.1,1.5-.2,1.9-.4,0-.1,0-.2,0-.3,0-.4,0-.7-.3-.9-.3-.2-.7-.4-1.2-.4s-.9,0-1.1.3-.4.5-.5.9h-1c0-.6.2-.9.5-1.2s.5-.5.9-.6.9-.2,1.4-.2,1,0,1.3.2.6.3.7.5.3.4.3.7c0,.2,0,.5,0,1v1.4c0,1,0,1.6,0,1.9s.1.5.3.7h-1.1c-.1-.2-.2-.5-.2-.8ZM663.6,1721.7c-.4.2-1,.3-1.7.4-.4,0-.7.1-.9.2s-.3.2-.4.3-.1.3-.1.5c0,.3.1.5.3.7s.5.3.9.3.8,0,1.1-.3.5-.4.7-.7c.1-.2.2-.6.2-1.1v-.4Z"/>
    <path class="cls-2" d="M666.3,1724.8v-6.2h.9v.9c.2-.4.5-.7.7-.9s.4-.2.7-.2c.4,0,.7.1,1.1.3l-.4,1c-.3-.2-.5-.2-.8-.2s-.4,0-.6.2-.3.3-.4.6c-.1.4-.2.8-.2,1.2v3.3h-1.1Z"/>
    <path class="cls-2" d="M670.3,1724.8v-8.6h1.1v4.9l2.5-2.5h1.4l-2.4,2.3,2.6,3.9h-1.3l-2.1-3.2-.7.7v2.5h-1.1Z"/>
    <path class="cls-2" d="M680.6,1722.8h1.1c-.2.8-.5,1.3-1,1.6s-1.1.5-1.8.5-1.6-.3-2.2-.8-.8-1.3-.8-2.4.3-1.9.8-2.4,1.2-.9,2.1-.9,1.5.3,2,.8.8,1.4.8,2.4,0,.2,0,.3h-4.6c0,.7.2,1.2.6,1.6s.8.5,1.3.5.7-.1,1-.3.5-.5.7-1ZM677.1,1721.1h3.5c0-.5-.2-.9-.4-1.2-.3-.4-.8-.6-1.3-.6s-.9.2-1.2.5-.5.8-.5,1.3Z"/>
    <path class="cls-2" d="M685.3,1723.9l.2.9c-.3,0-.6,0-.8,0-.4,0-.7,0-.9-.2s-.4-.3-.4-.5-.1-.6-.1-1.2v-3.6h-.8v-.8h.8v-1.5l1-.6v2.2h1.1v.8h-1.1v3.6c0,.3,0,.5,0,.6s0,.2.2.2.2,0,.4,0,.3,0,.5,0Z"/>
    <path class="cls-2" d="M650.9,1739.1c-.6.2-.8.3-1,.6,0,0,0,.1-.2.1-2.4,0-4.5-.1-5.4-.3-1-.1-2.1-.6-3.1-2.6-.3,1.3-.8,2.2-1.5,3.1h-.1c1-1.5,1.3-3.2,1.3-5.5l.8.3s0,0,0,0c0,0,0,0,0,.1l-.3.2c0,.5,0,.9-.1,1.3.4.8.8,1.2,1.2,1.6v-4.5h-1.8c-.3,0-.6,0-.8.1l-.3-.4c.3,0,.6,0,.9,0h1.8v-2h-1c-.3,0-.6,0-.8.1l-.3-.4c.3,0,.6,0,.9,0h1.2v-.6c0-.4,0-1.2,0-1.6l.9.4c0,0,.1,0,.1,0s0,0,0,0l-.3.2v1.4h1.1l.4-.5.6.6s0,0,0,.1c0,0,0,0-.1,0h-2.1v2h1.2l.4-.5.6.6s0,0,0,.1,0,0-.1,0h-1.9v1.9h.8l.4-.6.6.6c0,0,.1.1.1.2s0,0-.2,0h-1.7v2.7c.7.4,1.9.6,3.5.6s2.6-.1,4.2-.3v.2ZM650.3,1730.1c0,0,.1,0,.1.1s0,0-.1.1l-.4.2c-.2,2.8-.2,2.9-1.1,3.3,0,0-.1,0-.1,0s0,0,0,0c0-.4-.2-.5-1.2-.8v-.2c.7.1,1.1.2,1.3.2.4,0,.5-.2.6-.8,0-.6.1-1.2.2-1.9h-2c-.2,2.6-.9,3.3-2.7,4.3h-.1c1.7-1.2,2.2-2.1,2.3-4.3h-.6c-.3,0-.6,0-.8.1l-.3-.4c.3,0,.6,0,.9,0h3.2l.3-.5.7.5ZM650,1734.6c0,0,0,0,0,0s0,0,0,.1l-.4.3v1.4c0,.4,0,.8,0,1.3h0c0,.3,0,.3-.3.4-.1,0-.2,0-.2,0,0,0,0,0,0-.2v-.7h-2.9v.6c0,.2,0,.2-.2.3-.1,0-.2,0-.3,0,0,0-.1,0-.1-.3s0-1.5,0-1.6v-1.1c0-.3,0-.9,0-1.2l.7.5h2.6l.3-.5.8.5ZM649.1,1737.1v-2.3h-2.9v2.3h2.9Z"/>
    <path class="cls-2" d="M662.6,1731.1c0,0,.1.1.1.2s0,0-.2,0h-5v1.8h2.6l.4-.6.8.7s0,0,0,0c0,0,0,0-.1.1l-.4.2v4.2c0,.4,0,.5-.8.9,0,0,0,0,0,0,0,0,0,0,0-.1-.1-.4-.3-.6-1.5-.9v-.2c.9.2,1.3.2,1.6.2s.3-.1.3-.4v-4h-2.9v4.3c0,.8,0,1.6,0,2.1h0c0,.3-.5.5-.6.5,0,0,0,0,0-.3h0c0-.6,0-1.3,0-2.4v-4.2h-2.9v2.7c0,1,0,1.5,0,2h0c0,.3-.5.5-.6.5,0,0,0,0,0-.2v-.2c0-.5,0-1.2,0-2.1v-2c0-.9,0-1.3,0-1.6l.8.6h2.7v-1.8h-4.1c-.4,0-.6,0-.8,0l-.4-.4c.3,0,.6,0,.9,0h8.7l.5-.8.9.8ZM656.1,1729c.9.3,1.6.7,1.7,1,0,.1,0,.2,0,.3,0,.3-.2.6-.4.6s-.2,0-.3-.3c-.2-.6-.6-1.1-1.2-1.5h0Z"/>
  </g>
  <g>
    <path class="cls-4" d="M935.9,307.8v-7.6h-2.8v-1h6.8v1h-2.8v7.6h-1.1Z"/>
    <path class="cls-4" d="M943.7,307c-.4.3-.8.6-1.1.7s-.7.2-1.2.2c-.7,0-1.2-.2-1.6-.5s-.6-.8-.6-1.3,0-.6.2-.8.3-.5.5-.6.5-.3.8-.3c.2,0,.5-.1.9-.2.9-.1,1.5-.2,1.9-.4,0-.1,0-.2,0-.3,0-.4,0-.7-.3-.9-.3-.2-.7-.4-1.2-.4s-.9,0-1.1.3-.4.5-.5.9h-1c0-.6.2-.9.5-1.2s.5-.5.9-.6.9-.2,1.4-.2,1,0,1.3.2.6.3.7.5.3.4.3.7c0,.2,0,.5,0,1v1.4c0,1,0,1.6,0,1.9s.1.5.3.7h-1.1c-.1-.2-.2-.5-.2-.8ZM943.6,304.7c-.4.2-1,.3-1.7.4-.4,0-.7.1-.9.2s-.3.2-.4.3-.1.3-.1.5c0,.3.1.5.3.7s.5.3.9.3.8,0,1.1-.3.5-.4.7-.7c.1-.2.2-.6.2-1.1v-.4Z"/>
    <path class="cls-4" d="M947.3,307.8h-1v-8.6h1.1v3.1c.4-.6,1-.8,1.7-.8s.7,0,1.1.2.6.4.8.7.4.6.5,1,.2.8.2,1.3c0,1.1-.3,1.9-.8,2.5s-1.2.9-1.9.9-1.3-.3-1.7-.9v.8ZM947.3,304.6c0,.7.1,1.3.3,1.6.3.5.8.8,1.3.8s.9-.2,1.2-.6.5-1,.5-1.8-.2-1.4-.5-1.8-.7-.6-1.2-.6-.9.2-1.2.6-.5,1-.5,1.7Z"/>
    <path class="cls-4" d="M952.9,307.8v-8.6h1.1v8.6h-1.1Z"/>
    <path class="cls-4" d="M959.9,305.8h1.1c-.2.8-.5,1.3-1,1.6s-1.1.5-1.8.5-1.6-.3-2.2-.8-.8-1.3-.8-2.4.3-1.9.8-2.4,1.2-.9,2.1-.9,1.5.3,2,.8.8,1.4.8,2.4,0,.2,0,.3h-4.6c0,.7.2,1.2.6,1.6s.8.5,1.3.5.7-.1,1-.3.5-.5.7-1ZM956.4,304.1h3.5c0-.5-.2-.9-.4-1.2-.3-.4-.8-.6-1.3-.6s-.9.2-1.2.5-.5.8-.5,1.3Z"/>
    <path class="cls-4" d="M967.9,306.8l.2.9c-.3,0-.6,0-.8,0-.4,0-.7,0-.9-.2s-.4-.3-.4-.5-.1-.6-.1-1.2v-3.6h-.8v-.8h.8v-1.5l1-.6v2.2h1.1v.8h-1.1v3.6c0,.3,0,.5,0,.6s0,.2.2.2.2,0,.4,0,.3,0,.5,0Z"/>
    <path class="cls-4" d="M973.2,305.8h1.1c-.2.8-.5,1.3-1,1.6s-1.1.5-1.8.5-1.6-.3-2.2-.8-.8-1.3-.8-2.4.3-1.9.8-2.4,1.2-.9,2.1-.9,1.5.3,2,.8.8,1.4.8,2.4,0,.2,0,.3h-4.6c0,.7.2,1.2.6,1.6s.8.5,1.3.5.7-.1,1-.3.5-.5.7-1ZM969.8,304.1h3.5c0-.5-.2-.9-.4-1.2-.3-.4-.8-.6-1.3-.6s-.9.2-1.2.5-.5.8-.5,1.3Z"/>
    <path class="cls-4" d="M975.7,307.8v-6.2h.9v.9c.5-.7,1.1-1,2-1s.7,0,1,.2.5.3.7.5.3.5.3.8c0,.2,0,.5,0,1v3.8h-1.1v-3.8c0-.4,0-.8-.1-1s-.2-.4-.4-.5-.5-.2-.7-.2c-.4,0-.8.1-1.2.4s-.5.8-.5,1.6v3.4h-1.1Z"/>
    <path class="cls-4" d="M982.3,307.8v-6.2h.9v.9c.5-.7,1.1-1,2-1s.7,0,1,.2.5.3.7.5.3.5.3.8c0,.2,0,.5,0,1v3.8h-1.1v-3.8c0-.4,0-.8-.1-1s-.2-.4-.4-.5-.5-.2-.7-.2c-.4,0-.8.1-1.2.4s-.5.8-.5,1.6v3.4h-1.1Z"/>
    <path class="cls-4" d="M989,300.4v-1.2h1.1v1.2h-1.1ZM989,307.8v-6.2h1.1v6.2h-1.1Z"/>
    <path class="cls-4" d="M991.2,305.9l1-.2c0,.4.2.7.5,1s.6.3,1.1.3.8,0,1.1-.3.4-.4.4-.7-.1-.4-.3-.6c-.1,0-.5-.2-1.1-.4-.8-.2-1.3-.4-1.6-.5s-.5-.3-.7-.6-.2-.5-.2-.8,0-.5.2-.8.3-.4.5-.6c.2-.1.4-.2.7-.3s.6-.1.9-.1c.5,0,.9,0,1.3.2s.6.3.8.6.3.6.4,1h-1c0-.2-.2-.4-.4-.6s-.5-.3-1-.3-.8,0-1,.2-.3.3-.3.6,0,.3.1.4c0,.1.2.2.4.3.1,0,.4.1.9.3.7.2,1.3.4,1.6.5s.5.3.7.6.3.5.3.9-.1.7-.3,1-.5.6-.9.7-.8.3-1.3.3c-.8,0-1.4-.2-1.8-.5s-.7-.8-.8-1.5Z"/>
    <path class="cls-4" d="M1001,307.8v-6.2h.9v.9c.2-.4.5-.7.7-.9s.4-.2.7-.2c.4,0,.7.1,1.1.3l-.4,1c-.3-.2-.5-.2-.8-.2s-.4,0-.6.2-.3.3-.4.6c-.1.4-.2.8-.2,1.2v3.3h-1.1Z"/>
    <path class="cls-4" d="M1004.6,304.7c0-1.2.3-2,1-2.6.5-.5,1.2-.7,2-.7s1.6.3,2.1.8.8,1.3.8,2.3-.1,1.4-.4,1.9-.6.8-1,1.1-1,.4-1.5.4c-.9,0-1.6-.3-2.1-.8s-.8-1.4-.8-2.4ZM1005.7,304.7c0,.8.2,1.4.5,1.8s.8.6,1.3.6,1-.2,1.3-.6.5-1,.5-1.8-.2-1.4-.5-1.7-.8-.6-1.3-.6-1,.2-1.3.6-.5,1-.5,1.8Z"/>
    <path class="cls-4" d="M1011.3,304.7c0-1.2.3-2,1-2.6.5-.5,1.2-.7,2-.7s1.6.3,2.1.8.8,1.3.8,2.3-.1,1.4-.4,1.9-.6.8-1,1.1-1,.4-1.5.4c-.9,0-1.6-.3-2.1-.8s-.8-1.4-.8-2.4ZM1012.4,304.7c0,.8.2,1.4.5,1.8s.8.6,1.3.6,1-.2,1.3-.6.5-1,.5-1.8-.2-1.4-.5-1.7-.8-.6-1.3-.6-1,.2-1.3.6-.5,1-.5,1.8Z"/>
    <path class="cls-4" d="M1018.3,307.8v-6.2h.9v.9c.2-.3.5-.5.8-.7s.7-.3,1.1-.3.8,0,1.1.3.5.5.6.8c.5-.7,1.1-1.1,1.9-1.1s1.1.2,1.4.5.5.9.5,1.6v4.3h-1v-3.9c0-.4,0-.7-.1-.9s-.2-.3-.4-.4-.4-.2-.6-.2c-.4,0-.8.1-1.1.4s-.4.8-.4,1.4v3.6h-1.1v-4c0-.5,0-.8-.3-1.1s-.5-.4-.8-.4-.6,0-.8.2-.4.4-.5.7-.2.7-.2,1.3v3.2h-1.1Z"/>
    <path class="cls-4" d="M967.6,319c0,0,.1.1.1.2,0,0,0,0-.2,0h-9.8c-.3,0-.6,0-.8.1l-.3-.4c.3,0,.6,0,.9,0h1.9v-4.5c0-.5,0-1.3,0-1.8l.9.7c2.7-.5,3.9-.7,5.1-1.2l.6.6c0,0,0,.1,0,.2s0,0,0,0,0,0-.1,0c0,0-.2,0-.3,0s-.4,0-.6,0c-2.1.3-2.6.4-4.9.6v2h5.6l.5-.7.8.7c0,0,.1.2.1.2,0,0,0,0-.2,0h-2.9v3.1h2.5l.5-.6.8.6ZM961.7,320.3c0,0,.1,0,.1.1s0,0-.1,0c-.3,0-.5,0-.7.2-.8.6-2.5,1.7-3.9,2.4h0c1.6-1.1,3.2-2.4,3.9-3.3l.8.5ZM963.4,319v-3.1h-3.4v3.1h3.4Z"/>
    <path class="cls-4" d="M979.6,319.1c0,0,.1.1.1.2s0,0-.2,0h-9.8c-.3,0-.6,0-.8.1l-.3-.4c.3,0,.6,0,.9,0h1.9v-4.5c0-.5,0-1.3,0-1.8l.8.6c2.8-.4,4.1-.8,5.2-1.2l.6.7c0,0,.1.2.1.2s0,0,0,0-.3,0-.4,0c-.2,0-.5,0-.8,0-1.3.2-2.4.3-4.8.6v2h5.7l.5-.7.8.7c0,0,.1.1.1.2s0,0-.2,0h-3v3h2.5l.5-.7.8.7ZM975.2,319.1v-3h-3.3v3h3.3ZM974.5,320c1.7.4,3.6,1.3,4.1,1.9.1.1.2.3.2.5,0,.3-.1.5-.3.5s-.2,0-.3-.2c-.5-.8-2-1.8-3.7-2.6h0Z"/>
    <path class="cls-4" d="M985,319.2l-3.1,1.7c-.5.3-.7.5-.8.6,0,0,0,0,0,0s0,0,0,0l-.5-.6,1.8-.8v-3h-.5c-.2,0-.6,0-.8.1l-.3-.4c.3,0,.6,0,.8,0h.8v-3h-.6c-.3,0-.6,0-.8.1l-.3-.4c.3,0,.6,0,.9,0h2.3l.5-.6.6.6c0,0,.1.1.1.2s0,0-.1,0h-2v3h.8l.4-.6.6.6c0,0,.1.1.1.2s0,0-.1,0h-1.8v2.8l2-.9v.2ZM991.8,321.2c0,0-.2,0-.3,0-.4,0-.6,0-.7.3,0,0,0,0,0,0,0,0,0,0-.1,0-1.7-1.7-2.4-3.1-2.5-6.4h-.2v7.1c0,.6,0,.7-.9,1.2,0,0,0,0,0,0,0,0,0,0,0-.1,0-.3-.3-.5-1.5-.9v-.2c.8.1,1.3.2,1.6.2.5,0,.5-.2.5-.4v-3.4l-1.8,1.7c-.4.4-.7.7-.7.9,0,0,0,0,0,0s0,0,0,0l-.6-.4,3.2-2.6v-3.2h-1.6c-.3,0-.6,0-.8.1l-.3-.4c.3,0,.6,0,.9,0h1.9v-1.1c0-.5,0-1.3,0-1.8l.9.4c0,0,.1,0,.1,0s0,0-.4.3v2.1h2.4l.5-.6.7.6c0,0,.1.1.1.2s0,0-.2,0h-3.1c0,1.5.3,2.4.6,3.1.7-.8,1-1.2,1.6-2.1l.5.4c0,0,.1.1.1.2s0,0-.2,0c-.1,0-.2,0-.3.2l-1.6,1.4c.7,1.4,2,2.5,2.8,2.8h0ZM985.2,315.9c.8.5,1.2,1.2,1.2,1.7s-.2.6-.3.6-.3-.1-.3-.5c0-.6-.1-1.1-.7-1.8h.1ZM988.8,312.9c.3,0,1.6.5,1.6,1.1s-.1.4-.3.4-.1,0-.3-.3c-.1-.2-.5-.7-1.1-1.1h0Z"/>
    <path class="cls-4" d="M1003.3,322.6s0,0,0,.1c0,0,0,0-.1,0h-9.4c-.3,0-.6,0-.8.1l-.3-.4c.3,0,.6,0,.9,0h4.3v-2h-2.6c-.2,0-.6,0-.8.1l-.3-.4c.3,0,.6,0,.8,0h2.8v-.7c0-.5,0-.8,0-1.2l.9.5c0,0,0,0,0,0,0,0,0,0,0,0l-.3.2v1.1h2.2l.5-.7.8.7c0,0,0,.1,0,.1s0,0-.1,0h-3.4v2h3.5l.5-.7.9.8ZM1003.4,314.3s0,0,0,0c0,0,0,0-.1,0-.5,0-.8.2-1.3.7h-.1c0-.1.5-1,.5-1h-8c0,1-.5,1.5-1,1.5s-.4-.2-.4-.3.1-.3.4-.5c.4-.3.7-.6.9-1.6h.2c0,.2,0,.4,0,.5h7.9l.4-.4.8.7ZM999.7,316.6c1.6.6,2.7,1.4,2.7,2s-.2.4-.3.4-.3-.1-.3-.3c0-.2-.2-.4-.4-.6l-4.8.3c-.9,0-1.4.2-1.5.2,0,0-.1,0-.2,0s0,0-.1,0l-.4-.6c.4,0,.9-.1,1.1-.3.7-.5,1.3-1.1,1.8-1.8h-1.9c-.2,0-.6,0-.8.1l-.3-.4c.3,0,.6,0,.8,0h5.8l.5-.7.7.7c0,0,0,.1,0,.1s0,0-.1,0h-3.9c-.9.8-1.8,1.5-2.7,2.1h5.6c-.4-.5-.9-.9-1.5-1.3h0ZM997.2,312.3c1.2.4,1.5.7,1.5,1.1s-.2.6-.4.6-.3,0-.3-.3c0-.3-.4-.8-.9-1.2h0Z"/>
  </g>
</svg>