<?xml version="1.0" encoding="UTF-8"?>
<svg id="_图层_1" data-name=" 图层 1" xmlns="http://www.w3.org/2000/svg" version="1.1" xmlns:xlink="http://www.w3.org/1999/xlink" viewBox="0 0 1584 1061.4">
  <defs>
    <style>
      .cls-1 {
        font-size: 9px;
      }

      .cls-1, .cls-2 {
        fill: #fff;
        font-family: ArialMT, Arial;
      }

      .cls-1, .cls-2, .cls-3 {
        isolation: isolate;
      }

      .cls-2 {
        font-size: 32.3px;
      }

      .cls-4, .cls-5 {
        fill: #545454;
      }

      .cls-4, .cls-6, .cls-7, .cls-8, .cls-9, .cls-10 {
        stroke-miterlimit: 10;
      }

      .cls-4, .cls-8, .cls-9 {
        stroke: #545454;
      }

      .cls-5, .cls-11, .cls-12 {
        stroke-width: 0px;
      }

      .cls-11 {
        fill: #000;
      }

      .cls-6 {
        fill: #dc8a78;
        stroke: #fff;
      }

      .cls-7 {
        stroke: #a0a1a6;
      }

      .cls-7, .cls-8, .cls-9, .cls-10 {
        fill: none;
      }

      .cls-12 {
        fill: #a0a1a6;
      }

      .cls-8 {
        stroke-width: 3px;
      }

      .cls-10 {
        stroke: #8f0004;
        stroke-width: 8px;
      }
    </style>
    <symbol id="_桌椅" data-name=" 桌椅" viewBox="0 0 110 75.2">
      <g>
        <g>
          <g>
            <path class="cls-7" d="M24.1,64v-11.5H7.1v11.5c0,4.3,3,7.9,6.6,7.9h3.7c3.7,0,6.6-3.5,6.6-7.9Z"/>
            <path class="cls-7" d="M4.5,71.7s10.5,6.7,22.2,0"/>
            <path class="cls-7" d="M4.5,67.4s10.5,11.7,22.2,0"/>
            <polyline class="cls-7" points="7.2 72.8 8.2 71.1 9.5 73.4 11.2 72.5 15.2 74.1 19.7 72.7 21.9 73.4 22.6 71.3 24.5 72.6"/>
          </g>
          <g>
            <path class="cls-7" d="M50,64v-11.5h-17v11.5c0,4.3,3,7.9,6.7,7.9h3.7c3.7,0,6.7-3.5,6.7-7.9h0Z"/>
            <path class="cls-7" d="M30.4,71.7s10.5,6.7,22.2,0"/>
            <path class="cls-7" d="M30.4,67.4s10.5,11.7,22.2,0"/>
            <polyline class="cls-7" points="33.1 72.8 34.1 71.1 35.3 73.4 37.1 72.5 41.1 74.1 45.6 72.7 47.8 73.4 48.5 71.3 50.3 72.6"/>
          </g>
          <g>
            <path class="cls-7" d="M76.6,64v-11.5h-17v11.5c0,4.3,3,7.9,6.7,7.9h3.7c3.7,0,6.7-3.5,6.7-7.9h0Z"/>
            <path class="cls-7" d="M57,71.7s10.5,6.7,22.2,0"/>
            <path class="cls-7" d="M57,67.4s10.5,11.7,22.2,0"/>
            <polyline class="cls-7" points="59.7 72.8 60.7 71.1 61.9 73.4 63.7 72.5 67.7 74.1 72.2 72.7 74.4 73.4 75.1 71.3 76.9 72.6"/>
          </g>
          <g>
            <path class="cls-7" d="M102.4,64v-11.5h-17v11.5c0,4.3,3,7.9,6.7,7.9h3.7c3.7,0,6.7-3.5,6.7-7.9h0Z"/>
            <path class="cls-7" d="M82.8,71.7s10.5,6.7,22.2,0"/>
            <path class="cls-7" d="M82.8,67.4s10.5,11.7,22.2,0"/>
            <polyline class="cls-7" points="85.6 72.8 86.6 71.1 87.8 73.4 89.6 72.5 93.6 74.1 98 72.7 100.3 73.4 101 71.3 102.8 72.6"/>
          </g>
        </g>
        <g>
          <g>
            <path class="cls-7" d="M85.4,11.2v11.5h17v-11.5c0-4.3-3-7.9-6.7-7.9h-3.7c-3.7,0-6.7,3.5-6.7,7.9h0Z"/>
            <path class="cls-7" d="M105,3.5s-10.5-6.7-22.2,0"/>
            <path class="cls-7" d="M105,7.8s-10.5-11.7-22.2,0"/>
            <polyline class="cls-7" points="102.2 2.4 101.3 4 100 1.8 98.3 2.6 94.3 1.1 89.8 2.5 87.6 1.8 86.9 3.8 85 2.6"/>
          </g>
          <g>
            <path class="cls-7" d="M59.5,11.2v11.5h17v-11.5c0-4.3-3-7.9-6.7-7.9h-3.7c-3.7,0-6.7,3.5-6.7,7.9h0Z"/>
            <path class="cls-7" d="M79.1,3.5s-10.5-6.7-22.2,0"/>
            <path class="cls-7" d="M79.1,7.8s-10.5-11.7-22.2,0"/>
            <polyline class="cls-7" points="76.4 2.4 75.4 4 74.2 1.8 72.4 2.6 68.4 1.1 63.9 2.5 61.7 1.8 61 3.8 59.2 2.6"/>
          </g>
          <g>
            <path class="cls-7" d="M33,11.2v11.5h17v-11.5c0-4.3-3-7.9-6.7-7.9h-3.7c-3.7,0-6.7,3.5-6.7,7.9h0Z"/>
            <path class="cls-7" d="M52.5,3.5s-10.5-6.7-22.2,0"/>
            <path class="cls-7" d="M52.5,7.8s-10.5-11.7-22.2,0"/>
            <polyline class="cls-7" points="49.8 2.4 48.8 4 47.6 1.8 45.8 2.6 41.8 1.1 37.3 2.5 35.1 1.8 34.4 3.8 32.6 2.6"/>
          </g>
          <g>
            <path class="cls-7" d="M7.1,11.2v11.5h17v-11.5c0-4.3-3-7.9-6.6-7.9h-3.7c-3.7,0-6.7,3.5-6.7,7.9h0Z"/>
            <path class="cls-7" d="M26.7,3.5s-10.5-6.7-22.2,0"/>
            <path class="cls-7" d="M26.7,7.8s-10.5-11.7-22.2,0"/>
            <polyline class="cls-7" points="23.9 2.4 22.9 4 21.7 1.8 20 2.6 15.9 1.1 11.5 2.5 9.2 1.8 8.5 3.8 6.7 2.6"/>
          </g>
        </g>
        <rect class="cls-12" y="21.5" width="110" height="32"/>
      </g>
    </symbol>
  </defs>
  <rect class="cls-10" x="4" y="298" width="84" height="57" rx="1.3" ry="1.3"/>
  <rect class="cls-10" x="4" y="375" width="84" height="57" rx="1.3" ry="1.3"/>
  <rect class="cls-10" x="4" y="452" width="84" height="57" rx="1.3" ry="1.3"/>
  <rect class="cls-10" x="4" y="529" width="84" height="57" rx="1.3" ry="1.3"/>
  <rect class="cls-10" x="4" y="606" width="84" height="57" rx="1.3" ry="1.3"/>
  <use width="110" height="75.2" transform="translate(327.2 185.6) scale(1 -1)" xlink:href="#_桌椅"/>
  <rect class="cls-5" x="294" y="895" width="14" height="39"/>
  <polygon class="cls-5" points="301.4 965.8 259.8 924 343.2 924.2 301.4 965.8"/>
  <rect class="cls-6" x="189.5" y="979.5" width="230" height="78"/>
  <g>
    <path class="cls-11" d="M228,1013.2c0-1.9.5-3.4,1.5-4.5s2.4-1.6,4-1.6,2,.2,2.9.8,1.5,1.2,1.9,2.1.7,1.9.7,3.1-.2,2.2-.7,3.1-1.1,1.6-2,2.1c-.9.5-1.8.7-2.8.7s-2.1-.3-2.9-.8-1.5-1.2-1.9-2.1-.7-1.9-.7-2.9h0ZM229.6,1013.2c0,1.4.4,2.5,1.1,3.3.7.8,1.7,1.2,2.8,1.2s2.1-.4,2.8-1.2,1.1-2,1.1-3.4-.2-1.8-.5-2.5-.8-1.2-1.4-1.6-1.3-.6-2.1-.6c-1.1,0-2,.4-2.8,1.1s-1.2,2-1.2,3.7h0Z"/>
    <path class="cls-11" d="M246.2,1018.8v-1.2c-.6.9-1.5,1.4-2.6,1.4s-.9,0-1.4-.3c-.4-.2-.7-.4-.9-.7-.2-.3-.4-.6-.4-1,0-.3,0-.7,0-1.3v-5.2h1.4v4.6c0,.7,0,1.2,0,1.5,0,.4.3.7.6.9.3.2.6.3,1.1.3s.8-.1,1.2-.3.6-.5.8-.9c.1-.4.2-.9.2-1.6v-4.5h1.4v8.3h-1.3,0Z"/>
    <path class="cls-11" d="M252.8,1017.5l.2,1.2c-.4,0-.8.1-1.1.1-.5,0-.9,0-1.2-.2s-.5-.4-.6-.6c-.1-.3-.2-.8-.2-1.7v-4.8h-1v-1.1h1v-2.1l1.4-.8v2.9h1.4v1.1h-1.4v4.9c0,.4,0,.7,0,.8,0,.1.1.2.2.3.1,0,.3,0,.5,0s.4,0,.6,0h0Z"/>
    <path class="cls-11" d="M259.5,1018.8v-1c-.5.8-1.3,1.2-2.3,1.2s-1.3-.2-1.8-.5-1-.9-1.3-1.5c-.3-.7-.5-1.4-.5-2.3s.1-1.6.4-2.3.7-1.2,1.2-1.6c.6-.4,1.2-.5,1.9-.5s1,.1,1.3.3c.4.2.7.5,1,.8v-4.1h1.4v11.5h-1.3ZM255.1,1014.6c0,1.1.2,1.9.7,2.4.5.5,1,.8,1.6.8s1.1-.2,1.6-.8c.4-.5.6-1.3.6-2.3s-.2-2-.7-2.5-1-.8-1.6-.8-1.1.3-1.6.8c-.4.5-.6,1.3-.6,2.4h0Z"/>
    <path class="cls-11" d="M262.5,1014.6c0-1.5.4-2.7,1.3-3.4.7-.6,1.6-.9,2.6-.9s2.1.4,2.8,1.1c.7.8,1.1,1.8,1.1,3.1s-.2,1.9-.5,2.5c-.3.6-.8,1.1-1.4,1.4-.6.3-1.3.5-2,.5-1.2,0-2.1-.4-2.8-1.1s-1.1-1.8-1.1-3.2h0ZM264,1014.6c0,1.1.2,1.9.7,2.4.5.5,1,.8,1.8.8s1.3-.3,1.8-.8c.5-.5.7-1.3.7-2.4s-.2-1.8-.7-2.3-1-.8-1.7-.8-1.3.3-1.8.8c-.5.5-.7,1.3-.7,2.4h0Z"/>
    <path class="cls-11" d="M271.5,1014.6c0-1.5.4-2.7,1.3-3.4.7-.6,1.6-.9,2.6-.9s2.1.4,2.8,1.1c.7.8,1.1,1.8,1.1,3.1s-.2,1.9-.5,2.5c-.3.6-.8,1.1-1.4,1.4-.6.3-1.3.5-2,.5-1.2,0-2.1-.4-2.8-1.1s-1.1-1.8-1.1-3.2h0ZM272.9,1014.6c0,1.1.2,1.9.7,2.4.5.5,1,.8,1.8.8s1.3-.3,1.8-.8c.5-.5.7-1.3.7-2.4s-.2-1.8-.7-2.3-1-.8-1.7-.8-1.3.3-1.8.8c-.5.5-.7,1.3-.7,2.4h0Z"/>
    <path class="cls-11" d="M280.9,1018.8v-8.3h1.3v1.3c.3-.6.6-1,.9-1.2.3-.2.6-.3.9-.3.5,0,1,.2,1.5.5l-.5,1.3c-.3-.2-.7-.3-1-.3s-.6,0-.8.3-.4.4-.5.8c-.2.5-.2,1-.2,1.7v4.4h-1.4Z"/>
    <path class="cls-11" d="M290.4,1015.1h1.4c0,.5.2.9.5,1.3s.6.7,1.2.9,1.1.3,1.8.3,1.1,0,1.5-.3c.4-.2.8-.4,1-.7s.3-.6.3-1-.1-.7-.3-.9c-.2-.3-.5-.5-1-.7-.3-.1-1-.3-2-.6s-1.8-.5-2.2-.7c-.5-.3-1-.6-1.2-1.1s-.4-.9-.4-1.4.2-1.1.5-1.6c.3-.5.8-.9,1.4-1.2s1.3-.4,2.1-.4,1.6.1,2.2.4,1.1.7,1.5,1.2.5,1.1.6,1.8h-1.5c0-.6-.3-1.2-.8-1.5-.5-.4-1.1-.6-2-.6s-1.6.2-2,.5-.6.7-.6,1.2.1.8.5,1c.3.3,1.1.5,2.3.8,1.2.3,2.1.5,2.5.7.7.3,1.2.7,1.5,1.2s.5,1,.5,1.6-.2,1.2-.5,1.7c-.4.5-.9,1-1.5,1.3s-1.4.5-2.2.5-1.9-.2-2.6-.5c-.7-.3-1.2-.8-1.6-1.4s-.6-1.3-.6-2.1h0Z"/>
    <path class="cls-11" d="M301.4,1022v-11.5h1.3v1.1c.3-.4.6-.7,1-1s.8-.3,1.4-.3,1.3.2,1.9.5,1,.9,1.2,1.5.4,1.4.4,2.2-.1,1.6-.5,2.3-.8,1.2-1.3,1.6c-.6.4-1.2.5-1.8.5s-.9,0-1.3-.3c-.4-.2-.7-.5-.9-.8v4h-1.4ZM302.7,1014.7c0,1.1.2,1.9.6,2.4.4.5,1,.8,1.6.8s1.2-.3,1.6-.8.7-1.3.7-2.5-.2-1.8-.6-2.4c-.4-.5-1-.8-1.6-.8s-1.1.3-1.6.8-.7,1.4-.7,2.5h0Z"/>
    <path class="cls-11" d="M309.8,1014.6c0-1.5.4-2.7,1.3-3.4.7-.6,1.6-.9,2.6-.9s2.1.4,2.8,1.1c.7.8,1.1,1.8,1.1,3.1s-.2,1.9-.5,2.5c-.3.6-.8,1.1-1.4,1.4-.6.3-1.3.5-2,.5-1.2,0-2.1-.4-2.8-1.1s-1.1-1.8-1.1-3.2h0ZM311.3,1014.6c0,1.1.2,1.9.7,2.4.5.5,1,.8,1.8.8s1.3-.3,1.8-.8c.5-.5.7-1.3.7-2.4s-.2-1.8-.7-2.3-1-.8-1.7-.8-1.3.3-1.8.8c-.5.5-.7,1.3-.7,2.4h0Z"/>
    <path class="cls-11" d="M319.3,1018.8v-8.3h1.3v1.3c.3-.6.6-1,.9-1.2.3-.2.6-.3.9-.3.5,0,1,.2,1.5.5l-.5,1.3c-.3-.2-.7-.3-1-.3s-.6,0-.8.3-.4.4-.5.8c-.2.5-.2,1-.2,1.7v4.4h-1.4Z"/>
    <path class="cls-11" d="M327.7,1017.5l.2,1.2c-.4,0-.8.1-1.1.1-.5,0-.9,0-1.2-.2s-.5-.4-.6-.6-.2-.8-.2-1.7v-4.8h-1v-1.1h1v-2.1l1.4-.8v2.9h1.4v1.1h-1.4v4.9c0,.4,0,.7,0,.8,0,.1.1.2.2.3.1,0,.3,0,.5,0s.4,0,.6,0h0Z"/>
    <path class="cls-11" d="M328.5,1016.3l1.4-.2c0,.6.3,1,.6,1.3s.9.5,1.5.5,1.1-.1,1.4-.4c.3-.3.5-.6.5-.9s-.1-.6-.4-.8c-.2-.1-.7-.3-1.4-.5-1-.3-1.8-.5-2.1-.7s-.7-.5-.9-.8c-.2-.3-.3-.7-.3-1.1s0-.7.2-1,.4-.6.7-.8c.2-.2.5-.3.9-.4s.8-.2,1.2-.2c.6,0,1.2,0,1.7.3s.9.4,1.1.8.4.8.5,1.3l-1.4.2c0-.4-.2-.8-.5-1s-.7-.4-1.3-.4-1.1.1-1.4.3c-.3.2-.4.5-.4.8s0,.3.2.5c.1.2.3.3.5.4.1,0,.6.2,1.2.4,1,.3,1.7.5,2.1.7.4.2.7.4.9.7.2.3.3.7.3,1.2s-.1.9-.4,1.3c-.3.4-.7.7-1.2,1-.5.2-1.1.3-1.8.3-1.1,0-1.9-.2-2.5-.7-.6-.5-.9-1.1-1.1-2h0Z"/>
    <path class="cls-11" d="M341.8,1018.8v-11.5h7.8v1.4h-6.2v3.6h5.4v1.4h-5.4v5.2h-1.5Z"/>
    <path class="cls-11" d="M351.4,1008.9v-1.6h1.4v1.6h-1.4ZM351.4,1018.8v-8.3h1.4v8.3h-1.4Z"/>
    <path class="cls-11" d="M360.6,1016.1l1.5.2c-.2.8-.7,1.5-1.3,2s-1.4.7-2.4.7-2.2-.4-2.9-1.1-1.1-1.8-1.1-3.2.4-2.5,1.1-3.3,1.7-1.2,2.8-1.2,2,.4,2.7,1.1c.7.8,1.1,1.8,1.1,3.2v.4h-6.2c0,.9.3,1.6.8,2.1.5.5,1,.7,1.7.7s1-.1,1.3-.4c.4-.3.7-.7.9-1.3h0ZM356,1013.8h4.6c0-.7-.2-1.2-.5-1.6-.5-.5-1-.8-1.8-.8s-1.2.2-1.6.7c-.4.4-.7,1-.7,1.7h0Z"/>
    <path class="cls-11" d="M363.8,1018.8v-11.5h1.4v11.5h-1.4Z"/>
    <path class="cls-11" d="M372.8,1018.8v-1c-.5.8-1.3,1.2-2.3,1.2s-1.3-.2-1.8-.5-1-.9-1.3-1.5c-.3-.7-.5-1.4-.5-2.3s.1-1.6.4-2.3.7-1.2,1.2-1.6c.5-.4,1.2-.5,1.9-.5s1,.1,1.3.3c.4.2.7.5,1,.8v-4.1h1.4v11.5h-1.3ZM368.4,1014.6c0,1.1.2,1.9.7,2.4s1,.8,1.6.8,1.1-.2,1.6-.8c.4-.5.6-1.3.6-2.3s-.2-2-.7-2.5-1-.8-1.6-.8-1.1.3-1.6.8-.6,1.3-.6,2.4h0Z"/>
    <path class="cls-11" d="M276,1038.6c0,0,.1.1.1.1,0,0,0,0-.1,0h-12.6c-.3,0-.8,0-1.1.2l-.5-.6c.4,0,.8,0,1.2,0h5.8v-2.6h-3.5c-.3,0-.8,0-1,.2l-.4-.6c.4,0,.8,0,1.1,0h3.8v-.9c0-.6,0-1,0-1.6l1.1.6c.1,0,.1,0,.1.1,0,0,0,0-.1.1l-.4.2v1.4h3l.7-.9,1,1c.1,0,.1.1.1.2s0,0-.2,0h-4.6v2.6h4.6l.7-1,1.2,1.1h0ZM276.1,1027.5s0,0,0,.1c0,0,0,.1-.2.1-.6,0-1,.2-1.7,1h-.2c0-.1.6-1.3.6-1.3h-10.7c-.1,1.3-.6,2.1-1.3,2.1s-.5-.2-.5-.4.2-.4.5-.6c.5-.3.9-.8,1.2-2.1h.2c0,.3,0,.5,0,.7h10.6l.5-.6,1,1h0ZM271.1,1030.5c2.2.8,3.5,1.8,3.5,2.7s-.2.6-.4.6-.4-.1-.5-.4c-.1-.2-.3-.5-.5-.8l-6.4.4c-1.2,0-1.9.2-2,.3-.1,0-.2,0-.2,0s-.1,0-.1-.1l-.5-.8c.6,0,1.2-.2,1.5-.3.9-.7,1.8-1.5,2.4-2.4h-2.6c-.3,0-.8,0-1,.2l-.4-.6c.4,0,.8,0,1.1,0h7.7l.7-.9,1,1c0,0,.1.1.1.2s0,0-.2,0h-5.2c-1.2,1.1-2.4,2-3.5,2.8h7.6c-.5-.7-1.2-1.2-2-1.8v-.2c.1,0,.1,0,.1,0ZM267.8,1024.8c1.6.6,2.1,1,2.1,1.5s-.3.8-.5.8-.4,0-.5-.4c-.1-.4-.5-1.1-1.2-1.7v-.2c.1,0,0,0,0,0Z"/>
    <path class="cls-11" d="M286.2,1028c0,0,.1,0,.1.1,0,0,0,0-.1.1-.5.3-.6.4-.7.6-.4,1.5-1.1,3.7-2,5.2-.8,1.4-2.8,3.7-5.3,5.1v-.2c2.2-1.8,3.7-3.5,4.9-5.6.8-1.4,1.5-3.5,1.7-5.2h-3.3c-.8,1.9-1.8,3.8-3,5.4h-.2c1.6-3.1,2.5-5.4,3.6-9.1l1.2.7s0,0,0,0,0,0-.2,0c-.3,0-.5.3-.7.8-.2.6-.5,1.2-.7,1.7h3l.5-.7,1.1.8h0ZM280.9,1030.2c.9.4,2.2,1,2.2,2s-.2.7-.5.7-.3-.1-.4-.3c-.1-.6-.6-1.3-1.5-2.2h.1v-.2ZM288.3,1029.3c1.9.8,4.3,2.2,4.3,3.4s-.2.7-.4.7-.2-.1-.3-.3c-.7-1.2-1.9-2.6-3.5-3.4v5.8c0,1.2,0,2.4,0,3.2h0c0,.3,0,.4-.4.5-.1,0-.3,0-.3,0s-.1,0-.1-.4h0c0-1.1,0-2.5,0-3.5v-8.7c0-.9,0-1.8,0-2.4l1.2.7c.1,0,.1,0,.1.1s0,0-.1.1l-.4.2v3.9h0Z"/>
    <path class="cls-11" d="M308.9,1037.8c-.7,0-1.3.4-1.4.8,0,.1-.1.1-.3.1-4.8,0-6.6-.1-7.3-.2-1.4-.2-2.5-1.3-2.8-2-.1-.2-.2-.3-.3-.3-.5,0-1.7,2.1-1.9,2.5,0,0,0,.1-.1.1s0,0-.1,0l-.8-.5,2.5-2.3v-5.2h-1.3c-.3,0-.7,0-1,.2l-.4-.6c.4,0,.7,0,1.1,0h1.2l.6-.8,1.1.8c0,0,.1.1.1.1,0,0,0,0-.1.1l-.6.3v4.5c0,.6,1.2,2.3,3,2.3.5,0,1,0,1.5,0,2.3,0,4.4,0,7.3-.4v.2h0ZM295,1025.1c1.4.6,2.4,1.6,2.5,2.1,0,0,0,.2,0,.3,0,.4-.2.8-.4.8s-.3,0-.5-.7c-.2-.5-.8-1.6-1.6-2.3v-.2c0,0,0,0,0,0ZM308.6,1029.4c.1,0,.2.2.2.2,0,0,0,0-.2,0h-5.1c-1,1.9-2.5,4.2-3.1,4.9l5.9-.3c-.4-.9-1-1.9-1.8-2.8v-.2c.8.5,3.1,2.4,3.1,3.7s-.3.9-.6.9-.2-.2-.4-.7c0-.2-.1-.5-.2-.8l-3.8.5c-1.7.2-2.1.4-2.4.6,0,0-.1,0-.2,0s-.1,0-.2-.1l-.6-.8c.7,0,1-.3,1.3-.7.7-1.1,1.6-2.7,2-4.3h-2.7c-.3,0-.7,0-1,.2l-.4-.6c.4,0,.7,0,1.1,0h7.4l.7-.9,1.1,1h0ZM307.3,1025.8c.1,0,.1.2.1.2,0,0,0,.1-.2.1h-6c-.3,0-.7,0-1,.2l-.4-.6c.4,0,.7,0,1.1,0h4.7l.7-.9,1,.9h0Z"/>
    <path class="cls-11" d="M317.6,1030c0,0,.1.1.1.2,0,0,0,0-.2,0h-3.8l.7.5c0,0,.1,0,.1.1s0,0-.1.1c-.4.1-.5.2-.6.5-.8,1.4-1.5,2.6-2.3,3.8l4.5-.5c-.2-.8-.6-1.7-1.4-2.7l.2-.2c1.4,1.4,2.3,2.4,2.3,3.2s-.3.9-.6.9-.3-.1-.4-.6c0-.1,0-.2,0-.3l-2,.4c-1.7.3-2.5.6-2.9.9,0,0,0,0,0,0,0,0-.1,0-.1,0l-.8-.9c.6-.2,1.1-.5,1.3-.9.6-1.1,1.3-2.7,1.8-4.3h-1.9c-.3,0-.8,0-1,.2l-.4-.6c.4,0,.8,0,1.1,0h4.8l.7-.9,1,1h0ZM317.1,1026.7c0,0,.1.1.1.2s0,0-.2,0h-4.9c-.3,0-.8,0-1,.2l-.4-.6c.4,0,.8,0,1.1,0h3.7l.6-.8,1,1h0ZM324.5,1028.6c0,0,.1.1.1.2s0,0-.1.2l-.6.4c0,2.4-.2,5.6-.4,7.3-.1,1-.5,1.6-1.8,2.2,0,0-.1,0-.2,0,0,0-.1,0-.2-.2-.1-.4-.6-.7-1.9-1.1v-.3c.8.2,1.5.3,1.9.3,1,0,1.2-.4,1.4-1.2.2-1.3.4-5.2.4-7.3h-2.9c-.3,5.7-.9,8.1-6.2,10.5v-.3c4.5-2.5,5.2-4.5,5.4-10.2h-.9c-.3,0-.8,0-1.1.2l-.5-.6c.4,0,.8,0,1.2,0h1.2c0-1.2,0-2.6,0-4.2l1.4.6c.1,0,.2,0,.2.1s0,0-.1.1l-.5.3c0,.9,0,2.1-.1,3h2.5l.6-.8,1.1.8h0Z"/>
    <path class="cls-11" d="M332.4,1029c.1,0,.2.2.2.2s0,0-.2,0h-2.8v4.9l2.8-1v.3c.1,0-3.9,1.8-3.9,1.8-.9.4-1.2.7-1.4.9,0,0,0,0-.1,0s-.1,0-.1,0l-.6-.7,2.7-1v-5.2h-1.3c-.3,0-.7,0-1,.2l-.4-.6c.4,0,.7,0,1.1,0h1.6v-2.4c0-.6,0-1.7,0-2.2l1.2.6c.1,0,.2.1.2.2s0,0-.6.4v3.4h1.5l.6-.8.9.8h0ZM340.6,1030.9c0,0,.1,0,.1.1,0,0,0,0-.1.1l-.5.3c-.2,2.3-.5,4.3-.8,5.6-.3,1.2-.8,1.7-1.7,2,0,0-.1,0-.1,0s-.1,0-.1,0c-.1-.5-.4-.8-1.8-1.1v-.2c.9.2,1.4.2,1.9.2.8,0,.9-.3,1.1-1,.3-1,.7-3.4.8-5.7h-1.6c-.8,4.3-2.6,6.7-7,8.1v-.3c4.2-1.9,5.6-4.3,6.2-7.9h-1.8c-1,3.4-2.6,5-5.8,6.5v-.2c2.7-1.5,4.4-3.6,5-6.3h-1.3l-.5.4c0,0-.1,0-.2,0s-.1,0-.2,0l-.7-.7c.7-.2,1.3-.5,1.7-.8l4-3.8h-4.5c-.3,0-.7,0-1,.2l-.4-.6c.4,0,.7,0,1.1,0h4.7l.7-.6.9,1s0,0,0,.1c0,0,0,0-.1,0-.8.2-.9.2-1.2.5l-4.1,3.8h5.7l.6-.7,1,.8h0Z"/>
  </g>
  <g>
    <rect class="cls-4" x="1539.5" y=".5" width="44" height="7"/>
    <rect class="cls-4" x="1539.5" y="119.5" width="44" height="7"/>
    <rect class="cls-4" x="1554.5" y="19.5" width="15" height="88"/>
  </g>
  <g class="cls-3">
    <text class="cls-1" transform="translate(1474.9 61.9) scale(1.2 1)"><tspan x="0" y="0">Main Entrance</tspan></text>
  </g>
  <use width="110" height="75.2" transform="translate(329 279.2) scale(1 -1)" xlink:href="#_桌椅"/>
  <use width="110" height="75.2" transform="translate(486.2 186.6) scale(1 -1)" xlink:href="#_桌椅"/>
  <use width="110" height="75.2" transform="translate(488 280.2) scale(1 -1)" xlink:href="#_桌椅"/>
  <use width="110" height="75.2" transform="translate(643.2 185.6) scale(1 -1)" xlink:href="#_桌椅"/>
  <use width="110" height="75.2" transform="translate(645 279.2) scale(1 -1)" xlink:href="#_桌椅"/>
  <use width="110" height="75.2" transform="translate(327.2 601.6) scale(1 -1)" xlink:href="#_桌椅"/>
  <use width="110" height="75.2" transform="translate(329 695.2) scale(1 -1)" xlink:href="#_桌椅"/>
  <use width="110" height="75.2" transform="translate(486.2 602.6) scale(1 -1)" xlink:href="#_桌椅"/>
  <use width="110" height="75.2" transform="translate(488 696.2) scale(1 -1)" xlink:href="#_桌椅"/>
  <use width="110" height="75.2" transform="translate(643.2 601.6) scale(1 -1)" xlink:href="#_桌椅"/>
  <use width="110" height="75.2" transform="translate(645 695.2) scale(1 -1)" xlink:href="#_桌椅"/>
  <use width="110" height="75.2" transform="translate(328 789.2) scale(1 -1)" xlink:href="#_桌椅"/>
  <use width="110" height="75.2" transform="translate(487 790.2) scale(1 -1)" xlink:href="#_桌椅"/>
  <use width="110" height="75.2" transform="translate(644 789.2) scale(1 -1)" xlink:href="#_桌椅"/>
  <g>
    <rect class="cls-8" x="314" y="321" width="457.2" height="137"/>
    <line class="cls-8" x1="345.9" y1="321" x2="345.9" y2="458"/>
    <line class="cls-8" x1="381.2" y1="321" x2="381.2" y2="458"/>
    <line class="cls-8" x1="416.4" y1="321" x2="416.4" y2="458"/>
    <line class="cls-8" x1="451.7" y1="321" x2="451.7" y2="458"/>
    <line class="cls-8" x1="486.9" y1="321" x2="486.9" y2="458"/>
    <line class="cls-8" x1="522.2" y1="321" x2="522.2" y2="458"/>
    <line class="cls-8" x1="557.4" y1="321" x2="557.4" y2="458"/>
    <line class="cls-8" x1="592.7" y1="321" x2="592.7" y2="458"/>
    <line class="cls-8" x1="627.9" y1="321" x2="627.9" y2="458"/>
    <line class="cls-8" x1="663.2" y1="321" x2="663.2" y2="458"/>
    <line class="cls-8" x1="698.4" y1="321" x2="698.4" y2="458"/>
    <line class="cls-8" x1="733.7" y1="321" x2="733.7" y2="458"/>
  </g>
  <polyline class="cls-9" points="314 389.5 698.4 389.5 679 373"/>
  <polyline class="cls-9" points="314 389.5 698.4 389.5 679 406"/>
  <g>
    <rect class="cls-8" x="855.5" y="321" width="457.2" height="137"/>
    <line class="cls-8" x1="887.5" y1="321" x2="887.5" y2="458"/>
    <line class="cls-8" x1="922.7" y1="321" x2="922.7" y2="458"/>
    <line class="cls-8" x1="958" y1="321" x2="958" y2="458"/>
    <line class="cls-8" x1="993.2" y1="321" x2="993.2" y2="458"/>
    <line class="cls-8" x1="1028.5" y1="321" x2="1028.5" y2="458"/>
    <line class="cls-8" x1="1063.7" y1="321" x2="1063.7" y2="458"/>
    <line class="cls-8" x1="1099" y1="321" x2="1099" y2="458"/>
    <line class="cls-8" x1="1134.2" y1="321" x2="1134.2" y2="458"/>
    <line class="cls-8" x1="1169.5" y1="321" x2="1169.5" y2="458"/>
    <line class="cls-8" x1="1204.7" y1="321" x2="1204.7" y2="458"/>
    <line class="cls-8" x1="1240" y1="321" x2="1240" y2="458"/>
    <line class="cls-8" x1="1275.2" y1="321" x2="1275.2" y2="458"/>
  </g>
  <polyline class="cls-9" points="855.5 389.5 1240 389.5 1220.5 373"/>
  <polyline class="cls-9" points="855.5 389.5 1240 389.5 1220.5 406"/>
  <g class="cls-3">
    <text class="cls-2" transform="translate(802.4 401.6) scale(.5 1)"><tspan x="0" y="0">GF</tspan></text>
  </g>
  <g class="cls-3">
    <text class="cls-2" transform="translate(278.8 394.6) scale(.5 1)"><tspan x="0" y="0">1F</tspan></text>
  </g>
  <g class="cls-3">
    <text class="cls-2" transform="translate(1338 397.8) scale(.5 1)"><tspan x="0" y="0">BF</tspan></text>
  </g>
</svg>