<?xml version="1.0" encoding="UTF-8"?>
<svg id="_图层_1" data-name="图层 1" xmlns="http://www.w3.org/2000/svg" xmlns:xlink="http://www.w3.org/1999/xlink" viewBox="0 0 1584 1061.38">
  <defs>
    <style>
      .cls-1, .cls-2 {
        fill: #545454;
      }

      .cls-1, .cls-3, .cls-4, .cls-5, .cls-6 {
        stroke-miterlimit: 10;
      }

      .cls-1, .cls-5 {
        stroke: #545454;
      }

      .cls-2, .cls-7, .cls-8 {
        stroke-width: 0px;
      }

      .cls-7 {
        fill: #000;
      }

      .cls-3 {
        fill: #dc8a78;
        stroke: #fff;
      }

      .cls-9 {
        font-size: 20.97px;
      }

      .cls-9, .cls-10 {
        fill: #fff;
        font-family: ArialMT, Arial;
      }

      .cls-4 {
        stroke: #a0a1a6;
      }

      .cls-4, .cls-5, .cls-6 {
        fill: none;
      }

      .cls-8 {
        fill: #a0a1a6;
      }

      .cls-5 {
        stroke-width: 5px;
      }

      .cls-10 {
        font-size: 9.01px;
      }

      .cls-6 {
        stroke: #8f0004;
        stroke-width: 8px;
      }
    </style>
    <symbol id="_桌椅" data-name="桌椅" viewBox="0 0 110 75.17">
      <g>
        <g>
          <g>
            <path class="cls-4" d="M24.08,11.2v11.47H7.09v-11.47c0-4.35,2.98-7.88,6.65-7.88h3.69c3.67,0,6.65,3.53,6.65,7.88Z"/>
            <path class="cls-4" d="M4.5,3.46s10.46-6.65,22.17,0"/>
            <path class="cls-4" d="M4.5,7.76s10.46-11.71,22.17,0"/>
            <polyline class="cls-4" points="7.25 2.39 8.24 4.05 9.47 1.79 11.22 2.62 15.21 1.08 19.71 2.47 21.94 1.81 22.64 3.83 24.46 2.56"/>
          </g>
          <g>
            <path class="cls-4" d="M49.95,11.2v11.47h-17v-11.47c0-4.35,2.98-7.88,6.65-7.88h3.69c3.67,0,6.65,3.53,6.65,7.88Z"/>
            <path class="cls-4" d="M30.36,3.46s10.46-6.65,22.17,0"/>
            <path class="cls-4" d="M30.36,7.76s10.46-11.71,22.17,0"/>
            <polyline class="cls-4" points="33.11 2.39 34.1 4.05 35.34 1.79 37.08 2.62 41.08 1.08 45.58 2.47 47.81 1.81 48.5 3.83 50.33 2.56"/>
          </g>
          <g>
            <path class="cls-4" d="M76.55,11.2v11.47h-17v-11.47c0-4.35,2.98-7.88,6.65-7.88h3.69c3.67,0,6.65,3.53,6.65,7.88Z"/>
            <path class="cls-4" d="M56.97,3.46s10.46-6.65,22.17,0"/>
            <path class="cls-4" d="M56.97,7.76s10.46-11.71,22.17,0"/>
            <polyline class="cls-4" points="59.72 2.39 60.71 4.05 61.94 1.79 63.69 2.62 67.68 1.08 72.18 2.47 74.41 1.81 75.11 3.83 76.93 2.56"/>
          </g>
          <g>
            <path class="cls-4" d="M102.41,11.2v11.47h-17v-11.47c0-4.35,2.98-7.88,6.65-7.88h3.69c3.67,0,6.65,3.53,6.65,7.88Z"/>
            <path class="cls-4" d="M82.83,3.46s10.46-6.65,22.17,0"/>
            <path class="cls-4" d="M82.83,7.76s10.46-11.71,22.17,0"/>
            <polyline class="cls-4" points="85.58 2.39 86.57 4.05 87.8 1.79 89.55 2.62 93.55 1.08 98.04 2.47 100.27 1.81 100.97 3.83 102.79 2.56"/>
          </g>
        </g>
        <g>
          <g>
            <path class="cls-4" d="M85.42,63.97v-11.47s17,0,17,0v11.47c0,4.35-2.98,7.88-6.65,7.88h-3.69c-3.67,0-6.65-3.53-6.65-7.88Z"/>
            <path class="cls-4" d="M105,71.71s-10.46,6.65-22.17,0"/>
            <path class="cls-4" d="M105,67.41s-10.46,11.71-22.17,0"/>
            <polyline class="cls-4" points="102.25 72.78 101.26 71.12 100.03 73.38 98.28 72.55 94.29 74.09 89.79 72.7 87.56 73.35 86.86 71.34 85.04 72.61"/>
          </g>
          <g>
            <path class="cls-4" d="M59.55,63.97v-11.47s17,0,17,0v11.47c0,4.35-2.98,7.88-6.65,7.88h-3.69c-3.67,0-6.65-3.53-6.65-7.88Z"/>
            <path class="cls-4" d="M79.14,71.71s-10.46,6.65-22.17,0"/>
            <path class="cls-4" d="M79.14,67.41s-10.46,11.71-22.17,0"/>
            <polyline class="cls-4" points="76.39 72.78 75.4 71.12 74.16 73.38 72.42 72.55 68.42 74.09 63.92 72.7 61.69 73.35 61 71.34 59.17 72.61"/>
          </g>
          <g>
            <path class="cls-4" d="M32.95,63.97v-11.47s17,0,17,0v11.47c0,4.35-2.98,7.88-6.65,7.88h-3.69c-3.67,0-6.65-3.53-6.65-7.88Z"/>
            <path class="cls-4" d="M52.53,71.71s-10.46,6.65-22.17,0"/>
            <path class="cls-4" d="M52.53,67.41s-10.46,11.71-22.17,0"/>
            <polyline class="cls-4" points="49.78 72.78 48.79 71.12 47.56 73.38 45.81 72.55 41.82 74.09 37.32 72.7 35.09 73.35 34.39 71.34 32.57 72.61"/>
          </g>
          <g>
            <path class="cls-4" d="M7.09,63.97v-11.47s17,0,17,0v11.47c0,4.35-2.98,7.88-6.65,7.88h-3.69c-3.67,0-6.65-3.53-6.65-7.88Z"/>
            <path class="cls-4" d="M26.67,71.71s-10.46,6.65-22.17,0"/>
            <path class="cls-4" d="M26.67,67.41s-10.46,11.71-22.17,0"/>
            <polyline class="cls-4" points="23.92 72.78 22.93 71.12 21.7 73.38 19.95 72.55 15.95 74.09 11.46 72.7 9.23 73.35 8.53 71.34 6.71 72.61"/>
          </g>
        </g>
        <rect class="cls-8" y="21.67" width="110" height="32"/>
      </g>
    </symbol>
  </defs>
  <rect class="cls-6" x="17.5" y="284.5" width="57" height="84" rx="1.28" ry="1.28" transform="translate(-280.5 372.5) rotate(-90)"/>
  <rect class="cls-6" x="17.5" y="361.5" width="57" height="84" rx="1.28" ry="1.28" transform="translate(-357.5 449.5) rotate(-90)"/>
  <rect class="cls-6" x="17.5" y="438.5" width="57" height="84" rx="1.28" ry="1.28" transform="translate(-434.5 526.5) rotate(-90)"/>
  <rect class="cls-6" x="17.5" y="515.5" width="57" height="84" rx="1.28" ry="1.28" transform="translate(-511.5 603.5) rotate(-90)"/>
  <rect class="cls-6" x="17.5" y="592.5" width="57" height="84" rx="1.28" ry="1.28" transform="translate(-588.5 680.5) rotate(-90)"/>
  <use width="110" height="75.17" transform="translate(327.25 114.42)" xlink:href="#_桌椅"/>
  <g>
    <polyline class="cls-5" points="343.5 348.67 382.46 348.67 382.46 368.12 415.17 368.12 414.68 383.73 449.05 383.73 449.05 401.59 486.44 401.59 486.44 421.27 522.66 421.27 522.66 437.8 557.71 437.8 557.71 458 592.76 458 819.17 457.7"/>
    <polyline class="cls-5" points="417.74 301 456.69 301 456.69 320.45 489.41 320.45 488.92 336.07 523.29 336.07 523.29 353.92 560.68 353.92 560.68 373.6 596.9 373.6 596.9 390.13 631.95 390.13 631.95 410.33 667 410.33 894.1 410.03"/>
    <line class="cls-5" x1="453.64" y1="301" x2="382.46" y2="348.67"/>
    <line class="cls-5" x1="456.69" y1="320.72" x2="385.51" y2="368.39"/>
    <line class="cls-5" x1="486.18" y1="320.72" x2="415" y2="368.39"/>
    <line class="cls-5" x1="489.23" y1="336.61" x2="418.05" y2="384.28"/>
    <line class="cls-5" x1="521.77" y1="336.61" x2="450.59" y2="384.28"/>
    <line class="cls-5" x1="524.83" y1="353.6" x2="453.64" y2="401.27"/>
    <line class="cls-5" x1="557.37" y1="353.6" x2="486.18" y2="401.27"/>
    <line class="cls-5" x1="560.42" y1="372.23" x2="489.23" y2="419.9"/>
    <line class="cls-5" x1="592.96" y1="373.87" x2="521.77" y2="421.54"/>
    <line class="cls-5" x1="596.01" y1="389.21" x2="524.83" y2="436.88"/>
    <line class="cls-5" x1="628.55" y1="390.86" x2="557.37" y2="438.53"/>
    <line class="cls-5" x1="633.64" y1="410.03" x2="562.45" y2="457.7"/>
  </g>
  <g>
    <polyline class="cls-5" points="815.5 457.67 854.46 457.67 854.46 477.12 887.17 477.12 886.68 492.73 921.05 492.73 921.05 510.59 958.44 510.59 958.44 530.27 994.66 530.27 994.66 546.8 1029.71 546.8 1029.71 567 1064.76 567"/>
    <polyline class="cls-5" points="889.74 410 928.69 410 928.69 429.45 961.41 429.45 960.92 445.07 995.29 445.07 995.29 462.92 1032.68 462.92 1032.68 482.6 1068.9 482.6 1068.9 499.13 1103.95 499.13 1103.95 519.33 1139 519.33"/>
    <line class="cls-5" x1="925.64" y1="410" x2="854.46" y2="457.67"/>
    <line class="cls-5" x1="928.69" y1="429.72" x2="857.51" y2="477.39"/>
    <line class="cls-5" x1="958.18" y1="429.72" x2="887" y2="477.39"/>
    <line class="cls-5" x1="961.23" y1="445.61" x2="890.05" y2="493.28"/>
    <line class="cls-5" x1="993.77" y1="445.61" x2="922.59" y2="493.28"/>
    <line class="cls-5" x1="996.83" y1="462.6" x2="925.64" y2="510.27"/>
    <line class="cls-5" x1="1029.37" y1="462.6" x2="958.18" y2="510.27"/>
    <line class="cls-5" x1="1032.42" y1="481.23" x2="961.23" y2="528.9"/>
    <line class="cls-5" x1="1064.96" y1="482.87" x2="993.77" y2="530.54"/>
    <line class="cls-5" x1="1068.01" y1="498.21" x2="996.83" y2="545.88"/>
    <line class="cls-5" x1="1100.55" y1="499.86" x2="1029.37" y2="547.53"/>
    <line class="cls-5" x1="1105.64" y1="519.03" x2="1034.45" y2="566.7"/>
  </g>
  <text class="cls-9" transform="translate(360.3 325.19) scale(1.08 1)"><tspan x="0" y="0">1F </tspan></text>
  <text class="cls-9" transform="translate(734.3 442.19) scale(1.08 1)"><tspan x="0" y="0">GF </tspan></text>
  <text class="cls-9" transform="translate(1121.3 555.19) scale(1.08 1)"><tspan x="0" y="0">BF</tspan></text>
  <rect class="cls-2" x="294" y="895" width="14" height="39"/>
  <polygon class="cls-2" points="301.38 965.84 259.78 924 343.22 924.24 301.38 965.84"/>
  <rect class="cls-3" x="189.5" y="979.5" width="230" height="78"/>
  <g>
    <path class="cls-7" d="M227.98,1013.18c0-1.91.51-3.4,1.54-4.48s2.35-1.62,3.97-1.62c1.06,0,2.02.25,2.87.76s1.5,1.21,1.95,2.12.67,1.93.67,3.08-.24,2.21-.71,3.13c-.47.92-1.14,1.62-2,2.09-.86.47-1.79.71-2.79.71-1.08,0-2.05-.26-2.9-.78s-1.5-1.24-1.94-2.14c-.44-.9-.66-1.86-.66-2.87ZM229.55,1013.2c0,1.38.37,2.48,1.12,3.27.74.8,1.68,1.2,2.8,1.2s2.09-.4,2.83-1.21,1.11-1.95,1.11-3.42c0-.94-.16-1.75-.47-2.45s-.78-1.24-1.39-1.62c-.61-.38-1.29-.58-2.05-.58-1.08,0-2,.37-2.78,1.11-.78.74-1.16,1.97-1.16,3.7Z"/>
    <path class="cls-7" d="M246.21,1018.77v-1.22c-.65.94-1.53,1.41-2.64,1.41-.49,0-.95-.09-1.38-.28-.43-.19-.74-.42-.95-.71-.21-.28-.35-.63-.44-1.05-.06-.28-.09-.72-.09-1.32v-5.16h1.41v4.62c0,.74.03,1.23.09,1.49.09.37.28.66.56.87.29.21.64.32,1.07.32s.82-.11,1.19-.33.63-.51.79-.89c.15-.37.23-.92.23-1.63v-4.46h1.41v8.32h-1.26Z"/>
    <path class="cls-7" d="M252.76,1017.51l.2,1.25c-.4.08-.75.12-1.07.12-.51,0-.91-.08-1.19-.24-.28-.16-.48-.38-.6-.64-.12-.26-.17-.82-.17-1.67v-4.79h-1.03v-1.1h1.03v-2.06l1.4-.85v2.91h1.42v1.1h-1.42v4.87c0,.4.02.66.07.78.05.12.13.21.24.27.11.07.27.1.48.1.16,0,.36-.02.62-.05Z"/>
    <path class="cls-7" d="M259.54,1018.77v-1.05c-.53.83-1.3,1.24-2.33,1.24-.66,0-1.27-.18-1.83-.55-.56-.37-.99-.88-1.29-1.53-.31-.66-.46-1.41-.46-2.26s.14-1.58.42-2.26.69-1.2,1.25-1.56c.55-.36,1.17-.54,1.86-.54.5,0,.95.11,1.34.32.39.21.71.49.96.83v-4.12h1.4v11.49h-1.31ZM255.08,1014.62c0,1.07.22,1.86.67,2.39.45.53.98.79,1.59.79s1.14-.25,1.57-.76c.43-.5.65-1.27.65-2.31,0-1.14-.22-1.98-.66-2.51-.44-.53-.98-.8-1.62-.8s-1.15.26-1.57.77c-.42.51-.63,1.32-.63,2.42Z"/>
    <path class="cls-7" d="M262.54,1014.61c0-1.54.43-2.68,1.29-3.42.72-.62,1.59-.92,2.62-.92,1.14,0,2.08.38,2.81,1.12.73.75,1.09,1.79,1.09,3.11,0,1.07-.16,1.91-.48,2.53-.32.61-.79,1.09-1.4,1.43-.61.34-1.28.51-2.01.51-1.17,0-2.11-.37-2.83-1.12-.72-.75-1.08-1.82-1.08-3.23ZM263.99,1014.61c0,1.07.23,1.86.7,2.39.46.53,1.05.8,1.76.8s1.28-.27,1.75-.8c.46-.53.7-1.35.7-2.44,0-1.03-.23-1.81-.7-2.34-.47-.53-1.05-.79-1.74-.79s-1.29.26-1.76.79c-.47.53-.7,1.33-.7,2.39Z"/>
    <path class="cls-7" d="M271.47,1014.61c0-1.54.43-2.68,1.29-3.42.72-.62,1.59-.92,2.62-.92,1.14,0,2.08.38,2.81,1.12.73.75,1.09,1.79,1.09,3.11,0,1.07-.16,1.91-.48,2.53-.32.61-.79,1.09-1.4,1.43-.61.34-1.28.51-2.01.51-1.17,0-2.11-.37-2.83-1.12-.72-.75-1.08-1.82-1.08-3.23ZM272.92,1014.61c0,1.07.23,1.86.7,2.39.46.53,1.05.8,1.76.8s1.28-.27,1.75-.8c.46-.53.7-1.35.7-2.44,0-1.03-.23-1.81-.7-2.34-.47-.53-1.05-.79-1.74-.79s-1.29.26-1.76.79c-.47.53-.7,1.33-.7,2.39Z"/>
    <path class="cls-7" d="M280.9,1018.77v-8.32h1.27v1.26c.32-.59.62-.98.9-1.17.27-.19.58-.28.91-.28.48,0,.96.15,1.45.45l-.49,1.31c-.34-.2-.69-.31-1.03-.31-.31,0-.59.09-.83.28s-.42.44-.52.77c-.16.5-.24,1.05-.24,1.65v4.36h-1.41Z"/>
    <path class="cls-7" d="M290.39,1015.08l1.43-.13c.07.58.23,1.05.47,1.42s.63.67,1.16.89,1.11.34,1.76.34c.58,0,1.09-.09,1.54-.26.44-.17.77-.41.99-.71s.33-.63.33-.98-.1-.68-.31-.94c-.21-.27-.55-.5-1.03-.68-.31-.12-.99-.31-2.05-.56-1.06-.25-1.79-.49-2.22-.72-.55-.29-.96-.64-1.23-1.07s-.4-.9-.4-1.43c0-.58.16-1.12.49-1.63.33-.5.81-.89,1.44-1.15.63-.26,1.33-.39,2.11-.39.85,0,1.6.14,2.25.41s1.15.68,1.5,1.21.54,1.14.56,1.81l-1.46.11c-.08-.73-.34-1.27-.8-1.65-.45-.37-1.12-.56-2-.56s-1.59.17-2.01.51c-.42.34-.63.74-.63,1.22,0,.41.15.75.45,1.02.29.27,1.06.54,2.29.82,1.24.28,2.08.52,2.54.73.67.31,1.16.7,1.48,1.17s.48,1.02.48,1.63-.18,1.19-.52,1.73c-.35.54-.85.96-1.51,1.26-.66.3-1.39.45-2.21.45-1.04,0-1.91-.15-2.61-.46-.7-.3-1.25-.76-1.65-1.37-.4-.61-.61-1.3-.63-2.07Z"/>
    <path class="cls-7" d="M301.43,1021.96v-11.51h1.29v1.08c.3-.42.65-.74,1.03-.95s.84-.32,1.39-.32c.71,0,1.34.18,1.88.55.54.37.95.88,1.23,1.55s.42,1.4.42,2.19c0,.85-.15,1.62-.46,2.3-.31.68-.75,1.2-1.33,1.57-.58.36-1.2.54-1.84.54-.47,0-.89-.1-1.27-.3-.37-.2-.68-.45-.92-.75v4.05h-1.41ZM302.71,1014.66c0,1.07.22,1.86.65,2.38.43.51.96.77,1.58.77s1.16-.27,1.61-.8.67-1.35.67-2.46-.22-1.85-.65-2.38c-.44-.53-.96-.79-1.56-.79s-1.13.28-1.59.84c-.46.56-.69,1.38-.69,2.45Z"/>
    <path class="cls-7" d="M309.83,1014.61c0-1.54.43-2.68,1.29-3.42.72-.62,1.59-.92,2.62-.92,1.14,0,2.08.38,2.81,1.12.73.75,1.09,1.79,1.09,3.11,0,1.07-.16,1.91-.48,2.53-.32.61-.79,1.09-1.4,1.43-.61.34-1.28.51-2.01.51-1.17,0-2.11-.37-2.83-1.12-.72-.75-1.08-1.82-1.08-3.23ZM311.28,1014.61c0,1.07.23,1.86.7,2.39.46.53,1.05.8,1.76.8s1.28-.27,1.75-.8c.46-.53.7-1.35.7-2.44,0-1.03-.23-1.81-.7-2.34-.47-.53-1.05-.79-1.74-.79s-1.29.26-1.76.79c-.47.53-.7,1.33-.7,2.39Z"/>
    <path class="cls-7" d="M319.27,1018.77v-8.32h1.27v1.26c.32-.59.62-.98.9-1.17.27-.19.58-.28.91-.28.48,0,.96.15,1.45.45l-.49,1.31c-.34-.2-.69-.31-1.03-.31-.31,0-.59.09-.83.28s-.42.44-.52.77c-.16.5-.24,1.05-.24,1.65v4.36h-1.41Z"/>
    <path class="cls-7" d="M327.71,1017.51l.2,1.25c-.4.08-.75.12-1.07.12-.51,0-.91-.08-1.19-.24-.28-.16-.48-.38-.6-.64-.12-.26-.17-.82-.17-1.67v-4.79h-1.03v-1.1h1.03v-2.06l1.4-.85v2.91h1.42v1.1h-1.42v4.87c0,.4.02.66.07.78.05.12.13.21.24.27.11.07.27.1.48.1.16,0,.36-.02.62-.05Z"/>
    <path class="cls-7" d="M328.52,1016.29l1.4-.22c.08.56.3.99.65,1.29s.86.45,1.5.45,1.13-.13,1.44-.4c.31-.26.47-.57.47-.93,0-.32-.14-.57-.42-.75-.19-.12-.67-.29-1.44-.48-1.03-.26-1.75-.49-2.15-.68-.4-.19-.7-.45-.91-.79-.21-.34-.31-.71-.31-1.12,0-.37.08-.71.25-1.03.17-.32.4-.58.69-.79.22-.16.52-.3.9-.41.38-.11.79-.17,1.22-.17.65,0,1.23.09,1.72.28.49.19.86.44,1.09.76.23.32.4.75.49,1.29l-1.38.19c-.06-.43-.24-.76-.54-1s-.73-.36-1.27-.36c-.65,0-1.11.11-1.39.32-.28.21-.42.46-.42.75,0,.18.06.35.17.49.11.15.29.28.54.38.14.05.56.17,1.25.36,1,.27,1.69.49,2.09.66.39.17.7.42.93.74.22.32.34.73.34,1.21s-.14.91-.41,1.33c-.27.42-.67.74-1.19.96-.52.23-1.1.34-1.76.34-1.08,0-1.91-.22-2.47-.67-.57-.45-.93-1.12-1.09-2Z"/>
    <path class="cls-7" d="M341.83,1018.77v-11.49h7.75v1.36h-6.23v3.56h5.39v1.36h-5.39v5.22h-1.52Z"/>
    <path class="cls-7" d="M351.39,1008.91v-1.62h1.41v1.62h-1.41ZM351.39,1018.77v-8.32h1.41v8.32h-1.41Z"/>
    <path class="cls-7" d="M360.64,1016.09l1.46.18c-.23.85-.66,1.51-1.28,1.98-.62.47-1.42.71-2.38.71-1.22,0-2.18-.38-2.9-1.12s-1.07-1.8-1.07-3.15.36-2.49,1.08-3.26,1.66-1.16,2.81-1.16,2.02.38,2.73,1.14c.71.76,1.06,1.82,1.06,3.2,0,.08,0,.21,0,.38h-6.21c.05.92.31,1.62.78,2.1.46.49,1.04.73,1.74.73.52,0,.96-.14,1.32-.41.37-.27.66-.71.87-1.3ZM356.01,1013.81h4.65c-.06-.7-.24-1.23-.53-1.58-.45-.54-1.03-.81-1.75-.81-.65,0-1.19.22-1.63.65-.44.43-.69,1.01-.73,1.74Z"/>
    <path class="cls-7" d="M363.84,1018.77v-11.49h1.41v11.49h-1.41Z"/>
    <path class="cls-7" d="M372.84,1018.77v-1.05c-.53.83-1.3,1.24-2.33,1.24-.66,0-1.27-.18-1.83-.55-.56-.37-.99-.88-1.29-1.53-.31-.66-.46-1.41-.46-2.26s.14-1.58.42-2.26.69-1.2,1.25-1.56c.55-.36,1.17-.54,1.86-.54.5,0,.95.11,1.34.32.39.21.71.49.96.83v-4.12h1.4v11.49h-1.31ZM368.38,1014.62c0,1.07.22,1.86.67,2.39.45.53.98.79,1.59.79s1.14-.25,1.57-.76c.43-.5.65-1.27.65-2.31,0-1.14-.22-1.98-.66-2.51-.44-.53-.98-.8-1.62-.8s-1.15.26-1.57.77c-.42.51-.63,1.32-.63,2.42Z"/>
    <path class="cls-7" d="M276.04,1038.6c.06.06.1.11.1.14,0,.05-.05.08-.14.08h-12.57c-.34,0-.82.06-1.08.16l-.45-.58c.39.03.8.06,1.17.06h5.75v-2.62h-3.45c-.32,0-.79.06-1.03.16l-.43-.58c.37.03.77.06,1.12.06h3.79v-.95c0-.63-.02-1.03-.05-1.59l1.14.61c.1.05.13.1.13.13,0,.05-.03.08-.11.13l-.38.22v1.45h2.97l.66-.88,1.01.98c.1.1.13.14.13.19s-.05.06-.18.06h-4.59v2.62h4.62l.67-.96,1.2,1.09ZM276.12,1027.46s.06.1.06.13c0,.06-.05.11-.18.13-.63.06-1.01.22-1.73,1l-.19-.14.63-1.16h-10.72c-.13,1.28-.61,2.07-1.33,2.07-.34,0-.53-.21-.53-.39,0-.19.16-.4.48-.63.5-.35.9-.83,1.16-2.12h.24c.02.26.02.48,0,.71h10.58l.51-.59,1.03,1ZM271.13,1030.54c2.17.83,3.55,1.85,3.55,2.66,0,.34-.21.58-.37.58-.19,0-.35-.14-.47-.37-.11-.24-.29-.5-.53-.79l-6.44.4c-1.19.08-1.89.23-2.02.29-.1.05-.16.06-.21.06-.06,0-.1-.03-.14-.11l-.51-.85c.59-.02,1.2-.16,1.48-.35.9-.66,1.75-1.52,2.42-2.41h-2.57c-.32,0-.79.06-1.03.16l-.43-.58c.37.03.77.06,1.12.06h7.71l.69-.9.95,1c.08.08.11.14.11.19s-.05.06-.18.06h-5.22c-1.24,1.11-2.41,2.04-3.55,2.81l7.56-.13c-.48-.53-1.16-1.08-2.04-1.62l.11-.18ZM267.82,1024.75c1.64.55,2.07.96,2.07,1.46,0,.42-.32.82-.51.82-.26,0-.35-.06-.45-.45-.11-.43-.48-1.08-1.2-1.67l.1-.16Z"/>
    <path class="cls-7" d="M286.22,1027.96c.06.05.1.1.1.13,0,.05-.05.1-.14.14-.48.26-.63.4-.67.63-.35,1.51-1.14,3.69-2.04,5.23-.83,1.43-2.76,3.71-5.28,5.12l-.11-.18c2.34-1.78,3.8-3.47,4.99-5.62.79-1.43,1.46-3.47,1.73-5.25h-3.26c-.83,1.93-1.8,3.76-2.97,5.36l-.16-.13c1.59-2.94,2.54-5.31,3.58-8.97l1.16.69s.08.05.08.08-.05.06-.16.1c-.3.1-.51.34-.69.8-.23.58-.45,1.16-.69,1.73h3.02l.45-.72,1.08.85ZM280.86,1030.15c.87.42,2.17,1.04,2.17,2.02,0,.39-.23.69-.47.69-.14,0-.3-.11-.35-.35-.11-.59-.58-1.35-1.46-2.21l.11-.14ZM288.3,1029.32c1.89.77,4.27,2.2,4.27,3.36,0,.37-.21.67-.43.67-.1,0-.22-.11-.32-.29-.69-1.24-1.89-2.58-3.52-3.43v5.75c0,1.22.02,2.42.06,3.15v.11c0,.22-.06.29-.4.43-.14.06-.26.1-.34.1-.11,0-.14-.1-.14-.37v-.14c.03-.95.05-2.39.05-3.31v-8.68c0-.95-.03-1.83-.06-2.42l1.25.71c.1.06.14.1.14.14s-.05.08-.13.13l-.43.24v3.87Z"/>
    <path class="cls-7" d="M308.87,1037.78c-.74.1-1.3.43-1.44.83-.05.13-.1.14-.26.14-4.83-.08-6.63-.13-7.29-.21-1.41-.18-2.46-1.28-2.83-2.02-.11-.21-.21-.34-.32-.34-.45,0-1.69,2.09-1.85,2.54-.03.08-.05.13-.1.13-.03,0-.06-.02-.11-.05l-.8-.51,2.46-2.28v-5.15h-1.27c-.31,0-.74.06-.98.16l-.4-.55c.35.03.72.06,1.06.06h1.25l.56-.83,1.11.82c.08.06.13.11.13.14,0,.05-.05.08-.14.14l-.58.32v4.49c0,.55,1.2,2.26,2.99,2.3.51.02,1.03.02,1.51.02,2.31,0,4.38-.1,7.3-.37v.21ZM295,1025.1c1.36.63,2.41,1.57,2.49,2.07.02.08.02.18.02.26,0,.45-.19.79-.42.79-.26,0-.34-.1-.51-.67-.16-.53-.8-1.57-1.65-2.26l.08-.18ZM308.58,1029.38c.11.1.18.18.18.22,0,.06-.08.08-.24.08h-5.06c-1,1.86-2.49,4.24-3.11,4.94l5.94-.32c-.4-.9-1.04-1.91-1.77-2.75l.14-.16c.66.53,2.92,2.42,2.92,3.66,0,.5-.27.88-.61.88-.16,0-.24-.16-.35-.66-.05-.22-.13-.48-.24-.75l-3.84.5c-1.7.22-2.13.37-2.42.58-.06.05-.11.08-.16.08s-.1-.05-.18-.14l-.64-.85c.67-.08.98-.27,1.27-.72.69-1.06,1.57-2.74,2.02-4.29h-2.66c-.31,0-.74.06-.98.16l-.4-.58c.35.03.72.06,1.06.06h7.35l.69-.95,1.09,1ZM307.29,1025.79c.1.1.14.16.14.21,0,.08-.08.11-.21.11h-6c-.31,0-.74.06-.98.16l-.4-.58c.35.03.72.06,1.06.06h4.67l.67-.92,1.04.95Z"/>
    <path class="cls-7" d="M317.63,1030.04c.06.06.1.13.1.16,0,.05-.05.06-.16.06h-3.82l.74.53c.08.05.11.1.11.14s-.05.08-.13.11c-.4.14-.48.19-.63.46-.77,1.38-1.46,2.57-2.28,3.8l4.54-.48c-.19-.82-.63-1.72-1.35-2.7l.18-.16c1.43,1.43,2.3,2.41,2.3,3.16,0,.51-.31.95-.64.95-.18,0-.27-.13-.35-.64-.02-.11-.03-.23-.06-.34l-1.97.4c-1.69.34-2.52.61-2.91.93-.03.02-.05.03-.08.03-.05,0-.1-.02-.14-.08l-.8-.93c.61-.18,1.11-.53,1.32-.93.61-1.12,1.32-2.7,1.78-4.27h-1.85c-.32,0-.79.06-1.03.16l-.43-.58c.37.03.77.06,1.12.06h4.83l.67-.92.95,1.04ZM317.13,1026.66c.08.08.13.14.13.18,0,.05-.06.06-.16.06h-4.91c-.32,0-.79.06-1.03.16l-.43-.58c.37.03.77.06,1.12.06h3.68l.64-.85.96.96ZM324.45,1028.6c.08.06.13.11.13.16s-.05.1-.14.16l-.58.37c-.05,2.38-.21,5.57-.4,7.29-.11.98-.47,1.61-1.75,2.23-.06.03-.11.05-.16.05-.08,0-.14-.06-.19-.22-.13-.38-.56-.72-1.94-1.11l.05-.26c.8.21,1.41.3,1.86.3.95,0,1.24-.43,1.38-1.24.22-1.3.38-5.22.38-7.35h-2.86c-.31,5.67-.93,8.09-6.23,10.48l-.13-.27c4.64-2.5,5.35-4.46,5.55-10.21h-.85c-.34,0-.8.06-1.08.18l-.45-.59c.4.03.8.06,1.17.06h1.2c.03-1.2.06-2.58.05-4.21l1.38.58c.1.05.16.08.16.13,0,.03-.05.08-.13.13l-.55.34c0,.93-.05,2.12-.11,3.03h2.47l.61-.85,1.14.82Z"/>
    <path class="cls-7" d="M332.38,1029.03c.11.1.18.18.18.24s-.08.1-.24.1h-2.84v4.91l2.79-1,.1.27-4.03,1.77c-.93.4-1.25.67-1.4.88-.05.06-.08.08-.13.08s-.1-.02-.13-.06l-.64-.71,2.68-.96v-5.18h-1.32c-.31,0-.74.06-.98.16l-.4-.56c.35.03.72.06,1.06.06h1.64v-2.36c0-.63-.03-1.65-.06-2.21l1.19.61c.13.06.19.11.19.16,0,.06-.05.1-.56.42v3.39h1.46l.56-.77.88.77ZM340.58,1030.92c.06.05.1.1.1.13,0,.05-.03.1-.1.14l-.48.34c-.22,2.28-.51,4.32-.77,5.55-.26,1.16-.82,1.67-1.7,2.01-.05.03-.1.03-.14.03s-.1-.03-.11-.1c-.13-.51-.4-.75-1.78-1.12l.05-.23c.83.16,1.4.24,1.81.24.77,0,.93-.3,1.12-1.03.29-1.01.67-3.42.75-5.7h-1.56c-.79,4.3-2.58,6.65-6.97,8.14l-.1-.26c4.29-1.93,5.75-4.35,6.32-7.88h-1.8c-1.01,3.45-2.57,5.01-5.83,6.5l-.14-.22c2.81-1.54,4.59-3.58,5.14-6.28h-1.27l-.51.37c-.08.05-.14.08-.21.08-.05,0-.1-.02-.16-.08l-.72-.66c.74-.18,1.3-.48,1.69-.85l4.01-3.82h-4.45c-.31,0-.74.06-.98.16l-.4-.58c.35.03.72.06,1.06.06h4.74l.67-.58.87.96s.06.1.06.13c0,.05-.05.08-.14.1-.77.16-.85.21-1.2.53l-4.11,3.82h5.7l.58-.69.96.77Z"/>
  </g>
  <g>
    <rect class="cls-1" x="1558" y="-18" width="7" height="44" transform="translate(1565.5 -1557.5) rotate(90)"/>
    <rect class="cls-1" x="1558" y="101" width="7" height="44" transform="translate(1684.5 -1438.5) rotate(90)"/>
    <rect class="cls-1" x="1518" y="56" width="88" height="15" transform="translate(1625.5 -1498.5) rotate(90)"/>
  </g>
  <text class="cls-10" transform="translate(1474.92 61.9) scale(1.22 1)"><tspan x="0" y="0">Main Entrance</tspan></text>
  <use width="110" height="75.17" transform="translate(329 208)" xlink:href="#_桌椅"/>
  <use width="110" height="75.17" transform="translate(486.25 115.42)" xlink:href="#_桌椅"/>
  <use width="110" height="75.17" transform="translate(488 209)" xlink:href="#_桌椅"/>
  <use width="110" height="75.17" transform="translate(643.25 114.42)" xlink:href="#_桌椅"/>
  <use width="110" height="75.17" transform="translate(645 208)" xlink:href="#_桌椅"/>
  <use width="110" height="75.17" transform="translate(327.25 530.42)" xlink:href="#_桌椅"/>
  <use width="110" height="75.17" transform="translate(329 624)" xlink:href="#_桌椅"/>
  <use width="110" height="75.17" transform="translate(486.25 531.42)" xlink:href="#_桌椅"/>
  <use width="110" height="75.17" transform="translate(488 625)" xlink:href="#_桌椅"/>
  <use width="110" height="75.17" transform="translate(643.25 530.42)" xlink:href="#_桌椅"/>
  <use width="110" height="75.17" transform="translate(645 624)" xlink:href="#_桌椅"/>
  <use width="110" height="75.17" transform="translate(328 718)" xlink:href="#_桌椅"/>
  <use width="110" height="75.17" transform="translate(487 719)" xlink:href="#_桌椅"/>
  <use width="110" height="75.17" transform="translate(644 718)" xlink:href="#_桌椅"/>
</svg>