<?xml version="1.0" encoding="UTF-8"?>
<svg id="_图层_1" data-name=" 图层 1" xmlns="http://www.w3.org/2000/svg" version="1.1" xmlns:xlink="http://www.w3.org/1999/xlink" viewBox="0 0 1584 1705.1">
  <defs>
    <style>
      .cls-1, .cls-2 {
        fill: #545454;
      }

      .cls-1, .cls-3, .cls-4, .cls-5, .cls-6, .cls-7 {
        stroke-miterlimit: 10;
      }

      .cls-1, .cls-5, .cls-6 {
        stroke: #545454;
      }

      .cls-2, .cls-8, .cls-9 {
        stroke-width: 0px;
      }

      .cls-8 {
        fill: #000;
      }

      .cls-3 {
        fill: #dc8a78;
        stroke: #fff;
      }

      .cls-10 {
        font-size: 9px;
      }

      .cls-10, .cls-11, .cls-12 {
        isolation: isolate;
      }

      .cls-10, .cls-12 {
        fill: #fff;
        font-family: ArialMT, Arial;
      }

      .cls-4 {
        stroke: #a0a1a6;
      }

      .cls-4, .cls-5, .cls-6, .cls-7 {
        fill: none;
      }

      .cls-9 {
        fill: #a0a1a6;
      }

      .cls-5 {
        stroke-width: 3px;
      }

      .cls-7 {
        stroke: #8f0004;
        stroke-width: 8px;
      }

      .cls-12 {
        font-size: 32.3px;
      }
    </style>
    <symbol id="_桌椅" data-name=" 桌椅" viewBox="0 0 110 75.2">
      <g>
        <g>
          <g>
            <path class="cls-4" d="M24.1,64v-11.5H7.1v11.5c0,4.3,3,7.9,6.6,7.9h3.7c3.7,0,6.6-3.5,6.6-7.9,0,0,.1,0,.1,0Z"/>
            <path class="cls-4" d="M4.5,71.7s10.5,6.7,22.2,0"/>
            <path class="cls-4" d="M4.5,67.4s10.5,11.7,22.2,0"/>
            <polyline class="cls-4" points="7.2 72.8 8.2 71.1 9.5 73.4 11.2 72.5 15.2 74.1 19.7 72.7 21.9 73.4 22.6 71.3 24.5 72.6"/>
          </g>
          <g>
            <path class="cls-4" d="M50,64v-11.5h-17v11.5c0,4.3,3,7.9,6.7,7.9h3.7c3.7,0,6.7-3.5,6.7-7.9,0,0,0,0-.1,0Z"/>
            <path class="cls-4" d="M30.4,71.7s10.5,6.7,22.2,0"/>
            <path class="cls-4" d="M30.4,67.4s10.5,11.7,22.2,0"/>
            <polyline class="cls-4" points="33.1 72.8 34.1 71.1 35.3 73.4 37.1 72.5 41.1 74.1 45.6 72.7 47.8 73.4 48.5 71.3 50.3 72.6"/>
          </g>
          <g>
            <path class="cls-4" d="M76.6,64v-11.5h-17v11.5c0,4.3,3,7.9,6.7,7.9h3.7c3.7,0,6.7-3.5,6.7-7.9h0Z"/>
            <path class="cls-4" d="M57,71.7s10.5,6.7,22.2,0"/>
            <path class="cls-4" d="M57,67.4s10.5,11.7,22.2,0"/>
            <polyline class="cls-4" points="59.7 72.8 60.7 71.1 61.9 73.4 63.7 72.5 67.7 74.1 72.2 72.7 74.4 73.4 75.1 71.3 76.9 72.6"/>
          </g>
          <g>
            <path class="cls-4" d="M102.4,64v-11.5h-17v11.5c0,4.3,3,7.9,6.7,7.9h3.7c3.7,0,6.7-3.5,6.7-7.9h0Z"/>
            <path class="cls-4" d="M82.8,71.7s10.5,6.7,22.2,0"/>
            <path class="cls-4" d="M82.8,67.4s10.5,11.7,22.2,0"/>
            <polyline class="cls-4" points="85.6 72.8 86.6 71.1 87.8 73.4 89.6 72.5 93.6 74.1 98 72.7 100.3 73.4 101 71.3 102.8 72.6"/>
          </g>
        </g>
        <g>
          <g>
            <path class="cls-4" d="M85.4,11.2v11.5h17v-11.5c0-4.3-3-7.9-6.7-7.9h-3.7c-3.7,0-6.7,3.5-6.7,7.9h0Z"/>
            <path class="cls-4" d="M105,3.5s-10.5-6.7-22.2,0"/>
            <path class="cls-4" d="M105,7.8s-10.5-11.7-22.2,0"/>
            <polyline class="cls-4" points="102.2 2.4 101.3 4 100 1.8 98.3 2.6 94.3 1.1 89.8 2.5 87.6 1.8 86.9 3.8 85 2.6"/>
          </g>
          <g>
            <path class="cls-4" d="M59.5,11.2v11.5h17v-11.5c0-4.3-3-7.9-6.7-7.9h-3.7c-3.7,0-6.7,3.5-6.7,7.9h0Z"/>
            <path class="cls-4" d="M79.1,3.5s-10.5-6.7-22.2,0"/>
            <path class="cls-4" d="M79.1,7.8s-10.5-11.7-22.2,0"/>
            <polyline class="cls-4" points="76.4 2.4 75.4 4 74.2 1.8 72.4 2.6 68.4 1.1 63.9 2.5 61.7 1.8 61 3.8 59.2 2.6"/>
          </g>
          <g>
            <path class="cls-4" d="M33,11.2v11.5h17v-11.5c0-4.3-3-7.9-6.7-7.9h-3.7c-3.7,0-6.7,3.5-6.7,7.9h.1Z"/>
            <path class="cls-4" d="M52.5,3.5s-10.5-6.7-22.2,0"/>
            <path class="cls-4" d="M52.5,7.8s-10.5-11.7-22.2,0"/>
            <polyline class="cls-4" points="49.8 2.4 48.8 4 47.6 1.8 45.8 2.6 41.8 1.1 37.3 2.5 35.1 1.8 34.4 3.8 32.6 2.6"/>
          </g>
          <g>
            <path class="cls-4" d="M7.1,11.2v11.5h17v-11.5c0-4.3-3-7.9-6.6-7.9h-3.7c-3.7,0-6.7,3.5-6.7,7.9h0Z"/>
            <path class="cls-4" d="M26.7,3.5s-10.5-6.7-22.2,0"/>
            <path class="cls-4" d="M26.7,7.8s-10.5-11.7-22.2,0"/>
            <polyline class="cls-4" points="23.9 2.4 22.9 4 21.7 1.8 20 2.6 15.9 1.1 11.5 2.5 9.2 1.8 8.5 3.8 6.7 2.6"/>
          </g>
        </g>
        <rect class="cls-9" y="21.5" width="110" height="32"/>
      </g>
    </symbol>
  </defs>
  <rect class="cls-7" x="537" y="36.4" width="57" height="84" rx="1.3" ry="1.3"/>
  <rect class="cls-7" x="684" y="36.4" width="57" height="84" rx="1.3" ry="1.3"/>
  <rect class="cls-7" x="831" y="36.4" width="57" height="84" rx="1.3" ry="1.3"/>
  <rect class="cls-7" x="978" y="36.4" width="57" height="84" rx="1.3" ry="1.3"/>
  <rect class="cls-7" x="1125" y="36.4" width="57" height="84" rx="1.3" ry="1.3"/>
  <use width="110" height="75.2" transform="translate(1018.2 302.5) rotate(-.2) scale(1 -1)" xlink:href="#_桌椅"/>
  <rect class="cls-2" x="366.3" y="380.8" width="39" height="14"/>
  <polygon class="cls-2" points="334.5 388.2 376.3 346.6 376 430 334.5 388.2"/>
  <rect class="cls-3" x="144.8" y="280.4" width="187.2" height="230"/>
  <g>
    <path class="cls-8" d="M165.1,385.3c0-1.9.5-3.4,1.5-4.5s2.4-1.6,4-1.6,2,.2,2.9.8,1.5,1.2,1.9,2.1.7,1.9.7,3.1-.2,2.2-.7,3.1-1.1,1.6-2,2.1-1.8.7-2.8.7-2.1-.3-2.9-.8-1.5-1.2-1.9-2.1-.7-1.9-.7-2.9h0ZM166.7,385.3c0,1.4.4,2.5,1.1,3.3.7.8,1.7,1.2,2.8,1.2s2.1-.4,2.8-1.2,1.1-2,1.1-3.4-.2-1.8-.5-2.5-.8-1.2-1.4-1.6-1.3-.6-2.1-.6-2,.4-2.8,1.1-1.2,2-1.2,3.7h.2,0Z"/>
    <path class="cls-8" d="M183.3,390.9v-1.2c-.6.9-1.5,1.4-2.6,1.4s-.9,0-1.4-.3c-.4-.2-.7-.4-.9-.7s-.4-.6-.4-1v-6.5h1.4v6.1c0,.4.3.7.6.9s.6.3,1.1.3.8,0,1.2-.3.6-.5.8-.9c.1-.4.2-.9.2-1.6v-4.5h1.4v8.3h-1.4Z"/>
    <path class="cls-8" d="M189.9,389.6l.2,1.2h-1.1c-.5,0-.9,0-1.2-.2s-.5-.4-.6-.6c0-.3-.2-.8-.2-1.7v-4.8h-1v-1.1h1v-2.1l1.4-.8v2.9h1.4v1.1h-1.4v5.7c0,0,0,.2.2.3h1.3Z"/>
    <path class="cls-8" d="M196.6,390.9v-1c-.5.8-1.3,1.2-2.3,1.2s-1.3-.2-1.8-.5-1-.9-1.3-1.5c-.3-.7-.5-1.4-.5-2.3s.1-1.6.4-2.3.7-1.2,1.2-1.6c.6-.4,1.2-.5,1.9-.5s1,.1,1.3.3c.4.2.7.5,1,.8v-4.1h1.4v11.5h-1.3,0ZM192.2,386.7c0,1.1.2,1.9.7,2.4s1,.8,1.6.8,1.1-.2,1.6-.8c.4-.5.6-1.3.6-2.3s-.2-2-.7-2.5-1-.8-1.6-.8-1.1.3-1.6.8c-.4.5-.6,1.3-.6,2.4h0Z"/>
    <path class="cls-8" d="M199.6,386.7c0-1.5.4-2.7,1.3-3.4.7-.6,1.6-.9,2.6-.9s2.1.4,2.8,1.1c.7.8,1.1,1.8,1.1,3.1s-.2,1.9-.5,2.5-.8,1.1-1.4,1.4c-.6.3-1.3.5-2,.5-1.2,0-2.1-.4-2.8-1.1s-1.1-1.8-1.1-3.2h0ZM201.1,386.7c0,1.1.2,1.9.7,2.4s1,.8,1.8.8,1.3-.3,1.8-.8.7-1.3.7-2.4-.2-1.8-.7-2.3-1-.8-1.7-.8-1.3.3-1.8.8-.7,1.3-.7,2.4h-.1Z"/>
    <path class="cls-8" d="M208.6,386.7c0-1.5.4-2.7,1.3-3.4.7-.6,1.6-.9,2.6-.9s2.1.4,2.8,1.1c.7.8,1.1,1.8,1.1,3.1s-.2,1.9-.5,2.5-.8,1.1-1.4,1.4c-.6.3-1.3.5-2,.5-1.2,0-2.1-.4-2.8-1.1s-1.1-1.8-1.1-3.2h0ZM210,386.7c0,1.1.2,1.9.7,2.4s1,.8,1.8.8,1.3-.3,1.8-.8.7-1.3.7-2.4-.2-1.8-.7-2.3-1-.8-1.7-.8-1.3.3-1.8.8-.7,1.3-.7,2.4h-.1Z"/>
    <path class="cls-8" d="M218,390.9v-8.3h1.3v1.3c.3-.6.6-1,.9-1.2s.6-.3.9-.3c.5,0,1,.2,1.5.5l-.5,1.3c-.3-.2-.7-.3-1-.3s-.6,0-.8.3-.4.4-.5.8c-.2.5-.2,1-.2,1.7v4.4h-1.4l-.2-.2h0Z"/>
    <path class="cls-8" d="M227.5,387.2h1.4c0,.5.2.9.5,1.3s.6.7,1.2.9,1.1.3,1.8.3,1.1,0,1.5-.3c.4-.2.8-.4,1-.7s.3-.6.3-1,0-.7-.3-.9c-.2-.3-.5-.5-1-.7-.3-.1-1-.3-2-.6s-1.8-.5-2.2-.7c-.5-.3-1-.6-1.2-1.1s-.4-.9-.4-1.4.2-1.1.5-1.6.8-.9,1.4-1.2,1.3-.4,2.1-.4,1.6.1,2.2.4,1.1.7,1.5,1.2.5,1.1.6,1.8h-1.5c0-.6-.3-1.2-.8-1.5-.5-.4-1.1-.6-2-.6s-1.6.2-2,.5-.6.7-.6,1.2,0,.8.5,1c.3.3,1.1.5,2.3.8s2.1.5,2.5.7c.7.3,1.2.7,1.5,1.2s.5,1,.5,1.6-.2,1.2-.5,1.7c-.4.5-.9,1-1.5,1.3s-1.4.5-2.2.5-1.9-.2-2.6-.5-1.2-.8-1.6-1.4-.6-1.3-.6-2.1h0l-.3.3h0Z"/>
    <path class="cls-8" d="M238.5,394.1v-11.5h1.3v1.1c.3-.4.6-.7,1-1s.8-.3,1.4-.3,1.3.2,1.9.5,1,.9,1.2,1.5.4,1.4.4,2.2-.1,1.6-.5,2.3-.8,1.2-1.3,1.6c-.6.4-1.2.5-1.8.5s-.9,0-1.3-.3c-.4-.2-.7-.5-.9-.8v4h-1.4v.2h0ZM239.8,386.8c0,1.1.2,1.9.6,2.4s1,.8,1.6.8,1.2-.3,1.6-.8.7-1.3.7-2.5-.2-1.8-.6-2.4c-.4-.5-1-.8-1.6-.8s-1.1.3-1.6.8-.7,1.4-.7,2.5h0Z"/>
    <path class="cls-8" d="M246.9,386.7c0-1.5.4-2.7,1.3-3.4.7-.6,1.6-.9,2.6-.9s2.1.4,2.8,1.1c.7.8,1.1,1.8,1.1,3.1s-.2,1.9-.5,2.5-.8,1.1-1.4,1.4c-.6.3-1.3.5-2,.5-1.2,0-2.1-.4-2.8-1.1s-1.1-1.8-1.1-3.2h0ZM248.4,386.7c0,1.1.2,1.9.7,2.4s1,.8,1.8.8,1.3-.3,1.8-.8.7-1.3.7-2.4-.2-1.8-.7-2.3-1-.8-1.7-.8-1.3.3-1.8.8-.7,1.3-.7,2.4h-.1Z"/>
    <path class="cls-8" d="M256.4,390.9v-8.3h1.3v1.3c.3-.6.6-1,.9-1.2s.6-.3.9-.3c.5,0,1,.2,1.5.5l-.5,1.3c-.3-.2-.7-.3-1-.3s-.6,0-.8.3-.4.4-.5.8c-.2.5-.2,1-.2,1.7v4.4h-1.4l-.2-.2h0Z"/>
    <path class="cls-8" d="M264.8,389.6l.2,1.2h-1.1c-.5,0-.9,0-1.2-.2s-.5-.4-.6-.6-.2-.8-.2-1.7v-4.8h-1v-1.1h1v-2.1l1.4-.8v2.9h1.4v1.1h-1.4v5.7c0,0,0,.2.2.3h1.3Z"/>
    <path class="cls-8" d="M265.6,388.4l1.4-.2c0,.6.3,1,.6,1.3s.9.5,1.5.5,1.1,0,1.4-.4c.3-.3.5-.6.5-.9s0-.6-.4-.8c-.2-.1-.7-.3-1.4-.5-1-.3-1.8-.5-2.1-.7s-.7-.5-.9-.8c-.2-.3-.3-.7-.3-1.1s0-.7.2-1,.4-.6.7-.8c.2-.2.5-.3.9-.4s.8-.2,1.2-.2c.6,0,1.2,0,1.7.3s.9.4,1.1.8.4.8.5,1.3l-1.4.2c0-.4-.2-.8-.5-1s-.7-.4-1.3-.4-1.1,0-1.4.3-.4.5-.4.8,0,.3.2.5c0,.2.3.3.5.4.1,0,.6.2,1.2.4,1,.3,1.7.5,2.1.7s.7.4.9.7c.2.3.3.7.3,1.2s-.1.9-.4,1.3-.7.7-1.2,1c-.5.2-1.1.3-1.8.3-1.1,0-1.9-.2-2.5-.7s-.9-1.1-1.1-2h.2,0Z"/>
    <path class="cls-8" d="M278.9,390.9v-11.5h7.8v1.4h-6.2v3.6h5.4v1.4h-5.4v5.2h-1.6Z"/>
    <path class="cls-8" d="M288.5,381v-1.6h1.4v1.6h-1.4ZM288.5,390.9v-8.3h1.4v8.3h-1.4Z"/>
    <path class="cls-8" d="M297.7,388.2l1.5.2c-.2.8-.7,1.5-1.3,2s-1.4.7-2.4.7-2.2-.4-2.9-1.1-1.1-1.8-1.1-3.2.4-2.5,1.1-3.3,1.7-1.2,2.8-1.2,2,.4,2.7,1.1c.7.8,1.1,1.8,1.1,3.2v.4h-6.2c0,.9.3,1.6.8,2.1s1,.7,1.7.7,1,0,1.3-.4c.4-.3.7-.7.9-1.3h0ZM293.1,385.9h4.6c0-.7-.2-1.2-.5-1.6-.5-.5-1-.8-1.8-.8s-1.2.2-1.6.7c-.4.4-.7,1-.7,1.7h0Z"/>
    <path class="cls-8" d="M300.9,390.9v-11.5h1.4v11.5h-1.4Z"/>
    <path class="cls-8" d="M309.9,390.9v-1c-.5.8-1.3,1.2-2.3,1.2s-1.3-.2-1.8-.5-1-.9-1.3-1.5c-.3-.7-.5-1.4-.5-2.3s.1-1.6.4-2.3.7-1.2,1.2-1.6,1.2-.5,1.9-.5,1,.1,1.3.3c.4.2.7.5,1,.8v-4.1h1.4v11.5h-1.3ZM305.5,386.7c0,1.1.2,1.9.7,2.4s1,.8,1.6.8,1.1-.2,1.6-.8c.4-.5.6-1.3.6-2.3s-.2-2-.7-2.5-1-.8-1.6-.8-1.1.3-1.6.8-.6,1.3-.6,2.4h0Z"/>
    <path class="cls-8" d="M213.1,410.7h0c0,0,0,0-.1,0h-12.6c-.3,0-.8,0-1.1.2l-.5-.6h7v-2.6h-3.5c-.3,0-.8,0-1,.2l-.4-.6h4.9v-2.5l1.1.6c0,0,0,0,0,.1h-.1l-.4.3v1.4h3l.7-.9,1,1c.1,0,0,.1,0,.2s0,0-.2,0h-4.6v2.6h4.6l.7-1,1.2,1.1h0v.4h.3ZM213.2,399.6h0s0,.2-.2.2c-.6,0-1,.2-1.7,1h-.2c0-.1.6-1.3.6-1.3h-10.7c-.1,1.3-.6,2.1-1.3,2.1s-.5-.2-.5-.4.2-.4.5-.6c.5-.3.9-.8,1.2-2.1h.2v.7h10.6l.5-.6,1,1h0ZM208.2,402.6c2.2.8,3.5,1.8,3.5,2.7s-.2.6-.4.6-.4-.1-.5-.4c0-.2-.3-.5-.5-.8l-6.4.4c-1.2,0-1.9.2-2,.3h-.2s-.1,0,0-.1l-.5-.8c.6,0,1.2-.2,1.5-.3.9-.7,1.8-1.5,2.4-2.4h-2.6c-.3,0-.8,0-1,.2l-.4-.6h8.8l.7-.9,1,1v.2c0,.1,0,0-.2,0h-5.2c-1.2,1.1-2.4,2-3.5,2.8h7.6c-.5-.7-1.2-1.2-2-1.8v-.2h.1-.2q0,.1,0,0ZM204.9,396.9c1.6.6,2.1,1,2.1,1.5s-.3.8-.5.8-.4,0-.5-.4-.5-1.1-1.2-1.7v-.2c.1,0,0,0,0,0h.1,0Z"/>
    <path class="cls-8" d="M223.3,400.1s.1,0,0,.1h-.1c-.5.4-.6.5-.7.7-.4,1.5-1.1,3.7-2,5.2-.8,1.4-2.8,3.7-5.3,5.1v-.2c2.2-1.8,3.7-3.5,4.9-5.6.8-1.4,1.5-3.5,1.7-5.2h-3.3c-.8,1.9-1.8,3.8-3,5.4h-.2c1.6-3.1,2.5-5.4,3.6-9.1l1.2.7h-.2c-.3,0-.5.3-.7.8-.2.6-.5,1.2-.7,1.7h3l.5-.7,1.1.8h0v.3h.2ZM218,402.3c.9.4,2.2,1,2.2,2s-.2.7-.5.7-.3-.1-.4-.3c0-.6-.6-1.3-1.5-2.2h.1v-.2h0ZM225.4,401.4c1.9.8,4.3,2.2,4.3,3.4s-.2.7-.4.7-.2-.1-.3-.3c-.7-1.2-1.9-2.6-3.5-3.4v9h0c0,.3,0,.4-.4.5h-.3s-.1,0,0-.4h0v-14.6l1.2.7c0,0,0,0,0,.1h-.1l-.4.2v3.9h-.1v.2Z"/>
    <path class="cls-8" d="M246,409.9c-.7,0-1.3.4-1.4.8h-.3c-4.8,0-6.6-.1-7.3-.2-1.4-.2-2.5-1.3-2.8-2,0-.2-.2-.3-.3-.3-.5,0-1.7,2.1-1.9,2.5h-.2l-.8-.5,2.5-2.3v-5.2h-1.3c-.3,0-.7,0-1,.2l-.4-.6h2.3l.6-.8,1.1.8h0c0,0,0,.1-.1.2l-.6.3v4.5c0,.6,1.2,2.3,3,2.3h1.5c2.3,0,4.4,0,7.3-.4v.2h0v.5ZM232.1,397.2c1.4.6,2.4,1.6,2.5,2.1v.3c0,.4-.2.8-.4.8s-.3,0-.5-.7c-.2-.5-.8-1.6-1.6-2.3v-.2h0ZM245.7,401.5c.1,0,.2.2.2.2h-5.3c-1,1.9-2.5,4.2-3.1,4.9l5.9-.3c-.4-.9-1-1.9-1.8-2.8v-.2c.8.5,3.1,2.4,3.1,3.7s-.3.9-.6.9-.2-.2-.4-.7c0-.2,0-.5-.2-.8l-3.8.5c-1.7.2-2.1.4-2.4.6h-.2c0,0-.1,0-.2-.1l-.6-.8c.7,0,1-.3,1.3-.7.7-1.1,1.6-2.7,2-4.3h-2.7c-.3,0-.7,0-1,.2l-.4-.6h8.5l.7-.9,1.1,1h0v.2h-.1ZM244.4,397.9c.1,0,0,.2,0,.2h-6.2c-.3,0-.7,0-1,.2l-.4-.6h5.8l.7-.9,1,.9h0v.2Z"/>
    <path class="cls-8" d="M254.7,402.1v.2h-4l.7.5s.1,0,0,.1,0,0-.1,0c-.4,0-.5.2-.6.5-.8,1.4-1.5,2.6-2.3,3.8l4.5-.5c-.2-.8-.6-1.7-1.4-2.7l.2-.2c1.4,1.4,2.3,2.4,2.3,3.2s-.3.9-.6.9-.3-.1-.4-.6v-.3l-2,.4c-1.7.3-2.5.6-2.9.9h-.1l-.8-.9c.6-.2,1.1-.5,1.3-.9.6-1.1,1.3-2.7,1.8-4.3h-1.9c-.3,0-.8,0-1,.2l-.4-.6h5.9l.7-.9,1,1h-.1l.2.2ZM254.2,398.8v.2c0,.1,0,0-.2,0h-4.9c-.3,0-.8,0-1,.2l-.4-.6h4.8l.6-.8,1,1h0ZM261.6,400.7v.2c0,.1,0,0-.1.2l-.6.4c0,2.4-.2,5.6-.4,7.3-.1,1-.5,1.6-1.8,2.2h-.2s-.1,0-.2-.2c0-.4-.6-.7-1.9-1.1v-.3c.8.2,1.5.3,1.9.3,1,0,1.2-.4,1.4-1.2.2-1.3.4-5.2.4-7.3h-2.9c-.3,5.7-.9,8.1-6.2,10.5v-.3c4.5-2.5,5.2-4.5,5.4-10.2h-.9c-.3,0-.8,0-1.1.2l-.5-.6h2.4v-4.2l1.4.6c.1,0,.2,0,.2.1s0,0-.1,0l-.5.3c0,.9,0,2.1-.1,3h2.5l.6-.8,1.1.8h.2Z"/>
    <path class="cls-8" d="M269.5,401.1c.1,0,.2.2.2.2h-3v4.9l2.8-1v.3l-3.9,1.8c-.9.4-1.2.7-1.4.9h-.2l-.6-.7,2.7-1v-5.2h-1.3c-.3,0-.7,0-1,.2l-.4-.6h2.7v-4.6l1.2.6c.1,0,.2.1.2.2s0,0-.6.4v3.4h1.5l.6-.8.9.8h0l-.4.2h0ZM277.7,403s.1,0,0,.1h-.1l-.5.4c-.2,2.3-.5,4.3-.8,5.6-.3,1.2-.8,1.7-1.7,2h-.2c0-.5-.4-.8-1.8-1.1v-.2c.9.2,1.4.2,1.9.2.8,0,.9-.3,1.1-1,.3-1,.7-3.4.8-5.7h-1.6c-.8,4.3-2.6,6.7-7,8.1v-.3c4.2-1.9,5.6-4.3,6.2-7.9h-1.8c-1,3.4-2.6,5-5.8,6.5v-.2c2.7-1.5,4.4-3.6,5-6.3h-1.3l-.5.4h-.4l-.7-.7c.7-.2,1.3-.5,1.7-.8l4-3.8h-4.5c-.3,0-.7,0-1,.2l-.4-.6h5.8l.7-.6.9,1h-.1c-.8.2-.9.2-1.2.5l-4.1,3.8h5.7l.6-.7,1,.8h0v.2h0Z"/>
  </g>
  <g>
    <rect class="cls-1" x="1434.2" y="1605.4" width="7" height="44"/>
    <rect class="cls-1" x="1315.2" y="1605.4" width="7" height="44"/>
    <rect class="cls-1" x="1334.2" y="1620.4" width="88" height="15"/>
  </g>
  <g class="cls-11">
    <g class="cls-11">
      <g class="cls-11">
        <text class="cls-10" transform="translate(1347.4 1578.2) rotate(-.2) scale(1.2 1)"><tspan x="0" y="0">Main Entrance</tspan></text>
      </g>
    </g>
  </g>
  <use width="110" height="75.2" transform="translate(1020.3 396.1) rotate(-.2) scale(1 -1)" xlink:href="#_桌椅"/>
  <use width="110" height="75.2" transform="translate(1177.2 303) rotate(-.2) scale(1 -1)" xlink:href="#_桌椅"/>
  <use width="110" height="75.2" transform="translate(1179.3 396.6) rotate(-.2) scale(1 -1)" xlink:href="#_桌椅"/>
  <use width="110" height="75.2" transform="translate(1334.2 301.4) rotate(-.2) scale(1 -1)" xlink:href="#_桌椅"/>
  <use width="110" height="75.2" transform="translate(1336.3 395) rotate(-.2) scale(1 -1)" xlink:href="#_桌椅"/>
  <use width="110" height="75.2" transform="translate(1021.2 491.3) rotate(-.2) scale(1 -1)" xlink:href="#_桌椅"/>
  <use width="110" height="75.2" transform="translate(1023.3 584.9) rotate(-.2) scale(1 -1)" xlink:href="#_桌椅"/>
  <use width="110" height="75.2" transform="translate(1180.2 491.7) rotate(-.2) scale(1 -1)" xlink:href="#_桌椅"/>
  <use width="110" height="75.2" transform="translate(1182.3 585.3) rotate(-.2) scale(1 -1)" xlink:href="#_桌椅"/>
  <use width="110" height="75.2" transform="translate(1337.2 490.2) rotate(-.2) scale(1 -1)" xlink:href="#_桌椅"/>
  <use width="110" height="75.2" transform="translate(1339.3 583.7) rotate(-.2) scale(1 -1)" xlink:href="#_桌椅"/>
  <use width="110" height="75.2" transform="translate(1024.2 680) rotate(-.2) scale(1 -1)" xlink:href="#_桌椅"/>
  <use width="110" height="75.2" transform="translate(1026.3 773.6) rotate(-.2) scale(1 -1)" xlink:href="#_桌椅"/>
  <use width="110" height="75.2" transform="translate(1183.2 680.4) rotate(-.2) scale(1 -1)" xlink:href="#_桌椅"/>
  <use width="110" height="75.2" transform="translate(1185.3 774) rotate(-.2) scale(1 -1)" xlink:href="#_桌椅"/>
  <use width="110" height="75.2" transform="translate(1340.2 678.9) rotate(-.2) scale(1 -1)" xlink:href="#_桌椅"/>
  <use width="110" height="75.2" transform="translate(1342.3 772.5) rotate(-.2) scale(1 -1)" xlink:href="#_桌椅"/>
  <use width="110" height="75.2" transform="translate(427.8 305.8) scale(1 -1)" xlink:href="#_桌椅"/>
  <use width="110" height="75.2" transform="translate(429.6 399.4) scale(1 -1)" xlink:href="#_桌椅"/>
  <use width="110" height="75.2" transform="translate(586.8 306.8) scale(1 -1)" xlink:href="#_桌椅"/>
  <use width="110" height="75.2" transform="translate(588.6 400.4) scale(1 -1)" xlink:href="#_桌椅"/>
  <use width="110" height="75.2" transform="translate(743.8 305.8) scale(1 -1)" xlink:href="#_桌椅"/>
  <use width="110" height="75.2" transform="translate(745.6 399.4) scale(1 -1)" xlink:href="#_桌椅"/>
  <use width="110" height="75.2" transform="translate(428.6 493.4) scale(1 -1)" xlink:href="#_桌椅"/>
  <use width="110" height="75.2" transform="translate(587.6 494.4) scale(1 -1)" xlink:href="#_桌椅"/>
  <use width="110" height="75.2" transform="translate(744.6 493.4) scale(1 -1)" xlink:href="#_桌椅"/>
  <use width="110" height="75.2" transform="translate(427.8 588.1) scale(1 -1)" xlink:href="#_桌椅"/>
  <use width="110" height="75.2" transform="translate(429.6 681.7) scale(1 -1)" xlink:href="#_桌椅"/>
  <use width="110" height="75.2" transform="translate(586.8 589.1) scale(1 -1)" xlink:href="#_桌椅"/>
  <use width="110" height="75.2" transform="translate(588.6 682.7) scale(1 -1)" xlink:href="#_桌椅"/>
  <use width="110" height="75.2" transform="translate(743.8 588.1) scale(1 -1)" xlink:href="#_桌椅"/>
  <use width="110" height="75.2" transform="translate(745.6 681.7) scale(1 -1)" xlink:href="#_桌椅"/>
  <use width="110" height="75.2" transform="translate(428.6 775.7) scale(1 -1)" xlink:href="#_桌椅"/>
  <use width="110" height="75.2" transform="translate(587.6 776.7) scale(1 -1)" xlink:href="#_桌椅"/>
  <use width="110" height="75.2" transform="translate(744.6 775.7) scale(1 -1)" xlink:href="#_桌椅"/>
  <g>
    <rect class="cls-5" x="864.7" y="250.4" width="137" height="457.2"/>
    <line class="cls-5" x1="1001.7" y1="282.3" x2="864.7" y2="282.3"/>
    <line class="cls-5" x1="1001.7" y1="317.6" x2="864.7" y2="317.6"/>
    <line class="cls-5" x1="1001.7" y1="352.8" x2="864.7" y2="352.8"/>
    <line class="cls-5" x1="1001.7" y1="388.1" x2="864.7" y2="388.1"/>
    <line class="cls-5" x1="1001.7" y1="423.3" x2="864.7" y2="423.3"/>
    <line class="cls-5" x1="1001.7" y1="458.6" x2="864.7" y2="458.6"/>
    <line class="cls-5" x1="1001.7" y1="493.8" x2="864.7" y2="493.8"/>
    <line class="cls-5" x1="1001.7" y1="529.1" x2="864.7" y2="529.1"/>
    <line class="cls-5" x1="1001.7" y1="564.3" x2="864.7" y2="564.3"/>
    <line class="cls-5" x1="1001.7" y1="599.6" x2="864.7" y2="599.6"/>
    <line class="cls-5" x1="1001.7" y1="634.8" x2="864.7" y2="634.8"/>
    <line class="cls-5" x1="1001.7" y1="670.1" x2="864.7" y2="670.1"/>
  </g>
  <polyline class="cls-6" points="933.2 250.4 933.2 634.8 949.7 615.4"/>
  <polyline class="cls-6" points="933.2 250.4 933.2 634.8 916.7 615.4"/>
  <g>
    <rect class="cls-5" x="864.7" y="792.5" width="137" height="457.2"/>
    <line class="cls-5" x1="1001.7" y1="824.5" x2="864.7" y2="824.5"/>
    <line class="cls-5" x1="1001.7" y1="859.7" x2="864.7" y2="859.7"/>
    <line class="cls-5" x1="1001.7" y1="895" x2="864.7" y2="895"/>
    <line class="cls-5" x1="1001.7" y1="930.2" x2="864.7" y2="930.2"/>
    <line class="cls-5" x1="1001.7" y1="965.5" x2="864.7" y2="965.5"/>
    <line class="cls-5" x1="1001.7" y1="1000.7" x2="864.7" y2="1000.7"/>
    <line class="cls-5" x1="1001.7" y1="1036" x2="864.7" y2="1036"/>
    <line class="cls-5" x1="1001.7" y1="1071.2" x2="864.7" y2="1071.2"/>
    <line class="cls-5" x1="1001.7" y1="1106.5" x2="864.7" y2="1106.5"/>
    <line class="cls-5" x1="1001.7" y1="1141.7" x2="864.7" y2="1141.7"/>
    <line class="cls-5" x1="1001.7" y1="1177" x2="864.7" y2="1177"/>
    <line class="cls-5" x1="1001.7" y1="1212.2" x2="864.7" y2="1212.2"/>
  </g>
  <polyline class="cls-6" points="933.2 792.5 933.2 1177 949.7 1157.5"/>
  <polyline class="cls-6" points="933.2 792.5 933.2 1177 916.7 1157.5"/>
  <g class="cls-11">
    <g class="cls-11">
      <g class="cls-11">
        <text class="cls-12" transform="translate(918.5 758.7) rotate(-.2) scale(.5 1)"><tspan x="0" y="0">GF</tspan></text>
      </g>
    </g>
  </g>
  <g class="cls-11">
    <g class="cls-11">
      <g class="cls-11">
        <text class="cls-12" transform="translate(927.3 233.3) rotate(-.2) scale(.5 1)"><tspan x="0" y="0">1F</tspan></text>
      </g>
    </g>
  </g>
  <g class="cls-11">
    <g class="cls-11">
      <g class="cls-11">
        <text class="cls-12" transform="translate(923.3 1294) rotate(-.2) scale(.5 1)"><tspan x="0" y="0">BF</tspan></text>
      </g>
    </g>
  </g>
</svg>