<?xml version="1.0" encoding="UTF-8"?>
<svg id="_图层_1" data-name=" 图层 1" xmlns="http://www.w3.org/2000/svg" version="1.1" xmlns:xlink="http://www.w3.org/1999/xlink" viewBox="0 0 1584 2235.3">
  <defs>
    <style>
      .cls-1, .cls-2 {
        fill: #545454;
      }

      .cls-1, .cls-3, .cls-4, .cls-5, .cls-6, .cls-7 {
        stroke-miterlimit: 10;
      }

      .cls-1, .cls-6, .cls-7 {
        stroke: #545454;
      }

      .cls-2, .cls-8, .cls-9, .cls-10 {
        stroke-width: 0px;
      }

      .cls-8 {
        fill: #000;
      }

      .cls-3 {
        fill: #dc8a78;
      }

      .cls-3, .cls-5 {
        stroke: #fff;
      }

      .cls-11 {
        font-size: 9px;
      }

      .cls-11, .cls-12, .cls-13 {
        isolation: isolate;
      }

      .cls-11, .cls-10, .cls-13 {
        fill: #fff;
      }

      .cls-11, .cls-13 {
        font-family: ArialMT, Arial;
      }

      .cls-4 {
        stroke: #a0a1a6;
      }

      .cls-4, .cls-6, .cls-7 {
        fill: none;
      }

      .cls-5 {
        fill: #84a2de;
      }

      .cls-9 {
        fill: #a0a1a6;
      }

      .cls-6 {
        stroke-width: 3px;
      }

      .cls-13 {
        font-size: 32.3px;
      }
    </style>
    <symbol id="_桌椅" data-name=" 桌椅" viewBox="0 0 110 75.2">
      <g>
        <g>
          <g>
            <path class="cls-4" d="M24.1,11.2v11.5H7.1v-11.5c0-4.3,3-7.9,6.6-7.9h3.7c3.7,0,6.6,3.5,6.6,7.9h.1Z"/>
            <path class="cls-4" d="M4.5,3.5s10.5-6.7,22.2,0"/>
            <path class="cls-4" d="M4.5,7.8s10.5-11.7,22.2,0"/>
            <polyline class="cls-4" points="7.2 2.4 8.2 4.1 9.5 1.8 11.2 2.7 15.2 1.1 19.7 2.5 21.9 1.8 22.6 3.9 24.5 2.6"/>
          </g>
          <g>
            <path class="cls-4" d="M50,11.2v11.5h-17v-11.5c0-4.3,3-7.9,6.7-7.9h3.7c3.7,0,6.7,3.5,6.7,7.9h-.1Z"/>
            <path class="cls-4" d="M30.4,3.5s10.5-6.7,22.2,0"/>
            <path class="cls-4" d="M30.4,7.8s10.5-11.7,22.2,0"/>
            <polyline class="cls-4" points="33.1 2.4 34.1 4.1 35.3 1.8 37.1 2.7 41.1 1.1 45.6 2.5 47.8 1.8 48.5 3.9 50.3 2.6"/>
          </g>
          <g>
            <path class="cls-4" d="M76.6,11.2v11.5h-17v-11.5c0-4.3,3-7.9,6.7-7.9h3.7c3.7,0,6.7,3.5,6.7,7.9h0Z"/>
            <path class="cls-4" d="M57,3.5s10.5-6.7,22.2,0"/>
            <path class="cls-4" d="M57,7.8s10.5-11.7,22.2,0"/>
            <polyline class="cls-4" points="59.7 2.4 60.7 4.1 61.9 1.8 63.7 2.7 67.7 1.1 72.2 2.5 74.4 1.8 75.1 3.9 76.9 2.6"/>
          </g>
          <g>
            <path class="cls-4" d="M102.4,11.2v11.5h-17v-11.5c0-4.3,3-7.9,6.7-7.9h3.7c3.7,0,6.7,3.5,6.7,7.9h0Z"/>
            <path class="cls-4" d="M82.8,3.5s10.5-6.7,22.2,0"/>
            <path class="cls-4" d="M82.8,7.8s10.5-11.7,22.2,0"/>
            <polyline class="cls-4" points="85.6 2.4 86.6 4.1 87.8 1.8 89.6 2.7 93.6 1.1 98 2.5 100.3 1.8 101 3.9 102.8 2.6"/>
          </g>
        </g>
        <g>
          <g>
            <path class="cls-4" d="M85.4,64v-11.5h17v11.5c0,4.3-3,7.9-6.7,7.9h-3.7c-3.7,0-6.7-3.5-6.7-7.9h0Z"/>
            <path class="cls-4" d="M105,71.7s-10.5,6.7-22.2,0"/>
            <path class="cls-4" d="M105,67.4s-10.5,11.7-22.2,0"/>
            <polyline class="cls-4" points="102.2 72.8 101.3 71.2 100 73.4 98.3 72.6 94.3 74.1 89.8 72.7 87.6 73.4 86.9 71.4 85 72.6"/>
          </g>
          <g>
            <path class="cls-4" d="M59.5,64v-11.5h17v11.5c0,4.3-3,7.9-6.7,7.9h-3.7c-3.7,0-6.7-3.5-6.7-7.9h0Z"/>
            <path class="cls-4" d="M79.1,71.7s-10.5,6.7-22.2,0"/>
            <path class="cls-4" d="M79.1,67.4s-10.5,11.7-22.2,0"/>
            <polyline class="cls-4" points="76.4 72.8 75.4 71.2 74.2 73.4 72.4 72.6 68.4 74.1 63.9 72.7 61.7 73.4 61 71.4 59.2 72.6"/>
          </g>
          <g>
            <path class="cls-4" d="M33,64v-11.5h17v11.5c0,4.3-3,7.9-6.7,7.9h-3.7c-3.7,0-6.7-3.5-6.7-7.9,0,0,0,0,.1,0Z"/>
            <path class="cls-4" d="M52.5,71.7s-10.5,6.7-22.2,0"/>
            <path class="cls-4" d="M52.5,67.4s-10.5,11.7-22.2,0"/>
            <polyline class="cls-4" points="49.8 72.8 48.8 71.2 47.6 73.4 45.8 72.6 41.8 74.1 37.3 72.7 35.1 73.4 34.4 71.4 32.6 72.6"/>
          </g>
          <g>
            <path class="cls-4" d="M7.1,64v-11.5h17v11.5c0,4.3-3,7.9-6.6,7.9h-3.7c-3.7,0-6.7-3.5-6.7-7.9h0Z"/>
            <path class="cls-4" d="M26.7,71.7s-10.5,6.7-22.2,0"/>
            <path class="cls-4" d="M26.7,67.4s-10.5,11.7-22.2,0"/>
            <polyline class="cls-4" points="23.9 72.8 22.9 71.2 21.7 73.4 20 72.6 15.9 74.1 11.5 72.7 9.2 73.4 8.5 71.4 6.7 72.6"/>
          </g>
        </g>
        <rect class="cls-9" y="21.7" width="110" height="32"/>
      </g>
    </symbol>
    <symbol id="_新建符号" data-name="新建符号" viewBox="0 0 119.8 150.5">
      <rect class="cls-2" x="0" y="0" width="119.8" height="150.5"/>
    </symbol>
  </defs>
  <use width="110" height="75.2" transform="translate(1018 231.2) rotate(-.2)" xlink:href="#_桌椅"/>
  <rect class="cls-2" x="366.3" y="380.8" width="39" height="14"/>
  <polygon class="cls-2" points="334.5 388.2 376.3 346.6 376 430 334.5 388.2"/>
  <rect class="cls-3" x="144.8" y="280.4" width="187.2" height="230"/>
  <g>
    <path class="cls-8" d="M165.1,385.3c0-1.9.5-3.4,1.5-4.5s2.4-1.6,4-1.6,2,.2,2.9.8,1.5,1.2,1.9,2.1.7,1.9.7,3.1-.2,2.2-.7,3.1-1.1,1.6-2,2.1-1.8.7-2.8.7-2.1-.3-2.9-.8-1.5-1.2-1.9-2.1-.7-1.9-.7-2.9h0ZM166.7,385.3c0,1.4.4,2.5,1.1,3.3.7.8,1.7,1.2,2.8,1.2s2.1-.4,2.8-1.2,1.1-2,1.1-3.4-.2-1.8-.5-2.5-.8-1.2-1.4-1.6-1.3-.6-2.1-.6-2,.4-2.8,1.1-1.2,2-1.2,3.7h.2,0Z"/>
    <path class="cls-8" d="M183.3,390.9v-1.2c-.6.9-1.5,1.4-2.6,1.4s-.9,0-1.4-.3c-.4-.2-.7-.4-.9-.7s-.4-.6-.4-1v-6.5h1.4v6.1c0,.4.3.7.6.9s.6.3,1.1.3.8,0,1.2-.3.6-.5.8-.9c.1-.4.2-.9.2-1.6v-4.5h1.4v8.3h-1.4Z"/>
    <path class="cls-8" d="M189.9,389.6l.2,1.2h-1.1c-.5,0-.9,0-1.2-.2s-.5-.4-.6-.6c0-.3-.2-.8-.2-1.7v-4.8h-1v-1.1h1v-2.1l1.4-.8v2.9h1.4v1.1h-1.4v5.7s0,.2.2.3h1.3Z"/>
    <path class="cls-8" d="M196.6,390.9v-1c-.5.8-1.3,1.2-2.3,1.2s-1.3-.2-1.8-.5-1-.9-1.3-1.5c-.3-.7-.5-1.4-.5-2.3s.1-1.6.4-2.3.7-1.2,1.2-1.6c.6-.4,1.2-.5,1.9-.5s1,.1,1.3.3c.4.2.7.5,1,.8v-4.1h1.4v11.5h-1.3,0ZM192.2,386.7c0,1.1.2,1.9.7,2.4s1,.8,1.6.8,1.1-.2,1.6-.8c.4-.5.6-1.3.6-2.3s-.2-2-.7-2.5-1-.8-1.6-.8-1.1.3-1.6.8c-.4.5-.6,1.3-.6,2.4h0Z"/>
    <path class="cls-8" d="M199.6,386.7c0-1.5.4-2.7,1.3-3.4.7-.6,1.6-.9,2.6-.9s2.1.4,2.8,1.1c.7.8,1.1,1.8,1.1,3.1s-.2,1.9-.5,2.5-.8,1.1-1.4,1.4c-.6.3-1.3.5-2,.5-1.2,0-2.1-.4-2.8-1.1s-1.1-1.8-1.1-3.2h0ZM201.1,386.7c0,1.1.2,1.9.7,2.4s1,.8,1.8.8,1.3-.3,1.8-.8.7-1.3.7-2.4-.2-1.8-.7-2.3-1-.8-1.7-.8-1.3.3-1.8.8-.7,1.3-.7,2.4h-.1Z"/>
    <path class="cls-8" d="M208.6,386.7c0-1.5.4-2.7,1.3-3.4.7-.6,1.6-.9,2.6-.9s2.1.4,2.8,1.1c.7.8,1.1,1.8,1.1,3.1s-.2,1.9-.5,2.5-.8,1.1-1.4,1.4c-.6.3-1.3.5-2,.5-1.2,0-2.1-.4-2.8-1.1s-1.1-1.8-1.1-3.2h0ZM210,386.7c0,1.1.2,1.9.7,2.4s1,.8,1.8.8,1.3-.3,1.8-.8.7-1.3.7-2.4-.2-1.8-.7-2.3-1-.8-1.7-.8-1.3.3-1.8.8-.7,1.3-.7,2.4h-.1Z"/>
    <path class="cls-8" d="M218,390.9v-8.3h1.3v1.3c.3-.6.6-1,.9-1.2s.6-.3.9-.3c.5,0,1,.2,1.5.5l-.5,1.3c-.3-.2-.7-.3-1-.3s-.6,0-.8.3-.4.4-.5.8c-.2.5-.2,1-.2,1.7v4.4h-1.4l-.2-.2h0Z"/>
    <path class="cls-8" d="M227.5,387.2h1.4c0,.5.2.9.5,1.3s.6.7,1.2.9,1.1.3,1.8.3,1.1,0,1.5-.3c.4-.2.8-.4,1-.7s.3-.6.3-1,0-.7-.3-.9c-.2-.3-.5-.5-1-.7-.3-.1-1-.3-2-.6s-1.8-.5-2.2-.7c-.5-.3-1-.6-1.2-1.1s-.4-.9-.4-1.4.2-1.1.5-1.6.8-.9,1.4-1.2,1.3-.4,2.1-.4,1.6.1,2.2.4,1.1.7,1.5,1.2.5,1.1.6,1.8h-1.5c0-.6-.3-1.2-.8-1.5-.5-.4-1.1-.6-2-.6s-1.6.2-2,.5-.6.7-.6,1.2,0,.8.5,1c.3.3,1.1.5,2.3.8s2.1.5,2.5.7c.7.3,1.2.7,1.5,1.2s.5,1,.5,1.6-.2,1.2-.5,1.7c-.4.5-.9,1-1.5,1.3s-1.4.5-2.2.5-1.9-.2-2.6-.5-1.2-.8-1.6-1.4-.6-1.3-.6-2.1h0l-.3.3h0Z"/>
    <path class="cls-8" d="M238.5,394.1v-11.5h1.3v1.1c.3-.4.6-.7,1-1s.8-.3,1.4-.3,1.3.2,1.9.5,1,.9,1.2,1.5.4,1.4.4,2.2-.1,1.6-.5,2.3-.8,1.2-1.3,1.6c-.6.4-1.2.5-1.8.5s-.9,0-1.3-.3c-.4-.2-.7-.5-.9-.8v4h-1.4v.2h0ZM239.8,386.8c0,1.1.2,1.9.6,2.4s1,.8,1.6.8,1.2-.3,1.6-.8.7-1.3.7-2.5-.2-1.8-.6-2.4c-.4-.5-1-.8-1.6-.8s-1.1.3-1.6.8-.7,1.4-.7,2.5h0Z"/>
    <path class="cls-8" d="M246.9,386.7c0-1.5.4-2.7,1.3-3.4.7-.6,1.6-.9,2.6-.9s2.1.4,2.8,1.1c.7.8,1.1,1.8,1.1,3.1s-.2,1.9-.5,2.5-.8,1.1-1.4,1.4c-.6.3-1.3.5-2,.5-1.2,0-2.1-.4-2.8-1.1s-1.1-1.8-1.1-3.2h0ZM248.4,386.7c0,1.1.2,1.9.7,2.4s1,.8,1.8.8,1.3-.3,1.8-.8.7-1.3.7-2.4-.2-1.8-.7-2.3-1-.8-1.7-.8-1.3.3-1.8.8-.7,1.3-.7,2.4h-.1Z"/>
    <path class="cls-8" d="M256.4,390.9v-8.3h1.3v1.3c.3-.6.6-1,.9-1.2s.6-.3.9-.3c.5,0,1,.2,1.5.5l-.5,1.3c-.3-.2-.7-.3-1-.3s-.6,0-.8.3-.4.4-.5.8c-.2.5-.2,1-.2,1.7v4.4h-1.4l-.2-.2h0Z"/>
    <path class="cls-8" d="M264.8,389.6l.2,1.2h-1.1c-.5,0-.9,0-1.2-.2s-.5-.4-.6-.6-.2-.8-.2-1.7v-4.8h-1v-1.1h1v-2.1l1.4-.8v2.9h1.4v1.1h-1.4v5.7s0,.2.2.3h1.3Z"/>
    <path class="cls-8" d="M265.6,388.4l1.4-.2c0,.6.3,1,.6,1.3s.9.5,1.5.5,1.1,0,1.4-.4c.3-.3.5-.6.5-.9s0-.6-.4-.8c-.2-.1-.7-.3-1.4-.5-1-.3-1.8-.5-2.1-.7s-.7-.5-.9-.8c-.2-.3-.3-.7-.3-1.1s0-.7.2-1,.4-.6.7-.8c.2-.2.5-.3.9-.4s.8-.2,1.2-.2c.6,0,1.2,0,1.7.3s.9.4,1.1.8.4.8.5,1.3l-1.4.2c0-.4-.2-.8-.5-1s-.7-.4-1.3-.4-1.1,0-1.4.3-.4.5-.4.8,0,.3.2.5c0,.2.3.3.5.4.1,0,.6.2,1.2.4,1,.3,1.7.5,2.1.7s.7.4.9.7c.2.3.3.7.3,1.2s-.1.9-.4,1.3-.7.7-1.2,1c-.5.2-1.1.3-1.8.3-1.1,0-1.9-.2-2.5-.7s-.9-1.1-1.1-2h.2,0Z"/>
    <path class="cls-8" d="M278.9,390.9v-11.5h7.8v1.4h-6.2v3.6h5.4v1.4h-5.4v5.2h-1.6,0Z"/>
    <path class="cls-8" d="M288.5,381v-1.6h1.4v1.6h-1.4ZM288.5,390.9v-8.3h1.4v8.3h-1.4Z"/>
    <path class="cls-8" d="M297.7,388.2l1.5.2c-.2.8-.7,1.5-1.3,2s-1.4.7-2.4.7-2.2-.4-2.9-1.1-1.1-1.8-1.1-3.2.4-2.5,1.1-3.3,1.7-1.2,2.8-1.2,2,.4,2.7,1.1c.7.8,1.1,1.8,1.1,3.2v.4h-6.2c0,.9.3,1.6.8,2.1s1,.7,1.7.7,1,0,1.3-.4c.4-.3.7-.7.9-1.3h0ZM293.1,385.9h4.6c0-.7-.2-1.2-.5-1.6-.5-.5-1-.8-1.8-.8s-1.2.2-1.6.7c-.4.4-.7,1-.7,1.7h0Z"/>
    <path class="cls-8" d="M300.9,390.9v-11.5h1.4v11.5h-1.4Z"/>
    <path class="cls-8" d="M309.9,390.9v-1c-.5.8-1.3,1.2-2.3,1.2s-1.3-.2-1.8-.5-1-.9-1.3-1.5c-.3-.7-.5-1.4-.5-2.3s.1-1.6.4-2.3.7-1.2,1.2-1.6,1.2-.5,1.9-.5,1,.1,1.3.3c.4.2.7.5,1,.8v-4.1h1.4v11.5h-1.3ZM305.5,386.7c0,1.1.2,1.9.7,2.4s1,.8,1.6.8,1.1-.2,1.6-.8c.4-.5.6-1.3.6-2.3s-.2-2-.7-2.5-1-.8-1.6-.8-1.1.3-1.6.8-.6,1.3-.6,2.4h0Z"/>
    <path class="cls-8" d="M213.1,410.7h-12.7c-.3,0-.8,0-1.1.2l-.5-.6h7v-2.6h-3.5c-.3,0-.8,0-1,.2l-.4-.6h4.9v-2.5l1.1.6h0c0,.1-.1.1-.1.1l-.4.3v1.4h3l.7-.9,1,1c.1,0,0,.1,0,.2s0,0-.2,0h-4.6v2.6h4.6l.7-1,1.2,1.1h0v.4h.3ZM213.2,399.6h0s0,.2-.2.2c-.6,0-1,.2-1.7,1h-.2c0-.1.6-1.3.6-1.3h-10.7c-.1,1.3-.6,2.1-1.3,2.1s-.5-.2-.5-.4.2-.4.5-.6c.5-.3.9-.8,1.2-2.1h.2v.7h10.6l.5-.6,1,1h0ZM208.2,402.6c2.2.8,3.5,1.8,3.5,2.7s-.2.6-.4.6-.4-.1-.5-.4c0-.2-.3-.5-.5-.8l-6.4.4c-1.2,0-1.9.2-2,.3h-.2s-.1,0,0-.1l-.5-.8c.6,0,1.2-.2,1.5-.3.9-.7,1.8-1.5,2.4-2.4h-2.6c-.3,0-.8,0-1,.2l-.4-.6h8.8l.7-.9,1,1v.2c0,.1,0,0-.2,0h-5.2c-1.2,1.1-2.4,2-3.5,2.8h7.6c-.5-.7-1.2-1.2-2-1.8v-.2h.1-.2q0,0,0,0h0ZM204.9,396.9c1.6.6,2.1,1,2.1,1.5s-.3.8-.5.8-.4,0-.5-.4-.5-1.1-1.2-1.7v-.2c.1,0,0,0,0,0h.1,0Z"/>
    <path class="cls-8" d="M223.3,400.1s.1,0,0,.1h-.1c-.5.4-.6.5-.7.7-.4,1.5-1.1,3.7-2,5.2-.8,1.4-2.8,3.7-5.3,5.1v-.2c2.2-1.8,3.7-3.5,4.9-5.6.8-1.4,1.5-3.5,1.7-5.2h-3.3c-.8,1.9-1.8,3.8-3,5.4h-.2c1.6-3.1,2.5-5.4,3.6-9.1l1.2.7h-.2c-.3,0-.5.3-.7.8-.2.6-.5,1.2-.7,1.7h3l.5-.7,1.1.8h0v.3h.2ZM218,402.3c.9.4,2.2,1,2.2,2s-.2.7-.5.7-.3-.1-.4-.3c0-.6-.6-1.3-1.5-2.2h.1v-.2h0ZM225.4,401.4c1.9.8,4.3,2.2,4.3,3.4s-.2.7-.4.7-.2-.1-.3-.3c-.7-1.2-1.9-2.6-3.5-3.4v9h0c0,.3,0,.4-.4.5h-.3s-.1,0,0-.4h0v-14.6l1.2.7h0c0,.1-.1.1-.1.1l-.4.2v3.9h-.1v.2h0Z"/>
    <path class="cls-8" d="M246,409.9c-.7,0-1.3.4-1.4.8h-.3c-4.8,0-6.6-.1-7.3-.2-1.4-.2-2.5-1.3-2.8-2,0-.2-.2-.3-.3-.3-.5,0-1.7,2.1-1.9,2.5h-.2l-.8-.5,2.5-2.3v-5.2h-1.3c-.3,0-.7,0-1,.2l-.4-.6h2.3l.6-.8,1.1.8h0s0,.1-.1.2l-.6.3v4.5c0,.6,1.2,2.3,3,2.3h1.5c2.3,0,4.4,0,7.3-.4v.2h0v.5h0ZM232.1,397.2c1.4.6,2.4,1.6,2.5,2.1v.3c0,.4-.2.8-.4.8s-.3,0-.5-.7c-.2-.5-.8-1.6-1.6-2.3v-.2h0ZM245.7,401.5c.1,0,.2.2.2.2h-5.3c-1,1.9-2.5,4.2-3.1,4.9l5.9-.3c-.4-.9-1-1.9-1.8-2.8v-.2c.8.5,3.1,2.4,3.1,3.7s-.3.9-.6.9-.2-.2-.4-.7c0-.2,0-.5-.2-.8l-3.8.5c-1.7.2-2.1.4-2.4.6h-.2s-.1,0-.2-.1l-.6-.8c.7,0,1-.3,1.3-.7.7-1.1,1.6-2.7,2-4.3h-2.7c-.3,0-.7,0-1,.2l-.4-.6h8.5l.7-.9,1.1,1h0v.2h-.1ZM244.4,397.9c.1,0,0,.2,0,.2h-6.2c-.3,0-.7,0-1,.2l-.4-.6h5.8l.7-.9,1,.9h0v.2h0Z"/>
    <path class="cls-8" d="M254.7,402.1v.2h-4l.7.5s.1,0,0,.1,0,0-.1,0c-.4,0-.5.2-.6.5-.8,1.4-1.5,2.6-2.3,3.8l4.5-.5c-.2-.8-.6-1.7-1.4-2.7l.2-.2c1.4,1.4,2.3,2.4,2.3,3.2s-.3.9-.6.9-.3-.1-.4-.6v-.3l-2,.4c-1.7.3-2.5.6-2.9.9h-.1l-.8-.9c.6-.2,1.1-.5,1.3-.9.6-1.1,1.3-2.7,1.8-4.3h-1.9c-.3,0-.8,0-1,.2l-.4-.6h5.9l.7-.9,1,1h-.1l.2.2h0ZM254.2,398.8v.2c0,.1,0,0-.2,0h-4.9c-.3,0-.8,0-1,.2l-.4-.6h4.8l.6-.8,1,1h0ZM261.6,400.7v.2c0,.1,0,0-.1.2l-.6.4c0,2.4-.2,5.6-.4,7.3-.1,1-.5,1.6-1.8,2.2h-.2s-.1,0-.2-.2c0-.4-.6-.7-1.9-1.1v-.3c.8.2,1.5.3,1.9.3,1,0,1.2-.4,1.4-1.2.2-1.3.4-5.2.4-7.3h-2.9c-.3,5.7-.9,8.1-6.2,10.5v-.3c4.5-2.5,5.2-4.5,5.4-10.2h-.9c-.3,0-.8,0-1.1.2l-.5-.6h2.4v-4.2l1.4.6c.1,0,.2,0,.2.1s0,0-.1,0l-.5.3c0,.9,0,2.1-.1,3h2.5l.6-.8,1.1.8h.2Z"/>
    <path class="cls-8" d="M269.5,401.1c.1,0,.2.2.2.2h-3v4.9l2.8-1v.3l-3.9,1.8c-.9.4-1.2.7-1.4.9h-.2l-.6-.7,2.7-1v-5.2h-1.3c-.3,0-.7,0-1,.2l-.4-.6h2.7v-4.6l1.2.6c.1,0,.2.1.2.2s0,0-.6.4v3.4h1.5l.6-.8.9.8h0l-.4.2h0ZM277.7,403s.1,0,0,.1h-.1l-.5.4c-.2,2.3-.5,4.3-.8,5.6-.3,1.2-.8,1.7-1.7,2h-.2c0-.5-.4-.8-1.8-1.1v-.2c.9.2,1.4.2,1.9.2.8,0,.9-.3,1.1-1,.3-1,.7-3.4.8-5.7h-1.6c-.8,4.3-2.6,6.7-7,8.1v-.3c4.2-1.9,5.6-4.3,6.2-7.9h-1.8c-1,3.4-2.6,5-5.8,6.5v-.2c2.7-1.5,4.4-3.6,5-6.3h-1.3l-.5.4h-.4l-.7-.7c.7-.2,1.3-.5,1.7-.8l4-3.8h-4.5c-.3,0-.7,0-1,.2l-.4-.6h5.8l.7-.6.9,1h-.1c-.8.2-.9.2-1.2.5l-4.1,3.8h5.7l.6-.7,1,.8h0v.2h0Z"/>
  </g>
  <g>
    <rect class="cls-1" x="1508.1" y="2181" width="7" height="44"/>
    <rect class="cls-1" x="1389.1" y="2181" width="7" height="44"/>
    <rect class="cls-1" x="1408.1" y="2196" width="88" height="15"/>
  </g>
  <g class="cls-12">
    <g class="cls-12">
      <g class="cls-12">
        <g class="cls-12">
          <text class="cls-11" transform="translate(1421.3 2153.8) rotate(-.2) scale(1.2 1)"><tspan x="0" y="0">Main Entrance</tspan></text>
        </g>
      </g>
    </g>
  </g>
  <use width="110" height="75.2" transform="translate(1020.1 324.8) rotate(-.2)" xlink:href="#_桌椅"/>
  <use width="110" height="75.2" transform="translate(1177 231.7) rotate(-.2)" xlink:href="#_桌椅"/>
  <use width="110" height="75.2" transform="translate(1179.1 325.3) rotate(-.2)" xlink:href="#_桌椅"/>
  <use width="110" height="75.2" transform="translate(1334 230.1) rotate(-.2)" xlink:href="#_桌椅"/>
  <use width="110" height="75.2" transform="translate(1336.1 323.7) rotate(-.2)" xlink:href="#_桌椅"/>
  <use width="110" height="75.2" transform="translate(1021 420) rotate(-.2)" xlink:href="#_桌椅"/>
  <use width="110" height="75.2" transform="translate(1023.1 513.6) rotate(-.2)" xlink:href="#_桌椅"/>
  <use width="110" height="75.2" transform="translate(1180 420.4) rotate(-.2)" xlink:href="#_桌椅"/>
  <use width="110" height="75.2" transform="translate(1182.1 514) rotate(-.2)" xlink:href="#_桌椅"/>
  <use width="110" height="75.2" transform="translate(1337 418.9) rotate(-.2)" xlink:href="#_桌椅"/>
  <use width="110" height="75.2" transform="translate(1339.1 512.4) rotate(-.2)" xlink:href="#_桌椅"/>
  <use width="110" height="75.2" transform="translate(1024 608.7) rotate(-.2)" xlink:href="#_桌椅"/>
  <use width="110" height="75.2" transform="translate(1026.1 702.3) rotate(-.2)" xlink:href="#_桌椅"/>
  <use width="110" height="75.2" transform="translate(1183 609.1) rotate(-.2)" xlink:href="#_桌椅"/>
  <use width="110" height="75.2" transform="translate(1185.1 702.7) rotate(-.2)" xlink:href="#_桌椅"/>
  <use width="110" height="75.2" transform="translate(1340 607.6) rotate(-.2)" xlink:href="#_桌椅"/>
  <use width="110" height="75.2" transform="translate(1342.1 701.2) rotate(-.2)" xlink:href="#_桌椅"/>
  <use width="110" height="75.2" transform="translate(427.8 234.5)" xlink:href="#_桌椅"/>
  <use width="110" height="75.2" transform="translate(429.6 328.1)" xlink:href="#_桌椅"/>
  <use width="110" height="75.2" transform="translate(586.8 235.5)" xlink:href="#_桌椅"/>
  <use width="110" height="75.2" transform="translate(588.6 329.1)" xlink:href="#_桌椅"/>
  <use width="110" height="75.2" transform="translate(743.8 234.5)" xlink:href="#_桌椅"/>
  <use width="110" height="75.2" transform="translate(745.6 328.1)" xlink:href="#_桌椅"/>
  <use width="110" height="75.2" transform="translate(428.6 422.1)" xlink:href="#_桌椅"/>
  <use width="110" height="75.2" transform="translate(587.6 423.1)" xlink:href="#_桌椅"/>
  <use width="110" height="75.2" transform="translate(744.6 422.1)" xlink:href="#_桌椅"/>
  <use width="110" height="75.2" transform="translate(427.8 516.8)" xlink:href="#_桌椅"/>
  <use width="110" height="75.2" transform="translate(429.6 610.4)" xlink:href="#_桌椅"/>
  <use width="110" height="75.2" transform="translate(586.8 517.8)" xlink:href="#_桌椅"/>
  <use width="110" height="75.2" transform="translate(588.6 611.4)" xlink:href="#_桌椅"/>
  <use width="110" height="75.2" transform="translate(743.8 516.8)" xlink:href="#_桌椅"/>
  <use width="110" height="75.2" transform="translate(745.6 610.4)" xlink:href="#_桌椅"/>
  <use width="110" height="75.2" transform="translate(428.6 704.4)" xlink:href="#_桌椅"/>
  <use width="110" height="75.2" transform="translate(587.6 705.4)" xlink:href="#_桌椅"/>
  <use width="110" height="75.2" transform="translate(744.6 704.4)" xlink:href="#_桌椅"/>
  <g>
    <rect class="cls-6" x="864.7" y="250.4" width="137" height="457.2"/>
    <line class="cls-6" x1="1001.7" y1="282.3" x2="864.7" y2="282.3"/>
    <line class="cls-6" x1="1001.7" y1="317.6" x2="864.7" y2="317.6"/>
    <line class="cls-6" x1="1001.7" y1="352.8" x2="864.7" y2="352.8"/>
    <line class="cls-6" x1="1001.7" y1="388.1" x2="864.7" y2="388.1"/>
    <line class="cls-6" x1="1001.7" y1="423.3" x2="864.7" y2="423.3"/>
    <line class="cls-6" x1="1001.7" y1="458.6" x2="864.7" y2="458.6"/>
    <line class="cls-6" x1="1001.7" y1="493.8" x2="864.7" y2="493.8"/>
    <line class="cls-6" x1="1001.7" y1="529.1" x2="864.7" y2="529.1"/>
    <line class="cls-6" x1="1001.7" y1="564.3" x2="864.7" y2="564.3"/>
    <line class="cls-6" x1="1001.7" y1="599.6" x2="864.7" y2="599.6"/>
    <line class="cls-6" x1="1001.7" y1="634.8" x2="864.7" y2="634.8"/>
    <line class="cls-6" x1="1001.7" y1="670.1" x2="864.7" y2="670.1"/>
  </g>
  <polyline class="cls-7" points="933.2 250.4 933.2 634.8 949.7 615.4"/>
  <polyline class="cls-7" points="933.2 250.4 933.2 634.8 916.7 615.4"/>
  <g>
    <rect class="cls-6" x="864.7" y="792.5" width="137" height="457.2"/>
    <line class="cls-6" x1="1001.7" y1="824.5" x2="864.7" y2="824.5"/>
    <line class="cls-6" x1="1001.7" y1="859.7" x2="864.7" y2="859.7"/>
    <line class="cls-6" x1="1001.7" y1="895" x2="864.7" y2="895"/>
    <line class="cls-6" x1="1001.7" y1="930.2" x2="864.7" y2="930.2"/>
    <line class="cls-6" x1="1001.7" y1="965.5" x2="864.7" y2="965.5"/>
    <line class="cls-6" x1="1001.7" y1="1000.7" x2="864.7" y2="1000.7"/>
    <line class="cls-6" x1="1001.7" y1="1036" x2="864.7" y2="1036"/>
    <line class="cls-6" x1="1001.7" y1="1071.2" x2="864.7" y2="1071.2"/>
    <line class="cls-6" x1="1001.7" y1="1106.5" x2="864.7" y2="1106.5"/>
    <line class="cls-6" x1="1001.7" y1="1141.7" x2="864.7" y2="1141.7"/>
    <line class="cls-6" x1="1001.7" y1="1177" x2="864.7" y2="1177"/>
    <line class="cls-6" x1="1001.7" y1="1212.2" x2="864.7" y2="1212.2"/>
  </g>
  <polyline class="cls-7" points="933.2 792.5 933.2 1177 949.7 1157.5"/>
  <polyline class="cls-7" points="933.2 792.5 933.2 1177 916.7 1157.5"/>
  <g class="cls-12">
    <g class="cls-12">
      <g class="cls-12">
        <g class="cls-12">
          <text class="cls-13" transform="translate(918.5 758.7) rotate(-.2) scale(.5 1)"><tspan x="0" y="0">GF</tspan></text>
        </g>
      </g>
    </g>
  </g>
  <g class="cls-12">
    <g class="cls-12">
      <g class="cls-12">
        <g class="cls-12">
          <text class="cls-13" transform="translate(927.3 233.3) rotate(-.2) scale(.5 1)"><tspan x="0" y="0">1F</tspan></text>
        </g>
      </g>
    </g>
  </g>
  <g class="cls-12">
    <g class="cls-12">
      <g class="cls-12">
        <g class="cls-12">
          <text class="cls-13" transform="translate(923.3 1294) rotate(-.2) scale(.5 1)"><tspan x="0" y="0">BF</tspan></text>
        </g>
      </g>
    </g>
  </g>
  <rect class="cls-5" x="326.5" y="1126.8" width="107.6" height="164"/>
  <g>
    <path class="cls-8" d="M331.9,1208.9v-8.6h3.2c.6,0,1,0,1.3,0,.4,0,.8.2,1.1.4s.5.5.7.8.3.7.3,1.2c0,.7-.2,1.3-.7,1.9s-1.3.8-2.5.8h-2.2v3.5h-1.1ZM333,1204.4h2.2c.7,0,1.3-.1,1.6-.4s.5-.7.5-1.2,0-.7-.3-.9-.4-.4-.7-.5c-.2,0-.5,0-1.1,0h-2.2v3.1Z"/>
    <path class="cls-8" d="M339.9,1208.9v-8.6h1.1v7.6h4.2v1h-5.4Z"/>
    <path class="cls-8" d="M352.2,1200.3h1.1v5c0,.9,0,1.5-.3,2.1s-.5.9-1.1,1.2-1.2.5-2,.5-1.5-.1-2-.4-.9-.7-1.1-1.2-.3-1.2-.3-2.2v-5h1.1v5c0,.7,0,1.3.2,1.6s.4.6.7.8.8.3,1.2.3c.8,0,1.4-.2,1.8-.6s.5-1.1.5-2.2v-5Z"/>
    <path class="cls-8" d="M354.4,1208.9l3.3-4.5-2.9-4.1h1.4l1.6,2.2c.3.5.6.8.7,1.1.2-.3.4-.6.7-1l1.7-2.3h1.2l-3,4,3.3,4.5h-1.4l-2.2-3.1c-.1-.2-.2-.4-.4-.6-.2.3-.3.5-.4.6l-2.2,3h-1.4Z"/>
    <path class="cls-8" d="M363.3,1208.9v-8.6h1.1v3.5h4.5v-3.5h1.1v8.6h-1.1v-4h-4.5v4h-1.1Z"/>
    <path class="cls-8" d="M376,1206.9h1.1c-.2.8-.5,1.3-1,1.6s-1.1.5-1.8.5-1.6-.3-2.2-.8-.8-1.3-.8-2.4.3-1.9.8-2.4,1.2-.9,2.1-.9,1.5.3,2,.8.8,1.4.8,2.4,0,.2,0,.3h-4.6c0,.7.2,1.2.6,1.6s.8.5,1.3.5.7-.1,1-.3.5-.5.7-1ZM372.6,1205.1h3.5c0-.5-.2-.9-.4-1.2-.3-.4-.8-.6-1.3-.6s-.9.2-1.2.5-.5.8-.5,1.3Z"/>
    <path class="cls-8" d="M382.5,1208.1c-.4.3-.8.6-1.1.7s-.7.2-1.2.2c-.7,0-1.2-.2-1.6-.5s-.6-.8-.6-1.3,0-.6.2-.8.3-.5.5-.6.5-.3.8-.3c.2,0,.5-.1.9-.2.9-.1,1.5-.2,1.9-.4,0-.1,0-.2,0-.3,0-.4,0-.7-.3-.9-.3-.2-.7-.4-1.2-.4s-.9,0-1.1.3-.4.5-.5.9h-1c0-.6.2-.9.5-1.2s.5-.5.9-.6.9-.2,1.4-.2,1,0,1.3.2.6.3.7.5.3.4.3.7c0,.2,0,.5,0,1v1.4c0,1,0,1.6,0,1.9s.1.5.3.7h-1.1c-.1-.2-.2-.5-.2-.8ZM382.4,1205.7c-.4.2-1,.3-1.7.4-.4,0-.7.1-.9.2s-.3.2-.4.3-.1.3-.1.5c0,.3.1.5.3.7s.5.3.9.3.8,0,1.1-.3.5-.4.7-.7c.1-.2.2-.6.2-1.1v-.4Z"/>
    <path class="cls-8" d="M385.1,1208.9v-8.6h1.1v8.6h-1.1Z"/>
    <path class="cls-8" d="M390.1,1207.9l.2.9c-.3,0-.6,0-.8,0-.4,0-.7,0-.9-.2s-.4-.3-.4-.5-.1-.6-.1-1.2v-3.6h-.8v-.8h.8v-1.5l1-.6v2.2h1.1v.8h-1.1v3.6c0,.3,0,.5,0,.6s0,.2.2.2.2,0,.4,0,.3,0,.5,0Z"/>
    <path class="cls-8" d="M391.1,1208.9v-8.6h1.1v3.1c.5-.6,1.1-.9,1.9-.9s.9,0,1.2.3.6.4.7.8.2.8.2,1.4v3.9h-1.1v-3.9c0-.5-.1-.9-.3-1.2s-.6-.4-1-.4-.6,0-.9.2-.5.4-.6.7-.2.7-.2,1.1v3.4h-1.1Z"/>
    <path class="cls-8" d="M407.4,1205.8l1.1.3c-.2.9-.7,1.6-1.3,2.1s-1.4.7-2.3.7-1.7-.2-2.3-.6-1-.9-1.3-1.6-.5-1.5-.5-2.3.2-1.7.5-2.3.8-1.2,1.5-1.5,1.3-.5,2.1-.5,1.6.2,2.2.7,1,1.1,1.2,1.8l-1.1.3c-.2-.6-.5-1.1-.9-1.4s-.9-.4-1.4-.4-1.2.2-1.7.5-.8.7-.9,1.3-.3,1.1-.3,1.6.1,1.4.3,1.9.5,1,1,1.2.9.4,1.5.4,1.2-.2,1.6-.6.7-.9.9-1.6Z"/>
    <path class="cls-8" d="M409.8,1208.9v-8.6h1.1v8.6h-1.1Z"/>
    <path class="cls-8" d="M412.5,1201.5v-1.2h1.1v1.2h-1.1ZM412.5,1208.9v-6.2h1.1v6.2h-1.1Z"/>
    <path class="cls-8" d="M415.1,1208.9v-6.2h.9v.9c.5-.7,1.1-1,2-1s.7,0,1,.2.5.3.7.5.3.5.3.8c0,.2,0,.5,0,1v3.8h-1.1v-3.8c0-.4,0-.8-.1-1s-.2-.4-.4-.5-.5-.2-.7-.2c-.4,0-.8.1-1.2.4s-.5.8-.5,1.6v3.4h-1.1Z"/>
    <path class="cls-8" d="M421.8,1201.5v-1.2h1.1v1.2h-1.1ZM421.8,1208.9v-6.2h1.1v6.2h-1.1Z"/>
    <path class="cls-8" d="M428.5,1206.6h1c-.1.8-.4,1.4-.9,1.8s-1,.6-1.7.6-1.5-.3-2.1-.8-.8-1.4-.8-2.4.1-1.3.3-1.8.6-.9,1-1.1,1-.4,1.5-.4,1.2.2,1.7.5.7.8.8,1.5l-1,.2c0-.4-.3-.7-.5-.9s-.5-.3-.9-.3c-.5,0-1,.2-1.3.6s-.5,1-.5,1.8.2,1.4.5,1.8.7.6,1.3.6.8-.1,1-.4.5-.6.5-1.2Z"/>
    <path class="cls-8" d="M361.2,1215.9c0,0,0,0,0,.1s0,0-.1,0h-1.6v1c.9.4,1.3.7,1.3,1.2s-.1.5-.3.5-.2,0-.2-.3c0-.2-.4-.8-.7-1.1v4c0,.9,0,1.8,0,2.4h0c0,.3,0,.3-.3.4-.1,0-.2,0-.3,0s-.1,0-.1-.2v-.2c0-.7,0-1.8,0-2.5v-4.2c-.5,1.6-1.1,2.7-2.1,4.1h-.1c.9-1.5,1.6-3.4,2-5.2h-.8c-.3,0-.6,0-.8.1l-.3-.4c.3,0,.6,0,.9,0h1.2v-1c0-.5,0-1.3,0-1.8l.9.4c0,0,0,0,0,0s0,0,0,0l-.3.3v1.9h.5l.4-.6.7.7ZM366.2,1218.9c0,0,0,0,0,.1s0,0-.1,0c-.2,0-.3,0-.4.3-.5.9-.8,1.5-1.4,2.1,1,1,2,1.5,3.5,1.8h0c-.5.2-.9.3-1,.5,0,0,0,0-.1,0,0,0-1.7-1-2.6-2-.9,1-2.3,1.8-4,2.4v-.2c1.6-.8,2.8-1.6,3.7-2.6-.5-.7-1-1.7-1.3-3h.2c.4,1.1,1,2.1,1.4,2.6.6-.8,1-1.6,1.5-2.9l.7.6ZM363.5,1216.5c0,0,0,0,0,0s0,0-.1,0c-.3,0-.3.2-.5.4-.9,1.2-1.7,2.1-2.1,2.4h-.1c.8-1.2,1.5-2.4,2-3.4l.7.4ZM367.7,1215.3c0,0,0,.1,0,.1,0,0,0,0-.1,0h-5.1c-.3,0-.6,0-.8.1l-.3-.4c.3,0,.6,0,.9,0h4.2l.5-.7.8.7ZM363.5,1213.1c.7.4,1.1.7,1.3,1.1,0,0,0,.2,0,.3,0,.3-.3.6-.5.6s-.2,0-.2-.3c0-.6-.4-1.2-.7-1.5h0ZM365.1,1216.3c1.5.8,2,1.2,2.2,1.6,0,.1,0,.2,0,.4,0,.3-.2.6-.4.6s-.2,0-.3-.3c-.3-.8-1.2-1.7-1.8-2.1h0Z"/>
    <path class="cls-8" d="M378.7,1215.7c0,0,.1.1.1.2s0,0-.1.1l-.3.2v6.9c0,.6-.1.8-.9,1.2,0,0,0,0,0,0,0,0,0,0,0-.1-.1-.5-.6-.7-1.8-1.1v-.2c.9.2,1.5.3,1.8.3s.4-.1.4-.4v-6.8h-3.4c0,.8-.1,1.4-.2,1.8,1.6.9,2.2,1.4,2.5,1.9.1.2.2.3.2.5,0,.3-.2.6-.4.6s-.2,0-.4-.6c0-.3-.7-1.3-1.9-2.1-.3,1.1-1.5,2.6-3.2,3.5h0c2.1-1.9,2.8-2.9,3-5.6h-3.2v5.4c0,.9,0,1.8,0,2.3h0c0,.2,0,.3-.3.4-.1,0-.2,0-.3,0s0,0,0-.3h0c0-.8,0-1.9,0-2.6v-4.5c0-.5,0-1.3,0-1.8l.7.7h3.1c0-.3,0-.5,0-.8,0-.6,0-1.2,0-2l1,.5c0,0,.1,0,.1,0s0,0-.1,0l-.3.2c0,.7,0,1.4,0,1.9h3.1l.4-.6.8.6Z"/>
    <path class="cls-8" d="M385,1220.8c-1.8,1.8-2.1,2.2-2.3,2.7,0,0,0,.1,0,.1s0,0,0,0l-.5-.7c.6-.3.6-.5.6-1v-4.3h-.9c-.2,0-.4,0-.6.2l-.4-.4c.3,0,.4,0,.7,0h1.1s.4-.5.4-.5l.8.6c0,0,0,0,0,.1s0,0,0,0l-.5.3v4.3l1.7-1.4v.2ZM382.1,1213.7c.4.2,1.7.9,1.7,1.5s-.2.6-.4.6-.2,0-.3-.5c0-.4-.3-1-1.1-1.6h0ZM390.8,1220.6c0,0,.1.1.1.2s0,0-.2,0c-.3,0-.4,0-.6.2-1.8,1.4-4,2.8-6.6,3.3h0c2.5-.9,5-2.6,6.6-4.3l.6.5ZM392,1217.6c-.7,0-.9.1-1.1.4,0,0,0,0,0,0s0,0-.1,0c-1.9-1.3-2.5-2.2-3-4-1.2,2.2-2.5,3.7-3.9,4.8h0c1.5-1.5,2.9-3.7,3.6-5.7l.9.5c0,0,0,0,0,.1,0,0-.3.1-.4.2,1,2.3,2.6,3.3,4.2,3.7h0ZM388.3,1217.3c0,0,.1.1.1.1s0,0-.2.1c-.2,0-.3.1-.4.2-.8.8-2,1.9-3.2,2.3h0c1.3-1,2.5-2.1,3.1-3.2l.6.4ZM389.4,1219c.1,0,.2.2.2.2,0,0,0,0-.2,0-.2,0-.4.1-.5.2-.8.8-2.6,2.2-4.1,2.7h0c1.5-.8,3.5-2.4,4.2-3.6l.5.4Z"/>
    <path class="cls-8" d="M398.1,1213.9s0,0,0,0,0,0,0,0c0,0-.4,0-.5,0-.2,0-.3,0-.6,0l-2.3.6c0,.8,0,1.3,0,1.8h1.9l.4-.5.7.5s0,0,0,0,0,0,0,0l-.3.2v1.5c0,.2,0,1.1,0,1.3s0,.2-.3.3c-.1,0-.2,0-.2,0,0,0,0,0,0-.2v-.4h-2.2c-.2,2.2-.6,3.4-1.9,4.8h-.1c1.3-1.7,1.5-3.8,1.5-7.4s0-2.3,0-3l.7.5c1-.4,1.6-.7,2.6-1.2l.7.7ZM396.9,1219.2v-2.5h-2.1c0,1,0,1.8,0,2.5h2.2ZM404,1217.5c0,0,0,.1,0,.1s0,0-.2,0h-2.1v3.9c0,.9,0,1.5,0,2.1h0c0,.2,0,.3-.3.4-.1,0-.2.1-.3.1,0,0,0,0,0-.2,0-.3,0-2.1,0-2.5v-3.8h-1.9c-.1,3.4-.3,4.8-3.2,6.6v-.2c2.6-2.2,2.7-3,2.7-8.8s0-.9,0-1.3l.7.6c1.1-.3,2.1-.7,3.3-1.2l.6.7s0,0,0,.1,0,0,0,0,0,0,0,0c-.2,0-.3,0-.5,0s-.3,0-.5,0l-2.9.6c0,.8,0,2,0,2.6h3.4l.5-.7.7.7Z"/>
  </g>
  <use width="119.8" height="150.5" transform="translate(595.8 1294)" xlink:href="#_新建符号"/>
  <use width="119.8" height="150.5" transform="translate(594.7 1469.9)" xlink:href="#_新建符号"/>
  <use width="119.8" height="150.5" transform="translate(593.5 1645.8)" xlink:href="#_新建符号"/>
  <use width="119.8" height="150.5" transform="translate(592.4 1821.7)" xlink:href="#_新建符号"/>
  <use width="119.8" height="150.5" transform="translate(592.4 1997.6)" xlink:href="#_新建符号"/>
  <use width="119.8" height="150.5" transform="translate(1097.7 1296.3)" xlink:href="#_新建符号"/>
  <use width="119.8" height="150.5" transform="translate(1096.6 1472.2)" xlink:href="#_新建符号"/>
  <use width="119.8" height="150.5" transform="translate(1095.4 1648.1)" xlink:href="#_新建符号"/>
  <use width="119.8" height="150.5" transform="translate(1094.3 1824)" xlink:href="#_新建符号"/>
  <g>
    <path class="cls-10" d="M645.6,1721v-3.6l-3.3-5h1.4l1.7,2.6c.3.5.6,1,.9,1.5.3-.4.6-1,.9-1.5l1.7-2.5h1.3l-3.4,5v3.6h-1.1Z"/>
    <path class="cls-10" d="M649.6,1717.9c0-1.2.3-2,1-2.6.5-.5,1.2-.7,2-.7s1.6.3,2.1.8.8,1.3.8,2.3-.1,1.4-.4,1.9-.6.8-1,1.1-1,.4-1.5.4c-.9,0-1.6-.3-2.1-.8s-.8-1.4-.8-2.4ZM650.7,1717.9c0,.8.2,1.4.5,1.8s.8.6,1.3.6,1-.2,1.3-.6.5-1,.5-1.8-.2-1.4-.5-1.7-.8-.6-1.3-.6-1,.2-1.3.6-.5,1-.5,1.8Z"/>
    <path class="cls-10" d="M656.5,1721.5l1,.2c0,.3.2.5.4.7.3.2.6.3,1.1.3s.9,0,1.1-.3.4-.5.5-.8c0-.2,0-.7,0-1.4-.5.5-1,.8-1.7.8s-1.5-.3-2-.9-.7-1.4-.7-2.2.1-1.1.3-1.6.5-.9.9-1.2.9-.4,1.4-.4,1.3.3,1.8.9v-.8h1v5.4c0,1,0,1.7-.3,2.1s-.5.7-.9,1-1,.4-1.6.4-1.3-.2-1.8-.5-.7-.8-.7-1.5ZM657.3,1717.8c0,.8.2,1.4.5,1.8s.7.6,1.2.6.9-.2,1.2-.6.5-1,.5-1.8-.2-1.3-.5-1.7-.7-.6-1.2-.6-.9.2-1.2.6-.5.9-.5,1.7Z"/>
    <path class="cls-10" d="M667.4,1720.3c-.4.3-.8.6-1.1.7s-.7.2-1.2.2c-.7,0-1.2-.2-1.6-.5s-.6-.8-.6-1.3,0-.6.2-.8.3-.5.5-.6.5-.3.8-.3c.2,0,.5-.1.9-.2.9-.1,1.5-.2,1.9-.4,0-.1,0-.2,0-.3,0-.4,0-.7-.3-.9-.3-.2-.7-.4-1.2-.4s-.9,0-1.1.3-.4.5-.5.9h-1c0-.6.2-.9.5-1.2s.5-.5.9-.6.9-.2,1.4-.2,1,0,1.3.2.6.3.7.5.3.4.3.7c0,.2,0,.5,0,1v1.4c0,1,0,1.6,0,1.9s.1.5.3.7h-1.1c-.1-.2-.2-.5-.2-.8ZM667.3,1717.9c-.4.2-1,.3-1.7.4-.4,0-.7.1-.9.2s-.3.2-.4.3-.1.3-.1.5c0,.3.1.5.3.7s.5.3.9.3.8,0,1.1-.3.5-.4.7-.7c.1-.2.2-.6.2-1.1v-.4Z"/>
    <path class="cls-10" d="M648,1727.2s0,0,0,0,0,0-.1,0h-1.5v3h.4l.4-.5.6.6s0,0,0,.1,0,0-.1,0h-1.4v3l1.3-.4v.2s-2.3,1-2.3,1c-.5.2-.6.3-.7.5,0,0,0,0,0,0s0,0,0,0l-.4-.6,1.8-.5v-3.2h-.4c-.2,0-.6,0-.8.1l-.3-.4c.3,0,.6,0,.8,0h.7v-3h-.6c-.3,0-.6,0-.8.1l-.3-.4c.3,0,.6,0,.9,0h1.9l.4-.5.7.6ZM655.3,1728.7c-.4,0-.6.2-.8.4,0,0,0,0,0,0,0,0-2.4-.9-3.6-3.1-1.6,1.7-2.7,2.9-3.9,3.6h-.1c1.5-1.4,2.9-3,3.7-4.4l.7.5c0,0,.1,0,.1.1,0,0,0,0-.1,0s-.2,0-.3,0c1,1.4,2.7,2.4,4.3,2.6h0ZM651.1,1730.1s0,0,0,0,0,0,0,0h-.2v4.9c0,.7,0,.8-.6,1.1,0,0,0,0,0,0,0,0,0,0,0,0,0-.3-.2-.4-.9-.6h0c.4,0,.6,0,.8,0,.3,0,.4-.1.4-.4v-1.7h-1.6v2.6c0,.1,0,.2-.3.3-.1,0-.2,0-.2,0s0,0,0-.1h0c0-.8,0-1.2,0-1.9v-3c0-.5,0-1.3,0-1.8l.5.4h1.6l.3-.4.6.5ZM650.3,1731.7v-1.3h-1.6v1.3h1.6ZM650.3,1733.2v-1.2h-1.6v1.2h1.6ZM652.4,1728.7s0,0,0,.1,0,0-.1,0h-2.5c-.3,0-.6,0-.8.1l-.3-.4c.3,0,.6,0,.9,0h1.8l.3-.5.7.6ZM654.2,1729.9s0,0,0,0c0,0,0,0,0,0h-.2v5.2c0,.8,0,.9-.9,1.3,0,0,0,0,0,0,0,0,0,0,0-.1,0-.3-.2-.5-1.2-.8v-.2c.7.2,1.1.2,1.3.2.3,0,.4-.2.4-.5v-4.1c0-.5,0-1.2,0-1.6l.8.4ZM652.6,1730.5c0,0,0,0,0,0s0,0,0,0l-.2.2v1.9c0,.4,0,.9,0,1.1h0c0,.2-.5.4-.5.4,0,0,0,0,0-.1h0c0-.6,0-1,0-1.4v-1.5c0-.4,0-.6,0-1l.8.3Z"/>
    <path class="cls-10" d="M659.6,1725.8c0,0,.1,0,.1.1,0,0,0,0-.1,0-.2,0-.3.2-.4.5-.3.8-.6,1.5-1,2.2l.5.3c0,0,0,0,0,0s-.2.3-.3.3v4.8c0,.7,0,1.2,0,1.8h0c0,.3,0,.3-.3.4-.1,0-.2,0-.2,0,0,0-.1,0-.1-.3h0c0-.8,0-1.4,0-2v-4.8c-.5,1-1,1.8-1.6,2.5h-.1c1.2-2,2.1-4.5,2.5-6.4l.8.5ZM663.1,1727.9c0,0,.1,0,.1.1s0,0,0,.1l-.4.2c0,.6,0,1.2,0,1.7,0,2,0,3.3,0,4,0,.8-.3,1.2-1,1.6,0,0-.1,0-.1,0s0,0,0-.1c0-.4-.4-.6-1.2-.8v-.2c.4,0,.7.1,1,.1.6,0,.9-.3.9-.8,0-1,0-2.6,0-4.2s0-1.1,0-1.6h-1.3c0,4.2-.3,6.2-2.3,8.3h-.2c1.6-2.1,1.9-4.1,1.9-8.3h-.5c-.3,0-.6,0-.8.1l-.3-.4c.3,0,.6,0,.9,0h.8c0-.4,0-2.3,0-2.7l.9.4c0,0,0,0,0,0s0,0,0,0l-.3.2c0,.3,0,1.3,0,2h1.1l.4-.6.7.5ZM666.9,1727.4s0,0,0,0,0,0,0,0l-.3.2v5.3c0,.9,0,1.7,0,2.2h0c0,.3,0,.3-.3.4-.1,0-.2,0-.2,0,0,0,0,0,0-.2v-1.2h-1.7v1.2c0,.1,0,.2-.3.3,0,0-.2,0-.2,0,0,0-.1,0-.1-.3h0c0-.8,0-1.9,0-2.6v-5.1c0-.3,0-.9,0-1.2l.7.6h1.3l.4-.5.8.6ZM666,1734.1v-6.5h-1.7v6.5h1.7Z"/>
  </g>
  <g>
    <path class="cls-10" d="M596.7,2077.6v-3.5h-1.3v-.5h3.1v.5h-1.3v3.5h-.5Z"/>
    <path class="cls-10" d="M599,2077.6v-3.9h1.7c.3,0,.6,0,.8.1s.3.2.4.4c.1.2.2.4.2.6s0,.5-.3.7c-.2.2-.5.3-.8.4.1,0,.2.1.3.2.2.1.3.3.4.5l.7,1.1h-.7l-.5-.8c-.2-.2-.3-.4-.4-.5,0-.1-.2-.2-.3-.3,0,0-.2,0-.2-.1,0,0-.2,0-.3,0h-.6v1.7h-.5ZM599.6,2075.4h1.1c.2,0,.4,0,.6,0,.1,0,.2-.1.3-.2,0-.1.1-.2.1-.4,0-.2,0-.3-.2-.5-.1-.1-.3-.2-.6-.2h-1.2v1.3Z"/>
    <path class="cls-10" d="M602.6,2077.6l1.5-3.9h.6l1.6,3.9h-.6l-.5-1.2h-1.6l-.4,1.2h-.5ZM603.7,2076h1.3l-.4-1.1c-.1-.3-.2-.6-.3-.8,0,.3-.1.5-.2.7l-.4,1.1Z"/>
    <path class="cls-10" d="M606.6,2077.6v-3.9h1.3c.3,0,.5,0,.7,0,.2,0,.4.1.6.3.2.2.4.4.5.7s.2.6.2.9,0,.6-.1.8-.2.4-.3.6c-.1.2-.2.3-.4.4-.1,0-.3.2-.5.2-.2,0-.4,0-.6,0h-1.4ZM607.2,2077.2h.8c.3,0,.5,0,.6,0s.3-.1.4-.2c.1-.1.2-.3.3-.5s.1-.5.1-.8,0-.7-.2-.9c-.1-.2-.3-.4-.5-.4-.1,0-.4,0-.7,0h-.8v3Z"/>
    <path class="cls-10" d="M610.7,2077.6v-3.9h.5v3.9h-.5Z"/>
    <path class="cls-10" d="M613.1,2077.6v-3.5h-1.3v-.5h3.1v.5h-1.3v3.5h-.5Z"/>
    <path class="cls-10" d="M615.5,2077.6v-3.9h.5v3.9h-.5Z"/>
    <path class="cls-10" d="M616.8,2075.7c0-.7.2-1.2.5-1.5.3-.4.8-.6,1.4-.6s.7,0,1,.3c.3.2.5.4.7.7.2.3.2.7.2,1.1s0,.8-.2,1.1-.4.6-.7.7c-.3.2-.6.2-1,.2s-.7,0-1-.3c-.3-.2-.5-.4-.7-.7-.1-.3-.2-.6-.2-1ZM617.3,2075.7c0,.5.1.8.4,1.1.3.3.6.4,1,.4s.7-.1,1-.4c.3-.3.4-.7.4-1.2s0-.6-.2-.8c-.1-.2-.3-.4-.5-.6s-.4-.2-.7-.2c-.4,0-.7.1-.9.4-.3.3-.4.7-.4,1.3Z"/>
    <path class="cls-10" d="M621.2,2077.6v-3.9h.5l2.1,3.1v-3.1h.5v3.9h-.5l-2.1-3.1v3.1h-.5Z"/>
    <path class="cls-10" d="M624.7,2077.6l1.5-3.9h.6l1.6,3.9h-.6l-.5-1.2h-1.6l-.4,1.2h-.5ZM625.9,2076h1.3l-.4-1.1c-.1-.3-.2-.6-.3-.8,0,.3-.1.5-.2.7l-.4,1.1Z"/>
    <path class="cls-10" d="M628.8,2077.6v-3.9h.5v3.5h1.9v.5h-2.4Z"/>
    <path class="cls-10" d="M636,2076.3h.5c-.1.6-.3.9-.6,1.1s-.6.3-1,.3-.8,0-1-.3c-.3-.2-.5-.4-.6-.7-.1-.3-.2-.7-.2-1s0-.8.2-1.1.4-.5.7-.7.6-.2.9-.2.7,0,1,.3.5.5.6.8h-.5c0-.2-.2-.4-.4-.5-.2-.1-.4-.2-.7-.2s-.6,0-.8.2c-.2.1-.3.3-.4.6s-.1.5-.1.8,0,.6.1.9c0,.2.2.4.5.6.2.1.4.2.7.2s.5,0,.7-.3c.2-.2.3-.4.4-.7Z"/>
    <path class="cls-10" d="M637.1,2077.6v-3.9h.5v1.6h2v-1.6h.5v3.9h-.5v-1.8h-2v1.8h-.5Z"/>
    <path class="cls-10" d="M641.2,2077.6v-3.9h.5v3.9h-.5Z"/>
    <path class="cls-10" d="M642.6,2077.6v-3.9h.5l2.1,3.1v-3.1h.5v3.9h-.5l-2.1-3.1v3.1h-.5Z"/>
    <path class="cls-10" d="M646.6,2077.6v-3.9h2.8v.5h-2.3v1.2h2.2v.5h-2.2v1.3h2.4v.5h-2.9Z"/>
    <path class="cls-10" d="M650,2076.4h.5c0,.2,0,.3.2.4,0,.1.2.2.4.3.2,0,.4.1.6.1s.4,0,.5,0,.3-.1.3-.2c0-.1.1-.2.1-.3s0-.2-.1-.3-.2-.2-.4-.2c-.1,0-.3-.1-.7-.2-.4,0-.6-.2-.8-.2-.2,0-.3-.2-.4-.4,0-.1-.1-.3-.1-.5s0-.4.2-.6.3-.3.5-.4c.2,0,.5-.1.7-.1s.5,0,.8.1c.2,0,.4.2.5.4s.2.4.2.6h-.5c0-.2-.1-.4-.3-.5-.2-.1-.4-.2-.7-.2s-.5,0-.7.2c-.1.1-.2.3-.2.4s0,.3.2.3c0,0,.4.2.8.3.4,0,.7.2.9.2.2.1.4.2.5.4.1.2.2.3.2.6s0,.4-.2.6-.3.3-.5.4c-.2.1-.5.2-.8.2s-.7,0-.9-.2c-.2-.1-.4-.3-.6-.5-.1-.2-.2-.4-.2-.7Z"/>
    <path class="cls-10" d="M653.8,2077.6v-3.9h2.8v.5h-2.3v1.2h2.2v.5h-2.2v1.3h2.4v.5h-2.9Z"/>
    <path class="cls-10" d="M659,2077.6v-3.9h.8l.9,2.8c0,.3.1.5.2.6,0-.1.1-.4.2-.6l.9-2.7h.7v3.9h-.5v-3.3l-1.1,3.3h-.5l-1.1-3.3v3.3h-.5Z"/>
    <path class="cls-10" d="M663.6,2077.6v-3.9h2.8v.5h-2.3v1.2h2.2v.5h-2.2v1.3h2.4v.5h-2.9Z"/>
    <path class="cls-10" d="M667.2,2077.6v-3.9h1.3c.3,0,.5,0,.7,0,.2,0,.4.1.6.3.2.2.4.4.5.7s.2.6.2.9,0,.6-.1.8-.2.4-.3.6c-.1.2-.2.3-.4.4-.1,0-.3.2-.5.2-.2,0-.4,0-.6,0h-1.4ZM667.7,2077.2h.8c.3,0,.5,0,.6,0s.3-.1.4-.2c.1-.1.2-.3.3-.5s.1-.5.1-.8,0-.7-.2-.9c-.1-.2-.3-.4-.5-.4-.1,0-.4,0-.7,0h-.8v3Z"/>
    <path class="cls-10" d="M671.2,2077.6v-3.9h.5v3.9h-.5Z"/>
    <path class="cls-10" d="M675.5,2076.3h.5c-.1.6-.3.9-.6,1.1s-.6.3-1,.3-.8,0-1-.3c-.3-.2-.5-.4-.6-.7-.1-.3-.2-.7-.2-1s0-.8.2-1.1.4-.5.7-.7.6-.2.9-.2.7,0,1,.3.5.5.6.8h-.5c0-.2-.2-.4-.4-.5-.2-.1-.4-.2-.7-.2s-.6,0-.8.2c-.2.1-.3.3-.4.6s-.1.5-.1.8,0,.6.1.9c0,.2.2.4.5.6.2.1.4.2.7.2s.5,0,.7-.3c.2-.2.3-.4.4-.7Z"/>
    <path class="cls-10" d="M676.7,2077.6v-3.9h.5v3.9h-.5Z"/>
    <path class="cls-10" d="M678.1,2077.6v-3.9h.5l2.1,3.1v-3.1h.5v3.9h-.5l-2.1-3.1v3.1h-.5Z"/>
    <path class="cls-10" d="M682.1,2077.6v-3.9h2.8v.5h-2.3v1.2h2.2v.5h-2.2v1.3h2.4v.5h-2.9Z"/>
    <path class="cls-10" d="M690.1,2076.3h.5c-.1.6-.3.9-.6,1.1s-.6.3-1,.3-.8,0-1-.3c-.3-.2-.5-.4-.6-.7-.1-.3-.2-.7-.2-1s0-.8.2-1.1.4-.5.7-.7.6-.2.9-.2.7,0,1,.3.5.5.6.8h-.5c0-.2-.2-.4-.4-.5-.2-.1-.4-.2-.7-.2s-.6,0-.8.2c-.2.1-.3.3-.4.6s-.1.5-.1.8,0,.6.1.9c0,.2.2.4.5.6.2.1.4.2.7.2s.5,0,.7-.3c.2-.2.3-.4.4-.7Z"/>
    <path class="cls-10" d="M691.2,2077.6v-3.9h2.8v.5h-2.3v1.2h2.2v.5h-2.2v1.3h2.4v.5h-2.9Z"/>
    <path class="cls-10" d="M694.9,2077.6v-3.9h.5l2.1,3.1v-3.1h.5v3.9h-.5l-2.1-3.1v3.1h-.5Z"/>
    <path class="cls-10" d="M699.8,2077.6v-3.5h-1.3v-.5h3.1v.5h-1.3v3.5h-.5Z"/>
    <path class="cls-10" d="M702.2,2077.6v-3.9h1.7c.3,0,.6,0,.8.1s.3.2.4.4c.1.2.2.4.2.6s0,.5-.3.7c-.2.2-.5.3-.8.4.1,0,.2.1.3.2.2.1.3.3.4.5l.7,1.1h-.7l-.5-.8c-.2-.2-.3-.4-.4-.5,0-.1-.2-.2-.3-.3,0,0-.2,0-.2-.1,0,0-.2,0-.3,0h-.6v1.7h-.5ZM702.7,2075.4h1.1c.2,0,.4,0,.6,0,.1,0,.2-.1.3-.2,0-.1.1-.2.1-.4,0-.2,0-.3-.2-.5-.1-.1-.3-.2-.6-.2h-1.2v1.3Z"/>
    <path class="cls-10" d="M706.1,2077.6v-3.9h2.8v.5h-2.3v1.2h2.2v.5h-2.2v1.3h2.4v.5h-2.9Z"/>
    <path class="cls-10" d="M643.5,2080.8s0,0,0,0,0,0,0,0h-.2v.9c0,.3,0,.5,0,.8h0c0,.1,0,.1-.1.2,0,0,0,0-.1,0,0,0,0,0,0,0v-.3h-1.6v.9c0,.4,0,.8,0,1.1h0c0,.1,0,.1-.1.2,0,0,0,0-.1,0,0,0,0,0,0-.1h0c0-.4,0-.9,0-1.2v-.9h-1.6v.3c0,0,0,0-.1.1,0,0,0,0-.1,0s0,0,0,0h0c0-.3,0-.5,0-.8v-.9c0-.1,0-.4,0-.6l.4.3h1.5v-.5c0-.2,0-.6,0-.8l.5.2s0,0,0,0,0,0,0,0h-.2v.9h1.5l.2-.3.4.3ZM641.2,2082.3v-1.4h-1.6v1.4h1.6ZM643.1,2082.3v-1.4h-1.6v1.4h1.6Z"/>
    <path class="cls-10" d="M649.1,2084.2s0,0,0,0c0,0,0,0,0,0h-4v.2c-.2,0-.2,0-.2,0s0,0,0,0l-.3-.3h.2v-3.5c0-.3,0-.7,0-.9l.4.3h3.4l.2-.3.3.3s0,0,0,0,0,0,0,0h-4v4h3.5l.2-.3.3.3ZM648.9,2082.2s0,0,0,0,0,0,0,0h-1.7c-.2.8-.6,1.2-1.8,1.7h0c1-.5,1.4-.9,1.6-1.7h-1.2c-.1,0-.3,0-.4,0l-.2-.2c.1,0,.3,0,.4,0h1.3c0-.3,0-.6,0-1h-.8c-.2.3-.4.6-.6.8h0c.4-.6.7-1.3.8-1.7l.3.2s0,0,0,0,0,0,0,0c0,0-.1,0-.2.2l-.2.3h1.6l.2-.3.3.3s0,0,0,0c0,0,0,0,0,0h-1.2c0,.4,0,.7,0,1h1.2l.2-.3.3.3ZM647.2,2082.7c1,.4,1.2.5,1.3.7,0,0,0,.2,0,.2,0,.1,0,.2-.1.2s0,0-.1,0c-.2-.3-.6-.6-1.2-1h0Z"/>
    <path class="cls-10" d="M654.7,2080.2s0,0,0,0,0,0,0,0h-1.6s0,.3,0,.3,0,0-.1.1c0,0,0,0,0,0,0,0,0,0,0-.1s0-.3,0-.3h-1.1c0,0,0,.3,0,.4s0,0-.1.1c0,0,0,0-.1,0,0,0,0,0,0-.1s0-.3,0-.4h-1.2c-.1,0-.3,0-.4,0l-.2-.2c.1,0,.3,0,.4,0h1.3v-.2c0-.1,0-.3,0-.5l.4.2s0,0,0,0-.2.1-.2.1v.3h1.1v-.2c0-.1,0-.3,0-.5l.4.2s0,0,0,0,0,0-.2.1v.3h1.1l.2-.3.3.3ZM652.2,2083.7l-1.1.3c-.6.2-.7.2-.8.3,0,0,0,0,0,0,0,0,0,0,0,0l-.2-.3,2.2-.4h0ZM652.1,2081.5s0,0,0,0,0,0,0,0c0,0-.2,0-.2,0-.4.4-.7.8-1.3,1.4h1.4c0-.1,0,0,0,0-1.3.2-1.4.3-1.6.4,0,0,0,0,0,0,0,0,0,0,0,0l-.2-.3c.3,0,.4-.1.5-.3.2-.2.4-.5.6-.7-.6,0-.9.2-1,.2,0,0,0,0,0,0s0,0,0,0v-.3c0,0,.2,0,.3-.3.2-.3.4-.6.6-1l.3.2s0,0,0,0c0,0,0,0,0,0,0,0-.2,0-.2,0-.3.3-.4.5-.8.8h.9c.2-.3.4-.5.5-.7l.3.2ZM654.6,2081.5s0,0,0,0,0,0,0,0l-.2.2c0,1-.1,1.5-.2,2,0,.5-.1.7-.6.9,0,0,0,0,0,0,0,0,0,0,0,0,0-.2-.1-.3-.7-.5h0c.3,0,.6,0,.7,0,.3,0,.3-.2.4-.5,0-.6.1-.9.2-2h-1.3c-.3.4-.5.7-.9,1.1h0c.5-.8.8-1.3,1.1-1.9l.3.2s0,0,0,0,0,0,0,0c0,0,0,0-.2.1,0,.1-.1.2-.2.3h1.1l.2-.3.4.3ZM652.6,2082.2c.4.2.6.3.7.6,0,0,0,0,0,.1,0,.2-.1.3-.2.3s-.1,0-.1-.2c0-.2-.1-.4-.4-.6h0Z"/>
    <path class="cls-10" d="M659.9,2080.8s0,0,0,0,0,0,0,0h-.2v.9c0,.3,0,.5,0,.8h0c0,.1,0,.1-.1.2,0,0,0,0-.1,0,0,0,0,0,0,0v-.3h-1.6v.9c0,.4,0,.8,0,1.1h0c0,.1,0,.1-.1.2,0,0,0,0-.1,0,0,0,0,0,0-.1h0c0-.4,0-.9,0-1.2v-.9h-1.6v.3c0,0,0,0-.1.1,0,0,0,0-.1,0s0,0,0,0h0c0-.3,0-.5,0-.8v-.9c0-.1,0-.4,0-.6l.4.3h1.5v-.5c0-.2,0-.6,0-.8l.5.2s0,0,0,0,0,0,0,0h-.2v.9h1.5l.2-.3.4.3ZM657.6,2082.3v-1.4h-1.6v1.4h1.6ZM659.5,2082.3v-1.4h-1.6v1.4h1.6Z"/>
    <path class="cls-10" d="M661.6,2081.5c0,.2,0,.3,0,.5,0,.8-.1,1.2-.4,1.4,0,0-.1,0-.2,0s-.2,0-.2-.1,0-.1,0-.2c.4-.4.5-.6.6-1.6h0ZM664.5,2082.9c0,.7,0,.8.2.9,0,0,0,0,0,0s0,0,0,0c-.2.4-.3.4-1.3.4s-1.1,0-1.1-.4v-2.6c0-.2,0-.4,0-.6l.4.2s0,0,0,0c0,0,0,0-.1.1v2.8c0,.3,0,.3,1,.3s.4,0,.5,0c.3,0,.3,0,.4-1.1h0ZM662.9,2079.8c.4.2.9.6.9.9s-.1.3-.2.3-.1,0-.1-.2c0-.3-.3-.7-.6-1.1h0ZM664.5,2081.4c.6.4,1,1,1.1,1.3,0,0,0,.1,0,.2,0,.2-.1.4-.2.4s-.1,0-.1-.2c0-.3-.4-1.1-.8-1.5h0Z"/>
  </g>
</svg>