<?xml version="1.0" encoding="UTF-8"?>
<svg id="_图层_1" data-name="图层 1" xmlns="http://www.w3.org/2000/svg" xmlns:xlink="http://www.w3.org/1999/xlink" viewBox="0 0 1152 911.5">
  <defs>
    <style>
      .cls-1 {
        fill: #000;
      }

      .cls-1, .cls-2, .cls-3 {
        stroke-width: 0px;
      }

      .cls-4, .cls-5, .cls-6 {
        stroke-miterlimit: 10;
      }

      .cls-4, .cls-6 {
        stroke: #000;
      }

      .cls-4, .cls-3 {
        fill: #fff;
      }

      .cls-5 {
        stroke: #a0a1a6;
      }

      .cls-5, .cls-6 {
        fill: none;
      }

      .cls-2 {
        fill: #a0a1a6;
      }
    </style>
    <symbol id="_考试椅子" data-name="考试椅子" viewBox="0 0 36 42.58">
      <g id="_桌椅" data-name=" 桌椅">
        <g>
          <g>
            <path class="cls-5" d="M9.59,31.39v-11.47h17v11.47c0,4.35-2.98,7.88-6.65,7.88h-3.69c-3.67,0-6.65-3.53-6.65-7.88h0Z"/>
            <path class="cls-5" d="M29.17,39.13s-10.46,6.65-22.17,0"/>
            <path class="cls-5" d="M29.17,34.83s-10.46,11.71-22.17,0"/>
            <polyline class="cls-5" points="26.42 40.2 25.43 38.54 24.2 40.8 22.45 39.97 18.45 41.51 13.96 40.12 11.73 40.78 11.03 38.76 9.21 40.03"/>
          </g>
          <polygon class="cls-2" points="0 0 36 0 36 19 0 19 0 0"/>
          <path class="cls-3" d="M18.5,14.5"/>
        </g>
      </g>
    </symbol>
  </defs>
  <use width="36" height="42.58" transform="translate(1116 184.92)" xlink:href="#_考试椅子"/>
  <use width="36" height="42.58" transform="translate(1116 241.92)" xlink:href="#_考试椅子"/>
  <use width="36" height="42.58" transform="translate(1116 298.92)" xlink:href="#_考试椅子"/>
  <use width="36" height="42.58" transform="translate(1116 355.92)" xlink:href="#_考试椅子"/>
  <use width="36" height="42.58" transform="translate(1116 412.92)" xlink:href="#_考试椅子"/>
  <use width="36" height="42.58" transform="translate(1116 469.92)" xlink:href="#_考试椅子"/>
  <use width="36" height="42.58" transform="translate(1116 526.92)" xlink:href="#_考试椅子"/>
  <use width="36" height="42.58" transform="translate(1116 583.92)" xlink:href="#_考试椅子"/>
  <use width="36" height="42.58" transform="translate(1116 640.92)" xlink:href="#_考试椅子"/>
  <use width="36" height="42.58" transform="translate(1116 697.92)" xlink:href="#_考试椅子"/>
  <use width="36" height="42.58" transform="translate(1116 754.92)" xlink:href="#_考试椅子"/>
  <use width="36" height="42.58" transform="translate(1116 811.92)" xlink:href="#_考试椅子"/>
  <use width="36" height="42.58" transform="translate(1116 868.92)" xlink:href="#_考试椅子"/>
  <use width="36" height="42.58" transform="translate(1054 184.92)" xlink:href="#_考试椅子"/>
  <use width="36" height="42.58" transform="translate(1054 241.92)" xlink:href="#_考试椅子"/>
  <use width="36" height="42.58" transform="translate(1054 298.92)" xlink:href="#_考试椅子"/>
  <use width="36" height="42.58" transform="translate(1054 355.92)" xlink:href="#_考试椅子"/>
  <use width="36" height="42.58" transform="translate(1054 412.92)" xlink:href="#_考试椅子"/>
  <use width="36" height="42.58" transform="translate(1054 469.92)" xlink:href="#_考试椅子"/>
  <use width="36" height="42.58" transform="translate(1054 526.92)" xlink:href="#_考试椅子"/>
  <use width="36" height="42.58" transform="translate(1054 583.92)" xlink:href="#_考试椅子"/>
  <use width="36" height="42.58" transform="translate(1054 640.92)" xlink:href="#_考试椅子"/>
  <use width="36" height="42.58" transform="translate(1054 697.92)" xlink:href="#_考试椅子"/>
  <use width="36" height="42.58" transform="translate(1054 754.92)" xlink:href="#_考试椅子"/>
  <use width="36" height="42.58" transform="translate(1054 811.92)" xlink:href="#_考试椅子"/>
  <use width="36" height="42.58" transform="translate(1054 868.92)" xlink:href="#_考试椅子"/>
  <use width="36" height="42.58" transform="translate(992 184.92)" xlink:href="#_考试椅子"/>
  <use width="36" height="42.58" transform="translate(992 241.92)" xlink:href="#_考试椅子"/>
  <use width="36" height="42.58" transform="translate(992 298.92)" xlink:href="#_考试椅子"/>
  <use width="36" height="42.58" transform="translate(992 355.92)" xlink:href="#_考试椅子"/>
  <use width="36" height="42.58" transform="translate(992 412.92)" xlink:href="#_考试椅子"/>
  <use width="36" height="42.58" transform="translate(992 469.92)" xlink:href="#_考试椅子"/>
  <use width="36" height="42.58" transform="translate(992 526.92)" xlink:href="#_考试椅子"/>
  <use width="36" height="42.58" transform="translate(992 583.92)" xlink:href="#_考试椅子"/>
  <use width="36" height="42.58" transform="translate(992 640.92)" xlink:href="#_考试椅子"/>
  <use width="36" height="42.58" transform="translate(992 697.92)" xlink:href="#_考试椅子"/>
  <use width="36" height="42.58" transform="translate(992 754.92)" xlink:href="#_考试椅子"/>
  <use width="36" height="42.58" transform="translate(992 811.92)" xlink:href="#_考试椅子"/>
  <use width="36" height="42.58" transform="translate(992 868.92)" xlink:href="#_考试椅子"/>
  <use width="36" height="42.58" transform="translate(930 184.92)" xlink:href="#_考试椅子"/>
  <use width="36" height="42.58" transform="translate(930 241.92)" xlink:href="#_考试椅子"/>
  <use width="36" height="42.58" transform="translate(930 298.92)" xlink:href="#_考试椅子"/>
  <use width="36" height="42.58" transform="translate(930 355.92)" xlink:href="#_考试椅子"/>
  <use width="36" height="42.58" transform="translate(930 412.92)" xlink:href="#_考试椅子"/>
  <use width="36" height="42.58" transform="translate(930 469.92)" xlink:href="#_考试椅子"/>
  <use width="36" height="42.58" transform="translate(930 526.92)" xlink:href="#_考试椅子"/>
  <use width="36" height="42.58" transform="translate(930 583.92)" xlink:href="#_考试椅子"/>
  <use width="36" height="42.58" transform="translate(930 640.92)" xlink:href="#_考试椅子"/>
  <use width="36" height="42.58" transform="translate(930 697.92)" xlink:href="#_考试椅子"/>
  <use width="36" height="42.58" transform="translate(930 754.92)" xlink:href="#_考试椅子"/>
  <use width="36" height="42.58" transform="translate(930 811.92)" xlink:href="#_考试椅子"/>
  <use width="36" height="42.58" transform="translate(930 868.92)" xlink:href="#_考试椅子"/>
  <use width="36" height="42.58" transform="translate(868 184.92)" xlink:href="#_考试椅子"/>
  <use width="36" height="42.58" transform="translate(868 241.92)" xlink:href="#_考试椅子"/>
  <use width="36" height="42.58" transform="translate(868 298.92)" xlink:href="#_考试椅子"/>
  <use width="36" height="42.58" transform="translate(868 355.92)" xlink:href="#_考试椅子"/>
  <use width="36" height="42.58" transform="translate(868 412.92)" xlink:href="#_考试椅子"/>
  <use width="36" height="42.58" transform="translate(868 469.92)" xlink:href="#_考试椅子"/>
  <use width="36" height="42.58" transform="translate(868 526.92)" xlink:href="#_考试椅子"/>
  <use width="36" height="42.58" transform="translate(868 583.92)" xlink:href="#_考试椅子"/>
  <use width="36" height="42.58" transform="translate(868 640.92)" xlink:href="#_考试椅子"/>
  <use width="36" height="42.58" transform="translate(868 697.92)" xlink:href="#_考试椅子"/>
  <use width="36" height="42.58" transform="translate(868 754.92)" xlink:href="#_考试椅子"/>
  <use width="36" height="42.58" transform="translate(868 811.92)" xlink:href="#_考试椅子"/>
  <use width="36" height="42.58" transform="translate(868 868.92)" xlink:href="#_考试椅子"/>
  <use width="36" height="42.58" transform="translate(806 184.92)" xlink:href="#_考试椅子"/>
  <use width="36" height="42.58" transform="translate(806 241.92)" xlink:href="#_考试椅子"/>
  <use width="36" height="42.58" transform="translate(806 298.92)" xlink:href="#_考试椅子"/>
  <use width="36" height="42.58" transform="translate(806 355.92)" xlink:href="#_考试椅子"/>
  <use width="36" height="42.58" transform="translate(806 412.92)" xlink:href="#_考试椅子"/>
  <use width="36" height="42.58" transform="translate(806 469.92)" xlink:href="#_考试椅子"/>
  <use width="36" height="42.58" transform="translate(806 526.92)" xlink:href="#_考试椅子"/>
  <use width="36" height="42.58" transform="translate(806 583.92)" xlink:href="#_考试椅子"/>
  <use width="36" height="42.58" transform="translate(806 640.92)" xlink:href="#_考试椅子"/>
  <use width="36" height="42.58" transform="translate(806 697.92)" xlink:href="#_考试椅子"/>
  <use width="36" height="42.58" transform="translate(806 754.92)" xlink:href="#_考试椅子"/>
  <use width="36" height="42.58" transform="translate(806 811.92)" xlink:href="#_考试椅子"/>
  <use width="36" height="42.58" transform="translate(806 868.92)" xlink:href="#_考试椅子"/>
  <use width="36" height="42.58" transform="translate(744 184.92)" xlink:href="#_考试椅子"/>
  <use width="36" height="42.58" transform="translate(744 241.92)" xlink:href="#_考试椅子"/>
  <use width="36" height="42.58" transform="translate(744 298.92)" xlink:href="#_考试椅子"/>
  <use width="36" height="42.58" transform="translate(744 640.92)" xlink:href="#_考试椅子"/>
  <use width="36" height="42.58" transform="translate(744 697.92)" xlink:href="#_考试椅子"/>
  <use width="36" height="42.58" transform="translate(744 754.92)" xlink:href="#_考试椅子"/>
  <use width="36" height="42.58" transform="translate(744 811.92)" xlink:href="#_考试椅子"/>
  <use width="36" height="42.58" transform="translate(744 868.92)" xlink:href="#_考试椅子"/>
  <use width="36" height="42.58" transform="translate(682 184.92)" xlink:href="#_考试椅子"/>
  <use width="36" height="42.58" transform="translate(682 241.92)" xlink:href="#_考试椅子"/>
  <use width="36" height="42.58" transform="translate(682 298.92)" xlink:href="#_考试椅子"/>
  <use width="36" height="42.58" transform="translate(682 640.92)" xlink:href="#_考试椅子"/>
  <use width="36" height="42.58" transform="translate(682 697.92)" xlink:href="#_考试椅子"/>
  <use width="36" height="42.58" transform="translate(682 754.92)" xlink:href="#_考试椅子"/>
  <use width="36" height="42.58" transform="translate(682 811.92)" xlink:href="#_考试椅子"/>
  <use width="36" height="42.58" transform="translate(682 868.92)" xlink:href="#_考试椅子"/>
  <use width="36" height="42.58" transform="translate(620 184.92)" xlink:href="#_考试椅子"/>
  <use width="36" height="42.58" transform="translate(620 241.92)" xlink:href="#_考试椅子"/>
  <use width="36" height="42.58" transform="translate(620 298.92)" xlink:href="#_考试椅子"/>
  <use width="36" height="42.58" transform="translate(620 640.92)" xlink:href="#_考试椅子"/>
  <use width="36" height="42.58" transform="translate(620 697.92)" xlink:href="#_考试椅子"/>
  <use width="36" height="42.58" transform="translate(620 754.92)" xlink:href="#_考试椅子"/>
  <use width="36" height="42.58" transform="translate(620 811.92)" xlink:href="#_考试椅子"/>
  <use width="36" height="42.58" transform="translate(620 868.92)" xlink:href="#_考试椅子"/>
  <use width="36" height="42.58" transform="translate(558 184.92)" xlink:href="#_考试椅子"/>
  <use width="36" height="42.58" transform="translate(558 241.92)" xlink:href="#_考试椅子"/>
  <use width="36" height="42.58" transform="translate(558 298.92)" xlink:href="#_考试椅子"/>
  <use width="36" height="42.58" transform="translate(558 640.92)" xlink:href="#_考试椅子"/>
  <use width="36" height="42.58" transform="translate(558 697.92)" xlink:href="#_考试椅子"/>
  <use width="36" height="42.58" transform="translate(558 754.92)" xlink:href="#_考试椅子"/>
  <use width="36" height="42.58" transform="translate(558 811.92)" xlink:href="#_考试椅子"/>
  <use width="36" height="42.58" transform="translate(558 868.92)" xlink:href="#_考试椅子"/>
  <use width="36" height="42.58" transform="translate(496 184.92)" xlink:href="#_考试椅子"/>
  <use width="36" height="42.58" transform="translate(496 241.92)" xlink:href="#_考试椅子"/>
  <use width="36" height="42.58" transform="translate(496 298.92)" xlink:href="#_考试椅子"/>
  <use width="36" height="42.58" transform="translate(496 640.92)" xlink:href="#_考试椅子"/>
  <use width="36" height="42.58" transform="translate(496 697.92)" xlink:href="#_考试椅子"/>
  <use width="36" height="42.58" transform="translate(496 754.92)" xlink:href="#_考试椅子"/>
  <use width="36" height="42.58" transform="translate(496 811.92)" xlink:href="#_考试椅子"/>
  <use width="36" height="42.58" transform="translate(496 868.92)" xlink:href="#_考试椅子"/>
  <use width="36" height="42.58" transform="translate(434 184.92)" xlink:href="#_考试椅子"/>
  <use width="36" height="42.58" transform="translate(434 241.92)" xlink:href="#_考试椅子"/>
  <use width="36" height="42.58" transform="translate(434 298.92)" xlink:href="#_考试椅子"/>
  <use width="36" height="42.58" transform="translate(434 640.92)" xlink:href="#_考试椅子"/>
  <use width="36" height="42.58" transform="translate(434 697.92)" xlink:href="#_考试椅子"/>
  <use width="36" height="42.58" transform="translate(434 754.92)" xlink:href="#_考试椅子"/>
  <use width="36" height="42.58" transform="translate(434 811.92)" xlink:href="#_考试椅子"/>
  <use width="36" height="42.58" transform="translate(434 868.92)" xlink:href="#_考试椅子"/>
  <use width="36" height="42.58" transform="translate(372 184.92)" xlink:href="#_考试椅子"/>
  <use width="36" height="42.58" transform="translate(372 241.92)" xlink:href="#_考试椅子"/>
  <use width="36" height="42.58" transform="translate(372 298.92)" xlink:href="#_考试椅子"/>
  <use width="36" height="42.58" transform="translate(372 640.92)" xlink:href="#_考试椅子"/>
  <use width="36" height="42.58" transform="translate(372 697.92)" xlink:href="#_考试椅子"/>
  <use width="36" height="42.58" transform="translate(372 754.92)" xlink:href="#_考试椅子"/>
  <use width="36" height="42.58" transform="translate(372 811.92)" xlink:href="#_考试椅子"/>
  <use width="36" height="42.58" transform="translate(372 868.92)" xlink:href="#_考试椅子"/>
  <use width="36" height="42.58" transform="translate(310 184.92)" xlink:href="#_考试椅子"/>
  <use width="36" height="42.58" transform="translate(310 241.92)" xlink:href="#_考试椅子"/>
  <use width="36" height="42.58" transform="translate(310 298.92)" xlink:href="#_考试椅子"/>
  <use width="36" height="42.58" transform="translate(310 355.92)" xlink:href="#_考试椅子"/>
  <use width="36" height="42.58" transform="translate(310 412.92)" xlink:href="#_考试椅子"/>
  <use width="36" height="42.58" transform="translate(310 469.92)" xlink:href="#_考试椅子"/>
  <use width="36" height="42.58" transform="translate(310 526.92)" xlink:href="#_考试椅子"/>
  <use width="36" height="42.58" transform="translate(310 583.92)" xlink:href="#_考试椅子"/>
  <use width="36" height="42.58" transform="translate(310 640.92)" xlink:href="#_考试椅子"/>
  <use width="36" height="42.58" transform="translate(310 697.92)" xlink:href="#_考试椅子"/>
  <use width="36" height="42.58" transform="translate(310 754.92)" xlink:href="#_考试椅子"/>
  <use width="36" height="42.58" transform="translate(310 811.92)" xlink:href="#_考试椅子"/>
  <use width="36" height="42.58" transform="translate(310 868.92)" xlink:href="#_考试椅子"/>
  <use width="36" height="42.58" transform="translate(248 184.92)" xlink:href="#_考试椅子"/>
  <use width="36" height="42.58" transform="translate(248 241.92)" xlink:href="#_考试椅子"/>
  <use width="36" height="42.58" transform="translate(248 298.92)" xlink:href="#_考试椅子"/>
  <use width="36" height="42.58" transform="translate(248 355.92)" xlink:href="#_考试椅子"/>
  <use width="36" height="42.58" transform="translate(248 412.92)" xlink:href="#_考试椅子"/>
  <use width="36" height="42.58" transform="translate(248 469.92)" xlink:href="#_考试椅子"/>
  <use width="36" height="42.58" transform="translate(248 526.92)" xlink:href="#_考试椅子"/>
  <use width="36" height="42.58" transform="translate(248 583.92)" xlink:href="#_考试椅子"/>
  <use width="36" height="42.58" transform="translate(248 640.92)" xlink:href="#_考试椅子"/>
  <use width="36" height="42.58" transform="translate(248 697.92)" xlink:href="#_考试椅子"/>
  <use width="36" height="42.58" transform="translate(248 754.92)" xlink:href="#_考试椅子"/>
  <use width="36" height="42.58" transform="translate(248 811.92)" xlink:href="#_考试椅子"/>
  <use width="36" height="42.58" transform="translate(248 868.92)" xlink:href="#_考试椅子"/>
  <use width="36" height="42.58" transform="translate(186 184.92)" xlink:href="#_考试椅子"/>
  <use width="36" height="42.58" transform="translate(186 241.92)" xlink:href="#_考试椅子"/>
  <use width="36" height="42.58" transform="translate(186 298.92)" xlink:href="#_考试椅子"/>
  <use width="36" height="42.58" transform="translate(186 355.92)" xlink:href="#_考试椅子"/>
  <use width="36" height="42.58" transform="translate(186 412.92)" xlink:href="#_考试椅子"/>
  <use width="36" height="42.58" transform="translate(186 469.92)" xlink:href="#_考试椅子"/>
  <use width="36" height="42.58" transform="translate(186 526.92)" xlink:href="#_考试椅子"/>
  <use width="36" height="42.58" transform="translate(186 583.92)" xlink:href="#_考试椅子"/>
  <use width="36" height="42.58" transform="translate(186 640.92)" xlink:href="#_考试椅子"/>
  <use width="36" height="42.58" transform="translate(186 697.92)" xlink:href="#_考试椅子"/>
  <use width="36" height="42.58" transform="translate(186 754.92)" xlink:href="#_考试椅子"/>
  <use width="36" height="42.58" transform="translate(186 811.92)" xlink:href="#_考试椅子"/>
  <use width="36" height="42.58" transform="translate(186 868.92)" xlink:href="#_考试椅子"/>
  <use width="36" height="42.58" transform="translate(124 184.92)" xlink:href="#_考试椅子"/>
  <use width="36" height="42.58" transform="translate(124 241.92)" xlink:href="#_考试椅子"/>
  <use width="36" height="42.58" transform="translate(124 298.92)" xlink:href="#_考试椅子"/>
  <use width="36" height="42.58" transform="translate(124 355.92)" xlink:href="#_考试椅子"/>
  <use width="36" height="42.58" transform="translate(124 412.92)" xlink:href="#_考试椅子"/>
  <use width="36" height="42.58" transform="translate(124 469.92)" xlink:href="#_考试椅子"/>
  <use width="36" height="42.58" transform="translate(124 526.92)" xlink:href="#_考试椅子"/>
  <use width="36" height="42.58" transform="translate(124 583.92)" xlink:href="#_考试椅子"/>
  <use width="36" height="42.58" transform="translate(124 640.92)" xlink:href="#_考试椅子"/>
  <use width="36" height="42.58" transform="translate(124 697.92)" xlink:href="#_考试椅子"/>
  <use width="36" height="42.58" transform="translate(124 754.92)" xlink:href="#_考试椅子"/>
  <use width="36" height="42.58" transform="translate(124 811.92)" xlink:href="#_考试椅子"/>
  <use width="36" height="42.58" transform="translate(124 868.92)" xlink:href="#_考试椅子"/>
  <use width="36" height="42.58" transform="translate(62 184.92)" xlink:href="#_考试椅子"/>
  <use width="36" height="42.58" transform="translate(62 241.92)" xlink:href="#_考试椅子"/>
  <use width="36" height="42.58" transform="translate(62 298.92)" xlink:href="#_考试椅子"/>
  <use width="36" height="42.58" transform="translate(62 355.92)" xlink:href="#_考试椅子"/>
  <use width="36" height="42.58" transform="translate(62 412.92)" xlink:href="#_考试椅子"/>
  <use width="36" height="42.58" transform="translate(62 469.92)" xlink:href="#_考试椅子"/>
  <use width="36" height="42.58" transform="translate(62 526.92)" xlink:href="#_考试椅子"/>
  <use width="36" height="42.58" transform="translate(62 583.92)" xlink:href="#_考试椅子"/>
  <use width="36" height="42.58" transform="translate(62 640.92)" xlink:href="#_考试椅子"/>
  <use width="36" height="42.58" transform="translate(62 697.92)" xlink:href="#_考试椅子"/>
  <use width="36" height="42.58" transform="translate(62 754.92)" xlink:href="#_考试椅子"/>
  <use width="36" height="42.58" transform="translate(62 811.92)" xlink:href="#_考试椅子"/>
  <use width="36" height="42.58" transform="translate(62 868.92)" xlink:href="#_考试椅子"/>
  <use width="36" height="42.58" transform="translate(0 184.92)" xlink:href="#_考试椅子"/>
  <use width="36" height="42.58" transform="translate(0 241.92)" xlink:href="#_考试椅子"/>
  <use width="36" height="42.58" transform="translate(0 298.92)" xlink:href="#_考试椅子"/>
  <use width="36" height="42.58" transform="translate(0 355.92)" xlink:href="#_考试椅子"/>
  <use width="36" height="42.58" transform="translate(0 412.92)" xlink:href="#_考试椅子"/>
  <use width="36" height="42.58" transform="translate(0 469.92)" xlink:href="#_考试椅子"/>
  <use width="36" height="42.58" transform="translate(0 526.92)" xlink:href="#_考试椅子"/>
  <use width="36" height="42.58" transform="translate(0 583.92)" xlink:href="#_考试椅子"/>
  <use width="36" height="42.58" transform="translate(0 640.92)" xlink:href="#_考试椅子"/>
  <use width="36" height="42.58" transform="translate(0 697.92)" xlink:href="#_考试椅子"/>
  <use width="36" height="42.58" transform="translate(0 754.92)" xlink:href="#_考试椅子"/>
  <use width="36" height="42.58" transform="translate(0 811.92)" xlink:href="#_考试椅子"/>
  <use width="36" height="42.58" transform="translate(0 868.92)" xlink:href="#_考试椅子"/>
  <g>
    <circle class="cls-4" cx="576" cy="84" r="83.5"/>
    <circle class="cls-1" cx="576.5" cy="83.5" r="3.5"/>
    <g>
      <rect class="cls-6" x="575" y="83" width="26.87" height="1"/>
      <polygon class="cls-1" points="603.5 83.39 602.07 85.27 602.17 81.58 603.5 83.39"/>
    </g>
    <g>
      <rect class="cls-6" x="541.43" y="44.96" width="69.47" height="1" transform="translate(530.7 621.63) rotate(-90)"/>
      <polygon class="cls-1" points="576.06 6.5 577.94 10.19 574.24 9.95 576.06 6.5"/>
    </g>
  </g>
  <g>
    <path class="cls-3" d="M427.56,454.86v-24.11h17.44v2.85h-14.25v7.39h13.34v2.83h-13.34v8.21h14.8v2.85h-18Z"/>
    <path class="cls-3" d="M447.61,454.86l6.38-9.08-5.91-8.39h3.7l2.68,4.1c.5.78.91,1.43,1.22,1.96.48-.72.93-1.37,1.33-1.92l2.94-4.13h3.54l-6.04,8.22,6.5,9.24h-3.64l-3.59-5.43-.95-1.46-4.59,6.89h-3.59Z"/>
    <path class="cls-3" d="M477.83,452.7c-1.1.93-2.15,1.59-3.17,1.97-1.01.38-2.1.58-3.27.58-1.92,0-3.39-.47-4.42-1.41-1.03-.94-1.55-2.14-1.55-3.59,0-.85.19-1.64.58-2.34.39-.71.9-1.27,1.53-1.7.63-.43,1.34-.75,2.13-.97.58-.15,1.46-.3,2.63-.44,2.39-.29,4.15-.62,5.28-1.02.01-.41.02-.66.02-.77,0-1.21-.28-2.06-.84-2.55-.76-.67-1.88-1-3.37-1-1.39,0-2.42.24-3.08.73-.66.49-1.15,1.35-1.47,2.59l-2.9-.39c.26-1.24.7-2.24,1.3-3,.6-.76,1.47-1.35,2.62-1.76s2.46-.62,3.96-.62,2.7.18,3.64.53c.93.35,1.62.79,2.06,1.32.44.53.75,1.2.92,2.02.1.5.15,1.41.15,2.73v3.95c0,2.75.06,4.49.19,5.22s.38,1.43.75,2.1h-3.09c-.31-.61-.5-1.33-.59-2.15ZM477.58,446.09c-1.07.44-2.69.81-4.84,1.12-1.22.18-2.08.37-2.58.59s-.89.54-1.17.96c-.27.42-.41.89-.41,1.41,0,.79.3,1.45.9,1.97s1.47.79,2.62.79,2.15-.25,3.04-.75c.89-.5,1.54-1.18,1.96-2.05.32-.67.48-1.66.48-2.96v-1.09Z"/>
    <path class="cls-3" d="M485.17,454.86v-17.47h2.65v2.45c.55-.86,1.28-1.54,2.19-2.06.91-.52,1.95-.78,3.11-.78,1.29,0,2.35.27,3.18.81.83.54,1.41,1.29,1.75,2.25,1.38-2.04,3.18-3.06,5.4-3.06,1.73,0,3.06.48,4,1.44s1.4,2.44,1.4,4.43v11.99h-2.94v-11c0-1.18-.1-2.04-.29-2.56-.19-.52-.54-.94-1.04-1.26-.5-.32-1.1-.48-1.78-.48-1.23,0-2.25.41-3.06,1.23-.81.82-1.22,2.12-1.22,3.92v10.15h-2.96v-11.35c0-1.32-.24-2.3-.72-2.96-.48-.66-1.27-.99-2.37-.99-.83,0-1.6.22-2.31.66-.71.44-1.22,1.08-1.54,1.92-.32.84-.48,2.06-.48,3.65v9.06h-2.96Z"/>
    <path class="cls-3" d="M513.25,434.15v-3.41h2.96v3.41h-2.96ZM513.25,454.86v-17.47h2.96v17.47h-2.96Z"/>
    <path class="cls-3" d="M520.71,454.86v-17.47h2.66v2.48c1.28-1.92,3.14-2.88,5.56-2.88,1.05,0,2.02.19,2.9.57.88.38,1.54.87,1.98,1.49s.75,1.34.92,2.19c.11.55.16,1.51.16,2.88v10.74h-2.96v-10.63c0-1.21-.12-2.11-.35-2.71-.23-.6-.64-1.07-1.23-1.43-.59-.36-1.27-.53-2.06-.53-1.26,0-2.35.4-3.27,1.2-.92.8-1.37,2.32-1.37,4.56v9.54h-2.96Z"/>
    <path class="cls-3" d="M550.85,452.7c-1.1.93-2.15,1.59-3.17,1.97-1.01.38-2.1.58-3.27.58-1.92,0-3.39-.47-4.42-1.41-1.03-.94-1.55-2.14-1.55-3.59,0-.85.19-1.64.58-2.34.39-.71.9-1.27,1.53-1.7.63-.43,1.34-.75,2.13-.97.58-.15,1.46-.3,2.63-.44,2.39-.29,4.15-.62,5.28-1.02.01-.41.02-.66.02-.77,0-1.21-.28-2.06-.84-2.55-.76-.67-1.88-1-3.37-1-1.39,0-2.42.24-3.08.73-.66.49-1.15,1.35-1.47,2.59l-2.9-.39c.26-1.24.7-2.24,1.3-3,.6-.76,1.47-1.35,2.62-1.76s2.46-.62,3.96-.62,2.7.18,3.64.53c.93.35,1.62.79,2.06,1.32.44.53.75,1.2.92,2.02.1.5.15,1.41.15,2.73v3.95c0,2.75.06,4.49.19,5.22s.38,1.43.75,2.1h-3.09c-.31-.61-.5-1.33-.59-2.15ZM550.6,446.09c-1.07.44-2.69.81-4.84,1.12-1.22.18-2.08.37-2.58.59s-.89.54-1.17.96c-.27.42-.41.89-.41,1.41,0,.79.3,1.45.9,1.97s1.47.79,2.62.79,2.15-.25,3.04-.75c.89-.5,1.54-1.18,1.96-2.05.32-.67.48-1.66.48-2.96v-1.09Z"/>
    <path class="cls-3" d="M564.65,452.21l.43,2.62c-.83.18-1.58.26-2.24.26-1.08,0-1.91-.17-2.5-.51s-1.01-.79-1.25-1.34c-.24-.55-.36-1.72-.36-3.5v-10.05h-2.17v-2.3h2.17v-4.33l2.94-1.78v6.1h2.98v2.3h-2.98v10.21c0,.84.05,1.39.16,1.63.1.24.27.43.51.58s.57.21,1.01.21c.33,0,.76-.04,1.3-.12Z"/>
    <path class="cls-3" d="M567.56,434.15v-3.41h2.96v3.41h-2.96ZM567.56,454.86v-17.47h2.96v17.47h-2.96Z"/>
    <path class="cls-3" d="M573.93,446.12c0-3.23.9-5.63,2.7-7.19,1.5-1.29,3.33-1.94,5.49-1.94,2.4,0,4.36.79,5.89,2.36,1.52,1.57,2.29,3.75,2.29,6.52,0,2.25-.34,4.02-1.01,5.31-.67,1.29-1.66,2.29-2.94,3-1.29.71-2.69,1.07-4.22,1.07-2.45,0-4.42-.78-5.93-2.35-1.51-1.57-2.26-3.83-2.26-6.78ZM576.97,446.12c0,2.24.49,3.91,1.46,5.02.98,1.11,2.2,1.67,3.68,1.67s2.69-.56,3.67-1.68c.98-1.12,1.46-2.82,1.46-5.12,0-2.16-.49-3.8-1.47-4.91-.98-1.11-2.2-1.67-3.66-1.67s-2.71.55-3.68,1.66c-.98,1.11-1.46,2.78-1.46,5.02Z"/>
    <path class="cls-3" d="M593.76,454.86v-17.47h2.66v2.48c1.28-1.92,3.14-2.88,5.56-2.88,1.05,0,2.02.19,2.9.57.88.38,1.54.87,1.98,1.49s.75,1.34.92,2.19c.11.55.16,1.51.16,2.88v10.74h-2.96v-10.63c0-1.21-.12-2.11-.35-2.71-.23-.6-.64-1.07-1.23-1.43-.59-.36-1.27-.53-2.06-.53-1.26,0-2.35.4-3.27,1.2-.92.8-1.37,2.32-1.37,4.56v9.54h-2.96Z"/>
    <path class="cls-3" d="M622.29,454.86v-24.11h10.69c2.15,0,3.78.22,4.9.65,1.12.43,2.01,1.2,2.68,2.29s1,2.31,1,3.64c0,1.71-.55,3.15-1.66,4.33-1.11,1.17-2.82,1.92-5.13,2.24.84.41,1.49.81,1.92,1.2.93.86,1.81,1.92,2.65,3.21l4.19,6.56h-4.01l-3.19-5.02c-.93-1.45-1.7-2.56-2.3-3.32s-1.14-1.3-1.62-1.61-.96-.52-1.46-.64c-.36-.08-.95-.12-1.78-.12h-3.7v10.71h-3.19ZM625.48,441.39h6.86c1.46,0,2.6-.15,3.42-.45.82-.3,1.45-.78,1.88-1.45s.64-1.38.64-2.16c0-1.14-.41-2.08-1.24-2.81-.83-.73-2.14-1.1-3.92-1.1h-7.63v7.98Z"/>
    <path class="cls-3" d="M645.09,446.12c0-3.23.9-5.63,2.7-7.19,1.5-1.29,3.33-1.94,5.49-1.94,2.4,0,4.36.79,5.89,2.36,1.52,1.57,2.29,3.75,2.29,6.52,0,2.25-.34,4.02-1.01,5.31-.67,1.29-1.66,2.29-2.94,3-1.29.71-2.69,1.07-4.22,1.07-2.45,0-4.42-.78-5.93-2.35-1.51-1.57-2.26-3.83-2.26-6.78ZM648.13,446.12c0,2.24.49,3.91,1.46,5.02.98,1.11,2.2,1.67,3.68,1.67s2.69-.56,3.67-1.68c.98-1.12,1.46-2.82,1.46-5.12,0-2.16-.49-3.8-1.47-4.91-.98-1.11-2.2-1.67-3.66-1.67s-2.71.55-3.68,1.66c-.98,1.11-1.46,2.78-1.46,5.02Z"/>
    <path class="cls-3" d="M663.82,446.12c0-3.23.9-5.63,2.7-7.19,1.5-1.29,3.33-1.94,5.49-1.94,2.4,0,4.36.79,5.89,2.36,1.52,1.57,2.29,3.75,2.29,6.52,0,2.25-.34,4.02-1.01,5.31-.67,1.29-1.66,2.29-2.94,3-1.29.71-2.69,1.07-4.22,1.07-2.45,0-4.42-.78-5.93-2.35-1.51-1.57-2.26-3.83-2.26-6.78ZM666.86,446.12c0,2.24.49,3.91,1.46,5.02.98,1.11,2.2,1.67,3.68,1.67s2.69-.56,3.67-1.68c.98-1.12,1.46-2.82,1.46-5.12,0-2.16-.49-3.8-1.47-4.91-.98-1.11-2.2-1.67-3.66-1.67s-2.71.55-3.68,1.66c-.98,1.11-1.46,2.78-1.46,5.02Z"/>
    <path class="cls-3" d="M683.66,454.86v-17.47h2.65v2.45c.55-.86,1.28-1.54,2.19-2.06.91-.52,1.95-.78,3.11-.78,1.29,0,2.35.27,3.18.81.83.54,1.41,1.29,1.75,2.25,1.38-2.04,3.18-3.06,5.4-3.06,1.73,0,3.06.48,4,1.44s1.4,2.44,1.4,4.43v11.99h-2.94v-11c0-1.18-.1-2.04-.29-2.56-.19-.52-.54-.94-1.04-1.26-.5-.32-1.1-.48-1.78-.48-1.23,0-2.25.41-3.06,1.23-.81.82-1.22,2.12-1.22,3.92v10.15h-2.96v-11.35c0-1.32-.24-2.3-.72-2.96-.48-.66-1.27-.99-2.37-.99-.83,0-1.6.22-2.31.66-.71.44-1.22,1.08-1.54,1.92-.32.84-.48,2.06-.48,3.65v9.06h-2.96Z"/>
    <path class="cls-3" d="M532.13,518.49c.17.17.24.3.24.37,0,.1-.1.17-.37.17h-13.41c-1.62,1.45-3.4,2.9-5.36,4.28h12.16l1.38-1.85,2.22,2.09c.17.13.24.27.24.34,0,.1-.13.17-.4.17h-11.15l-1.55,4.04h7.78l1.15-1.31,2.09,1.72c.13.1.17.17.17.27,0,.07-.07.17-.24.24l-1.25.57c-.77,6.37-1.65,8.15-5.22,9.13-.03.03-.07.03-.07.03-.1,0-.2-.1-.27-.37-.27-1.04-.84-1.55-4.25-2.76l.13-.5c2.26.61,3.77.91,4.75.91,1.62,0,2.02-.74,2.49-2.32.4-1.28.67-2.73.88-4.85h-7.95l-.74.78c-.1.1-.17.17-.27.17s-.2-.07-.37-.17l-1.68-1.31,1.45-.94,1.21-3.3h-3.71c-3.5,2.43-7.31,4.65-11.12,6.33l-.17-.4c6.1-3.37,11.42-7.14,15.63-10.95h-12.67c-.71,0-1.72.13-2.26.34l-.94-1.21c.81.07,1.68.13,2.46.13h10.21v-5.05h-6.23c-.67,0-1.65.13-2.16.34l-.91-1.21c.77.07,1.62.13,2.36.13h6.94v-2.29c0-1.31-.03-2.12-.1-3.3l2.39,1.04c.2.1.34.17.34.24,0,.1-.1.2-.27.34l-.84.71v3.27h3.37l1.35-1.72,1.99,1.99c.17.17.27.27.27.37,0,.07-.13.1-.37.1h-6.6v5.05h2.49c3.64-3.37,6.2-6.23,8.49-9.64l1.95,1.55c.1.07.13.13.13.17,0,.07-.07.13-.27.17-.54.1-.98.37-1.31.74-2.02,2.26-4.31,4.62-6.94,7.01h8.93l1.55-2.02,2.22,2.22Z"/>
    <path class="cls-3" d="M545.94,529.81c-4.48,4.38-5.73,5.79-6.4,6.94-.17.3-.27.4-.37.4s-.17-.07-.3-.24l-1.38-1.75c1.21-.74,1.62-1.35,1.62-2.29v-12.9l-2.49.17c-.54.03-.88.07-1.28.2l-.94-.98c.71.07,1.11.1,1.58.07l2.83-.17,1.15-1.52,2.09,1.68c.17.13.27.24.27.3,0,.1-.1.2-.3.34l-1.38.91v12.26l5.05-3.84.27.4ZM537.86,508.96c3.67,1.85,4.65,3.6,4.65,4.55s-.67,1.72-1.31,1.72c-.34,0-.54-.24-.74-1.52-.13-.78-.91-2.73-2.76-4.38l.17-.37ZM556.32,530.76l-6.44,2.53c-3.84,1.52-4.25,1.79-4.62,2.19-.1.1-.17.17-.24.17-.1,0-.2-.1-.37-.3l-1.21-1.48,5.63-1.58v-9.77h-1.95c-1.25,0-1.75.03-2.32.17l-.84-.98c.88.07,1.31.1,2.43.1h5.76l1.18-1.55,1.82,1.82c.13.13.2.24.2.3,0,.1-.1.13-.34.13h-4.38v9.33l5.56-1.55.13.47ZM565.55,515.63c.3.27.44.4.44.54,0,.1-.17.13-.54.13h-8.39c0,13.71,2.96,16.81,4.41,18.29.47.5.84.77,1.11.77.3,0,.54-.3.71-1.04l1.04-4.31.47.1c-.27,1.85-.4,3.27-.4,4.35,0,1.35.2,2.16.47,2.53.4.47.57.77.57.98s-.2.4-.47.4c-.44,0-1.52-.3-2.32-.81-6.74-4.41-6.87-13.07-7.04-21.26h-8.49c-1.01,0-1.65.1-2.22.3l-1.04-1.14c.81.07,1.75.1,2.53.1h9.23c-.03-2.12-.07-4.78-.1-8.22l2.63,1.35c.2.1.34.2.34.3,0,.07-.1.17-.27.27l-.94.67c-.1,1.75-.17,3.91-.2,5.63h5.19l1.38-1.68,1.92,1.75ZM559.55,509.56c2.63.71,3.6,1.55,3.6,2.49,0,.81-.64,1.52-.94,1.52s-.44-.1-.64-.88c-.17-.64-.67-1.62-2.12-2.86l.1-.27Z"/>
    <path class="cls-3" d="M586.1,517.14c.24.24.34.4.34.54s-.2.2-.61.2h-5.36c-.94,1.11-1.92,2.19-2.9,3.23h3.64l.91-.84,1.45,1.11c.2.13.3.27.3.37,0,.17-.2.3-.64.47-1.01.37-2.39,1.35-4.21,3.1.34.17.47.3.47.4,0,.13-.1.17-.84.61v2.06c2.26-.4,4.38-.81,6.37-1.18l.13.51-6.5,1.65v6.03c0,1.04-.44,1.68-2.19,2.66-.07.03-.13.07-.2.07-.1,0-.2-.1-.24-.34-.24-1.01-1.08-1.62-3.64-2.29l.1-.5c1.82.44,2.93.64,3.64.64.88,0,1.04-.34,1.04-.91v-4.99l-2.59.64c-2.19.54-3.07.88-3.71,1.52l-1.38-1.99c2.66-.4,5.22-.84,7.68-1.25v-1.08c0-1.31-.03-2.12-.1-3.3l1.55.84,2.66-3.33h-4.38c-2.53,2.53-5.32,4.85-8.39,6.77l-.2-.44c2.66-2.06,4.99-4.18,7.08-6.33h-2.02c-.51,0-1.04.07-1.55.24l-1.11-1.01c.88.07,1.38.1,2.02.1h3.3c1.01-1.08,1.92-2.16,2.8-3.23h-7.01c-.67,0-1.65.13-2.16.34l-.91-1.21c.77.07,1.62.13,2.36.13h4.89v-4.21h-2.46c-.67,0-1.65.13-2.16.34l-.91-1.21c.77.07,1.62.13,2.36.13h3.17v-2.19c0-1.31-.03-2.12-.1-3.3l2.19,1.08c.24.13.37.24.37.34,0,.13-.07.2-.94.77v3.3h1.58l1.04-1.21,1.21,1.21c.3.3.44.47.44.57,0,.13-.2.17-.61.17h-3.67v4.21h1.89c1.79-2.29,3.34-4.62,4.72-7.01l1.45,1.01c.3.2.44.37.44.47,0,.13-.13.24-.4.3-.57.17-.71.27-1.04.74-1.08,1.52-2.22,3.03-3.44,4.48h2.66l1.01-1.31,1.31,1.31ZM595.63,515.33c-.74,6.03-1.75,11.59-3.6,14.59,2.39,3.37,4.58,4.75,7.75,5.9l-.03.44c-.44-.03-.81-.03-1.11-.03-1.21,0-1.52.2-1.95.77-.07.07-.13.13-.2.13-.2,0-3.34-2.63-5.42-5.86-2.56,3.13-6.4,5.63-11.79,7.58l-.13-.44c5.49-2.76,9.06-5.36,11.15-8.46-1.35-2.63-2.22-6.87-2.53-11.19-.98,2.36-1.72,3.74-2.73,5.53l-.37-.24c3.34-8.46,4.58-12.7,5.42-17.28l2.43,1.58c.13.1.2.17.2.24,0,.1-.13.2-.44.3-.71.24-.84.37-1.11,1.08-.67,1.82-1.21,3.34-1.72,4.62h6.54l1.35-1.62,1.68,1.62c.27.24.4.44.4.54,0,.13-.2.2-.54.2h-3.23ZM589.13,515.33c-.34.91-.64,1.72-.94,2.43.44,4.41,1.75,8.52,2.93,10.75,1.72-3.33,2.26-7.51,2.8-13.17h-4.78Z"/>
    <path class="cls-3" d="M632.19,536.89c.13.13.2.24.2.3,0,.1-.1.17-.3.17h-26.38c-.71,0-1.72.13-2.26.34l-.94-1.21c.81.07,1.68.13,2.46.13h12.06v-5.49h-7.24c-.67,0-1.65.13-2.16.34l-.91-1.21c.77.07,1.62.13,2.36.13h7.95v-1.99c0-1.31-.03-2.16-.1-3.34l2.39,1.28c.2.1.27.2.27.27,0,.1-.07.17-.24.27l-.81.47v3.03h6.23l1.38-1.85,2.12,2.05c.2.2.27.3.27.4s-.1.13-.37.13h-9.64v5.49h9.7l1.42-2.02,2.53,2.29ZM632.35,513.51c.1.1.13.2.13.27,0,.13-.1.24-.37.27-1.31.13-2.12.47-3.64,2.09l-.4-.3,1.31-2.43h-22.51c-.27,2.7-1.28,4.35-2.8,4.35-.71,0-1.11-.44-1.11-.81,0-.4.34-.84,1.01-1.31,1.04-.74,1.89-1.75,2.43-4.45h.51c.03.54.03,1.01,0,1.48h22.2l1.08-1.25,2.16,2.09ZM621.88,519.97c4.55,1.75,7.45,3.88,7.45,5.59,0,.71-.44,1.21-.77,1.21-.4,0-.74-.3-.98-.78-.24-.51-.61-1.04-1.11-1.65l-13.51.84c-2.49.17-3.98.47-4.25.61-.2.1-.34.13-.44.13-.13,0-.2-.07-.3-.24l-1.08-1.79c1.25-.03,2.53-.34,3.1-.74,1.89-1.38,3.67-3.2,5.09-5.05h-5.39c-.67,0-1.65.13-2.16.34l-.91-1.21c.77.07,1.62.13,2.36.13h16.17l1.45-1.89,1.99,2.09c.17.17.24.3.24.4s-.1.13-.37.13h-10.95c-2.59,2.33-5.05,4.28-7.45,5.9l15.87-.27c-1.01-1.11-2.43-2.26-4.28-3.4l.24-.37ZM614.94,507.81c3.44,1.15,4.35,2.02,4.35,3.07,0,.88-.67,1.72-1.08,1.72-.54,0-.74-.13-.94-.94-.24-.91-1.01-2.26-2.53-3.5l.2-.34Z"/>
  </g>
</svg>