<?xml version="1.0" encoding="UTF-8"?>
<svg id="_图层_1" data-name="图层 1" xmlns="http://www.w3.org/2000/svg" version="1.1" xmlns:xlink="http://www.w3.org/1999/xlink" viewBox="0 0 2095.2 2003.7">
  <defs>
    <style>
      .cls-1, .cls-2 {
        fill: #545454;
      }

      .cls-1, .cls-3, .cls-4, .cls-5 {
        stroke-miterlimit: 10;
      }

      .cls-1, .cls-3, .cls-5 {
        stroke: #545454;
      }

      .cls-2, .cls-6, .cls-7, .cls-8 {
        stroke-width: 0px;
      }

      .cls-3 {
        stroke-width: 8px;
      }

      .cls-3, .cls-4, .cls-9 {
        fill: none;
      }

      .cls-4, .cls-9 {
        stroke: #a0a1a6;
      }

      .cls-6 {
        fill: #a0a1a6;
      }

      .cls-5, .cls-7 {
        fill: #fff;
      }

      .cls-9 {
        stroke-miterlimit: 10;
        stroke-width: 1px;
      }

      .cls-8 {
        fill: #deffe2;
      }
    </style>
    <symbol id="_桌椅" data-name=" 桌椅" viewBox="0 0 110 75.2">
      <g>
        <g>
          <g>
            <path class="cls-4" d="M24.1,64v-11.5H7.1v11.5c0,4.3,3,7.9,6.6,7.9h3.7c3.7,0,6.6-3.5,6.6-7.9Z"/>
            <path class="cls-4" d="M4.5,71.7s10.5,6.7,22.2,0"/>
            <path class="cls-4" d="M4.5,67.4s10.5,11.7,22.2,0"/>
            <polyline class="cls-4" points="7.2 72.8 8.2 71.1 9.5 73.4 11.2 72.5 15.2 74.1 19.7 72.7 21.9 73.4 22.6 71.3 24.5 72.6"/>
          </g>
          <g>
            <path class="cls-4" d="M50,64v-11.5h-17v11.5c0,4.3,3,7.9,6.7,7.9h3.7c3.7,0,6.7-3.5,6.7-7.9h0Z"/>
            <path class="cls-4" d="M30.4,71.7s10.5,6.7,22.2,0"/>
            <path class="cls-4" d="M30.4,67.4s10.5,11.7,22.2,0"/>
            <polyline class="cls-4" points="33.1 72.8 34.1 71.1 35.3 73.4 37.1 72.5 41.1 74.1 45.6 72.7 47.8 73.4 48.5 71.3 50.3 72.6"/>
          </g>
          <g>
            <path class="cls-4" d="M76.6,64v-11.5h-17v11.5c0,4.3,3,7.9,6.7,7.9h3.7c3.7,0,6.7-3.5,6.7-7.9h0Z"/>
            <path class="cls-4" d="M57,71.7s10.5,6.7,22.2,0"/>
            <path class="cls-4" d="M57,67.4s10.5,11.7,22.2,0"/>
            <polyline class="cls-4" points="59.7 72.8 60.7 71.1 61.9 73.4 63.7 72.5 67.7 74.1 72.2 72.7 74.4 73.4 75.1 71.3 76.9 72.6"/>
          </g>
          <g>
            <path class="cls-4" d="M102.4,64v-11.5h-17v11.5c0,4.3,3,7.9,6.7,7.9h3.7c3.7,0,6.7-3.5,6.7-7.9h0Z"/>
            <path class="cls-4" d="M82.8,71.7s10.5,6.7,22.2,0"/>
            <path class="cls-4" d="M82.8,67.4s10.5,11.7,22.2,0"/>
            <polyline class="cls-4" points="85.6 72.8 86.6 71.1 87.8 73.4 89.6 72.5 93.6 74.1 98 72.7 100.3 73.4 101 71.3 102.8 72.6"/>
          </g>
        </g>
        <g>
          <g>
            <path class="cls-4" d="M85.4,11.2v11.5h17v-11.5c0-4.3-3-7.9-6.7-7.9h-3.7c-3.7,0-6.7,3.5-6.7,7.9h0Z"/>
            <path class="cls-4" d="M105,3.5s-10.5-6.7-22.2,0"/>
            <path class="cls-4" d="M105,7.8s-10.5-11.7-22.2,0"/>
            <polyline class="cls-4" points="102.2 2.4 101.3 4 100 1.8 98.3 2.6 94.3 1.1 89.8 2.5 87.6 1.8 86.9 3.8 85 2.6"/>
          </g>
          <g>
            <path class="cls-4" d="M59.5,11.2v11.5h17v-11.5c0-4.3-3-7.9-6.7-7.9h-3.7c-3.7,0-6.7,3.5-6.7,7.9h0Z"/>
            <path class="cls-4" d="M79.1,3.5s-10.5-6.7-22.2,0"/>
            <path class="cls-4" d="M79.1,7.8s-10.5-11.7-22.2,0"/>
            <polyline class="cls-4" points="76.4 2.4 75.4 4 74.2 1.8 72.4 2.6 68.4 1.1 63.9 2.5 61.7 1.8 61 3.8 59.2 2.6"/>
          </g>
          <g>
            <path class="cls-4" d="M33,11.2v11.5h17v-11.5c0-4.3-3-7.9-6.7-7.9h-3.7c-3.7,0-6.7,3.5-6.7,7.9h0Z"/>
            <path class="cls-4" d="M52.5,3.5s-10.5-6.7-22.2,0"/>
            <path class="cls-4" d="M52.5,7.8s-10.5-11.7-22.2,0"/>
            <polyline class="cls-4" points="49.8 2.4 48.8 4 47.6 1.8 45.8 2.6 41.8 1.1 37.3 2.5 35.1 1.8 34.4 3.8 32.6 2.6"/>
          </g>
          <g>
            <path class="cls-4" d="M7.1,11.2v11.5h17v-11.5c0-4.3-3-7.9-6.6-7.9h-3.7c-3.7,0-6.7,3.5-6.7,7.9h0Z"/>
            <path class="cls-4" d="M26.7,3.5s-10.5-6.7-22.2,0"/>
            <path class="cls-4" d="M26.7,7.8s-10.5-11.7-22.2,0"/>
            <polyline class="cls-4" points="23.9 2.4 22.9 4 21.7 1.8 20 2.6 15.9 1.1 11.5 2.5 9.2 1.8 8.5 3.8 6.7 2.6"/>
          </g>
        </g>
        <rect class="cls-6" y="21.5" width="110" height="32"/>
      </g>
    </symbol>
  </defs>
  <g>
    <rect class="cls-2" x="393.8" y="784.7" width="43.1" height="52"/>
    <circle class="cls-7" cx="425.8" cy="795.6" r="3.2"/>
    <polygon class="cls-5" points="430.6 801.1 430.6 814.5 428.8 814.5 428.8 817.3 428.1 817.3 428.1 833.1 423.7 833.1 423.7 817.3 423.1 817.3 423.1 814.5 421.2 814.5 421.2 801.1 423.1 801.1 423.1 800 428.8 800 428.8 801.1 430.6 801.1"/>
    <circle class="cls-7" cx="406" cy="795.6" r="3.2"/>
    <polygon class="cls-5" points="415.7 814.4 415.7 817.3 408.2 817.3 408.2 833.1 403.8 833.1 403.8 817.3 396.3 817.3 396.3 814.4 398.4 814.4 401.3 811.5 401.3 801.1 403.1 801.1 403.1 800 408.9 800 408.9 801.1 410.7 801.1 410.7 811.4 413.6 814.4 415.7 814.4"/>
  </g>
  <path class="cls-8" d="M1106.6,670c0-35.4-28.7-64-64-64-35.3,0-64,28.6-64,64,0,35.3,28.7,64,64,64,35.3,0,64-28.7,64-64ZM991,670c0-28.5,23.1-51.7,51.7-51.7,28.5,0,51.7,23.1,51.7,51.7,0,28.5-23.1,51.7-51.7,51.7-28.5,0-51.7-23.1-51.7-51.7h0Z"/>
  <path class="cls-8" d="M1139.6,706c0-8-5.2-9.1-12.7-6,.2,2,.3,4,.3,6,0,28.5-23.1,51.7-51.7,51.7s-4-.1-6-.3c-3.1,7.5-2.1,12.7,6,12.7,35.3,0,64-28.7,64-64h0Z"/>
  <path class="cls-8" d="M1009,770c8,0,9.1-5.2,6-12.7-2,.2-4,.3-6,.3-28.5,0-51.7-23.1-51.7-51.7,0-2,.1-4,.3-6-7.5-3.1-12.7-2.1-12.7,6,0,35.3,28.7,64,64,64h0Z"/>
  <path class="cls-8" d="M1075.6,570.4c-8,0-9.1,5.1-6,12.7,2-.2,4-.3,6-.3,28.5,0,51.7,23.1,51.7,51.7,0,2-.1,4-.3,6,7.5,3.1,12.7,2.1,12.7-6,0-35.4-28.7-64-64-64h0Z"/>
  <path class="cls-8" d="M945,634.4c0,8,5.2,9.1,12.7,6-.2-2-.3-4-.3-6,0-28.5,23.1-51.7,51.7-51.7s4,.1,6,.3c3.1-7.5,2.1-12.7-6-12.7-35.3,0-64,28.6-64,64h0Z"/>
  <circle class="cls-8" cx="1042.6" cy="670" r="35"/>
  <g>
    <path class="cls-6" d="M1082.6,805.8h.1c-1,0-2.1,0-3.2,0-12.1,0-13.7-7.7-9-19,2.9.3,5.9.5,9,.5,42.8,0,77.6-34.7,77.6-77.6,0-3-.2-6-.5-9,11.3-4.7,19-3.1,19,9l-.5,59.5-36.8,36.8-55.7-.2Z"/>
    <rect class="cls-9" x="1171.8" y="775.4" width="8.5" height="10.7" rx="2.1" ry="2.1" transform="translate(-207.6 1060.3) rotate(-45)"/>
    <rect class="cls-9" x="1163.8" y="783.4" width="8.5" height="10.7" rx="2.1" ry="2.1" transform="translate(-215.6 1056.9) rotate(-45)"/>
    <rect class="cls-9" x="1155.8" y="791.4" width="8.5" height="10.7" rx="2.1" ry="2.1" transform="translate(-223.6 1053.6) rotate(-45)"/>
    <rect class="cls-9" x="1147.8" y="799.4" width="8.5" height="10.7" rx="2.1" ry="2.1" transform="translate(-231.6 1050.3) rotate(-45)"/>
  </g>
  <g>
    <path class="cls-6" d="M1002.7,805.8h-.1c1,0,2.1,0,3.2,0,12.1,0,13.7-7.7,9-19-2.9.3-5.9.5-9,.5-42.8,0-77.6-34.7-77.6-77.6,0-3,.2-6,.5-9-11.3-4.7-19-3.1-19,9l.5,59.5,36.8,36.8,55.7-.2Z"/>
    <rect class="cls-9" x="903.9" y="776.5" width="10.7" height="8.5" rx="2.1" ry="2.1" transform="translate(-285.8 871.6) rotate(-45)"/>
    <rect class="cls-9" x="911.9" y="784.5" width="10.7" height="8.5" rx="2.1" ry="2.1" transform="translate(-289.1 879.6) rotate(-45)"/>
    <rect class="cls-9" x="919.9" y="792.5" width="10.7" height="8.5" rx="2.1" ry="2.1" transform="translate(-292.4 887.6) rotate(-45)"/>
    <rect class="cls-9" x="927.9" y="800.5" width="10.7" height="8.5" rx="2.1" ry="2.1" transform="translate(-295.7 895.6) rotate(-45)"/>
  </g>
  <g>
    <path class="cls-6" d="M1001.7,534.2h-.1c1,0,2.1,0,3.2,0,12.1,0,13.7,7.7,9,19-2.9-.3-5.9-.5-9-.5-42.8,0-77.6,34.7-77.6,77.6,0,3,.2,6,.5,9-11.3,4.7-19,3.1-19-9l.5-59.5,36.8-36.8,55.7.2Z"/>
    <rect class="cls-9" x="904" y="553.9" width="8.5" height="10.7" rx="2.1" ry="2.1" transform="translate(-129.4 806) rotate(-45)"/>
    <rect class="cls-9" x="912" y="545.9" width="8.5" height="10.7" rx="2.1" ry="2.1" transform="translate(-121.4 809.3) rotate(-45)"/>
    <rect class="cls-9" x="920" y="537.9" width="8.5" height="10.7" rx="2.1" ry="2.1" transform="translate(-113.4 812.6) rotate(-45)"/>
    <rect class="cls-9" x="928" y="529.9" width="8.5" height="10.7" rx="2.1" ry="2.1" transform="translate(-105.4 816) rotate(-45)"/>
  </g>
  <g>
    <path class="cls-6" d="M1082.6,534.2h.1c-1,0-2.1,0-3.2,0-12.1,0-13.7,7.7-9,19,2.9-.3,5.9-.5,9-.5,42.8,0,77.6,34.7,77.6,77.6,0,3-.2,6-.5,9,11.3,4.7,19,3.1,19-9l-.5-59.5-36.8-36.8-55.7.2Z"/>
    <rect class="cls-9" x="1170.7" y="555" width="10.7" height="8.5" rx="2.1" ry="2.1" transform="translate(-51 995.4) rotate(-45)"/>
    <rect class="cls-9" x="1162.7" y="547" width="10.7" height="8.5" rx="2.1" ry="2.1" transform="translate(-47.7 987.4) rotate(-45)"/>
    <rect class="cls-9" x="1154.7" y="539" width="10.7" height="8.5" rx="2.1" ry="2.1" transform="translate(-44.4 979.4) rotate(-45)"/>
    <rect class="cls-9" x="1146.7" y="531" width="10.7" height="8.5" rx="2.1" ry="2.1" transform="translate(-41.1 971.4) rotate(-45)"/>
  </g>
  <g id="_图层_4" data-name=" 图层 4">
    <use width="110" height="75.2" transform="translate(1410.4 698) rotate(90) scale(1 -1)" xlink:href="#_桌椅"/>
    <use width="110" height="75.2" transform="translate(1410.4 872) rotate(90) scale(1 -1)" xlink:href="#_桌椅"/>
    <use width="110" height="75.2" transform="translate(1409.4 358) rotate(90) scale(1 -1)" xlink:href="#_桌椅"/>
    <use width="110" height="75.2" transform="translate(1409.4 532) rotate(90) scale(1 -1)" xlink:href="#_桌椅"/>
    <use width="110" height="75.2" transform="translate(1316.4 698) rotate(90) scale(1 -1)" xlink:href="#_桌椅"/>
    <use width="110" height="75.2" transform="translate(1316.4 872) rotate(90) scale(1 -1)" xlink:href="#_桌椅"/>
    <use width="110" height="75.2" transform="translate(1315.4 358) rotate(90) scale(1 -1)" xlink:href="#_桌椅"/>
    <use width="110" height="75.2" transform="translate(1315.4 532) rotate(90) scale(1 -1)" xlink:href="#_桌椅"/>
    <use width="110" height="75.2" transform="translate(1222.4 698) rotate(90) scale(1 -1)" xlink:href="#_桌椅"/>
    <use width="110" height="75.2" transform="translate(1221.4 532) rotate(90) scale(1 -1)" xlink:href="#_桌椅"/>
    <use width="110" height="75.2" transform="translate(1222.4 872) rotate(90) scale(1 -1)" xlink:href="#_桌椅"/>
    <use width="110" height="75.2" transform="translate(1221.4 358) rotate(90) scale(1 -1)" xlink:href="#_桌椅"/>
    <use width="110" height="75.2" transform="translate(1141.4 358) rotate(90) scale(1 -1)" xlink:href="#_桌椅"/>
    <use width="110" height="75.2" transform="translate(1050.4 359) rotate(90) scale(1 -1)" xlink:href="#_桌椅"/>
    <use width="110" height="75.2" transform="translate(967.4 359) rotate(90) scale(1 -1)" xlink:href="#_桌椅"/>
    <use width="110" height="75.2" transform="translate(875.4 358) rotate(90) scale(1 -1)" xlink:href="#_桌椅"/>
    <use width="110" height="75.2" transform="translate(1141.4 872) rotate(90) scale(1 -1)" xlink:href="#_桌椅"/>
    <use width="110" height="75.2" transform="translate(1050.4 872) rotate(90) scale(1 -1)" xlink:href="#_桌椅"/>
    <use width="110" height="75.2" transform="translate(967.4 872) rotate(90) scale(1 -1)" xlink:href="#_桌椅"/>
    <use width="110" height="75.2" transform="translate(875.4 872) rotate(90) scale(1 -1)" xlink:href="#_桌椅"/>
    <use width="110" height="75.2" transform="translate(793.4 698) rotate(90) scale(1 -1)" xlink:href="#_桌椅"/>
    <use width="110" height="75.2" transform="translate(793.4 872) rotate(90) scale(1 -1)" xlink:href="#_桌椅"/>
    <use width="110" height="75.2" transform="translate(792.4 358) rotate(90) scale(1 -1)" xlink:href="#_桌椅"/>
    <use width="110" height="75.2" transform="translate(792.4 532) rotate(90) scale(1 -1)" xlink:href="#_桌椅"/>
    <use width="110" height="75.2" transform="translate(699.4 698) rotate(90) scale(1 -1)" xlink:href="#_桌椅"/>
    <use width="110" height="75.2" transform="translate(699.4 872) rotate(90) scale(1 -1)" xlink:href="#_桌椅"/>
    <use width="110" height="75.2" transform="translate(698.4 358) rotate(90) scale(1 -1)" xlink:href="#_桌椅"/>
    <use width="110" height="75.2" transform="translate(698.4 532) rotate(90) scale(1 -1)" xlink:href="#_桌椅"/>
    <use width="110" height="75.2" transform="translate(605.4 698) rotate(90) scale(1 -1)" xlink:href="#_桌椅"/>
    <use width="110" height="75.2" transform="translate(605.4 872) rotate(90) scale(1 -1)" xlink:href="#_桌椅"/>
    <use width="110" height="75.2" transform="translate(604.4 358) rotate(90) scale(1 -1)" xlink:href="#_桌椅"/>
    <use width="110" height="75.2" transform="translate(604.4 532) rotate(90) scale(1 -1)" xlink:href="#_桌椅"/>
  </g>
  <g>
    <rect class="cls-1" x="1724.5" y="1032.8" width="44" height="7"/>
    <rect class="cls-1" x="1724.5" y="1151.8" width="44" height="7"/>
    <rect class="cls-1" x="1739.5" y="1051.8" width="15" height="88"/>
  </g>
  <g>
    <rect class="cls-1" x="1394.2" y="1330.1" width="2.1" height="14.5"/>
    <rect class="cls-1" x="1357.9" y="1330.1" width="2.1" height="14.5"/>
    <rect class="cls-1" x="1363.7" y="1335" width="26.9" height="4.9"/>
  </g>
  <g>
    <rect class="cls-1" x="1059.7" y="1330.1" width="2.1" height="14.5"/>
    <rect class="cls-1" x="1023.4" y="1330.1" width="2.1" height="14.5"/>
    <rect class="cls-1" x="1029.2" y="1335" width="26.9" height="4.9"/>
  </g>
  <g>
    <rect class="cls-1" x="765.4" y="1330.1" width="2.1" height="14.5"/>
    <rect class="cls-1" x="729" y="1330.1" width="2.1" height="14.5"/>
    <rect class="cls-1" x="734.8" y="1335" width="26.9" height="4.9"/>
  </g>
  <g>
    <rect class="cls-1" x="321.5" y="1044.8" width="44" height="7"/>
    <rect class="cls-1" x="321.5" y="1163.8" width="44" height="7"/>
    <rect class="cls-1" x="336.5" y="1063.8" width="15" height="88"/>
  </g>
  <path class="cls-3" d="M1400.2,1340.1l368.3-2.7c0,314.8-323.9,570-723.5,570-399.6,0-723.5-255.2-723.5-570l401.5.4"/>
  <line class="cls-3" x1="1353" y1="1339.2" x2="1068.1" y2="1336.9"/>
  <line class="cls-3" x1="1016.1" y1="1338.1" x2="771.8" y2="1336.9"/>
</svg>