<?xml version="1.0" encoding="UTF-8"?>
<svg xmlns="http://www.w3.org/2000/svg" xmlns:xlink="http://www.w3.org/1999/xlink" viewBox="0 0 1894 1455">
  <defs>
    <style>
      .cls-1, .cls-2 {
        fill: #545454;
      }

      .cls-1, .cls-3, .cls-4, .cls-5, .cls-6 {
        stroke-miterlimit: 10;
      }

      .cls-1, .cls-3, .cls-5 {
        stroke: #545454;
      }

      .cls-2, .cls-7, .cls-8, .cls-9 {
        stroke-width: 0px;
      }

      .cls-3, .cls-4, .cls-6 {
        fill: none;
      }

      .cls-3, .cls-6 {
        stroke-width: 8px;
      }

      .cls-4 {
        stroke: #a0a1a6;
      }

      .cls-7 {
        fill: #a0a1a6;
      }

      .cls-5, .cls-8 {
        fill: #fff;
      }

      .cls-6 {
        stroke: #8f0004;
      }

      .cls-9 {
        fill: #deffe2;
      }
    </style>
    <symbol id="_桌椅" data-name="桌椅" viewBox="0 0 110 75.17">
      <g>
        <g>
          <g>
            <path class="cls-4" d="M24.08,11.2v11.47H7.09v-11.47c0-4.35,2.98-7.88,6.65-7.88h3.69c3.67,0,6.65,3.53,6.65,7.88Z"/>
            <path class="cls-4" d="M4.5,3.46s10.46-6.65,22.17,0"/>
            <path class="cls-4" d="M4.5,7.76s10.46-11.71,22.17,0"/>
            <polyline class="cls-4" points="7.25 2.39 8.24 4.05 9.47 1.79 11.22 2.62 15.21 1.08 19.71 2.47 21.94 1.81 22.64 3.83 24.46 2.56"/>
          </g>
          <g>
            <path class="cls-4" d="M49.95,11.2v11.47h-17v-11.47c0-4.35,2.98-7.88,6.65-7.88h3.69c3.67,0,6.65,3.53,6.65,7.88Z"/>
            <path class="cls-4" d="M30.36,3.46s10.46-6.65,22.17,0"/>
            <path class="cls-4" d="M30.36,7.76s10.46-11.71,22.17,0"/>
            <polyline class="cls-4" points="33.11 2.39 34.1 4.05 35.34 1.79 37.08 2.62 41.08 1.08 45.58 2.47 47.81 1.81 48.5 3.83 50.33 2.56"/>
          </g>
          <g>
            <path class="cls-4" d="M76.55,11.2v11.47h-17v-11.47c0-4.35,2.98-7.88,6.65-7.88h3.69c3.67,0,6.65,3.53,6.65,7.88Z"/>
            <path class="cls-4" d="M56.97,3.46s10.46-6.65,22.17,0"/>
            <path class="cls-4" d="M56.97,7.76s10.46-11.71,22.17,0"/>
            <polyline class="cls-4" points="59.72 2.39 60.71 4.05 61.94 1.79 63.69 2.62 67.68 1.08 72.18 2.47 74.41 1.81 75.11 3.83 76.93 2.56"/>
          </g>
          <g>
            <path class="cls-4" d="M102.41,11.2v11.47h-17v-11.47c0-4.35,2.98-7.88,6.65-7.88h3.69c3.67,0,6.65,3.53,6.65,7.88Z"/>
            <path class="cls-4" d="M82.83,3.46s10.46-6.65,22.17,0"/>
            <path class="cls-4" d="M82.83,7.76s10.46-11.71,22.17,0"/>
            <polyline class="cls-4" points="85.58 2.39 86.57 4.05 87.8 1.79 89.55 2.62 93.55 1.08 98.04 2.47 100.27 1.81 100.97 3.83 102.79 2.56"/>
          </g>
        </g>
        <g>
          <g>
            <path class="cls-4" d="M85.42,63.97v-11.47s17,0,17,0v11.47c0,4.35-2.98,7.88-6.65,7.88h-3.69c-3.67,0-6.65-3.53-6.65-7.88Z"/>
            <path class="cls-4" d="M105,71.71s-10.46,6.65-22.17,0"/>
            <path class="cls-4" d="M105,67.41s-10.46,11.71-22.17,0"/>
            <polyline class="cls-4" points="102.25 72.78 101.26 71.12 100.03 73.38 98.28 72.55 94.29 74.09 89.79 72.7 87.56 73.35 86.86 71.34 85.04 72.61"/>
          </g>
          <g>
            <path class="cls-4" d="M59.55,63.97v-11.47s17,0,17,0v11.47c0,4.35-2.98,7.88-6.65,7.88h-3.69c-3.67,0-6.65-3.53-6.65-7.88Z"/>
            <path class="cls-4" d="M79.14,71.71s-10.46,6.65-22.17,0"/>
            <path class="cls-4" d="M79.14,67.41s-10.46,11.71-22.17,0"/>
            <polyline class="cls-4" points="76.39 72.78 75.4 71.12 74.16 73.38 72.42 72.55 68.42 74.09 63.92 72.7 61.69 73.35 61 71.34 59.17 72.61"/>
          </g>
          <g>
            <path class="cls-4" d="M32.95,63.97v-11.47s17,0,17,0v11.47c0,4.35-2.98,7.88-6.65,7.88h-3.69c-3.67,0-6.65-3.53-6.65-7.88Z"/>
            <path class="cls-4" d="M52.53,71.71s-10.46,6.65-22.17,0"/>
            <path class="cls-4" d="M52.53,67.41s-10.46,11.71-22.17,0"/>
            <polyline class="cls-4" points="49.78 72.78 48.79 71.12 47.56 73.38 45.81 72.55 41.82 74.09 37.32 72.7 35.09 73.35 34.39 71.34 32.57 72.61"/>
          </g>
          <g>
            <path class="cls-4" d="M7.09,63.97v-11.47s17,0,17,0v11.47c0,4.35-2.98,7.88-6.65,7.88h-3.69c-3.67,0-6.65-3.53-6.65-7.88Z"/>
            <path class="cls-4" d="M26.67,71.71s-10.46,6.65-22.17,0"/>
            <path class="cls-4" d="M26.67,67.41s-10.46,11.71-22.17,0"/>
            <polyline class="cls-4" points="23.92 72.78 22.93 71.12 21.7 73.38 19.95 72.55 15.95 74.09 11.46 72.7 9.23 73.35 8.53 71.34 6.71 72.61"/>
          </g>
        </g>
        <rect class="cls-7" y="21.67" width="110" height="32"/>
      </g>
    </symbol>
  </defs>
  <g id="_图层_1" data-name="图层 1">
    <g>
      <rect class="cls-2" x="628" y="1233" width="43.07" height="52"/>
      <circle class="cls-8" cx="660.04" cy="1243.93" r="3.22"/>
      <polygon class="cls-5" points="664.77 1249.4 664.77 1262.81 663.02 1262.81 663.02 1265.63 662.29 1265.63 662.29 1281.45 657.93 1281.45 657.93 1265.63 657.26 1265.63 657.26 1262.81 655.38 1262.81 655.38 1249.4 657.26 1249.4 657.26 1248.39 663.02 1248.39 663.02 1249.4 664.77 1249.4"/>
      <circle class="cls-8" cx="640.19" cy="1243.93" r="3.22"/>
      <polygon class="cls-5" points="649.88 1262.74 649.88 1265.63 642.36 1265.63 642.36 1281.45 638.01 1281.45 638.01 1265.63 630.49 1265.63 630.49 1262.74 632.59 1262.74 635.46 1259.83 635.46 1249.4 637.34 1249.4 637.34 1248.39 643.1 1248.39 643.1 1249.4 644.85 1249.4 644.85 1259.76 647.78 1262.74 649.88 1262.74"/>
    </g>
    <path class="cls-9" d="M512,640c-35.35,0-64,28.65-64,64s28.65,64,64,64,64-28.65,64-64-28.65-64-64-64ZM512,755.66c-28.53,0-51.66-23.13-51.66-51.66s23.13-51.66,51.66-51.66,51.66,23.13,51.66,51.66-23.13,51.66-51.66,51.66Z"/>
    <path class="cls-9" d="M548,607c-8.04,0-9.11,5.15-5.97,12.68,1.96-.22,3.95-.34,5.97-.34,28.53,0,51.66,23.13,51.66,51.66,0,2.02-.12,4.01-.34,5.97,7.53,3.14,12.68,2.07,12.68-5.97,0-35.35-28.65-64-64-64Z"/>
    <path class="cls-9" d="M612,737.6c0-8.04-5.15-9.11-12.68-5.97.22,1.96.34,3.95.34,5.97,0,28.53-23.13,51.66-51.66,51.66-2.02,0-4.01-.12-5.97-.34-3.14,7.53-2.07,12.68,5.97,12.68,35.35,0,64-28.65,64-64Z"/>
    <path class="cls-9" d="M412.4,671c0,8.04,5.15,9.11,12.68,5.97-.22-1.96-.34-3.95-.34-5.97,0-28.53,23.13-51.66,51.66-51.66,2.02,0,4.01.12,5.97.34,3.14-7.53,2.07-12.68-5.97-12.68-35.35,0-64,28.65-64,64Z"/>
    <path class="cls-9" d="M476.4,801.6c8.04,0,9.11-5.15,5.97-12.68-1.96.22-3.95.34-5.97.34-28.53,0-51.66-23.13-51.66-51.66,0-2.02.12-4.01.34-5.97-7.53-3.14-12.68-2.07-12.68,5.97,0,35.35,28.65,64,64,64Z"/>
    <circle class="cls-9" cx="512" cy="704" r="35"/>
    <g>
      <path class="cls-7" d="M647.76,664.04l-.06-.12c.05,1.05.06,2.12.06,3.18,0,12.07-7.73,13.68-19.04,8.96.33-2.94.51-5.93.51-8.96,0-42.84-34.73-77.57-77.57-77.57-3.03,0-6.02.18-8.96.51-4.72-11.31-3.11-19.04,8.96-19.04l59.55.51,36.79,36.79-.24,55.74Z"/>
      <rect class="cls-4" x="618.53" y="565.25" width="8.45" height="10.71" rx="2.12" ry="2.12" transform="translate(585.88 -273.23) rotate(45)"/>
      <rect class="cls-4" x="626.53" y="573.25" width="8.45" height="10.71" rx="2.12" ry="2.12" transform="translate(593.88 -276.54) rotate(45)"/>
      <rect class="cls-4" x="634.53" y="581.25" width="8.45" height="10.71" rx="2.12" ry="2.12" transform="translate(601.88 -279.86) rotate(45)"/>
      <rect class="cls-4" x="642.53" y="589.25" width="8.45" height="10.71" rx="2.12" ry="2.12" transform="translate(609.88 -283.17) rotate(45)"/>
    </g>
    <g>
      <path class="cls-7" d="M647.76,743.96l-.06.12c.05-1.05.06-2.12.06-3.18,0-12.07-7.73-13.68-19.04-8.96.33,2.94.51,5.93.51,8.96,0,42.84-34.73,77.57-77.57,77.57-3.03,0-6.02-.18-8.96-.51-4.72,11.31-3.11,19.04,8.96,19.04l59.55-.51,36.79-36.79-.24-55.74Z"/>
      <rect class="cls-4" x="618.53" y="832.04" width="8.45" height="10.71" rx="2.12" ry="2.12" transform="translate(-409.73 685.62) rotate(-45)"/>
      <rect class="cls-4" x="626.53" y="824.04" width="8.45" height="10.71" rx="2.12" ry="2.12" transform="translate(-401.73 688.94) rotate(-45)"/>
      <rect class="cls-4" x="634.53" y="816.04" width="8.45" height="10.71" rx="2.12" ry="2.12" transform="translate(-393.73 692.25) rotate(-45)"/>
      <rect class="cls-4" x="642.53" y="808.04" width="8.45" height="10.71" rx="2.12" ry="2.12" transform="translate(-385.73 695.56) rotate(-45)"/>
    </g>
    <g>
      <path class="cls-7" d="M376.24,744.96l.06.12c-.05-1.05-.06-2.12-.06-3.18,0-12.07,7.73-13.68,19.04-8.96-.33,2.94-.51,5.93-.51,8.96,0,42.84,34.73,77.57,77.57,77.57,3.03,0,6.02-.18,8.96-.51,4.72,11.31,3.11,19.04-8.96,19.04l-59.55-.51-36.79-36.79.24-55.74Z"/>
      <rect class="cls-4" x="397.02" y="833.04" width="8.45" height="10.71" rx="2.12" ry="2.12" transform="translate(92.13 1714.95) rotate(-135)"/>
      <rect class="cls-4" x="389.02" y="825.04" width="8.45" height="10.71" rx="2.12" ry="2.12" transform="translate(84.13 1695.64) rotate(-135)"/>
      <rect class="cls-4" x="381.02" y="817.04" width="8.45" height="10.71" rx="2.12" ry="2.12" transform="translate(76.13 1676.33) rotate(-135)"/>
      <rect class="cls-4" x="373.02" y="809.04" width="8.45" height="10.71" rx="2.12" ry="2.12" transform="translate(68.13 1657.01) rotate(-135)"/>
    </g>
    <g>
      <path class="cls-7" d="M376.24,664.04l.06-.12c-.05,1.05-.06,2.12-.06,3.18,0,12.07,7.73,13.68,19.04,8.96-.33-2.94-.51-5.93-.51-8.96,0-42.84,34.73-77.57,77.57-77.57,3.03,0,6.02.18,8.96.51,4.72-11.31,3.11-19.04-8.96-19.04l-59.55.51-36.79,36.79.24,55.74Z"/>
      <rect class="cls-4" x="397.02" y="565.25" width="8.45" height="10.71" rx="2.12" ry="2.12" transform="translate(1088.45 690.36) rotate(135)"/>
      <rect class="cls-4" x="389.02" y="573.25" width="8.45" height="10.71" rx="2.12" ry="2.12" transform="translate(1080.45 709.67) rotate(135)"/>
      <rect class="cls-4" x="381.02" y="581.25" width="8.45" height="10.71" rx="2.12" ry="2.12" transform="translate(1072.45 728.99) rotate(135)"/>
      <rect class="cls-4" x="373.02" y="589.25" width="8.45" height="10.71" rx="2.12" ry="2.12" transform="translate(1064.45 748.3) rotate(135)"/>
    </g>
  </g>
  <g id="_图层_4" data-name="图层 4">
    <use width="110" height="75.17" transform="translate(540 265)" xlink:href="#_桌椅"/>
    <use width="110" height="75.17" transform="translate(714 265)" xlink:href="#_桌椅"/>
    <use width="110" height="75.17" transform="translate(200 266)" xlink:href="#_桌椅"/>
    <use width="110" height="75.17" transform="translate(374 266)" xlink:href="#_桌椅"/>
    <use width="110" height="75.17" transform="translate(540 359)" xlink:href="#_桌椅"/>
    <use width="110" height="75.17" transform="translate(714 359)" xlink:href="#_桌椅"/>
    <use width="110" height="75.17" transform="translate(200 360)" xlink:href="#_桌椅"/>
    <use width="110" height="75.17" transform="translate(374 360)" xlink:href="#_桌椅"/>
    <use width="110" height="75.17" transform="translate(540 453)" xlink:href="#_桌椅"/>
    <use width="110" height="75.17" transform="translate(374 454)" xlink:href="#_桌椅"/>
    <use width="110" height="75.17" transform="translate(714 453)" xlink:href="#_桌椅"/>
    <use width="110" height="75.17" transform="translate(200 454)" xlink:href="#_桌椅"/>
    <use width="110" height="75.17" transform="translate(200 534)" xlink:href="#_桌椅"/>
    <use width="110" height="75.17" transform="translate(201 625)" xlink:href="#_桌椅"/>
    <use width="110" height="75.17" transform="translate(201 708)" xlink:href="#_桌椅"/>
    <use width="110" height="75.17" transform="translate(200 800)" xlink:href="#_桌椅"/>
    <use width="110" height="75.17" transform="translate(714 534)" xlink:href="#_桌椅"/>
    <use width="110" height="75.17" transform="translate(714 625)" xlink:href="#_桌椅"/>
    <use width="110" height="75.17" transform="translate(714 708)" xlink:href="#_桌椅"/>
    <use width="110" height="75.17" transform="translate(714 800)" xlink:href="#_桌椅"/>
    <use width="110" height="75.17" transform="translate(540 882)" xlink:href="#_桌椅"/>
    <use width="110" height="75.17" transform="translate(714 882)" xlink:href="#_桌椅"/>
    <use width="110" height="75.17" transform="translate(200 883)" xlink:href="#_桌椅"/>
    <use width="110" height="75.17" transform="translate(374 883)" xlink:href="#_桌椅"/>
    <use width="110" height="75.17" transform="translate(540 976)" xlink:href="#_桌椅"/>
    <use width="110" height="75.17" transform="translate(714 976)" xlink:href="#_桌椅"/>
    <use width="110" height="75.17" transform="translate(200 977)" xlink:href="#_桌椅"/>
    <use width="110" height="75.17" transform="translate(374 977)" xlink:href="#_桌椅"/>
    <use width="110" height="75.17" transform="translate(540 1070)" xlink:href="#_桌椅"/>
    <use width="110" height="75.17" transform="translate(714 1070)" xlink:href="#_桌椅"/>
    <use width="110" height="75.17" transform="translate(200 1071)" xlink:href="#_桌椅"/>
    <use width="110" height="75.17" transform="translate(374 1071)" xlink:href="#_桌椅"/>
  </g>
  <g id="_图层_2" data-name="图层 2">
    <g>
      <rect class="cls-1" x="857.5" y="77.5" width="7" height="44"/>
      <rect class="cls-1" x="976.5" y="77.5" width="7" height="44"/>
      <rect class="cls-1" x="876.5" y="91.5" width="88" height="15"/>
    </g>
    <g>
      <rect class="cls-1" x="1323.68" y="375.82" width="2.14" height="14.5" transform="translate(1707.82 -941.68) rotate(90)"/>
      <rect class="cls-1" x="1323.68" y="412.18" width="2.14" height="14.5" transform="translate(1744.18 -905.32) rotate(90)"/>
      <rect class="cls-1" x="1311.47" y="398.78" width="26.89" height="4.94" transform="translate(1726.16 -923.66) rotate(90)"/>
    </g>
    <g>
      <rect class="cls-1" x="1321.68" y="678.82" width="2.14" height="14.5" transform="translate(2008.82 -636.68) rotate(90)"/>
      <rect class="cls-1" x="1321.68" y="715.18" width="2.14" height="14.5" transform="translate(2045.18 -600.32) rotate(90)"/>
      <rect class="cls-1" x="1309.47" y="701.78" width="26.89" height="4.94" transform="translate(2027.16 -618.66) rotate(90)"/>
    </g>
    <g>
      <rect class="cls-1" x="1321.68" y="998.82" width="2.14" height="14.5" transform="translate(2328.82 -316.68) rotate(90)"/>
      <rect class="cls-1" x="1321.68" y="1035.18" width="2.14" height="14.5" transform="translate(2365.18 -280.32) rotate(90)"/>
      <rect class="cls-1" x="1309.47" y="1021.78" width="26.89" height="4.94" transform="translate(2347.16 -298.66) rotate(90)"/>
    </g>
    <g>
      <rect class="cls-1" x="857.5" y="1329.5" width="7" height="44"/>
      <rect class="cls-1" x="976.5" y="1329.5" width="7" height="44"/>
      <rect class="cls-1" x="876.5" y="1343.5" width="88" height="15"/>
    </g>
    <path class="cls-3" d="M1322.75,372.33l-2.75-368.33c314.8,0,570,323.92,570,723.5s-255.2,723.5-570,723.5l.44-401.48"/>
    <line class="cls-3" x1="1322.75" y1="426.74" x2="1320.44" y2="678"/>
    <line class="cls-3" x1="1321.6" y1="735" x2="1320.44" y2="998"/>
  </g>
</svg>
