<?xml version="1.0" encoding="UTF-8"?>
<svg xmlns="http://www.w3.org/2000/svg" xmlns:xlink="http://www.w3.org/1999/xlink" viewBox="0 0 1633.22 1070">
  <defs>
    <style>
      .cls-1 {
        font-size: 29px;
      }

      .cls-1, .cls-2, .cls-3, .cls-4, .cls-5, .cls-6, .cls-7, .cls-8 {
        fill: #000;
      }

      .cls-9 {
        fill: #cff;
        stroke: #cff;
      }

      .cls-9, .cls-10, .cls-11, .cls-12, .cls-13, .cls-14, .cls-15 {
        stroke-miterlimit: 10;
      }

      .cls-10 {
        stroke: #545454;
      }

      .cls-10, .cls-16, .cls-12 {
        fill: #545454;
      }

      .cls-16, .cls-2, .cls-17 {
        stroke-width: 0px;
      }

      .cls-3 {
        font-size: 2.62px;
      }

      .cls-3, .cls-18, .cls-5, .cls-19, .cls-7, .cls-8, .cls-20 {
        font-family: ArialMT, Arial;
      }

      .cls-18, .cls-5 {
        font-size: 17px;
      }

      .cls-18, .cls-21, .cls-15, .cls-20 {
        fill: #fff;
      }

      .cls-11 {
        fill: #dc8a78;
      }

      .cls-11, .cls-12, .cls-13, .cls-14, .cls-15 {
        stroke: #fff;
      }

      .cls-22 {
        letter-spacing: -.07em;
      }

      .cls-23 {
        stroke-dasharray: 0 0 15 15;
      }

      .cls-23, .cls-24, .cls-25, .cls-14, .cls-26, .cls-27 {
        fill: none;
      }

      .cls-23, .cls-24, .cls-25, .cls-26, .cls-27 {
        stroke: #a0a1a6;
        stroke-linecap: round;
        stroke-linejoin: round;
        stroke-width: 4px;
      }

      .cls-4 {
        font-size: 5px;
      }

      .cls-17 {
        fill: #a0a1a6;
      }

      .cls-25 {
        stroke-dasharray: 0 0 16.48 16.48;
      }

      .cls-13 {
        fill: #f60006;
      }

      .cls-13, .cls-15 {
        stroke-width: .25px;
      }

      .cls-14 {
        stroke-width: .5px;
      }

      .cls-28 {
        letter-spacing: -.07em;
      }

      .cls-6 {
        font-size: 9px;
      }

      .cls-6, .cls-29 {
        font-family: AdobeSongStd-Light-GBpc-EUC-H, 'Adobe Song Std';
        font-weight: 300;
      }

      .cls-26 {
        stroke-dasharray: 0 0 14.9 14.9;
      }

      .cls-27 {
        stroke-dasharray: 0 0 15.12 15.12;
      }

      .cls-30 {
        fill: #000200;
        font-size: 9.01px;
      }

      .cls-7 {
        font-size: 33.81px;
      }

      .cls-21 {
        font-size: 11px;
      }

      .cls-8 {
        font-size: 98.59px;
      }

      .cls-20 {
        font-size: 22px;
      }
    </style>
    <symbol id="AED" viewBox="0 0 10.48 10.83">
      <g>
        <g>
          <path class="cls-13" d="M10.36,2.91c0,.77-.31,1.46-.81,1.96h0s-4.21,5.76-4.21,5.76L1,4.93C.46,4.42.12,3.7.12,2.91.12,1.37,1.37.12,2.91.12c.98,0,1.84.51,2.33,1.27.49-.76,1.36-1.27,2.33-1.27,1.54,0,2.78,1.25,2.78,2.78Z"/>
          <polyline class="cls-14" points="5.31 1.92 4.43 4.67 6.59 3.49 5.41 8.74"/>
          <polygon class="cls-15" points="5.21 9.43 5.07 8.48 5.95 8.66 5.21 9.43"/>
        </g>
        <text class="cls-3" transform="translate(2.64 5.12) scale(1.03 1)"><tspan x="0" y="0">AED</tspan></text>
      </g>
    </symbol>
  </defs>
  <g id="_图层_3" data-name="图层 3">
    <g>
      <path class="cls-10" d="M634.87,932.5l-4.61,12.99c-.15,1.17-.33,2.27-.54,3.28-.04.25-.1.49-.15.73-.82,3.68-2.01,6-3.35,6s-2.53-2.32-3.35-6c-.05-.23-.1-.47-.15-.72-.25-1.19-.45-2.51-.61-3.92l-4.39-12.36,5.15-7c.13-.63.29-1.22.45-1.76-1.57-1.8-2.6-4.82-2.6-8.24,0-1.2.13-2.35.37-3.42l-2.81-6.16c2.92-1.63,6.27-2.41,9.74-2.05,2.22.24,4.3.91,6.16,1.95l-2.25,4.72c.5,1.46.79,3.16.79,4.96,0,3.96-1.39,7.39-3.39,9,.14.53.27,1.1.39,1.7v-.7l5.15,7Z"/>
      <path class="cls-10" d="M629.72,948.77v33.73h-7v-33.72c.05.25.1.49.15.72.82,3.68,2.01,6,3.35,6s2.53-2.32,3.35-6c.05-.24.11-.48.15-.73Z"/>
      <rect class="cls-10" x="617.72" y="984.5" width="17" height="4" rx="1.55" ry="1.55"/>
      <rect class="cls-10" x="612.72" y="990.5" width="27" height="4" rx="1.55" ry="1.55"/>
      <g>
        <path class="cls-16" d="M627.27,923.44c.26,1.23.58,2.45.98,3.64"/>
        <path class="cls-16" d="M625.83,923.83c.26,1.23.58,2.45.98,3.64.12.37.35.7.69.9.32.19.8.27,1.16.15s.71-.34.9-.69.28-.77.15-1.16c-.4-1.2-.72-2.41-.98-3.64-.07-.35-.38-.72-.69-.9-.32-.19-.8-.27-1.16-.15s-.71.34-.9.69c-.2.37-.24.74-.15,1.16h0Z"/>
      </g>
      <g>
        <path class="cls-16" d="M627.31,924.15c.2.04.29.27.34.46.22.78.43,1.57.65,2.35"/>
        <path class="cls-16" d="M626.92,925.59s.04.01.07.02l-.36-.15s.04.02.06.03l-.3-.23s.05.05.07.07l-.23-.3c.04.05.06.1.09.16l-.15-.36c.15.39.23.81.34,1.22.12.44.24.87.36,1.31.1.36.36.71.69.9s.8.27,1.16.15.71-.34.9-.69.26-.76.15-1.16c-.16-.58-.32-1.16-.48-1.74-.07-.26-.13-.52-.22-.77-.12-.33-.25-.59-.49-.85-.22-.24-.53-.42-.85-.5-.38-.1-.81-.05-1.16.15-.31.18-.61.54-.69.9-.09.38-.07.81.15,1.16s.51.59.9.69h0Z"/>
      </g>
      <g>
        <path class="cls-16" d="M627.82,923.93c.41,1.7.69,3.43.84,5.17"/>
        <path class="cls-16" d="M626.38,924.33c.27,1.14.49,2.3.65,3.47l-.05-.4c.08.57.14,1.13.19,1.7.04.4.14.76.44,1.06.26.26.69.46,1.06.44.75-.03,1.57-.66,1.5-1.5-.16-1.87-.46-3.74-.89-5.57-.18-.76-1.09-1.29-1.85-1.05-.79.26-1.24,1.03-1.05,1.85h0Z"/>
      </g>
    </g>
    <g>
      <rect class="cls-10" x="563.72" y="1025.5" width="7" height="44"/>
      <rect class="cls-10" x="682.72" y="1025.5" width="7" height="44"/>
      <rect class="cls-10" x="582.72" y="1039.5" width="88" height="15"/>
    </g>
    <g>
      <rect class="cls-10" x="1607.22" y="324" width="7" height="44" transform="translate(1956.72 -1264.72) rotate(90)"/>
      <rect class="cls-10" x="1607.22" y="443" width="7" height="44" transform="translate(2075.72 -1145.72) rotate(90)"/>
      <rect class="cls-10" x="1567.22" y="398" width="88" height="15" transform="translate(2016.72 -1205.72) rotate(90)"/>
    </g>
    <g>
      <rect class="cls-10" x="65.72" y="469.5" width="82" height="8"/>
      <rect class="cls-10" x="58.72" y="473.5" width="96" height="8"/>
      <rect class="cls-10" x="69.72" y="427.5" width="1" height="44"/>
      <rect class="cls-10" x="85.72" y="427.5" width="1" height="44"/>
      <rect class="cls-10" x="74.72" y="457.5" width="1.5" height="13"/>
      <rect class="cls-10" x="71.72" y="457.5" width="1.5" height="13"/>
      <rect class="cls-10" x="77.72" y="457.5" width="1.5" height="13"/>
      <rect class="cls-10" x="80.72" y="457.5" width="1.5" height="13"/>
      <rect class="cls-10" x="83.72" y="457.5" width="1.5" height="13"/>
      <rect class="cls-10" x="131.72" y="457.5" width="1.5" height="13"/>
      <rect class="cls-10" x="128.72" y="457.5" width="1.5" height="13"/>
      <rect class="cls-10" x="134.72" y="457.5" width="1.5" height="13"/>
      <rect class="cls-10" x="137.72" y="457.5" width="1.5" height="13"/>
      <rect class="cls-10" x="140.72" y="457.5" width="1.5" height="13"/>
      <rect class="cls-10" x="126.72" y="427.5" width="1" height="44"/>
      <rect class="cls-10" x="142.72" y="427.5" width="1" height="44"/>
      <rect class="cls-10" x="69.72" y="418.5" width="74" height="9"/>
      <polygon class="cls-10" points="152.72 419.5 60.72 419.5 106.72 393.5 152.72 419.5"/>
    </g>
    <g>
      <rect class="cls-10" x="401.72" y="109.5" width="80" height="26" transform="translate(27.88 319.63) rotate(-40.97)"/>
      <rect class="cls-10" x="401.72" y="109.5" width="80" height="26" transform="translate(244.59 -291.34) rotate(49.03)"/>
    </g>
    <g>
      <rect class="cls-10" x="291.72" y="106.5" width="80" height="26" transform="translate(2.9 246.77) rotate(-40.97)"/>
      <rect class="cls-10" x="291.72" y="106.5" width="80" height="26" transform="translate(204.45 -209.32) rotate(49.03)"/>
    </g>
    <g>
      <rect class="cls-10" x="394.72" y="224.5" width="80" height="26" transform="translate(-49.24 343.21) rotate(-40.97)"/>
      <rect class="cls-10" x="394.72" y="224.5" width="80" height="26" transform="translate(329.01 -246.45) rotate(49.03)"/>
    </g>
    <g>
      <rect class="cls-10" x="296.72" y="224.5" width="80" height="26" transform="translate(-73.24 278.95) rotate(-40.97)"/>
      <rect class="cls-10" x="296.72" y="224.5" width="80" height="26" transform="translate(295.27 -172.46) rotate(49.03)"/>
    </g>
    <g>
      <rect class="cls-10" x="770.72" y="104.5" width="80" height="26" transform="translate(121.55 560.35) rotate(-40.97)"/>
      <rect class="cls-10" x="770.72" y="104.5" width="80" height="26" transform="translate(367.87 -571.67) rotate(49.03)"/>
    </g>
    <g>
      <rect class="cls-10" x="661.72" y="109.5" width="80" height="26" transform="translate(91.57 490.1) rotate(-40.97)"/>
      <rect class="cls-10" x="661.72" y="109.5" width="80" height="26" transform="translate(334.12 -487.65) rotate(49.03)"/>
    </g>
    <g>
      <rect class="cls-10" x="940.41" y="90.97" width="194.31" height="26" transform="translate(185.98 705.77) rotate(-40.97)"/>
      <rect class="cls-10" x="1040.72" y="53.5" width="80" height="26" transform="translate(422.33 -793.1) rotate(49.03)"/>
    </g>
    <g>
      <rect class="cls-10" x="906.91" y="245.69" width="194.31" height="26" transform="translate(1889.49 798.22) rotate(-163.09)"/>
      <rect class="cls-10" x="909.38" y="229.07" width="80" height="26" transform="translate(441.67 1080.02) rotate(-73.09)"/>
    </g>
    <g>
      <rect class="cls-10" x="1120.59" y="279.57" width="194.31" height="26" transform="translate(2450.53 513.3) rotate(176.64)"/>
      <rect class="cls-10" x="1120.69" y="282.92" width="80" height="26" transform="translate(933.27 1471.95) rotate(-93.36)"/>
    </g>
    <g>
      <rect class="cls-10" x="1198.32" y="212.47" width="194.31" height="26" transform="translate(5.2 -28.09) rotate(1.24)"/>
      <rect class="cls-10" x="1312.61" y="213.71" width="80" height="26" transform="translate(1608.65 -1120.66) rotate(91.24)"/>
    </g>
    <g>
      <rect class="cls-10" x="1198.22" y="110" width="194.31" height="26" transform="translate(2337.48 902.19) rotate(-148.64)"/>
      <rect class="cls-10" x="1206.57" y="80.25" width="80" height="26" transform="translate(518.18 1109.17) rotate(-58.64)"/>
    </g>
    <g>
      <rect class="cls-10" x="763.72" y="219.5" width="80" height="26" transform="translate(44.43 583.93) rotate(-40.97)"/>
      <rect class="cls-10" x="763.72" y="219.5" width="80" height="26" transform="translate(452.29 -526.79) rotate(49.03)"/>
    </g>
    <g>
      <rect class="cls-10" x="665.72" y="219.5" width="80" height="26" transform="translate(20.42 519.67) rotate(-40.97)"/>
      <rect class="cls-10" x="665.72" y="219.5" width="80" height="26" transform="translate(418.55 -452.79) rotate(49.03)"/>
    </g>
    <path class="cls-9" d="M730.57,626.27c7.56-1.84-17.51-20.51-8.79-33.73,10.86-16.46,67.56-13.24,110.17-5.14,8.47,1.61,44.87,9.09,67.35,26.79,32.14,25.32,9.92,51.15,17.89,53.81,14.73,4.91,145.15-65.14,66.12-142.32-42.9-41.89-150.72-35.98-195.02-76.98-41.81-38.7,50.59-69.4,17.77-94.83-31.65-24.52-140.4-18.68-198.06-9.11-39.74,6.6-111.19,18.47-116.38,54.44-3.6,24.97,27.01,45.63,9.52,55.72-20.49,11.82-70.11-12.14-100.45-2.09-35.07,11.62-26.32,62.7,24.04,91.72,29.21,16.83,65.49,22.24,88.16,25.62,60.27,8.98,69.15-4.87,110.82,4.72,58.96,13.57,96.19,53.97,106.86,51.37Z"/>
    <text class="cls-21" transform="translate(581.74 1022.66)"><tspan class="cls-19"><tspan x="0" y="0">Southern Entrance</tspan></tspan><tspan class="cls-29"><tspan x="34.86" y="13.2">南门</tspan></tspan></text>
    <text class="cls-30" transform="translate(1524.14 403.9) scale(1.22 1)"><tspan class="cls-19"><tspan x="0" y="0">Main Entrance</tspan></tspan><tspan class="cls-29"><tspan x="20.03" y="10.81">主门</tspan></tspan></text>
  </g>
  <g id="_图层_4" data-name="图层 4">
    <g>
      <line class="cls-24" x1="571.22" y1="992" x2="563.72" y2="992"/>
      <path class="cls-27" d="M548.6,991.99l-301.82-.13c-5.86,0-10.6-4.75-10.6-10.61l.03-155.91c0-5.71-4.63-10.34-10.34-10.34h-45.98"/>
      <line class="cls-24" x1="172.34" y1="815" x2="164.84" y2="815"/>
    </g>
    <g>
      <line class="cls-24" x1="236.22" y1="791" x2="236.22" y2="783.5"/>
      <path class="cls-26" d="M236.22,768.6v-60.51c0-5.58,4.52-10.1,10.1-10.1h770.07c10.4,0,18.82,8.44,18.81,18.83l-.4,262.75c0,6.04-4.89,10.93-10.93,10.95l-326.19,1.26"/>
      <line class="cls-24" x1="690.22" y1="991.83" x2="682.72" y2="991.86"/>
      <path class="cls-17" d="M241.48,791c0,2.91-2.36,5.26-5.26,5.26-2.91,0-5.26-2.36-5.26-5.26,0-2.91,2.36-5.26,5.26-5.26,2.91,0,5.26,2.36,5.26,5.26Z"/>
    </g>
    <g>
      <path class="cls-23" d="M1062.39,991h474.42c6.76-3.14,11.43-7.81,11.43-13.57v-501.11"/>
      <path class="cls-17" d="M1062.39,996.26c-2.91,0-5.26-2.36-5.26-5.26s2.36-5.26,5.26-5.26,5.26,2.36,5.26,5.26-2.36,5.26-5.26,5.26Z"/>
    </g>
    <g>
      <path class="cls-23" d="M1035.19,668.25l2.31-340.41c.04-5.7-4.57-10.35-10.28-10.35H246.49c-5.68,0-10.28-4.6-10.28-10.28V12.63c0-5.67,4.6-10.27,10.27-10.28l962.73-.36h328.74c5.68,0,10.28,4.6,10.28,10.28v348.26c0,5.67-4.59,10.26-10.25,10.28l-466.77,1.19"/>
      <path class="cls-17" d="M1040.45,668.29c-.02,2.91-2.39,5.25-5.3,5.23-2.91-.02-5.25-2.39-5.23-5.3.02-2.91,2.39-5.25,5.3-5.23,2.91.02,5.25,2.39,5.23,5.3Z"/>
      <path class="cls-17" d="M1071.21,366.74c-2.91,0-5.26,2.37-5.25,5.28,0,2.91,2.37,5.26,5.28,5.25,2.91,0,5.26-2.37,5.25-5.28,0-2.91-2.37-5.26-5.28-5.25Z"/>
    </g>
    <g>
      <line class="cls-23" x1="236.22" y1="335.13" x2="236.22" y2="683.3"/>
      <path class="cls-17" d="M230.95,335.13c0-2.91,2.36-5.26,5.26-5.26s5.26,2.36,5.26,5.26-2.36,5.26-5.26,5.26-5.26-2.36-5.26-5.26Z"/>
      <path class="cls-17" d="M230.95,683.3c0,2.91,2.36,5.26,5.26,5.26s5.26-2.36,5.26-5.26-2.36-5.26-5.26-5.26-5.26,2.36-5.26,5.26Z"/>
    </g>
    <g>
      <path class="cls-23" d="M437.71,335.13s-230.49,146.87-9.49,265.87"/>
      <path class="cls-17" d="M434.88,330.69c2.45-1.56,5.71-.84,7.27,1.61,1.56,2.45.84,5.71-1.61,7.27-2.45,1.56-5.71.84-7.27-1.61-1.56-2.45-.84-5.71,1.61-7.27Z"/>
      <path class="cls-17" d="M425.72,605.63c2.56,1.38,5.75.42,7.13-2.14,1.38-2.56.42-5.75-2.14-7.13-2.56-1.38-5.75-.42-7.13,2.14-1.38,2.56-.42,5.75,2.14,7.13Z"/>
    </g>
    <g>
      <line class="cls-23" x1="593.56" y1="624.28" x2="849.71" y2="338.85"/>
      <path class="cls-17" d="M597.65,627.6c-1.94,2.16-5.27,2.34-7.43.4s-2.34-5.27-.4-7.43c1.94-2.16,5.27-2.34,7.43-.4s2.34,5.27.4,7.43Z"/>
      <circle class="cls-17" cx="849.53" cy="339.04" r="5.26" transform="translate(176.91 958.91) rotate(-64.42)"/>
    </g>
    <g>
      <path class="cls-23" d="M217.23,557.24c-21.58.64-105.71-1.17-103.52-68.74"/>
      <path class="cls-17" d="M216.73,551.98c2.9-.13,5.36,2.12,5.49,5.02s-2.12,5.36-5.02,5.49c-2.9.13-5.36-2.12-5.49-5.02-.13-2.9,2.12-5.36,5.02-5.49Z"/>
    </g>
    <g>
      <path class="cls-23" d="M446.5,612.81l122.01,20.53c5.03.85,8.71,5.2,8.71,10.3v44.36"/>
      <path class="cls-17" d="M571.96,687.74c0,2.91,2.36,5.26,5.26,5.26s5.26-2.36,5.26-5.26-2.36-5.26-5.26-5.26-5.26,2.36-5.26,5.26Z"/>
    </g>
    <g>
      <line class="cls-24" x1="259.05" y1="673.5" x2="266.01" y2="670.71"/>
      <line class="cls-25" x1="281.32" y1="664.59" x2="396.09" y2="618.66"/>
      <line class="cls-24" x1="403.74" y1="615.6" x2="410.71" y2="612.81"/>
    </g>
  </g>
  <g id="_图层_1" data-name="图层 1">
    <path class="cls-11" d="M694.24,747.69l-31.32,60.14c-8.49-4.31-17.9-7.17-27.96-8.22-15.74-1.65-30.87,1.36-43.99,7.9l-31.17-60.41c24.51-12.2,52.79-17.83,82.19-14.75,18.79,1.97,36.39,7.31,52.24,15.35Z"/>
    <path class="cls-11" d="M185.75,653.08l9.62,108.48c-15.19,1.49-30.39,5.74-44.89,12.99-22.69,11.35-40.55,28.47-52.63,48.65L3.54,768.25c22.58-37.68,55.94-69.69,98.34-90.89,27.09-13.55,55.49-21.49,83.87-24.28Z"/>
    <path class="cls-12" d="M831.65,774.67l-28.26,36.05c-5-3.92-10.8-7-17.25-8.95-10.09-3.06-20.39-2.95-29.83-.24l-12.63-44.03c17.63-5.05,36.87-5.25,55.73.46,12.05,3.65,22.89,9.4,32.24,16.72Z"/>
    <path class="cls-12" d="M962.1,839.06l-33.36,31.39c-4.36-4.63-9.63-8.54-15.71-11.44-9.52-4.54-19.72-5.98-29.45-4.72l-5.87-45.43c18.18-2.34,37.24.35,55.03,8.83,11.37,5.42,21.22,12.73,29.36,21.38Z"/>
    <path class="cls-12" d="M420.13,773.67l28.26,36.05c5-3.92,10.8-7,17.25-8.95,10.09-3.06,20.39-2.95,29.83-.24l12.63-44.03c-17.63-5.05-36.87-5.25-55.73.46-12.05,3.65-22.89,9.4-32.24,16.72Z"/>
    <path class="cls-12" d="M289.68,838.06l33.36,31.39c4.36-4.63,9.63-8.54,15.71-11.44,9.52-4.54,19.72-5.98,29.45-4.72l5.87-45.43c-18.18-2.34-37.24.35-55.03,8.83-11.37,5.42-21.22,12.73-29.36,21.38Z"/>
    <rect class="cls-11" x="270.72" y="852.5" width="38" height="34" transform="translate(-546.3 493.94) rotate(-47.38)"/>
    <rect class="cls-11" x="1100.72" y="722.5" width="305" height="234"/>
    <rect class="cls-11" x="493.72" y="126.5" width="148" height="111"/>
    <rect class="cls-11" x="1099.72" y="438.5" width="402" height="234"/>
    <rect class="cls-11" x="1420.72" y="838.5" width="47" height="113"/>
    <circle class="cls-11" cx="434.72" cy="488.5" r="27"/>
    <ellipse class="cls-11" cx="1132.22" cy="173.5" rx="91" ry="64.5" transform="translate(208.94 851.42) rotate(-45)"/>
  </g>
  <g id="_图层_5" data-name="图层 5">
    <g>
      <path class="cls-2" d="M36.65,744.43v-5.01h.66v5.01h-.66Z"/>
      <path class="cls-2" d="M38.41,744.43v-3.63h.55v.52c.27-.4.65-.6,1.16-.6.22,0,.42.04.6.12.18.08.32.18.41.31.09.13.15.28.19.46.02.11.03.31.03.6v2.23h-.62v-2.21c0-.25-.02-.44-.07-.56s-.13-.22-.25-.3c-.12-.07-.27-.11-.43-.11-.26,0-.49.08-.68.25-.19.17-.29.48-.29.95v1.98h-.62Z"/>
      <path class="cls-2" d="M43.64,743.88l.09.54c-.17.04-.33.05-.46.05-.22,0-.4-.04-.52-.11-.12-.07-.21-.16-.26-.28s-.08-.36-.08-.73v-2.09h-.45v-.48h.45v-.9l.61-.37v1.27h.62v.48h-.62v2.12c0,.18.01.29.03.34.02.05.06.09.11.12.05.03.12.04.21.04.07,0,.16,0,.27-.02Z"/>
      <path class="cls-2" d="M46.73,743.26l.64.08c-.1.37-.29.66-.56.86s-.62.31-1.04.31c-.53,0-.95-.16-1.26-.49-.31-.33-.47-.79-.47-1.38s.16-1.08.47-1.42.72-.51,1.22-.51.88.17,1.19.5c.31.33.46.8.46,1.39,0,.04,0,.09,0,.16h-2.71c.02.4.14.71.34.92.2.21.46.32.76.32.23,0,.42-.06.58-.18s.29-.31.38-.57ZM44.71,742.26h2.03c-.03-.3-.1-.53-.23-.69-.2-.24-.45-.36-.76-.36-.28,0-.52.09-.71.28-.19.19-.3.44-.32.76Z"/>
      <path class="cls-2" d="M48.13,744.43v-3.63h.55v.55c.14-.26.27-.43.39-.51.12-.08.25-.12.4-.12.21,0,.42.07.63.2l-.21.57c-.15-.09-.3-.13-.45-.13-.13,0-.26.04-.36.12s-.18.19-.23.34c-.07.22-.1.46-.1.72v1.9h-.62Z"/>
      <path class="cls-2" d="M50.47,744.43v-3.63h.55v.52c.27-.4.65-.6,1.16-.6.22,0,.42.04.6.12.18.08.32.18.41.31.09.13.15.28.19.46.02.11.03.31.03.6v2.23h-.62v-2.21c0-.25-.02-.44-.07-.56s-.13-.22-.25-.3c-.12-.07-.27-.11-.43-.11-.26,0-.49.08-.68.25-.19.17-.29.48-.29.95v1.98h-.62Z"/>
      <path class="cls-2" d="M56.73,743.98c-.23.19-.45.33-.66.41-.21.08-.44.12-.68.12-.4,0-.71-.1-.92-.29-.21-.2-.32-.44-.32-.75,0-.18.04-.34.12-.49.08-.15.19-.26.32-.35.13-.09.28-.16.44-.2.12-.03.3-.06.55-.09.5-.06.86-.13,1.1-.21,0-.08,0-.14,0-.16,0-.25-.06-.43-.17-.53-.16-.14-.39-.21-.7-.21-.29,0-.5.05-.64.15-.14.1-.24.28-.31.54l-.6-.08c.05-.26.14-.47.27-.62s.31-.28.54-.37c.24-.08.51-.13.82-.13s.56.04.76.11.34.17.43.28.15.25.19.42c.02.1.03.29.03.57v.82c0,.57.01.93.04,1.09.03.15.08.3.16.44h-.64c-.06-.13-.1-.28-.12-.45ZM56.68,742.6c-.22.09-.56.17-1,.23-.25.04-.43.08-.54.12-.1.05-.19.11-.24.2s-.09.19-.09.29c0,.16.06.3.19.41.12.11.31.16.54.16s.45-.05.63-.16.32-.25.41-.42c.07-.14.1-.34.1-.62v-.23Z"/>
      <path class="cls-2" d="M59.6,743.88l.09.54c-.17.04-.33.05-.46.05-.22,0-.4-.04-.52-.11-.12-.07-.21-.16-.26-.28s-.08-.36-.08-.73v-2.09h-.45v-.48h.45v-.9l.61-.37v1.27h.62v.48h-.62v2.12c0,.18.01.29.03.34.02.05.06.09.11.12.05.03.12.04.21.04.07,0,.16,0,.27-.02Z"/>
      <path class="cls-2" d="M60.2,740.12v-.71h.62v.71h-.62ZM60.2,744.43v-3.63h.62v3.63h-.62Z"/>
      <path class="cls-2" d="M61.53,742.61c0-.67.19-1.17.56-1.49.31-.27.69-.4,1.14-.4.5,0,.91.16,1.22.49s.48.78.48,1.36c0,.47-.07.83-.21,1.1-.14.27-.34.48-.61.62-.27.15-.56.22-.88.22-.51,0-.92-.16-1.23-.49-.31-.33-.47-.8-.47-1.41ZM62.16,742.61c0,.46.1.81.3,1.04s.46.35.77.35.56-.12.76-.35.3-.59.3-1.06c0-.45-.1-.79-.31-1.02-.2-.23-.46-.35-.76-.35s-.56.12-.77.35-.3.58-.3,1.04Z"/>
      <path class="cls-2" d="M65.65,744.43v-3.63h.55v.52c.27-.4.65-.6,1.16-.6.22,0,.42.04.6.12.18.08.32.18.41.31.09.13.15.28.19.46.02.11.03.31.03.6v2.23h-.62v-2.21c0-.25-.02-.44-.07-.56s-.13-.22-.25-.3c-.12-.07-.27-.11-.43-.11-.26,0-.49.08-.68.25-.19.17-.29.48-.29.95v1.98h-.62Z"/>
      <path class="cls-2" d="M71.91,743.98c-.23.19-.45.33-.66.41-.21.08-.44.12-.68.12-.4,0-.71-.1-.92-.29-.21-.2-.32-.44-.32-.75,0-.18.04-.34.12-.49.08-.15.19-.26.32-.35.13-.09.28-.16.44-.2.12-.03.3-.06.55-.09.5-.06.86-.13,1.1-.21,0-.08,0-.14,0-.16,0-.25-.06-.43-.17-.53-.16-.14-.39-.21-.7-.21-.29,0-.5.05-.64.15-.14.1-.24.28-.31.54l-.6-.08c.05-.26.14-.47.27-.62s.31-.28.54-.37c.24-.08.51-.13.82-.13s.56.04.76.11.34.17.43.28.15.25.19.42c.02.1.03.29.03.57v.82c0,.57.01.93.04,1.09.03.15.08.3.16.44h-.64c-.06-.13-.1-.28-.12-.45ZM71.86,742.6c-.22.09-.56.17-1,.23-.25.04-.43.08-.54.12-.1.05-.19.11-.24.2s-.09.19-.09.29c0,.16.06.3.19.41.12.11.31.16.54.16s.45-.05.63-.16.32-.25.41-.42c.07-.14.1-.34.1-.62v-.23Z"/>
      <path class="cls-2" d="M73.42,744.43v-5.01h.62v5.01h-.62Z"/>
      <path class="cls-2" d="M76.08,744.43l1.92-5.01h.71l2.05,5.01h-.76l-.58-1.52h-2.1l-.55,1.52h-.7ZM77.52,742.37h1.7l-.52-1.39c-.16-.42-.28-.77-.36-1.04-.06.32-.15.64-.27.96l-.55,1.47Z"/>
      <path class="cls-2" d="M83.58,743.1l.6.08c-.07.42-.24.74-.51.98-.27.24-.61.35-1,.35-.5,0-.9-.16-1.2-.49-.3-.32-.45-.79-.45-1.4,0-.39.06-.74.19-1.03s.33-.51.59-.66c.27-.15.55-.22.87-.22.39,0,.72.1.97.3s.41.48.48.85l-.6.09c-.06-.24-.16-.43-.3-.55-.15-.12-.32-.18-.52-.18-.31,0-.56.11-.76.33-.19.22-.29.57-.29,1.05s.09.84.28,1.06c.19.22.43.33.73.33.24,0,.44-.07.6-.22.16-.15.26-.38.31-.68Z"/>
      <path class="cls-2" d="M87.08,743.98c-.23.19-.45.33-.66.41-.21.08-.44.12-.68.12-.4,0-.71-.1-.92-.29-.21-.2-.32-.44-.32-.75,0-.18.04-.34.12-.49.08-.15.19-.26.32-.35.13-.09.28-.16.44-.2.12-.03.3-.06.55-.09.5-.06.86-.13,1.1-.21,0-.08,0-.14,0-.16,0-.25-.06-.43-.17-.53-.16-.14-.39-.21-.7-.21-.29,0-.5.05-.64.15-.14.1-.24.28-.31.54l-.6-.08c.05-.26.14-.47.27-.62s.31-.28.54-.37c.24-.08.51-.13.82-.13s.56.04.76.11.34.17.43.28.15.25.19.42c.02.1.03.29.03.57v.82c0,.57.01.93.04,1.09.03.15.08.3.16.44h-.64c-.06-.13-.1-.28-.12-.45ZM87.03,742.6c-.22.09-.56.17-1,.23-.25.04-.43.08-.54.12-.1.05-.19.11-.24.2s-.09.19-.09.29c0,.16.06.3.19.41.12.11.31.16.54.16s.45-.05.63-.16.32-.25.41-.42c.07-.14.1-.34.1-.62v-.23Z"/>
      <path class="cls-2" d="M90.96,744.43v-.46c-.23.36-.57.54-1.02.54-.29,0-.56-.08-.8-.24-.24-.16-.43-.38-.56-.67-.13-.29-.2-.62-.2-.99s.06-.69.18-.99.3-.52.54-.68c.24-.16.51-.24.81-.24.22,0,.41.05.58.14.17.09.31.21.42.36v-1.8h.61v5.01h-.57ZM89.02,742.61c0,.46.1.81.29,1.04.2.23.43.35.69.35s.5-.11.69-.33c.19-.22.28-.55.28-1.01,0-.5-.1-.86-.29-1.09s-.43-.35-.71-.35-.5.11-.69.34c-.18.22-.27.58-.27,1.06Z"/>
      <path class="cls-2" d="M94.99,743.26l.64.08c-.1.37-.29.66-.56.86s-.62.31-1.04.31c-.53,0-.95-.16-1.26-.49-.31-.33-.47-.79-.47-1.38s.16-1.08.47-1.42.72-.51,1.22-.51.88.17,1.19.5c.31.33.46.8.46,1.39,0,.04,0,.09,0,.16h-2.71c.02.4.14.71.34.92.2.21.46.32.76.32.23,0,.42-.06.58-.18s.29-.31.38-.57ZM92.97,742.26h2.03c-.03-.3-.1-.53-.23-.69-.2-.24-.45-.36-.76-.36-.28,0-.52.09-.71.28-.19.19-.3.44-.32.76Z"/>
      <path class="cls-2" d="M96.4,744.43v-3.63h.55v.51c.11-.18.27-.32.45-.43s.4-.16.65-.16c.27,0,.49.06.66.17.17.11.29.27.36.47.29-.42.66-.64,1.12-.64.36,0,.64.1.83.3s.29.51.29.92v2.49h-.61v-2.29c0-.25-.02-.42-.06-.53-.04-.11-.11-.2-.22-.26-.1-.07-.23-.1-.37-.1-.26,0-.47.08-.64.25s-.25.44-.25.81v2.11h-.62v-2.36c0-.27-.05-.48-.15-.62s-.26-.21-.49-.21c-.17,0-.33.05-.48.14-.15.09-.25.22-.32.4-.07.18-.1.43-.1.76v1.88h-.62Z"/>
      <path class="cls-2" d="M102.23,740.12v-.71h.62v.71h-.62ZM102.23,744.43v-3.63h.62v3.63h-.62Z"/>
      <path class="cls-2" d="M106.15,743.1l.6.08c-.07.42-.24.74-.51.98-.27.24-.61.35-1,.35-.5,0-.9-.16-1.2-.49-.3-.32-.45-.79-.45-1.4,0-.39.06-.74.19-1.03s.33-.51.59-.66c.27-.15.55-.22.87-.22.39,0,.72.1.97.3s.41.48.48.85l-.6.09c-.06-.24-.16-.43-.3-.55-.15-.12-.32-.18-.52-.18-.31,0-.56.11-.76.33-.19.22-.29.57-.29,1.05s.09.84.28,1.06c.19.22.43.33.73.33.24,0,.44-.07.6-.22.16-.15.26-.38.31-.68Z"/>
      <path class="cls-2" d="M109.32,744.43v-5.01h3.62v.59h-2.96v1.54h2.77v.59h-2.77v1.71h3.08v.59h-3.74Z"/>
      <path class="cls-2" d="M113.49,744.43l1.33-1.89-1.23-1.74h.77l.56.85c.1.16.19.3.25.41.1-.15.19-.28.28-.4l.61-.86h.73l-1.25,1.71,1.35,1.92h-.76l-.75-1.13-.2-.3-.95,1.43h-.75Z"/>
      <path class="cls-2" d="M119.76,743.1l.6.08c-.07.42-.24.74-.51.98-.27.24-.61.35-1,.35-.5,0-.9-.16-1.2-.49-.3-.32-.45-.79-.45-1.4,0-.39.06-.74.19-1.03s.33-.51.59-.66c.27-.15.55-.22.87-.22.39,0,.72.1.97.3s.41.48.48.85l-.6.09c-.06-.24-.16-.43-.3-.55-.15-.12-.32-.18-.52-.18-.31,0-.56.11-.76.33-.19.22-.29.57-.29,1.05s.09.84.28,1.06c.19.22.43.33.73.33.24,0,.44-.07.6-.22.16-.15.26-.38.31-.68Z"/>
      <path class="cls-2" d="M120.9,744.43v-5.01h.62v1.8c.29-.33.65-.5,1.09-.5.27,0,.5.05.7.16.2.11.34.25.43.44.08.19.13.46.13.81v2.3h-.62v-2.3c0-.31-.07-.53-.2-.67-.13-.14-.32-.21-.57-.21-.18,0-.35.05-.51.14-.16.09-.27.22-.34.38-.07.16-.1.39-.1.67v1.99h-.62Z"/>
      <path class="cls-2" d="M127.16,743.98c-.23.19-.45.33-.66.41-.21.08-.44.12-.68.12-.4,0-.71-.1-.92-.29-.21-.2-.32-.44-.32-.75,0-.18.04-.34.12-.49.08-.15.19-.26.32-.35.13-.09.28-.16.44-.2.12-.03.3-.06.55-.09.5-.06.86-.13,1.1-.21,0-.08,0-.14,0-.16,0-.25-.06-.43-.17-.53-.16-.14-.39-.21-.7-.21-.29,0-.5.05-.64.15-.14.1-.24.28-.31.54l-.6-.08c.05-.26.14-.47.27-.62s.31-.28.54-.37c.24-.08.51-.13.82-.13s.56.04.76.11.34.17.43.28.15.25.19.42c.02.1.03.29.03.57v.82c0,.57.01.93.04,1.09.03.15.08.3.16.44h-.64c-.06-.13-.1-.28-.12-.45ZM127.11,742.6c-.22.09-.56.17-1,.23-.25.04-.43.08-.54.12-.1.05-.19.11-.24.2s-.09.19-.09.29c0,.16.06.3.19.41.12.11.31.16.54.16s.45-.05.63-.16.32-.25.41-.42c.07-.14.1-.34.1-.62v-.23Z"/>
      <path class="cls-2" d="M128.68,744.43v-3.63h.55v.52c.27-.4.65-.6,1.16-.6.22,0,.42.04.6.12.18.08.32.18.41.31.09.13.15.28.19.46.02.11.03.31.03.6v2.23h-.62v-2.21c0-.25-.02-.44-.07-.56s-.13-.22-.25-.3c-.12-.07-.27-.11-.43-.11-.26,0-.49.08-.68.25-.19.17-.29.48-.29.95v1.98h-.62Z"/>
      <path class="cls-2" d="M132.46,744.73l.6.09c.02.18.09.32.21.4.15.11.36.17.63.17.28,0,.5-.06.66-.17s.26-.27.31-.48c.03-.12.05-.39.04-.79-.27.32-.6.47-1,.47-.5,0-.89-.18-1.16-.54s-.41-.79-.41-1.3c0-.35.06-.67.19-.96s.31-.52.55-.68c.24-.16.52-.24.84-.24.43,0,.78.17,1.06.52v-.44h.57v3.14c0,.57-.06.97-.17,1.2-.11.24-.3.42-.55.56-.25.14-.56.21-.92.21-.43,0-.78-.1-1.05-.29-.27-.19-.4-.49-.39-.88ZM132.97,742.55c0,.48.09.82.28,1.04s.43.33.71.33.52-.11.71-.33.29-.56.29-1.02-.1-.78-.3-1c-.2-.23-.43-.34-.71-.34s-.51.11-.7.33c-.19.22-.29.55-.29.99Z"/>
      <path class="cls-2" d="M138.95,743.26l.64.08c-.1.37-.29.66-.56.86s-.62.31-1.04.31c-.53,0-.95-.16-1.26-.49-.31-.33-.47-.79-.47-1.38s.16-1.08.47-1.42.72-.51,1.22-.51.88.17,1.19.5c.31.33.46.8.46,1.39,0,.04,0,.09,0,.16h-2.71c.02.4.14.71.34.92.2.21.46.32.76.32.23,0,.42-.06.58-.18s.29-.31.38-.57ZM136.93,742.26h2.03c-.03-.3-.1-.53-.23-.69-.2-.24-.45-.36-.76-.36-.28,0-.52.09-.71.28-.19.19-.3.44-.32.76Z"/>
      <path class="cls-2" d="M145.96,742.67l.66.17c-.14.54-.39.96-.75,1.25-.36.29-.8.43-1.32.43s-.98-.11-1.32-.33c-.34-.22-.6-.54-.77-.96-.18-.42-.26-.87-.26-1.34,0-.52.1-.98.3-1.37.2-.39.48-.68.85-.89.37-.2.77-.3,1.21-.3.5,0,.92.13,1.26.38.34.25.58.61.71,1.08l-.65.15c-.12-.37-.28-.63-.51-.8s-.5-.25-.83-.25c-.39,0-.71.09-.97.28-.26.18-.44.43-.54.74-.1.31-.16.63-.16.96,0,.43.06.8.19,1.12.12.32.32.56.58.71s.55.24.85.24c.37,0,.69-.11.94-.32.26-.21.43-.53.52-.95Z"/>
      <path class="cls-2" d="M149.85,743.26l.64.08c-.1.37-.29.66-.56.86s-.62.31-1.04.31c-.53,0-.95-.16-1.26-.49-.31-.33-.47-.79-.47-1.38s.16-1.08.47-1.42.72-.51,1.22-.51.88.17,1.19.5c.31.33.46.8.46,1.39,0,.04,0,.09,0,.16h-2.71c.02.4.14.71.34.92.2.21.46.32.76.32.23,0,.42-.06.58-.18s.29-.31.38-.57ZM147.83,742.26h2.03c-.03-.3-.1-.53-.23-.69-.2-.24-.45-.36-.76-.36-.28,0-.52.09-.71.28-.19.19-.3.44-.32.76Z"/>
      <path class="cls-2" d="M151.25,744.43v-3.63h.55v.52c.27-.4.65-.6,1.16-.6.22,0,.42.04.6.12.18.08.32.18.41.31.09.13.15.28.19.46.02.11.03.31.03.6v2.23h-.62v-2.21c0-.25-.02-.44-.07-.56s-.13-.22-.25-.3c-.12-.07-.27-.11-.43-.11-.26,0-.49.08-.68.25-.19.17-.29.48-.29.95v1.98h-.62Z"/>
      <path class="cls-2" d="M156.49,743.88l.09.54c-.17.04-.33.05-.46.05-.22,0-.4-.04-.52-.11-.12-.07-.21-.16-.26-.28s-.08-.36-.08-.73v-2.09h-.45v-.48h.45v-.9l.61-.37v1.27h.62v.48h-.62v2.12c0,.18.01.29.03.34.02.05.06.09.11.12.05.03.12.04.21.04.07,0,.16,0,.27-.02Z"/>
      <path class="cls-2" d="M157.08,744.43v-3.63h.55v.55c.14-.26.27-.43.39-.51.12-.08.25-.12.4-.12.21,0,.42.07.63.2l-.21.57c-.15-.09-.3-.13-.45-.13-.13,0-.26.04-.36.12s-.18.19-.23.34c-.07.22-.1.46-.1.72v1.9h-.62Z"/>
      <path class="cls-2" d="M161.91,743.26l.64.08c-.1.37-.29.66-.56.86s-.62.31-1.04.31c-.53,0-.95-.16-1.26-.49-.31-.33-.47-.79-.47-1.38s.16-1.08.47-1.42.72-.51,1.22-.51.88.17,1.19.5c.31.33.46.8.46,1.39,0,.04,0,.09,0,.16h-2.71c.02.4.14.71.34.92.2.21.46.32.76.32.23,0,.42-.06.58-.18s.29-.31.38-.57ZM159.89,742.26h2.03c-.03-.3-.1-.53-.23-.69-.2-.24-.45-.36-.76-.36-.28,0-.52.09-.71.28-.19.19-.3.44-.32.76Z"/>
      <path class="cls-2" d="M166.44,745.9c-.34-.43-.63-.93-.86-1.5s-.35-1.17-.35-1.78c0-.54.09-1.06.26-1.56.21-.58.52-1.15.95-1.72h.44c-.28.47-.46.81-.55,1.01-.14.31-.25.64-.33.98-.1.43-.15.85-.15,1.29,0,1.1.34,2.19,1.02,3.28h-.44Z"/>
      <path class="cls-2" d="M167.78,744.43v-5.01h.66v5.01h-.66Z"/>
      <path class="cls-2" d="M169.06,744.43l1.92-5.01h.71l2.05,5.01h-.76l-.58-1.52h-2.1l-.55,1.52h-.7ZM170.51,742.37h1.7l-.52-1.39c-.16-.42-.28-.77-.36-1.04-.06.32-.15.64-.27.96l-.55,1.47Z"/>
      <path class="cls-2" d="M174.3,744.43v-5.01h3.62v.59h-2.96v1.54h2.77v.59h-2.77v1.71h3.08v.59h-3.74Z"/>
      <path class="cls-2" d="M182.53,742.67l.66.17c-.14.54-.39.96-.75,1.25-.36.29-.8.43-1.32.43s-.98-.11-1.32-.33c-.34-.22-.6-.54-.77-.96-.18-.42-.26-.87-.26-1.34,0-.52.1-.98.3-1.37.2-.39.48-.68.85-.89.37-.2.77-.3,1.21-.3.5,0,.92.13,1.26.38.34.25.58.61.71,1.08l-.65.15c-.12-.37-.28-.63-.51-.8s-.5-.25-.83-.25c-.39,0-.71.09-.97.28-.26.18-.44.43-.54.74-.1.31-.16.63-.16.96,0,.43.06.8.19,1.12.12.32.32.56.58.71s.55.24.85.24c.37,0,.69-.11.94-.32.26-.21.43-.53.52-.95Z"/>
      <path class="cls-2" d="M184.33,745.9h-.44c.68-1.09,1.02-2.19,1.02-3.28,0-.43-.05-.85-.15-1.27-.08-.34-.19-.67-.32-.98-.09-.21-.27-.55-.55-1.03h.44c.43.57.75,1.15.95,1.72.18.5.26,1.02.26,1.56,0,.62-.12,1.21-.35,1.78-.24.57-.52,1.08-.86,1.5Z"/>
      <path class="cls-2" d="M71.18,747.38s.06.06.06.08-.02.06-.06.08l-.23.15v4.1c0,.53.01.97.04,1.28v.04c0,.1-.03.13-.18.22-.06.04-.1.06-.13.06-.04,0-.06-.04-.06-.13v-.53h-4.47v.33c0,.14-.21.25-.3.25-.06,0-.08-.04-.08-.13,0-.04,0-.06,0-.1.04-.41.05-.78.05-1.3v-3.77c0-.41,0-.87-.02-1.08l.51.46h4.18l.24-.34.45.36ZM70.61,752.56v-5.05h-4.47v5.05h4.47ZM70.37,751.46s.07.08.07.11-.04.04-.08.04h-3.43c-.15,0-.35.03-.47.08l-.2-.26c.17.01.35.03.51.03h1.43v-1.59h-.81c-.14,0-.33.03-.44.07l-.19-.25c.17.01.34.03.49.03h.95v-1.15h-1.06c-.15,0-.35.03-.47.08l-.2-.26c.18.01.35.03.51.03h2.59l.24-.36.39.37s.06.08.06.1c0,.04-.03.05-.08.05h-1.65v1.15h.87l.25-.34.37.35s.06.07.06.1-.03.05-.08.05h-1.47v1.59h1.24l.27-.33.34.34ZM69.08,750.17c.49.23.71.43.74.53,0,.03.01.06.01.08,0,.14-.08.28-.17.28-.09,0-.14-.05-.17-.15-.07-.2-.18-.44-.45-.69l.03-.06Z"/>
      <path class="cls-2" d="M74.67,747.48s.04.05.04.06c0,.01-.02.03-.06.04-.22.08-.36.22-.5.51l-.53,1.06c.69.72.91,1.22.91,1.62,0,.61-.79.96-.81.96-.03,0-.05-.02-.06-.07-.03-.17-.18-.29-.64-.43l.02-.08c.25.06.44.1.6.1.39,0,.54-.2.54-.55,0-.5-.36-1.11-.72-1.52l.57-1.7h-1.09v4.52c0,.31,0,.67.02.98v.05c0,.11-.03.13-.15.19-.08.04-.14.06-.18.06-.04,0-.06-.04-.06-.11,0-.03,0-.06,0-.1.03-.41.04-.72.04-1.08v-3.94c0-.6,0-.85-.02-1.06l.45.33h.92l.25-.28.41.43ZM75.7,750.32c.06.04.08.07.08.09s-.03.04-.08.07c-.08.04-.15.11-.19.17-.49.85-.96,1.63-1.53,2.17l-.08-.06c.64-.88,1.16-1.79,1.41-2.73l.4.29ZM78.52,749.28s.06.06.06.08-.04.03-.12.03h-1.9v3.07c0,.48-.08.62-.43.81-.06.04-.1.06-.13.06-.04,0-.05-.04-.07-.11-.06-.2-.2-.38-.81-.57v-.09c.44.1.71.17.86.17.22,0,.25-.11.25-.35v-3h-1.39c-.19,0-.34.02-.46.07l-.24-.25c.18.01.36.02.54.02h3.07l.32-.42.45.46ZM78.15,747.63s.06.07.06.08c0,.02-.03.03-.09.03h-2.59c-.15,0-.26.01-.38.05l-.28-.23c.19.02.37.03.53.03h2.02l.25-.41.47.45ZM77.13,750.17c.69.7,1.23,1.43,1.23,1.76,0,.42-.16.51-.28.51-.07,0-.1-.02-.16-.38-.1-.54-.34-1.17-.85-1.84l.07-.06Z"/>
      <path class="cls-2" d="M85.36,751.18c.08.07.11.11.11.15,0,.03-.05.04-.14.04h-2.75v1.3c0,.43-.13.58-.57.75-.01,0-.03,0-.04,0-.03,0-.04-.01-.04-.05-.01-.22-.23-.37-.81-.49v-.11c.43.07.69.11.85.11.25,0,.28-.08.28-.26v-1.25h-2.38c-.15,0-.35.03-.47.08l-.2-.26c.18.01.35.03.51.03h2.54c0-.4,0-.59-.01-.72l.4.21.85-.83h-2.51c-.15,0-.35.03-.47.08l-.2-.26c.18.01.35.03.51.03h2.67l.29-.22.34.32c.06.06.09.09.09.11,0,.03-.01.03-.12.03-.18,0-.54.18-1.37.8.01.01.02.03.02.04,0,.03-.02.04-.18.11v.31h2.05l.33-.41.4.38ZM85.46,748.81s.04.04.04.06c0,.02-.02.03-.05.04-.28.03-.43.17-.95.78l-.08-.04.4-.78h-4.83c0,.71-.32.92-.55.92-.1,0-.18-.05-.18-.15,0-.08.05-.17.2-.27.24-.17.36-.48.39-.99h.1c.01.12.03.23.03.34h3.07c.48-.69.78-1.18,1.02-1.7l.43.25c.07.04.1.06.1.08,0,.03-.04.04-.1.06-.15.04-.21.08-.4.29l-.89,1.01h1.54l.25-.29.46.39ZM80.36,747.15c.56.34.88.62.95.84,0,.04.01.07.01.11,0,.19-.13.36-.22.36s-.13-.08-.16-.26c-.06-.32-.29-.69-.64-.97l.06-.08ZM81.95,746.89c.41.39.67.71.74.92,0,.03.01.06.01.09,0,.19-.16.39-.29.39-.06,0-.1-.1-.1-.24,0-.27-.18-.78-.45-1.1l.09-.06Z"/>
      <path class="cls-2" d="M92.68,751.92c-.3.01-.5.1-.64.27-.01.02-.03.03-.05.03-.01,0-.04,0-.06-.02-1.13-.68-1.93-1.88-2.35-3.23h-.06v2.79c0,.57.02,1.11.03,1.37v.03c0,.12-.04.15-.2.22-.06.03-.11.04-.15.04-.05,0-.06-.03-.06-.13v-.09c.02-.41.03-1.04.03-1.44v-2.63c-.6,1.14-1.37,2.36-3,3.54l-.06-.08c1.5-1.35,2.24-2.43,2.75-3.61h-1.95c-.15,0-.35.03-.47.08l-.2-.26c.17.01.35.03.51.03h2.42v-.95c0-.34-.01-.76-.03-1.02l.55.24s.06.04.06.05-.01.04-.04.06l-.2.15v1.49h2.02l.31-.45.51.51s.05.06.05.07c0,.01-.02.02-.08.02h-2.63c.69,1.66,1.58,2.55,2.98,2.89v.07ZM90.16,747.34c.94.2,1.2.54,1.2.79,0,.13-.07.25-.14.25-.09,0-.16-.04-.26-.21-.11-.18-.34-.51-.82-.76l.02-.06Z"/>
      <path class="cls-2" d="M99.52,748.25s.06.06.06.08c0,.01-.03.02-.08.02h-5.67c-.15,0-.35.03-.47.08l-.2-.26c.18.01.35.03.51.03h5.05l.33-.42.46.47ZM97.65,749.87s.05.04.05.06c0,.01-.02.03-.06.05-.22.08-.25.1-.27.17-.23.58-.5,1.11-.85,1.53.79.76,1.78,1.11,3,1.14v.1c-.42,0-.64.13-.76.32-.01.01-.03.03-.05.03-.01,0-.04,0-.06-.01-.89-.31-1.68-.71-2.32-1.36-.69.7-1.48,1.09-2.95,1.61l-.04-.09c1.32-.57,2.19-1.11,2.77-1.76-.42-.5-.76-1.15-.98-1.98l.12-.04c.29.74.64,1.33,1.04,1.8.4-.53.66-1.13.85-1.87l.51.3ZM95.76,749.02s.06.06.06.07c0,.02-.04.04-.1.04-.15,0-.27.02-.35.08-1.03.71-1.61,1.08-1.94,1.25l-.06-.08c.82-.62,1.51-1.21,1.94-1.66l.44.31ZM95.82,746.8c.25.11.92.44.92.87,0,.2-.14.34-.25.34-.07,0-.1-.04-.14-.18-.09-.33-.22-.6-.57-.95l.05-.08ZM97.19,748.81c1.36.58,1.72.84,1.72,1.23,0,.16-.08.28-.18.28-.04,0-.07-.01-.17-.17-.16-.28-.74-.82-1.44-1.25l.06-.09Z"/>
      <path class="cls-2" d="M102.27,748.3l-.76,2.41c-.16.51-.23.74-.23,1.11,0,.21.02.46.06.82,0,.06.01.12.01.18,0,.29-.11.41-.28.41-.13,0-.25-.12-.25-.36,0-.06,0-.13.02-.2.08-.43.12-.7.12-.88,0-.13-.02-.2-.07-.24-.08-.06-.32-.11-.76-.17v-.12c.78.02.88-.08,1.05-.52l.97-2.49.11.04ZM100.17,748.75c.43.14,1.04.47,1.04.81,0,.2-.13.36-.28.36-.06,0-.1-.08-.13-.25-.05-.22-.2-.55-.67-.85l.04-.08ZM100.59,747.16c.63.16,1.07.43,1.13.62.01.05.02.1.02.15,0,.2-.11.35-.21.35s-.13-.05-.19-.24c-.06-.19-.25-.53-.78-.81l.03-.08ZM103.19,750.3s.06.04.06.06c0,.01-.02.04-.06.06l-.18.11c-.01,1.9-.17,2.26-1.56,3l-.03-.11c1.19-.86,1.26-1.17,1.25-3.33l.52.22ZM106.48,747.91s.06.07.06.1-.03.04-.08.04h-2.47l.34.29s.04.04.04.06c0,.02-.04.04-.1.05l-.22.04-1.2.94h2.61c-.15-.25-.38-.48-.74-.77l.05-.08c.82.38,1.26.83,1.3,1.08,0,.05,0,.09,0,.13,0,.21-.08.34-.18.34-.11,0-.18-.05-.24-.26-.03-.1-.06-.19-.11-.28-2.46.08-2.78.15-2.95.25-.02.01-.04.02-.06.02-.02,0-.04-.01-.06-.04l-.3-.37c.39-.02.59-.13.79-.33.4-.39.64-.67.91-1.06h-1.25c-.14,0-.33.03-.44.07l-.19-.25c.17.01.34.03.49.03h3.24l.29-.38.46.4ZM103.46,746.87c.22.06.97.29.97.71,0,.16-.1.3-.22.3-.13,0-.16-.03-.2-.22-.05-.21-.25-.53-.57-.7l.02-.09ZM104.35,750.28c.06.03.08.05.08.07s-.02.04-.06.06l-.2.1v1.65c0,.27,0,.81.01.9v.03c0,.07-.04.09-.23.15-.03,0-.06.01-.07.01-.04,0-.06-.03-.06-.1,0-.14.01-.84.01-1v-1.31c0-.26,0-.62-.02-.85l.53.29ZM106.38,751.69c0,.86.08.97.27,1.06.03,0,.04.02.04.04,0,.01,0,.04-.01.06-.14.39-.27.4-.99.4-.64,0-.69-.06-.69-.52v-1.86c0-.23,0-.55-.02-.83l.59.29s.05.04.05.06-.01.04-.06.06l-.23.11v2.13c0,.2.06.25.36.25.5,0,.52-.01.57-1.24h.13Z"/>
      <path class="cls-2" d="M113.13,748.43s.07.06.07.08-.02.04-.06.07l-.22.15v1.05c0,.39.01.66.03.97v.05c0,.1-.03.13-.18.19-.07.03-.11.04-.14.04-.04,0-.05-.04-.05-.09v-.35h-2.02v1.17c0,.53,0,1.06.03,1.37v.05c0,.1-.03.13-.17.19-.07.03-.12.05-.15.05-.06,0-.07-.05-.07-.17v-.06c.01-.41.02-1.04.02-1.44v-1.16h-2.02v.35c0,.1-.01.12-.15.17-.06.03-.11.04-.15.04-.04,0-.06-.04-.06-.13v-.1c.01-.23.02-.6.02-.89v-1.21c0-.17,0-.5-.02-.72l.5.34h1.86v-.61c0-.29-.01-.76-.03-1.02l.59.31c.06.03.08.05.08.08,0,.02-.03.05-.08.08l-.22.16v1h1.86l.24-.36.47.33ZM110.21,750.44v-1.83h-1.98l-.03.03v1.8h2.02ZM112.59,750.44v-1.83h-2.02v1.83h2.02Z"/>
      <path class="cls-2" d="M115.29,749.33c.01.23.02.44.02.64,0,1-.17,1.48-.52,1.78-.08.07-.19.1-.29.1-.13,0-.24-.06-.24-.17,0-.06.04-.14.13-.23.47-.48.67-.78.81-2.12h.09ZM119.01,751.19c.05.9.07,1.04.28,1.13.05.02.07.05.07.08,0,.02,0,.05-.02.08-.23.49-.45.49-1.68.49-1.44,0-1.47,0-1.47-.52v-3.4c0-.27,0-.53-.02-.81l.47.2s.08.04.08.07c0,.04-.02.05-.18.16v3.61c0,.34.09.36,1.29.36.25,0,.48,0,.62-.02.36-.03.4-.08.46-1.44h.11ZM116.97,747.22c.48.31,1.09.82,1.09,1.2,0,.22-.16.44-.28.44-.08,0-.13-.07-.15-.2-.05-.33-.32-.94-.71-1.37l.06-.06ZM119.05,749.23c.71.54,1.33,1.32,1.44,1.62.03.06.04.14.04.21,0,.24-.13.46-.29.46-.1,0-.14-.04-.19-.27-.08-.35-.52-1.35-1.05-1.97l.06-.06Z"/>
    </g>
    <text class="cls-18" transform="translate(327.25 839.62)"><tspan x="0" y="0">A1</tspan></text>
    <text class="cls-18" transform="translate(455.25 782.62)"><tspan x="0" y="0">A2</tspan></text>
    <text class="cls-5" transform="translate(615.25 772.62)"><tspan x="0" y="0">A3</tspan></text>
    <text class="cls-6" transform="translate(419.93 481.62)"><tspan x="0" y="0">Musical </tspan><tspan x="4.11" y="10.8">Island</tspan><tspan x="1.21" y="21.6">音乐岛</tspan></text>
    <text class="cls-18" transform="translate(777.25 784.62)"><tspan x="0" y="0">A4</tspan></text>
    <text class="cls-7" transform="translate(1107.22 189.41) scale(.93 1)"><tspan x="0" y="0">D6</tspan></text>
    <text class="cls-7" transform="translate(538.51 192.41) scale(.93 1)"><tspan class="cls-28" x="0" y="0">L</tspan><tspan x="16.29" y="0">Y3</tspan></text>
    <text class="cls-20" transform="translate(314.88 126.41) scale(.93 1)"><tspan class="cls-22" x="0" y="0">L</tspan><tspan x="10.6" y="0">Y6</tspan></text>
    <text class="cls-20" transform="translate(318.88 243.41) scale(.93 1)"><tspan class="cls-22" x="0" y="0">L</tspan><tspan x="10.6" y="0">Y1</tspan></text>
    <text class="cls-20" transform="translate(418.88 243.41) scale(.93 1)"><tspan class="cls-22" x="0" y="0">L</tspan><tspan x="10.6" y="0">Y2</tspan></text>
    <text class="cls-20" transform="translate(423.88 126.41) scale(.93 1)"><tspan class="cls-22" x="0" y="0">L</tspan><tspan x="10.6" y="0">Y7</tspan></text>
    <text class="cls-20" transform="translate(686.88 126.41) scale(.93 1)"><tspan class="cls-22" x="0" y="0">L</tspan><tspan x="10.6" y="0">Y8</tspan></text>
    <text class="cls-20" transform="translate(689.88 241.41) scale(.93 1)"><tspan class="cls-22" x="0" y="0">L</tspan><tspan x="10.6" y="0">Y4</tspan></text>
    <text class="cls-20" transform="translate(785.88 237.41) scale(.93 1)"><tspan class="cls-22" x="0" y="0">L</tspan><tspan x="10.6" y="0">Y5</tspan></text>
    <text class="cls-20" transform="translate(792.88 126.41) scale(.93 1)"><tspan class="cls-22" x="0" y="0">L</tspan><tspan x="10.6" y="0">Y9</tspan></text>
    <text class="cls-20" transform="translate(1067.24 76.41) scale(.93 1)"><tspan x="0" y="0">D5</tspan></text>
    <text class="cls-20" transform="translate(936.24 246.41) scale(.93 1)"><tspan x="0" y="0">D4</tspan></text>
    <text class="cls-20" transform="translate(1147.24 302.41) scale(.93 1)"><tspan x="0" y="0">D3</tspan></text>
    <text class="cls-20" transform="translate(1343.24 232.41) scale(.93 1)"><tspan x="0" y="0">D1</tspan></text>
    <text class="cls-20" transform="translate(1233.24 98.41) scale(.93 1)"><tspan x="0" y="0">D2</tspan></text>
    <text class="cls-18" transform="translate(909.25 841.62)"><tspan x="0" y="0">A5</tspan></text>
    <text class="cls-5" transform="translate(1434.25 898.62)"><tspan x="0" y="0">B2</tspan></text>
    <text class="cls-1" transform="translate(1119.11 838.7)"><tspan class="cls-19"><tspan x="0" y="0">Outdoor Sports Field</tspan></tspan><tspan class="cls-29"><tspan x="61.29" y="34.8">室外运动场</tspan></tspan></text>
    <text class="cls-8" transform="translate(1230.18 590.96) scale(1.25 1)"><tspan x="0" y="0">B1</tspan></text>
    <text class="cls-4" transform="translate(273.74 869.66)"><tspan class="cls-19"><tspan x="0" y="0">Auditorium Hall</tspan></tspan><tspan class="cls-29"><tspan x="11.95" y="6">礼堂</tspan></tspan></text>
  </g>
  <g id="_图层_6" data-name="图层 6">
    <use width="10.48" height="10.83" transform="translate(493.09 757.88)" xlink:href="#AED"/>
    <use width="10.48" height="10.83" transform="translate(936.09 262.88)" xlink:href="#AED"/>
    <use width="10.48" height="10.83" transform="translate(1155.09 316.88)" xlink:href="#AED"/>
    <use width="10.48" height="10.83" transform="translate(751.09 758.88)" xlink:href="#AED"/>
    <use width="10.48" height="10.83" transform="translate(883.09 812.88)" xlink:href="#AED"/>
    <use width="10.48" height="10.83" transform="translate(539.09 768.87) scale(2.97)" xlink:href="#AED"/>
    <use width="10.48" height="10.83" transform="translate(305.09 877) scale(1.48)" xlink:href="#AED"/>
    <use width="10.48" height="10.83" transform="translate(1436.09 810) scale(2.03)" xlink:href="#AED"/>
    <use width="10.48" height="10.83" transform="translate(121.09 795.87) scale(2.97)" xlink:href="#AED"/>
    <use width="10.48" height="10.83" transform="translate(1062.09 540.87) scale(2.97)" xlink:href="#AED"/>
    <use width="10.48" height="10.83" transform="translate(1019.09 201.87) scale(2.97)" xlink:href="#AED"/>
    <use width="10.48" height="10.83" transform="translate(547.09 247.87) scale(3.8)" xlink:href="#AED"/>
    <use width="10.48" height="10.83" transform="translate(357.22 812) scale(.95 1.02)" xlink:href="#AED"/>
    <use width="10.48" height="10.83" transform="translate(1349.22 243) scale(.95 1.02)" xlink:href="#AED"/>
    <use width="10.48" height="10.83" transform="translate(1217.22 70) scale(.95 1.02)" xlink:href="#AED"/>
    <use width="10.48" height="10.83" transform="translate(1097.22 39) scale(1.05 1.02)" xlink:href="#AED"/>
    <use width="10.48" height="10.83" transform="translate(814.22 241) scale(1.05 .92)" xlink:href="#AED"/>
    <use width="10.48" height="10.83" transform="translate(823.22 131) scale(.95 1.02)" xlink:href="#AED"/>
    <use width="10.48" height="10.83" transform="translate(712.22 133) scale(1.05 .92)" xlink:href="#AED"/>
    <use width="10.48" height="10.83" transform="translate(715.22 247) scale(1.05 1.02)" xlink:href="#AED"/>
    <use width="10.48" height="10.83" transform="translate(446.22 250) scale(1.05 1.02)" xlink:href="#AED"/>
    <use width="10.48" height="10.83" transform="translate(455.22 136) scale(.95 .92)" xlink:href="#AED"/>
    <use width="10.48" height="10.83" transform="translate(341.22 130) scale(1.05 1.02)" xlink:href="#AED"/>
    <use width="10.48" height="10.83" transform="translate(347.22 249) scale(.95 1.02)" xlink:href="#AED"/>
  </g>
</svg>