<?xml version="1.0" encoding="UTF-8"?>
<svg id="_图层_1" data-name="图层 1" xmlns="http://www.w3.org/2000/svg" version="1.1" viewBox="0 0 1630.4 1070">
  <defs>
    <style>
      .cls-1 {
        fill: #cff;
        stroke: #cff;
      }

      .cls-1, .cls-2, .cls-3, .cls-4 {
        stroke-miterlimit: 10;
      }

      .cls-5, .cls-6, .cls-7, .cls-8, .cls-9, .cls-10, .cls-11, .cls-12, .cls-4, .cls-13, .cls-14, .cls-15, .cls-16, .cls-17, .cls-18, .cls-19 {
        isolation: isolate;
      }

      .cls-5, .cls-6, .cls-7, .cls-10, .cls-12, .cls-4, .cls-13, .cls-15, .cls-16, .cls-17, .cls-18, .cls-19 {
        fill: #000;
      }

      .cls-5, .cls-7, .cls-9, .cls-12, .cls-4, .cls-13, .cls-14, .cls-15, .cls-18, .cls-19 {
        font-family: ArialMT, Arial;
      }

      .cls-5, .cls-17 {
        font-size: 5px;
      }

      .cls-2, .cls-20, .cls-21, .cls-22, .cls-23, .cls-24, .cls-25, .cls-26 {
        fill: #545454;
      }

      .cls-2, .cls-21, .cls-22, .cls-23, .cls-24, .cls-25, .cls-26 {
        stroke: #545454;
      }

      .cls-20, .cls-27 {
        stroke-width: 0px;
      }

      .cls-3, .cls-28, .cls-4, .cls-29 {
        stroke: #fff;
      }

      .cls-3, .cls-28, .cls-29 {
        fill: #dc8a78;
      }

      .cls-30 {
        stroke-dasharray: 0 0 0 0 0 0 15 15;
      }

      .cls-30, .cls-31, .cls-32, .cls-33, .cls-34 {
        fill: none;
        stroke: #a0a1a6;
        stroke-linecap: round;
        stroke-linejoin: round;
        stroke-width: 4px;
      }

      .cls-21 {
        stroke-miterlimit: 10;
        stroke-width: 1px;
      }

      .cls-6, .cls-10, .cls-11, .cls-16, .cls-17 {
        font-family: AdobeSongStd-Light-GBpc-EUC-H, 'Adobe Song Std';
        font-weight: 300;
      }

      .cls-6, .cls-19 {
        font-size: 6px;
      }

      .cls-22 {
        stroke-miterlimit: 10;
        stroke-width: 1px;
      }

      .cls-23 {
        stroke-miterlimit: 10;
        stroke-width: 1px;
      }

      .cls-7, .cls-4 {
        font-size: 17px;
      }

      .cls-31 {
        stroke-dasharray: 0 0 0 0 0 0 14.9 14.9;
      }

      .cls-27 {
        fill: #a0a1a6;
      }

      .cls-9, .cls-11 {
        font-size: 11px;
      }

      .cls-9, .cls-11, .cls-14 {
        fill: #fff;
      }

      .cls-10, .cls-13 {
        font-size: 29px;
      }

      .cls-33 {
        stroke-dasharray: 0 0 0 0 0 0 15.1 15.1;
      }

      .cls-28 {
        stroke-miterlimit: 10;
        stroke-width: 1px;
      }

      .cls-24 {
        stroke-miterlimit: 10;
        stroke-width: 1px;
      }

      .cls-12 {
        font-size: 33.8px;
      }

      .cls-14 {
        font-size: 22px;
      }

      .cls-15, .cls-16 {
        font-size: 9px;
      }

      .cls-34 {
        stroke-dasharray: 0 0 0 0 0 0 16.5 16.5;
      }

      .cls-18 {
        font-size: 98.6px;
      }

      .cls-25 {
        stroke-miterlimit: 10;
        stroke-width: 1px;
      }

      .cls-26 {
        stroke-miterlimit: 10;
        stroke-width: 1px;
      }

      .cls-29 {
        stroke-miterlimit: 10;
        stroke-width: 1px;
      }
    </style>
  </defs>
  <g>
    <path class="cls-2" d="M632,932.5l-4.6,13c-.2,1.2-.3,2.3-.5,3.3,0,.2,0,.5-.2.7-.8,3.7-2,6-3.3,6s-2.5-2.3-3.3-6c0-.2,0-.5-.2-.7-.2-1.2-.5-2.5-.6-3.9l-4.4-12.4,5.2-7c.1-.6.3-1.2.5-1.8-1.6-1.8-2.6-4.8-2.6-8.2s.1-2.3.4-3.4l-2.8-6.2c2.9-1.6,6.3-2.4,9.7-2,2.2.2,4.3.9,6.2,2l-2.2,4.7c.5,1.5.8,3.2.8,5,0,4-1.4,7.4-3.4,9,.1.5.3,1.1.4,1.7v-.7l5.2,7h0Z"/>
    <path class="cls-2" d="M626.9,948.8v33.7h-7v-33.7c0,.2,0,.5.2.7.8,3.7,2,6,3.3,6s2.5-2.3,3.3-6c0-.2.1-.5.2-.7Z"/>
    <rect class="cls-2" x="614.9" y="984.5" width="17" height="4" rx="1.5" ry="1.5"/>
    <rect class="cls-2" x="609.9" y="990.5" width="27" height="4" rx="1.5" ry="1.5"/>
    <g>
      <path class="cls-20" d="M624.4,923.4c.3,1.2.6,2.5,1,3.6"/>
      <path class="cls-20" d="M623,923.8c.3,1.2.6,2.5,1,3.6.1.4.3.7.7.9.3.2.8.3,1.2.2s.7-.3.9-.7.3-.8.2-1.2c-.4-1.2-.7-2.4-1-3.6,0-.3-.4-.7-.7-.9-.3-.2-.8-.3-1.2-.2s-.7.3-.9.7c-.2.4-.2.7-.2,1.2h0Z"/>
    </g>
    <g>
      <path class="cls-20" d="M624.5,924.2c.2,0,.3.3.3.5.2.8.4,1.6.7,2.3"/>
      <path class="cls-20" d="M624.1,925.6s0,0,0,0l-.4-.2s0,0,0,0l-.3-.2h0c0,0-.2-.2-.2-.2,0,0,0,0,0,.2l-.2-.4c.2.4.2.8.3,1.2.1.4.2.9.4,1.3,0,.4.4.7.7.9s.8.3,1.2.2.7-.3.9-.7.3-.8.2-1.2c-.2-.6-.3-1.2-.5-1.7,0-.3-.1-.5-.2-.8-.1-.3-.2-.6-.5-.8-.2-.2-.5-.4-.8-.5-.4,0-.8,0-1.2.2-.3.2-.6.5-.7.9,0,.4,0,.8.2,1.2s.5.6.9.7h0Z"/>
    </g>
    <g>
      <path class="cls-20" d="M625,923.9c.4,1.7.7,3.4.8,5.2"/>
      <path class="cls-20" d="M623.5,924.3c.3,1.1.5,2.3.7,3.5v-.4c0,.6,0,1.1.1,1.7,0,.4.1.8.4,1.1s.7.5,1.1.4c.8,0,1.6-.7,1.5-1.5-.2-1.9-.5-3.7-.9-5.6-.2-.8-1.1-1.3-1.8-1-.8.3-1.2,1-1,1.8h0Z"/>
    </g>
  </g>
  <g>
    <rect class="cls-2" x="560.9" y="1025.5" width="7" height="44"/>
    <rect class="cls-2" x="679.9" y="1025.5" width="7" height="44"/>
    <rect class="cls-2" x="579.9" y="1039.5" width="88" height="15"/>
  </g>
  <g>
    <rect class="cls-2" x="1585.9" y="342.5" width="44" height="7"/>
    <rect class="cls-2" x="1585.9" y="461.5" width="44" height="7"/>
    <rect class="cls-2" x="1600.9" y="361.5" width="15" height="88"/>
  </g>
  <g>
    <rect class="cls-2" x="62.9" y="469.5" width="82" height="8"/>
    <rect class="cls-2" x="55.9" y="473.5" width="96" height="8"/>
    <rect class="cls-2" x="66.9" y="427.5" width="1" height="44"/>
    <rect class="cls-2" x="82.9" y="427.5" width="1" height="44"/>
    <rect class="cls-2" x="71.9" y="457.5" width="1.5" height="13"/>
    <rect class="cls-2" x="68.9" y="457.5" width="1.5" height="13"/>
    <rect class="cls-2" x="74.9" y="457.5" width="1.5" height="13"/>
    <rect class="cls-2" x="77.9" y="457.5" width="1.5" height="13"/>
    <rect class="cls-2" x="80.9" y="457.5" width="1.5" height="13"/>
    <rect class="cls-2" x="128.9" y="457.5" width="1.5" height="13"/>
    <rect class="cls-2" x="125.9" y="457.5" width="1.5" height="13"/>
    <rect class="cls-2" x="131.9" y="457.5" width="1.5" height="13"/>
    <rect class="cls-2" x="134.9" y="457.5" width="1.5" height="13"/>
    <rect class="cls-2" x="137.9" y="457.5" width="1.5" height="13"/>
    <rect class="cls-2" x="123.9" y="427.5" width="1" height="44"/>
    <rect class="cls-2" x="139.9" y="427.5" width="1" height="44"/>
    <rect class="cls-2" x="66.9" y="418.5" width="74" height="9"/>
    <polygon class="cls-2" points="149.9 419.5 57.9 419.5 103.9 393.5 149.9 419.5"/>
  </g>
  <g>
    <rect class="cls-22" x="398.9" y="109.5" width="80" height="26" transform="translate(27.2 317.8) rotate(-41)"/>
    <rect class="cls-22" x="425.9" y="82.5" width="26" height="80" transform="translate(27.2 317.8) rotate(-41)"/>
  </g>
  <g>
    <rect class="cls-22" x="288.9" y="106.5" width="80" height="26" transform="translate(2.2 244.9) rotate(-41)"/>
    <rect class="cls-22" x="315.9" y="79.5" width="26" height="80" transform="translate(2.2 244.9) rotate(-41)"/>
  </g>
  <g>
    <rect class="cls-22" x="391.9" y="224.5" width="80" height="26" transform="translate(-49.9 341.3) rotate(-41)"/>
    <rect class="cls-22" x="418.9" y="197.5" width="26" height="80" transform="translate(-49.9 341.3) rotate(-41)"/>
  </g>
  <g>
    <rect class="cls-22" x="293.9" y="224.5" width="80" height="26" transform="translate(-73.9 277.1) rotate(-41)"/>
    <rect class="cls-22" x="320.9" y="197.5" width="26" height="80" transform="translate(-73.9 277.1) rotate(-41)"/>
  </g>
  <g>
    <rect class="cls-22" x="767.9" y="104.5" width="80" height="26" transform="translate(120.8 558.5) rotate(-41)"/>
    <rect class="cls-22" x="794.9" y="77.5" width="26" height="80" transform="translate(120.8 558.5) rotate(-41)"/>
  </g>
  <g>
    <rect class="cls-22" x="658.9" y="109.5" width="80" height="26" transform="translate(90.9 488.2) rotate(-41)"/>
    <rect class="cls-22" x="685.9" y="82.5" width="26" height="80" transform="translate(90.9 488.2) rotate(-41)"/>
  </g>
  <g>
    <rect class="cls-22" x="937.6" y="91" width="194.3" height="26" transform="translate(185.3 703.9) rotate(-41)"/>
    <rect class="cls-22" x="1064.9" y="26.5" width="26" height="80" transform="translate(220.4 723) rotate(-41)"/>
  </g>
  <g>
    <rect class="cls-24" x="988.2" y="161.5" width="26" height="194.3" transform="translate(462.5 1141.4) rotate(-73.1)"/>
    <rect class="cls-24" x="906.6" y="229.1" width="80" height="26" transform="translate(439.6 1077.3) rotate(-73.1)"/>
  </g>
  <g>
    <rect class="cls-25" x="1117.7" y="279.6" width="194.3" height="26" transform="translate(-15.1 71.7) rotate(-3.4)"/>
    <rect class="cls-25" x="1144.8" y="255.9" width="26" height="80" transform="translate(-15.4 68.4) rotate(-3.4)"/>
  </g>
  <g>
    <rect class="cls-23" x="1279.7" y="128.2" width="26" height="194.3" transform="translate(1039.4 1512.8) rotate(-88.8)"/>
    <rect class="cls-21" x="1309.9" y="213.7" width="80" height="26" transform="translate(1094 1571.4) rotate(-88.8)"/>
  </g>
  <g>
    <rect class="cls-26" x="1279.5" y="25.9" width="26" height="194.3" transform="translate(514.8 1162.7) rotate(-58.6)"/>
    <rect class="cls-26" x="1203.7" y="80.2" width="80" height="26" transform="translate(516.8 1106.7) rotate(-58.6)"/>
  </g>
  <g>
    <rect class="cls-22" x="760.9" y="219.5" width="80" height="26" transform="translate(43.7 582.1) rotate(-41)"/>
    <rect class="cls-22" x="787.9" y="192.5" width="26" height="80" transform="translate(43.7 582) rotate(-41)"/>
  </g>
  <g>
    <rect class="cls-22" x="662.9" y="219.5" width="80" height="26" transform="translate(19.7 517.8) rotate(-41)"/>
    <rect class="cls-22" x="689.9" y="192.5" width="26" height="80" transform="translate(19.7 517.8) rotate(-41)"/>
  </g>
  <path class="cls-1" d="M727.7,626.3c7.6-1.8-17.5-20.5-8.8-33.7,10.9-16.5,67.6-13.2,110.2-5.1,8.5,1.6,44.9,9.1,67.3,26.8,32.1,25.3,9.9,51.2,17.9,53.8,14.7,4.9,145.2-65.1,66.1-142.3-42.9-41.9-150.7-36-195-77-41.8-38.7,50.6-69.4,17.8-94.8-31.7-24.5-140.4-18.7-198.1-9.1-39.7,6.6-111.2,18.5-116.4,54.4-3.6,25,27,45.6,9.5,55.7-20.5,11.8-70.1-12.1-100.4-2.1-35.1,11.6-26.3,62.7,24,91.7,29.2,16.8,65.5,22.2,88.2,25.6,60.3,9,69.2-4.9,110.8,4.7,59,13.6,96.2,54,106.9,51.4h0Z"/>
  <g class="cls-8">
    <text class="cls-9" transform="translate(584.7 1022.7)"><tspan x="0" y="0">Southern Entrance</tspan></text>
    <text class="cls-11" transform="translate(613.8 1035.9)"><tspan x="0" y="0">南门</tspan></text>
  </g>
  <g class="cls-8">
    <text class="cls-9" transform="translate(1525 405.7)"><tspan x="0" y="0">Main Entrance</tspan></text>
    <text class="cls-11" transform="translate(1545.8 418.9)"><tspan x="0" y="0">主门</tspan></text>
  </g>
  <g id="_图层_4" data-name=" 图层 4">
    <g>
      <line class="cls-32" x1="568.4" y1="992" x2="560.9" y2="992"/>
      <path class="cls-33" d="M545.8,992H243.9c-5.9-.1-10.6-4.9-10.6-10.7v-155.9c0-5.7-4.6-10.3-10.3-10.3h-46"/>
      <line class="cls-32" x1="169.5" y1="815" x2="162" y2="815"/>
    </g>
    <g>
      <line class="cls-32" x1="233.4" y1="791" x2="233.4" y2="783.5"/>
      <path class="cls-31" d="M233.4,768.6v-60.5c0-5.6,4.5-10.1,10.1-10.1h770.1c10.4,0,18.8,8.4,18.8,18.8l-.4,262.8c0,6-4.9,10.9-10.9,11l-326.2,1.3"/>
      <line class="cls-32" x1="687.4" y1="991.8" x2="679.9" y2="991.9"/>
      <path class="cls-27" d="M238.6,791c0,2.9-2.4,5.3-5.3,5.3s-5.3-2.4-5.3-5.3,2.4-5.3,5.3-5.3,5.3,2.4,5.3,5.3Z"/>
    </g>
    <g>
      <path class="cls-30" d="M1059.5,991h474.4c6.8-3.1,11.4-7.8,11.4-13.6v-501.1"/>
      <path class="cls-27" d="M1059.5,996.3c-2.9,0-5.3-2.4-5.3-5.3s2.4-5.3,5.3-5.3,5.3,2.4,5.3,5.3-2.4,5.3-5.3,5.3Z"/>
    </g>
    <g>
      <path class="cls-30" d="M1032.3,668.2l2.3-340.4c0-5.7-4.6-10.4-10.3-10.4H243.6c-5.7,0-10.3-4.6-10.3-10.3V12.6c0-5.7,4.6-10.3,10.3-10.3l962.7-.4h328.7c5.7,0,10.3,4.6,10.3,10.3v348.3c0,5.7-4.6,10.3-10.2,10.3l-466.8,1.2"/>
      <path class="cls-27" d="M1037.6,668.3c0,2.9-2.4,5.2-5.3,5.2s-5.2-2.4-5.2-5.3,2.4-5.2,5.3-5.2,5.2,2.4,5.2,5.3Z"/>
      <path class="cls-27" d="M1068.4,366.7c-2.9,0-5.3,2.4-5.2,5.3,0,2.9,2.4,5.3,5.3,5.2,2.9,0,5.3-2.4,5.2-5.3,0-2.9-2.4-5.3-5.3-5.2Z"/>
    </g>
    <g>
      <line class="cls-30" x1="233.4" y1="335.1" x2="233.4" y2="683.3"/>
      <path class="cls-27" d="M228.1,335.1c0-2.9,2.4-5.3,5.3-5.3s5.3,2.4,5.3,5.3-2.4,5.3-5.3,5.3-5.3-2.4-5.3-5.3Z"/>
      <path class="cls-27" d="M228.1,683.3c0,2.9,2.4,5.3,5.3,5.3s5.3-2.4,5.3-5.3-2.4-5.3-5.3-5.3-5.3,2.4-5.3,5.3Z"/>
    </g>
    <g>
      <path class="cls-30" d="M434.9,335.1s-230.5,146.9-9.5,265.9"/>
      <path class="cls-27" d="M432,330.7c2.5-1.6,5.7-.8,7.3,1.6,1.6,2.5.8,5.7-1.6,7.3-2.5,1.6-5.7.8-7.3-1.6-1.6-2.5-.8-5.7,1.6-7.3Z"/>
      <path class="cls-27" d="M422.9,605.6c2.6,1.4,5.8.4,7.1-2.1s.4-5.8-2.1-7.1c-2.6-1.4-5.8-.4-7.1,2.1s-.4,5.8,2.1,7.1Z"/>
    </g>
    <g>
      <line class="cls-30" x1="590.7" y1="624.3" x2="846.9" y2="338.9"/>
      <path class="cls-27" d="M594.8,627.6c-1.9,2.2-5.3,2.3-7.4.4s-2.3-5.3-.4-7.4,5.3-2.3,7.4-.4,2.3,5.3.4,7.4Z"/>
      <circle class="cls-27" cx="846.7" cy="339" r="5.3"/>
    </g>
    <g>
      <path class="cls-30" d="M214.4,557.2c-21.6.6-105.7-1.2-103.5-68.7"/>
      <path class="cls-27" d="M213.9,552c2.9-.1,5.4,2.1,5.5,5s-2.1,5.4-5,5.5c-2.9.1-5.4-2.1-5.5-5s2.1-5.4,5-5.5Z"/>
    </g>
    <g>
      <path class="cls-30" d="M443.6,612.8l122,20.5c5,.8,8.7,5.2,8.7,10.3v44.4"/>
      <path class="cls-27" d="M569.1,687.7c0,2.9,2.4,5.3,5.3,5.3s5.3-2.4,5.3-5.3-2.4-5.3-5.3-5.3-5.3,2.4-5.3,5.3Z"/>
    </g>
    <g>
      <line class="cls-32" x1="256.2" y1="673.5" x2="263.2" y2="670.7"/>
      <line class="cls-34" x1="278.5" y1="664.6" x2="393.2" y2="618.7"/>
      <line class="cls-32" x1="400.9" y1="615.6" x2="407.9" y2="612.8"/>
    </g>
  </g>
  <path class="cls-3" d="M691.4,747.7l-31.3,60.1c-8.5-4.3-17.9-7.2-28-8.2-15.7-1.7-30.9,1.4-44,7.9l-31.2-60.4c24.5-12.2,52.8-17.8,82.2-14.8,18.8,2,36.4,7.3,52.2,15.3h0Z"/>
  <path class="cls-3" d="M182.9,653.1l9.6,108.5c-15.2,1.5-30.4,5.7-44.9,13-22.7,11.3-40.6,28.5-52.6,48.7L.7,768.2c22.6-37.7,55.9-69.7,98.3-90.9,27.1-13.5,55.5-21.5,83.9-24.3h0Z"/>
  <path class="cls-20" d="M828.8,774.7l-28.3,36c-5-3.9-10.8-7-17.2-9-10.1-3.1-20.4-3-29.8-.2l-12.6-44c17.6-5,36.9-5.2,55.7.5,12,3.7,22.9,9.4,32.2,16.7h0Z"/>
  <path class="cls-20" d="M959.2,839.1l-33.4,31.4c-4.4-4.6-9.6-8.5-15.7-11.4-9.5-4.5-19.7-6-29.5-4.7l-5.9-45.4c18.2-2.3,37.2.3,55,8.8,11.4,5.4,21.2,12.7,29.4,21.4h0Z"/>
  <path class="cls-20" d="M417.3,773.7l28.3,36c5-3.9,10.8-7,17.2-9,10.1-3.1,20.4-3,29.8-.2l12.6-44c-17.6-5-36.9-5.2-55.7.5-12,3.7-22.9,9.4-32.2,16.7h0Z"/>
  <path class="cls-3" d="M286.8,838.1l33.4,31.4c4.4-4.6,9.6-8.5,15.7-11.4,9.5-4.5,19.7-6,29.5-4.7l5.9-45.4c-18.2-2.3-37.2.3-55,8.8-11.4,5.4-21.2,12.7-29.4,21.4h0Z"/>
  <rect class="cls-29" x="267.9" y="852.5" width="38" height="34" transform="translate(-547.2 491.8) rotate(-47.4)"/>
  <rect class="cls-3" x="1097.9" y="722.5" width="305" height="234"/>
  <rect class="cls-3" x="490.9" y="126.5" width="148" height="111"/>
  <rect class="cls-3" x="1096.9" y="439.5" width="402" height="234"/>
  <rect class="cls-3" x="1417.9" y="838.5" width="47" height="113"/>
  <circle class="cls-3" cx="431.9" cy="488.5" r="36"/>
  <ellipse class="cls-28" cx="1129.4" cy="173.5" rx="91" ry="64.5" transform="translate(208.1 849.4) rotate(-45)"/>
  <g class="cls-8">
    <text class="cls-19" transform="translate(37.7 750.1)"><tspan x="0" y="0">International Academic Exchange Centre (IAEC)</tspan></text>
    <text class="cls-6" transform="translate(53.5 757.3)"><tspan x="0" y="0">国际学术交流中心</tspan></text>
  </g>
  <g class="cls-8">
    <text class="cls-7" transform="translate(324.6 842.6)"><tspan x="0" y="0">A1</tspan></text>
  </g>
  <g class="cls-8">
    <text class="cls-4" transform="translate(454.3 783.5)"><tspan x="0" y="0">A2</tspan></text>
  </g>
  <g class="cls-8">
    <text class="cls-7" transform="translate(613.1 772.6)"><tspan x="0" y="0">A3</tspan></text>
  </g>
  <g class="cls-8">
    <text class="cls-15" transform="translate(402 489.6)"><tspan x="0" y="0">Musical Island</tspan></text>
    <text class="cls-16" transform="translate(413.8 500.4)"><tspan x="0" y="0">音乐岛</tspan></text>
  </g>
  <g class="cls-8">
    <text class="cls-4" transform="translate(774.1 785.7)"><tspan x="0" y="0">A4</tspan></text>
  </g>
  <g class="cls-8">
    <text class="cls-12" transform="translate(1105.6 189.4) scale(.9 1)"><tspan x="0" y="0">D6</tspan></text>
  </g>
  <g class="cls-8">
    <text class="cls-12" transform="translate(538.8 193.6) scale(.9 1)"><tspan x="0" y="0">LY3</tspan></text>
  </g>
  <g class="cls-8">
    <text class="cls-14" transform="translate(313 126.4) scale(.9 1)"><tspan x="0" y="0">LY6</tspan></text>
  </g>
  <g class="cls-8">
    <text class="cls-14" transform="translate(317 243.4) scale(.9 1)"><tspan x="0" y="0">LY1</tspan></text>
  </g>
  <g class="cls-8">
    <text class="cls-14" transform="translate(417 243.4) scale(.9 1)"><tspan x="0" y="0">LY2</tspan></text>
  </g>
  <g class="cls-8">
    <text class="cls-14" transform="translate(422 126.4) scale(.9 1)"><tspan x="0" y="0">LY7</tspan></text>
  </g>
  <g class="cls-8">
    <text class="cls-14" transform="translate(685 126.4) scale(.9 1)"><tspan x="0" y="0">LY8</tspan></text>
  </g>
  <g class="cls-8">
    <text class="cls-14" transform="translate(688 241.4) scale(.9 1)"><tspan x="0" y="0">LY4</tspan></text>
  </g>
  <g class="cls-8">
    <text class="cls-14" transform="translate(784 237.4) scale(.9 1)"><tspan x="0" y="0">LY5</tspan></text>
  </g>
  <g class="cls-8">
    <text class="cls-14" transform="translate(791 126.4) scale(.9 1)"><tspan x="0" y="0">LY9</tspan></text>
  </g>
  <g class="cls-8">
    <text class="cls-14" transform="translate(1065.2 76.4) scale(.9 1)"><tspan x="0" y="0">D5</tspan></text>
  </g>
  <g class="cls-8">
    <text class="cls-14" transform="translate(934.2 246.4) scale(.9 1)"><tspan x="0" y="0">D4</tspan></text>
  </g>
  <g class="cls-8">
    <text class="cls-14" transform="translate(1145.2 302.4) scale(.9 1)"><tspan x="0" y="0">D3</tspan></text>
  </g>
  <g class="cls-8">
    <text class="cls-14" transform="translate(1341.2 232.4) scale(.9 1)"><tspan x="0" y="0">D1</tspan></text>
  </g>
  <g class="cls-8">
    <text class="cls-14" transform="translate(1231.2 98.4) scale(.9 1)"><tspan x="0" y="0">D2</tspan></text>
  </g>
  <g class="cls-8">
    <text class="cls-4" transform="translate(904.5 842.6)"><tspan x="0" y="0">A5</tspan></text>
  </g>
  <g class="cls-8">
    <text class="cls-7" transform="translate(1430.9 902.6)"><tspan x="0" y="0">B2</tspan></text>
  </g>
  <g class="cls-8">
    <text class="cls-13" transform="translate(1117.1 838.7)"><tspan x="0" y="0">Outdoor Sports Field</tspan></text>
    <text class="cls-10" transform="translate(1164.7 873.5)"><tspan x="0" y="0">室外运动场</tspan></text>
  </g>
  <g class="cls-8">
    <text class="cls-18" transform="translate(1218.5 590) scale(1.2 1)"><tspan x="0" y="0">B1</tspan></text>
  </g>
  <g class="cls-8">
    <text class="cls-5" transform="translate(270.5 869.7)"><tspan x="0" y="0">Auditorium Hall</tspan></text>
    <text class="cls-17" transform="translate(281.8 875.7)"><tspan x="0" y="0">礼堂</tspan></text>
  </g>
</svg>